<svg version="1.1" xmlns="http://www.w3.org/2000/svg" style="display: block;" viewBox="0 0 2048 2048" width="512" height="512" preserveAspectRatio="none">
<path transform="translate(0,0)" fill="rgb(0,56,217)" d="M 1327.35 673.249 C 1352.77 620.404 1372.45 622.398 1425.81 620.13 C 1726.25 607.358 1931.22 929.895 1797.39 1197.98 C 1749.48 1295.19 1664.44 1369 1561.46 1402.76 C 1493.27 1425.24 1350.26 1451.63 1320.98 1361.21 C 1318.57 1344.08 1318.7 1332.09 1320.94 1314.95 C 1323.11 1306.37 1326.86 1300.66 1331.33 1293.15 C 1327.53 1292.27 1322.58 1290.46 1319.02 1288.79 C 1250.63 1256.85 1198.46 1199.18 1171.58 1129.52 C 1143.21 1054.15 1145.26 970.69 1177.32 896.804 C 1207.15 829.879 1266.37 771.987 1334.75 745.537 C 1330.8 735.847 1329.11 730.362 1327.19 720.213 C 1324.29 699.784 1324.17 693.791 1327.35 673.249 z M 1394.23 1254.14 C 1403.63 1254.8 1414.02 1254.11 1423.52 1254.28 C 1480.3 1255.34 1532.29 1240.57 1577.59 1204.82 C 1628.02 1165.35 1660.19 1107.04 1666.71 1043.34 C 1673.22 982.627 1655.34 921.816 1616.99 874.301 C 1569.35 815.597 1503.04 784.758 1428.61 785.569 C 1417.73 785.688 1402.12 786.559 1391.61 785.287 L 1390.23 785.107 C 1375.27 791.821 1357.49 794.777 1341.34 801.732 C 1286.62 825.835 1243.51 870.424 1221.27 925.936 C 1196.76 987.436 1197.7 1056.16 1223.88 1116.97 C 1248.53 1174.46 1295.43 1219.52 1353.87 1241.87 C 1369.02 1247.75 1381.19 1249.53 1394.23 1254.14 z M 1406.76 1372.71 C 1505.95 1375.94 1609.64 1342.08 1682.68 1273.69 C 1748.6 1211.85 1786.94 1126.12 1789.08 1035.76 C 1791.39 966.082 1778.44 905.034 1743.93 844.25 C 1675.35 723.486 1537.6 659.282 1400.8 667.454 C 1371.61 672.013 1356.27 712.016 1385.53 728.308 C 1411.33 742.672 1444.4 735.296 1473.69 739.396 C 1587.93 755.693 1680.98 839.437 1709.19 951.336 C 1728.32 1025.83 1716.14 1099.53 1677.05 1165.57 C 1638.59 1230.15 1575.88 1276.66 1502.91 1294.72 C 1482.4 1299.92 1461.9 1301.69 1440.87 1302.5 C 1424.03 1303.33 1405.68 1300.36 1389.32 1304.86 C 1373.43 1309.23 1362.53 1330.11 1367.05 1345.76 C 1372.82 1365.72 1388.55 1370.83 1406.76 1372.71 z"/>
<path transform="translate(0,0)" fill="rgb(250,112,7)" d="M 1334.75 745.537 C 1346.7 758.83 1354.17 768.608 1370.83 776.277 C 1374.98 778.19 1387.16 783.244 1390.23 785.107 C 1375.27 791.821 1357.49 794.777 1341.34 801.732 C 1286.62 825.835 1243.51 870.424 1221.27 925.936 C 1196.76 987.436 1197.7 1056.16 1223.88 1116.97 C 1248.53 1174.46 1295.43 1219.52 1353.87 1241.87 C 1369.02 1247.75 1381.19 1249.53 1394.23 1254.14 C 1382.37 1259.9 1368.33 1261.33 1356.73 1268.54 C 1346.51 1274.89 1338.55 1283.64 1331.33 1293.15 C 1327.53 1292.27 1322.58 1290.46 1319.02 1288.79 C 1250.63 1256.85 1198.46 1199.18 1171.58 1129.52 C 1143.21 1054.15 1145.26 970.69 1177.32 896.804 C 1207.15 829.879 1266.37 771.987 1334.75 745.537 z"/>
<path transform="translate(0,0)" fill="rgb(44,92,174)" d="M 1327.19 720.213 C 1320.93 721.73 1282.37 721.216 1273.91 721.218 L 1151.8 721.22 L 758.496 721.175 L 640.942 721.195 C 599.251 721.219 561.703 721.102 520.567 724.47 C 420.488 730.416 338.794 776.202 288.785 864.22 C 282.126 875.94 263.744 930.398 245.558 926.934 C 207.29 919.643 215.544 900.683 228.002 874.252 C 249.045 828.546 279.53 787.815 317.452 754.741 C 362.968 715.317 418.288 688.918 477.568 678.334 C 518.8 670.587 594.43 672.818 638.092 672.905 L 865.992 672.936 L 1174.06 672.768 L 1263.6 672.73 C 1284.09 672.648 1307.17 671.938 1327.35 673.249 C 1324.17 693.791 1324.29 699.784 1327.19 720.213 z"/>
<path transform="translate(0,0)" fill="rgb(44,92,174)" d="M 217.412 1137.94 C 224.069 1129.25 240.945 1116.36 252.436 1117.77 C 265.238 1120.47 273.42 1145.36 278.924 1156.11 C 311.398 1219.54 378.416 1282.82 448.897 1301.46 C 514.081 1318.7 600.952 1314.08 669.997 1314.09 L 1121.22 1314.11 L 1254.63 1313.29 C 1273.36 1313.3 1302.68 1312.29 1320.94 1314.95 C 1318.7 1332.09 1318.57 1344.08 1320.98 1361.21 C 1312.28 1363.21 1259.4 1362.37 1246.92 1362.35 L 1084.63 1362.36 L 714.275 1362.4 L 594.397 1362.36 C 527.339 1362.15 463.82 1364.21 401.099 1335.87 C 315.866 1297.11 249.71 1225.83 217.412 1137.94 z"/>
<path transform="translate(0,0)" fill="rgb(250,112,7)" d="M 529.456 920.176 C 553.037 920.478 591.715 949.282 612.638 962.709 C 631.491 974.808 688.483 998.207 686.102 1025.21 C 685.524 1031.78 650.588 1052.63 642.989 1057.36 C 620.442 1071.2 597.808 1084.89 575.087 1098.44 C 562.148 1106.21 548.313 1115.31 534.504 1121.37 C 526.665 1124.8 517.161 1118.67 512.929 1111.81 C 510.722 1097.63 511.949 1062.04 512.154 1046.28 C 497.58 1047.59 483.125 1046.51 468.718 1046.94 C 430.793 1048.07 386.339 1045.06 348.892 1047.85 C 348.704 1030.71 348.303 1013.06 348.634 995.961 C 372.644 997.434 400.358 996.736 424.715 996.78 C 453.343 996.831 483.881 997.232 512.337 995.941 C 509.079 981.214 507.426 945.678 515.211 931.764 C 519.205 924.625 522.042 922.625 529.456 920.176 z M 561.096 1048.25 C 571.751 1042.02 582.409 1035.61 593.376 1029.96 C 599.885 1026.13 603.924 1024.02 610.795 1020.89 C 602.181 1017.39 594.99 1011.71 586.976 1006.99 C 578.55 1002.02 570.061 997.396 561.758 992.22 C 562.143 1008.51 563.077 1029.45 561.369 1045.5 L 561.096 1048.25 z"/>
<path transform="translate(0,0)" fill="rgb(250,112,7)" d="M 276.103 995.924 C 292.813 996.877 310.841 996.282 327.796 996.567 C 326.171 1008.98 326.973 1033.98 327.13 1047.45 C 314.794 1047.45 287.422 1046.56 276.594 1048.17 C 275.323 1035.91 276.011 1008.85 276.103 995.924 z"/>
<path transform="translate(0,0)" fill="rgb(250,112,7)" d="M 207.867 995.974 C 221.272 997.22 239.852 995.979 254.576 996.845 C 255.433 1012.67 253.929 1029.88 254.807 1046.27 C 247.704 1048.54 220.348 1046.6 208.17 1048.18 C 207.701 1030.78 207.6 1013.38 207.867 995.974 z"/>
</svg>