<svg version="1.1" xmlns="http://www.w3.org/2000/svg" style="display: block;" viewBox="0 0 2048 2048" width="512" height="512" preserveAspectRatio="none">
<path transform="translate(0,0)" fill="rgb(0,20,201)" d="M 872.87 531.827 L 872.286 531.706 C 827.633 522.802 829.539 493.332 828.889 457.036 C 827.937 403.916 854.877 402.233 899.447 402.083 C 912.38 402.04 927.358 402.089 940.752 402.093 L 1055.62 402.119 C 1078.16 402.2 1100.7 402.153 1123.23 401.979 C 1177.01 401.119 1220.07 390.686 1218.18 463.295 C 1217.25 498.928 1217.07 523.31 1175.71 531.194 C 1176.86 550.199 1176.08 577.951 1176.05 597.294 L 1175.95 715.184 L 1175.95 853.987 C 1175.96 880.222 1176.63 910.7 1175.4 936.537 C 1252.15 866.894 1227.53 855.837 1344.49 855.755 L 1413.84 855.73 L 1643.99 855.907 C 1651.5 847.683 1658.17 838.703 1665.75 830.505 C 1678.15 817.093 1745.26 746.771 1759.33 743.261 C 1764.99 741.851 1770.81 742.945 1775.63 746.195 C 1792.46 757.545 1818.67 788.707 1833.72 804.272 C 1851.6 822.754 1871.46 840.303 1887.62 860.298 C 1890.79 864.213 1893.65 868.008 1894.41 873.128 C 1894.86 876.23 1894.43 879.52 1892.3 881.974 C 1882.99 892.671 1851.23 889.977 1838 889.776 C 1838.95 901.905 1838.33 921.815 1838.32 934.707 L 1838.3 1014.95 L 1838.32 1095.16 C 1838.32 1109.13 1838.89 1128.83 1837.69 1142.13 C 1850.47 1140.59 1872.84 1139.77 1884.97 1145.16 C 1891.85 1148.22 1897.43 1158.26 1892.58 1165.39 C 1879.22 1185.08 1859.38 1201.04 1842.94 1218.41 C 1823.66 1238.79 1803.62 1258.92 1783.39 1278.35 C 1778.06 1283.46 1772.65 1285.62 1765.88 1287.61 C 1743.15 1280.25 1714.36 1244.34 1696.11 1227.06 C 1683.27 1214.9 1660.03 1191.32 1649.78 1177.18 C 1641.89 1176.68 1628.62 1177.15 1620.22 1177.17 L 1565.99 1177.22 C 1504.61 1177.45 1443.23 1177.33 1381.85 1176.88 C 1340.72 1219.5 1299.03 1261.57 1256.78 1303.07 C 1235.65 1324.05 1191.21 1362.43 1180.53 1388.94 C 1170.33 1414.27 1177.58 1459.6 1175.16 1487.68 C 1213.26 1493.12 1216.16 1504.28 1218.39 1539.31 C 1223.37 1617.28 1199.77 1615.68 1134.45 1615.01 L 1064.66 1614.88 L 940.996 1614.91 C 919.728 1614.94 897.532 1615.67 876.419 1614.69 C 864.863 1613.72 856.563 1613.25 846.792 1606.67 C 828.398 1594.31 833.95 1569.19 832.863 1549.78 C 832.023 1534.8 833.71 1513.53 843.62 1501.51 C 851.478 1491.97 861.215 1489.51 873.216 1488.67 C 872.301 1477.31 872.945 1461.04 872.908 1449.11 L 872.726 1372.42 C 872.672 1308.52 871.475 1240.45 873.065 1176.84 C 861.171 1177.98 834.271 1177.25 820.828 1177.26 L 717.861 1177.28 L 395.379 1177.09 C 386.841 1185.52 379.035 1195.49 370.565 1204.22 C 354.9 1220.35 339.241 1236.48 323.397 1252.45 C 314.023 1261.74 305.652 1271.32 295.214 1279.48 C 282.598 1289.94 268.841 1281.82 258.854 1271.78 C 235.28 1248.01 212.117 1223.82 188.382 1200.21 C 179.77 1191.64 154.159 1167.49 153.903 1155.76 C 161.427 1140.09 194.371 1141.59 209.224 1141.9 C 207.896 1092.18 209.136 1037.71 209.109 987.624 L 209.06 927.964 C 209.042 916.039 208.555 901.428 209.723 889.831 C 194.641 890 158.558 891.318 152.139 874.7 C 151.789 862.315 176.476 839.694 185.239 830.84 L 224.8 790.795 C 237.91 777.455 265.835 742.74 283.47 740.057 C 287.391 740.809 291.146 743.202 294.031 745.899 C 331.709 781.135 366.769 819.966 403.638 855.919 C 448.202 854.836 497.462 855.956 542.328 856.019 L 767.283 855.905 C 780.151 842.842 829.037 784.53 845.284 785.152 C 849.807 785.325 853.436 788.826 856.654 791.593 C 859.806 799.96 862.49 808.603 856.829 816.631 C 861.014 820.647 865.365 824.384 871.038 821.509 C 872.368 818.867 872.152 818.597 872.389 815.576 C 873.815 800.184 872.702 761.434 872.702 744.397 L 872.684 604.475 C 872.672 581.953 871.717 553.796 872.87 531.827 z"/>
<path transform="translate(0,0)" fill="rgb(190,209,247)" d="M 351.008 889.39 L 602.666 889.376 C 651.475 889.373 700.947 889.831 749.713 888.597 C 757.27 888.406 778.419 886.101 784.934 882.941 C 810.825 870.38 832.901 833.168 856.12 815.64 L 856.829 816.631 C 861.014 820.647 865.365 824.384 871.038 821.509 C 872.368 818.867 872.152 818.597 872.389 815.576 C 874.011 828.443 873.522 867.999 873.238 882.098 C 872.671 910.317 874.273 943.117 873.055 970.559 C 868.419 973.489 858.668 982.883 854.338 987.241 C 838.485 1003.19 823.018 1016.32 801.88 1024.99 C 770.304 1037.94 737.507 1035.83 704.224 1035.81 L 642.953 1035.79 L 456.739 1035.77 C 426.789 1035.79 380.688 1034.54 351.873 1037.07 C 350.562 1002.83 353.172 963.892 351.157 930.688 C 350.564 918.398 351.033 902.005 351.008 889.39 z"/>
<path transform="translate(0,0)" fill="rgb(141,166,250)" d="M 351.157 930.688 C 353.172 963.892 350.562 1002.83 351.873 1037.07 C 380.688 1034.54 426.789 1035.79 456.739 1035.77 L 642.953 1035.79 L 704.224 1035.81 C 737.507 1035.83 770.304 1037.94 801.88 1024.99 C 823.018 1016.32 838.485 1003.19 854.338 987.241 C 858.668 982.883 868.419 973.489 873.055 970.559 C 873.912 987.704 873.16 1010.78 873.159 1028.53 L 873.032 1142.66 C 855.812 1141.66 831.915 1142.32 814.086 1142.32 L 704.947 1142.34 L 351.118 1142.23 C 351.038 1073.62 349.456 998.8 351.157 930.688 z"/>
<path transform="translate(0,0)" fill="rgb(190,209,247)" d="M 1052.24 530.54 C 1058.66 529.5 1078.46 529.79 1085.86 529.88 C 1104.73 530.109 1124.27 529.699 1143.05 530.147 L 1143.12 970.322 C 1130.29 984.905 1068.25 1049.37 1053.84 1055.77 C 1047.56 1070.93 1068.94 1086.6 1081.51 1077.89 C 1092 1070.62 1104.42 1056.85 1113.68 1047.57 L 1202.69 958.104 C 1268.12 892.299 1257.61 888.578 1350.66 889.285 L 1425.49 889.358 L 1700.11 889.366 C 1700.36 939.204 1699.78 989.193 1700.38 1039.01 C 1701.01 1068.92 1701.71 1114.28 1700.19 1143.74 L 1487.75 1143.77 L 1421.99 1143.73 C 1392.68 1143.66 1373.28 1138.57 1350.57 1160.89 C 1330.99 1180.12 1311.42 1199.53 1291.97 1218.91 L 1178.11 1332.29 C 1150.83 1359.58 1142.43 1373.47 1142.63 1413.4 C 1142.75 1438.05 1143.18 1464.59 1143.06 1489.29 C 1123.06 1489.92 1102.1 1489.73 1082.01 1489.72 C 1069.91 1489.72 1052.49 1490.22 1040.91 1489.13 C 997.491 1488.01 951.685 1488.95 907.989 1488.75 L 907.988 530.897 C 953.654 531.015 1007 532.252 1052.24 530.54 z"/>
<path transform="translate(0,0)" fill="rgb(141,166,250)" d="M 1700.38 1039.01 C 1701.01 1068.92 1701.71 1114.28 1700.19 1143.74 L 1487.75 1143.77 L 1421.99 1143.73 C 1392.68 1143.66 1373.28 1138.57 1350.57 1160.89 C 1330.99 1180.12 1311.42 1199.53 1291.97 1218.91 L 1178.11 1332.29 C 1150.83 1359.58 1142.43 1373.47 1142.63 1413.4 C 1142.75 1438.05 1143.18 1464.59 1143.06 1489.29 C 1123.06 1489.92 1102.1 1489.73 1082.01 1489.72 C 1069.91 1489.72 1052.49 1490.22 1040.91 1489.13 L 1040.82 1384.5 C 1041.32 1309.95 1067.52 1292.79 1117.27 1243.18 L 1178.54 1182.07 C 1211.96 1148.67 1245.75 1114.49 1278.72 1080.69 C 1321.8 1036.52 1361.71 1038.89 1418.93 1038.86 L 1490.39 1038.85 L 1700.38 1039.01 z"/>
<path transform="translate(0,0)" fill="rgb(141,166,250)" d="M 1052.24 530.54 C 1058.66 529.5 1078.46 529.79 1085.86 529.88 C 1104.73 530.109 1124.27 529.699 1143.05 530.147 L 1143.12 970.322 C 1130.29 984.905 1068.25 1049.37 1053.84 1055.77 C 1052.55 1047.69 1053.08 1019.96 1053.07 1010.85 L 1053.06 921.644 L 1052.97 611.133 C 1052.97 601.719 1054.15 535.911 1052.24 530.54 z"/>
<path transform="translate(0,0)" fill="rgb(244,103,17)" d="M 279.119 782.169 L 282.052 780.721 C 284.949 782.171 347.106 847.436 355.488 855.706 C 332.457 854.589 318.671 850.711 318.138 879.128 C 317.877 893.017 317.729 907.18 317.725 921.12 L 317.705 992.568 L 317.667 1101.73 C 317.645 1120.57 316.422 1139.27 318.47 1157.99 C 320.362 1175.28 333.979 1176 348.57 1176.82 C 326.771 1196.44 302.72 1226.82 281.412 1244.4 L 274.161 1238.23 C 253.922 1219.24 232.462 1194.04 211.867 1176.77 C 220.297 1176.16 238.378 1175.02 240.621 1164.73 C 244.84 1145.37 242.971 1121.96 242.961 1102.1 L 242.976 1024.45 C 242.993 983.313 243.292 942.02 243.121 900.85 C 243.091 893.631 241.708 868.079 239.076 862.767 C 236.891 858.355 211.742 856.242 205.525 855.504 C 217.457 845.156 231.178 830.866 242.35 819.589 C 254.197 807.63 267.826 794.478 279.119 782.169 z"/>
<path transform="translate(0,0)" fill="rgb(249,138,62)" d="M 279.119 782.169 C 282.39 789.114 279.322 805.04 279.118 813.436 C 278.725 829.678 278.212 845.886 278.088 862.15 L 278.209 1126.48 C 278.223 1144.69 280.632 1228.34 274.161 1238.23 C 253.922 1219.24 232.462 1194.04 211.867 1176.77 C 220.297 1176.16 238.378 1175.02 240.621 1164.73 C 244.84 1145.37 242.971 1121.96 242.961 1102.1 L 242.976 1024.45 C 242.993 983.313 243.292 942.02 243.121 900.85 C 243.091 893.631 241.708 868.079 239.076 862.767 C 236.891 858.355 211.742 856.242 205.525 855.504 C 217.457 845.156 231.178 830.866 242.35 819.589 C 254.197 807.63 267.826 794.478 279.119 782.169 z"/>
<path transform="translate(0,0)" fill="rgb(244,103,17)" d="M 1696.05 852.82 C 1703.5 842.98 1757.97 783.575 1765.04 781.969 L 1766.07 783.207 C 1778.38 795.152 1790 807.289 1802.01 819.506 C 1810.56 828.204 1820.99 836.674 1828.94 845.696 C 1833.14 850.244 1837.69 855.383 1842.06 859.682 C 1833 859.21 1825.61 859.459 1816.6 859.773 C 1799.36 870.268 1801.81 894.983 1802.25 912.823 C 1802.73 932.639 1803.73 952.021 1803.73 971.901 L 1803.72 1095.66 C 1803.68 1112.58 1803.25 1130.05 1803.07 1146.98 C 1802.78 1172.95 1812.68 1174.52 1836.09 1176.41 L 1838 1176.56 C 1820.37 1192.43 1803.25 1211.74 1786.12 1228.35 C 1782.19 1232.16 1769.82 1245.36 1766.06 1247.9 C 1763.36 1246.85 1764.25 1247.41 1762.22 1245.36 C 1754.45 1234.08 1707.41 1187.85 1695.27 1176.53 C 1713.47 1176.04 1729.77 1176.89 1731.3 1154.44 C 1732.33 1139.45 1732.1 1125.24 1732.1 1110.25 L 1732.13 1033.7 L 1732.14 936.01 C 1732.14 918.875 1732.38 901.805 1731.8 884.672 C 1730.93 859.434 1718.88 855.4 1696.05 852.82 z"/>
<path transform="translate(0,0)" fill="rgb(249,138,62)" d="M 1696.05 852.82 C 1703.5 842.98 1757.97 783.575 1765.04 781.969 L 1766.07 783.207 C 1765.94 786.353 1766.06 788.178 1766.31 791.283 C 1768.11 813.422 1766.04 835.672 1765.98 857.794 C 1765.62 982.547 1765.95 1107.31 1766.05 1232.07 C 1766.06 1239.73 1766.35 1239.22 1762.22 1245.36 C 1754.45 1234.08 1707.41 1187.85 1695.27 1176.53 C 1713.47 1176.04 1729.77 1176.89 1731.3 1154.44 C 1732.33 1139.45 1732.1 1125.24 1732.1 1110.25 L 1732.13 1033.7 L 1732.14 936.01 C 1732.14 918.875 1732.38 901.805 1731.8 884.672 C 1730.93 859.434 1718.88 855.4 1696.05 852.82 z"/>
<path transform="translate(0,0)" fill="rgb(249,138,62)" d="M 1828.94 845.696 C 1833.14 850.244 1837.69 855.383 1842.06 859.682 C 1833 859.21 1825.61 859.459 1816.6 859.773 C 1824.56 853.807 1820.23 850.374 1828.94 845.696 z"/>
<path transform="translate(0,0)" fill="rgb(244,103,17)" d="M 863.908 435.845 C 890.795 435.081 914.562 435.8 941.276 435.965 L 1050.75 436.03 C 1089.79 436.02 1128.8 436.483 1167.78 434.335 C 1184.9 433.392 1184.22 447.692 1183.68 460.948 C 1183.44 468.688 1184.23 491.589 1178.41 496.097 C 1164.48 498.424 1140.2 497.668 1125.32 497.675 L 1039.61 497.684 L 936.959 497.645 C 916.299 497.635 885.787 498.353 865.923 495.579 C 863.823 483.013 864.008 472.093 863.978 459.446 L 863.908 435.845 z"/>
<path transform="translate(0,0)" fill="rgb(249,138,62)" d="M 863.908 435.845 C 890.795 435.081 914.562 435.8 941.276 435.965 L 1050.75 436.03 C 1089.79 436.02 1128.8 436.483 1167.78 434.335 C 1184.9 433.392 1184.22 447.692 1183.68 460.948 C 1177.17 457.514 1039.2 461.229 1018.86 460.153 C 990.358 458.645 936.858 462.34 905.706 460.788 C 893.422 460.176 876.928 461.998 863.978 459.446 L 863.908 435.845 z"/>
<path transform="translate(0,0)" fill="rgb(244,103,17)" d="M 866.599 1521.04 L 1184.06 1520.99 L 1183.87 1544.92 C 1183.83 1556.45 1183.51 1569.54 1183.89 1580.94 C 1084.66 1580.79 983.182 1579.79 884.136 1581.04 C 879.165 1581.43 871.931 1581.29 866.762 1581.33 C 866.019 1561.17 865.555 1541.2 866.599 1521.04 z"/>
<path transform="translate(0,0)" fill="rgb(249,138,62)" d="M 866.599 1521.04 L 1184.06 1520.99 L 1183.87 1544.92 C 1124.4 1545.13 1064.88 1545.06 1005.39 1544.95 C 977.425 1544.85 949.396 1540.77 921.483 1543.86 C 910.747 1545.05 903.729 1547.48 895.588 1555.09 C 889.938 1560.37 882.739 1573.32 884.136 1581.04 C 879.165 1581.43 871.931 1581.29 866.762 1581.33 C 866.019 1561.17 865.555 1541.2 866.599 1521.04 z"/>
</svg>