<svg version="1.1" xmlns="http://www.w3.org/2000/svg" style="display: block;" viewBox="0 0 2048 2048" width="512" height="512" preserveAspectRatio="none">
<path transform="translate(0,0)" fill="rgb(6,56,196)" d="M 1131.24 285.16 C 1123.97 281.188 1115.63 275.321 1111.17 268.133 C 1108.66 264.083 1107.86 259.653 1109.07 255.008 C 1110.66 248.909 1115.35 243.667 1120.77 240.623 C 1126 237.687 1131.16 237.224 1136.83 239.064 C 1156.07 245.304 1314.49 330.744 1319.06 341.234 C 1321.49 346.805 1319.95 357.801 1317.05 363.024 C 1314.74 367.208 1311.09 369.962 1306.49 371.2 C 1296.64 373.85 1287.91 369.733 1279.51 365.124 C 1271.87 384.173 1260.5 403.702 1251.48 422.323 C 1256.55 428.199 1260.61 434.873 1263.5 442.075 C 1275.19 471.717 1256.18 498.407 1243.77 526.801 C 1260.41 565.501 1246.53 591.057 1228.37 626.281 C 1227.52 627.918 1228.13 627.96 1228.89 629.569 C 1267.38 632.83 1303.02 651.151 1328.08 680.548 C 1345.65 701.317 1357.92 727.585 1360.89 754.738 C 1361.09 765.849 1361.03 776.057 1360.53 787.105 C 1360.33 791.585 1358.85 803.994 1359 807.594 C 1352.05 835.61 1340.27 859.277 1318.9 879.253 C 1314.75 882.255 1287.66 901.337 1285.87 903.491 C 1267.45 915.071 1237.06 921.675 1215.53 921.077 C 1171.72 919.861 1139.31 904.686 1109.1 874.153 C 1105.09 879.338 1102.65 890.305 1099.49 896.585 C 1084.76 925.931 1072.93 957.485 1057.21 986.237 C 1045.54 1007.59 1025.79 1014.54 1003.41 1019.98 C 986.348 1045.9 971.469 1113.38 937.258 1127.37 C 925.28 1122.57 912.011 1117.67 901.501 1110.28 C 897.341 1122.5 888.909 1142.37 877.808 1149.63 C 873.307 1152.57 869.383 1152.44 864.277 1151.17 C 853.266 1148.45 782.064 1111.28 772.119 1103.94 C 768.906 1101.57 766.905 1098.71 764.813 1095.36 C 768.112 1080.26 773.917 1066.39 781.501 1052.94 C 771.486 1048.1 752.758 1039.98 749.445 1028.35 C 746.273 1017.22 787.264 935.372 795.157 921.083 C 765.752 872.909 797.691 834.195 818.368 789.482 L 880.217 654.608 L 942.104 519.616 C 951.873 498.301 961.072 476.719 971.276 455.632 C 981.242 435.038 994.578 418.891 1019.58 420.79 C 1034.99 380.771 1049.96 337.52 1102.47 346.272 C 1106.34 333.732 1123.72 294.721 1131.24 285.16 z M 1081.63 832.385 L 1079.91 826.997 C 1052.24 739.519 1091.47 661.074 1179.69 633.837 C 1180.63 621.984 1205.31 575.393 1210.67 559.404 C 1203.66 545.072 1195.88 539.796 1181.53 533.333 C 1167.63 527.076 1153.52 521.161 1139.73 514.683 C 1119.23 505.148 1098.79 495.471 1078.43 485.652 C 1064.06 478.754 1050.19 471.761 1035.26 466.079 C 1023.52 461.609 1014.82 464.926 1009.16 476.45 C 996.651 501.909 985.165 528.018 973.344 553.837 L 905.083 702.734 L 856.817 807.914 C 846.782 829.599 830.561 861.269 824.89 883.349 C 824.428 885.157 823.988 886.97 823.571 888.789 C 836.103 897.401 856.362 907.623 870.26 914.659 C 896.016 927.684 922 940.251 948.201 952.354 C 966.013 960.68 990.335 975.46 1009.11 977.707 C 1015.71 978.496 1042.42 917.675 1045.42 910.731 C 1056.69 884.636 1071.16 858.482 1081.63 832.385 z M 1223.51 877.155 C 1279.73 873.185 1322.2 824.576 1318.59 768.333 C 1314.98 712.089 1266.64 669.308 1210.38 672.557 C 1153.6 675.836 1110.34 724.708 1113.99 781.463 C 1117.63 838.219 1166.78 881.161 1223.51 877.155 z M 1166.81 305.467 C 1162 316.743 1156.73 327.795 1151.75 338.995 C 1148.08 347.242 1145 356.005 1140.85 363.978 C 1162.04 370.064 1198.15 386.864 1218.59 397.439 C 1220.86 393.45 1223.26 384.817 1225.1 380.015 C 1229.57 368.049 1235.31 356.599 1242.23 345.862 C 1228.63 336.969 1181.17 309.635 1166.81 305.467 z M 858.408 1098.27 C 861.071 1094.49 860.904 1096.28 860.551 1092.86 C 853.117 1086.51 831.024 1076.99 821.372 1071.27 C 819.83 1075.29 819.107 1076.94 818.311 1081.11 C 820.749 1086.3 851.433 1098.37 858.408 1098.27 z M 1201.93 497.18 C 1213.31 497.783 1222.83 467.139 1224.24 457.148 C 1224.73 453.688 1219.96 449.508 1217.63 447.483 C 1195.89 432.327 1109.29 389.828 1087.54 384.778 C 1075.2 396.784 1069.12 416.469 1060.48 430.766 C 1071.7 435.685 1082.68 440.892 1093.79 446.04 C 1130.16 462.889 1166.84 477.625 1201.93 497.18 z M 832.889 942.469 L 810.509 989.696 C 807.297 996.614 802.793 1007.87 799.088 1014.08 C 812.923 1019.89 827.981 1027.34 841.348 1034.36 C 869.367 1049.08 899.657 1061.94 927.213 1077.28 C 935.559 1057.45 951.143 1024.8 961.404 1006.15 C 951.123 1002.58 930.721 991.849 920.264 986.686 L 832.889 942.469 z"/>
<path transform="translate(0,0)" fill="rgb(243,121,23)" d="M 1179.69 633.837 C 1198.82 630.567 1209.51 629.944 1228.89 629.569 C 1267.38 632.83 1303.02 651.151 1328.08 680.548 C 1345.65 701.317 1357.92 727.585 1360.89 754.738 C 1361.09 765.849 1361.03 776.057 1360.53 787.105 C 1360.33 791.585 1358.85 803.994 1359 807.594 C 1352.05 835.61 1340.27 859.277 1318.9 879.253 C 1314.75 882.255 1287.66 901.337 1285.87 903.491 C 1267.45 915.071 1237.06 921.675 1215.53 921.077 C 1171.72 919.861 1139.31 904.686 1109.1 874.153 C 1097.33 859.129 1091.07 848.671 1081.63 832.385 L 1079.91 826.997 C 1052.24 739.519 1091.47 661.074 1179.69 633.837 z M 1223.51 877.155 C 1279.73 873.185 1322.2 824.576 1318.59 768.333 C 1314.98 712.089 1266.64 669.308 1210.38 672.557 C 1153.6 675.836 1110.34 724.708 1113.99 781.463 C 1117.63 838.219 1166.78 881.161 1223.51 877.155 z"/>
<path transform="translate(0,0)" fill="rgb(243,121,23)" d="M 1206.44 688.199 C 1254.18 682.64 1297.38 716.842 1302.92 764.579 C 1308.46 812.317 1274.24 855.502 1226.5 861.021 C 1178.79 866.537 1135.63 832.342 1130.1 784.633 C 1124.56 736.924 1158.74 693.755 1206.44 688.199 z M 1215.5 816.216 C 1238.79 816.606 1258.02 798.092 1258.51 774.801 C 1258.99 751.511 1240.56 732.209 1217.27 731.625 C 1193.84 731.037 1174.4 749.603 1173.91 773.032 C 1173.42 796.46 1192.07 815.823 1215.5 816.216 z"/>
<path transform="translate(0,0)" fill="rgb(243,121,23)" d="M 1015.93 1502.58 C 1026.42 1477.92 1032.32 1464.75 1053.66 1446.89 C 1088.75 1417.53 1145.9 1414.1 1190.11 1419.24 C 1198.88 1423.73 1207.6 1427.88 1216.38 1432.48 C 1221.26 1435.03 1232.09 1441.66 1236.3 1443.44 C 1259.19 1461.85 1273.66 1476.9 1284.52 1505.69 C 1286.56 1517.82 1289.93 1537.39 1293.86 1548.63 L 1293.95 1549.67 C 1294.95 1562.81 1294.15 1580.41 1289.11 1592.61 C 1322.64 1593.07 1356.23 1592.73 1389.78 1592.71 C 1414.52 1592.69 1439.97 1591.41 1464.38 1595.95 C 1476.38 1598.18 1488.03 1602.32 1497.93 1609.57 C 1518.41 1624.55 1528.32 1646.44 1531.87 1671.1 C 1534.71 1690.84 1540.64 1782.96 1528.58 1794.94 C 1523.36 1800.12 1496.56 1799.37 1488.43 1799.51 C 1431.11 1800.53 1373.55 1799.28 1316.2 1799.27 L 948.949 1799.27 L 678.645 1799.29 C 634.451 1799.29 590.008 1799.44 545.818 1799.34 C 540.534 1799.33 524.694 1798.09 521.528 1794.18 C 518.167 1790.02 514.99 1780.78 514.615 1775.32 C 512.741 1744.28 512.763 1711.98 514.802 1680.91 C 521.461 1579.44 619.986 1592.77 694.553 1592.75 L 845.172 1592.74 L 950.276 1592.72 C 967.378 1592.68 990.989 1591.24 1007.37 1593.41 C 1003.23 1578.15 1003.88 1557.5 1005.37 1541.94 C 1008.79 1529.95 1013.63 1514.52 1015.93 1502.58 z M 1443.5 1756.13 C 1454.94 1756.11 1482.87 1755.38 1492.99 1756.59 C 1490.71 1712.56 1506.19 1636.97 1442.41 1635.57 C 1424.74 1635.19 1407.39 1635.15 1389.73 1635.23 L 1308.17 1635.3 L 1034.07 1635.3 L 745.48 1635.32 C 719.283 1635.32 693.014 1635.13 666.826 1635.23 C 648.872 1635.3 625.99 1633.04 608.543 1635.36 C 593.343 1637.1 581.725 1638.92 571.414 1651.49 C 559.593 1665.89 557.139 1687.78 557.241 1705.81 C 557.308 1717.74 555.846 1745.07 558.808 1755.86 C 586.374 1757.53 627.477 1756.12 656.4 1756.12 L 849.859 1756.11 L 1443.5 1756.13 z M 1153.5 1592.76 C 1182.65 1592.71 1218.77 1591.66 1247.29 1593.55 C 1250.39 1564.56 1252.38 1540.8 1239.72 1513.55 C 1223.46 1478.57 1185.23 1455.51 1146.46 1458.41 C 1117.84 1460.57 1093.36 1467.74 1073.81 1490.13 C 1049.55 1517.91 1045.76 1552.94 1048.42 1588.46 C 1048.55 1590.18 1048.8 1591 1049.34 1592.6 C 1060.5 1593.4 1075.25 1592.82 1086.82 1592.79 L 1153.5 1592.76 z"/>
<path transform="translate(0,0)" fill="rgb(6,56,196)" d="M 489.164 1268.05 C 505.693 1244.29 550.974 1252.44 577.568 1252.62 L 680.785 1252.66 L 874.373 1252.65 C 893.827 1252.66 956.166 1251.41 971.958 1255.15 C 974.295 1257.46 975.679 1259.08 977.409 1261.86 C 987.056 1277.37 984.625 1332.54 979.657 1349.22 C 967.184 1360.64 954.996 1358.93 938.99 1358.75 C 924.111 1358.57 908.434 1359.29 893.687 1358.01 C 894.87 1388.76 891.355 1423.32 906.94 1451.57 C 927.842 1489.46 979.521 1492.21 1015.93 1502.58 C 1013.63 1514.52 1008.79 1529.95 1005.37 1541.94 C 1004.19 1542 1003.24 1542.05 1002.05 1541.99 C 888.498 1536.59 847.599 1467.52 851.12 1358.16 L 630.633 1358.4 L 559.677 1358.44 C 542.478 1358.53 512.566 1360.69 497.366 1355.12 C 484.83 1337.27 488.942 1291.34 489.164 1268.05 z M 531.864 1316.03 C 608.96 1314.72 688.765 1315.76 766.05 1315.75 C 821.627 1315.74 885.211 1314.23 940.253 1316.08 C 940.132 1308.97 939.938 1302.35 940.41 1295.24 L 666.872 1295.29 L 578.847 1295.31 C 565.393 1295.31 544.804 1295.93 531.918 1295.05 C 531.992 1301.72 532.256 1309.46 531.864 1316.03 z"/>
<path transform="translate(0,0)" fill="rgb(6,56,196)" d="M 1360.89 754.738 C 1463 825.34 1524.4 922.505 1546.68 1044.76 C 1569.86 1172.32 1541.02 1303.86 1466.59 1410.03 C 1430.14 1461.13 1382.47 1503.21 1327.25 1533.06 C 1318.51 1537.83 1302.9 1546.24 1293.86 1548.63 C 1289.93 1537.39 1286.56 1517.82 1284.52 1505.69 C 1297.4 1503.13 1357.92 1460.01 1369.92 1449.6 C 1452.48 1378.13 1502.85 1276.47 1509.69 1167.49 C 1517.72 1051.07 1484.19 942.822 1407.58 853.253 C 1401.12 845.696 1366.23 808.053 1359 807.594 C 1358.85 803.994 1360.33 791.585 1360.53 787.105 C 1361.03 776.057 1361.09 765.849 1360.89 754.738 z"/>
<path transform="translate(0,0)" fill="rgb(6,56,196)" d="M 1285.87 903.491 C 1287.66 901.337 1314.75 882.255 1318.9 879.253 C 1330.43 889.101 1337.63 897.662 1347.35 909.269 C 1393.95 965.446 1421.91 1034.74 1427.33 1107.53 C 1434.45 1199.17 1404.95 1289.89 1345.29 1359.81 C 1320.94 1387.93 1297.34 1407.63 1265.54 1426.91 C 1256.2 1432.57 1246.4 1439.23 1236.3 1443.44 C 1232.09 1441.66 1221.26 1435.03 1216.38 1432.48 C 1207.6 1427.88 1198.88 1423.73 1190.11 1419.24 C 1215.18 1404.68 1233.78 1399.11 1260.06 1379.74 C 1328.15 1329.54 1368.97 1261.18 1381.89 1178.09 C 1394.42 1098.32 1374.72 1016.83 1327.14 951.582 C 1320.56 942.52 1313.46 933.85 1305.87 925.619 C 1299.1 918.367 1291.51 911.643 1285.87 903.491 z"/>
</svg>