<svg version="1.1" xmlns="http://www.w3.org/2000/svg" style="display: block;" viewBox="0 0 2048 2048" width="512" height="512" preserveAspectRatio="none">
<path transform="translate(0,0)" fill="rgb(9,44,219)" d="M 304.454 545.842 C 306.556 540.826 308.661 535.385 312.385 531.44 C 323.489 519.679 335.263 508.152 346.718 496.721 L 409.906 433.824 L 483.154 361.053 C 499.261 345.053 518.495 323.123 538.108 311.3 C 546.289 306.368 553.678 311.795 559.492 317.917 C 563.922 333.541 563.255 404.92 561.769 423.46 C 597.029 421.696 641.705 422.914 677.539 422.913 L 889.204 422.902 L 1047.95 422.908 C 1095.65 422.911 1144.36 422.342 1191.85 427.747 C 1321.41 443.181 1442.88 498.853 1539.16 586.929 C 1660.99 696.806 1734.41 850.418 1743.39 1014.23 C 1751.88 1178.51 1694.67 1339.41 1584.36 1461.44 C 1475.65 1581.11 1328.87 1653.49 1166.22 1664.1 C 1157.79 1664.65 1149.25 1664.81 1141.07 1662.5 C 1131.78 1654.11 1133.43 1647.85 1133.41 1635.88 C 1134.25 1629.14 1133.94 1606.96 1133.66 1599.81 C 1131.44 1558.22 1133.97 1515.15 1132.76 1473.36 C 1132.37 1459.92 1129.91 1426.04 1135.74 1414.97 C 1152.11 1406.58 1182.49 1405.98 1201.3 1403.11 C 1332.76 1383.04 1441.87 1280.5 1481.8 1155.11 C 1511.02 1063.34 1500.84 961.239 1456.5 875.398 C 1410.5 785.465 1330.53 717.597 1234.31 686.837 C 1176.09 668.496 1138.56 669.981 1079.1 670.01 L 978.25 669.957 L 675.95 669.859 L 602.213 669.892 C 591.148 669.895 572.137 670.442 561.899 669.225 C 563.507 696.477 572.638 810.297 518.374 764.529 C 503.616 752.08 488.78 735.765 474.926 721.971 L 392.314 639.732 C 377.721 625.166 363.062 610.675 348.45 596.131 C 331.038 578.798 313.769 569.594 304.454 545.842 z M 523.589 715.268 C 519.647 692.5 523.283 659.319 523.03 636.112 C 519.571 579.628 535.656 533.349 600.435 531.098 C 634.654 529.908 668.758 530.611 703.002 530.611 L 891.949 530.59 L 1040.24 530.578 C 1078.11 530.57 1115.35 530.494 1153.17 533.235 C 1266.38 541.44 1375.34 587.083 1460.28 662.599 C 1563.74 754.583 1629.16 886.653 1635.66 1025.46 C 1641.77 1158.5 1594.36 1288.45 1504.02 1386.31 C 1431.55 1464.73 1336.52 1518.72 1232.06 1540.81 C 1218.85 1543.53 1205.53 1545.67 1192.14 1547.21 C 1185.65 1547.94 1177.87 1548.15 1171.78 1549.14 C 1171.85 1566.08 1172.98 1609.1 1170.83 1623.97 C 1202.86 1618.07 1224.65 1616.14 1257.93 1607.86 C 1372.66 1579.34 1476.61 1518.06 1557.13 1431.5 C 1659.79 1323.32 1709.25 1179.52 1705.11 1031.38 C 1701.73 918.394 1665.43 808.858 1600.65 716.226 C 1501.16 574.286 1344.91 482.574 1172.48 464.909 C 1136.19 460.993 1096.58 461.16 1060.01 461.176 L 947.743 461.178 L 612.838 461.108 C 518.173 461.631 518.653 474.313 523.571 373.208 C 515.89 384.18 501.548 397.955 491.818 407.643 L 445.472 453.382 L 395.511 502.464 C 382.594 515.372 364.67 534.164 350.713 545.555 C 381.281 568.252 413.8 603.438 440.418 630.844 L 523.589 715.268 z"/>
<path transform="translate(0,0)" fill="rgb(169,178,227)" d="M 523.03 636.112 C 519.571 579.628 535.656 533.349 600.435 531.098 C 634.654 529.908 668.758 530.611 703.002 530.611 L 891.949 530.59 L 1040.24 530.578 C 1078.11 530.57 1115.35 530.494 1153.17 533.235 C 1266.38 541.44 1375.34 587.083 1460.28 662.599 C 1563.74 754.583 1629.16 886.653 1635.66 1025.46 C 1641.77 1158.5 1594.36 1288.45 1504.02 1386.31 C 1431.55 1464.73 1336.52 1518.72 1232.06 1540.81 C 1218.85 1543.53 1205.53 1545.67 1192.14 1547.21 C 1185.65 1547.94 1177.87 1548.15 1171.78 1549.14 C 1170.08 1537.65 1171.48 1519.71 1171.02 1506.22 C 1170.65 1495.36 1167.75 1458.19 1172.45 1449.54 C 1175.23 1444.42 1203.67 1442.88 1213.01 1441.08 C 1317.87 1420.42 1410.14 1358.73 1469.29 1269.71 C 1529.04 1181.37 1550.87 1072.76 1529.9 968.188 C 1509.23 863.006 1442.07 760.551 1353.27 700.285 C 1243.87 626.036 1104.11 631.974 977.4 631.966 L 748.872 631.974 L 624.614 631.941 C 591.049 631.876 555.502 629.704 523.03 636.112 z"/>
<path transform="translate(0,0)" fill="rgb(249,123,38)" d="M 666.015 1635.53 C 669.004 1656.12 674.593 1717.18 650.334 1724.54 C 642.292 1726.98 607.231 1688.03 600.626 1681.32 L 532.771 1612.72 C 504.927 1584.61 476.925 1556.72 448.811 1528.94 C 431.413 1511.74 465.88 1485.55 477.66 1473.94 L 518.453 1433.26 C 552.802 1398.93 588.151 1364.98 620.358 1328.61 C 634.315 1312.84 649.208 1306.78 665.664 1323.69 C 667.563 1336.22 666.807 1351.92 666.903 1364.75 C 667.079 1388.09 666.192 1411.66 666.274 1434.97 C 666.719 1473.6 666.877 1512.23 666.747 1550.86 C 666.755 1560.89 667.59 1592.26 665.734 1600.17 C 719.781 1598.99 776.853 1599.85 831.193 1599.85 L 1133.66 1599.81 C 1133.94 1606.96 1134.25 1629.14 1133.41 1635.88 C 1103 1636.62 1069.77 1635.93 1039.15 1635.92 L 855.364 1635.9 L 733.517 1635.95 C 713.156 1635.97 685.967 1636.76 666.015 1635.53 z M 488.255 1516.38 C 507.936 1534.35 528.46 1552.22 545.942 1572.38 C 550.836 1578.02 555.591 1582.57 560.671 1587.87 C 572.343 1599.23 583.858 1611.05 595.393 1622.46 C 602.901 1629.89 620.452 1650.38 628.485 1655.82 L 629.301 1655.15 C 628.507 1626.83 629.455 1377.87 627.719 1375.83 C 587.33 1416.54 545.991 1456.16 506.685 1497.95 C 500.75 1504.26 494.632 1510.52 488.255 1516.38 z"/>
<path transform="translate(0,0)" fill="rgb(249,123,38)" d="M 702.709 1416.38 C 714.09 1415.54 730.086 1414.85 740.669 1419.35 C 747.043 1422.05 750.867 1428.07 746.264 1434.57 C 741.556 1441.22 739.705 1441.53 731.836 1442.93 C 719.124 1443.37 703.071 1443.45 690.992 1438.9 C 682.702 1435.77 682.399 1429.14 687.596 1422.65 C 691.698 1417.53 696.647 1417.37 702.709 1416.38 z"/>
<path transform="translate(0,0)" fill="rgb(249,123,38)" d="M 793.603 1416.43 C 802.557 1416.13 820.87 1415.01 827.796 1419.83 C 846.941 1433.17 825.279 1441.59 813.49 1442.99 C 798.837 1442.87 754.508 1444.05 777.711 1418.72 C 783.321 1417.37 787.912 1417.01 793.603 1416.43 z"/>
<path transform="translate(0,0)" fill="rgb(249,123,38)" d="M 877.915 1416.34 C 890.876 1415.76 915.173 1413.95 920.72 1428.79 C 924.421 1438.69 909.706 1442.11 903.25 1442.85 C 892.198 1443.07 846.617 1444.98 861.334 1422.37 C 864.326 1417.77 872.906 1416.92 877.915 1416.34 z"/>
<path transform="translate(0,0)" fill="rgb(249,123,38)" d="M 963.72 1416.35 C 973.796 1415.7 1015.19 1414.1 1003.62 1434.9 C 1000.56 1440.42 996.983 1441.36 991.175 1442.99 C 978.613 1443.56 962.549 1444.03 950.844 1438.85 C 944.137 1435.89 940.38 1430.23 946.251 1423.87 C 952.475 1417.13 955.064 1417.16 963.72 1416.35 z"/>
<path transform="translate(0,0)" fill="rgb(249,123,38)" d="M 1052.52 1417.35 C 1063.42 1414.99 1085.55 1417.99 1091.83 1428.17 C 1092.91 1438.59 1080.31 1440.25 1072.32 1442.06 C 1062.67 1442.53 1025.61 1440.88 1028.32 1426.39 C 1033.44 1419.88 1044.73 1418.38 1052.52 1417.35 z"/>
</svg>