<svg version="1.1" xmlns="http://www.w3.org/2000/svg" style="display: block;" viewBox="0 0 2048 2048" width="512" height="512" preserveAspectRatio="none">
<defs>
	<linearGradient id="Gradient1" gradientUnits="userSpaceOnUse" x1="1517.12" y1="1572.49" x2="1528.08" y2="1412.59">
		<stop class="stop0" offset="0" stop-opacity="1" stop-color="rgb(239,88,6)"/>
		<stop class="stop1" offset="1" stop-opacity="1" stop-color="rgb(255,134,27)"/>
	</linearGradient>
</defs>
<path transform="translate(0,0)" fill="rgb(11,60,172)" d="M 757.113 580.586 C 772.618 497.083 809.898 403.359 854.144 330.62 C 886.61 277.246 936.272 217.283 999.362 201.677 C 1031.22 193.796 1066.09 200.524 1093.57 218.534 C 1177.62 273.612 1226.57 390.075 1260.78 480.692 C 1271.36 508.715 1286.21 553.315 1292.77 581.432 C 1312.24 571.946 1340.89 564.322 1362.21 558.131 C 1363.23 551.016 1364.2 544.57 1366 537.595 C 1371.31 516.925 1384.8 499.305 1403.37 488.784 C 1444.46 465.024 1493.39 483.412 1515.54 523.588 C 1540.8 526.018 1561.44 523.431 1586.29 524.186 C 1646.39 526.013 1721.22 537.701 1762.34 585.463 C 1781.81 608.073 1789.37 643.991 1785.6 672.528 C 1768.7 800.655 1635.63 939.75 1541.46 1017.76 C 1539.6 1019.28 1537.71 1020.78 1535.8 1022.24 C 1557.19 1044.44 1585.6 1067.2 1607.97 1089.64 C 1732.08 1214.12 1929.92 1466.22 1627.09 1518.95 C 1618.29 1520.49 1608.39 1520.47 1599.85 1521.92 C 1586.38 1557.61 1550.11 1579.32 1512.29 1574.33 C 1474.48 1569.34 1445.09 1538.95 1441.35 1500.99 C 1420.55 1501.03 1312.71 1471.01 1292.92 1462.71 C 1286.85 1485.93 1277.99 1510.99 1270.74 1534.08 C 1248.66 1604.44 1225.46 1668.02 1182.67 1728.92 C 1148.74 1777.21 1104.61 1824.02 1043.86 1835.86 C 1008.51 1842.75 969.635 1831.36 941.338 1809.92 C 845.929 1737.62 775.517 1576.68 756.957 1462.99 C 743.988 1468.17 707.305 1476.64 692.137 1480.65 C 604.254 1503.86 509.401 1526.97 418.003 1520.18 C 370.696 1516.67 319.976 1499.87 288.596 1462.7 C 268.409 1438.8 259.342 1405.12 262.773 1374.41 C 276.473 1251.79 422.013 1097.14 512.056 1022.22 C 493.575 1006.05 470.864 982.798 453 965.025 C 384.445 896.814 307.94 816.133 273.553 724.359 C 258.86 685.146 255.555 642.175 274.184 603.99 C 290.294 570.968 321.367 547.922 356.29 537.001 C 449.295 507.916 561.738 528.809 654.432 549.587 C 684.018 556.218 730.76 567.592 757.113 580.586 z M 1299.11 612.086 C 1303.28 622.974 1307.06 645.195 1309.33 657.204 C 1316.75 696.472 1322.64 736.65 1326.86 776.385 C 1329.99 805.873 1334.42 839.776 1335.11 869.279 C 1389.71 899.559 1436.46 940.366 1484.64 979.641 C 1492.75 986.252 1503.56 994.429 1510.35 1002.08 C 1527.87 978.645 1570.11 948.124 1592.18 924.163 C 1653.74 857.323 1751.1 754.521 1752.64 658.334 C 1754.35 550.942 1594.48 556.911 1522.87 558.372 C 1524.24 579.53 1517.35 602.694 1503.2 618.718 C 1488.96 634.619 1468.92 644.117 1447.6 645.068 C 1409.77 646.873 1378.95 626.903 1367.06 590.687 C 1361.14 595.066 1309.92 608.654 1299.11 612.086 z M 1336.01 1171.82 C 1332.32 1239.37 1324.4 1306.62 1312.3 1373.18 C 1309.36 1388.87 1304.39 1416.5 1299.34 1431.33 C 1310.09 1432.09 1334.61 1439.09 1345.27 1442.09 C 1369.88 1449 1394.79 1456.68 1419.43 1463.53 C 1422.99 1464.52 1442.09 1469.85 1444.19 1470.11 C 1455.35 1431.59 1492.71 1406.77 1532.55 1411.41 C 1572.39 1416.06 1603.03 1448.81 1605.03 1488.87 C 1646.99 1475.11 1698.66 1473.91 1734.14 1438.94 C 1747.56 1425.71 1754.9 1407.16 1754.26 1388.52 C 1751.08 1296.31 1653.26 1180.77 1590.95 1119.03 C 1573.19 1101.67 1555.04 1084.73 1536.5 1068.22 C 1528.52 1061.04 1518.64 1053.1 1511.28 1045.69 L 1510.45 1044.84 C 1457.97 1084.86 1406.54 1125.86 1350.77 1161.43 C 1345.72 1164.65 1340.63 1168.01 1336.01 1171.82 z M 743.586 888.577 C 744.111 947.207 743.012 1007.21 742.991 1065.99 L 743.288 1121.73 C 743.371 1131.26 743.962 1146.04 742.927 1154.85 C 800.408 1190.31 857.052 1227.65 915.796 1260.99 C 948.888 1279.78 988.92 1303.31 1024.76 1315.1 C 1054.67 1314.54 1268.21 1175.76 1304.29 1154.6 C 1305.71 1098.58 1306.31 1042.54 1306.09 986.501 C 1305.85 953.031 1303.9 918.96 1304.16 885.424 C 1292.03 881 1259.12 859.216 1245.73 851.076 C 1194.15 819.921 1142.06 789.595 1089.5 760.107 C 1078.75 754.06 1036.09 729.729 1026.08 727.229 C 939.171 771.306 855.328 818.608 773.03 870.845 C 763.675 876.782 753.3 883.284 743.586 888.577 z M 537.793 1001.77 C 544.359 995.794 550.88 989.596 558.01 984.321 C 593.032 953.05 639.554 920.964 677.682 893.041 C 689.149 884.643 706.225 875.772 716.172 868.021 C 715.738 802.608 726.21 725.04 737.894 660.758 C 740.215 647.991 745.358 623.93 750.002 612.367 C 679.639 589.199 541.935 553.421 467.87 555.449 C 449.886 556.422 431.658 555.895 413.757 557.347 C 378.686 560.192 341.376 572.562 317.354 599.402 C 299.818 618.995 293.728 644.182 295.342 669.992 C 302.285 781.017 458.557 928.22 537.793 1001.77 z M 505.756 1484.33 C 512.924 1483.87 519.762 1482.86 526.862 1482 C 604.019 1472.71 676.414 1455.17 750.141 1431.02 C 736.775 1388.58 709.998 1217.91 715.921 1176.13 C 706.685 1170.61 698.152 1164.37 689.379 1158.24 C 642.561 1125.56 595.022 1093.46 551.617 1056.24 C 548.421 1053.5 540.071 1045.61 536.279 1045.55 C 503.901 1071.37 462.706 1113.55 434.414 1145.09 C 377.007 1210.25 310.107 1286.64 295.958 1375.04 C 292.35 1397.58 298.643 1421.52 313.018 1438.93 C 357.67 1493.01 442.616 1488.67 505.756 1484.33 z M 787.815 1454.64 C 808.563 1535.89 831.933 1611.95 875.28 1684.7 C 907.102 1738.12 957.578 1803.48 1025.62 1805.12 C 1147.11 1789.72 1206.72 1620.56 1240.96 1521.06 C 1248.32 1499.68 1253.58 1475.65 1261.62 1454.79 C 1236.13 1442.34 1212.15 1434.43 1185.87 1424.18 C 1152.26 1411.15 1119.06 1397.08 1086.32 1381.99 C 1078.66 1378.45 1028.2 1353.84 1025.21 1353.89 C 972.01 1379.78 918.655 1402.78 863.629 1424.48 C 839.296 1434.08 812.189 1446.24 787.815 1454.64 z M 1298.76 1197.89 C 1275.92 1209.17 1254.61 1225.23 1232.7 1238.54 C 1185.75 1267.06 1136.74 1291.74 1089.55 1319.75 C 1081.35 1324.61 1073.67 1329.99 1065.05 1334.14 C 1073.04 1339.19 1116.64 1360.69 1124.26 1362.64 C 1155 1375.89 1185.99 1388.58 1217.21 1400.67 C 1234.4 1407.21 1251.84 1412.97 1269.05 1419.41 C 1271.32 1394.21 1303.11 1206.71 1299.31 1198.36 L 1298.76 1197.89 z M 1064.79 709.373 C 1074.86 712.88 1086.08 719.027 1095.59 724.076 C 1113.27 733.441 1130.79 743.099 1148.15 753.046 C 1156.99 758.079 1169.6 765.867 1178.47 769.999 C 1203.3 785.545 1229.54 799.544 1254.41 815.465 C 1270.3 825.636 1283.81 835.628 1299.01 846.248 C 1295.1 816.897 1277.99 633.341 1265.65 623.021 C 1204.18 645.8 1144.08 673.947 1084.07 700.33 C 1077.81 703.082 1070.86 706.244 1064.79 709.373 z M 1421.55 1070.16 C 1442.98 1055.06 1463.71 1039.02 1483.7 1022.06 C 1455.66 1003.22 1366.92 921.811 1339.62 914.527 C 1338.92 936.531 1339.7 957.108 1339.87 979.015 L 1339.85 1071.02 C 1339.81 1086.11 1340.63 1115 1339.13 1128.65 C 1361.1 1115.28 1400.59 1085.97 1421.55 1070.16 z M 562.116 1021.79 C 584.577 1041.72 605.226 1056.17 627.816 1074.4 C 656.539 1094.47 681.49 1112.05 709.356 1133.19 C 708.482 1124.61 709.564 1115.05 710.032 1106.39 C 713.08 1049.99 707.648 993.464 709.079 936.996 C 709.237 930.747 710.447 921.377 709.792 915.587 L 708.112 914.866 C 677.743 934.54 648.205 955.47 619.576 977.601 C 608.678 986.018 571.059 1017.17 562.116 1021.79 z M 748.349 847.254 C 778.29 827.889 807.969 807.4 838.382 788.869 C 851.359 780.962 864.81 775.385 878.36 768.763 C 912.974 745.414 949.717 725.388 988.098 708.952 C 948.207 688.583 822.864 629.186 781.487 622.647 C 772.322 663 765.887 695.662 761.101 737.026 C 757.095 771.66 754.205 813.436 748.349 847.254 z M 748.949 1197.57 C 751.848 1250.49 756.093 1292.08 765.521 1344.7 C 768.428 1360.75 771.576 1376.75 774.967 1392.71 C 776.812 1401.22 780.569 1415.55 781.372 1423.78 C 793.382 1418.16 806.045 1413.47 818.444 1408.76 C 855.274 1394.75 892.393 1380.45 927.784 1363.05 C 946.192 1354.48 970.185 1341.71 988.165 1334.33 C 932.208 1306.34 877.51 1273.04 822.946 1242.39 C 797.863 1228.3 773.733 1212.07 748.949 1197.57 z M 1039.03 683.898 C 1092.39 655.687 1143.16 634.437 1199.34 612.863 C 1218.89 605.359 1242.39 597.138 1261.37 589.239 C 1251.32 561.2 1245.35 531.41 1235.94 504.072 C 1205.39 415.313 1125.5 220.958 1008.05 234.208 C 903.531 257.309 834.662 434.435 805.73 525.264 C 799.007 546.371 793.962 569 787.568 590.248 C 828.327 593.503 985.369 667.076 1026.21 689.765 C 1030.29 687.935 1035.12 685.925 1039.03 683.898 z"/>
<path transform="translate(0,0)" fill="rgb(248,113,19)" d="M 1362.21 558.131 C 1363.23 551.016 1364.2 544.57 1366 537.595 C 1371.31 516.925 1384.8 499.305 1403.37 488.784 C 1444.46 465.024 1493.39 483.412 1515.54 523.588 C 1516.25 526.925 1516.99 530.257 1517.74 533.585 C 1518.69 537.89 1521.99 555.923 1522.87 558.372 C 1524.24 579.53 1517.35 602.694 1503.2 618.718 C 1488.96 634.619 1468.92 644.117 1447.6 645.068 C 1409.77 646.873 1378.95 626.903 1367.06 590.687 C 1364.75 578.833 1363.7 569.981 1362.86 557.994 L 1362.21 558.131 z"/>
<path transform="translate(0,0)" fill="rgb(236,93,15)" d="M 1517.74 533.585 C 1518.69 537.89 1521.99 555.923 1522.87 558.372 C 1524.24 579.53 1517.35 602.694 1503.2 618.718 C 1488.96 634.619 1468.92 644.117 1447.6 645.068 C 1409.77 646.873 1378.95 626.903 1367.06 590.687 C 1364.75 578.833 1363.7 569.981 1362.86 557.994 C 1364.27 557.954 1369.27 557.801 1369.98 558.449 C 1380.25 568.225 1383.57 579.796 1395.43 588.753 C 1431.49 615.989 1492.69 606.795 1507.6 560.302 C 1510.25 552.025 1512.32 540.348 1517.74 533.585 z"/>
<path transform="translate(0,0)" fill="url(#Gradient1)" d="M 1444.19 1470.11 C 1455.35 1431.59 1492.71 1406.77 1532.55 1411.41 C 1572.39 1416.06 1603.03 1448.81 1605.03 1488.87 C 1605.59 1500.13 1603.82 1511.38 1599.85 1521.92 C 1586.38 1557.61 1550.11 1579.32 1512.29 1574.33 C 1474.48 1569.34 1445.09 1538.95 1441.35 1500.99 C 1440.33 1490.61 1441.29 1480.13 1444.19 1470.11 z"/>
<path transform="translate(0,0)" fill="rgb(248,113,19)" d="M 1019 886.371 C 1094.05 883.282 1157.55 941.287 1161.26 1016.31 C 1164.96 1091.34 1107.48 1155.32 1032.49 1159.63 C 956.622 1164 891.734 1105.7 887.987 1029.8 C 884.239 953.904 943.069 889.496 1019 886.371 z"/>
<path transform="translate(0,0)" fill="rgb(254,155,47)" d="M 1011.65 914.566 C 1064.59 907.478 1113.21 944.77 1120.09 997.739 C 1126.97 1050.71 1089.48 1099.18 1036.49 1105.84 C 983.788 1112.47 935.65 1075.24 928.811 1022.57 C 921.973 969.901 959.009 921.614 1011.65 914.566 z"/>
</svg>