<svg version="1.1" xmlns="http://www.w3.org/2000/svg" style="display: block;" viewBox="0 0 2048 2048" width="512" height="512" preserveAspectRatio="none">
<path transform="translate(0,0)" fill="rgb(252,115,0)" d="M 559.33 404.727 C 532.724 389.292 513.419 361.317 518.622 329.544 C 521.676 311.619 531.772 295.661 546.661 285.225 C 570.725 268.363 617.992 272.603 647.176 272.821 L 740.361 272.901 L 839.748 272.833 C 860.222 272.792 887.984 271.187 907.42 274.969 C 951.211 283.49 972.439 337.634 949.626 375.148 C 941.005 389.324 933.812 395.489 919.997 404.661 L 920.029 604.245 C 920.029 633.371 916.537 684.786 922.606 710.328 C 928.55 735.343 950.245 779.14 961.268 803.846 L 1032.71 963.112 C 1039.67 978.333 1061.68 1024.33 1064.7 1038.19 C 1117.06 1006.41 1170.71 976.681 1223.87 946.173 L 1297.59 903.492 C 1315.59 893.216 1341.37 877.174 1361.45 872.378 C 1384.68 881.274 1406.61 894.804 1428.2 907.139 C 1463.52 927.317 1498.77 947.666 1534.17 967.709 L 1673.81 1047.38 C 1691.57 1057.45 1709.91 1067.13 1727.8 1076.9 C 1732.73 1079.58 1743.47 1087.11 1745.59 1092.35 C 1748.9 1100.51 1750.39 1110.71 1750.49 1119.59 C 1750.8 1147.74 1750.52 1176.24 1750.5 1204.4 L 1750.5 1371.92 L 1750.74 1473.24 C 1750.82 1494.69 1751.97 1524.4 1748.54 1544.75 C 1740.95 1556.72 1673.74 1591.89 1659.13 1600.21 L 1552.82 1661.72 C 1512.68 1685.07 1473.21 1709.79 1433.04 1732.93 C 1415.54 1743.01 1379.54 1763.5 1360.56 1768.98 C 1336.71 1757.51 1313.45 1743.11 1290.31 1730.34 L 1146.86 1650.02 C 1125.01 1637.76 1104.42 1624.53 1081.66 1613.63 C 1053.95 1631.77 1024.74 1648.51 997.329 1667.26 C 973.261 1683.74 964.396 1692.36 934.415 1693.16 C 891.939 1694.3 850.059 1693.41 807.593 1693.07 L 690.97 1693.28 L 597.199 1693.32 C 554.979 1693.39 536.995 1697.47 498.232 1679.13 C 454.088 1657.83 415.097 1627.2 383.955 1589.36 C 315.172 1506.94 282.761 1393.63 308.662 1287.67 C 315.5 1259.69 331.539 1225.73 343.245 1198.5 L 386.436 1097.91 L 504.642 831.503 C 514.553 809.52 524.598 787.599 534.776 765.739 C 540.293 753.815 553.315 726.788 555.932 715.259 C 560.727 694.14 558.782 659.226 558.755 636.536 L 558.598 487.768 C 558.556 464.891 557.408 426.083 559.33 404.727 z M 1024.58 1061.23 C 1040.36 1054.37 1050.79 1047.88 1064.7 1038.19 C 1061.68 1024.33 1039.67 978.333 1032.71 963.112 L 961.268 803.846 C 950.245 779.14 928.55 735.343 922.606 710.328 C 916.537 684.786 920.029 633.371 920.029 604.245 L 919.997 404.661 C 933.812 395.489 941.005 389.324 949.626 375.148 C 972.439 337.634 951.211 283.49 907.42 274.969 C 887.984 271.187 860.222 272.792 839.748 272.833 L 740.361 272.901 L 647.176 272.821 C 617.992 272.603 570.725 268.363 546.661 285.225 C 531.772 295.661 521.676 311.619 518.622 329.544 C 513.419 361.317 532.724 389.292 559.33 404.727 C 557.408 426.083 558.556 464.891 558.598 487.768 L 558.755 636.536 C 558.782 659.226 560.727 694.14 555.932 715.259 C 553.315 726.788 540.293 753.815 534.776 765.739 C 524.598 787.599 514.553 809.52 504.642 831.503 L 386.436 1097.91 L 343.245 1198.5 C 331.539 1225.73 315.5 1259.69 308.662 1287.67 C 282.761 1393.63 315.172 1506.94 383.955 1589.36 C 415.097 1627.2 454.088 1657.83 498.232 1679.13 C 536.995 1697.47 554.979 1693.39 597.199 1693.32 L 690.97 1693.28 L 807.593 1693.07 C 850.059 1693.41 891.939 1694.3 934.415 1693.16 C 964.396 1692.36 973.261 1683.74 997.329 1667.26 C 1024.74 1648.51 1053.95 1631.77 1081.66 1613.63 C 1069.4 1604.99 1049.8 1591.61 1035.94 1587.45 C 1032.06 1584.46 1024.22 1580.93 1019.67 1578.77 C 990.467 1564.91 962.985 1549.22 962.201 1513.02 C 961.659 1487.99 964.305 1463.42 964.543 1438.4 L 964.587 1222.73 C 964.57 1189.35 962.673 1132.5 966.518 1099.49 C 967.863 1087.94 1011.44 1068.39 1024.58 1061.23 z M 1151.88 1193.9 L 1151.88 1368.01 C 1151.88 1382.76 1152.91 1434.91 1150.79 1445.76 C 1178.73 1456.9 1206.86 1474.73 1233.36 1489.15 C 1274.71 1511.66 1316.1 1534.36 1356.67 1558.26 C 1358.36 1559.26 1359.77 1559.03 1361.64 1558.74 C 1417.36 1523.77 1478.21 1495.09 1533.96 1460 C 1542.77 1454.45 1560.48 1446.56 1567.48 1440.66 C 1569.16 1432.48 1567.99 1385.59 1568.16 1373.74 C 1569.01 1314.12 1566.92 1252.74 1568.39 1193.22 C 1517.43 1167.43 1468.21 1137.18 1418.19 1109.6 C 1406.08 1102.92 1369.22 1080.96 1357.41 1076.64 C 1343.23 1087.42 1300.98 1110.03 1283.62 1119.76 C 1240.49 1143.93 1195.47 1171.19 1151.88 1193.9 z M 1129.92 1485.94 C 1111.08 1497.13 1091.68 1507.64 1072.6 1518.47 C 1066 1522.21 1043.72 1535.85 1038.15 1538.03 C 1059.87 1548.51 1082.3 1558.58 1103.18 1570.76 C 1156.72 1601.98 1210.39 1632.72 1264.73 1662.53 C 1270.86 1665.9 1278.08 1669.07 1283.59 1673.14 C 1301.45 1684.95 1321.13 1692.93 1338.77 1704.41 C 1336.01 1692.07 1336.98 1612.79 1338 1597.9 C 1325.85 1593.32 1309.75 1582.71 1297.7 1576.28 C 1243.23 1547.22 1190.15 1515.32 1135.52 1486.61 C 1133.85 1485.73 1131.75 1485.58 1129.92 1485.94 z M 1589.73 1154.95 C 1607.39 1141.13 1626.92 1129.89 1647.74 1121.56 C 1660.55 1112.63 1665.65 1109.25 1679.97 1102.92 C 1660.98 1093.46 1640.49 1079.75 1621.47 1069.24 C 1563.43 1037.81 1505.82 1005.59 1448.67 972.578 C 1427.71 960.64 1400.85 943.377 1380.24 933.243 C 1379.96 967.609 1381.05 1004.77 1380.09 1038.71 C 1402.33 1044.27 1470.56 1086.24 1493.44 1099.3 C 1520.6 1114.81 1565.6 1137.75 1589.73 1154.95 z M 1131.63 1155.22 C 1150.82 1139.78 1175.01 1127.33 1196.55 1115.23 L 1288.71 1064.41 C 1296.45 1060.13 1327.46 1042.97 1334.13 1038.19 C 1332.78 1011.37 1334.03 984.451 1333.76 957.61 C 1333.7 951.029 1333.64 944.439 1334.38 937.891 L 1333.64 936.948 C 1304.92 950.795 1276.06 969.088 1248.37 985.428 C 1202.06 1013.04 1155.5 1040.24 1108.7 1067.03 C 1090.58 1077.31 1061.68 1094.36 1043 1102.7 C 1055.08 1110.59 1069.86 1116.79 1079.36 1123.04 C 1092.43 1132.42 1116.88 1146.07 1131.63 1155.22 z M 1443.74 1670.27 C 1453.47 1665.9 1461.97 1659.88 1471.26 1654.88 C 1482.33 1648.93 1493.04 1642.55 1503.95 1636.37 C 1536.14 1618.13 1568.24 1599.76 1599.91 1580.62 C 1617.47 1570.08 1661.51 1542.86 1680.46 1538.55 C 1654.11 1525.37 1626.12 1504.96 1598.71 1492.48 C 1593.77 1490.22 1586.58 1486.18 1581.51 1484.81 L 1580.42 1485.6 C 1567.98 1494.54 1544.8 1506.97 1531.05 1514.85 L 1435.48 1568.96 C 1419.79 1577.79 1403.2 1586.48 1388.26 1596.61 C 1385.66 1598.55 1383.9 1600.02 1383.7 1603.44 C 1382.48 1624.93 1383.73 1646.73 1383.28 1668.26 C 1383.02 1680.84 1384.08 1696.04 1381.53 1708.24 C 1400.65 1695.37 1423.04 1680.25 1443.74 1670.27 z M 1648.99 1467.11 C 1656.13 1470.92 1703.93 1500.74 1705.91 1500.27 C 1706.56 1496.8 1705.89 1497.62 1705.63 1495.06 C 1704.04 1479.2 1704.88 1459.83 1704.97 1443.84 L 1704.94 1354.93 L 1704.92 1210.41 C 1704.92 1197.22 1704.05 1153.03 1705.53 1142.15 L 1704.7 1140.93 C 1676.38 1156.18 1648.11 1171.76 1620.99 1189.06 C 1615.55 1192.53 1613.23 1194.53 1612.96 1200.98 C 1612.34 1215.59 1613.01 1230.39 1612.83 1244.99 C 1611.84 1312.19 1611.59 1379.39 1612.07 1446.6 C 1624.29 1452.66 1637.07 1463.02 1648.99 1467.11 z M 1011.03 1140.34 C 1012.8 1154.61 1011.93 1187.62 1011.92 1203.13 L 1011.86 1324.37 L 1011.91 1440.93 C 1011.92 1455.89 1012.82 1489.74 1010.54 1502.31 C 1031.76 1489.58 1050.45 1477.26 1072.65 1465.37 C 1078.28 1462.03 1101.9 1448.44 1105.05 1444.87 C 1106.41 1436.66 1105.7 1400.77 1105.7 1390.46 L 1105.69 1259.62 C 1105.69 1243.73 1104.68 1207.51 1106.64 1193.77 C 1078.42 1175.88 1041.62 1153.95 1011.03 1140.34 z"/>
<path transform="translate(0,0)" fill="rgb(203,204,227)" d="M 445.318 1249.03 C 477.819 1249.51 462.729 1279.95 457.437 1298.67 C 454.299 1309.76 450.779 1321.66 449.179 1333.18 C 439.88 1400.39 466.588 1463.53 513.072 1511.3 C 527.392 1526.01 556.919 1546.52 525.408 1560.53 C 522.307 1560.48 517.678 1560.47 515.076 1558.75 C 426.701 1500.31 393.666 1389.03 422.116 1289.14 C 426.249 1274.63 430.759 1253.25 445.318 1249.03 z"/>
<path transform="translate(0,0)" fill="rgb(11,40,165)" d="M 559.33 404.727 C 532.724 389.292 513.419 361.317 518.622 329.544 C 521.676 311.619 531.772 295.661 546.661 285.225 C 570.725 268.363 617.992 272.603 647.176 272.821 L 740.361 272.901 L 839.748 272.833 C 860.222 272.792 887.984 271.187 907.42 274.969 C 951.211 283.49 972.439 337.634 949.626 375.148 C 941.005 389.324 933.812 395.489 919.997 404.661 L 920.029 604.245 C 920.029 633.371 916.537 684.786 922.606 710.328 C 928.55 735.343 950.245 779.14 961.268 803.846 L 1032.71 963.112 C 1039.67 978.333 1061.68 1024.33 1064.7 1038.19 C 1050.79 1047.88 1040.36 1054.37 1024.58 1061.23 C 1019.11 1050.07 1014.42 1038.55 1010.52 1026.75 C 973.933 1028.45 929.329 1027.32 892.318 1027.31 L 677.678 1027.26 L 538.992 1027.27 C 521.355 1027.27 484.816 1028.37 468.647 1026.65 C 460.375 1051.76 450.533 1071.6 439.642 1095.56 L 396.256 1190.57 C 383.384 1218.69 371.695 1246.04 361.367 1275.21 C 336.239 1346.21 341.069 1422.57 375.25 1490.07 C 400.894 1541.22 439.507 1584.76 487.235 1616.33 C 502.402 1626.45 517.617 1635.41 535.118 1641.09 C 547.428 1645.07 560.23 1647.33 573.16 1647.79 C 595.415 1648.79 615.663 1646.33 637.499 1645.99 C 665.257 1645.56 693.638 1645.81 721.449 1645.81 L 860.721 1645.86 C 884.46 1645.88 908.594 1646.03 932.353 1645.71 C 939.131 1645.62 946.261 1643.06 952.234 1639.66 C 979.653 1624.04 1007.56 1607.31 1033.32 1589.12 C 1034.71 1588.14 1033.71 1588.8 1035.94 1587.45 C 1049.8 1591.61 1069.4 1604.99 1081.66 1613.63 C 1053.95 1631.77 1024.74 1648.51 997.329 1667.26 C 973.261 1683.74 964.396 1692.36 934.415 1693.16 C 891.939 1694.3 850.059 1693.41 807.593 1693.07 L 690.97 1693.28 L 597.199 1693.32 C 554.979 1693.39 536.995 1697.47 498.232 1679.13 C 454.088 1657.83 415.097 1627.2 383.955 1589.36 C 315.172 1506.94 282.761 1393.63 308.662 1287.67 C 315.5 1259.69 331.539 1225.73 343.245 1198.5 L 386.436 1097.91 L 504.642 831.503 C 514.553 809.52 524.598 787.599 534.776 765.739 C 540.293 753.815 553.315 726.788 555.932 715.259 C 560.727 694.14 558.782 659.226 558.755 636.536 L 558.598 487.768 C 558.556 464.891 557.408 426.083 559.33 404.727 z M 873.5 980.122 L 988.385 980.219 C 964.899 921.884 937.816 865.364 912.862 807.658 C 901.663 781.759 885.755 750.25 878.069 723.589 C 871.656 701.345 873.715 662.285 873.978 637.936 C 874.203 614.38 874.264 590.823 874.16 567.266 L 874.094 460.939 C 874.084 443.288 873.482 421.47 874.157 404.048 C 860.918 405.156 843.654 404.848 830.011 404.841 C 805.912 404.894 781.813 404.714 757.717 404.303 C 707.657 403.748 656.052 404.243 605.938 404.402 L 605.974 612.903 C 605.92 627.55 606.029 642.197 606.3 656.842 C 606.727 676.809 608.362 701.304 603.469 720.571 C 597.792 742.925 586.346 766.469 576.843 787.721 L 540.076 869.816 L 507.15 943.276 C 503.588 951.201 493.868 974.14 489.687 980.569 C 531.553 978.826 581.862 980.107 624.473 980.108 L 873.5 980.122 z M 887.012 359.126 C 914.92 357.311 918.624 340.643 902.383 319.892 C 885.882 318.839 866.859 319.345 850.062 319.413 L 772.122 319.543 L 656.729 319.502 C 636.284 319.47 614.794 318.897 594.463 319.446 C 579.904 320.391 563.212 323.016 564.917 342.015 C 566.181 356.1 578.958 358.057 590.581 358.774 C 623.72 359.425 656.942 359.163 690.094 359.163 L 887.012 359.126 z"/>
</svg>