<svg version="1.1" xmlns="http://www.w3.org/2000/svg" style="display: block;" viewBox="0 0 2048 2048" width="512" height="512" preserveAspectRatio="none">
<path transform="translate(0,0)" fill="rgb(3,46,167)" d="M 484.323 434.319 C 458.301 435.606 426.705 434.792 400.399 434.977 C 379.678 435.123 339.228 436.447 320.799 432.204 C 310.4 429.874 300.795 424.859 292.939 417.659 C 264.134 391.418 264.068 340.632 290.677 312.675 C 308.653 293.79 330.448 293.262 354.965 293.061 L 1253.87 293.234 L 1561.34 293.239 L 1656.25 293.214 C 1674 293.172 1690.94 292.926 1709.14 293.55 C 1771.09 295.548 1795.09 374.709 1754.79 416.829 C 1737.44 434.959 1704.93 435.745 1681.47 435.151 C 1628.71 433.816 1574.91 436.403 1522.28 434.834 C 1520.01 434.775 1517.73 434.578 1515.48 434.245 C 1516.38 452.017 1515.77 474.476 1515.75 492.569 L 1515.7 595.675 L 1515.68 915.578 L 1515.67 1232.34 L 1515.68 1336.07 C 1515.68 1352.34 1515.9 1368.27 1515.74 1384.87 C 1515.64 1395.19 1511.1 1413.15 1497.41 1413.66 C 1493.53 1413.81 1489.1 1409.79 1487.25 1406.84 C 1481.99 1399.56 1481.05 1386.16 1481.01 1377.12 C 1480.89 1354.22 1481.07 1331.07 1481.11 1308.12 L 1481.14 1174.69 L 1481.17 759.74 L 1481.18 536.543 L 1481.11 471.572 C 1481.09 461.508 1480.56 443.871 1481.77 434.319 C 1450.56 436.241 1407.03 434.936 1375.01 434.935 L 1178.5 434.909 L 1064.7 434.972 C 1051.78 434.982 1017.48 435.732 1006.3 434.086 L 1110.07 686.129 L 1141.37 762.51 C 1168.32 828.909 1171.14 842.145 1168.97 912.707 C 1168.44 929.996 1168.22 947.294 1168.3 964.591 L 1168.39 1047.61 C 1168.4 1060.13 1169.08 1080.82 1167.94 1092.24 C 1347.92 1124.32 1296.88 1387.96 1121.23 1352.48 C 1088.96 1346.19 1060.64 1327.04 1042.8 1299.43 C 1004.53 1240.85 1017.11 1149.83 1077.79 1111.01 C 1094.45 1100.35 1113.49 1093.98 1133.22 1092.49 C 1131.88 1072.16 1132.66 1045.19 1132.7 1024.44 L 1132.73 910.404 C 1132.73 889.479 1133.63 862.622 1131.45 842.289 C 1129.92 827.964 1118.05 802.113 1112.05 787.48 L 1089.72 732.584 L 967.207 433.962 C 942.386 436.75 899.837 435.552 874.43 434.288 C 866.498 433.399 846.582 433.86 838.645 434.565 C 811.932 433.09 777.709 434.682 750.47 434.852 L 600.027 434.914 C 585.179 434.921 531.777 435.943 519.27 434.122 C 520.268 444.277 519.804 460.439 519.788 471.073 L 519.697 532.219 L 519.676 728.856 L 519.645 1046.42 L 519.719 1150.47 C 519.738 1167.71 519.836 1185 519.747 1202.18 C 519.975 1213.26 514.815 1226.29 502.204 1227.05 C 493.382 1227.58 487.812 1216.4 486.966 1209.16 C 482.339 1169.53 484.217 1126.06 484.242 1086.2 L 484.244 897.468 L 484.231 591 C 484.229 539.649 483.319 485.338 484.323 434.319 z"/>
<path transform="translate(0,0)" fill="rgb(248,112,13)" d="M 347.204 328.419 C 375.082 327.462 406.785 328.147 434.887 328.153 L 592.664 328.156 L 1075.06 328.161 L 1487.03 328.132 L 1622.33 328.154 C 1650.39 328.169 1678.6 328.14 1706.66 328.915 C 1715.21 329.151 1721.66 330.762 1728.52 335.975 C 1736.05 341.631 1740.83 350.217 1741.66 359.598 C 1742.64 369.664 1739.5 379.698 1732.96 387.414 C 1724.22 397.736 1714.83 399.984 1702.23 400.871 L 802.943 400.887 L 495.612 400.918 L 396.863 400.91 C 377.623 400.906 358.4 401.1 339.171 400.419 C 321.817 399.805 305.288 386.632 303.559 368.867 C 302.654 359.425 305.688 350.029 311.943 342.898 C 321.898 331.455 333.235 329.525 347.204 328.419 z"/>
<path transform="translate(0,0)" fill="rgb(159,198,246)" d="M 1137.84 1128.31 C 1190.68 1121.3 1239.16 1158.56 1246 1211.42 C 1252.83 1264.29 1215.42 1312.65 1162.53 1319.31 C 1109.89 1325.94 1061.8 1288.74 1055 1236.12 C 1048.19 1183.5 1085.24 1135.28 1137.84 1128.31 z"/>
<path transform="translate(0,0)" fill="rgb(248,112,13)" d="M 838.645 434.565 C 846.582 433.86 866.498 433.399 874.43 434.288 C 875.951 445.958 875.305 463.179 875.27 475.569 L 875.27 536.915 L 875.078 745.399 L 875.087 942.139 L 875.194 994.749 C 875.212 1004.06 875.825 1020.26 873.983 1028.82 C 889.313 1027.31 962.441 1022.22 942.552 1055.6 C 923.041 1088.34 888.401 1154.24 852.151 1168.16 C 849.37 1165.83 846.522 1163.48 844.076 1160.8 C 831.105 1146.58 763.032 1056.29 764.822 1043.06 C 765.344 1039.2 768.814 1035.64 771.951 1033.66 C 786.31 1024.6 822.677 1025.4 838.971 1029.23 C 837.601 1020.16 838.034 1002.81 838.04 993.217 L 838.087 936.582 L 838.08 736.9 L 838.113 530.447 L 837.985 470.049 C 837.953 460.201 837.438 443.888 838.645 434.565 z"/>
<path transform="translate(0,0)" fill="rgb(3,46,167)" d="M 668.609 1175.15 C 687.209 1175.96 684.845 1192.01 679.547 1204.61 C 670.287 1226.63 656.866 1248.46 645.14 1269.27 L 591.477 1364.39 L 542.566 1451.32 C 534.633 1465.39 526.938 1480.34 518.426 1493.87 C 505.886 1513.8 492.627 1516.73 480.21 1495.43 C 467.265 1473.23 455.011 1451.05 442.403 1428.87 L 378.918 1318.46 C 361.679 1288.41 345.229 1258.43 326.102 1229.55 C 322.886 1224.33 319.813 1219.02 316.888 1213.63 C 308.203 1197.37 305.592 1183.78 324.777 1175.16 C 325.797 1175.43 326.813 1175.72 327.826 1176.03 C 350.075 1182.74 361.73 1215.29 372.333 1234.33 C 413.712 1308.65 458.289 1380.97 498.207 1456.1 C 500.058 1451.41 502.247 1447.08 504.7 1442.69 C 535.242 1387.95 566.843 1333.68 597.829 1279.19 C 609.446 1258.73 621.178 1238.33 633.024 1218 C 639.826 1206.29 646.928 1193.26 655.089 1182.46 C 658.283 1178.23 663.759 1176.61 668.609 1175.15 z"/>
<path transform="translate(0,0)" fill="rgb(3,46,167)" d="M 1658.19 1354.89 C 1664.72 1354.67 1672.33 1356.8 1677.14 1361.43 C 1679.4 1363.62 1680.58 1366.24 1680.44 1369.41 C 1680.08 1377.61 1567.94 1576.67 1555.27 1600.17 C 1544.29 1620.52 1534.86 1641.83 1523.29 1661.82 C 1518.52 1670.06 1512.89 1679.29 1505.55 1685.47 C 1502.25 1688.24 1495.41 1693 1490.73 1691.51 C 1485.36 1689.81 1477.19 1676.47 1474.16 1671.68 C 1458.75 1647.37 1445.83 1621.27 1431.7 1596.19 L 1364.9 1479.3 C 1352.3 1457.24 1339.17 1433.06 1326.22 1411.47 C 1318.64 1400.74 1310.05 1382.77 1305.19 1370.52 C 1313.48 1351.61 1329.42 1350.87 1340.26 1368.43 C 1349.67 1383.69 1358.85 1398.71 1367.73 1414.31 L 1404.43 1478.67 C 1423.39 1511.75 1442.15 1544.95 1460.72 1578.25 C 1472.26 1598.8 1483.64 1617.82 1494.45 1639.05 C 1506.57 1622 1518.64 1592.93 1527.72 1576.95 C 1549.85 1538.01 1631.69 1373.5 1658.19 1354.89 z"/>
</svg>