<svg version="1.1" xmlns="http://www.w3.org/2000/svg" style="display: block;" viewBox="0 0 2048 2048" width="512" height="512" preserveAspectRatio="none">
<path transform="translate(0,0)" fill="rgb(6,66,183)" d="M 936.925 448.529 C 936.024 431.909 936.162 412.263 936.283 395.318 C 936.541 359.217 932.498 328.292 958.014 299.587 C 973.197 282.557 994.57 272.319 1017.36 271.161 C 1041.21 269.834 1067.11 278.656 1084.81 294.927 C 1110.75 318.788 1111.63 345.078 1113 377.939 C 1114.09 404.146 1112.83 428.299 1112.22 454.445 C 1147.36 459.478 1190.13 468.806 1225.49 475.604 C 1293.81 488.365 1361.99 501.907 1430.01 516.228 C 1454.26 521.38 1478.59 526.151 1502.99 530.539 C 1511.68 532.112 1535.23 535.59 1541.81 537.688 C 1533.12 553.903 1525.94 570.44 1517.56 586.692 C 1504.84 582.433 1480.87 578.492 1466.75 575.77 L 1381.11 559.206 C 1292.95 542.032 1200.6 522.619 1112.45 506.855 C 1111.49 590.154 1112.14 674.494 1112.14 757.851 L 1112.15 1201.85 L 1112.16 1396.48 C 1112.17 1425.37 1113.48 1465.02 1112.16 1492.83 C 1185.31 1497.04 1317.36 1476.9 1376.14 1524.04 C 1402.3 1545.02 1413.18 1580.92 1416.46 1613.15 C 1419.04 1638.57 1418.91 1664.09 1418.97 1689.61 C 1419.01 1703.01 1420.03 1717.37 1417.84 1730.63 C 1416.73 1737.36 1414.43 1744.59 1409.89 1749.83 C 1405.56 1754.82 1398.78 1756.86 1392.35 1757.31 C 1378.1 1758.29 1363.36 1757.74 1349.07 1757.74 L 1274.8 1757.76 L 1041.86 1757.75 L 784.351 1757.95 L 705.412 1758.04 C 641.177 1758.14 626.722 1765.8 629.996 1693.01 C 630.086 1678.89 628.926 1664.54 629.17 1650.45 C 629.912 1607.49 638.268 1560.1 669.87 1528.52 C 712.613 1485.81 775.46 1492.51 830.709 1492.65 L 936.746 1492.82 C 935.69 1451.98 936.562 1408.27 936.569 1367.15 L 936.565 1134.07 L 936.666 500.467 C 926.552 503.003 907.788 505.174 896.561 506.783 C 875.088 509.839 853.647 513.116 832.241 516.614 C 764.569 527.567 696.553 540.089 628.872 550.378 L 563.721 560.218 C 550.73 562.228 532.659 564.389 520.819 568.754 C 512.711 548.984 504.301 532.642 486.618 520.753 C 507.915 515.6 537.705 511.9 560.083 508.346 L 692.294 487.26 L 847.884 462.15 C 874.108 457.916 911.233 451.134 936.925 448.529 z M 989.722 1492.79 C 1013.17 1492.69 1036.62 1492.7 1060.07 1492.84 C 1058.25 1402.39 1059.79 1306.48 1059.79 1215.67 L 1059.78 685.706 L 1059.9 473.429 C 1060.22 443.419 1060.03 413.406 1059.33 383.403 C 1058.88 367.571 1061.33 346.393 1050.69 334.134 C 1038.34 319.885 1012.37 319.15 998.952 332.137 C 993.497 337.387 990.155 344.453 989.557 352 C 988.622 362.867 989.205 379.343 989.325 390.536 L 989.955 456.909 L 989.996 682.231 L 990.023 1208.56 C 990.024 1302.6 991.093 1398.9 989.722 1492.79 z M 681.878 1703.71 C 701.995 1702.16 733.163 1703.07 753.976 1703.07 L 883.66 1703.08 L 1292.5 1703.09 L 1366.15 1703.1 C 1363.01 1643.64 1380.84 1560.07 1300.47 1548.27 C 1278.89 1545.1 1261.15 1544.95 1239.57 1544.51 C 1205.88 1544.13 1172.2 1544.04 1138.51 1544.24 L 879.6 1544.08 L 796.704 1544.13 C 784.387 1544.16 768.378 1544.82 756.505 1544.37 C 750.689 1545.68 744.558 1546.89 738.829 1548.48 C 667.607 1568.19 685.99 1648.33 681.878 1703.71 z"/>
<path transform="translate(0,0)" fill="rgb(252,113,4)" d="M 936.925 448.529 C 936.024 431.909 936.162 412.263 936.283 395.318 C 936.541 359.217 932.498 328.292 958.014 299.587 C 973.197 282.557 994.57 272.319 1017.36 271.161 C 1041.21 269.834 1067.11 278.656 1084.81 294.927 C 1110.75 318.788 1111.63 345.078 1113 377.939 C 1114.09 404.146 1112.83 428.299 1112.22 454.445 C 1147.36 459.478 1190.13 468.806 1225.49 475.604 C 1293.81 488.365 1361.99 501.907 1430.01 516.228 C 1454.26 521.38 1478.59 526.151 1502.99 530.539 C 1511.68 532.112 1535.23 535.59 1541.81 537.688 C 1533.12 553.903 1525.94 570.44 1517.56 586.692 C 1504.84 582.433 1480.87 578.492 1466.75 575.77 L 1381.11 559.206 C 1292.95 542.032 1200.6 522.619 1112.45 506.855 C 1111.49 590.154 1112.14 674.494 1112.14 757.851 L 1112.15 1201.85 L 1112.16 1396.48 C 1112.17 1425.37 1113.48 1465.02 1112.16 1492.83 C 1098.29 1493.83 1074.46 1493.12 1060.07 1492.84 C 1058.25 1402.39 1059.79 1306.48 1059.79 1215.67 L 1059.78 685.706 L 1059.9 473.429 C 1060.22 443.419 1060.03 413.406 1059.33 383.403 C 1058.88 367.571 1061.33 346.393 1050.69 334.134 C 1038.34 319.885 1012.37 319.15 998.952 332.137 C 993.497 337.387 990.155 344.453 989.557 352 C 988.622 362.867 989.205 379.343 989.325 390.536 L 989.955 456.909 L 989.996 682.231 L 990.023 1208.56 C 990.024 1302.6 991.093 1398.9 989.722 1492.79 C 973.793 1493.68 952.813 1493.09 936.746 1492.82 C 935.69 1451.98 936.562 1408.27 936.569 1367.15 L 936.565 1134.07 L 936.666 500.467 C 926.552 503.003 907.788 505.174 896.561 506.783 C 875.088 509.839 853.647 513.116 832.241 516.614 C 764.569 527.567 696.553 540.089 628.872 550.378 L 563.721 560.218 C 550.73 562.228 532.659 564.389 520.819 568.754 C 512.711 548.984 504.301 532.642 486.618 520.753 C 507.915 515.6 537.705 511.9 560.083 508.346 L 692.294 487.26 L 847.884 462.15 C 874.108 457.916 911.233 451.134 936.925 448.529 z"/>
<path transform="translate(0,0)" fill="rgb(6,66,183)" d="M 370.838 715.613 C 360.398 708.957 330.411 680.509 319.779 671.073 C 295.829 649.21 271.405 627.947 247.461 606.073 C 237.378 596.863 227.653 585.395 238.37 572.162 C 249.355 558.599 262.42 546.217 274.803 533.879 C 299.867 508.867 325.237 484.163 350.906 459.773 C 359.844 451.361 366.506 443.382 380.035 443.927 C 390.474 443.4 403.891 455.501 401.516 466.573 C 394.509 499.229 352.833 531.4 329.1 552.297 C 342.393 548.891 361.888 546.225 375.942 543.92 L 457.061 530.47 C 468.483 523.393 473.84 522.315 486.618 520.753 C 504.301 532.642 512.711 548.984 520.819 568.754 C 522.806 574.152 525.317 579.293 527.717 584.516 C 555.257 644.446 584.238 703.478 613.333 762.666 C 633.246 804.199 653.424 845.605 673.866 886.881 C 684.94 909.423 695.918 932.134 706.276 955.009 C 711.523 966.597 719.958 981.417 723.608 993.044 C 739.006 991.786 752.675 991.946 764.823 1002.75 C 775.578 1041.42 750.46 1107.95 730.852 1142.65 C 692.646 1209.38 629.586 1258.28 555.444 1278.68 C 483.094 1299.16 405.565 1289.99 339.998 1253.18 C 273.12 1215.49 224.173 1152.52 204.142 1078.42 C 199.943 1063.22 190.199 1019.21 196.989 1004.54 C 199.794 998.475 208.66 996.653 213.608 995.155 C 220.837 992.966 236.607 995.332 239.773 989.199 C 247.971 973.323 256.513 955.06 264.126 939.099 L 327.897 804.525 C 337.187 785.526 346.593 766.586 356.116 747.703 C 358.898 742.127 369.689 720.748 370.838 715.613 z M 394.253 666.978 C 400.497 656.093 408.497 635.977 415.039 624.089 C 417.741 619.178 431.952 590.191 433.02 586.554 C 398.937 594.407 357.804 599 322.968 604.822 C 338.54 614.175 380.213 653.003 394.253 666.978 z M 299.486 992.412 C 335.392 993.554 372.804 992.171 408.843 992.665 C 424.826 992.884 441.01 992.174 456.988 993.131 C 455.377 964.105 456.608 926.067 456.614 896.178 L 456.664 717.304 C 456.69 700.491 456.708 675.136 457.051 657.503 C 456.62 656.872 456.189 656.24 455.758 655.608 C 428.875 708.139 402.021 768.924 376.263 822.845 L 329.135 921.417 C 322.959 934.241 299.339 980.584 297.715 991.568 C 299.278 992.493 298.624 992.504 299.486 992.412 z M 507.118 992.865 C 556.788 992.224 618.365 991.547 667.389 993.006 C 655.987 962.62 514.808 667.192 507.006 661.718 C 508.444 672.197 507.987 697.974 507.992 709.241 L 507.683 800.716 L 507.736 924.049 C 507.746 946.378 508.603 970.721 507.118 992.865 z"/>
<path transform="translate(0,0)" fill="rgb(252,113,4)" d="M 370.838 715.613 C 360.398 708.957 330.411 680.509 319.779 671.073 C 295.829 649.21 271.405 627.947 247.461 606.073 C 237.378 596.863 227.653 585.395 238.37 572.162 C 249.355 558.599 262.42 546.217 274.803 533.879 C 299.867 508.867 325.237 484.163 350.906 459.773 C 359.844 451.361 366.506 443.382 380.035 443.927 C 390.474 443.4 403.891 455.501 401.516 466.573 C 394.509 499.229 352.833 531.4 329.1 552.297 C 342.393 548.891 361.888 546.225 375.942 543.92 L 457.061 530.47 C 453.837 541.756 439.229 575.784 433.02 586.554 C 398.937 594.407 357.804 599 322.968 604.822 C 338.54 614.175 380.213 653.003 394.253 666.978 C 387.131 683.285 379.644 700.157 370.838 715.613 z"/>
<path transform="translate(0,0)" fill="rgb(180,206,240)" d="M 248.807 1043.47 C 297.593 1041.52 356.059 1043.34 405.409 1043.38 L 699.209 1043.36 C 701.366 1048.04 709.022 1056.83 708.417 1060.42 C 701.578 1100.98 670.805 1146.11 643.714 1173.26 C 610.906 1204.67 569.47 1225.57 524.712 1233.28 C 461.054 1244.74 395.456 1230.28 342.525 1193.1 C 292.864 1157.45 259.205 1103.71 248.807 1043.47 z"/>
<path transform="translate(0,0)" fill="rgb(6,66,183)" d="M 1541.81 537.688 C 1557.91 528.605 1580.8 522.999 1591.44 542.967 C 1592.57 545.135 1593.64 547.334 1594.65 549.56 C 1596.3 555.719 1619.19 598.543 1623.17 604.403 C 1630.99 618.935 1639.44 640.873 1646.87 656.666 C 1664.77 695.182 1683.38 733.365 1702.69 771.196 C 1734.09 834.185 1768.01 895.84 1796.34 960.396 C 1800.92 970.811 1806.84 982.094 1810.11 992.865 C 1811.66 992.712 1813.21 992.608 1814.77 992.555 C 1834.62 991.777 1856.67 996.542 1855.75 1020.77 C 1853.26 1086.73 1821.72 1153.6 1776.05 1200.63 C 1721.76 1256.99 1647.08 1289.14 1568.83 1289.82 C 1435.45 1291.21 1310.35 1191.91 1287.04 1059.69 C 1280.07 1020.14 1268.92 992.082 1321.97 992.957 C 1341.97 948.947 1365.73 901.149 1386.77 857.395 L 1517.56 586.692 C 1525.94 570.44 1533.12 553.903 1541.81 537.688 z M 1383.69 992.844 C 1415.35 992.596 1447.01 992.523 1478.67 992.625 C 1498.58 992.628 1521.7 992.042 1541.34 993.107 C 1540.08 959.471 1540.94 921.364 1540.95 887.464 L 1540.92 716.932 C 1540.93 710.609 1542.86 663.721 1541.68 660.638 C 1536.62 668.019 1527.86 687.643 1523.61 696.664 L 1491.73 764.177 C 1479.45 789.91 1383.49 984.478 1383.69 992.844 z M 1593.88 992.892 C 1623.45 992.609 1653.03 992.52 1682.6 992.625 C 1705.72 992.619 1729.92 992.183 1752.91 993.179 C 1741.27 965.376 1599.28 669.566 1593.16 664.847 C 1594.75 680.576 1594.13 706.384 1594.19 722.852 L 1594.4 825.206 L 1594.4 933.578 C 1594.4 950.43 1595.12 976.835 1593.88 992.892 z M 1342.07 1062.67 C 1347.9 1057.17 1352.34 1050.54 1357.04 1044.05 C 1352.94 1043.23 1342.16 1043.94 1337.49 1044.12 C 1340.35 1051.46 1340.95 1054.84 1342.07 1062.67 z"/>
<path transform="translate(0,0)" fill="rgb(180,206,240)" d="M 1357.04 1044.05 C 1377.37 1042.64 1402.94 1043.37 1423.82 1043.37 L 1538.98 1043.39 L 1698.1 1043.37 C 1725.91 1043.36 1757.55 1042.65 1785.11 1043.5 C 1789.57 1049.2 1791.7 1053.15 1797.11 1058.1 C 1778.94 1121.39 1744.81 1172.09 1686.24 1204.69 C 1628.35 1236.28 1560.3 1243.66 1496.98 1225.22 C 1440.83 1208.95 1392.42 1173.14 1364.2 1121.45 C 1353.01 1100.94 1348.34 1084.77 1342.07 1062.67 C 1347.9 1057.17 1352.34 1050.54 1357.04 1044.05 z"/>
<path transform="translate(0,0)" fill="rgb(252,113,4)" d="M 457.727 1316.04 C 465.136 1317.72 472.612 1321.87 478.591 1326.54 C 487.85 1334.01 496.243 1343.42 504.176 1352.38 C 529.411 1380.89 558.295 1406.27 583.142 1435.01 C 591.362 1444.81 588.288 1461.79 580.399 1470.66 C 558.155 1495.65 525.274 1450.65 511.01 1436.43 C 502.239 1427.7 495.255 1419.81 485.776 1411.83 C 487.422 1425.56 486.808 1461.69 486.919 1476.59 L 487.239 1533.71 C 487.281 1558.92 492.719 1604.17 452.793 1595.64 C 439.093 1589.76 433.162 1574.33 433.175 1560.33 C 433.193 1541.41 432.064 1519.4 433.328 1500.75 C 435.309 1471.52 429.677 1430.63 435.115 1402.94 C 407.189 1424.33 387.758 1459.11 356.33 1475.31 C 340.253 1483.59 316.013 1457.11 324.429 1443.29 C 341.816 1414.73 371.037 1393.29 393.832 1369.22 C 414.394 1347.56 427.764 1325.15 457.727 1316.04 z"/>
<path transform="translate(0,0)" fill="rgb(252,113,4)" d="M 1594.65 549.56 C 1638.59 552.385 1716.88 566.401 1760.01 577.932 L 1760.63 577.126 C 1756.72 570.6 1748.99 565.39 1743.37 560.283 C 1729.82 547.972 1687.87 512.52 1693.37 492.418 C 1694.6 487.954 1697.84 484.694 1701.86 482.592 C 1710.23 478.226 1717.94 474.943 1727.28 478.16 C 1736.63 481.383 1745.82 490.999 1753.16 497.53 C 1765.23 508.267 1851.53 591.394 1855.85 601.43 C 1857.38 604.975 1858.37 608.962 1859.19 612.731 C 1849.75 631.166 1821.12 652.88 1805.13 668.182 L 1763.74 708.037 C 1748.3 722.925 1737.82 735.964 1716.9 742.854 C 1693.45 737.927 1685.03 716.8 1699.4 700.726 C 1718.59 679.274 1749.52 648.419 1772.45 632.237 C 1749.15 628.153 1725.66 623.824 1702.39 620.224 C 1686.01 617.689 1637.83 610.25 1623.17 604.403 C 1619.19 598.543 1596.3 555.719 1594.65 549.56 z"/>
</svg>