<svg version="1.1" xmlns="http://www.w3.org/2000/svg" style="display: block;" viewBox="0 0 2048 2048" width="512" height="512" preserveAspectRatio="none">
<path transform="translate(0,0)" fill="rgb(10,88,230)" d="M 1348.96 1324.59 C 1312.28 1292.49 1291.12 1246.5 1269.16 1203.97 C 1256.74 1179.91 1243.71 1156.48 1230.71 1132.74 L 1059.9 822.211 C 1053.7 810.937 1040.38 781.264 1031.94 774.118 C 1023.88 767.302 1007.42 764.849 997.288 762.115 C 974.035 755.844 896.5 737.028 880.763 726.487 C 874.425 722.241 869.269 715.953 868.97 708.029 C 868.739 701.903 871.642 695.725 875.785 691.323 C 879.587 687.284 883.956 685.051 889.523 685.14 C 909.847 685.464 1055.47 727.038 1066.75 739.632 C 1075.1 748.965 1080.66 761.774 1086.55 772.762 C 1093.85 786.389 1101.18 800.067 1108.73 813.559 L 1169.77 923.922 C 1183.22 948.122 1199.7 976.39 1211.78 1001.11 C 1322.28 934.863 1437.53 875.758 1551.29 815.346 C 1572.93 803.855 1652.67 757.389 1669.22 755.452 C 1692.7 764.059 1718.51 827.709 1731.55 850.573 L 1800.61 973.414 C 1809.49 989.428 1824.77 1014.39 1832.39 1030.14 C 1876.12 1033.4 1908.06 1057.67 1903.27 1104.84 C 1901.48 1121.92 1892.98 1137.58 1879.65 1148.4 C 1861.91 1162.71 1824.16 1180.2 1802.83 1191.71 L 1651.44 1273.83 L 1513.72 1348.6 C 1499.63 1356.24 1465.3 1376.34 1451.28 1381.32 C 1470.27 1404.86 1485.16 1445.77 1478.6 1476 C 1475.54 1497.45 1471.81 1504.06 1468.05 1521.52 C 1456.92 1552.86 1429.81 1579.27 1400.09 1593.37 C 1365.78 1609.83 1326.3 1611.86 1290.48 1599.02 C 1256.5 1586.74 1227.13 1561.24 1212 1528.24 C 1211.09 1526.28 1210.21 1524.32 1209.34 1522.34 C 1204.66 1507.31 1200.92 1492.01 1198.14 1476.52 C 1197.85 1473.25 1197.64 1469.98 1197.51 1466.7 C 1196.18 1431.45 1211.56 1394.41 1235.58 1368.87 C 1258.18 1344.74 1288.61 1329.43 1321.46 1325.68 C 1333.35 1324.31 1337.84 1324.89 1348.96 1324.59 z M 1404.73 1340.04 C 1408.21 1343.69 1413.14 1346.7 1417.68 1348.89 C 1454.29 1324.28 1512.83 1293.3 1552.26 1272.16 L 1759.91 1161.82 C 1787.41 1147.08 1815.56 1132.37 1842.59 1116.84 C 1848.61 1112.49 1855.83 1110 1858.06 1102.4 C 1862.38 1087.64 1851.2 1077.68 1837.97 1073.49 C 1825.48 1077.15 1807.09 1088.15 1794.91 1094.69 L 1706.16 1143.27 L 1517.28 1245.54 C 1478.11 1266.63 1431.27 1290.28 1393.63 1312.91 C 1397.47 1321.33 1400.5 1330.76 1404.73 1340.04 z M 1348.51 1560.15 C 1400.43 1554.86 1438.34 1508.64 1433.34 1456.69 C 1428.35 1404.74 1382.34 1366.57 1330.36 1371.27 C 1277.97 1376.01 1239.43 1422.47 1244.47 1474.84 C 1249.5 1527.2 1296.18 1565.48 1348.51 1560.15 z M 1231.81 1041.05 C 1240.7 1051.22 1254.25 1078.54 1264.07 1096.49 C 1295.72 1154.3 1328.94 1217.14 1361.56 1274.93 C 1362.11 1275.13 1362.66 1275.33 1363.21 1275.53 L 1364.56 1275.12 C 1378.8 1266.16 1397.37 1257.22 1412.47 1249.45 C 1429.11 1240.78 1445.64 1231.9 1462.06 1222.81 L 1683.07 1102.32 L 1753.8 1064.54 C 1763.93 1059.04 1777.64 1052.49 1786.57 1046.07 C 1787.33 1042.52 1783.51 1036.95 1781.69 1033.66 C 1740.39 958.751 1696.9 884.611 1657.84 808.547 L 1656.43 808.001 C 1634.92 821.811 1603.44 838.79 1580.65 851.108 L 1464.32 913.399 L 1318.8 993.442 C 1290.27 1009.24 1260.75 1026.15 1231.81 1041.05 z"/>
<path transform="translate(0,0)" fill="rgb(6,28,157)" d="M 1348.96 1324.59 C 1359.9 1327.83 1370.73 1329.29 1381.83 1332.99 C 1386.51 1334.55 1400.97 1340.26 1404.73 1340.04 C 1408.21 1343.69 1413.14 1346.7 1417.68 1348.89 C 1418.04 1350.26 1426.76 1356.62 1428.9 1358.53 C 1436.81 1365.66 1444.28 1373.28 1451.28 1381.32 C 1470.27 1404.86 1485.16 1445.77 1478.6 1476 C 1475.54 1497.45 1471.81 1504.06 1468.05 1521.52 C 1456.92 1552.86 1429.81 1579.27 1400.09 1593.37 C 1365.78 1609.83 1326.3 1611.86 1290.48 1599.02 C 1256.5 1586.74 1227.13 1561.24 1212 1528.24 C 1211.09 1526.28 1210.21 1524.32 1209.34 1522.34 C 1204.66 1507.31 1200.92 1492.01 1198.14 1476.52 C 1197.85 1473.25 1197.64 1469.98 1197.51 1466.7 C 1196.18 1431.45 1211.56 1394.41 1235.58 1368.87 C 1258.18 1344.74 1288.61 1329.43 1321.46 1325.68 C 1333.35 1324.31 1337.84 1324.89 1348.96 1324.59 z M 1348.51 1560.15 C 1400.43 1554.86 1438.34 1508.64 1433.34 1456.69 C 1428.35 1404.74 1382.34 1366.57 1330.36 1371.27 C 1277.97 1376.01 1239.43 1422.47 1244.47 1474.84 C 1249.5 1527.2 1296.18 1565.48 1348.51 1560.15 z"/>
<path transform="translate(0,0)" fill="rgb(10,88,230)" d="M 1338.49 1397.57 C 1375.11 1397.08 1405.36 1426.04 1406.45 1462.65 C 1407.55 1499.25 1379.09 1529.97 1342.51 1531.67 C 1318.31 1532.8 1295.37 1520.79 1282.52 1500.24 C 1269.67 1479.7 1268.89 1453.82 1280.49 1432.55 C 1292.09 1411.27 1314.26 1397.9 1338.49 1397.57 z M 1342.44 1483.87 C 1352.68 1481.78 1359.32 1471.83 1357.32 1461.57 C 1355.32 1451.31 1345.42 1444.59 1335.15 1446.51 C 1324.75 1448.45 1317.93 1458.49 1319.96 1468.87 C 1321.99 1479.25 1332.08 1485.98 1342.44 1483.87 z"/>
<path transform="translate(0,0)" fill="rgb(6,28,157)" d="M 293.376 843.644 C 248.908 829.048 202.922 821.243 159.007 805.695 C 130.235 795.508 139.601 760.595 168.129 762.989 C 184.638 764.668 206.299 773.657 222.898 777.186 C 250.984 784.883 279.726 789.872 307.21 799.623 C 333.89 809.088 340.997 830.635 352.63 853.642 C 359.286 866.671 366.195 879.57 373.353 892.332 C 395.712 931.571 417.727 971.006 439.395 1010.63 C 447.877 1025.86 463.529 1051.6 470.24 1066.3 C 491.432 1050.41 523.567 1035.05 547.641 1021.61 L 699.559 936.787 C 724.763 922.676 752.144 907.661 776.887 893.171 C 803.264 877.724 860.534 834.391 889.368 838.766 C 903.178 840.861 949.664 930.13 958.205 944.583 L 1000.72 1015.41 C 1006.52 1025.1 1019.78 1046.18 1023.01 1055.66 C 1081.56 1026.95 1148.83 1070.26 1125.17 1136.58 C 1113.86 1168.29 1068.02 1187.16 1039.92 1202.41 L 941.915 1256.31 C 875.403 1293.18 810.547 1333.58 742.117 1366.78 C 739.175 1368.2 735.745 1369.46 732.613 1370.42 C 757.664 1401.94 770.952 1426.5 769.642 1469.99 C 769.601 1471.37 768.883 1474.56 768.547 1476.06 C 765.712 1492.47 762.943 1507.53 757.274 1523.37 C 757.081 1524.05 756.888 1524.73 756.694 1525.41 C 730.139 1590.89 649.933 1621.75 585.187 1600.62 C 541.45 1586.34 517.703 1560.1 498.312 1522.72 C 493.12 1505.31 491.468 1494.01 489.546 1476.38 C 487.932 1450.12 488.045 1432.38 499.642 1407.87 C 515.945 1373.42 539.284 1354.88 572.007 1337.47 C 562.103 1323.32 550.223 1301.44 541.407 1285.92 C 524.082 1255.31 506.95 1224.6 490.012 1193.78 L 354.285 951.146 L 318.968 887.895 C 312.308 875.785 300.952 854.213 293.376 843.644 z M 600.368 1289.83 C 655.487 1257.35 712.397 1228.35 768.494 1197.52 C 840.28 1157.19 912.342 1117.35 984.674 1078.01 C 956.607 1034.04 928.364 989.668 902.634 944.288 C 895.114 931.025 888.335 917.541 881.922 903.717 C 880.213 899.989 877.864 894.497 875.422 891.338 L 874.398 891.129 C 826.829 914.54 784.307 942.35 738.352 967.681 C 655.521 1013.34 572.885 1060.41 489.743 1105.37 C 502.507 1122.02 512.189 1142.18 522.81 1160.26 C 534.748 1180.57 546.665 1202.85 558.611 1222.91 C 564.656 1233.06 591.655 1288.09 599.187 1290.15 L 600.368 1289.83 z M 639.492 1561.77 C 691.704 1556.03 729.507 1509.24 724.151 1456.99 C 718.795 1404.74 672.286 1366.6 619.997 1371.57 C 567.164 1376.59 528.537 1423.69 533.948 1476.49 C 539.36 1529.28 586.739 1567.56 639.492 1561.77 z M 627.813 1326.53 C 642.123 1327.29 650.781 1328.27 664.758 1331.33 C 674.46 1334.08 681.262 1336.71 690.036 1341.58 C 710.885 1332.39 735.029 1318.14 755.493 1306.86 L 860.637 1249.03 L 1000.87 1171.97 C 1024.95 1158.69 1049.28 1145.87 1072.94 1131.85 C 1093.49 1119.67 1082.3 1095.9 1063.06 1089.99 C 1036.39 1098.32 988.114 1127.95 963.062 1142.13 L 843.162 1208.72 L 689.923 1293.54 C 678.51 1299.83 667.301 1306.01 655.717 1311.99 C 647.106 1316.44 635.699 1321.39 627.813 1326.53 z"/>
<path transform="translate(0,0)" fill="rgb(10,88,230)" d="M 625.055 1400.2 C 661.444 1397.8 692.94 1425.24 695.547 1461.61 C 698.154 1497.99 670.892 1529.64 634.533 1532.45 C 597.881 1535.28 565.919 1507.76 563.291 1471.09 C 560.664 1434.42 588.373 1402.62 625.055 1400.2 z M 633.505 1484.3 C 643.283 1481.95 649.337 1472.16 647.066 1462.36 C 644.796 1452.56 635.05 1446.43 625.235 1448.62 C 615.308 1450.84 609.089 1460.72 611.386 1470.63 C 613.682 1480.54 623.614 1486.68 633.505 1484.3 z"/>
<path transform="translate(0,0)" fill="rgb(10,88,230)" d="M 1212.74 398.361 C 1214.93 398.573 1217.08 399.017 1219.18 399.683 C 1228.61 402.713 1250.5 414.565 1259.55 419.515 C 1274.22 427.566 1288.97 435.492 1303.78 443.291 C 1331.17 457.318 1358.48 471.489 1385.71 485.803 C 1433.3 510.652 1474.75 522.189 1403.46 561.139 C 1388.73 569.185 1373.91 578.865 1358.47 585.489 C 1377.56 609.069 1411.94 669.78 1415.72 700.406 C 1399.6 724.172 1383 717.034 1370.3 696.131 C 1347.76 659.295 1323.65 620.697 1305.62 581.572 C 1295.74 560.119 1354.51 536.194 1367.98 527.771 C 1328.61 508.16 1286.36 485.487 1247.37 464.904 C 1243.23 462.509 1240.87 460.354 1237.23 457.324 C 1232.27 486.033 1222.92 519.141 1216.79 548.432 C 1212.85 567.263 1207.37 602.659 1202.23 619.39 C 1214.12 613.036 1241.02 595.857 1254.78 596.569 C 1260.07 596.843 1267.73 605.658 1270.3 610.572 C 1279.9 628.935 1289.89 647.249 1299.5 665.692 C 1310.99 687.382 1323.01 707.402 1332.7 730.012 C 1342.57 753.061 1312.38 774.129 1297.71 754.416 C 1286.7 739.622 1277.71 721.86 1268.78 705.584 C 1258.35 686.596 1246.75 667.745 1236.79 648.527 C 1235.91 649.181 1235.02 649.82 1234.12 650.444 C 1214.95 663.442 1177.74 686.352 1153.74 685.167 C 1143.44 684.658 1144.51 668.127 1145.84 660.66 C 1152.7 621.987 1161.93 583.545 1170.23 545.094 L 1187.55 464.293 C 1190.45 450.211 1192.76 435.997 1196.04 422.036 C 1198.69 410.755 1202.77 404.335 1212.74 398.361 z"/>
<path transform="translate(0,0)" fill="rgb(243,117,17)" d="M 467.569 425.968 C 474.569 425.71 489.873 431.218 496.456 434.185 C 558.887 462.333 621.893 488.684 684.922 515.501 C 688.709 517.218 708.829 527.818 709.622 530.062 C 716.665 550.001 680.565 564.863 667.082 574.079 C 657.38 580.711 634.34 588.181 625.758 595.804 C 624.7 604.174 696.462 705.048 690.281 717.691 C 672.527 754.003 649.294 727.109 636.038 702.655 C 617.38 668.943 595.422 636.64 578.463 602.088 C 564.172 572.972 584.533 563.918 607.474 552.953 C 616.968 548.414 625.76 544.837 636.006 542.02 C 597.853 530.505 551.293 505.258 513.597 489.893 C 504.845 486.53 498.209 483.93 489.739 479.727 C 488.391 498.933 482.711 532.919 479.467 552.68 C 475.969 573.99 469.255 622.333 462.996 642.585 C 478.728 631.589 496.638 616.851 514.899 612.697 C 520.636 615.957 525.558 619.254 530.05 624.138 C 543.087 638.314 561.755 675.52 572.229 693.748 C 584.354 714.851 599.454 736.384 608.728 758.863 C 609.885 761.668 610.362 764.501 610.168 767.531 C 609.81 773.133 606.6 776.408 602.509 779.916 C 598.638 783.236 591.222 788.078 585.787 786.937 C 563.741 782.307 518.605 688.012 504.589 665.708 C 483.579 679.669 454.638 696.592 430.805 703.739 C 420.53 699.276 418.238 696.136 413.581 686.01 C 414.723 670.6 418.236 651.927 420.713 636.333 L 436.823 539.974 C 440.102 520.53 443.136 501.045 445.923 481.525 C 447.699 469.58 449.27 457.349 451.794 445.555 C 454 435.249 458.795 431.255 467.569 425.968 z"/>
<path transform="translate(0,0)" fill="rgb(243,117,17)" d="M 1804.86 1476.39 C 1771.94 1451.05 1735.27 1429.07 1703.05 1402.75 C 1699.69 1399.61 1693.02 1392.35 1693.03 1387.47 C 1693.1 1367.3 1711.71 1354.59 1730.02 1366.33 C 1760.44 1385.84 1789.74 1408 1819.46 1428.71 L 1860.22 1456.81 C 1876.24 1467.63 1894.95 1477.54 1902.87 1495.55 C 1899.76 1504.88 1895.59 1510.43 1888.53 1517.22 C 1864.24 1540.59 1824.44 1564.84 1796.33 1584.96 C 1774.44 1600.62 1754.41 1619.61 1730.16 1631.73 C 1722.52 1635.56 1712.54 1640.89 1703.83 1637.75 C 1699.28 1636.11 1694.9 1631.79 1693.05 1627.34 C 1690.68 1621.63 1691.82 1614.96 1694.32 1609.51 C 1706.09 1583.85 1780.11 1537.86 1806.33 1522.43 C 1788.4 1523.72 1763.69 1522.88 1745.19 1523.03 C 1694.85 1523.44 1644.52 1523.43 1594.19 1523.01 L 1518.25 1523.21 C 1505.59 1523.26 1479.77 1523.95 1468.05 1521.52 C 1471.81 1504.06 1475.54 1497.45 1478.6 1476 L 1691.05 1475.82 L 1762.09 1475.84 C 1775.1 1475.85 1792.27 1475.47 1804.86 1476.39 z"/>
<path transform="translate(0,0)" fill="rgb(243,117,17)" d="M 768.547 1476.06 C 864.421 1474.61 962.453 1476.21 1058.56 1475.83 L 1153.48 1475.01 C 1164.18 1474.99 1188.86 1474.19 1198.14 1476.52 C 1200.92 1492.01 1204.66 1507.31 1209.34 1522.34 C 1200.31 1524.93 1158.15 1523.73 1145.84 1523.73 L 1026.72 1523.8 L 839.68 1524.09 L 786.81 1524.04 C 779.212 1524.03 764.156 1524.39 757.274 1523.37 C 762.943 1507.53 765.712 1492.47 768.547 1476.06 z"/>
<path transform="translate(0,0)" fill="rgb(243,117,17)" d="M 498.312 1522.72 C 488.448 1525.69 437.19 1523.99 424.027 1523.97 L 286.514 1523.92 L 211.754 1524 C 196.79 1524.01 161.183 1527.41 150.689 1514.79 C 145.725 1508.82 143.988 1500.2 145.807 1492.53 C 149.769 1475.83 167.871 1475.2 181.903 1474.88 C 202.624 1474.17 223.342 1475.37 244.092 1475.69 C 272.31 1475.91 300.529 1475.98 328.748 1475.91 C 358.892 1475.9 389.684 1475.86 419.756 1475.74 C 433.179 1475.69 479.348 1473.86 489.546 1476.38 C 491.468 1494.01 493.12 1505.31 498.312 1522.72 z"/>
<path transform="translate(0,0)" fill="rgb(243,117,17)" d="M 624.583 815.03 C 637.111 813.326 644.874 817.483 651.915 828.145 C 661.025 841.941 669.062 856.505 676.706 871.136 C 686.868 890.585 684.589 898.28 666.35 910.111 C 657.45 912.819 645.007 901.586 639.013 895.202 C 625.411 880.715 611.096 859.886 610.86 839.239 C 610.735 828.326 617.162 821.707 624.583 815.03 z"/>
<path transform="translate(0,0)" fill="rgb(243,117,17)" d="M 711.73 768.124 C 717.83 767.765 722.921 769.161 727.783 772.874 C 742.276 783.94 764.803 826.664 767.526 843.517 C 762.97 855.307 760.71 856.397 749.818 862.48 C 741.504 865.304 733.063 856.928 727.603 851.226 C 711.202 834.097 674.807 782.599 711.73 768.124 z"/>
<path transform="translate(0,0)" fill="rgb(10,88,230)" d="M 1348.69 791.165 C 1370.33 788.447 1424.93 855.823 1381.56 879.132 C 1366.83 879.663 1347.4 854.918 1341.31 842.817 C 1330.94 822.165 1325.02 804.183 1348.69 791.165 z"/>
<path transform="translate(0,0)" fill="rgb(10,88,230)" d="M 1431.42 745.88 C 1452.94 745.887 1479.04 787.663 1479.54 807.567 C 1479.76 816.104 1479.16 818.308 1474.93 825.518 C 1469.44 829.14 1468.53 829.669 1462.21 831.84 C 1446.96 832.411 1430.8 809.735 1424.34 797.542 C 1413.54 777.185 1407.04 758.113 1431.42 745.88 z"/>
</svg>