<svg version="1.1" xmlns="http://www.w3.org/2000/svg" style="display: block;" viewBox="0 0 2048 2048" width="512" height="512" preserveAspectRatio="none">
<path transform="translate(0,0)" fill="rgb(8,32,168)" d="M 309.863 320.237 C 322.349 319.927 328.43 323.961 335.618 333.892 C 346.537 348.976 357.336 364.115 367.914 379.46 C 382.39 400.46 398.26 421.607 408.98 444.846 C 415.145 458.569 391.139 475.031 378.347 470.944 C 360.461 465.23 349.974 443.7 341.162 428.732 C 342.687 443.152 342.09 465.067 342.093 480.087 L 342.084 563.829 L 342.084 839.375 L 342.104 1326.1 L 342.112 1488.12 C 342.112 1517.65 342.663 1549.42 341.835 1578.8 C 367.283 1576.88 413.309 1578.25 440.46 1578.26 L 629.018 1578.29 L 1227.28 1578.29 L 1581.2 1578.29 L 1678.17 1578.22 C 1693.62 1578.14 1722 1576.9 1736.34 1578.96 C 1725.18 1566.1 1712.63 1555.31 1701.58 1542.63 C 1681.49 1519.54 1694.6 1501.67 1720.85 1496.48 C 1724.04 1497.39 1727.37 1498.28 1730.24 1499.98 C 1744.09 1508.15 1825.61 1590.19 1826.69 1600.86 C 1827.84 1612.07 1811.53 1625.42 1804.24 1632.7 C 1777.3 1659.4 1745.78 1713.38 1702.05 1707.72 C 1694.87 1699.1 1692.94 1697.53 1690.06 1686.52 C 1696.36 1663.13 1718.28 1641.56 1737.68 1628.07 C 1731.2 1628.82 1722.44 1629.38 1715.85 1629.27 C 1648.39 1628.21 1580.93 1628.28 1513.47 1628.29 L 1008.64 1628.3 L 529.802 1628.13 L 385.665 1628.14 C 362.575 1628.14 339.173 1628.62 316.153 1627.58 C 294.331 1626.59 292.002 1601.15 292.038 1584.54 C 292.094 1559.04 292.286 1533.6 292.294 1508.12 L 292.304 1333.84 L 292.323 802.374 L 292.327 545.645 L 292.244 467.865 C 292.228 454.341 291.547 434.447 293.165 421.598 C 283.207 437.819 266.894 462.215 248.907 470.29 C 231.443 478.13 224.638 459.246 220.177 446.529 C 228.706 420.543 286.276 330.566 309.863 320.237 z"/>
<path transform="translate(0,0)" fill="rgb(8,32,168)" d="M 1266.16 858.652 C 1271.01 873.774 1279.5 888.586 1292.6 898.059 C 1262.3 922.139 1230.02 943.985 1198.53 966.521 L 1058.63 1067.37 L 984.694 1120.61 C 969.683 1131.52 947.41 1149.23 931.361 1156.68 C 923.35 1139.3 918.297 1132.05 902.182 1120.91 C 908.086 1114.28 942.653 1090.21 951.688 1083.67 L 1061.77 1003.98 L 1191.83 909.739 C 1210.47 896.231 1247.45 867.942 1266.16 858.652 z"/>
<path transform="translate(0,0)" fill="rgb(8,32,168)" d="M 810.174 1179.81 C 815.312 1197.86 818.743 1206.96 831.414 1221.12 C 826.407 1226.81 818.2 1232.21 811.96 1236.87 C 779.367 1261.2 745.532 1283.76 712.551 1307.57 L 642.86 1358.61 C 632.6 1366.13 613.216 1381.4 602.656 1386.07 C 601.137 1370.39 593.557 1355.91 581.528 1345.73 C 586.706 1338.94 612.933 1318.18 620.859 1312.25 C 679.929 1268.06 746.019 1216.05 810.174 1179.81 z"/>
<path transform="translate(0,0)" fill="rgb(248,106,0)" d="M 810.174 1179.81 C 810.943 1127.96 854.742 1100.27 902.182 1120.91 C 918.297 1132.05 923.35 1139.3 931.361 1156.68 C 935.879 1174.31 935.217 1189.29 925.73 1205.35 C 917.204 1220.09 903.03 1230.7 886.49 1234.74 C 863.303 1240.33 849.788 1231.9 831.414 1221.12 C 818.743 1206.96 815.312 1197.86 810.174 1179.81 z"/>
<path transform="translate(0,0)" fill="rgb(248,106,0)" d="M 1266.16 858.652 C 1259.33 816.165 1290.06 781.599 1333.45 785.596 C 1344.53 786.616 1354.29 791.791 1363.72 797.291 C 1377.3 812.565 1382.34 819.401 1386.92 839.683 C 1388.61 857.294 1385.2 871.21 1373.66 885.2 C 1363.01 897.978 1347.65 905.915 1331.07 907.213 C 1316.94 908.395 1305.34 903.475 1292.6 898.059 C 1279.5 888.586 1271.01 873.774 1266.16 858.652 z"/>
<path transform="translate(0,0)" fill="rgb(248,106,0)" d="M 602.656 1386.07 C 605.444 1414.88 587.44 1441.63 559.702 1449.89 C 531.964 1458.15 502.26 1445.61 488.834 1419.97 C 475.408 1394.33 482.02 1362.77 504.61 1344.68 C 527.199 1326.59 559.439 1327.02 581.528 1345.73 C 593.557 1355.91 601.137 1370.39 602.656 1386.07 z"/>
<path transform="translate(0,0)" fill="rgb(248,106,0)" d="M 1421.9 756.006 C 1417.56 727.763 1433.58 700.337 1460.31 690.238 C 1487.04 680.14 1517.19 690.125 1532.61 714.181 C 1548.03 738.238 1544.51 769.804 1524.17 789.876 C 1503.84 809.948 1472.23 813.051 1448.38 797.316 C 1434.11 787.905 1424.49 772.899 1421.9 756.006 z"/>
<path transform="translate(0,0)" fill="rgb(248,106,0)" d="M 801.551 988.336 C 825.336 986.46 846.084 1004.35 847.732 1028.15 C 849.38 1051.95 831.295 1072.53 807.479 1073.94 C 783.983 1075.35 763.745 1057.56 762.119 1034.08 C 760.493 1010.59 778.087 990.187 801.551 988.336 z"/>
<path transform="translate(0,0)" fill="rgb(248,106,0)" d="M 1185.72 1364.2 C 1200.92 1361.49 1216.41 1367.18 1226.23 1379.09 C 1236.06 1391 1238.71 1407.28 1233.16 1421.7 C 1227.62 1436.11 1214.73 1446.41 1199.45 1448.66 C 1176.32 1452.06 1154.75 1436.27 1150.99 1413.19 C 1147.24 1390.12 1162.7 1368.3 1185.72 1364.2 z"/>
<path transform="translate(0,0)" fill="rgb(248,106,0)" d="M 488.655 1025.28 C 511.93 1022.94 532.653 1040.01 534.817 1063.3 C 536.981 1086.59 519.757 1107.19 496.45 1109.18 C 473.389 1111.14 453.058 1094.14 450.917 1071.1 C 448.775 1048.05 465.626 1027.59 488.655 1025.28 z"/>
<path transform="translate(0,0)" fill="rgb(248,106,0)" d="M 711.498 795.544 C 734.188 791.417 755.974 806.318 760.352 828.96 C 764.731 851.603 750.072 873.553 727.479 878.182 C 712.64 881.222 697.312 876.055 687.344 864.65 C 677.375 853.245 674.303 837.364 679.301 823.065 C 684.299 808.766 696.595 798.256 711.498 795.544 z"/>
<path transform="translate(0,0)" fill="rgb(248,106,0)" d="M 799.299 1371.99 C 822.279 1367.9 844.199 1383.3 848.13 1406.31 C 852.062 1429.32 836.501 1451.12 813.464 1454.89 C 790.661 1458.62 769.121 1443.25 765.229 1420.47 C 761.337 1397.7 776.551 1376.05 799.299 1371.99 z"/>
<path transform="translate(0,0)" fill="rgb(248,106,0)" d="M 490.292 725.552 C 513.443 723.317 533.973 740.393 535.99 763.564 C 538.008 786.735 520.739 807.103 497.55 808.903 C 474.667 810.68 454.626 793.688 452.635 770.823 C 450.644 747.958 467.447 727.758 490.292 725.552 z"/>
<path transform="translate(0,0)" fill="rgb(248,106,0)" d="M 1406.3 1004.08 C 1429.07 999.767 1451.01 1014.79 1455.22 1037.58 C 1459.42 1060.37 1444.3 1082.24 1421.49 1086.35 C 1398.83 1090.43 1377.12 1075.42 1372.94 1052.78 C 1368.76 1030.13 1383.67 1008.36 1406.3 1004.08 z"/>
<path transform="translate(0,0)" fill="rgb(248,106,0)" d="M 1329.74 1205.33 C 1352.67 1203.62 1372.69 1220.75 1374.54 1243.67 C 1376.39 1266.6 1359.38 1286.72 1336.46 1288.71 C 1313.35 1290.71 1293.03 1273.52 1291.16 1250.4 C 1289.29 1227.28 1306.6 1207.06 1329.74 1205.33 z"/>
<path transform="translate(0,0)" fill="rgb(248,106,0)" d="M 1007.13 1272.27 C 1029.76 1269.72 1050.23 1285.85 1053.07 1308.44 C 1055.9 1331.04 1040.04 1351.72 1017.48 1354.84 C 1002.63 1356.89 987.821 1350.8 978.719 1338.89 C 969.616 1326.97 967.625 1311.09 973.505 1297.3 C 979.386 1283.51 992.229 1273.95 1007.13 1272.27 z"/>
<path transform="translate(0,0)" fill="rgb(248,106,0)" d="M 1409.44 1405.37 C 1431.95 1403.39 1451.91 1419.76 1454.37 1442.21 C 1456.83 1464.67 1440.88 1484.97 1418.48 1487.91 C 1403.56 1489.86 1388.76 1483.59 1379.78 1471.52 C 1370.8 1459.45 1369.04 1443.47 1375.2 1429.74 C 1381.36 1416.02 1394.46 1406.69 1409.44 1405.37 z"/>
<path transform="translate(0,0)" fill="rgb(248,106,0)" d="M 655.663 568.258 C 678.234 565.325 698.933 581.178 701.983 603.733 C 705.034 626.288 689.289 647.07 666.75 650.238 C 644.044 653.429 623.075 637.542 620.002 614.82 C 616.929 592.098 632.925 571.212 655.663 568.258 z"/>
<path transform="translate(0,0)" fill="rgb(248,106,0)" d="M 1186.03 1045.19 C 1208.16 1040.74 1229.72 1055.02 1234.24 1077.13 C 1238.76 1099.24 1224.55 1120.85 1202.45 1125.44 C 1180.25 1130.06 1158.53 1115.76 1153.99 1093.55 C 1149.44 1071.34 1163.81 1049.66 1186.03 1045.19 z"/>
<path transform="translate(0,0)" fill="rgb(8,32,168)" d="M 1421.9 756.006 C 1424.49 772.899 1434.11 787.905 1448.38 797.316 C 1437.79 806.298 1399.08 833.376 1386.92 839.683 C 1382.34 819.401 1377.3 812.565 1363.72 797.291 C 1375.1 785.679 1407.2 762.857 1421.9 756.006 z"/>
</svg>