<svg version="1.1" xmlns="http://www.w3.org/2000/svg" style="display: block;" viewBox="0 0 2048 2048" width="512" height="512" preserveAspectRatio="none">
<path transform="translate(0,0)" fill="rgb(8,28,175)" d="M 1191.48 279.058 C 1466.29 280.909 1687.55 505.23 1685.62 780.042 C 1683.69 1054.86 1459.31 1276.05 1184.5 1274.05 C 909.796 1272.04 688.706 1047.77 690.632 773.065 C 692.559 498.36 916.772 277.208 1191.48 279.058 z M 1197.5 1237.04 C 1451.99 1231.93 1654.14 1021.44 1648.94 766.942 C 1643.75 512.449 1433.18 310.378 1178.69 315.662 C 924.325 320.943 722.375 531.382 727.568 785.75 C 732.76 1040.12 943.129 1242.14 1197.5 1237.04 z"/>
<path transform="translate(0,0)" fill="rgb(8,28,175)" d="M 1177.45 392.1 C 1389.46 386.216 1566.16 553.206 1572.24 765.212 C 1578.33 977.218 1411.51 1154.07 1199.51 1160.36 C 987.223 1166.66 810.078 999.563 803.983 787.27 C 797.888 574.977 965.153 397.992 1177.45 392.1 z M 1036.15 465.455 C 1043.37 477.939 1059.54 500.79 1053.85 513.773 C 1035.72 555.181 1010.37 493.762 1005.53 481.426 C 952.094 510.784 928.278 548.937 893.48 594.322 C 906.57 596.806 934.905 609.437 939.898 620.176 C 953.973 650.45 923.493 652.8 903.48 639.845 C 896.208 635.138 884.062 628.902 877.477 625.103 C 859.883 656.34 851.778 691.439 846.076 726.517 C 844.463 736.441 843.321 749.609 841.237 758.945 C 853.27 758.089 866.571 758.421 878.496 760.165 C 904.673 763.994 916.054 772.215 895.734 794.804 C 882.278 796.812 855.796 796.071 841.627 796.029 L 841.962 797.432 C 843.978 806.11 844.797 816.969 845.612 825.967 C 849.203 865.621 863.163 897.819 877.489 934.189 C 890.015 921.414 909.323 909.323 927.607 908.313 C 935.646 907.869 944.298 913.054 942.681 921.841 C 939.1 941.291 910.452 955.662 894.177 962.15 C 929.702 1014.27 955.382 1038.22 1006.3 1073.21 C 1012.31 1057.58 1023.5 1034.24 1038.64 1025.97 C 1051.86 1018.75 1057.94 1037.09 1059.79 1046.28 C 1056.39 1056.08 1042.94 1082.34 1036.62 1090.82 C 1087.83 1110.31 1113.07 1119.6 1168.49 1124.96 C 1167.43 1107.88 1167.3 1092.84 1170.8 1076.11 C 1178.48 1067.42 1190.04 1058.99 1199.4 1070.94 C 1208.73 1082.86 1207.04 1102.93 1206.24 1117.25 C 1206.1 1121.25 1205.29 1122.1 1207.21 1124.39 C 1232.35 1128.73 1312.6 1100.34 1337.42 1091.16 C 1331.89 1079.76 1324.44 1067.7 1319.44 1057.18 C 1311.83 1041.19 1323.09 1024.23 1339.8 1029.42 C 1351.83 1033.15 1365.11 1063.95 1369.12 1073.92 C 1401.76 1051.32 1425.8 1033.84 1451.58 1002.67 C 1461.74 990.396 1470.26 978.4 1479.99 966.127 C 1466.37 958.598 1427.36 937.683 1439.19 918.716 C 1453.18 896.29 1486.17 925.008 1501.32 934.014 C 1503.54 915.211 1518.18 880.449 1523.82 861.507 C 1531.03 837.271 1532.02 825.678 1534.47 801.001 C 1520.33 800.881 1488.49 803.934 1480.37 793.382 C 1452.27 756.911 1519.37 761.6 1534.16 762.328 C 1529.46 705.407 1524.74 678.094 1500.84 625.097 C 1490.84 632.592 1451.49 657.509 1441.25 640.571 C 1425.81 615.059 1465.52 602.359 1482.42 593.438 C 1457.98 558.202 1434.69 529.112 1400.96 501.795 C 1391.49 494.126 1382.48 488.7 1373.46 481.781 C 1368.52 491.255 1345.6 539.075 1329.29 527.076 C 1309.63 512.623 1331.36 480.733 1341.3 465.389 C 1309.29 448.614 1286.1 439.736 1250.01 433.193 C 1240.53 431.473 1216.14 428.712 1208.33 426.677 C 1208.45 444.544 1210.66 512.222 1176.52 477.13 C 1168.74 469.143 1169.54 438.382 1169.71 426.88 L 1160.3 427.417 C 1136.52 428.392 1088.97 439.781 1066.44 448.805 C 1056.38 452.835 1045.35 459.53 1036.15 465.455 z"/>
<path transform="translate(0,0)" fill="rgb(8,28,175)" d="M 1253.2 801.356 C 1251.63 804.437 1250.05 807.532 1248.28 810.503 C 1237.84 828.023 1222.2 842.017 1202.01 846.827 C 1185.59 850.739 1166.92 848.503 1152.56 839.369 C 1136.21 828.975 1127.04 812.967 1121.53 794.823 C 1119.62 788.514 1117.92 781.012 1113.43 775.996 C 1093.53 753.779 1000.98 706.346 997.086 684.235 C 996.26 679.546 997.643 675.102 1000.55 671.402 C 1003.34 667.843 1007.13 665.292 1011.71 664.896 C 1031.78 663.161 1113.01 728.593 1131.71 743.583 C 1143.56 726.598 1150.94 722.229 1170.32 717.148 C 1184.5 715.676 1193.9 714.259 1207.97 718.029 C 1211.62 719.345 1215.18 720.938 1218.59 722.795 C 1237.63 732.927 1246.74 745.838 1252.92 766.124 C 1270.56 764.312 1308.8 765.288 1327.81 765.341 C 1354.67 765.416 1400.1 763.44 1424.64 767.876 C 1439.22 779.722 1439.02 799.414 1417.75 801.13 C 1392.18 802.17 1365.51 802.709 1339.91 802.031 C 1312.01 801.291 1280.63 803.665 1253.2 801.356 z M 1192.4 811.518 C 1209.03 808.723 1220.31 793.063 1217.7 776.405 C 1215.08 759.747 1199.54 748.299 1182.86 750.736 C 1171.9 752.336 1162.65 759.697 1158.64 770.013 C 1154.62 780.328 1156.45 792.007 1163.44 800.594 C 1170.43 809.181 1181.49 813.353 1192.4 811.518 z"/>
<path transform="translate(0,0)" fill="rgb(250,117,21)" d="M 1179.82 518.691 C 1191.39 515.838 1193.18 515.755 1203.85 521.784 C 1209.48 534.884 1208.56 560.699 1208.2 575.731 C 1207.11 622.728 1209.64 671.181 1207.97 718.029 C 1193.9 714.259 1184.5 715.676 1170.32 717.148 C 1167.92 692.966 1169.38 647.979 1169.3 622.572 C 1169.21 597.096 1167.9 551.638 1170.74 528.3 C 1173.78 524.834 1176.33 521.733 1179.82 518.691 z"/>
<path transform="translate(0,0)" fill="rgb(250,117,21)" d="M 474.027 1068.94 C 474.141 1038.25 483.1 994.894 506.362 973.45 C 583.372 902.461 716.277 959.626 700.637 1069.39 C 717.733 1078.14 733.926 1085.98 749.408 1097.71 C 852.031 1175.43 881.251 1323.11 822.469 1436.39 C 802.036 1475.77 771.014 1511.22 732.34 1533.99 C 751.41 1532.55 774.394 1532.94 793.742 1532.93 L 881.047 1532.92 L 1159.79 1532.94 L 1625.27 1532.74 L 1769.44 1532.73 C 1792.68 1532.72 1817.52 1532.16 1840.55 1532.64 C 1841.63 1525.12 1848.19 1520.98 1855.27 1519.89 C 1869.85 1517.65 1874.89 1535.58 1875.63 1546.76 C 1876.52 1560.01 1876.05 1573.34 1875.94 1586.59 L 1875.92 1641.02 L 1876.04 1705.18 C 1876.05 1717.08 1876.34 1729.56 1875.57 1741.37 C 1875.32 1745.2 1873.61 1752.06 1870.66 1754.41 C 1865.47 1758.57 1853.78 1759.45 1847.42 1759.49 C 1809.76 1759.7 1772.05 1759.61 1734.41 1759.61 L 1521.51 1759.61 L 877.215 1759.6 L 498.908 1759.62 L 378.711 1759.63 C 319.518 1759.61 220.358 1767.36 190.847 1702.97 C 169.275 1655.9 174.014 1587.41 174.017 1535.75 L 174.035 1354.51 C 174.04 1288.06 173.286 1220.13 173.434 1153.66 C 173.466 1139.36 181.832 1118.73 193.453 1109.98 C 219.307 1090.5 256.185 1093.92 286.814 1092.88 C 333.968 1091.32 360.069 1089.39 391.595 1128.4 C 396.853 1123.52 402.03 1117.17 407.335 1111.94 C 427.731 1091.83 447.752 1079.81 474.027 1068.94 z M 1397.45 1631.14 C 1356.13 1674.2 1360.55 1593.59 1361.39 1572.33 C 1361.43 1571.36 1361.49 1570.4 1361.58 1569.43 C 1348.76 1570.18 1313.95 1570.4 1301.66 1569.22 C 1303.11 1589.77 1306.33 1621.62 1294.44 1638.94 C 1266.97 1653.71 1263.98 1623 1264.03 1603.5 C 1264.06 1592.83 1263.62 1579.63 1265.22 1569.24 C 1253.84 1570.25 1216.49 1570.38 1205.52 1569.04 C 1206.5 1584.77 1209.78 1628.6 1199.63 1636.7 C 1164.37 1664.78 1167.87 1600.22 1168.05 1589.5 C 1168.12 1582.79 1168.36 1576.09 1168.77 1569.4 C 1156.43 1570.16 1122.93 1570.41 1111.08 1569.15 L 1109.64 1569.01 L 1108.78 1568.92 C 1110.89 1589.49 1112.6 1618.8 1103.44 1637.41 C 1095.48 1642.53 1083.8 1648.13 1078.06 1636.78 C 1069.21 1619.3 1071.13 1588.64 1072.73 1569.39 C 1060.47 1570.15 1022.13 1570.51 1010.6 1569.21 C 1012.37 1579.23 1019.68 1654.61 988.065 1642.23 C 971.734 1635.84 973.314 1592.6 974.045 1574.63 C 974.116 1572.89 974.207 1571.16 974.318 1569.42 C 961.045 1570.07 927.126 1570.55 914.677 1569.22 C 918.19 1588.25 922.383 1663.63 884.326 1636.79 C 875.395 1618.22 877.667 1590.28 877.896 1569.33 C 865.783 1570.23 829.188 1570.39 817.645 1569.1 C 819.652 1580.7 825.648 1668.14 789.922 1637.96 C 777.924 1627.83 780.734 1586.74 781.093 1569.26 C 769.069 1570.32 734.928 1570.32 722.516 1569.66 C 723.747 1584.51 725.045 1615.54 722.755 1630.04 C 712.577 1642.49 708.442 1645.28 692.906 1639.07 C 684.413 1621.19 684.87 1589.27 686.021 1569.35 C 674.835 1570.31 638.502 1570.38 627.234 1569.54 C 628.768 1582.13 628.521 1616.64 627.89 1629.65 C 624.884 1634.1 617.669 1642.59 611.905 1642.72 C 584.447 1643.33 588.439 1586.21 590.467 1569.33 C 578.502 1570.29 544.649 1570.31 533.083 1569.09 C 534.842 1590.23 541.481 1663.77 500.095 1636.65 C 493.971 1619.99 495.772 1588.28 496.286 1569.64 C 481.554 1570.08 451.082 1570.58 436.879 1569.29 C 438.773 1588.89 440.789 1620.18 431.689 1637.36 C 426.702 1640.97 424.526 1641.71 418.978 1643.98 C 401.941 1636.89 399.899 1629.32 399.83 1610.57 C 399.78 1596.99 399.9 1583.13 400.35 1569.56 C 380.761 1570.21 361.512 1569.33 342.284 1569.67 C 343.425 1608.54 342.41 1647.72 342.769 1686.62 C 342.886 1699.29 342.835 1712.35 341.831 1724.98 C 373.219 1723.87 408.466 1724.56 440.101 1724.56 L 610.055 1724.56 L 1127.11 1724.56 L 1599.21 1724.57 L 1752.77 1724.55 C 1781.12 1724.54 1812.77 1723.79 1840.69 1724.96 C 1839.65 1711.66 1840.39 1688.31 1840.4 1674.42 L 1840.71 1568.96 C 1832.24 1570.28 1794.96 1570.36 1786.54 1569.08 C 1788.05 1582.23 1793.56 1642.13 1771.14 1643.26 C 1746.46 1644.49 1748.81 1609.04 1749.02 1592.96 C 1748.88 1585.29 1749.16 1576.24 1749.83 1569.21 C 1734.84 1569.1 1702.13 1570.51 1689.47 1568.79 C 1689.99 1578.51 1700.17 1666.55 1658.55 1637.36 C 1649.29 1630.87 1651.52 1583.86 1652.61 1569.31 C 1636.83 1569.64 1609.39 1569.7 1593.72 1568.94 C 1595.63 1589.05 1601.82 1670.18 1560.2 1632.43 C 1554.61 1618.39 1555.62 1584.88 1556.95 1569.08 C 1541.82 1569.33 1508.2 1570.05 1494.07 1568.96 C 1495.9 1583.21 1496.75 1614.84 1494.86 1629.27 C 1473.49 1658.83 1457.85 1636.05 1457.04 1609.65 C 1456.64 1596.48 1456.77 1582.53 1457.73 1569.38 C 1449.42 1569.48 1441.59 1568.79 1433.4 1568.71 C 1421.62 1568.61 1409.77 1569.19 1397.97 1569.02 C 1398.79 1583.62 1399.74 1617.03 1397.45 1631.14 z M 305.747 1568.74 C 303.061 1568.66 295.927 1568.25 293.599 1568.44 C 269.199 1569.77 247.913 1574.92 230.98 1593.81 C 217.973 1608.52 211.393 1627.83 212.705 1647.43 C 214.245 1673.29 226.562 1691.28 245 1708.21 C 265.748 1724.37 281.758 1722.77 306.147 1725.01 C 304.728 1705.06 305.384 1680.17 305.399 1659.89 C 305.288 1629.51 305.403 1599.12 305.747 1568.74 z M 603.099 1079.81 C 604.364 1092.64 604.978 1105.62 600.143 1117.85 C 594.81 1122.28 588.413 1127.75 581.189 1126.23 C 561.736 1122.15 564.78 1093.23 565.755 1080.34 C 526.898 1086.85 494.815 1096.07 460.757 1117.33 C 450.948 1123.45 440.537 1132.59 431.911 1137.87 C 442.323 1145.53 456.52 1157.73 460.718 1170.66 C 463.713 1179.89 447.199 1190.78 439.049 1189.45 C 431.229 1188.17 412.529 1168.41 408.226 1163.49 C 389.329 1187.88 375.412 1217.12 366.984 1246.7 C 363.03 1260.57 360.209 1275.04 356.159 1288.73 C 371.912 1286.99 386.079 1285.61 399.615 1294.1 C 403.781 1306.26 406.904 1317.57 390.341 1322.3 C 380.997 1324.97 365.967 1324.64 356.311 1323.79 C 358.903 1336.34 359.957 1347.69 362.305 1359.68 C 368.165 1388.63 379.189 1416.3 394.848 1441.35 C 397.809 1446 402.523 1454.42 406.428 1457.46 L 408.343 1457.57 C 420.358 1444.24 427.038 1435.13 445.27 1431.34 C 477.932 1449.09 451.275 1469.79 432.27 1485.4 C 478.834 1523.07 491.641 1534.04 556.25 1532.92 L 569.029 1533.12 C 575.981 1496.56 603.407 1499.55 611.378 1533.35 C 624.639 1532.92 639.13 1532.61 652.199 1530.88 C 682.001 1526.95 715.937 1504.52 739.448 1485.61 C 721.949 1471.06 685.454 1439.97 730.168 1431.95 C 742.801 1437.06 755.999 1448.61 763.266 1459.77 C 794.267 1415.13 810.304 1384.43 814.302 1329.24 C 801.751 1331.07 786.501 1331.35 774.311 1327.46 C 770.399 1322.07 764.107 1314.55 765.903 1307.62 C 769.998 1291.82 802.907 1293.4 814.669 1294.07 C 812.066 1275.04 809.962 1253.21 802.824 1235.47 C 792.705 1210.33 772.15 1184.93 762.383 1159.54 C 753.555 1172.83 741.661 1183.99 727.185 1190.8 C 692.751 1173.51 717.33 1151.5 739.493 1138.05 C 702.235 1113.21 667.643 1087.04 622.075 1081.92 C 615.862 1081.22 609.213 1080.69 603.099 1079.81 z M 591.023 1042.21 C 611.887 1042.44 644.719 1046.89 663.964 1054.75 C 658.523 1012.97 631.328 972.733 584.42 978.253 C 558.603 983.045 544.165 986.271 527.561 1008.85 C 514.67 1026.38 515.863 1038.36 509.354 1054.86 C 532.631 1045.98 566.365 1042.98 591.023 1042.21 z M 341.888 1532.83 C 355.496 1532.46 372.808 1533.81 386.92 1533.77 C 401.007 1533.72 420.669 1532.26 433.697 1534.55 C 381.521 1489.9 336.158 1425.15 322.259 1357.46 C 308.074 1288.38 327.08 1220.07 364.527 1161.88 C 361.309 1154.16 354.21 1133.39 344.571 1132.05 C 309.32 1127.13 271.495 1129.64 235.833 1130.17 C 223.086 1130.35 214.515 1136.2 212.162 1149.02 C 207.34 1175.28 210.601 1203.56 210.629 1230.38 L 210.612 1458.15 L 210.705 1523.14 C 210.713 1534.11 211.115 1554.87 209.412 1565.33 C 240.037 1539.98 256.869 1530.25 298.014 1532.11 C 303.857 1523.72 308.32 1517.78 319.006 1515.7 C 331.383 1513.3 339.235 1521.88 341.888 1532.83 z"/>
<path transform="translate(0,0)" fill="rgb(8,28,175)" d="M 1840.55 1532.64 C 1841.63 1525.12 1848.19 1520.98 1855.27 1519.89 C 1869.85 1517.65 1874.89 1535.58 1875.63 1546.76 C 1876.52 1560.01 1876.05 1573.34 1875.94 1586.59 L 1875.92 1641.02 L 1876.04 1705.18 C 1876.05 1717.08 1876.34 1729.56 1875.57 1741.37 C 1875.32 1745.2 1873.61 1752.06 1870.66 1754.41 C 1865.47 1758.57 1853.78 1759.45 1847.42 1759.49 C 1809.76 1759.7 1772.05 1759.61 1734.41 1759.61 L 1521.51 1759.61 L 877.215 1759.6 L 498.908 1759.62 L 378.711 1759.63 C 319.518 1759.61 220.358 1767.36 190.847 1702.97 C 169.275 1655.9 174.014 1587.41 174.017 1535.75 L 174.035 1354.51 C 174.04 1288.06 173.286 1220.13 173.434 1153.66 C 173.466 1139.36 181.832 1118.73 193.453 1109.98 C 219.307 1090.5 256.185 1093.92 286.814 1092.88 C 333.968 1091.32 360.069 1089.39 391.595 1128.4 C 385.137 1137.01 372.222 1154.61 364.527 1161.88 C 361.309 1154.16 354.21 1133.39 344.571 1132.05 C 309.32 1127.13 271.495 1129.64 235.833 1130.17 C 223.086 1130.35 214.515 1136.2 212.162 1149.02 C 207.34 1175.28 210.601 1203.56 210.629 1230.38 L 210.612 1458.15 L 210.705 1523.14 C 210.713 1534.11 211.115 1554.87 209.412 1565.33 C 240.037 1539.98 256.869 1530.25 298.014 1532.11 C 303.857 1523.72 308.32 1517.78 319.006 1515.7 C 331.383 1513.3 339.235 1521.88 341.888 1532.83 C 341.755 1540.07 341.069 1563.55 342.284 1569.67 C 343.425 1608.54 342.41 1647.72 342.769 1686.62 C 342.886 1699.29 342.835 1712.35 341.831 1724.98 C 373.219 1723.87 408.466 1724.56 440.101 1724.56 L 610.055 1724.56 L 1127.11 1724.56 L 1599.21 1724.57 L 1752.77 1724.55 C 1781.12 1724.54 1812.77 1723.79 1840.69 1724.96 C 1839.65 1711.66 1840.39 1688.31 1840.4 1674.42 L 1840.71 1568.96 C 1840.91 1559.65 1841.51 1541.45 1840.55 1532.64 z M 245 1708.21 C 265.748 1724.37 281.758 1722.77 306.147 1725.01 C 304.728 1705.06 305.384 1680.17 305.399 1659.89 C 305.288 1629.51 305.403 1599.12 305.747 1568.74 C 303.061 1568.66 295.927 1568.25 293.599 1568.44 C 269.199 1569.77 247.913 1574.92 230.98 1593.81 C 217.973 1608.52 211.393 1627.83 212.705 1647.43 C 214.245 1673.29 226.562 1691.28 245 1708.21 z"/>
<path transform="translate(0,0)" fill="rgb(8,28,175)" d="M 581.421 1153.06 C 608.922 1151.03 602.983 1183.82 603.091 1202.14 C 603.17 1215.42 603.658 1233.16 601.749 1245.83 C 619.132 1249.14 638.55 1263.05 644.594 1279.91 C 656.562 1313.3 635.638 1355.07 602.357 1366.56 C 587.068 1371.83 575.355 1368.23 561.821 1361.32 C 551.857 1372.2 541.466 1382.67 530.673 1392.72 C 525.326 1397.26 519.615 1401.34 513.635 1404.85 C 482.511 1423.13 473.755 1398.25 493.644 1374.95 C 505.466 1361.1 517.483 1349.65 531.626 1337.86 C 512.785 1299.01 525.505 1261 566.787 1245.14 C 564.787 1224.31 562.204 1195.74 565.845 1175.25 C 567.664 1165.02 572.749 1158.42 581.421 1153.06 z M 592.206 1329.33 C 605.441 1325.43 613.105 1311.64 609.422 1298.34 C 605.739 1285.04 592.071 1277.16 578.717 1280.63 C 569.886 1282.92 562.977 1289.8 560.642 1298.62 C 558.308 1307.44 560.91 1316.83 567.45 1323.2 C 573.99 1329.56 583.453 1331.9 592.206 1329.33 z"/>
</svg>