<svg version="1.1" xmlns="http://www.w3.org/2000/svg" style="display: block;" viewBox="0 0 2048 2048" width="512" height="512" preserveAspectRatio="none">
<path transform="translate(0,0)" fill="rgb(1,8,204)" d="M 983.477 586.098 C 981.402 577.592 982.934 560.927 983.682 551.645 C 989.232 487.35 1009.24 425.14 1042.21 369.664 C 1094.99 282.543 1176.23 237.837 1272.56 214.34 C 1293.05 209.397 1313.78 205.47 1334.67 202.574 C 1361.32 198.817 1469.29 187.018 1490.84 199.346 C 1495.21 201.846 1497.45 205.182 1498.59 210.048 C 1502.6 227.149 1496.57 251.18 1493.76 268.417 C 1480.63 348.698 1461.66 433.301 1416.47 502.296 C 1375.72 564.501 1314.66 606.144 1241.94 621.197 C 1220.6 625.613 1197.89 625.464 1177.05 631.1 C 1177.4 631.82 1177.75 632.539 1178.1 633.259 C 1186.01 636.415 1198.85 640.637 1205.99 644.261 C 1242.03 662.573 1277.34 684.361 1309.14 709.212 C 1467.61 831.581 1560.35 1020.53 1560.23 1220.74 C 1560.13 1256.45 1557.48 1291.02 1550 1326.05 C 1547.92 1335.77 1546.53 1346.75 1543.05 1356.04 C 1549.84 1356.33 1560.11 1353.59 1567.19 1352.38 C 1598.82 1347.07 1630.88 1341.24 1661.05 1330.22 C 1677.71 1324.82 1692.87 1315.11 1710.55 1312.95 C 1742.81 1309.02 1739.89 1328.22 1741.64 1351.11 C 1757.47 1558.16 1625.98 1807.8 1387.49 1780.56 C 1356.09 1776.97 1324.83 1771.69 1294.12 1763.85 C 1281.84 1760.78 1251.83 1749.81 1241.77 1748.58 C 1229.57 1760.81 1206.62 1770.56 1190.73 1777.97 C 1110.97 1815.13 1023.77 1834.74 935.574 1834.8 C 766.082 1834.06 603.694 1766.63 483.524 1647.1 C 406.326 1569.74 351.584 1472.87 325.141 1366.83 C 321.601 1352.7 314.04 1333.2 314.519 1318.87 C 314.698 1313.48 316.388 1308.16 320.632 1304.61 C 324.645 1301.26 330.6 1299.15 335.844 1299.69 C 340.485 1300.17 346.152 1303.37 348.998 1307.06 C 354.979 1314.8 365.115 1367.08 369.098 1380.47 C 374.176 1397.22 380.028 1413.73 386.633 1429.94 C 437.266 1552.77 523.148 1648.65 637.312 1715.73 C 652.626 1724.72 700.974 1753.73 716.901 1754.17 C 712.974 1751.3 705.903 1748 701.434 1745.71 C 650.797 1719.79 604.417 1684.84 563.987 1644.54 C 448.317 1529.94 382.931 1374.08 382.223 1211.25 C 382.485 1102.39 415.247 998.623 476.354 909.243 C 495.55 881.165 505.796 863.607 530.752 838.775 C 526.483 833.5 511.068 822.286 503.222 813.047 C 492.538 828.464 473.595 847.623 461.035 864.624 C 417.043 923.959 384.612 991.043 365.433 1062.37 C 354.393 1103.07 347.527 1144.79 344.94 1186.88 C 343.797 1203.18 344.81 1219.21 343.198 1235.73 C 343.376 1248.7 324.183 1268.56 313.675 1252.66 C 298.47 1229.66 304.97 1175.71 307.795 1149.21 C 325.55 983.117 408.706 830.934 538.891 726.28 C 649.795 636.773 787.515 587.048 930.019 585.061 C 946.253 584.933 967.687 584.409 983.477 586.098 z M 1501.65 1361.58 L 1501.79 1360.45 C 1503.26 1348.72 1507.03 1333.74 1509.19 1321.55 C 1513.38 1298.76 1516.25 1275.75 1517.79 1252.63 C 1529.05 1112.65 1487.7 973.495 1401.82 862.377 C 1392 849.609 1371.98 825.705 1365.21 812.583 C 1360.87 820.024 1353.66 827.71 1347.69 834.07 C 1315.12 868.732 1278 893.336 1235.38 913.654 C 1264.9 979.259 1289.53 1125.62 1287.78 1197.39 C 1313.81 1194.31 1339.18 1191.53 1365.18 1187.95 C 1389.23 1184.64 1414.52 1180.33 1438.59 1178.51 C 1451.54 1186.44 1454.14 1195.66 1447.58 1209.64 C 1426.07 1223.28 1371.34 1226.08 1344.7 1230.58 C 1328.89 1233.25 1303.1 1236.3 1287.58 1237 C 1289.72 1296.82 1280.8 1360.32 1267.89 1418.7 C 1263.53 1438.59 1258.55 1458.33 1252.95 1477.9 C 1250.3 1486.88 1232.96 1535.99 1233.98 1540.77 C 1236.79 1543.2 1237.97 1543.35 1241.43 1544.52 C 1252.71 1502.06 1276.64 1469.3 1305.56 1437.45 C 1343.16 1396.06 1378.9 1381.99 1432.91 1371.77 C 1451.08 1368.33 1486.6 1366.67 1501.65 1361.58 z M 908.615 941.479 C 909.174 932.56 910.212 923.915 911.055 915.05 C 918.241 839.539 917.825 762.332 937.06 688.615 C 939.929 680.503 941.666 676.872 945.739 669.27 C 946.351 658.394 947.82 648.759 949.351 637.998 C 924.142 645.008 899.312 649.745 875.098 662.022 C 800.177 700.009 734.891 774.657 693.222 846.684 C 685.394 860.214 679.492 875.177 672.144 887.772 C 686.434 893.438 701.709 900.03 716.021 905.128 C 777.802 927.686 842.862 939.966 908.615 941.479 z M 950.102 941.248 C 1045.78 936.492 1094.06 923.659 1183.89 893.198 C 1141.51 780.606 1095.18 736.954 1001.62 666.421 C 992.733 678.81 980.176 695.84 972.775 709.137 C 971.528 714.428 970.475 722.113 969.801 727.602 C 962.238 789.126 953.161 850.881 951.173 912.886 C 950.867 922.423 951.471 931.807 950.102 941.248 z M 1020.11 637.793 C 1023.98 639.404 1027.74 640.586 1031.58 642.356 C 1113.77 680.157 1164.91 762.508 1203.51 840.712 C 1209.87 853.591 1216.51 866.49 1221.37 879.818 C 1230.5 872.187 1252.48 860.276 1263.79 852.489 C 1293.22 832.238 1315.09 812.274 1340.64 787.624 C 1321.83 772.489 1304.7 756.411 1284.88 741.953 C 1214.65 690.737 1112.19 635.13 1023.19 633.429 L 1020.11 637.793 z M 1175.5 1655.32 C 1190.95 1657.71 1210.96 1664.51 1226.52 1668.33 C 1225.72 1650.5 1226.13 1632.63 1227.77 1614.85 C 1228.53 1606.27 1231.01 1587.59 1230.59 1580.11 C 1225.46 1579.12 1220.88 1578.34 1215.85 1576.81 C 1208.94 1592.14 1202.68 1605.87 1195.05 1620.9 C 1189.63 1631.59 1180.1 1645.84 1175.5 1655.32 z M 1076.9 566.427 C 1084.47 563.625 1116.33 558.582 1126.8 556.095 C 1174.78 544.708 1220.37 529.403 1262.96 504.348 C 1367.3 442.979 1413.7 351.263 1442.53 237.864 C 1430.94 236.14 1402.88 237.849 1390.84 238.662 C 1309.11 244.18 1214.92 265.97 1148.01 315.326 C 1084.09 362.474 1050.76 429.615 1035.35 505.484 C 1031.62 523.88 1028.27 545.163 1024.28 562.927 C 1033.15 548.063 1046.18 532.995 1057.83 520.039 C 1110.44 462.31 1172.63 414.119 1241.67 377.597 C 1261.56 367.179 1309.33 338.295 1317.76 375.502 C 1320.18 391.276 1299.67 397.666 1288.57 403.323 C 1220.28 438.111 1152.63 479.613 1100.6 536.672 C 1093.32 544.658 1082.62 557.254 1076.9 566.427 z M 747.179 1254.2 C 756.429 1265.38 771.453 1297.53 779.28 1312.06 C 790.498 1332.44 802.615 1352.32 815.596 1371.63 C 837.14 1403.85 862.168 1433.53 886.726 1463.46 C 890.338 1467.87 894.056 1472.17 897.07 1477.01 C 900.551 1477.83 904.62 1478.65 907.784 1477.08 C 909.466 1466.3 908.803 1429.12 908.375 1417.16 L 903.941 1316.07 C 903.129 1298.51 901.305 1274.46 902.187 1257.38 C 887.369 1258.31 870.351 1257.33 855.44 1256.77 C 830.441 1255.63 805.433 1254.69 780.419 1253.96 C 774.454 1253.82 752.036 1253.02 747.179 1254.2 z M 667.087 745.28 C 665.659 769.667 663.252 797.177 661.296 821.631 L 662.557 821.444 C 666.479 817.614 670.286 811.295 673.37 806.629 C 704.227 759.94 735.938 712.209 781.805 678.778 C 782.092 677.992 782.38 677.205 782.667 676.418 C 744.639 689.415 702.449 706.672 668.064 727.685 C 667.993 733.841 668.153 739.198 667.087 745.28 z M 1302.51 1703.26 C 1313.04 1704.21 1342.77 1700.24 1355.17 1698.45 C 1375.4 1695.52 1398.99 1693.69 1418.71 1690.08 C 1456.94 1682.79 1493.39 1668.19 1526.08 1647.08 C 1610.63 1592.85 1658.85 1503.14 1673.82 1405.4 C 1675.68 1393.24 1676.84 1380.93 1679.5 1368.93 C 1665.52 1372.25 1651.11 1377.8 1637.24 1381.3 C 1612.77 1387.47 1587.01 1392.59 1562.13 1396.6 C 1463.1 1412.57 1372.12 1401.53 1311.9 1498.63 C 1287.31 1538.29 1276.81 1578.53 1272.36 1625.01 C 1271.07 1638.48 1272.34 1657.98 1270.24 1670.15 C 1295.7 1657.36 1320.85 1648.83 1345.89 1636.94 C 1408.21 1607.03 1465.41 1567.43 1515.34 1519.62 C 1528.6 1506.7 1546.9 1482.8 1566.89 1489.06 C 1571.67 1490.55 1575.63 1493.94 1577.82 1498.45 C 1587.04 1517.6 1554.88 1540.95 1543.05 1552.28 C 1478.82 1613.78 1404.38 1663.74 1320.48 1694.07 C 1314.5 1696.24 1307.51 1699.17 1302.51 1703.26 z M 941.883 1257.26 C 941.836 1288.15 942.054 1317.87 943.575 1348.75 C 945.632 1390.5 950.778 1437.1 945.989 1478.7 C 959.215 1479.02 974.32 1479.07 987.331 1480.78 C 1053.67 1485.22 1132.38 1501.67 1194.61 1526.35 C 1221.82 1442.97 1244.28 1366.76 1247.44 1277.95 C 1247.81 1267.48 1249.14 1252.15 1248.68 1242.11 C 1246.96 1241.48 1247.66 1241.41 1246.62 1241.65 C 1219.4 1243.24 1192.25 1245.91 1165.08 1247.89 C 1115.16 1251.88 1065.14 1254.66 1015.08 1256.24 C 997.581 1256.82 958.027 1259.17 941.883 1257.26 z M 528.387 786.997 C 537.838 792.644 551.582 803.787 558.422 812.298 C 566.978 803.564 575.482 794.254 583.854 785.293 C 570.421 780.844 565.559 774.722 558.119 763.588 C 547.012 771.639 538.834 778.912 528.387 786.997 z M 1248.85 1201.17 C 1246.54 1180.51 1245.24 1153.36 1242.99 1133.32 C 1238.21 1090.9 1222.13 960.594 1196.63 930.362 C 1194.55 930.02 1195.35 929.917 1194.21 930.155 C 1132.97 957.848 1071.36 969.48 1004.78 977.913 C 993.016 979.404 958.207 982.375 946.307 981.588 C 948.448 1016.78 944.651 1064.47 943.796 1100.61 C 943.207 1126.06 942.759 1151.52 942.453 1176.97 C 942.296 1189.61 942.62 1206.59 941.72 1218.78 C 954.414 1217.04 982.003 1218.19 996.129 1217.86 C 1054.65 1215.24 1113.12 1211.6 1171.51 1206.94 C 1196.12 1205.15 1224.55 1202.15 1248.85 1201.17 z M 950.604 1536.8 C 961.394 1540.29 995.445 1565.94 1006.72 1573.72 C 1017.75 1581.2 1029.03 1588.29 1040.54 1595.01 C 1059.82 1606.5 1079.63 1617.09 1099.9 1626.73 C 1108.09 1630.61 1130.41 1639.86 1136.57 1643.83 C 1145.75 1629.1 1172.61 1579.92 1177.75 1563.97 C 1176.09 1561.99 1159.29 1555.96 1155.4 1554.49 C 1088.89 1529.41 1021.06 1521.87 950.866 1515.93 C 950.41 1523.03 949.69 1529.75 950.604 1536.8 z M 661.596 928.818 C 666.175 941.751 667.993 973.263 670.139 988.115 C 674.625 1020.35 680.589 1052.37 688.011 1084.06 C 693.898 1109.02 700.569 1131.43 708.753 1155.73 C 713.696 1170.41 726.764 1197.53 728.476 1211.46 C 731.903 1212.31 758.293 1213.46 763.661 1213.86 C 809.783 1217.37 855.587 1217.58 901.819 1218.16 C 900.945 1204.19 901.73 1183.13 901.756 1168.66 C 901.821 1133.04 901.887 1095.63 903.928 1060.1 C 905.039 1040.77 905.12 1000.35 908.916 982.111 C 857.73 980.808 806.894 973.263 757.536 959.644 C 740.91 955.219 724.767 950.174 708.507 944.652 C 700.795 942.033 667.313 927.275 661.596 928.818 z"/>
<path transform="translate(0,0)" fill="rgb(254,121,1)" d="M 1543.05 1356.04 C 1549.84 1356.33 1560.11 1353.59 1567.19 1352.38 C 1598.82 1347.07 1630.88 1341.24 1661.05 1330.22 C 1677.71 1324.82 1692.87 1315.11 1710.55 1312.95 C 1742.81 1309.02 1739.89 1328.22 1741.64 1351.11 C 1757.47 1558.16 1625.98 1807.8 1387.49 1780.56 C 1356.09 1776.97 1324.83 1771.69 1294.12 1763.85 C 1281.84 1760.78 1251.83 1749.81 1241.77 1748.58 C 1221.82 1746.95 1205.97 1755.03 1194.83 1734.2 C 1195.26 1702.74 1206.15 1717.46 1224.05 1700.82 C 1230.3 1695.01 1227.87 1677 1226.52 1668.33 C 1225.72 1650.5 1226.13 1632.63 1227.77 1614.85 C 1228.53 1606.27 1231.01 1587.59 1230.59 1580.11 C 1233.11 1569.68 1236.75 1553.78 1241.43 1544.52 C 1252.71 1502.06 1276.64 1469.3 1305.56 1437.45 C 1343.16 1396.06 1378.9 1381.99 1432.91 1371.77 C 1451.08 1368.33 1486.6 1366.67 1501.65 1361.58 C 1515.29 1361.51 1529.71 1358.73 1543.05 1356.04 z M 1302.51 1703.26 C 1313.04 1704.21 1342.77 1700.24 1355.17 1698.45 C 1375.4 1695.52 1398.99 1693.69 1418.71 1690.08 C 1456.94 1682.79 1493.39 1668.19 1526.08 1647.08 C 1610.63 1592.85 1658.85 1503.14 1673.82 1405.4 C 1675.68 1393.24 1676.84 1380.93 1679.5 1368.93 C 1665.52 1372.25 1651.11 1377.8 1637.24 1381.3 C 1612.77 1387.47 1587.01 1392.59 1562.13 1396.6 C 1463.1 1412.57 1372.12 1401.53 1311.9 1498.63 C 1287.31 1538.29 1276.81 1578.53 1272.36 1625.01 C 1271.07 1638.48 1272.34 1657.98 1270.24 1670.15 C 1295.7 1657.36 1320.85 1648.83 1345.89 1636.94 C 1408.21 1607.03 1465.41 1567.43 1515.34 1519.62 C 1528.6 1506.7 1546.9 1482.8 1566.89 1489.06 C 1571.67 1490.55 1575.63 1493.94 1577.82 1498.45 C 1587.04 1517.6 1554.88 1540.95 1543.05 1552.28 C 1478.82 1613.78 1404.38 1663.74 1320.48 1694.07 C 1314.5 1696.24 1307.51 1699.17 1302.51 1703.26 z"/>
<path transform="translate(0,0)" fill="rgb(253,206,145)" d="M 1679.5 1368.93 C 1684.36 1366.05 1693.41 1364.16 1699.22 1362.74 C 1699.2 1386.38 1699.54 1410.1 1697.32 1433.64 C 1689.37 1517.88 1657.17 1606.36 1596.19 1666.87 C 1547.88 1715.43 1481.91 1742.27 1413.41 1741.24 C 1374.29 1741.02 1341.88 1732.6 1304.51 1722.86 C 1288.97 1718.81 1275.28 1716.76 1259.87 1710.85 C 1268.37 1709.34 1296.7 1702.04 1302.51 1703.26 C 1313.04 1704.21 1342.77 1700.24 1355.17 1698.45 C 1375.4 1695.52 1398.99 1693.69 1418.71 1690.08 C 1456.94 1682.79 1493.39 1668.19 1526.08 1647.08 C 1610.63 1592.85 1658.85 1503.14 1673.82 1405.4 C 1675.68 1393.24 1676.84 1380.93 1679.5 1368.93 z"/>
<path transform="translate(0,0)" fill="rgb(254,121,1)" d="M 983.477 586.098 C 981.402 577.592 982.934 560.927 983.682 551.645 C 989.232 487.35 1009.24 425.14 1042.21 369.664 C 1094.99 282.543 1176.23 237.837 1272.56 214.34 C 1293.05 209.397 1313.78 205.47 1334.67 202.574 C 1361.32 198.817 1469.29 187.018 1490.84 199.346 C 1495.21 201.846 1497.45 205.182 1498.59 210.048 C 1502.6 227.149 1496.57 251.18 1493.76 268.417 C 1480.63 348.698 1461.66 433.301 1416.47 502.296 C 1375.72 564.501 1314.66 606.144 1241.94 621.197 C 1220.6 625.613 1197.89 625.464 1177.05 631.1 C 1165.68 631.145 1139.89 618.809 1126.72 615.101 C 1100.45 607.699 1075.45 600.706 1048.43 596.102 C 1038.64 609.262 1031.49 619.09 1023.19 633.429 L 1020.11 637.793 C 1013.96 644.079 1006.16 658.314 1001.62 666.421 C 992.733 678.81 980.176 695.84 972.775 709.137 C 951.733 709 947.905 706.504 937.06 688.615 C 939.929 680.503 941.666 676.872 945.739 669.27 C 956.54 659.476 994.068 602.254 1001.58 588.925 C 995.611 588.113 989.443 587.046 983.477 586.098 z M 1442.53 237.864 C 1430.94 236.14 1402.88 237.849 1390.84 238.662 C 1309.11 244.18 1214.92 265.97 1148.01 315.326 C 1084.09 362.474 1050.76 429.615 1035.35 505.484 C 1031.62 523.88 1028.27 545.163 1024.28 562.927 C 1033.15 548.063 1046.18 532.995 1057.83 520.039 C 1110.44 462.31 1172.63 414.119 1241.67 377.597 C 1261.56 367.179 1309.33 338.295 1317.76 375.502 C 1320.18 391.276 1299.67 397.666 1288.57 403.323 C 1220.28 438.111 1152.63 479.613 1100.6 536.672 C 1093.32 544.658 1082.62 557.254 1076.9 566.427 C 1084.47 563.625 1116.33 558.582 1126.8 556.095 C 1174.78 544.708 1220.37 529.403 1262.96 504.348 C 1367.3 442.979 1413.7 351.263 1442.53 237.864 z"/>
<path transform="translate(0,0)" fill="rgb(253,206,145)" d="M 1442.53 237.864 C 1445.6 236.228 1452.55 236.872 1456.41 236.935 C 1452.54 259.822 1449.83 286.005 1444.93 308.293 C 1426.86 390.524 1393.03 492.907 1322.12 544.113 C 1240.83 602.824 1156.74 584.939 1065.02 578.631 C 1068.91 574.539 1072.81 570.317 1076.9 566.427 C 1084.47 563.625 1116.33 558.582 1126.8 556.095 C 1174.78 544.708 1220.37 529.403 1262.96 504.348 C 1367.3 442.979 1413.7 351.263 1442.53 237.864 z"/>
<path transform="translate(0,0)" fill="rgb(125,183,253)" d="M 530.752 838.775 C 565.647 865.663 585.917 883.325 625.588 905.045 C 591.911 997.702 570.126 1098.88 572.029 1197.76 C 554.518 1192.33 438.748 1170.38 427.567 1176.06 C 422.521 1178.62 419.038 1184.05 417.704 1189.44 C 416.704 1193.47 417.099 1198.22 419.579 1201.68 C 430.125 1216.4 540.827 1231.09 562.301 1233.43 C 565.599 1233.79 568.826 1234.07 572.145 1234.12 C 575.311 1349.64 593.578 1431.13 631.615 1541.71 C 606.692 1554.26 581.693 1569.66 559.679 1586.78 C 544.859 1598.31 536.321 1616.62 558.996 1624.79 C 565.894 1627.3 574.245 1622.19 579.829 1618.61 C 601.489 1603.87 622.14 1587.29 646.151 1576.34 C 690.434 1671.18 734.345 1725.43 816.99 1788.89 C 791.439 1779.25 765.297 1772.2 739.327 1763.76 C 730.227 1760.8 723.983 1756.76 716.901 1754.17 C 712.974 1751.3 705.903 1748 701.434 1745.71 C 650.797 1719.79 604.417 1684.84 563.987 1644.54 C 448.317 1529.94 382.931 1374.08 382.223 1211.25 C 382.485 1102.39 415.247 998.623 476.354 909.243 C 495.55 881.165 505.796 863.607 530.752 838.775 z"/>
<path transform="translate(0,0)" fill="rgb(65,147,254)" d="M 1175.5 1655.32 C 1190.95 1657.71 1210.96 1664.51 1226.52 1668.33 C 1227.87 1677 1230.3 1695.01 1224.05 1700.82 C 1206.15 1717.46 1195.26 1702.74 1194.83 1734.2 C 1148.09 1752.32 1105.88 1768.26 1058.25 1784.36 C 1120.22 1737.36 1132.79 1719.49 1175.5 1655.32 z"/>
<path transform="translate(0,0)" fill="rgb(125,183,253)" d="M 610.05 1240.85 C 635.772 1241.16 724.138 1246.97 747.179 1254.2 C 756.429 1265.38 771.453 1297.53 779.28 1312.06 C 790.498 1332.44 802.615 1352.32 815.596 1371.63 C 837.14 1403.85 862.168 1433.53 886.726 1463.46 C 890.338 1467.87 894.056 1472.17 897.07 1477.01 C 892.631 1478.52 854.311 1479.93 845.883 1480.64 C 794.081 1485.02 711.165 1499.28 667.248 1527.29 C 641.551 1456.38 624.368 1390.06 615.869 1314.72 C 613.018 1289.45 612.347 1265.6 610.05 1240.85 z"/>
<path transform="translate(0,0)" fill="rgb(125,183,253)" d="M 892.848 1515.43 C 899.281 1515.06 907.463 1515.21 914.036 1515.15 C 912.861 1543.32 914.721 1568.13 916.389 1596.05 C 920.314 1661.72 928.441 1725.85 927.952 1791.77 C 864.997 1777.75 835.934 1760.62 788.711 1717.7 C 740.715 1674.86 712.499 1617 679.779 1562.56 C 743.904 1529.27 821.372 1518.54 892.848 1515.43 z"/>
<path transform="translate(0,0)" fill="rgb(125,183,253)" d="M 950.604 1536.8 C 961.394 1540.29 995.445 1565.94 1006.72 1573.72 C 1017.75 1581.2 1029.03 1588.29 1040.54 1595.01 C 1059.82 1606.5 1079.63 1617.09 1099.9 1626.73 C 1108.09 1630.61 1130.41 1639.86 1136.57 1643.83 C 1093.93 1713.25 1046.26 1760.36 967.997 1788.06 C 963.158 1763.49 960.242 1708.04 959.025 1681.72 C 956.804 1633.69 952.829 1584.56 950.604 1536.8 z"/>
<path transform="translate(0,0)" fill="rgb(125,183,253)" d="M 661.596 928.818 C 666.175 941.751 667.993 973.263 670.139 988.115 C 674.625 1020.35 680.589 1052.37 688.011 1084.06 C 693.898 1109.02 700.569 1131.43 708.753 1155.73 C 713.696 1170.41 726.764 1197.53 728.476 1211.46 C 690.161 1209.27 648.866 1204.7 610.065 1201.88 C 608.171 1143.03 627.433 974.887 661.596 928.818 z"/>
<path transform="translate(0,0)" fill="rgb(65,147,254)" d="M 558.119 763.588 C 566.224 755.095 587.339 738.758 597.056 731.983 C 672.255 679.555 762.121 644.769 852.502 631.256 C 839.702 637.968 826.557 645.165 814.744 653.485 C 803.748 661.23 794.163 669.28 782.667 676.418 C 744.639 689.415 702.449 706.672 668.064 727.685 C 667.993 733.841 668.153 739.198 667.087 745.28 C 665.659 769.667 663.252 797.177 661.296 821.631 C 660.125 830.416 643.79 859.606 638.758 869.323 C 607.304 851.243 586.478 835.78 558.422 812.298 C 566.978 803.564 575.482 794.254 583.854 785.293 C 570.421 780.844 565.559 774.722 558.119 763.588 z"/>
<path transform="translate(0,0)" fill="rgb(125,183,253)" d="M 583.854 785.293 C 602.445 767.128 643.919 740.211 667.028 727.276 C 666.784 733.945 666.617 738.605 667.087 745.28 C 665.659 769.667 663.252 797.177 661.296 821.631 C 660.125 830.416 643.79 859.606 638.758 869.323 C 607.304 851.243 586.478 835.78 558.422 812.298 C 566.978 803.564 575.482 794.254 583.854 785.293 z"/>
</svg>