<svg version="1.1" xmlns="http://www.w3.org/2000/svg" style="display: block;" viewBox="0 0 2048 2048" width="512" height="512" preserveAspectRatio="none">
<defs>
	<linearGradient id="Gradient1" gradientUnits="userSpaceOnUse" x1="1827.3" y1="521.376" x2="804.086" y2="758.753">
		<stop class="stop0" offset="0" stop-opacity="1" stop-color="rgb(147,172,233)"/>
		<stop class="stop1" offset="1" stop-opacity="1" stop-color="rgb(210,216,242)"/>
	</linearGradient>
</defs>
<path transform="translate(0,0)" fill="rgb(0,46,213)" d="M 1537.01 513.111 C 1535.59 489.28 1536.95 464.416 1536.55 440.479 C 1536.18 417.566 1535.82 394.286 1537.76 371.481 C 1538.81 359.168 1550.21 350.594 1562.06 349.935 C 1568.8 349.619 1576.6 353.408 1582.29 357.154 C 1604.11 371.535 1625.52 386.669 1647.21 401.284 L 1797.4 502.842 C 1809.77 511.385 1822.38 519.584 1835.2 527.429 C 1859.91 542.489 1915.47 570.977 1918.83 604.919 C 1919.42 610.892 1915.09 619.136 1910.79 623.2 C 1869.52 656.694 1820.77 684.594 1776.8 714.13 L 1643.15 805.692 C 1623.08 819.406 1603.08 833.379 1582.73 846.602 C 1577.48 849.942 1567.3 855.977 1561.01 855.341 C 1550.52 854.278 1537.3 846.103 1537.21 834.211 C 1536.89 790.726 1534.98 744.132 1536.95 700.902 C 1521.61 702.577 1493.06 701.737 1476.65 701.739 L 1368.03 701.723 L 1014.01 701.744 C 984.353 701.777 954.7 701.621 925.048 701.276 C 917.068 701.235 892.568 700.536 886.807 701.871 C 876.211 698.774 813.613 698.533 803.092 701.437 C 793.474 700.7 784.396 701.585 774.757 700.842 C 769.294 697.824 754.569 693.074 747.927 690.28 C 726.009 681.06 716.541 665.499 701.919 648.279 C 691.575 623.033 689.12 594.61 699.818 569.029 C 708.927 546.833 726.641 529.275 748.918 520.366 C 777.423 509.052 811.889 510.223 842.099 511.469 C 863.008 512.331 883.295 512.588 904.226 512.59 L 1190.01 512.599 L 1418.41 512.572 L 1492.09 512.532 C 1506.08 512.528 1523.31 512.112 1537.01 513.111 z"/>
<path transform="translate(0,0)" fill="url(#Gradient1)" d="M 1589.9 428.234 C 1625.18 449.618 1656.71 472.031 1690.66 495.236 L 1792.51 563.59 C 1810.91 575.898 1832.38 591 1851.05 602.299 C 1821.37 623.441 1791.48 642.481 1761.09 662.531 L 1676.76 719.287 C 1659.51 730.918 1642.39 742.727 1625.38 754.711 C 1614.63 762.235 1600.59 772.847 1588.98 778.322 C 1591.16 749.741 1589.69 720.427 1590.18 691.854 C 1590.34 682.911 1590.09 664.219 1583.43 658.484 C 1564.26 641.977 1519.1 647.733 1495.5 647.892 L 1394.55 647.964 L 998.006 647.976 L 854.599 648.009 C 829.295 648.072 800.091 649.848 775.458 647.559 C 734.964 635.854 732.327 573.711 776.855 565.376 L 777.762 565.301 C 796.02 563.931 828.719 565.211 847.922 565.338 L 967.813 565.389 L 1389.66 565.757 L 1506.02 565.812 C 1526.41 565.96 1547.22 566.889 1567.47 565.688 C 1580.57 564.911 1586.89 551.454 1588.31 540.017 C 1591.49 514.42 1589.67 487.807 1590.06 462.012 C 1590.22 450.934 1590.24 439.179 1589.9 428.234 z"/>
<path transform="translate(0,0)" fill="rgb(235,233,240)" d="M 775.458 647.559 C 734.964 635.854 732.327 573.711 776.855 565.376 C 775.07 574.981 776.06 586.509 776.131 596.424 C 776.247 612.731 777.124 631.352 775.458 647.559 z"/>
<path transform="translate(0,0)" fill="rgb(0,46,213)" d="M 508.001 1532.04 C 508.577 1569.06 507.731 1606.38 508.19 1643.44 C 508.313 1653.36 506.64 1669.41 500.239 1677.28 C 495.227 1683.44 487.913 1687.27 479.999 1687.89 C 473.44 1688.36 466.801 1686.25 461.391 1682.55 C 399.313 1640.08 337.965 1596.5 276.6 1553 C 250.498 1534.32 224.231 1515.88 197.804 1497.67 C 179.154 1484.79 159.617 1472.24 142.256 1457.71 C 126.471 1444.5 127.844 1427.48 142.376 1413.94 C 157.33 1400.01 175.505 1390.87 192.281 1379.58 C 211.666 1366.54 230.954 1353.33 250.26 1340.19 L 383.335 1249.09 C 408.213 1232.1 432.995 1214.65 458.656 1198.75 C 478.053 1187.5 501.958 1170.95 505.974 1206.82 C 510.04 1243.13 507.098 1281.05 508.027 1317.61 C 508.239 1325.95 508.262 1335.44 507.567 1343.65 L 507.45 1344.89 C 535.197 1343.25 574.154 1344.54 602.855 1344.56 L 782.117 1344.56 L 1040.83 1344.54 C 1083.88 1344.54 1132.58 1343.55 1175.27 1344.69 C 1188.57 1346.93 1239.19 1347.82 1251.62 1344.62 C 1261.51 1345.79 1280.77 1350.05 1289.65 1354.67 C 1318.37 1376.57 1314.45 1372.59 1333.98 1403.83 C 1347.81 1441.18 1341.9 1477.5 1313.86 1507.21 C 1302.49 1519.26 1280.68 1529.69 1264.09 1530.9 C 1237.6 1532.84 1209.98 1532.13 1183.27 1532.13 L 1028.83 1532.13 L 508.001 1532.04 z"/>
<path transform="translate(0,0)" fill="rgb(168,180,220)" d="M 441.28 1280.23 C 445.92 1281.02 448.858 1280.85 453.515 1280.81 C 454.245 1301.89 451.38 1323.04 451.749 1344.17 C 452.038 1360.72 454.037 1387.4 471.937 1394.93 C 484.986 1400.41 586.729 1397.78 610.897 1397.78 L 1051.46 1397.77 L 1181.82 1397.7 C 1205.58 1397.68 1230.8 1397.07 1254.42 1398.91 C 1262.91 1399.57 1271.68 1404.11 1277.69 1410.24 C 1285.29 1418.12 1289.51 1428.65 1289.48 1439.59 C 1289.29 1458.91 1274.59 1477.02 1254.83 1478.38 C 1241.75 1479.28 1229.12 1479.12 1216.04 1479.07 L 1152.04 1478.98 L 921.5 1478.96 L 613.108 1479.01 C 589.088 1479.12 565.068 1479.02 541.05 1478.73 C 511.702 1478.08 461.436 1467.33 456.539 1506.48 C 452.205 1541.13 453.785 1576.95 454.103 1611.95 C 437.184 1599.46 419.36 1587.61 402.1 1575.49 L 296.816 1501.58 L 240 1461.86 C 229.466 1454.53 213.98 1443.25 203.059 1437.5 C 217.932 1427.92 234.987 1415.53 249.861 1405.38 L 344.291 1340.72 C 367.803 1324.43 416.364 1289.12 441.28 1280.23 z"/>
<path transform="translate(0,0)" fill="rgb(254,120,2)" d="M 1312.84 967.568 L 1311.93 966.306 C 1291.11 937.941 1248.24 916.586 1254.59 874.587 C 1257.39 857.229 1266.94 841.683 1281.17 831.351 C 1309.84 810.789 1336.98 822.995 1363.87 839.152 C 1393.76 857.117 1423.23 875.855 1453.15 893.8 L 1521.4 934.606 C 1555.69 955.098 1595.79 972.114 1586.51 1020.63 C 1583.43 1037.43 1573.68 1052.27 1559.49 1061.79 C 1537.23 1076.84 1509.18 1073.08 1485.48 1063.57 C 1505.24 1084.62 1528.41 1099.46 1527.08 1131.44 C 1525.12 1178.37 1485.1 1186.37 1447.2 1178.45 C 1436.73 1176.26 1426.84 1175.15 1416.47 1171.75 L 1417.25 1172.64 C 1436.01 1193.77 1464.1 1213.17 1462.64 1245.31 C 1461.33 1274.09 1432.7 1303.14 1403.19 1299.07 C 1387.98 1296.98 1363.55 1292.32 1349.43 1286.78 C 1368.53 1307.07 1399.98 1327.72 1398.94 1358.51 C 1397.86 1390.2 1366.68 1404.92 1338.73 1404.58 C 1337.1 1404.56 1335.57 1404.22 1333.98 1403.83 C 1314.45 1372.59 1318.37 1376.57 1289.65 1354.67 C 1297.99 1351.4 1338.31 1357.9 1349.8 1359.39 C 1328.95 1340.15 1309.89 1318.84 1290.19 1298.41 C 1279.68 1287.52 1269.08 1275.83 1257.03 1266.62 C 1232.95 1248.22 1143.79 1232.41 1109.21 1221.84 C 1144.24 1260.67 1201.06 1290.07 1237.88 1328.96 C 1242.62 1333.96 1248.28 1338.55 1251.62 1344.62 C 1239.19 1347.82 1188.57 1346.93 1175.27 1344.69 C 1138.94 1314.2 1065.09 1271.53 1058.7 1224.52 C 1052.93 1182.06 1099.43 1157.75 1134.8 1173.3 C 1137.78 1174.61 1170.45 1184.51 1170.48 1184.5 C 1169.61 1181.1 1164.5 1176.86 1162 1174.26 C 1139.82 1151.23 1117.37 1134.89 1122.15 1099.79 C 1130.53 1038.18 1189.98 1058.8 1229.9 1071.75 C 1232.47 1072.58 1236.42 1074.49 1238.46 1072.25 C 1235.44 1067.26 1229.55 1062.92 1225.37 1058.29 C 1205.74 1036.56 1178.61 1018.93 1185.91 985.856 C 1195.88 940.64 1231.79 938.565 1268.97 950.221 C 1282.18 954.364 1300.28 960.598 1312.84 967.568 z M 1411.61 1247.08 C 1397.79 1225.36 1383.95 1211.66 1367.17 1193.06 C 1337.35 1160.01 1330.34 1153.66 1289.04 1140.74 C 1265.87 1133.56 1242.53 1126.97 1219.03 1120.98 C 1205.24 1117.46 1188.08 1113.68 1174.81 1109.75 C 1183.29 1125.83 1251.9 1190.71 1268.81 1207.79 C 1272.08 1211.09 1279.29 1214.84 1284.07 1216.12 C 1304.66 1221.62 1326.25 1227.51 1346.96 1232.37 C 1366.9 1237.06 1391.77 1244.48 1411.61 1247.08 z M 1474.28 1131.26 C 1463.77 1109.04 1417.19 1062.92 1396.11 1045.72 C 1378.42 1031.28 1303.97 1014.99 1280.17 1006.32 C 1272.2 1003.42 1247.45 997.299 1239.92 996.645 C 1251.47 1010.85 1330.78 1093.88 1341.3 1100.47 C 1353.83 1108.31 1464.29 1133.32 1474.28 1131.26 z M 1302.8 882.065 C 1325.4 906.373 1387.31 970.189 1412.79 989.253 C 1423.28 997.099 1512.76 1018.02 1529.52 1019.49 C 1534.45 1014.32 1534.78 1012.07 1536.03 1004.96 C 1532.31 1001.49 1519.81 991.21 1515.54 990.08 C 1484.82 981.948 1328.52 872.155 1311.88 871.53 C 1307.29 875.814 1306.34 876.886 1302.8 882.065 z"/>
<path transform="translate(0,0)" fill="rgb(254,120,2)" d="M 691.17 769.134 C 674.1 751.223 646.983 734.815 636.934 710.566 C 620.995 672.101 662.83 631.627 701.919 648.279 C 716.541 665.499 726.009 681.06 747.927 690.28 C 754.569 693.074 769.294 697.824 774.757 700.842 C 756.914 712.215 713.686 701.795 693.172 697.199 C 690.55 696.609 687.954 695.906 685.392 695.093 C 696.529 705.497 707.632 715.093 718.971 726.026 C 739.58 745.896 764.599 772.471 787.281 789.044 C 791.661 792.244 832.906 798.662 841.513 800.279 L 935.437 817.995 C 938.705 814.808 940.967 813.183 942.557 808.899 C 942.179 804.517 940.255 804.012 936.02 800.475 C 924.68 791.006 912.004 782.591 899.985 773.971 L 840.446 730.592 C 832.007 724.348 823.721 718.264 815.494 711.731 C 813.06 709.799 804.906 702.454 803.092 701.437 C 813.613 698.533 876.211 698.774 886.807 701.871 C 917.177 723.465 965.444 751.102 986.372 780.046 C 994.031 792.111 996.667 807.331 992.638 820.913 C 974.422 882.324 926.177 869.925 879.348 857.141 C 896.397 870.263 917.072 882.592 926.333 902.06 C 938.289 926.286 923.143 962.341 899.007 972.994 C 876.41 982.967 834.695 975.021 812.317 966.459 C 825.078 981.357 844.807 994.146 854.274 1010.73 C 868.048 1035.81 856.731 1072.06 831.562 1085.39 C 807.428 1098.16 769.964 1088.64 745.148 1080.91 C 759.855 1094.67 785.133 1116.01 792.123 1134.45 C 813.657 1192.16 751.48 1242.44 697.717 1217.6 C 684.828 1211.65 676.428 1204.51 664.996 1196.21 C 650.062 1185.22 635.03 1174.36 619.901 1163.63 L 533.241 1103.32 C 515.271 1091.07 497.127 1078.72 479.137 1066.4 C 455.839 1050.45 451.785 1034.98 458.55 1007.9 C 471.301 956.866 535.229 976.231 570.996 986.41 C 548.994 965.494 506.705 938.544 514.307 902.699 C 516.973 890.129 524.681 875.941 535.839 869.376 C 562.825 853.499 602.787 867.024 630.961 873.865 C 609.593 855.362 566.165 822.725 578.879 789.064 C 597.007 741.071 654.534 755.985 691.17 769.134 z M 812.104 1038.97 C 806.671 1025.2 753.888 984.888 741.439 969.223 C 721.193 943.748 697.56 938.363 667.196 932.026 C 645.163 927.422 623.084 923.037 600.964 918.87 C 591.574 917.085 577.276 914.989 568.638 912.759 C 574.899 923.116 658.517 998.111 671.798 1009.92 C 675.609 1013.31 695.153 1019.51 700.564 1020.54 C 719.092 1024.04 797.198 1044.71 812.104 1038.97 z M 879.445 926.805 C 873.654 914.296 849.484 896.117 838.107 887.182 C 816.799 870.447 793.548 844.168 768.127 835.024 C 738.418 824.337 705.818 821.387 675.016 815.14 C 668.885 813.937 637.761 807.562 633.67 807.797 C 652.259 828.876 712.149 879.279 732.496 897.139 C 740.573 904.229 867.619 928.109 879.445 926.805 z M 737.933 1165.46 C 740.39 1161.68 742.499 1158.63 744.461 1154.54 C 740.572 1148.68 736.7 1142.8 731.99 1137.57 C 720.548 1124.84 654.034 1058.94 642.951 1054.24 C 631.01 1049.18 615.949 1047.16 603.234 1044.43 L 520.278 1027.36 C 517.412 1026.79 513.969 1026.01 511.09 1026.02 C 515.535 1029.89 521.287 1032.84 526.425 1035.79 C 593.561 1074.38 653.637 1123.92 717.109 1168.03 C 727.076 1174.96 729.324 1173.27 737.933 1165.46 z"/>
</svg>