<svg version="1.1" xmlns="http://www.w3.org/2000/svg" style="display: block;" viewBox="0 0 2048 2048" width="512" height="512" preserveAspectRatio="none">
<path transform="translate(0,0)" fill="rgb(236,111,23)" d="M 1155.5 898.465 C 1157.29 883.129 1172.75 859.423 1182.32 847.445 C 1223.61 795.76 1305.98 762.12 1371.85 771.647 C 1578.21 801.495 1632.43 1103.15 1474.84 1223.88 C 1367.04 1307.46 1194.27 1263.83 1151.82 1133.49 C 1143.8 1132.8 1115.57 1133.6 1106.1 1133.62 L 1003.78 1133.69 L 676.166 1133.66 L 595.4 1133.74 C 575.285 1133.75 555.376 1134.1 535.298 1132.11 C 502.169 1128.84 488.353 1114.56 485.875 1080.81 C 483.257 1045.17 484.531 1009.61 484.255 973.886 C 482.527 891.584 531.534 898.149 595.992 898.244 L 681.068 898.348 L 1007.49 898.319 L 1109.2 898.353 C 1122.65 898.367 1142.82 899.68 1155.5 898.465 z M 1202.48 1132.96 C 1189.77 1132.49 1163.71 1131.64 1151.82 1133.49 C 1194.27 1263.83 1367.04 1307.46 1474.84 1223.88 C 1632.43 1103.15 1578.21 801.495 1371.85 771.647 C 1305.98 762.12 1223.61 795.76 1182.32 847.445 C 1172.75 859.423 1157.29 883.129 1155.5 898.465 C 1171.45 900.543 1198.56 899.57 1214.68 898.585 C 1227.99 897.873 1242.89 895.965 1255.33 900.322 C 1262.24 905.1 1263.18 906.865 1268.77 913.068 C 1277.4 947.185 1284.44 1089.27 1266.62 1118 C 1262.02 1125.42 1254.93 1128.33 1246.65 1130.06 C 1231.98 1133.13 1217.16 1131.13 1202.48 1132.96 z M 535.203 1084.43 C 565.974 1083.57 599.148 1084.12 630.092 1084.12 L 797.364 1084.12 L 1224.77 1084.16 C 1226.36 1080.11 1224.44 964.13 1225.02 947.976 L 774.002 948.05 L 613.552 948.057 C 588.438 948.059 560.184 948.714 535.268 948.098 C 537.187 972.655 535.299 1003.89 535.866 1029.41 C 536.088 1039.42 536.447 1076.08 535.203 1084.43 z"/>
<path transform="translate(0,0)" fill="rgb(0,36,163)" d="M 1155.5 898.465 C 1157.29 883.129 1172.75 859.423 1182.32 847.445 C 1223.61 795.76 1305.98 762.12 1371.85 771.647 C 1578.21 801.495 1632.43 1103.15 1474.84 1223.88 C 1367.04 1307.46 1194.27 1263.83 1151.82 1133.49 C 1163.71 1131.64 1189.77 1132.49 1202.48 1132.96 C 1211.76 1141.86 1220.01 1151.69 1225.87 1163.17 C 1243.73 1149.59 1257.67 1139.09 1271.23 1120.9 C 1300.15 1081.69 1312.2 1032.54 1304.67 984.397 C 1301.33 962.712 1286.46 926.064 1268.77 913.068 C 1263.18 906.865 1262.24 905.1 1255.33 900.322 C 1246.67 891.621 1238.46 887.165 1229.16 879.109 C 1224.62 883.693 1217.36 892.712 1214.68 898.585 C 1198.56 899.57 1171.45 900.543 1155.5 898.465 z M 1274.38 1191.93 C 1291.87 1188.93 1304.68 1186.63 1321.21 1179.09 C 1365.6 1155.26 1386.56 1129.07 1403.1 1080.82 C 1431.34 998.427 1387.06 852.752 1283.07 852.877 C 1292.27 863.384 1303.09 870.381 1312.56 882.102 C 1381.71 967.716 1370.57 1105.91 1289.21 1179.88 C 1284.46 1184.12 1279.51 1188.14 1274.38 1191.93 z M 1421.6 1160.03 C 1419.59 1163.25 1413.58 1169.25 1410.87 1172.41 C 1394.98 1190.92 1380.88 1202.66 1360.39 1215.61 C 1363.1 1215.41 1365.81 1215.13 1368.5 1214.76 C 1406.56 1209.23 1447.17 1187.41 1470.44 1156.31 C 1469.58 1153.47 1468.88 1149.14 1466.94 1147.73 C 1463.46 1153.06 1464.68 1154.3 1460.36 1155.84 C 1458.41 1155.29 1456.47 1154.71 1454.54 1154.08 C 1449.96 1156.69 1439.97 1163.3 1435.71 1164.04 C 1431.01 1159.54 1435.38 1146.42 1436.39 1140.46 C 1432.21 1146.35 1426.53 1155.33 1421.6 1160.03 z M 1410.17 866.133 C 1412.35 864.137 1425.46 850.058 1427.18 847.807 C 1403.2 831.053 1380.9 823.884 1351.69 819.858 C 1369.22 830.306 1398.95 848.544 1410.17 866.133 z"/>
<path transform="translate(0,0)" fill="rgb(191,189,199)" d="M 1427.18 847.807 C 1439.79 849.749 1465.49 878.221 1473.2 888.901 C 1516.79 949.333 1527.83 1037.45 1501.21 1107.08 C 1496.2 1120.19 1481.5 1148.02 1470.44 1156.31 C 1469.58 1153.47 1468.88 1149.14 1466.94 1147.73 C 1463.46 1153.06 1464.68 1154.3 1460.36 1155.84 C 1458.41 1155.29 1456.47 1154.71 1454.54 1154.08 C 1449.96 1156.69 1439.97 1163.3 1435.71 1164.04 C 1431.01 1159.54 1435.38 1146.42 1436.39 1140.46 C 1432.21 1146.35 1426.53 1155.33 1421.6 1160.03 C 1425.71 1149.58 1432.58 1137.58 1437.55 1127.1 C 1448.39 1104.11 1456.05 1079.76 1460.33 1054.71 C 1472.48 981.288 1452.23 924.686 1410.17 866.133 C 1412.35 864.137 1425.46 850.058 1427.18 847.807 z"/>
<path transform="translate(0,0)" fill="rgb(0,36,163)" d="M 587.688 537.44 L 1094.45 537.363 L 1274.16 537.383 C 1304.78 537.391 1336.13 537.867 1366.72 537.571 C 1404.67 537.204 1404.18 586.808 1372.15 589.651 C 1353.4 591.315 1330.92 589.593 1311.72 589.497 L 1183.88 589.505 L 715.65 589.543 L 630.923 589.494 C 596.25 589.258 562.028 587.747 527.718 594.766 C 451.347 608.036 369.028 660.643 321.366 721.3 C 273.8 780.929 245.199 853.447 239.258 929.492 C 236.189 966.882 238.899 1006.1 238.077 1043.72 C 237.931 1050.43 238.046 1057.36 238.845 1064.03 C 227.791 1062.39 199.198 1062.94 187.997 1064.31 C 188.975 1019.65 186.281 965.979 189.276 922.369 C 195.788 834.252 229.925 750.434 286.83 682.841 C 365.55 590.724 468.726 546.915 587.688 537.44 z"/>
<path transform="translate(0,0)" fill="rgb(0,36,163)" d="M 1831.96 1024.5 C 1840.61 1024.4 1849.25 1024.45 1857.89 1024.66 C 1859.13 1059.87 1859.07 1103.52 1855.44 1138.21 C 1846.05 1228.25 1806.1 1312.34 1742.24 1376.5 C 1684.18 1435.36 1605.11 1476.4 1524.73 1493.5 C 1477.14 1503.63 1426.69 1501.83 1378.2 1501.78 L 1237.76 1501.76 L 685.75 1501.98 L 661.935 1501.94 C 662.237 1485.76 662.347 1466.74 661.774 1450.71 C 679.195 1449.47 707.52 1450.48 725.82 1450.52 L 844.861 1450.62 L 1255.9 1450.61 L 1382.29 1450.64 C 1412.13 1450.71 1442 1451.64 1471.69 1449.72 C 1568.26 1443.47 1661.57 1391.6 1724.9 1319.7 C 1787.53 1248.61 1806.66 1177.87 1806.08 1084.97 C 1805.95 1064.92 1806.74 1044.52 1805.56 1024.4 C 1813.3 1025.01 1823.99 1024.59 1831.96 1024.5 z"/>
<path transform="translate(0,0)" fill="rgb(236,111,23)" d="M 703.785 1354.16 C 715.491 1353.03 720.506 1358.57 728.456 1366.04 C 733.784 1381.43 735.92 1392.84 720.697 1402.57 C 698.538 1416.73 675.57 1430.86 652.641 1443.72 C 636.15 1452.96 615.183 1468.03 598.209 1474.84 C 625.407 1492.65 722.137 1537.48 733.194 1562.91 C 735.552 1568.34 735.682 1574.76 733.37 1580.22 C 730.735 1586.45 725.445 1591.24 719.131 1593.57 C 707.846 1597.73 696.235 1592.75 686.109 1587.83 C 674.614 1583.76 648.843 1566.62 636.754 1559.66 L 567.16 1519.53 C 552.57 1511.15 524.288 1498.32 515.853 1482.67 C 511.393 1474.4 521.272 1461.35 528.104 1456.17 C 555.841 1435.15 588.035 1419.69 617.91 1401.87 C 644.799 1386.3 674.753 1364.87 703.785 1354.16 z"/>
<path transform="translate(0,0)" fill="rgb(236,111,23)" d="M 1338.55 439.978 C 1340.63 439.717 1344.73 439.451 1346.75 440.11 C 1384.03 453.079 1415.9 475.95 1450.63 495.419 C 1475.64 509.435 1512.65 527.104 1532.02 548.674 C 1541.75 559.514 1528.54 572.258 1519.2 578.859 C 1494.59 596.237 1466.56 610.425 1440.28 625.308 C 1418.36 637.323 1396.48 650.694 1374.27 662.011 C 1364.17 667.364 1350.79 674.839 1339.28 671.731 C 1333.27 670.141 1328.18 666.178 1325.16 660.753 C 1319.5 650.591 1320.41 635.052 1329.95 627.783 C 1346.74 614.976 1367.32 605.476 1385.54 594.785 C 1407.86 581.685 1430.01 568.558 1453.04 556.901 C 1440.59 551.25 1421.74 540.344 1409.03 533.448 C 1384.63 520.418 1361.09 506.799 1337.68 492.125 C 1313.46 476.941 1310.76 452.508 1338.55 439.978 z"/>
</svg>