<svg version="1.1" xmlns="http://www.w3.org/2000/svg" style="display: block;" viewBox="0 0 2048 2048" width="512" height="512" preserveAspectRatio="none">
<path transform="translate(0,0)" fill="rgb(6,46,193)" d="M 627.475 359.2 C 801.295 255.876 1008.61 224.564 1205.19 271.944 C 1406.67 322.811 1579.84 451.32 1686.9 629.417 C 1790.75 804.348 1821.05 1013.3 1771.17 1210.53 C 1720.72 1408.75 1593.74 1578.88 1418.08 1683.65 C 1244.05 1788.59 1035.35 1819.76 838.249 1770.27 C 639.757 1719.98 469.463 1592.72 364.998 1416.61 C 258.977 1239.29 227.489 1027.2 277.424 826.734 C 305.019 719.163 356.679 619.261 428.509 534.564 C 446.429 513.407 461.136 499.013 480.048 479.512 C 468.115 462.988 461.688 443.127 461.677 422.744 C 461.823 397.284 472.141 372.939 490.334 355.127 C 529.669 317.241 590.142 319.825 627.475 359.2 z M 512.004 507.199 C 509.493 508.926 485.31 536.929 482.267 540.483 C 433.586 597.329 392.93 656.814 361.543 725.101 C 283.713 894.432 277.788 1096.93 342.178 1271.47 C 411.366 1456.74 551.835 1606.59 732.239 1687.61 C 901.11 1764.55 1093.53 1771.73 1267.66 1707.57 C 1450.98 1641.29 1600.49 1504.96 1683.37 1328.52 C 1764.2 1153.13 1772.47 952.899 1706.38 771.435 C 1638.15 588.178 1500.03 439.461 1322.3 357.899 C 1150.06 279.942 954.139 272.535 776.502 337.265 C 741.515 349.966 708.009 365.047 675.833 383.738 C 667.583 388.53 657.345 393.978 648.424 397.09 C 655.407 421.89 652.166 448.454 639.424 470.848 C 626.777 492.704 605.93 508.607 581.509 515.029 C 557.082 521.486 534.612 518.361 512.004 507.199 z M 557.495 472.559 C 584.633 472.089 606.245 449.697 605.755 422.56 C 605.265 395.423 582.858 373.827 555.721 374.336 C 528.612 374.845 507.043 397.224 507.533 424.334 C 508.022 451.443 530.385 473.029 557.495 472.559 z"/>
<path transform="translate(0,0)" fill="rgb(6,46,193)" d="M 1002.44 410.217 C 1340.09 398.186 1623.6 662.081 1635.77 999.73 C 1647.94 1337.38 1384.16 1621 1046.51 1633.3 C 708.674 1645.62 424.857 1381.65 412.681 1043.81 C 400.506 705.964 664.587 422.254 1002.44 410.217 z M 1028.53 1590.39 C 1342.42 1588.06 1595 1331.75 1592.74 1017.86 C 1590.49 703.972 1334.24 451.325 1020.35 453.507 C 706.354 455.69 453.602 712.045 455.861 1026.04 C 458.121 1340.04 714.537 1592.73 1028.53 1590.39 z"/>
<path transform="translate(0,0)" fill="rgb(6,46,193)" d="M 998.833 661.331 C 1197.68 647.584 1370.08 797.508 1384.06 996.339 C 1398.05 1195.17 1248.33 1367.75 1049.51 1381.97 C 850.365 1396.21 677.434 1246.18 663.427 1047.02 C 649.42 847.854 799.651 675.101 998.833 661.331 z M 1041.49 1338.81 C 1216.65 1329.11 1350.78 1179.22 1341.03 1004.06 C 1331.29 828.896 1181.37 694.811 1006.21 704.599 C 831.112 714.383 697.085 864.237 706.826 1039.34 C 716.566 1214.44 866.387 1348.5 1041.49 1338.81 z"/>
<path transform="translate(0,0)" fill="rgb(251,142,24)" d="M 1019.42 847.072 C 1020.61 846.921 1021.81 846.811 1023 846.744 C 1038.54 845.988 1047.38 856.309 1048.98 870.69 C 1050.66 885.745 1049.97 900.684 1049.11 915.742 C 1047.56 942.864 1048.69 969.865 1048.16 996.965 C 1067.91 995.872 1092.04 995.93 1111.87 996.317 C 1134.44 996.758 1174.94 991.363 1192.31 1005.51 C 1195.41 1012.26 1197.11 1018.81 1195.79 1026.33 C 1194.75 1032.31 1191.29 1037.6 1186.22 1040.94 C 1171.86 1050.59 1100.39 1043.24 1079.31 1045.52 C 1073.59 1046.13 1054.5 1045.59 1048.85 1044.66 C 1051.29 1070.61 1052.14 1103.83 1052.01 1130.01 C 1051.9 1152.84 1048.9 1169.44 1032.03 1185.28 C 1030.19 1186.14 1027.53 1186.95 1025.5 1187.07 C 1020.15 1187.36 1014.94 1185.36 1011.15 1181.57 C 996.858 1167.46 1000.17 1135.36 1000.27 1116.48 C 1000.32 1092.68 1000.51 1068.89 1000.86 1045.1 C 995.698 1045.68 980.573 1046.03 975.56 1045.71 C 953.215 1044.29 871.688 1051.99 858.555 1034.59 C 854.699 1029.59 853.024 1023.25 853.91 1016.99 C 855.876 1002.4 865.962 997.184 879.461 996.84 C 900.804 996.296 923.484 995.656 944.803 996.265 C 960.247 996.706 986.923 994.483 1001.24 997.134 C 999.49 977.18 997.429 872.386 1003.45 859.184 C 1006.61 852.248 1012.66 849.614 1019.42 847.072 z"/>
<path transform="translate(0,0)" fill="rgb(251,142,24)" d="M 480.048 479.512 C 468.115 462.988 461.688 443.127 461.677 422.744 C 461.823 397.284 472.141 372.939 490.334 355.127 C 529.669 317.241 590.142 319.825 627.475 359.2 C 637.802 375.158 641.252 378.519 648.424 397.09 C 655.407 421.89 652.166 448.454 639.424 470.848 C 626.777 492.704 605.93 508.607 581.509 515.029 C 557.082 521.486 534.612 518.361 512.004 507.199 C 511.101 506.327 501.943 499.901 500.005 498.356 C 491.921 491.915 487.039 487 480.048 479.512 z M 557.495 472.559 C 584.633 472.089 606.245 449.697 605.755 422.56 C 605.265 395.423 582.858 373.827 555.721 374.336 C 528.612 374.845 507.043 397.224 507.533 424.334 C 508.022 451.443 530.385 473.029 557.495 472.559 z"/>
</svg>