<svg version="1.1" xmlns="http://www.w3.org/2000/svg" style="display: block;" viewBox="0 0 2048 2048" width="512" height="512" preserveAspectRatio="none">
<path transform="translate(0,0)" fill="rgb(19,73,242)" d="M 853.544 468.471 C 1003.36 462.782 1103.16 516.918 1230.48 584.714 L 1412.86 681.928 L 1594.09 778.467 C 1622.36 793.576 1651.17 808.46 1679.07 824.188 C 1718.05 846.161 1756.57 875.688 1785.48 909.826 C 1844.96 980.065 1849.64 1074.81 1847.83 1162.48 C 1847.25 1190.29 1848.99 1219.46 1846.7 1247.35 C 1811.33 1505.17 1502.34 1625.62 1271.63 1606.33 C 1240.96 1603.77 1209.26 1598.33 1179.99 1588.49 C 1121.55 1568.83 1066.25 1538.19 1011.77 1509.65 L 835.306 1416.7 L 679.943 1335.31 C 644.482 1316.86 609.092 1297.96 574.254 1278.39 C 557.601 1269.04 541.916 1252.53 538.976 1232.94 C 534.697 1204.44 535.94 1172.47 537.371 1143.65 C 538.539 1120.13 551.422 1107.4 568.499 1093.64 C 582.068 1081.02 669.536 1011.25 682.946 1010.9 C 695.502 1010.57 746.628 1039.98 761.184 1047.63 L 1054.11 1201.48 C 1087.15 1219.06 1120.3 1236.43 1153.56 1253.61 C 1177.06 1265.63 1191.95 1275.75 1217.92 1283.47 C 1274.68 1300.31 1334.81 1302.29 1392.55 1289.22 C 1478.04 1269.32 1537.87 1220.35 1583.29 1147.19 C 1561.66 1086.84 1538.46 1078.51 1485.25 1050.33 L 1405.2 1008.07 C 1331.23 968.059 1257.02 928.496 1182.57 889.38 C 1061.48 826.422 925.593 753.983 784.784 776.918 C 750.851 782.63 718 793.538 687.39 809.257 C 673.626 816.424 660.25 824.31 647.315 832.883 C 642.685 836.016 626.184 848.628 622.235 850.075 C 603.662 856.879 572.236 876.365 553.143 867 C 514.606 848.098 473.261 829.789 439.082 803.808 C 426.896 794.545 424.613 771.055 424.412 756.775 C 425.462 724.946 417.481 683.007 442.494 658.644 C 451.703 649.675 460.439 643.029 469.998 635.039 C 485.198 622.175 500.49 609.419 515.872 596.772 C 595.619 531.687 646.811 495.313 751.913 478.702 C 786.044 473.308 818.673 469.036 853.544 468.471 z"/>
<path transform="translate(0,0)" fill="rgb(228,238,249)" d="M 1205.99 604.869 C 1217.65 612.213 1229.82 617.709 1241.97 624.148 C 1267.32 637.578 1292.31 651.633 1317.61 665.196 L 1509.61 767.823 L 1606.21 819.216 C 1624.8 829.11 1644.3 839.422 1662.27 850.41 C 1665.91 852.635 1673.51 861.342 1678.93 865.292 C 1696.83 878.329 1716.44 892.304 1732.77 907.191 C 1738.5 912.417 1747.33 923.706 1753.21 929.989 C 1757.89 934.988 1767.9 941.793 1769.57 943.814 C 1783.75 960.978 1798.53 991.132 1804.76 1012.05 C 1824.8 1079.34 1818.98 1137.78 1785.42 1199.98 C 1726.48 1309.23 1622.55 1378.74 1505.88 1414.38 C 1395.25 1448.18 1263.98 1454.32 1155 1411.49 C 1112.09 1394.62 1060.24 1364.28 1018.71 1342.37 L 808.459 1231.8 C 784.717 1219.44 740.872 1199.08 721.037 1186.24 C 752.878 1165.42 790.699 1136.33 821.901 1113.58 C 841.067 1125.38 869.02 1139.62 888.963 1150.21 C 915.553 1164.67 942.227 1178.97 968.985 1193.11 L 1095.75 1258.38 C 1115.06 1268.37 1131.79 1278.42 1151.82 1288.28 C 1188.39 1306.27 1224.47 1318.13 1264.76 1325.05 C 1276.66 1326.6 1289.09 1326.2 1301.02 1326.23 C 1423.6 1326.49 1550.84 1284.99 1607.65 1166.38 C 1631.13 1118.22 1634.24 1062.65 1616.28 1012.17 C 1588.42 934.922 1539.11 912.148 1472.4 877.314 C 1445.05 862.954 1417.78 848.429 1390.61 833.74 L 1211.01 737.906 C 1177.28 719.894 1137.77 697.543 1103.58 681.355 C 1137.43 655.476 1171.57 629.979 1205.99 604.869 z"/>
<path transform="translate(0,0)" fill="rgb(252,147,50)" d="M 1818.28 1204.54 C 1817.27 1225.99 1816.3 1243.53 1812.14 1264.83 C 1798.97 1332.37 1761.2 1392.98 1710.38 1439.04 C 1602.74 1536.61 1443.85 1581.16 1300.6 1575.44 C 1249.82 1573.42 1197.93 1563.9 1150.55 1545.68 C 1145.36 1543.68 1129.67 1537.23 1125.82 1533.42 C 1126.98 1526.4 1126.65 1505.72 1126.65 1497.97 C 1126.7 1476.18 1126.63 1454.39 1126.44 1432.6 C 1154.79 1442.64 1186.35 1455.07 1216.02 1460.82 C 1425.92 1501.49 1679.16 1425.42 1798.05 1239.23 C 1805.26 1227.94 1811.08 1215.59 1818.28 1204.54 z"/>
<path transform="translate(0,0)" fill="rgb(252,147,50)" d="M 484.795 662.38 C 489.215 658.883 493.988 654.303 498.17 650.449 C 553.874 599.112 613.769 554.202 686.221 529.407 C 807.063 488.052 943.015 491.266 1062.41 536.283 C 1101.02 550.839 1136.74 571.632 1173.77 589.619 C 1144.45 617.991 1109.55 639.39 1078.67 666.368 C 1068.66 659.168 1047.97 649.652 1036.13 644.612 C 966.738 615.327 891.335 603.097 816.241 608.946 C 744.587 614.581 658.45 642.482 605.631 696.09 C 599.972 701.833 598.48 707.898 599.244 715.78 C 596.914 717.68 585.593 727.463 584.144 728.32 C 567.911 701.565 513.205 679.27 484.795 662.38 z"/>
<path transform="translate(0,0)" fill="rgb(252,147,50)" d="M 615.458 728.322 L 616.618 727.541 C 634.11 715.537 646.366 698.167 664.701 686.603 C 739.925 639.16 845.108 628.461 931.03 643.819 C 957.158 648.489 1045.64 672.255 1058.94 692.412 C 1059.29 692.944 1059.62 693.488 1059.97 694.027 C 1060.83 726.986 1059.38 760.681 1060.26 793.223 C 948.157 743.054 828.479 722.698 710.998 767.49 C 679.32 779.683 649.19 795.568 621.232 814.817 C 611.751 822.734 602.188 830.552 592.544 838.27 C 594.51 809.253 593.18 781.946 593.212 753.179 C 592.379 746.921 588.629 739.046 586.118 733.067 C 585.423 731.985 584.641 729.626 584.144 728.32 C 585.593 727.463 596.914 717.68 599.244 715.78 C 601.229 720.58 601.813 721.079 605.477 724.6 C 609.3 726.236 611.489 727.197 615.458 728.322 z"/>
<path transform="translate(0,0)" fill="rgb(255,201,146)" d="M 593.212 753.179 C 595.735 758.831 596.093 756.219 598.735 760.014 C 604.129 767.764 611.421 779.386 614.178 788.363 C 615.165 790.659 615.632 791.789 616.8 794.009 C 618.565 799.989 619.346 811.575 621.232 814.817 C 611.751 822.734 602.188 830.552 592.544 838.27 C 594.51 809.253 593.18 781.946 593.212 753.179 z"/>
<path transform="translate(0,0)" fill="rgb(255,201,146)" d="M 599.244 715.78 C 601.229 720.58 601.813 721.079 605.477 724.6 C 594.984 737.235 592.83 729.604 586.118 733.067 C 585.423 731.985 584.641 729.626 584.144 728.32 C 585.593 727.463 596.914 717.68 599.244 715.78 z"/>
<path transform="translate(0,0)" fill="rgb(253,184,110)" d="M 614.178 788.363 C 621.664 779.951 612.461 761.105 617.657 752.975 L 618.95 753.547 C 619.979 763.943 619.65 784.152 616.8 794.009 C 615.632 791.789 615.165 790.659 614.178 788.363 z"/>
<path transform="translate(0,0)" fill="rgb(100,153,254)" d="M 1092.83 709.656 C 1112.75 718.774 1138.45 732.936 1158.08 743.467 L 1279.22 809.262 L 1413.3 880.254 C 1458.4 904.108 1520.03 933.402 1555.84 968.476 C 1593.21 1005.09 1597.42 1051.97 1596.92 1101.55 C 1593.22 1099.76 1573.72 1073.35 1566.75 1067.07 C 1553.73 1055.35 1547.85 1049.59 1531.84 1040.54 C 1501.2 1023.21 1470.01 1006.98 1438.93 990.509 L 1292.41 912.853 L 1166.11 845.707 C 1142.74 833.249 1116.47 818.483 1092.84 807.174 L 1092.83 709.656 z"/>
<path transform="translate(0,0)" fill="rgb(100,153,254)" d="M 710.835 1214.8 C 745.606 1229.98 793.39 1257.96 828.608 1276.5 L 1012.17 1372.84 C 1040.19 1387.6 1067.71 1402.93 1095.6 1417.87 C 1105.69 1423.27 1116.21 1427.56 1126.44 1432.6 C 1126.63 1454.39 1126.7 1476.18 1126.65 1497.97 C 1126.65 1505.72 1126.98 1526.4 1125.82 1533.42 C 1115.16 1528.95 1089.66 1514.36 1077.84 1508.31 C 1036.78 1487.66 995.986 1466.5 955.459 1444.84 L 818.142 1372.45 C 781.011 1353.04 747.115 1336.16 710.809 1314.94 L 710.835 1214.8 z"/>
<path transform="translate(0,0)" fill="rgb(252,147,50)" d="M 681.614 1041.63 C 711.883 1051.59 762.578 1082.7 791.866 1097.85 C 763.777 1121.67 728.19 1144.55 698.036 1167.19 C 695.373 1169.16 693.093 1168.93 690.15 1167.67 C 678.908 1162.82 667.998 1156.86 657.171 1151.12 C 634.532 1138.97 611.955 1126.7 589.441 1114.33 C 620.816 1091.09 654.111 1069.02 681.614 1041.63 z"/>
<path transform="translate(0,0)" fill="rgb(252,147,50)" d="M 567.427 1138.69 C 591.44 1146.07 660.835 1183.36 682.121 1197.81 C 680.154 1205.92 680.825 1283.72 681.311 1296.34 C 681.099 1297.73 680.718 1299.24 680.412 1300.63 L 678.705 1301.09 C 665.337 1294.62 650.168 1285.9 637.064 1278.55 C 616.367 1266.93 592.492 1257.19 574.385 1241.98 C 564.502 1233.68 568.205 1209.03 567.34 1197.29 C 566.979 1178.11 566.878 1157.99 567.427 1138.69 z"/>
<path transform="translate(0,0)" fill="rgb(252,147,50)" d="M 463.946 689.771 C 491.384 689.116 550.238 726.685 561.38 753.392 C 565.907 764.243 570.238 831.599 557.69 836.395 C 524.604 821.085 487.129 799.773 456.42 780.431 C 454.753 758.089 449.488 707.156 463.946 689.771 z"/>
<path transform="translate(0,0)" fill="rgb(86,90,195)" d="M 1074.13 670.217 C 1074.5 670.549 1074.43 671.164 1074.54 671.65 C 1071.19 677.517 1069.11 680.713 1065.12 686.164 C 1061.72 682.158 1071.31 673.29 1074.13 670.217 z"/>
<path transform="translate(0,0)" fill="rgb(19,73,242)" d="M 209.351 924.785 C 209.871 924.755 210.391 924.705 210.912 924.693 C 222.292 924.432 244.36 936.635 254.72 941.597 C 273.648 950.663 436.728 1037.53 441.604 1042.94 C 444.025 1045.62 444.749 1050.3 444.366 1053.77 C 443.689 1059.91 440.848 1064.42 436.067 1068.15 C 429.489 1067.99 414.428 1061.02 407.962 1057.87 C 356.431 1032.77 305.991 1005.42 255.377 978.534 C 239.76 969.324 220.738 962.117 206.76 950.489 C 196.231 941.73 202.15 932.041 209.351 924.785 z"/>
<path transform="translate(0,0)" fill="rgb(19,73,242)" d="M 251.315 1070.07 C 275.04 1075.6 443.875 1163.93 453.363 1179.4 C 455.428 1182.76 455.936 1186.31 454.873 1190.12 C 453.259 1195.91 450.071 1199.36 444.908 1202.19 C 423.501 1194.32 390.351 1177.77 369.504 1166.93 C 328.959 1145.83 282.632 1122 244.988 1096.46 C 244.255 1095 243.564 1093.52 242.916 1092.02 C 239.675 1084.35 243.159 1073.02 251.315 1070.07 z"/>
<path transform="translate(0,0)" fill="rgb(19,73,242)" d="M 330.213 855.927 C 353.331 862.781 509.719 940.814 518.399 955.419 C 520.418 958.768 520.905 962.822 519.739 966.555 C 517.843 972.545 514.268 975.721 509.042 978.686 C 478.173 972.668 430.337 938.34 400.643 924.686 C 376.28 913.483 343.811 901.795 324.609 883.296 C 313.743 872.829 319.072 863.586 330.213 855.927 z"/>
</svg>