<svg version="1.1" xmlns="http://www.w3.org/2000/svg" style="display: block;" viewBox="0 0 2048 2048" width="512" height="512" preserveAspectRatio="none">
<path transform="translate(0,0)" fill="rgb(0,29,181)" d="M 1375.44 308.488 L 1485.8 308.568 C 1504.45 308.571 1527.46 307.654 1545.76 310.431 C 1549.03 310.926 1553.3 315.29 1555.9 317.722 C 1561.65 334.839 1558.97 369.632 1558.92 388.726 L 1558.89 497.615 L 1558.91 848.046 L 1558.94 1344.4 L 1558.96 1509.04 C 1558.96 1535.51 1559.13 1562.1 1559.01 1588.55 C 1558.52 1599 1558.38 1605.09 1551.49 1613.5 C 1545.65 1620.64 1531.63 1622.75 1525.27 1615.98 C 1522.02 1612.51 1520.82 1594.39 1520.84 1588.95 C 1520.97 1538.22 1520.97 1487.46 1520.98 1436.71 L 1520.99 1123.5 L 1521.07 348.038 L 1377.94 348.209 C 1379.72 425.521 1378.1 509.788 1378.1 587.507 L 1378.07 1054.17 L 1378.05 1416.47 L 1378.06 1535.09 C 1378.07 1554.13 1378.31 1573.16 1378.18 1592.18 C 1378.11 1603.85 1373.18 1620.81 1359.47 1622.36 C 1355.07 1622.9 1350.65 1621.52 1347.33 1618.58 C 1341.55 1613.44 1339.42 1605.17 1338.99 1597.76 C 1337.72 1575.49 1338.08 1552.96 1338.08 1530.64 L 1338.09 1424.05 L 1338.14 1092.15 L 1338.19 581.73 L 1338.19 411.404 C 1338.19 384.929 1338.04 358.39 1338.08 331.908 C 1338.12 307.064 1356.93 308.558 1375.44 308.488 z"/>
<path transform="translate(0,0)" fill="rgb(0,29,181)" d="M 1082.34 680.462 C 1137.32 679.012 1194.55 680.944 1249.73 680.184 C 1259.18 680.053 1271.64 682.899 1272.81 694.198 C 1274.97 715.07 1274.13 736.617 1274.12 757.747 L 1274.1 889.549 L 1274.17 1420.93 L 1274.19 1535.77 C 1274.19 1546.43 1276.05 1605.41 1270.42 1611.92 C 1247.73 1638.13 1237.53 1608.89 1236.83 1586.59 C 1235.83 1554.59 1236.27 1522.66 1236.27 1490.68 L 1236.27 1307.18 L 1236.19 723.751 C 1236.01 719.716 1236.82 721.055 1234.91 718.424 C 1222.88 717.534 1210.52 718.275 1198.51 717.99 C 1165.19 717.199 1129.07 719.466 1096.15 717.86 C 1096.89 776.518 1096.16 836.969 1096.15 895.8 L 1096.15 1251.18 L 1096.11 1491.21 L 1096.11 1568.23 C 1096.11 1581.61 1098.88 1602.43 1092.16 1614.08 C 1088.91 1620.56 1076.54 1628.78 1070.03 1621.96 C 1053.04 1604.16 1056.8 1555.98 1056.8 1533.4 L 1056.81 1456.38 L 1056.83 1209.21 L 1056.86 842.142 C 1056.86 818.184 1057.05 793.94 1056.66 770.005 C 1056.7 753.006 1053.59 735.198 1054.43 718.232 C 1055.5 696.888 1059.05 682.635 1082.34 680.462 z"/>
<path transform="translate(0,0)" fill="rgb(244,96,0)" d="M 792.884 776.267 C 851.853 773.916 915.378 777.102 974.815 776.232 C 986.654 776.059 994.356 784.749 994.618 796.528 C 994.902 809.345 995.021 822.489 995.016 835.61 L 994.991 908.178 L 994.978 1137.14 L 995.034 1446.14 L 995.093 1539.84 C 995.175 1556.85 995.26 1573.17 995.334 1591.17 C 995.406 1608.79 983.428 1633.97 962.817 1618.76 C 955.965 1613.7 954.251 1599.73 954.009 1591.13 C 953.37 1568.39 953.738 1545.18 953.743 1522.28 L 953.76 1386.81 L 953.781 1025.97 C 953.781 963.992 955.261 894.748 953.413 833.25 C 953.193 825.871 952.966 821.977 954.028 814.665 C 931.137 816.916 895.754 814.795 871.726 815.438 C 859.057 815.777 823.423 816.439 812.178 815.221 L 812.214 1408.25 L 812.149 1528.73 C 812.154 1552.32 813.89 1586.56 810.457 1609.84 C 809.494 1616.38 800.015 1621.09 794.141 1623.7 C 786.516 1621.28 774.943 1616.6 773.578 1607.18 C 771.318 1591.57 772.923 1574.01 772.966 1558.01 L 772.957 1461.61 L 772.93 960.296 L 772.928 851.023 C 772.88 834.336 771.687 817.122 772.61 800.531 C 773.589 782.93 776.611 779.149 792.884 776.267 z"/>
<path transform="translate(0,0)" fill="rgb(0,29,181)" d="M 1687.97 1675.44 C 1704.66 1674.68 1723.94 1672.99 1737.07 1684.82 C 1756.34 1702.19 1741.63 1722.32 1718.89 1722.7 C 1704.29 1722.94 1690.22 1722.67 1675.94 1722.61 L 1597.78 1722.5 L 1329.35 1722.62 L 358.5 1722.86 C 344.696 1723.05 318.348 1725.17 307.38 1716.57 C 303.135 1713.29 300.448 1708.38 299.963 1703.03 C 299.287 1696.27 301.437 1689.53 305.905 1684.41 C 309.638 1680.11 314.837 1677.35 320.492 1676.66 C 326.289 1675.99 347.988 1676.53 355.059 1676.55 L 423.758 1676.58 L 663.496 1676.6 L 1334.09 1676.6 L 1551.74 1676.63 C 1596.38 1676.63 1643.69 1677.61 1687.97 1675.44 z"/>
<path transform="translate(0,0)" fill="rgb(0,29,181)" d="M 663.259 1067.46 C 679.238 1067.08 706.174 1064.17 708.532 1086.02 C 711.516 1113.69 710.421 1142.72 710.41 1170.65 L 710.296 1342.86 L 710.296 1513.85 C 710.292 1542.59 710.655 1572.2 709.763 1600.95 C 709.567 1607.29 705.665 1613.24 702.347 1618.47 C 691.577 1624.55 688.6 1624.32 677.699 1618.97 C 675.364 1615.92 670.927 1609.15 670.575 1605.34 C 668.542 1583.36 669.118 1560.72 669.135 1538.65 L 669.188 1431.05 C 669.196 1323.95 667.891 1214.04 669.281 1107.22 C 655.488 1108.26 634.193 1107.68 619.948 1107.7 L 531.374 1107.69 C 532.423 1122.17 531.352 1156.23 531.346 1171.87 L 531.307 1308.26 L 531.288 1522.14 C 531.291 1543.97 532.482 1565.52 532.585 1587.28 C 532.669 1605.09 530.059 1617.81 511.987 1623.67 C 493.127 1618.25 491.754 1610.67 490.9 1592.21 C 489.512 1562.23 489.718 1532.2 489.577 1502.18 L 490.554 1300.96 L 490.157 1169.14 C 490.196 1144.56 488.88 1097.75 495.06 1075.59 C 503.15 1067.81 508.039 1068.34 519.032 1068.24 C 567.051 1067.78 615.274 1069.28 663.259 1067.46 z"/>
</svg>