<svg version="1.1" xmlns="http://www.w3.org/2000/svg" style="display: block;" viewBox="0 0 2048 2048" width="512" height="512" preserveAspectRatio="none">
<path transform="translate(0,0)" fill="rgb(0,27,170)" d="M 290.504 338.369 C 309.225 337.394 330.239 338.034 349.08 338.152 C 378.655 338.337 409.011 336.615 437.893 343.498 C 471.116 351.416 473.632 381.323 474.908 409.85 C 476.082 445.695 475.625 481.784 475.623 517.678 L 475.594 693.707 L 475.585 1233.17 L 475.592 1526.79 L 475.62 1610.3 C 475.626 1621.89 476.271 1646.65 474.762 1657.09 C 568.773 1655.97 665.114 1657.01 759.243 1657.01 L 1289.03 1656.85 L 1626.54 1656.85 L 1734.28 1656.82 C 1751.34 1656.8 1768.37 1656.38 1785.48 1656.6 C 1794.62 1656.58 1813.4 1661.61 1814.24 1672.95 C 1815.09 1684.36 1800.37 1690.65 1791.53 1692.84 C 1781.03 1695.45 1771.68 1695.32 1761.15 1695.38 L 763.789 1695.34 L 448.673 1695.33 L 359.585 1695.41 C 328.115 1695.63 282.873 1700.91 255.961 1683.73 C 231.789 1668.3 236.379 1627.67 236.399 1602.25 L 236.494 1520.86 L 236.497 1225.1 L 236.484 653.486 L 236.492 474.177 C 236.432 449.963 234.519 425.799 235.38 401.575 C 236.71 364.186 253.468 343.483 290.504 338.369 z M 273.889 576.934 C 292.01 576.624 310.133 576.437 328.257 576.373 C 344.889 576.168 372.32 573.823 386.961 581.988 C 403.9 610.204 375.891 616.117 353.368 614.705 C 327.39 613.076 299.734 616.16 273.864 614.062 C 275.645 661.411 273.177 710.04 274.168 757.506 C 274.34 765.734 274.363 774.757 273.85 782.925 C 304.772 779.32 346.85 783.176 378.323 783.603 C 387.773 783.732 393.298 792.923 395.368 801.049 C 394.232 805.613 392.681 813.605 388.456 815.545 C 368.578 824.678 295.047 823.082 273.86 820.928 C 274.937 855.294 274.114 893.079 274.176 927.685 C 274.212 947.368 275.222 980.61 273.774 999.225 C 289.013 997.939 306.476 998.248 321.889 998.156 C 343.486 998.027 363.253 997.484 384.711 1000.37 C 389.249 1003.52 393.314 1006.81 394.311 1012.82 C 399.2 1042.27 361.734 1036.31 341.233 1036.22 C 318.861 1035.95 296.486 1035.87 274.112 1035.98 L 274.177 1150.57 C 274.177 1168.36 274.943 1193.58 273.852 1210.92 C 296.153 1208.35 322.918 1211.08 345.728 1209.98 C 360.914 1209.25 380.473 1208.52 393.239 1217.57 C 397.84 1231.35 398.216 1243.11 381.317 1246.91 C 354.61 1252.92 324.374 1247.73 297.018 1249.03 C 289.865 1249.37 280.839 1249.17 273.902 1248.91 C 275.021 1289.99 273.566 1332.43 274.108 1373.62 C 274.181 1379.17 273.557 1414.08 274.68 1417.51 C 278.617 1418.06 279.353 1417.98 283.373 1417.65 C 315.256 1417.71 352.718 1415.98 383.669 1419.32 C 395.811 1428.33 396.468 1435.79 391.018 1449.54 C 369.793 1461.41 315.987 1453.11 290.513 1455.38 C 286.825 1455.71 277.908 1455.47 274.067 1455.15 L 274.077 1580.48 C 274.039 1592.91 271.364 1644.89 277.484 1651.84 C 291.848 1659.81 318.601 1656.6 335.177 1657.13 C 368.775 1658.22 404.576 1655.26 438.04 1657.33 C 437.086 1643.5 437.643 1627.9 437.706 1613.86 L 437.741 1552.29 L 437.699 1344.72 L 437.547 690.644 L 437.431 491.263 L 437.498 432.765 C 437.527 415.87 439.836 393.282 430.495 379.122 C 404.778 373.151 329.936 374.319 300.997 375.407 C 278.923 376.825 274.62 384.808 272.693 406.53 C 271.01 425.503 273.904 444.796 274.022 463.799 C 273.134 500.833 275.72 540.104 273.889 576.934 z"/>
<path transform="translate(0,0)" fill="rgb(247,100,8)" d="M 656.848 968.425 C 675.003 967.779 696.156 968.372 714.661 968.385 L 825.504 968.395 L 1167.29 968.4 L 1495.23 968.396 L 1600.45 968.38 C 1619.36 968.362 1638.38 968.202 1657.29 968.446 C 1664.94 968.546 1667.17 969.977 1673.77 973.579 C 1685.77 991.243 1683.76 1016.86 1683.14 1037.49 C 1682.62 1055.22 1684.32 1075.93 1674.39 1091.02 C 1664.34 1094.55 1660.82 1094.85 1650.65 1094.91 L 946.865 1094.65 L 746.496 1094.67 C 715.893 1094.68 685.218 1094.94 654.608 1094.95 C 650.811 1094.96 634.115 1093.61 630.985 1091.55 C 627.485 1089.25 624.782 1077.38 624.548 1072.79 C 624.409 1062.25 623.102 1052.67 623.292 1041.99 C 623.632 1022.86 616.13 993.715 628.839 977.702 C 635.274 969.594 647.556 968.952 656.848 968.425 z M 664.141 1053.65 L 1309.56 1053.89 L 1533.51 1053.87 L 1603.84 1053.79 C 1614.24 1053.77 1629.83 1053.16 1639.73 1053.79 C 1640.83 1045.19 1639.86 1020.03 1640.12 1009.61 C 1617.34 1010.55 1591.16 1009.78 1568 1009.76 L 1433 1009.75 L 1018.91 1009.73 L 774.072 1009.73 L 701.28 1009.83 C 691.352 1009.86 673.088 1010.62 664.091 1009.54 C 664.198 1022.93 664.834 1040.59 664.141 1053.65 z"/>
<path transform="translate(0,0)" fill="rgb(247,100,8)" d="M 639.155 590.168 C 662.343 588.603 699.034 589.95 723.662 589.977 L 880.407 589.833 L 1352.32 589.791 C 1380.74 606.292 1370.17 681.962 1364.35 709.615 C 1363.59 713.252 1357.08 715.009 1354.09 715.956 C 1335.44 717.122 1314.1 716.364 1295.1 716.334 L 1191.15 716.283 L 865.026 716.293 L 699.751 716.302 C 689.409 716.303 637.741 716.92 630.902 715.136 C 623.424 702.3 618.221 627.14 624.312 610.451 C 628.571 598.782 628.738 596.453 639.155 590.168 z M 664.168 675.042 L 1134.52 675.024 L 1270.49 675.015 C 1280.37 675.002 1319.16 673.95 1325.73 674.865 C 1326.73 665.922 1324.24 643.696 1324.83 631.57 C 1296.91 633.073 1259.99 631.987 1231.04 631.992 L 1056.28 632.004 L 794.383 632 C 751.837 631.998 706.464 632.882 664.276 632.003 L 664.168 675.042 z"/>
<path transform="translate(0,0)" fill="rgb(0,27,170)" d="M 936.319 1338.98 C 948.819 1337.95 953.403 1341.46 961.146 1351.08 C 962.559 1358.99 962.827 1374.94 963.192 1383.33 C 964.11 1404.48 964.844 1426.39 964.22 1447.53 C 963.713 1464.72 962.297 1486.74 949.259 1499.27 C 946.721 1499.81 944.101 1500.21 941.492 1500.11 C 936.847 1499.94 932.38 1498.12 929.348 1494.55 C 919.674 1483.15 920.94 1398.86 922.104 1381.38 C 923.029 1367.48 925.279 1348.64 936.319 1338.98 z"/>
<path transform="translate(0,0)" fill="rgb(0,27,170)" d="M 1088.89 1339.16 C 1092.14 1339.01 1095.08 1339.25 1098.09 1340.6 C 1101.56 1342.14 1104.29 1344.75 1105.55 1348.41 C 1110.56 1363.02 1112.09 1477.51 1105.51 1490.4 C 1102.51 1496.27 1097.58 1498.06 1091.62 1499.95 C 1085.22 1499.68 1083.39 1498.95 1077.47 1497.09 C 1075.08 1493.76 1073.2 1490.42 1071.93 1486.51 C 1068.68 1476.52 1068.44 1356.3 1072.81 1348.38 C 1076.07 1342.49 1082.83 1340.61 1088.89 1339.16 z"/>
<path transform="translate(0,0)" fill="rgb(0,27,170)" d="M 791.754 1339 C 811.099 1337.51 814.224 1350.23 814.125 1366.36 C 813.891 1404.83 815.631 1443.8 812.866 1482.2 C 812.055 1493.47 807.395 1497.2 797.025 1499.85 C 796.389 1499.77 795.754 1499.68 795.121 1499.57 C 790.125 1498.72 783.365 1496.96 780.503 1492.32 C 772.524 1479.4 772.279 1383.18 776.387 1364.7 C 778.734 1354.14 782.435 1345.16 791.754 1339 z"/>
<path transform="translate(0,0)" fill="rgb(0,27,170)" d="M 1229.14 1339.2 C 1247.55 1338.16 1254.36 1348.52 1254.06 1365.41 C 1253.34 1405.65 1255.81 1446.72 1253.01 1486.73 C 1252.59 1492.79 1242.46 1497.66 1237.84 1499.63 C 1236.25 1499.83 1234.6 1500.05 1232.99 1499.99 C 1229.11 1499.84 1224.67 1498.07 1222.06 1495.14 C 1212.59 1484.5 1213.44 1398.06 1214.97 1379.9 C 1216.07 1366.87 1218.57 1348.07 1229.14 1339.2 z"/>
<path transform="translate(0,0)" fill="rgb(0,27,170)" d="M 1377.93 1339.12 C 1384.48 1339.2 1395.34 1343.42 1396.06 1350.31 C 1400.53 1393.22 1397.14 1438.4 1397.99 1481.68 C 1398.21 1492.69 1387.74 1497.28 1379.35 1500 C 1374.33 1499.35 1368.02 1497.2 1365.03 1492.84 C 1356.55 1480.46 1359.69 1365.97 1362.36 1347.71 C 1368.51 1342.74 1370.39 1341.63 1377.93 1339.12 z"/>
<path transform="translate(0,0)" fill="rgb(80,87,207)" d="M 643.775 1339.14 C 644.685 1339.07 645.597 1339 646.509 1338.95 C 653.701 1338.51 658.585 1338.32 664.046 1343.16 C 665.747 1347.55 667.221 1355 667.258 1359.86 C 667.581 1402.2 668.971 1445.1 666.822 1487.33 C 666.564 1492.38 659.481 1496.9 655.725 1499.23 C 646.942 1501 643.079 1498.45 636.541 1492.77 C 630.535 1470.2 632.465 1376.53 634.855 1348.45 C 635.199 1344.4 640.327 1341.11 643.775 1339.14 z"/>
</svg>