<svg version="1.1" xmlns="http://www.w3.org/2000/svg" style="display: block;" viewBox="0 0 2048 2048" width="512" height="512" preserveAspectRatio="none">
<path transform="translate(0,0)" fill="rgb(0,33,145)" d="M 623.62 413.565 C 625.469 388.02 642.9 353.504 663.365 338.245 C 718.182 297.371 807.772 304.31 872.762 304.3 L 1049.02 304.301 L 1167.99 304.175 C 1190.48 304.122 1215.7 303.268 1237.99 305.269 C 1258.89 307.146 1254.57 341.348 1252.93 356.091 C 1289.73 355.826 1337.48 354.217 1373.19 356.7 C 1468.34 363.317 1556.2 406.802 1623.89 473.636 C 1702.22 551.851 1746.22 658.008 1746.19 768.7 C 1746.32 878.998 1702.92 984.893 1625.41 1063.37 C 1561.4 1127.69 1477.67 1168.68 1387.61 1179.77 C 1351.86 1184.03 1313.66 1183.48 1277.52 1183.55 L 945.25 1183.34 L 841.637 1183.21 C 808.986 1183.21 771.194 1181.72 739.662 1188.56 C 698.97 1197.22 661.608 1217.35 631.991 1246.57 C 589.312 1288.68 565.543 1346.31 566.123 1406.27 C 566.653 1454.34 582.007 1494.74 613.132 1531.3 C 626.741 1547.29 651.282 1564.96 628.895 1585.17 C 600.425 1610.86 574.091 1639.88 546.022 1665.8 C 532.471 1678.32 516.425 1668.12 507.005 1656.73 C 439.002 1584.66 405.41 1493.74 408.294 1394.99 C 412.178 1293.69 455.387 1197.88 528.749 1127.91 C 579.367 1079.83 642.309 1046.69 710.602 1032.18 C 750.701 1023.57 783.011 1024.7 823.727 1024.72 L 917.912 1024.73 L 1227.46 1024.76 C 1283.19 1024.91 1354.96 1029.08 1407.51 1013.29 C 1514.35 981.187 1582.81 884.417 1586.01 774.109 C 1588.12 707.025 1563.19 641.907 1516.81 593.39 C 1436.17 508.795 1360.52 510.286 1253.03 512.262 C 1252.38 524.28 1251.52 552.936 1241.4 556.56 C 1222.32 563.39 1169.97 557.565 1150.01 557.384 L 947.232 557.327 L 821.868 557.31 C 743.859 557.278 650.74 562.632 627.223 470.433 C 626.423 467.295 624.188 459.038 622.976 456.176 C 638.534 455.385 650.176 454.54 665.695 455.96 L 666.163 455.269 C 678.934 454.612 687.396 454.565 700.176 454.992 C 702.707 438.028 707.64 416.095 720.615 404.232 C 741.633 385.016 790.246 388.948 817.226 388.92 L 909.343 389.097 L 1209.73 389.322 C 1209.03 375.47 1208.87 361.594 1209.26 347.729 L 893.122 347.972 L 807.336 347.921 C 770.931 347.911 720.44 344.08 692.565 372.156 C 683.567 381.219 676.918 392.434 671.337 403.809 C 670.526 405.458 666.989 413.215 666.385 414.171 C 654.325 413.26 636.266 413.701 623.62 413.565 z M 1252.12 424.323 C 1252.26 437.597 1252.86 455.587 1252.14 468.71 C 1290.39 469.265 1327.27 467.249 1365.37 470.999 C 1460.15 480.326 1542.62 532.982 1588.17 616.61 C 1647.01 724.618 1641.44 863.821 1564.16 961.2 C 1520.04 1016.79 1453.94 1051.35 1384.86 1063.1 C 1349.73 1069.07 1313.32 1068.16 1278.08 1068.03 L 1179.12 1067.68 L 920.704 1067.5 L 825.811 1067.65 C 787.5 1067.92 751.28 1067.74 713.571 1076.13 C 663.535 1087.75 616.746 1110.45 576.65 1142.56 C 508.834 1197.84 465.347 1277.47 455.494 1364.41 C 444.538 1462.77 470.454 1542.29 531.871 1618.79 C 541.648 1608.73 578.27 1575.58 583.932 1566.91 C 573.868 1553.8 565.951 1544.51 557.047 1530.21 C 532.135 1489.58 519.637 1442.56 521.089 1394.92 C 523.304 1341.78 541.822 1290.61 574.13 1248.36 C 611.415 1198.98 664.098 1163.43 723.85 1147.35 C 763.626 1136.98 838.215 1140.12 881.713 1140.14 L 1158.91 1140.14 L 1264.56 1140.15 C 1322.56 1140.15 1388.81 1140.55 1444.55 1123.69 C 1589.45 1079.89 1697.84 936.507 1702.22 786.338 C 1706.19 683.051 1668.03 582.583 1596.49 507.976 C 1536.85 446.088 1456.88 407.806 1371.27 400.164 C 1330.73 396.707 1293.06 399.075 1252.84 397.939 C 1252.79 406.783 1252.87 415.502 1252.12 424.323 z"/>
<path transform="translate(0,0)" fill="rgb(102,147,251)" d="M 700.176 454.992 C 702.707 438.028 707.64 416.095 720.615 404.232 C 741.633 385.016 790.246 388.948 817.226 388.92 L 909.343 389.097 L 1209.73 389.322 C 1211.77 398.756 1211.15 423.168 1211.14 433.941 C 1210.96 461.62 1211.02 489.3 1211.31 516.978 C 1173.7 515.831 1132.74 516.609 1094.8 516.607 L 884.305 516.624 L 805.66 516.658 C 771.44 516.649 726.078 519.514 696.479 500.518 C 681.589 490.963 669.238 473.378 665.695 455.96 L 666.163 455.269 C 678.934 454.612 687.396 454.565 700.176 454.992 z"/>
<path transform="translate(0,0)" fill="rgb(0,41,238)" d="M 623.62 413.565 C 625.469 388.02 642.9 353.504 663.365 338.245 C 718.182 297.371 807.772 304.31 872.762 304.3 L 1049.02 304.301 L 1167.99 304.175 C 1190.48 304.122 1215.7 303.268 1237.99 305.269 C 1258.89 307.146 1254.57 341.348 1252.93 356.091 C 1253.01 371.638 1250.48 412.003 1252.12 424.323 C 1252.26 437.597 1252.86 455.587 1252.14 468.71 L 1252.14 512.773 C 1241.66 514.133 1220.73 517.346 1211.31 516.978 C 1211.02 489.3 1210.96 461.62 1211.14 433.941 C 1211.15 423.168 1211.77 398.756 1209.73 389.322 C 1209.03 375.47 1208.87 361.594 1209.26 347.729 L 893.122 347.972 L 807.336 347.921 C 770.931 347.911 720.44 344.08 692.565 372.156 C 683.567 381.219 676.918 392.434 671.337 403.809 C 670.526 405.458 666.989 413.215 666.385 414.171 C 654.325 413.26 636.266 413.701 623.62 413.565 z"/>
<path transform="translate(0,0)" fill="rgb(240,100,11)" d="M 1600.32 1405.76 C 1616.05 1404.69 1688.44 1466.15 1704.39 1478.31 C 1722.33 1491.98 1775.8 1528.09 1783.22 1545.07 C 1783.32 1548.71 1781.42 1551.51 1779.38 1554.38 C 1775.69 1559.59 1771.16 1564.03 1766.34 1568.19 C 1746.27 1585.54 1723.84 1600.85 1702.65 1616.87 C 1676.82 1636.41 1651.2 1657.74 1623.54 1674.56 C 1617.03 1678.52 1608.52 1683.28 1600.86 1684.05 C 1598.1 1684.33 1596.05 1683.47 1594 1681.61 C 1580.84 1669.65 1584.73 1587.49 1585.11 1567.95 C 1481.42 1566.97 1375.41 1568.26 1271.5 1568.24 L 1099.22 1568.29 C 1068.42 1568.29 1038.63 1569.2 1007.96 1566.73 C 966.414 1563.39 971.698 1525.65 1005.13 1524.81 C 1040.09 1523.93 1078.1 1524.72 1112.84 1524.75 L 1325.5 1524.78 L 1499.7 1524.76 C 1523.48 1524.75 1563.87 1523.31 1586.04 1524.97 C 1582.1 1493.68 1573.75 1427.64 1600.32 1405.76 z M 1628.37 1619.83 C 1645.12 1603.43 1657.6 1593.37 1676.57 1579.83 C 1685.64 1571.73 1709.3 1554.18 1719.69 1546.74 C 1699.49 1532.22 1682.28 1518.35 1663.08 1502.63 C 1655.63 1496.54 1637.07 1481.13 1629.74 1477.39 C 1630.5 1506.62 1630.9 1535.86 1630.94 1565.11 C 1630.93 1579.26 1631.02 1606.17 1628.37 1619.83 z"/>
<path transform="translate(0,0)" fill="rgb(240,100,11)" d="M 659.165 1355.28 C 692.38 1351.71 690.659 1381.35 687.742 1405.01 C 750.471 1403.93 816.052 1404.93 879.003 1404.96 C 894.474 1405.02 909.945 1404.94 925.414 1404.73 C 937.948 1404.55 951.866 1403.96 964.232 1405.63 C 970.605 1406.5 975.765 1411.32 980.469 1415.39 C 982.246 1421.44 982.736 1424.5 983.68 1430.69 C 977.563 1445.84 968.128 1448.89 952.856 1449.48 C 936.041 1450.12 919.142 1449.46 902.299 1449.43 L 799.449 1449.37 L 728.48 1449.43 C 717.292 1449.51 697.806 1450.39 687.596 1449.01 C 688.743 1472.23 688.046 1499.65 688.052 1523.21 L 688.023 1649.04 C 699.011 1648.72 711.396 1649.45 722.59 1649.47 L 792.5 1648.95 L 900.423 1648.85 C 920.519 1648.79 942.002 1648.21 961.988 1649.59 C 966.142 1649.87 970.646 1652.11 974.443 1653.91 C 989.272 1677.85 976.485 1692.66 950.672 1693.49 C 934.723 1694 918.848 1693.47 902.908 1693.44 L 804.919 1693.37 L 731.942 1693.4 C 719.488 1693.46 699.295 1694.39 687.732 1693.03 C 688.172 1704.4 691.406 1722.22 682.649 1729.86 C 671.597 1739.51 659.873 1741.78 649.444 1729.81 C 644.206 1723.81 645.274 1716.71 644.356 1709.28 C 643.689 1688.9 643.936 1668.37 643.92 1647.95 L 643.715 1527.27 C 643.097 1493.11 642.664 1458.95 642.415 1424.79 C 642.309 1409.93 641.609 1382.82 643.455 1369.05 C 649.103 1361.5 650.852 1359.62 659.165 1355.28 z"/>
<path transform="translate(0,0)" fill="rgb(240,100,11)" d="M 623.62 413.565 C 636.266 413.701 654.325 413.26 666.385 414.171 C 663.308 426.99 665.433 441.853 666.163 455.269 L 665.695 455.96 C 650.176 454.54 638.534 455.385 622.976 456.176 C 604.882 457.235 579.884 456.546 561.263 456.539 L 451.26 456.5 L 357.146 456.521 C 336.499 456.695 295.887 460.585 276.218 451.93 C 267.812 446.983 264.912 428.778 271.089 422.235 C 282.717 409.919 316.08 413.417 331.345 413.676 C 346.267 413.825 361.19 413.878 376.113 413.835 L 554.365 413.775 C 568.992 413.751 583.619 413.804 598.245 413.935 C 605.874 414.001 616.216 414.648 623.62 413.565 z"/>
<path transform="translate(0,0)" fill="rgb(240,100,11)" d="M 879.575 1524.47 C 892.983 1524.2 911.57 1523.67 924.641 1525.15 C 928.484 1527.76 932.758 1531.8 936.309 1534.94 C 937.514 1538.41 939.652 1544.89 939.79 1548.45 C 939.993 1558.39 926.513 1565.33 918.016 1566.58 C 899.911 1569.23 880.239 1568.32 861.888 1568.3 L 773.969 1568.32 C 760.51 1568.52 726.44 1571.28 718.93 1561.79 C 684.03 1517.71 770.639 1524.63 787.733 1524.66 C 818.347 1524.92 848.962 1524.86 879.575 1524.47 z"/>
<path transform="translate(0,0)" fill="rgb(240,100,11)" d="M 341.334 323.453 C 378.814 322.092 436.454 321.871 473.684 327.608 C 476.037 327.971 482.693 333.404 484.981 335.213 C 486.34 338.812 487.937 343.546 488.05 347.397 C 488.212 352.488 486.21 357.41 482.539 360.942 C 470.682 372.191 431.618 368.727 414.5 368.561 L 336.542 368.685 C 321.093 368.709 305.514 369.054 290.114 367.858 C 278.743 366.974 267.581 362.98 266.1 350.076 C 265.4 344.288 267.222 338.478 271.103 334.126 C 283.346 320.35 321.763 324.153 341.334 323.453 z"/>
</svg>