<svg version="1.1" xmlns="http://www.w3.org/2000/svg" style="display: block;" viewBox="0 0 2048 2048" width="512" height="512" preserveAspectRatio="none">
<path transform="translate(0,0)" fill="rgb(2,55,166)" d="M 1003.81 481.379 C 1280.3 469.653 1513.95 684.284 1525.68 960.775 C 1537.42 1237.27 1322.79 1470.92 1046.3 1482.66 C 769.799 1494.4 536.136 1279.76 524.403 1003.26 C 512.67 726.764 727.31 493.106 1003.81 481.379 z M 824.831 734.95 C 844.475 675.348 882.382 571.111 927.549 525.997 C 919.606 525.958 894.831 533.668 886.524 536.319 C 813.889 559.49 750.175 595.95 695.786 649.699 C 658.269 687.44 627.798 731.581 605.808 780.04 C 602.126 788.111 597.019 798.928 594.356 807.101 C 582.514 821.373 563.688 890.53 563.991 908.674 C 562.384 932.542 559.587 959.525 559.661 983.177 C 559.796 1026.41 567.573 1079.76 579.176 1121.75 C 594.907 1132.73 606.241 1141.86 623.797 1151.28 C 681.071 1182.03 760.327 1201 824.481 1208.63 C 834.748 1210.36 850.266 1212.87 860.744 1212.71 C 900.297 1213.73 941.355 1219.39 981.684 1220.29 C 1116.06 1223.28 1250.55 1214.88 1378.75 1171.27 C 1435.28 1152.05 1458.54 1124.02 1483.64 1071.98 C 1499.15 1034.9 1492.09 975.054 1487.95 935.748 C 1486.75 924.327 1484.95 905.947 1486.23 895.004 C 1485.18 889.511 1481.8 879.467 1480.28 872.993 C 1474.03 846.256 1472.03 825.544 1456.75 802.1 C 1454.67 795.176 1451.61 788.385 1448.66 781.855 C 1374.62 617.801 1187.84 509.332 1009.58 514.406 C 1005.13 514.533 978.202 514.427 976.775 515.139 C 970.636 528.612 960.729 538.964 951.969 550.698 C 911.69 604.647 885.468 665.547 865.857 729.556 L 860.548 739.35 C 846.852 741.68 834.338 747.316 824.831 734.95 z M 640.796 1248.12 C 642.335 1246.69 645.031 1243.62 647.298 1243.97 C 651.043 1244.57 707.358 1292.83 717.705 1299.76 C 766.865 1332.71 824.669 1352.94 882.842 1363.1 C 881.189 1357.61 867.962 1332.71 864.511 1324.39 C 853.683 1298.26 844.008 1272.52 835.891 1245.39 C 766.663 1235.95 693.296 1221.81 629.37 1192.9 C 621.891 1189.51 609.935 1184.27 603.143 1180.07 C 606.143 1197.54 631.626 1232.46 640.796 1248.12 z M 874.944 1249.91 C 885.951 1287.15 908.001 1339.61 929.942 1372 L 930.893 1371.84 C 955.435 1368.12 982.862 1370.65 1008.66 1367.2 C 1097.87 1355.86 1182.34 1320.58 1253.12 1265.1 C 1265.54 1255.3 1277.91 1243.46 1289.66 1232.68 C 1281.95 1232.82 1269.07 1235.81 1261.18 1237.31 C 1165.29 1255.54 1066.8 1255.48 969.584 1252.31 C 938.04 1251.28 906.481 1251.59 874.944 1249.91 z"/>
<path transform="translate(0,0)" fill="rgb(252,112,6)" d="M 865.857 729.556 C 890.713 722.905 967.382 721.944 996.474 721.889 C 1142.41 721.614 1319.6 724.291 1449.41 797.375 C 1452.22 798.957 1454.21 800.117 1456.75 802.1 C 1472.03 825.544 1474.03 846.256 1480.28 872.993 C 1481.8 879.467 1485.18 889.511 1486.23 895.004 C 1477.12 906.188 1465.27 919.737 1452.9 927.294 C 1384.25 969.257 1285.68 989.266 1207.29 997.311 C 1133.8 1004.92 1059.87 1007.24 986.055 1004.27 C 959.799 1003.48 933.561 1002.18 907.355 1000.37 C 893.442 999.407 838.205 993.022 830.421 994.679 C 831.872 1049.48 835.05 1092.8 845.398 1147.35 C 847.792 1159.87 850.639 1172.3 853.934 1184.62 C 856.123 1192.89 859.699 1204.49 860.744 1212.71 C 850.266 1212.87 834.748 1210.36 824.481 1208.63 C 823.858 1201.35 820.865 1188.98 819.291 1181.46 C 815.893 1165.78 812.79 1150.04 809.981 1134.24 C 800.761 1081.33 797.372 1040.49 796.589 987.652 C 753.04 991.69 593.149 939.011 563.991 908.674 C 563.688 890.53 582.514 821.373 594.356 807.101 C 606.267 799.185 627.629 785.675 641.185 780.05 C 692.527 758.746 749.636 744.603 804.577 735.765 C 809.332 735 819.576 735.204 824.831 734.95 C 834.338 747.316 846.852 741.68 860.548 739.35 L 865.857 729.556 z M 830.159 956.995 L 831.04 958.085 C 840.333 962.702 860.259 962.65 871.204 964.04 C 991.75 979.355 1136.2 974.927 1256.12 954.852 C 1311.2 945.631 1419.25 926.665 1452.19 878.515 C 1456.68 871.947 1459 864.511 1457.35 856.589 C 1454.29 841.906 1437.99 830.039 1425.89 822.539 C 1318.72 756.137 1082.45 752.892 957.776 757.262 C 930.23 758.227 877.909 759.008 852.593 765.076 C 850.859 782.423 844.341 808.347 841.248 826.905 C 833.688 869.852 829.977 913.388 830.159 956.995 z M 816.781 770.164 C 804.446 771.236 784.839 775.244 773.485 777.415 C 714.806 788.636 626.735 813.597 586.002 858.643 C 546.726 902.078 730.919 938.276 753.94 944.833 C 766.371 948.373 786.523 950.113 796.63 954.673 C 797.406 941.735 796.807 927.985 797.686 914.441 C 800.492 865.945 806.874 817.721 816.781 770.164 z"/>
<path transform="translate(0,0)" fill="rgb(0,78,250)" d="M 816.781 770.164 C 823.959 767.614 844.794 765.136 852.593 765.076 C 850.859 782.423 844.341 808.347 841.248 826.905 C 833.688 869.852 829.977 913.388 830.159 956.995 C 829.679 964.637 828.092 987.772 830.421 994.679 C 831.872 1049.48 835.05 1092.8 845.398 1147.35 C 847.792 1159.87 850.639 1172.3 853.934 1184.62 C 856.123 1192.89 859.699 1204.49 860.744 1212.71 C 850.266 1212.87 834.748 1210.36 824.481 1208.63 C 823.858 1201.35 820.865 1188.98 819.291 1181.46 C 815.893 1165.78 812.79 1150.04 809.981 1134.24 C 800.761 1081.33 797.372 1040.49 796.589 987.652 C 796.769 976.66 796.783 965.666 796.63 954.673 C 797.406 941.735 796.807 927.985 797.686 914.441 C 800.492 865.945 806.874 817.721 816.781 770.164 z"/>
<path transform="translate(0,0)" fill="rgb(199,198,198)" d="M 1451.9 1174.53 C 1447.23 1187.14 1436.4 1205.95 1429.62 1217.78 C 1382.47 1300.18 1310.83 1365.85 1224.65 1405.69 C 1158.39 1436.19 1086.77 1450.54 1013.93 1448.9 C 1008.78 1448.78 979.657 1449.62 977.113 1448.47 C 965.777 1424.71 940.952 1400.82 929.942 1372 L 930.893 1371.84 C 955.435 1368.12 982.862 1370.65 1008.66 1367.2 C 1097.87 1355.86 1182.34 1320.58 1253.12 1265.1 C 1265.54 1255.3 1277.91 1243.46 1289.66 1232.68 C 1301.17 1227.55 1322.46 1223.97 1335.54 1219.92 C 1378.65 1206.59 1412.28 1196.49 1451.9 1174.53 z"/>
<path transform="translate(0,0)" fill="rgb(252,112,6)" d="M 1483.64 1071.98 C 1489.01 1084.7 1461.17 1161.94 1451.9 1174.53 C 1412.28 1196.49 1378.65 1206.59 1335.54 1219.92 C 1322.46 1223.97 1301.17 1227.55 1289.66 1232.68 C 1281.95 1232.82 1269.07 1235.81 1261.18 1237.31 C 1165.29 1255.54 1066.8 1255.48 969.584 1252.31 C 938.04 1251.28 906.481 1251.59 874.944 1249.91 C 865.149 1247.36 845.658 1244.55 835.891 1245.39 C 766.663 1235.95 693.296 1221.81 629.37 1192.9 C 621.891 1189.51 609.935 1184.27 603.143 1180.07 C 594.637 1168.35 579.214 1136.11 579.176 1121.75 C 594.907 1132.73 606.241 1141.86 623.797 1151.28 C 681.071 1182.03 760.327 1201 824.481 1208.63 C 834.748 1210.36 850.266 1212.87 860.744 1212.71 C 900.297 1213.73 941.355 1219.39 981.684 1220.29 C 1116.06 1223.28 1250.55 1214.88 1378.75 1171.27 C 1435.28 1152.05 1458.54 1124.02 1483.64 1071.98 z"/>
<path transform="translate(0,0)" fill="rgb(199,198,198)" d="M 640.796 1248.12 C 642.335 1246.69 645.031 1243.62 647.298 1243.97 C 651.043 1244.57 707.358 1292.83 717.705 1299.76 C 766.865 1332.71 824.669 1352.94 882.842 1363.1 C 898.788 1389.7 915.51 1415.83 932.985 1441.45 C 843.631 1424.86 746.106 1367.47 683.332 1302.48 C 675.738 1294.62 641.002 1255.44 640.796 1248.12 z"/>
<path transform="translate(0,0)" fill="rgb(0,78,250)" d="M 927.549 525.997 C 936.306 519.86 967.724 508.334 976.775 515.139 C 970.636 528.612 960.729 538.964 951.969 550.698 C 911.69 604.647 885.468 665.547 865.857 729.556 L 860.548 739.35 C 846.852 741.68 834.338 747.316 824.831 734.95 C 844.475 675.348 882.382 571.111 927.549 525.997 z"/>
<path transform="translate(0,0)" fill="rgb(0,78,250)" d="M 835.891 1245.39 C 845.658 1244.55 865.149 1247.36 874.944 1249.91 C 885.951 1287.15 908.001 1339.61 929.942 1372 C 940.952 1400.82 965.777 1424.71 977.113 1448.47 C 964.918 1448.19 944.963 1444.24 932.985 1441.45 C 915.51 1415.83 898.788 1389.7 882.842 1363.1 C 881.189 1357.61 867.962 1332.71 864.511 1324.39 C 853.683 1298.26 844.008 1272.52 835.891 1245.39 z"/>
<path transform="translate(0,0)" fill="rgb(252,112,6)" d="M 1384.84 1430.18 C 1407.87 1438.7 1443.74 1476.98 1457.78 1498.15 C 1459.39 1500.59 1459.19 1505.37 1457.96 1508 C 1443.03 1539.94 1414.17 1499.49 1403.56 1488.49 C 1399.45 1522.72 1394.34 1530.02 1382.91 1559.88 C 1377.72 1567.84 1369.27 1584.1 1366.19 1593.02 C 1361.24 1600.33 1357.7 1607.53 1352.23 1615.25 C 1320.58 1660.39 1280.02 1698.57 1233.05 1727.44 C 1139.78 1785.09 1031.13 1800.03 924.971 1774.75 C 833.2 1752.13 752.585 1697.35 697.762 1620.35 C 691.887 1612.17 685.303 1601 679.959 1592.31 C 675.298 1580.18 671.118 1572.07 665.036 1560.67 C 655.58 1537.07 647.779 1518.07 646.386 1492.33 C 636.994 1502.51 612.893 1531.08 598.591 1515.74 C 576.02 1491.53 646.885 1436.79 664.426 1430.4 C 668.462 1431.8 672.616 1433.16 676.193 1435.55 C 688.074 1443.49 730.627 1483.09 736.595 1495.25 C 738.86 1499.87 740.026 1505.4 737.999 1510.3 C 736.248 1514.54 733.169 1518.57 728.758 1520.22 C 723.704 1522.12 717.947 1520.36 713.36 1518 C 700.381 1511.33 690.329 1497.88 680.421 1487.48 C 684.988 1507.74 688.812 1527.19 696.568 1546.55 C 698.387 1551.1 700.491 1555.59 702.109 1560.18 C 751.836 1558.57 807.513 1559.87 857.816 1559.88 L 1152.01 1559.88 C 1191.53 1559.88 1231.24 1559.82 1270.75 1559.83 C 1288.5 1559.83 1329.01 1557.32 1344.88 1560.48 C 1352.03 1548.25 1363.78 1503.89 1369.51 1488.29 C 1358.78 1498.96 1343.3 1517.48 1327.48 1518.44 C 1320.3 1518.88 1312.17 1509.88 1313.49 1502.74 C 1318.06 1478.09 1362.37 1438 1384.84 1430.18 z M 1324.68 1593.98 C 1313.37 1594.21 1299.5 1593.48 1287.88 1593.37 L 1218.55 1593.29 L 947.131 1593.27 L 789.071 1593.23 C 770.76 1593.24 737.068 1594.83 720.82 1593.64 C 724.73 1601.55 741.292 1620.52 747.364 1627.17 C 791.302 1675.29 844.938 1712.16 906.921 1733.31 C 998.608 1764.41 1098.92 1757.52 1185.5 1714.18 C 1231.87 1691.16 1278.08 1655.47 1310.15 1614.57 C 1313.83 1609.87 1321.97 1599.02 1324.68 1593.98 z"/>
<path transform="translate(0,0)" fill="rgb(2,55,166)" d="M 702.109 1560.18 C 751.836 1558.57 807.513 1559.87 857.816 1559.88 L 1152.01 1559.88 C 1191.53 1559.88 1231.24 1559.82 1270.75 1559.83 C 1288.5 1559.83 1329.01 1557.32 1344.88 1560.48 C 1339.36 1573.46 1332.88 1582.48 1324.68 1593.98 C 1313.37 1594.21 1299.5 1593.48 1287.88 1593.37 L 1218.55 1593.29 L 947.131 1593.27 L 789.071 1593.23 C 770.76 1593.24 737.068 1594.83 720.82 1593.64 C 713.651 1586.41 706.342 1569.64 702.109 1560.18 z"/>
<path transform="translate(0,0)" fill="rgb(2,55,166)" d="M 1933.21 1560.15 C 1922.98 1551.63 1896.85 1531.17 1908.02 1515.37 C 1909.87 1512.74 1913.76 1512.06 1916.77 1512.15 C 1935.07 1513.02 1955.61 1540.71 1968.43 1552.87 C 1973.8 1557.96 1982.26 1569.02 1985.44 1575.58 C 1985.91 1576.55 1986.65 1577.7 1987.17 1578.62 C 1981.77 1598.05 1945.82 1628.68 1928.54 1640.71 C 1917.16 1648.64 1909.07 1638.78 1903.86 1629.29 C 1910.21 1613.67 1922.19 1602.62 1935.41 1592.46 C 1920.11 1594.23 1904.07 1593.72 1888.6 1593.72 L 1823.82 1593.69 L 1608.95 1593.66 L 1444.48 1593.66 L 1396.34 1593.71 C 1388.25 1593.71 1373.81 1594.07 1366.19 1593.02 C 1369.27 1584.1 1377.72 1567.84 1382.91 1559.88 C 1440.74 1560.48 1498.58 1560.52 1556.42 1560 L 1792.91 1559.91 C 1837.97 1559.91 1888.54 1558.81 1933.21 1560.15 z"/>
<path transform="translate(0,0)" fill="rgb(2,55,166)" d="M 679.959 1592.31 C 667.047 1594.77 618.607 1593.68 602.89 1593.67 L 449.195 1593.67 L 209.667 1593.69 L 135.83 1593.7 C 120.418 1593.7 104.356 1594.02 89.0374 1592.99 C 80.6534 1592.42 53.6674 1587.74 56.8416 1575.24 C 59.1406 1566.19 73.6335 1559.28 82.5383 1559.98 C 130.384 1559.9 178.258 1559.93 226.118 1559.93 L 509.186 1559.93 C 529.32 1559.93 555.877 1559.84 575.445 1559.93 C 590.201 1559.99 654.824 1556.92 665.036 1560.67 C 671.118 1572.07 675.298 1580.18 679.959 1592.31 z"/>
<path transform="translate(0,0)" fill="rgb(252,112,6)" d="M 1348.21 249.019 C 1368.76 247.725 1369.67 264.675 1365 280.102 C 1359 299.916 1350.85 319.388 1343.08 338.62 C 1331.44 367.446 1322 399.449 1308.8 427.418 C 1324.59 417.924 1362.34 390.342 1380.5 394.028 C 1384.31 394.802 1387.33 396.856 1389.29 400.231 C 1391.48 404.013 1392.18 408.401 1390.86 412.595 C 1384.76 431.911 1303.63 471.328 1283.38 482.38 C 1267.82 483.263 1253.12 450.475 1248.34 438.131 C 1238.4 411.797 1229.17 384.682 1221.86 357.505 C 1218.62 346.367 1238.22 336.722 1245.32 341.971 C 1261.35 353.83 1272.22 394.27 1278.22 412.751 C 1297.43 367.813 1311.56 317.374 1329.34 271.597 C 1333.19 261.679 1338.06 253.351 1348.21 249.019 z"/>
<path transform="translate(0,0)" fill="rgb(252,112,6)" d="M 693.139 249.099 C 700.802 248.535 702.386 249.482 709.094 253.388 C 717.964 268.497 725.816 288.604 732.833 305.008 C 748.168 340.861 760.817 377.254 774.163 413.785 C 774.772 408.659 775.813 403.791 777.168 398.812 C 780.707 385.805 790.808 347.083 802.169 341.281 C 805.99 339.329 810.66 340.128 814.59 341.325 C 819.331 342.768 824.1 345.472 826.197 350.174 C 829.979 358.656 804.223 429.557 799.98 441.891 C 796.965 450.655 790.182 475.751 781.241 479.061 C 776.733 480.73 772.343 478.282 768.225 476.586 C 750.852 470.793 659.223 432.811 653.72 420.673 C 652.008 416.898 652.808 412.222 654.604 408.644 C 656.409 405.045 659.358 402.386 663.249 401.236 C 680.426 396.157 729.751 422.515 745.591 431.189 C 724.999 380.397 705.035 329.097 683.604 278.59 C 677.629 264.508 679.352 256.769 693.139 249.099 z"/>
</svg>