<svg version="1.1" xmlns="http://www.w3.org/2000/svg" style="display: block;" viewBox="0 0 2048 2048" width="512" height="512" preserveAspectRatio="none">
<path transform="translate(0,0)" fill="rgb(24,67,151)" d="M 875.723 1017.8 C 911.53 984.584 951.379 950.171 988.035 917.405 L 1213.01 716.348 L 1376.88 569.855 C 1393.16 555.395 1443.19 503.786 1461.51 501.938 C 1474.3 505.924 1482.61 537.457 1487.06 550.023 L 1506.91 604.914 L 1582.39 812.064 L 1740.61 1246.62 L 1801.39 1413.28 C 1810.15 1437.38 1819.08 1461.43 1827.85 1485.52 C 1831.22 1494.8 1840.28 1523.36 1832.99 1531.47 C 1825.39 1533.91 1808.62 1523.95 1800.79 1519.92 C 1553.91 1394.92 1305.77 1272.43 1056.39 1152.47 L 913.542 1082.63 C 902.897 1077.43 856.919 1056.81 851.249 1051.06 C 860.551 1046.07 865.767 1043.79 873.136 1036.16 C 874.577 1029.88 876.143 1024.22 875.723 1017.8 z"/>
<path transform="translate(0,0)" fill="rgb(111,160,232)" d="M 1458.35 562.314 C 1473.99 593.557 1485.43 633.194 1497.16 666.508 L 1549.97 812.095 L 1708.87 1249.65 L 1755.82 1379.23 C 1768.44 1414.57 1779.06 1446.68 1793.45 1481.56 C 1782.66 1477.35 1721.05 1448.8 1716.82 1442.87 C 1673 1422.15 1629.99 1399.8 1586.46 1378.46 L 1334.98 1256.02 C 1306.64 1242.28 1278.4 1228.32 1250.26 1214.14 C 1229.64 1203.75 1206 1191.11 1184.87 1182.37 L 1342.52 825.883 C 1370.16 763.244 1401.15 696.575 1427.27 633.675 C 1432.75 615.778 1449.5 578.873 1458.35 562.314 z"/>
<path transform="translate(0,0)" fill="rgb(89,134,211)" d="M 1458.35 562.314 C 1473.99 593.557 1485.43 633.194 1497.16 666.508 L 1549.97 812.095 L 1708.87 1249.65 L 1755.82 1379.23 C 1768.44 1414.57 1779.06 1446.68 1793.45 1481.56 C 1782.66 1477.35 1721.05 1448.8 1716.82 1442.87 C 1719 1437.65 1697.54 1383.15 1694.3 1374.25 L 1646.57 1243.04 C 1591.23 1093.12 1537.09 942.766 1484.15 791.985 L 1449.84 691.02 C 1446.55 681.265 1433.46 637.315 1427.27 633.675 C 1432.75 615.778 1449.5 578.873 1458.35 562.314 z"/>
<path transform="translate(0,0)" fill="rgb(234,130,51)" d="M 1423.16 567.815 C 1413.82 589.721 1398.15 633.958 1385.74 652.241 C 1365.52 705.232 1337.9 762.239 1314.73 814.124 L 1214.86 1041.36 C 1202.21 1069.75 1189.73 1098.23 1177.43 1126.77 C 1171.73 1139.96 1163.76 1157.08 1158.83 1170.29 C 1086.36 1132.74 1011.24 1099.85 937.841 1061.88 C 923.601 1055.59 909.68 1047.81 895.786 1040.66 C 912.115 1024.79 930.96 1008.18 947.896 992.677 L 1041.84 906.962 C 1121.26 834.356 1201.17 762.292 1281.57 690.772 C 1309.93 665.497 1338.6 640.579 1367.59 616.026 C 1379.17 606.169 1390.85 597.663 1402.42 588.117 C 1408.14 583.396 1417.56 573.359 1423.16 567.815 z"/>
<path transform="translate(0,0)" fill="rgb(248,172,83)" d="M 1423.16 567.815 C 1413.82 589.721 1398.15 633.958 1385.74 652.241 C 1370.44 655.476 1281.33 744.734 1264.15 760.693 L 1023.29 984.773 C 1003.01 1003.9 982.552 1022.84 961.923 1041.59 C 957.092 1045.9 942.842 1058.91 937.841 1061.88 C 923.601 1055.59 909.68 1047.81 895.786 1040.66 C 912.115 1024.79 930.96 1008.18 947.896 992.677 L 1041.84 906.962 C 1121.26 834.356 1201.17 762.292 1281.57 690.772 C 1309.93 665.497 1338.6 640.579 1367.59 616.026 C 1379.17 606.169 1390.85 597.663 1402.42 588.117 C 1408.14 583.396 1417.56 573.359 1423.16 567.815 z"/>
<path transform="translate(0,0)" fill="rgb(111,160,232)" d="M 837.645 1026.3 C 813.769 1016.63 779.724 999.615 756.148 988.169 C 715.367 968.743 674.715 949.045 634.197 929.076 C 600.844 912.973 566.46 900.325 533.706 883.259 C 524.974 878.71 515.361 871.807 509.975 863.519 C 504.464 855.037 515.573 847.787 521.701 844.027 C 575.975 866.851 637.17 899.403 690.936 924.849 L 785.468 970.125 C 817.037 985.095 846.623 998.014 875.723 1017.8 C 876.143 1024.22 874.577 1029.88 873.136 1036.16 C 865.767 1043.79 860.551 1046.07 851.249 1051.06 C 840.282 1053.25 805.665 1070.87 793.257 1076.38 L 630.621 1148.36 C 610.618 1157.23 534.742 1193.68 518.539 1192.26 C 512.859 1189.09 508.678 1181.64 511.815 1175.63 C 519.016 1161.82 544.685 1153.74 558.509 1147.85 C 576.987 1139.93 595.419 1131.9 613.803 1123.76 C 688.735 1090.17 761.421 1057.14 837.645 1026.3 z"/>
<path transform="translate(0,0)" fill="rgb(111,160,232)" d="M 277.172 731.853 C 289.431 732.573 306.448 741.095 317.443 746.577 C 343.654 760.273 368.617 770.49 395.314 783.716 C 421.54 796.708 458.321 806.067 479.128 827.426 C 487.254 835.767 480.613 844.246 472.829 849.912 C 472.007 850.032 471.213 850.198 470.38 850.161 C 453.718 849.422 278.141 763.048 269.789 752.011 C 268.07 749.739 267.454 746.735 267.933 743.945 C 268.854 738.569 272.796 734.685 277.172 731.853 z"/>
<path transform="translate(0,0)" fill="rgb(111,160,232)" d="M 464.447 1189 C 488.415 1186.61 487.243 1209.64 475.228 1215.33 C 415.238 1243.74 350.523 1276.29 288.751 1299.4 C 278.516 1300.56 265.66 1297.69 270.384 1283.24 C 273.595 1275.27 284.024 1270.5 291.203 1267.25 C 348.694 1241.26 406.476 1213.76 464.447 1189 z"/>
<path transform="translate(0,0)" fill="rgb(111,160,232)" d="M 455.854 1001.58 C 459.727 1001.34 463.603 1001.16 467.481 1001.04 C 475.023 1000.77 564.648 995.848 535.884 1026.3 C 528.315 1034.32 486.306 1031.34 471.25 1031.22 C 448.801 1031.59 411.026 1033.4 390.365 1027.18 C 374.811 1007.74 396.29 1005 411.406 1003.17 C 426.185 1001.38 440.997 1002.23 455.854 1001.58 z"/>
<path transform="translate(0,0)" fill="rgb(111,160,232)" d="M 638.42 1001.54 C 659.135 1000.46 698.696 1001.21 718.521 1004.65 C 733.577 1016.71 727.821 1026.81 710.372 1029.92 C 696.676 1032.37 678.761 1031.21 664.5 1031.11 C 649.771 1031.07 592.426 1034.47 582.8 1027.02 C 580.019 1024.87 577.27 1021.03 577.325 1017.36 C 577.375 1014.03 578.801 1010.87 581.131 1008.51 C 591.655 997.855 623.642 1001.55 638.42 1001.54 z"/>
<path transform="translate(0,0)" fill="rgb(111,160,232)" d="M 232.665 1001.44 C 250.195 1000.65 334.613 998.658 343.895 1005.98 C 346.86 1008.32 348.579 1011.5 348.729 1015.29 C 348.893 1019.45 346.982 1023.38 344 1026.21 C 337.94 1031.95 331.504 1031.26 323.75 1031.24 C 304.106 1031.48 225.21 1035.15 214.165 1026.6 C 211.521 1024.56 210.061 1021.56 209.709 1018.27 C 209.222 1013.72 210.732 1009.66 213.836 1006.32 C 218.565 1001.23 226.288 1001.7 232.665 1001.44 z"/>
</svg>