<svg version="1.1" xmlns="http://www.w3.org/2000/svg" style="display: block;" viewBox="0 0 2048 2048" width="512" height="512" preserveAspectRatio="none">
<path transform="translate(0,0)" fill="rgb(30,73,171)" d="M 324.227 200.075 C 333.708 199.497 342.995 203.364 349.834 209.937 C 364.053 224.691 383.292 242.48 396.394 257.463 C 406.637 269.177 449.155 306.769 453.344 318.531 C 455.232 323.978 454.842 329.956 452.26 335.11 C 447.254 344.972 438.559 348.982 428.8 352.004 C 404.496 339.797 372.881 303.214 353.355 282.609 C 355.16 297.162 354.34 334.428 354.344 350.687 L 354.332 482.028 L 354.332 917.143 L 354.332 1435.14 L 354.341 1597.18 C 354.346 1617.64 355.692 1657.46 353.976 1676.03 C 415.458 1674.65 480.371 1675.72 542.217 1675.71 L 890.377 1675.7 L 1771.64 1675.84 C 1757.4 1661.87 1703.42 1613 1699.23 1598.26 C 1697.85 1593.4 1699.42 1587.39 1701.87 1583.12 C 1705.24 1577.26 1710.95 1571.45 1717.75 1569.94 C 1722.14 1568.96 1727.64 1569.59 1731.46 1571.98 C 1743.45 1579.51 1842.51 1677.93 1851.75 1690.64 C 1853.79 1693.44 1854.47 1698.39 1855.28 1701.74 C 1854.61 1704.51 1853.38 1710.24 1851.61 1712.44 C 1819.72 1751.89 1781.43 1785.41 1747.7 1823.19 C 1741.25 1830.41 1732.52 1839.12 1722.71 1839.91 C 1713.83 1840.61 1709.96 1837.29 1703.58 1832.21 C 1684.84 1804.86 1715.23 1785.13 1733.54 1766.89 C 1747.78 1752.89 1761.69 1738.55 1775.25 1723.88 L 354.027 1723.96 C 354.929 1745.25 361.433 1827.35 343.067 1838.67 C 301.558 1864.24 304.153 1794.55 305.116 1771.68 C 305.724 1757.27 304.256 1739.09 305.824 1723.71 L 251.203 1723.98 C 234.372 1724.06 211.358 1726.33 197.025 1716.86 C 194.842 1713.24 192.405 1708.58 192.682 1704.39 C 194.332 1679.41 205.93 1675.25 226.925 1675.89 C 253.81 1676.72 279.803 1675.32 306.129 1676.14 C 304.938 1668.1 305.406 1628.78 305.396 1618.75 L 305.378 1499.37 L 305.371 1080.12 L 305.35 536.34 L 305.313 368.924 C 305.3 348.503 304.088 301.962 306.152 283.221 C 284.829 299.983 268.326 321.208 248.079 339.376 C 224.991 360.093 211.631 352.258 200.477 325.606 C 209.408 301.774 300.601 215.313 324.227 200.075 z"/>
<path transform="translate(0,0)" fill="rgb(246,92,6)" d="M 518.613 499.7 C 538.542 490.669 562.191 503.534 575.395 517.98 C 632.527 580.48 694.3 640.748 754.014 700.526 L 930.376 877.162 C 961.225 908.065 997.013 942.127 1026.35 973.969 C 1035.87 985.125 1048.13 996.268 1059.01 1006.19 C 1100.76 1045.51 1139.17 1089.12 1181.28 1128.2 C 1191.98 1138.14 1204.67 1148.72 1214.48 1159.22 C 1221.2 1168.53 1237.4 1184.7 1246.75 1192.17 C 1250.35 1196.64 1254.24 1200.45 1258.29 1204.51 C 1279.13 1225.4 1300.69 1245.59 1321.53 1266.48 L 1495.81 1441.44 C 1506.49 1452.15 1548.65 1491.94 1554.04 1502.75 C 1560.78 1527.39 1545.64 1548.62 1521.28 1553.92 C 1475.06 1530.07 1406.6 1452.08 1368.46 1413.16 L 1253.3 1297.97 L 1217.98 1263.04 C 1209.12 1254.22 1203.42 1247.14 1193.2 1239.67 C 1181.35 1226.88 1172.97 1217.37 1159.03 1206.87 C 1156.81 1203.72 1145.51 1192.83 1142.15 1189.46 L 1106.55 1153.85 C 1085.94 1133.23 1065.5 1112.91 1045.56 1091.62 C 1037.49 1083.01 1018.58 1062.36 1009.17 1056.77 C 998.972 1043.14 988.719 1032.58 976.185 1021.17 C 962.856 1007.04 949.029 994.351 935.243 980.752 L 866.545 912.066 L 620.786 665.89 L 542.97 588.025 C 528.258 573.385 511.735 559.086 499.22 542.488 C 496.457 538.824 495.154 529.846 496.117 525.089 C 498.52 513.21 509.348 506.058 518.613 499.7 z"/>
<path transform="translate(0,0)" fill="rgb(253,139,51)" d="M 518.613 499.7 C 538.542 490.669 562.191 503.534 575.395 517.98 C 632.527 580.48 694.3 640.748 754.014 700.526 L 930.376 877.162 C 961.225 908.065 997.013 942.127 1026.35 973.969 C 1035.87 985.125 1048.13 996.268 1059.01 1006.19 C 1100.76 1045.51 1139.17 1089.12 1181.28 1128.2 C 1191.98 1138.14 1204.67 1148.72 1214.48 1159.22 C 1221.2 1168.53 1237.4 1184.7 1246.75 1192.17 C 1250.35 1196.64 1254.24 1200.45 1258.29 1204.51 C 1279.13 1225.4 1300.69 1245.59 1321.53 1266.48 L 1495.81 1441.44 C 1506.49 1452.15 1548.65 1491.94 1554.04 1502.75 C 1546.1 1507.36 1537.25 1510.77 1528.69 1513.99 C 1504.23 1493.23 1479.83 1464.53 1456.63 1441.26 L 1298.45 1283.3 L 781.064 766.826 L 610.932 597.253 L 552.133 537.599 C 542.074 527.39 531.866 516.923 521.689 506.816 C 519.914 505.053 519.119 502.142 518.613 499.7 z"/>
<path transform="translate(0,0)" fill="rgb(30,73,171)" d="M 1026.35 973.969 C 1041.38 953.691 1083.58 913.488 1103.09 893.962 L 1255.24 742.653 L 1538.33 459.738 C 1575.83 422.541 1611.41 383.281 1650.43 347.973 C 1663.18 336.437 1682.86 321.938 1698.45 335.811 C 1717.44 352.703 1689.53 378.261 1679.01 388.745 L 1249.56 817.738 L 1110.09 956.952 C 1097.2 969.862 1084.23 982.701 1071.19 995.469 C 1068.63 997.966 1059.66 1005.45 1059.01 1006.19 C 1048.13 996.268 1035.87 985.125 1026.35 973.969 z"/>
<path transform="translate(0,0)" fill="rgb(30,73,171)" d="M 976.185 1021.17 C 988.719 1032.58 998.972 1043.14 1009.17 1056.77 C 1003.69 1060.65 985.722 1079.72 980.408 1085.18 L 931.648 1134.68 L 662.969 1404.27 L 582.88 1484.66 C 574.326 1493.3 565.684 1501.95 557.304 1510.76 C 545.969 1522.66 522.814 1547.86 505.97 1530.49 C 501.266 1525.56 498.746 1518.94 498.977 1512.12 C 499.298 1502.55 507.334 1492.5 513.684 1485.63 C 531.578 1466.27 551.455 1447.82 570.21 1429.22 L 671.555 1327.32 C 737.173 1259.89 803.373 1193.02 870.147 1126.74 C 904.761 1092 940.715 1054.82 976.185 1021.17 z"/>
<path transform="translate(0,0)" fill="rgb(30,73,171)" d="M 1543.32 829.492 C 1553.59 827.889 1559.77 827.886 1570.17 828.551 C 1570.33 842.342 1570.57 855.474 1569.9 869.252 C 1566.02 875.14 1552.75 888.321 1547.38 893.768 C 1530.11 911.06 1512.73 928.238 1495.24 945.303 L 1315.29 1123.26 C 1301.38 1137.25 1287.65 1151.42 1274.1 1165.76 C 1266.82 1173.35 1255.03 1186.28 1246.75 1192.17 C 1237.4 1184.7 1221.2 1168.53 1214.48 1159.22 C 1218.91 1151.87 1237.96 1133.61 1245.06 1126.53 L 1292.96 1078.78 L 1488.81 883.42 C 1502.81 869.653 1529.47 840.047 1543.32 829.492 z"/>
<path transform="translate(0,0)" fill="rgb(246,92,6)" d="M 1543.32 829.492 C 1518.21 827.998 1460.34 837.9 1442.6 818.029 C 1439.48 814.537 1438.12 810.029 1438.41 805.389 C 1438.84 798.602 1442.69 791.987 1447.92 787.753 C 1452.52 784.038 1457.87 782.286 1463.65 781.524 C 1484.09 778.833 1505.71 781.411 1526.31 781.462 C 1546.61 781.513 1575.97 779.337 1595 781.945 C 1600.93 782.758 1608.71 785.504 1612.26 790.708 C 1621.5 804.264 1619.76 937.595 1614.62 955.293 C 1612.96 960.982 1608.43 965.224 1603.28 967.873 C 1600.35 969.343 1597.37 970.725 1594.36 972.015 C 1583.36 966.556 1574.57 961.693 1570.47 948.895 C 1562.94 925.386 1571.44 893.139 1569.9 869.252 C 1570.57 855.474 1570.33 842.342 1570.17 828.551 C 1559.77 827.886 1553.59 827.889 1543.32 829.492 z"/>
<path transform="translate(0,0)" fill="rgb(30,73,171)" d="M 1159.03 1206.87 C 1172.97 1217.37 1181.35 1226.88 1193.2 1239.67 C 1182 1249.98 1172.02 1262.63 1160.95 1273.38 C 1138.65 1295.04 1116.36 1316.58 1094.56 1338.75 C 1086.18 1347.26 1076.59 1359.59 1064.77 1362.62 C 1057.08 1364.58 1052.22 1360.95 1046 1357.1 C 1039.5 1345.27 1033.84 1335.4 1043.03 1323.26 C 1075.84 1279.98 1123.2 1247.25 1159.03 1206.87 z"/>
</svg>