<svg version="1.1" xmlns="http://www.w3.org/2000/svg" style="display: block;" viewBox="0 0 2048 2048" width="512" height="512" preserveAspectRatio="none">
<path transform="translate(0,0)" fill="rgb(19,66,199)" d="M 1732.86 471.432 C 1839.2 468.739 1918.8 515.366 1876.4 633.414 C 1845.94 718.22 1778.9 793.982 1718.34 859.031 C 1673.45 907.723 1625.65 953.648 1575.2 996.551 C 1577.4 1003.34 1577.58 1006.8 1578.4 1013.82 C 1596.18 1166 1552.96 1312.19 1457.38 1431.9 C 1369.63 1541.79 1229.98 1622.43 1088.61 1636.88 C 988.095 1647.33 886.565 1632.58 793.18 1593.97 C 770.906 1584.65 737.107 1567.45 718.441 1552.27 C 713.443 1555.03 708.006 1557.44 702.806 1559.86 C 617.269 1599.79 528.038 1632.83 436.55 1656.22 C 402.493 1664.92 367.665 1670.4 333.147 1676.83 C 311.364 1677.98 287.623 1678.25 265.909 1675.7 C 235.33 1672.12 199.19 1658.43 179.838 1633.33 C 162.448 1610.77 159.098 1581.89 162.884 1554.39 C 178.508 1440.9 314.562 1285.6 394.905 1205.36 C 417.547 1182.74 439.682 1160.24 465.2 1140.8 C 463.503 1122.46 461.367 1094.31 461.385 1076.34 C 462.287 986.875 484.986 898.983 527.515 820.273 C 598.575 687.629 719.246 588.501 863.162 544.546 C 1017.73 497.776 1158.15 520.947 1298.44 596.072 C 1324.02 583.639 1350.82 572.6 1377.1 561.415 C 1474.89 519.79 1576.76 482.635 1683.45 473.684 C 1699.72 472.319 1716.54 472.022 1732.86 471.432 z M 1380.54 653.577 C 1432.2 698.262 1476.47 750.842 1511.69 809.365 C 1516.93 818.048 1524.44 829.918 1528.93 838.78 C 1534.01 849.49 1547.86 882.052 1551.31 893.004 C 1604.07 841.122 1744.79 702.704 1744.86 627.411 C 1744.87 616.605 1741.83 606.302 1734.01 598.55 C 1716.62 581.337 1685.52 581.232 1662.82 581.898 C 1658.95 582.011 1655.09 582.186 1651.22 582.421 C 1576.53 586.957 1526.85 602.082 1456.38 627.566 C 1440.26 633.393 1395.16 650.768 1380.54 653.577 z M 435.239 1552.02 C 496.457 1538.57 580.247 1514.09 635.537 1486.67 C 583.182 1436.2 539.863 1380.41 511.585 1313.68 C 507.711 1304.53 485.327 1244.26 482.45 1241.6 C 429.877 1305.45 284.672 1433.31 293.685 1521.69 C 294.789 1532.51 299.558 1541.62 308.198 1548.33 C 331.978 1566.81 373.584 1562 401.307 1557.91 C 412.669 1556.26 423.984 1554.29 435.239 1552.02 z"/>
<path transform="translate(0,0)" fill="rgb(254,161,49)" d="M 999.132 548.43 C 1072.78 543.33 1165.26 561.604 1232.47 591.52 C 1378.44 656.498 1472.3 767.769 1530.15 913.693 C 1492.35 949.719 1445.7 986.835 1404.62 1019.76 C 1245.42 1147.32 1075.63 1255.68 899.447 1357.82 C 819.25 1404.11 746.195 1437.97 663.529 1477.39 C 639.596 1453.28 621.08 1435.15 599.902 1408.6 C 531.921 1322.87 492.686 1217.89 487.772 1108.58 C 481.459 968.151 530.703 830.881 624.847 726.487 C 723.927 616.466 851.75 556.217 999.132 548.43 z"/>
<path transform="translate(0,0)" fill="rgb(254,161,49)" d="M 1551.49 1016.24 C 1571.03 1151.67 1535.65 1289.29 1453.22 1398.5 C 1366.21 1513.18 1237.44 1588.87 1094.93 1609.12 C 1004.35 1622.06 911.966 1611.66 826.533 1578.9 C 799.832 1568.52 772.191 1553.84 744.817 1542.33 C 753.839 1536.79 761.154 1532.29 770.996 1528.33 C 784.199 1522.68 805.96 1510.86 819.433 1503.97 C 856.245 1485.05 892.746 1465.54 928.92 1445.43 C 1132.28 1331.87 1325.57 1201.14 1506.69 1054.69 C 1521.19 1041.05 1536.09 1028.87 1551.49 1016.24 z"/>
<path transform="translate(0,0)" fill="rgb(247,136,28)" d="M 1551.49 1016.24 C 1571.03 1151.67 1535.65 1289.29 1453.22 1398.5 C 1366.21 1513.18 1237.44 1588.87 1094.93 1609.12 C 1004.35 1622.06 911.966 1611.66 826.533 1578.9 C 799.832 1568.52 772.191 1553.84 744.817 1542.33 C 753.839 1536.79 761.154 1532.29 770.996 1528.33 C 774.698 1532.89 785.518 1534.07 791.231 1534.49 C 857.74 1539.31 932.061 1545.09 998.513 1539.85 C 1210.18 1523.18 1423.54 1382.87 1487.88 1174.59 C 1494.06 1154.57 1514.58 1069.77 1506.69 1054.69 C 1521.19 1041.05 1536.09 1028.87 1551.49 1016.24 z"/>
<path transform="translate(0,0)" fill="rgb(117,190,249)" d="M 1734.68 497.437 C 1739.73 497.23 1744.79 497.033 1749.84 497.097 C 1781.28 497.498 1820.05 503.766 1842.89 527.574 C 1856.21 541.459 1861.79 559.656 1861.17 578.657 C 1857.82 680.116 1701.98 842.041 1630.31 909.298 C 1522.01 1010.86 1406.86 1104.85 1285.66 1190.61 C 1067.07 1346.46 551.013 1659.63 284.727 1649.96 C 257.341 1648.97 224.168 1643.77 204.711 1622.44 C 191.656 1608.12 187.902 1589.87 188.795 1571 C 193.218 1477.62 309.332 1335.03 369.98 1269.07 C 401.712 1235.1 434.888 1202.52 469.415 1171.4 C 470.422 1184.27 475.169 1201.98 478.811 1214.36 C 446.785 1234.96 397.625 1292.6 371.398 1322.5 C 339.592 1359.2 307.295 1400.02 285.903 1443.96 C 271.501 1473.54 260.162 1511.99 271.4 1544.49 C 276.322 1558.73 289.161 1571.95 302.961 1577.29 C 380.41 1607.29 523.136 1559.18 596.619 1531.43 C 707.644 1489.51 820.811 1433.69 922.797 1376.06 C 1045.03 1306.14 1163.37 1229.61 1277.27 1146.81 C 1431.73 1036.37 1590.12 913.432 1708.37 763.396 C 1739.52 723.879 1785.54 655.524 1766.22 603.177 C 1760.82 588.545 1745.29 572.433 1730.39 567.708 C 1614.93 531.092 1464.15 592.814 1358.3 635.496 C 1348.66 629.166 1331.7 617.745 1321.57 613.424 C 1449.25 552.339 1592.54 504.517 1734.68 497.437 z"/>
<path transform="translate(0,0)" fill="rgb(19,66,199)" d="M 1724.26 1362.63 C 1750.23 1363.81 1754.9 1424.4 1770.28 1441.14 C 1788.39 1460.86 1834.7 1465.68 1851.27 1485.76 C 1869.71 1508.1 1788.68 1522.69 1780.27 1533.89 C 1756.01 1558.77 1753.27 1608.95 1726.73 1629.27 C 1711.04 1623.21 1695.61 1555.12 1682.22 1539.71 C 1659.19 1513.22 1538.62 1501.22 1631.26 1465.62 C 1647.74 1459.29 1667.21 1453.12 1682.09 1444.21 C 1697.65 1416.19 1700.21 1385.2 1724.26 1362.63 z M 1639.75 1493.64 C 1676.67 1503.4 1706.3 1519.56 1718.02 1557.39 C 1719.2 1561.22 1724.49 1578.51 1726.84 1580.1 C 1736.24 1563.16 1745.98 1537.46 1756.82 1523.07 C 1765.43 1511.65 1797.52 1498.13 1811.45 1494.19 L 1812.92 1493.78 C 1777.68 1476.7 1751.39 1469.31 1736.97 1430.27 C 1735.38 1425.97 1728.6 1409.14 1726.08 1406.55 C 1717.49 1425.94 1708.01 1456.29 1690.01 1467.61 C 1674.48 1477.38 1655.94 1484.08 1639.75 1493.64 z"/>
<path transform="translate(0,0)" fill="rgb(19,66,199)" d="M 565.1 364.713 C 586.697 372.335 598.101 417.404 606.383 438.151 C 709.551 477.027 695.43 483.488 607.449 522.214 C 595.441 539.817 586.247 586.686 568.84 598.598 C 537.872 580.18 544.403 545.84 525.204 525.263 C 508.884 507.771 471.311 503.865 456.851 484.327 C 455.06 481.906 453.847 478.985 454.63 475.933 C 457.631 464.243 512.681 444.504 525.158 438.759 C 539.957 416.831 541.821 383.293 565.1 364.713 z M 501.929 480.353 C 519.428 488.24 531.581 492.039 545.699 505.479 C 555.293 514.612 563.08 543.084 568.835 545.148 L 569.893 543.737 C 584.466 501.439 592.832 495.462 635.757 481.183 C 610.222 469.134 583.685 460.725 574.373 432.9 C 573.195 429.381 568.385 416.812 565.923 414.45 C 558.68 432.952 553.179 453.025 534.57 462.702 C 523.715 468.348 511.997 473.538 501.929 480.353 z"/>
<path transform="translate(0,0)" fill="rgb(19,66,199)" d="M 235.477 955.288 C 265.565 950.208 294.06 970.53 299.056 1000.63 C 304.052 1030.74 283.651 1059.17 253.534 1064.09 C 223.536 1068.98 195.234 1048.68 190.258 1018.69 C 185.281 988.706 205.506 960.348 235.477 955.288 z"/>
<path transform="translate(0,0)" fill="rgb(254,161,49)" d="M 239.747 981.34 C 255.608 978.886 270.448 989.777 272.863 1005.64 C 275.278 1021.51 264.349 1036.33 248.475 1038.7 C 232.658 1041.07 217.909 1030.18 215.503 1014.37 C 213.097 998.562 223.941 983.786 239.747 981.34 z"/>
<path transform="translate(0,0)" fill="rgb(19,66,199)" d="M 355.002 723.8 C 375.328 723.901 376.273 744.461 379.925 760.396 C 389.255 762.849 412.107 768.299 416.455 777.362 C 415.815 788.153 389.716 793.482 380.7 795.574 C 377.823 807.554 375.94 821.045 366.618 829.355 C 346.254 838.035 343.676 808.956 342.205 795.701 C 331.952 794.445 309.213 789.642 306.208 778.286 C 307.636 765.116 331.599 762.367 341.913 760.715 C 343.299 747.193 344.694 733.096 355.002 723.8 z"/>
</svg>