<svg version="1.1" xmlns="http://www.w3.org/2000/svg" style="display: block;" viewBox="0 0 2048 2048" width="512" height="512" preserveAspectRatio="none">
<path transform="translate(0,0)" fill="rgb(247,115,9)" d="M 768.088 385.09 C 758.382 381.518 734.648 381.638 722.296 379.899 C 648.967 369.559 567.649 366.391 500.775 331.916 C 476.603 319.455 485.622 236.607 485.993 211.769 C 486.572 173.051 564.226 185.63 590.727 185.849 L 752.431 185.843 L 1128.64 185.821 C 1173.6 185.816 1218.49 185.881 1263.46 184.314 C 1271.96 184.017 1283.83 185.949 1290.56 191.67 C 1309.48 207.749 1303.46 241.226 1304.94 263.538 C 1306.35 312.075 1314.94 342.542 1254.16 346.959 C 1264 372.934 1263.42 388.223 1233.08 397.166 C 1214.39 402.673 1195.94 404.358 1176.74 406.835 L 1105.8 415.826 C 1010.51 427.446 915.142 438.421 819.705 448.75 C 805.285 450.313 731.694 457.607 723.731 461.748 C 696.039 459.701 599.01 476.877 579.237 494.798 C 575.685 493.722 572.383 491.745 569.299 489.696 C 559.708 483.323 550.4 473.149 548.329 461.566 C 547.057 454.452 548.774 447.706 552.991 441.872 C 579.841 404.729 721.597 392.1 768.088 385.09 z M 548.598 250.292 L 548.805 252.289 C 549.855 262.883 547.401 280.644 551.329 286.821 C 555.575 290.117 589.91 296.335 595.314 296.518 C 605.915 299.672 614.76 300.683 625.561 302.574 C 650.08 306.866 674.731 310.363 699.477 313.058 C 886.128 333.87 1054.36 317.607 1237.72 286.683 C 1237.18 275.127 1236.45 261.406 1237.7 250.019 C 1230.47 250.164 1222.59 250.158 1215.42 250.542 C 1068.43 252.191 918.508 250.643 771.332 250.632 L 627.254 250.707 C 606.528 250.792 567.477 252.164 548.598 250.292 z"/>
<path transform="translate(0,0)" fill="rgb(3,58,182)" d="M 768.088 385.09 C 909.128 384.834 1052.66 382.045 1191.95 358.121 C 1212.74 354.55 1233.29 350.293 1254.16 346.959 C 1264 372.934 1263.42 388.223 1233.08 397.166 C 1214.39 402.673 1195.94 404.358 1176.74 406.835 L 1105.8 415.826 C 1010.51 427.446 915.142 438.421 819.705 448.75 C 805.285 450.313 731.694 457.607 723.731 461.748 C 696.039 459.701 599.01 476.877 579.237 494.798 C 575.685 493.722 572.383 491.745 569.299 489.696 C 559.708 483.323 550.4 473.149 548.329 461.566 C 547.057 454.452 548.774 447.706 552.991 441.872 C 579.841 404.729 721.597 392.1 768.088 385.09 z"/>
<path transform="translate(0,0)" fill="rgb(247,115,9)" d="M 1219.23 1623.72 C 1264.31 1625.39 1272.7 1658.31 1241.34 1688.36 C 1261.93 1697.89 1303.81 1695.91 1306.09 1729.69 C 1307.86 1756.01 1304.11 1782.91 1304.06 1809.35 C 1304.05 1818.64 1303.92 1829.96 1297.94 1837.47 C 1286.19 1852.59 1252.82 1848.56 1234.77 1848.52 L 1169.64 1848.45 L 950.572 1848.44 L 658.531 1848.41 C 614.043 1848.42 569.353 1849.01 524.88 1848.82 C 496.319 1848.69 486.66 1834.46 485.612 1807.07 C 484.566 1779.73 483.683 1750.53 486.836 1723.25 C 489.404 1700.53 538.744 1693.47 557.198 1689.41 C 652.511 1668.83 749.473 1656.82 846.925 1653.51 C 863.774 1652.73 880.635 1652.25 897.5 1652.09 C 907.464 1652.07 917.874 1652.85 927.571 1652.57 C 943.258 1654.77 957.51 1653.9 973.252 1653.96 C 987.651 1654.14 1002.04 1654.71 1016.41 1655.67 C 1062.77 1659 1118.69 1668.02 1164.57 1675.28 C 1170.94 1668.84 1185.94 1663.48 1190.47 1658.7 C 1201.87 1646.66 1206.72 1636.68 1219.23 1623.72 z M 548.464 1785.26 C 590.949 1783.13 647.499 1784.66 690.919 1784.68 L 953.5 1784.74 L 1169.19 1784.8 C 1191.58 1784.92 1218.94 1783.91 1240.58 1784.54 C 1239.82 1774.33 1240.1 1765.07 1240.27 1754.87 C 1227.53 1752.76 1215.33 1749.35 1202.69 1746.61 C 1186.32 1743.1 1169.86 1740.05 1153.32 1737.48 C 1074.17 1724.75 994.898 1719.62 914.806 1718.54 C 893.994 1718.26 858.292 1716.84 838.105 1718.43 C 772.638 1721.84 713.972 1724.97 648.849 1735.71 C 614.924 1741.31 581.677 1750.05 549.013 1755.38 C 551.117 1767.06 552.222 1773.56 548.464 1785.26 z"/>
<path transform="translate(0,0)" fill="rgb(3,58,182)" d="M 1219.23 1623.72 C 1264.31 1625.39 1272.7 1658.31 1241.34 1688.36 C 1221.67 1686.98 1185.63 1679.22 1164.57 1675.28 C 1170.94 1668.84 1185.94 1663.48 1190.47 1658.7 C 1201.87 1646.66 1206.72 1636.68 1219.23 1623.72 z"/>
<path transform="translate(0,0)" fill="rgb(247,115,9)" d="M 1469.64 733.19 C 1479.86 731.804 1498.29 739.557 1501.27 748.228 C 1509.74 772.83 1506.75 814.063 1506.72 839.137 L 1506.73 952.097 L 1506.74 1017.89 C 1506.75 1027.06 1507.57 1048.49 1505.62 1056.23 C 1552.6 1054.23 1611.28 1055.88 1658.95 1055.95 C 1650.23 1065.91 1636.8 1078.66 1627.16 1088.1 L 1568.26 1145.2 C 1537.07 1175.58 1502.91 1211.99 1470.86 1240.32 C 1466.36 1238.09 1437.08 1207.45 1431.62 1202.09 L 1335.25 1107.98 C 1318.24 1091.36 1299.55 1072.14 1282.27 1056.13 C 1321.98 1053.99 1362.39 1055.49 1402.18 1054.83 C 1414.37 1054.63 1427.02 1054.69 1439.17 1055.23 C 1437.93 1043.1 1438.57 1019.58 1438.53 1006.34 L 1438.24 916.874 L 1438.21 821.587 C 1438.21 803.789 1437.52 781.212 1439.22 764.033 C 1439.78 757.858 1441.93 751.936 1445.48 746.852 C 1451.54 738.189 1459.72 735.041 1469.64 733.19 z"/>
<path transform="translate(0,0)" fill="rgb(3,58,182)" d="M 1193.66 525.064 C 1210.28 524.858 1241.02 521.019 1253.11 533.286 C 1272.13 552.596 1257.35 583.454 1232.21 587.293 C 1214.2 590.637 1197.87 591.991 1180.26 593.908 L 1108.9 602.174 C 1029.34 611.471 949.698 620.055 869.987 627.927 C 853.174 629.536 761.299 638.052 752.978 642.689 L 752.167 642.763 C 745.25 643.337 738.319 642.59 731.384 643.126 C 703.299 645.298 598.885 657.424 580.552 677.364 C 580.334 677.601 580.146 677.865 579.943 678.115 C 559.175 670.799 550.828 660.093 545.561 639.179 C 550.896 620.594 564.883 609.622 582.994 604.181 C 675.718 576.323 775.524 574.749 870.932 560.931 C 885.706 558.791 903.965 558.285 917.74 554.2 C 944.959 553.618 991.281 549.527 1018.06 546.229 C 1046.5 542.726 1176.28 537.909 1193.66 525.064 z"/>
<path transform="translate(0,0)" fill="rgb(3,58,182)" d="M 1195.53 712.334 C 1212.16 711.895 1239.01 709.379 1252.25 720.825 C 1263.11 730.224 1262.81 760.135 1251.38 768.129 C 1234.48 779.958 1201.03 780.226 1180.9 782.154 L 1099.64 789.809 C 1067.75 792.884 750.652 821.697 746.984 823.758 C 719.598 824.614 593.202 837.912 579.71 860.332 C 565.579 854.576 550.819 842.367 546.97 827.301 C 539.433 797.793 580.664 786.106 601.129 780.606 C 636.347 771.14 672.625 766.074 708.575 761.569 C 761.905 755.238 815.33 749.736 868.831 745.067 C 886.727 743.358 914.135 742.362 930.616 738.173 C 951.482 740.628 1184.21 719.872 1195.53 712.334 z"/>
<path transform="translate(0,0)" fill="rgb(3,58,182)" d="M 1183.09 893.004 C 1206.99 898.764 1238.1 883.576 1255.36 908.441 C 1260.16 915.36 1261.29 924.962 1259.23 932.985 C 1257.25 940.756 1252.23 947.408 1245.31 951.454 C 1230.17 960.392 1131.33 967.108 1106 969.721 L 818.532 997.749 C 807.285 998.845 745.999 1003.52 740.097 1006.63 C 710.053 1007.76 599.071 1018.84 579.782 1041.1 C 561.784 1034.37 550.049 1019.47 545.315 1001.15 C 546.616 996.796 548.007 991.945 550.37 988.043 C 553.136 983.477 556.885 980.294 561.534 977.765 C 610.111 951.336 806.228 930.702 869.318 925.118 C 885.54 923.682 910.534 926.007 925.066 922.31 C 929.631 921.393 935.66 921.705 940.688 921.095 C 1007.94 912.931 1075.74 909.387 1143.01 901.432 C 1152.52 900.307 1176.74 898.671 1183.09 893.004 z"/>
<path transform="translate(0,0)" fill="rgb(3,58,182)" d="M 1190.94 1444.78 C 1207.68 1443.92 1239.54 1441.69 1252.14 1452.76 C 1253.75 1454.21 1255.31 1455.7 1256.81 1457.25 C 1265.58 1487.23 1255.03 1499.82 1225.48 1507.06 C 1187.66 1516.33 1147.53 1514.72 1108.82 1518.21 L 826.232 1543.9 L 773.998 1548.52 C 768.247 1549 747.058 1550.26 742.538 1551.91 C 719.471 1552.4 590.959 1568.63 581.015 1584.59 C 568.395 1579.05 554.805 1569.19 549.738 1555.96 C 547.227 1549.41 547.317 1542.72 550.228 1536.32 C 554.205 1527.56 561.74 1522.78 570.105 1518.83 C 630.025 1490.47 808.538 1478.96 880.195 1473.27 C 895.052 1472.09 920.369 1474.79 933.471 1469.98 C 953.176 1469.69 971.773 1466.22 991.38 1465.37 C 1002.39 1464.9 1013.09 1463.2 1024.02 1462.31 L 1122.04 1454.25 C 1140.04 1452.86 1175.33 1453.19 1190.94 1444.78 z"/>
<path transform="translate(0,0)" fill="rgb(3,58,182)" d="M 1190.94 1073.08 C 1208.7 1072.21 1237.48 1068.02 1251.52 1081.16 C 1263.83 1092.66 1260.87 1116.31 1248.63 1126.85 C 1243.04 1131.74 1236.87 1134.08 1229.54 1135.52 C 1209.66 1139.01 1189.07 1140.59 1168.99 1142.64 L 1080.39 1151.87 L 827.449 1178.12 C 804.778 1180.48 782.131 1182.93 759.405 1184.67 C 754.379 1185.06 749.215 1185.16 744.398 1186.76 C 715.923 1188.43 597.598 1205.04 580.662 1222.71 C 565.678 1218.26 540.263 1192.53 548.115 1178 C 563.673 1149.21 633.459 1138.81 662.11 1133.6 C 733.74 1120.56 803.953 1115.24 875.937 1107.41 C 885.3 1106.39 923.81 1103.92 928.872 1101.62 C 948.606 1101.78 956.779 1100.21 975.245 1098.47 L 1053.53 1090.66 L 1134.06 1082.48 C 1147.93 1081.14 1181.11 1080.75 1190.94 1073.08 z"/>
<path transform="translate(0,0)" fill="rgb(3,58,182)" d="M 1189.33 1257.2 C 1207.34 1257.68 1241.36 1253.68 1252.32 1267.76 C 1298.1 1326.61 1177.95 1325.5 1147.85 1328.37 C 1129.16 1330.16 1113.24 1331.98 1096.01 1333.74 C 1013.4 1342.69 930.746 1351.2 848.046 1359.25 C 834.418 1360.46 752.039 1366.41 743.953 1370.74 C 735.417 1371.21 726.902 1370.91 718.38 1371.77 C 696.315 1374 595.063 1387.62 582.364 1401.9 C 582.08 1402.22 581.853 1402.59 581.598 1402.93 C 566.328 1399.33 554.723 1383.35 548.362 1370.05 C 549.874 1348.52 564.304 1337.92 583.695 1331.86 C 639.104 1314.56 698.892 1309.26 756.485 1303.34 L 881.105 1290.55 C 895.253 1289.2 915.326 1288.73 928.464 1286 C 935.316 1284.4 951.21 1286.36 957.247 1284.94 C 992.952 1276.59 1169.61 1271.61 1189.33 1257.2 z"/>
<path transform="translate(0,0)" fill="rgb(43,94,193)" d="M 742.538 1551.91 C 750.358 1554.18 759.844 1555.65 767.947 1556.89 C 817.626 1564.47 867.469 1570.35 917.153 1577.97 L 1133.36 1611.15 C 1157.46 1614.66 1196.6 1622.27 1219.23 1623.72 C 1206.72 1636.68 1201.87 1646.66 1190.47 1658.7 C 1185.94 1663.48 1170.94 1668.84 1164.57 1675.28 C 1118.69 1668.02 1062.77 1659 1016.41 1655.67 C 1002.04 1654.71 987.651 1654.14 973.252 1653.96 C 957.51 1653.9 943.258 1654.77 927.571 1652.57 C 925.22 1652.2 914.463 1648.98 910.754 1648.11 C 897.519 1644.98 884.151 1642.44 870.689 1640.5 C 795.82 1630.05 719.322 1625.37 646.077 1607.01 C 621.968 1600.97 603.794 1593.1 581.015 1584.59 C 590.959 1568.63 719.471 1552.4 742.538 1551.91 z"/>
<path transform="translate(0,0)" fill="rgb(43,94,193)" d="M 752.978 642.689 C 790.356 649.555 832.031 654.494 869.932 659.801 C 948.598 670.312 1027.12 681.861 1105.48 694.445 C 1122.21 697.242 1182.57 706.645 1195.53 712.334 C 1184.21 719.872 951.482 740.628 930.616 738.173 C 914.717 735.433 887.229 733.423 870.168 731.388 C 818.999 725.352 767.951 718.333 717.053 710.335 C 674.131 703.451 619.493 694.467 579.943 678.115 C 580.146 677.865 580.334 677.601 580.552 677.364 C 598.885 657.424 703.299 645.298 731.384 643.126 C 738.319 642.59 745.25 643.337 752.167 642.763 L 752.978 642.689 z"/>
<path transform="translate(0,0)" fill="rgb(43,94,193)" d="M 743.953 1370.74 C 894.553 1392.26 1042.15 1412.02 1190.94 1444.78 C 1175.33 1453.19 1140.04 1452.86 1122.04 1454.25 L 1024.02 1462.31 C 1013.09 1463.2 1002.39 1464.9 991.38 1465.37 C 971.773 1466.22 953.176 1469.69 933.471 1469.98 C 903.405 1463.64 878.828 1460.94 848.407 1456.58 C 792.946 1448.61 736.725 1440.98 681.648 1431.05 C 653.034 1425.89 607.094 1416.64 581.598 1402.93 C 581.853 1402.59 582.08 1402.22 582.364 1401.9 C 595.063 1387.62 696.315 1374 718.38 1371.77 C 726.902 1370.91 735.417 1371.21 743.953 1370.74 z"/>
<path transform="translate(0,0)" fill="rgb(43,94,193)" d="M 740.097 1006.63 L 926.832 1030.54 C 972.284 1036.91 1017.67 1043.74 1062.98 1051.04 C 1088.87 1055.05 1114.73 1059.22 1140.56 1063.55 C 1156.82 1066.24 1175.21 1068.83 1190.94 1073.08 C 1181.11 1080.75 1147.93 1081.14 1134.06 1082.48 L 1053.53 1090.66 L 975.245 1098.47 C 956.779 1100.21 948.606 1101.78 928.872 1101.62 C 911.966 1096.86 881.042 1094.98 862.822 1092.56 L 734.503 1076.12 C 688.553 1069.87 621.174 1060.22 579.782 1041.1 C 599.071 1018.84 710.053 1007.76 740.097 1006.63 z"/>
<path transform="translate(0,0)" fill="rgb(43,94,193)" d="M 744.398 1186.76 C 780.068 1194.79 829.561 1199.46 866.978 1204.95 C 932.923 1214.64 998.785 1224.89 1064.56 1235.68 C 1103.57 1241.98 1151.23 1248.94 1189.33 1257.2 C 1169.61 1271.61 992.952 1276.59 957.247 1284.94 C 951.21 1286.36 935.316 1284.4 928.464 1286 C 912.173 1281.04 881.166 1278.1 863.291 1275.22 C 826.897 1269.41 790.415 1264.17 753.858 1259.5 C 700.791 1252.32 630.475 1242.11 580.662 1222.71 C 597.598 1205.04 715.923 1188.43 744.398 1186.76 z"/>
<path transform="translate(0,0)" fill="rgb(43,94,193)" d="M 579.237 494.798 C 599.01 476.877 696.039 459.701 723.731 461.748 C 736.573 464.266 752.741 465.449 765.956 466.818 C 784.365 468.709 802.751 470.818 821.11 473.144 C 907.045 483.082 992.829 494.295 1078.43 506.781 C 1110.4 511.431 1164.42 517.671 1193.66 525.064 C 1176.28 537.909 1046.5 542.726 1018.06 546.229 C 991.281 549.527 944.959 553.618 917.74 554.2 C 905.281 551.766 879.523 549.634 865.703 547.823 L 751.7 532.639 C 697.057 525.259 629.597 516.365 579.237 494.798 z"/>
<path transform="translate(0,0)" fill="rgb(43,94,193)" d="M 746.984 823.758 C 786.862 832.066 827.469 836.458 867.588 842.974 C 971.703 859.885 1079.81 872.574 1183.09 893.004 C 1176.74 898.671 1152.52 900.307 1143.01 901.432 C 1075.74 909.387 1007.94 912.931 940.688 921.095 C 935.66 921.705 929.631 921.393 925.066 922.31 C 898.699 914.426 868.839 913.277 841.64 909.264 C 788.334 901.4 734.756 894.701 681.62 885.75 C 646.671 879.863 612.596 873.893 579.71 860.332 C 593.202 837.912 719.598 824.614 746.984 823.758 z"/>
</svg>