<svg version="1.1" xmlns="http://www.w3.org/2000/svg" style="display: block;" viewBox="0 0 2048 2048" width="512" height="512" preserveAspectRatio="none">
<path transform="translate(0,0)" fill="rgb(11,33,160)" d="M 468.813 288.34 C 486.521 287.393 508.188 288.01 526.252 288.053 L 621.45 288.13 L 927.611 288.124 L 1356.26 288.117 C 1431 288.117 1505.83 287.871 1580.57 288.439 C 1589.18 288.691 1598.5 289.136 1606.11 293.497 C 1624.93 304.286 1633.61 327.16 1643.02 345.872 L 1671.14 401.141 C 1683.11 424.865 1695.38 448.436 1707.95 471.849 C 1716.3 487.751 1733.63 519.915 1738.07 536.477 C 1732.38 556.175 1722.59 564.761 1702.24 559.605 C 1684.88 543.188 1678.27 521.186 1666.94 499.865 C 1650.53 468.977 1633.32 428.174 1613.81 399.781 C 1614.55 416.803 1612.32 446.374 1611.23 463.759 C 1608.7 502.68 1605.86 541.581 1602.71 580.457 L 1581.17 883.401 L 1544.85 1400.04 L 1533.13 1566.14 C 1530.29 1608.09 1533.1 1644.92 1516.99 1684.72 C 1493.27 1745.94 1421.59 1739.58 1367.36 1739.59 L 1270.46 1739.55 L 969.575 1739.56 L 735.375 1739.32 C 698.057 1739.22 657.043 1741.36 620.223 1737.16 C 570.016 1731.45 548.616 1686.21 543.689 1640.73 C 539.832 1605.13 537.572 1568.59 534.866 1532.42 L 521.202 1353.85 L 478.495 793.169 L 457.608 519.861 C 456.075 499.114 454.412 478.378 452.62 457.652 C 450.815 436.305 447.534 409.55 450.666 388.884 C 422.456 431.229 403.373 476.23 378.193 520.177 C 370.61 533.411 358.479 555.263 342.945 558.494 C 336.583 559.775 329.275 557.765 324.095 553.874 C 310.579 543.723 311.542 534.43 318.413 520.889 C 326.373 505.2 334.664 490.346 343.125 475.16 L 395.65 383.016 C 404.011 368.509 412.294 353.958 420.501 339.363 C 433.21 316.442 440.489 292.488 468.813 288.34 z M 756.763 1472.05 L 756.537 1428.92 C 769.904 1429.28 795.314 1429.81 808.567 1428.94 C 807.822 1444 808.712 1460.6 807.764 1474.96 C 844.747 1464.32 882.755 1449.3 918.957 1440.59 C 1030.63 1413.7 1152.31 1424.06 1260.39 1461 C 1260.23 1450.84 1260.2 1440.67 1260.29 1430.5 C 1259.46 1388.29 1260.28 1343.01 1260.28 1300.59 L 1260.3 1042.55 C 1260.31 1001.07 1260.96 958.79 1259.96 917.416 C 1246.14 935.172 1210.66 986.761 1185.12 973.344 C 1179.07 970.208 1174.67 964.62 1173.05 958.009 C 1171.31 950.953 1172.46 943.498 1176.23 937.288 C 1194.63 907.175 1241.74 866.157 1266.99 839.86 C 1276.09 830.376 1292.38 822.929 1303.57 835.057 C 1333.07 866.694 1361.05 895.552 1389.76 928.213 C 1406.32 947.048 1401.74 974.892 1376.57 975.955 C 1357.49 976.76 1326.33 933.26 1311.71 917.62 C 1311.86 921.663 1311.74 925.715 1311.67 929.762 C 1312.4 968.328 1311.9 1008.21 1311.9 1046.85 L 1311.91 1257.41 L 1311.9 1395.08 C 1311.89 1417.19 1312.75 1446.25 1311.68 1467.78 C 1385.82 1475.12 1419.66 1476.56 1492.95 1461.69 C 1491.94 1433.99 1494.45 1406.43 1496.44 1378.78 L 1503.4 1279.95 L 1527.42 934.143 L 1545.34 680.233 C 1547.16 654.201 1549.23 628.188 1551.55 602.196 C 1552.44 592.276 1553.87 571.522 1556.18 562.685 C 1484.94 564.462 1408.49 563.129 1336.98 563.127 L 932.045 563.106 L 652.991 563.103 L 560.589 563.097 C 545.722 563.095 525.84 563.634 511.256 562.839 C 512.643 577.763 512.739 593.273 513.937 608.363 L 526.157 761 L 558.337 1184.55 L 573.608 1385.05 C 574.995 1404.7 580.499 1454.94 578.027 1473.16 C 595.423 1471.98 609.797 1471.87 627.053 1472.17 C 634.107 1472.29 665.606 1473.22 670.291 1472.07 C 685.714 1454.2 700.669 1462.74 717.931 1471.94 C 725.905 1472.53 750.456 1474.63 756.763 1472.05 z M 1260.52 1510.28 C 1163.95 1491.61 1072.87 1463.98 972.59 1480.66 C 948.535 1484.66 923.308 1490.43 900.974 1500.27 C 869.354 1532.56 823.22 1589.51 785.441 1611.08 C 743.147 1592.93 726.522 1544.49 695.196 1520.83 C 671.421 1521.39 647.488 1520.05 623.707 1519.83 C 610.274 1519.7 596.783 1520.4 583.317 1520.51 C 584.892 1548.87 586.699 1577.13 589.175 1605.35 C 592.897 1647.76 588.722 1687.97 644.261 1689.75 C 662.973 1690.39 683.601 1690.36 702.815 1690.35 L 800.226 1690.32 L 1103.18 1690.32 L 1321.73 1690.33 L 1385.69 1690.34 C 1402.94 1690.32 1420.65 1690.7 1437.79 1688.57 C 1448.32 1687.26 1458.16 1684.32 1464.74 1675.49 C 1486.16 1646.75 1480.64 1551.95 1487.74 1512.9 C 1430.41 1525.87 1369.74 1521.46 1311.93 1517.52 L 1311.76 1533.48 C 1312.11 1564.9 1322.62 1635.67 1266.38 1605.7 C 1257.71 1601.08 1260.15 1535.9 1260.3 1525.5 L 1260.52 1510.28 z M 1557.98 503.435 C 1560.06 489.045 1561.11 469.976 1562.31 455.171 C 1564.48 429.84 1566.38 404.486 1568 379.114 C 1568.65 368.181 1568.57 346.306 1569.86 337.006 C 1549.74 337.47 1527.78 336.785 1507.31 336.95 C 1441.53 337.723 1375.75 337.987 1309.97 337.74 L 854.032 337.719 L 609.39 337.715 L 535.609 337.806 C 525.75 337.819 504.852 338.392 495.767 337.316 C 495.436 341.658 497.853 379.333 498.245 385.088 C 501.041 426.205 503.024 469.317 508.458 510.057 C 546.688 517.679 593.224 514.045 632.37 513.942 C 674.198 513.831 716.041 513.809 757.872 513.808 L 1310.95 513.807 C 1330.96 513.806 1555.12 514.435 1557.55 513.076 C 1558.19 508.911 1558.12 507.708 1557.98 503.435 z"/>
<path transform="translate(0,0)" fill="rgb(249,98,36)" d="M 775.641 666.974 C 777.833 666.804 780.036 667.062 782.129 667.736 C 806.344 675.279 857.464 729.564 875.519 750.089 C 884.933 761.078 898.135 772.232 905.027 784.981 C 913.121 799.953 893.049 813.704 881.838 819.135 C 879.15 818.229 872.541 816.032 870.489 814.343 C 849.459 797.03 825.997 771.22 808.039 751.034 C 809.527 801.558 807.659 854.889 808.508 906.063 L 789.605 906.477 C 779.836 906.428 765.94 906.444 756.484 907.659 C 755.012 871.762 757.933 834.243 756.608 798.163 C 756.07 783.501 755.838 766.259 756.554 751.656 C 736.922 772.119 676.124 860.995 659.385 790.707 C 659.667 789.834 659.949 788.961 660.231 788.088 L 660.634 786.952 C 665 774.432 681.774 758.518 690.768 748.593 C 717.027 719.622 743.711 689.999 775.641 666.974 z"/>
<path transform="translate(0,0)" fill="rgb(249,98,36)" d="M 755.931 1311.88 C 772.925 1312.3 791.647 1311.87 808.778 1311.85 C 807.637 1323.97 807.748 1361.07 809.145 1373.17 C 791.503 1372.71 773.853 1372.68 756.21 1373.09 C 755.489 1354.19 755.983 1331.09 755.931 1311.88 z"/>
<path transform="translate(0,0)" fill="rgb(249,98,36)" d="M 755.857 1195.9 C 770.594 1195.7 795.14 1194.23 808.335 1198.38 C 812.341 1216.21 810.371 1234.58 809.401 1252.75 C 806.119 1254.6 764.618 1254.27 757.388 1254.45 C 755.332 1239.45 755.955 1211.78 755.857 1195.9 z"/>
<path transform="translate(0,0)" fill="rgb(249,98,36)" d="M 755.997 963.926 C 773.167 964.338 792.67 963.065 809.525 965.223 C 810.438 982.282 809.901 1004.66 808.888 1021.74 C 799.838 1023.21 770.62 1022 756.552 1023.46 C 755.507 1005.28 756.055 982.444 755.997 963.926 z"/>
<path transform="translate(0,0)" fill="rgb(249,98,36)" d="M 756.131 1079.96 C 770.461 1081.13 794.463 1080.7 808.71 1079.95 C 807.604 1097.62 807.963 1120.88 808.684 1138.7 C 799.107 1140.55 771 1137.95 756.476 1140.16 C 755.62 1122.06 755.891 1098.22 756.131 1079.96 z"/>
<path transform="translate(0,0)" fill="rgb(249,98,36)" d="M 1259.96 917.416 C 1246.14 935.172 1210.66 986.761 1185.12 973.344 C 1179.07 970.208 1174.67 964.62 1173.05 958.009 C 1171.31 950.953 1172.46 943.498 1176.23 937.288 C 1194.63 907.175 1241.74 866.157 1266.99 839.86 C 1276.09 830.376 1292.38 822.929 1303.57 835.057 C 1333.07 866.694 1361.05 895.552 1389.76 928.213 C 1406.32 947.048 1401.74 974.892 1376.57 975.955 C 1357.49 976.76 1326.33 933.26 1311.71 917.62 C 1311.86 921.663 1311.74 925.715 1311.67 929.762 C 1310.28 970.208 1311.36 1017.38 1311.37 1058.37 L 1311.41 1297.25 L 1311.39 1452 C 1311.33 1476.69 1309.74 1509.54 1311.76 1533.48 C 1312.11 1564.9 1322.62 1635.67 1266.38 1605.7 C 1257.71 1601.08 1260.15 1535.9 1260.3 1525.5 C 1262.76 1497.04 1261.09 1459.46 1260.29 1430.5 C 1259.46 1388.29 1260.28 1343.01 1260.28 1300.59 L 1260.3 1042.55 C 1260.31 1001.07 1260.96 958.79 1259.96 917.416 z"/>
<path transform="translate(0,0)" fill="rgb(11,33,160)" d="M 807.764 1474.96 C 844.747 1464.32 882.755 1449.3 918.957 1440.59 C 1030.63 1413.7 1152.31 1424.06 1260.39 1461 C 1260.23 1450.84 1260.2 1440.67 1260.29 1430.5 C 1261.09 1459.46 1262.76 1497.04 1260.3 1525.5 L 1260.52 1510.28 C 1163.95 1491.61 1072.87 1463.98 972.59 1480.66 C 948.535 1484.66 923.308 1490.43 900.974 1500.27 C 894.853 1429.67 830.179 1502.96 808.384 1523.53 C 808.108 1506.84 803.754 1493.55 807.764 1474.96 z"/>
<path transform="translate(0,0)" fill="rgb(249,98,36)" d="M 756.537 1428.92 C 769.904 1429.28 795.314 1429.81 808.567 1428.94 C 807.822 1444 808.712 1460.6 807.764 1474.96 C 803.754 1493.55 808.108 1506.84 808.384 1523.53 C 830.179 1502.96 894.853 1429.67 900.974 1500.27 C 869.354 1532.56 823.22 1589.51 785.441 1611.08 C 743.147 1592.93 726.522 1544.49 695.196 1520.83 C 682.029 1501.33 670.539 1501.81 670.291 1472.07 C 685.714 1454.2 700.669 1462.74 717.931 1471.94 C 725.905 1472.53 750.456 1474.63 756.763 1472.05 L 756.537 1428.92 z"/>
<path transform="translate(0,0)" fill="rgb(11,33,160)" d="M 717.931 1471.94 C 725.905 1472.53 750.456 1474.63 756.763 1472.05 C 757.558 1486.49 757.131 1502 756.983 1516.54 C 747.083 1506.16 724.494 1483.12 717.931 1471.94 z"/>
</svg>