<svg version="1.1" xmlns="http://www.w3.org/2000/svg" style="display: block;" viewBox="0 0 2048 2048" width="512" height="512" preserveAspectRatio="none">
<path transform="translate(0,0)" fill="rgb(251,109,4)" d="M 892.675 1180.63 C 897.091 1179.21 900.971 1174.99 904.884 1172.27 C 930.2 1154.68 956.141 1137.77 981.96 1120.89 L 1374.41 866.822 C 1401.02 849.837 1427.32 832.876 1454.35 816.446 C 1478.35 801.86 1500.18 782.739 1526.58 772.181 C 1573.24 753.525 1627.43 769.158 1645.92 818.467 C 1653.82 839.537 1654.24 865.074 1644.76 885.8 C 1639.34 897.858 1630.7 908.187 1619.78 915.652 C 1608.58 923.468 1583.23 936.174 1570.51 942.743 L 1483.47 987.534 L 1103.51 1184.94 C 1068.56 1203.07 1034.11 1221.68 998.943 1239.46 L 962.663 1257.51 C 959.135 1259.25 948.521 1264.15 945.759 1265.94 L 947.326 1270.47 C 971.341 1341.45 968.763 1418.73 940.072 1487.95 C 931.493 1508.87 919.98 1528.19 909.933 1548.59 L 1407.7 1548.61 L 1561.15 1548.55 C 1585.97 1548.5 1623.54 1547.3 1647.44 1549.05 C 1622.13 1535.59 1597.05 1521.68 1572.22 1507.34 C 1553.11 1496.41 1528.4 1485.86 1520 1464.38 C 1524.53 1454.72 1528.56 1452.09 1537.52 1447.16 C 1558.44 1456.03 1599.13 1480.39 1620.93 1492.2 L 1687.13 1527.69 C 1702.38 1535.96 1730.35 1548.76 1738.93 1563.21 L 1735.32 1573.56 C 1729.05 1579.49 1713.87 1587.97 1705.96 1592.7 L 1662.43 1618.59 L 1593.51 1659.65 C 1578.16 1668.79 1553.19 1685.69 1536.44 1689.33 C 1532.04 1686.19 1528.81 1683.44 1526.2 1678.59 C 1523.84 1674.22 1522.59 1669.69 1524.14 1664.83 C 1529.06 1649.48 1630.46 1595.05 1649.24 1585.18 C 1634.06 1587.84 1589.96 1586.43 1571.89 1586.39 L 1425.09 1586.37 L 878.52 1586.24 C 857.546 1606.55 850.378 1615.95 825.116 1633.82 C 755.859 1682.8 671.892 1698.72 588.989 1684.57 C 499.348 1669.84 419.219 1620.14 366.199 1546.37 C 317.812 1477.63 302.068 1393.88 316.507 1311.69 C 330.194 1231.02 375.772 1159.27 442.966 1112.59 C 515.272 1062.72 604.309 1043.34 690.801 1058.64 C 756.613 1070.22 817.285 1101.72 864.622 1148.89 C 873.445 1157.64 885.636 1170.55 892.675 1180.63 z M 908.466 1284.93 C 894.997 1290.53 879.616 1299.15 866.127 1305.49 C 852.939 1311.69 838.339 1317.92 825.595 1324.52 C 840.964 1344.22 856.762 1364.67 869.445 1386.19 C 880.339 1404.68 879.222 1412.96 860.22 1422.08 C 848.149 1421.36 830.866 1418.34 818.467 1416.61 L 744.69 1406.63 C 718.551 1403.23 692.452 1401.5 666.639 1397.51 C 655.158 1395.73 638.069 1387.32 643.396 1373.31 C 660.805 1327.52 683.532 1283.36 707.031 1240.41 C 713.536 1228.52 718.137 1214.61 726.266 1203.21 C 752.033 1162.96 779.09 1249.28 787.128 1252.1 C 808.422 1232.94 837.954 1216.56 861.904 1201.11 C 823.808 1150.49 777.783 1117.64 716.013 1100.79 C 628.275 1076.85 529.79 1094.36 457.14 1149.7 C 398.716 1194.74 360.535 1261.11 350.965 1334.26 C 344.563 1382.61 350.28 1431.59 370.843 1476.2 C 373.645 1482.28 379.058 1493.97 383.169 1499.13 C 393.607 1503.99 407.443 1518.34 417.323 1526.16 C 449.759 1551.81 479.89 1569.38 518.971 1582.85 C 589.209 1607.14 666.244 1602.31 732.899 1569.44 C 786.504 1543.16 836.214 1497.31 867.563 1445.95 C 879.83 1425.1 886.153 1402.3 891.97 1379.3 C 899.049 1351.31 898.583 1311.32 908.466 1284.93 z M 791.198 1296.18 C 800.09 1295.48 819.537 1284.38 828.478 1279.98 L 884.128 1252.82 C 978.892 1205.84 1073.01 1157.56 1166.46 1108.02 L 1442.52 964.017 L 1532.83 917.138 C 1553.94 906.272 1594.99 890.082 1608.03 871.172 C 1632.11 836.252 1586.66 788.418 1548.68 803.703 C 1527.8 812.105 1508.38 827.227 1489.14 839.537 L 1344.14 933.678 L 805.959 1282.56 C 801.51 1285.5 792.354 1291.22 790.093 1295.59 L 791.198 1296.18 z"/>
<path transform="translate(0,0)" fill="rgb(0,45,184)" d="M 878.52 1586.24 C 857.546 1606.55 850.378 1615.95 825.116 1633.82 C 755.859 1682.8 671.892 1698.72 588.989 1684.57 C 499.348 1669.84 419.219 1620.14 366.199 1546.37 C 317.812 1477.63 302.068 1393.88 316.507 1311.69 C 330.194 1231.02 375.772 1159.27 442.966 1112.59 C 515.272 1062.72 604.309 1043.34 690.801 1058.64 C 756.613 1070.22 817.285 1101.72 864.622 1148.89 C 873.445 1157.64 885.636 1170.55 892.675 1180.63 C 882.531 1188.56 873.092 1194.69 861.904 1201.11 C 823.808 1150.49 777.783 1117.64 716.013 1100.79 C 628.275 1076.85 529.79 1094.36 457.14 1149.7 C 398.716 1194.74 360.535 1261.11 350.965 1334.26 C 344.563 1382.61 350.28 1431.59 370.843 1476.2 C 373.645 1482.28 379.058 1493.97 383.169 1499.13 C 393.607 1503.99 407.443 1518.34 417.323 1526.16 C 449.759 1551.81 479.89 1569.38 518.971 1582.85 C 589.209 1607.14 666.244 1602.31 732.899 1569.44 C 786.504 1543.16 836.214 1497.31 867.563 1445.95 C 879.83 1425.1 886.153 1402.3 891.97 1379.3 C 899.049 1351.31 898.583 1311.32 908.466 1284.93 L 912.507 1283.34 C 924.358 1275.84 932.906 1271.67 945.759 1265.94 L 947.326 1270.47 C 971.341 1341.45 968.763 1418.73 940.072 1487.95 C 931.493 1508.87 919.98 1528.19 909.933 1548.59 L 1407.7 1548.61 L 1561.15 1548.55 C 1585.97 1548.5 1623.54 1547.3 1647.44 1549.05 C 1622.13 1535.59 1597.05 1521.68 1572.22 1507.34 C 1553.11 1496.41 1528.4 1485.86 1520 1464.38 C 1524.53 1454.72 1528.56 1452.09 1537.52 1447.16 C 1558.44 1456.03 1599.13 1480.39 1620.93 1492.2 L 1687.13 1527.69 C 1702.38 1535.96 1730.35 1548.76 1738.93 1563.21 L 1735.32 1573.56 C 1729.05 1579.49 1713.87 1587.97 1705.96 1592.7 L 1662.43 1618.59 L 1593.51 1659.65 C 1578.16 1668.79 1553.19 1685.69 1536.44 1689.33 C 1532.04 1686.19 1528.81 1683.44 1526.2 1678.59 C 1523.84 1674.22 1522.59 1669.69 1524.14 1664.83 C 1529.06 1649.48 1630.46 1595.05 1649.24 1585.18 C 1634.06 1587.84 1589.96 1586.43 1571.89 1586.39 L 1425.09 1586.37 L 878.52 1586.24 z"/>
<path transform="translate(0,0)" fill="rgb(194,207,253)" d="M 912.507 1283.34 C 935.899 1355.29 932.366 1428.24 897.573 1496.15 C 861.392 1565.26 799.34 1617.25 724.962 1640.78 C 651.229 1664.17 571.166 1656.74 503 1620.17 C 464.232 1599.79 394.014 1542.52 383.169 1499.13 C 393.607 1503.99 407.443 1518.34 417.323 1526.16 C 449.759 1551.81 479.89 1569.38 518.971 1582.85 C 589.209 1607.14 666.244 1602.31 732.899 1569.44 C 786.504 1543.16 836.214 1497.31 867.563 1445.95 C 879.83 1425.1 886.153 1402.3 891.97 1379.3 C 899.049 1351.31 898.583 1311.32 908.466 1284.93 L 912.507 1283.34 z"/>
<path transform="translate(0,0)" fill="rgb(252,175,112)" d="M 698.944 1345.83 C 713.207 1315.02 728.09 1284.5 743.584 1254.28 C 747.45 1261.39 749.294 1265.5 752.321 1273.03 C 744.128 1279.13 739.701 1283.05 741.463 1293.91 C 745.651 1319.71 774.666 1300.29 790.093 1295.59 L 791.198 1296.18 C 791.861 1301.1 780.118 1309.58 779.934 1315.8 C 779.412 1333.42 809.095 1362.09 820.712 1379.29 C 782.744 1376.45 730.389 1368.74 691.592 1363.4 C 698.837 1356.64 700.376 1356.07 698.944 1345.83 z"/>
<path transform="translate(0,0)" fill="rgb(0,45,184)" d="M 781.848 339.165 C 966.225 328.817 1124.03 470.014 1134.16 654.403 C 1144.29 838.792 1002.91 996.429 818.509 1006.35 C 634.413 1016.25 477.093 875.149 466.978 691.065 C 456.862 506.98 597.775 349.495 781.848 339.165 z M 663.76 937.249 C 675.418 935.567 695.471 935.986 707.659 935.974 C 734.784 936.006 761.907 936.406 789.022 937.174 C 788.838 924.918 793.752 893.083 814.734 906.757 C 823.193 912.271 824.664 925.075 826.108 934.497 C 848.182 928.929 890.186 910.468 909.935 899.229 C 972.454 864.394 1020.48 808.377 1045.35 741.27 C 1052.22 722.702 1055.66 705.978 1060.87 687.064 C 1050.71 685.578 1025.31 678.332 1024.61 665.963 C 1030.56 648.703 1080.57 650.847 1095.11 653.001 C 1092.82 635.016 1092.57 618.54 1088.74 600.617 C 1062.88 479.812 955.476 391.428 834.746 376.644 C 829.507 376.003 823.884 375.364 818.693 374.419 C 819.331 392.527 825.44 460.186 788.099 434.567 C 779.093 428.388 781.706 385.472 782.183 374.117 C 760.494 378.072 743.379 380.342 721.993 386.614 C 653.367 406.892 593.647 449.844 552.589 508.453 C 530.363 540.542 515.586 577.192 509.339 615.724 C 507.25 628.578 506.89 640.697 504.965 653.064 C 517.587 652.168 529.938 652.312 541.689 652.026 C 554.681 651.71 585.471 653.554 583.057 672.543 C 580.522 692.479 519.232 687.951 505.774 686.932 C 511.239 774.6 545.859 844.287 611.522 902.464 C 619.888 909.876 653.62 933.325 663.76 937.249 z"/>
<path transform="translate(0,0)" fill="rgb(0,45,184)" d="M 943.787 523.648 L 945.501 525.281 C 941.975 538.571 870.982 627.522 857.949 643.211 C 866.739 678.813 857.742 717.719 817.429 729.773 C 804.268 733.708 785.406 730.412 773.597 723.277 L 773.282 723.718 C 760.841 741.505 684.785 801.179 665.363 812.455 L 663.437 813.175 L 662.021 812.467 C 661.773 794.016 733.574 714.29 748.35 698.826 C 743.209 683.041 741.996 661.62 747.48 645.777 C 751.813 633.022 761.159 622.585 773.36 616.875 C 790.278 609.06 812.682 611.309 829.747 617.532 C 859.79 581.086 905.756 551.257 943.787 523.648 z M 807.488 694.982 C 819.522 692.386 827.794 681.306 826.861 669.03 C 826.326 661.991 822.797 655.52 817.169 651.257 C 811.542 646.995 804.356 645.351 797.435 646.743 C 784.03 649.439 775.384 662.537 778.174 675.924 C 780.963 689.311 794.121 697.865 807.488 694.982 z"/>
<path transform="translate(0,0)" fill="rgb(194,207,253)" d="M 1060.87 687.064 C 1067.36 684.922 1087.21 686.268 1095.26 686.186 C 1091.71 766.919 1056.01 842.876 996.115 897.131 C 962.571 927.64 922.242 949.72 878.468 961.543 C 861.239 966.061 842.382 968.872 824.853 973.016 C 824.845 967.528 824.142 937.248 826.108 934.497 C 848.182 928.929 890.186 910.468 909.935 899.229 C 972.454 864.394 1020.48 808.377 1045.35 741.27 C 1052.22 722.702 1055.66 705.978 1060.87 687.064 z"/>
<path transform="translate(0,0)" fill="rgb(194,207,253)" d="M 663.76 937.249 C 675.418 935.567 695.471 935.986 707.659 935.974 C 734.784 936.006 761.907 936.406 789.022 937.174 C 789.262 949.231 789.287 961.292 789.097 973.35 C 755.145 971.013 690.823 958.012 663.76 937.249 z"/>
<path transform="translate(0,0)" fill="rgb(251,109,4)" d="M 1097.69 956.087 C 1105.9 957.69 1113.34 961.092 1117.69 968.747 C 1123.1 978.28 1116.63 984.745 1109.39 990.233 C 1089.73 1005.12 1068.19 1017.17 1047.62 1030.76 C 1024.87 1045.7 1002.05 1060.52 979.134 1075.21 C 960.14 1087.49 942.996 1099.07 922.891 1109.99 C 912.812 1111.25 908.015 1104.67 903.233 1096.92 C 894.877 1083.38 921.052 1065.62 930.847 1059.01 C 952.593 1044.32 977.579 1027.69 1000.38 1014.57 C 1029.08 998.061 1067 966.015 1097.69 956.087 z"/>
<path transform="translate(0,0)" fill="rgb(251,109,4)" d="M 1242.6 860.132 C 1245.05 860.002 1247.86 859.701 1250.26 860.271 C 1254.39 861.252 1259.92 866.177 1261.88 869.92 C 1263.8 873.586 1264.82 879.163 1263.15 883.104 C 1257.13 897.335 1179.52 943.869 1162.06 952.309 C 1152.49 952.511 1144.2 947.317 1140.48 938.846 C 1135.75 928.097 1151.9 915.084 1159.04 909.924 C 1184.7 891.37 1213.78 872.828 1242.6 860.132 z"/>
</svg>