<svg version="1.1" xmlns="http://www.w3.org/2000/svg" style="display: block;" viewBox="0 0 2048 2048" width="512" height="512" preserveAspectRatio="none">
<path transform="translate(0,0)" fill="rgb(1,1,221)" d="M 1153.56 1015.43 C 1214.74 1011.6 1279.99 1100.64 1314.46 1144.24 C 1329.31 1163.02 1354.21 1196.57 1375.84 1207.1 C 1383.54 1210.85 1388.2 1211.12 1395.89 1207.03 C 1413.26 1197.79 1427.52 1177.98 1440.35 1163.25 C 1470.4 1128.73 1547.28 1032.14 1586.61 1019.67 C 1607.71 1012.98 1630.68 1016.66 1650.03 1026.81 C 1664.46 1034.38 1677.44 1044.97 1689.05 1056.33 C 1712.88 1079.65 1731.91 1107 1753.29 1132.42 C 1767.41 1149.2 1783.55 1164.29 1796.8 1181.77 C 1802.3 1189.03 1808.06 1196.67 1810.62 1205.54 C 1812.31 1211.38 1812.45 1217.7 1809.31 1223.08 C 1804.6 1231.13 1796.51 1233.59 1788.07 1235.75 C 1783.93 1234.36 1780.11 1233 1776.56 1230.39 C 1765.36 1222.14 1757.34 1210.44 1748.5 1199.91 C 1721.02 1167.13 1663.27 1086.11 1628.46 1068.79 C 1618.64 1063.9 1608.26 1062.35 1598 1066.86 C 1580.17 1074.69 1558.13 1103.69 1545.36 1118.64 C 1528.73 1138.1 1510.88 1156.65 1494.03 1175.93 C 1478.64 1193.52 1458.21 1219.52 1441.15 1234.12 C 1431.83 1242.09 1421.32 1248.93 1409.58 1252.7 C 1319.43 1281.65 1241.82 1103.72 1171.72 1067.76 C 1161.5 1062.52 1153.56 1061.28 1142.86 1065.97 C 1126.08 1073.33 1112.85 1090.22 1100.84 1103.58 C 1080.22 1126.92 1059.93 1150.55 1039.99 1174.48 C 1021.65 1196.6 1003.17 1219.67 981.944 1239.03 C 955.815 1262.86 924.284 1261.95 894.418 1245.86 C 882.288 1240.56 870.27 1227.9 860.944 1218.6 C 829.845 1187.59 803.26 1152.88 774.683 1119.63 C 762.865 1105.87 751.696 1091.52 737.92 1079.58 C 730.336 1073.01 719.995 1066.38 710.104 1064.23 C 701.41 1062.34 693.002 1064.7 685.302 1068.78 C 648.407 1088.32 604.223 1155.42 575.858 1188.92 C 559.658 1208.05 542.549 1226.88 521.48 1240.78 C 504.307 1252.1 485.523 1258.65 464.866 1254.21 C 405.782 1241.51 342.071 1136.51 297.454 1093.95 C 281.903 1079.11 251.043 1067.33 240.679 1050.15 C 238.302 1046.29 237.613 1041.62 238.775 1037.24 C 240.608 1030.16 246.326 1023.91 252.749 1020.6 C 310.607 990.83 421.528 1190.3 474.473 1204.41 C 483.217 1206.74 490.858 1203.19 497.866 1198.06 C 512.149 1187.61 524.418 1172.16 535.994 1158.82 C 570.835 1118.67 616.903 1055.38 661.94 1028.93 C 735.489 985.748 801.344 1070.14 841.611 1121.27 C 854.093 1137.12 866.641 1152.79 879.71 1168.17 C 889.713 1179.93 900.526 1193.19 913.344 1201.98 C 919.576 1206.25 925.625 1208.63 932.884 1210.51 C 940.739 1208.04 946.524 1204.96 952.565 1199.41 C 1004.64 1151.52 1077.94 1021.17 1153.56 1015.43 z"/>
<path transform="translate(0,0)" fill="rgb(248,110,16)" d="M 688.657 728.309 C 743.331 722.967 787.764 773.964 820.569 810.663 C 840.8 833.296 860.483 856.204 882.102 877.499 C 893.421 888.649 908.19 900.861 922.833 907.305 C 934.44 911.975 952.544 905.339 962.166 898.032 C 1006.85 864.098 1041.08 817.713 1079.45 777.331 C 1091.28 764.883 1114.01 745.666 1129.57 738.169 C 1147.7 729.42 1168.13 726.604 1187.95 730.12 C 1260.29 743.152 1308.17 831.183 1358.3 877.97 C 1374.15 893.016 1402.11 918.965 1425.37 904.437 C 1488.49 865.015 1524.84 775.172 1592.57 742.627 C 1617.76 730.408 1646.81 728.838 1673.18 738.271 C 1699.87 748.011 1718.55 766.242 1738.57 785.33 C 1760.15 805.899 1844.58 881.721 1788.38 903.563 C 1753.36 885.624 1718.73 827.85 1685.21 799.998 C 1624.25 749.339 1582.13 806.202 1544.63 851.965 C 1484.04 925.901 1431.62 1000.07 1336.56 924.63 C 1328.47 917.288 1321.63 909.071 1314.35 900.98 C 1281.11 864.068 1251.34 820.555 1209.68 792.537 C 1197.56 784.388 1183.12 776.62 1168.07 777.656 C 1098.6 782.434 1037.54 940.48 950.484 957.102 C 926.853 961.614 904.655 953.742 885.045 940.66 C 870.542 930.985 857.214 917.445 845.133 904.966 C 809.895 868.565 769.411 814.884 728.498 787.93 C 719.405 781.941 707.291 775.359 696.179 775.328 C 627.933 775.134 562.09 941.889 473.174 958.731 C 449.502 963.215 426.586 954.29 407.193 941.143 C 396.321 933.773 387.657 924.977 378.448 915.7 C 345.481 882.486 319.781 842.332 285.856 810.222 C 273.074 798.123 241.839 785.8 238.864 766.727 C 238.079 761.699 239.821 757.012 242.716 752.952 C 246.67 747.406 252.394 742.877 259.318 742.047 C 304.034 736.686 389.41 867.608 425.634 896.248 C 437.959 905.992 454.672 913.335 470.427 909.48 C 513.527 898.933 569.738 811.274 601.869 777.779 C 615.227 763.855 631.714 750.038 648.596 740.674 C 661.316 733.618 674.332 730.234 688.657 728.309 z"/>
<path transform="translate(0,0)" fill="rgb(248,110,16)" d="M 697.709 557.416 C 769.629 555.703 839.104 674.932 894.198 716.566 C 909.739 728.311 927.872 734.873 947.258 728.679 C 958.745 725.008 968.133 717.225 977.311 709.692 C 1031.87 664.907 1086.32 567.596 1158.43 557.694 C 1247.19 545.507 1310.4 671.462 1372.56 717.595 C 1384.44 726.408 1398.18 734.189 1413.51 732.851 C 1480.39 727.013 1538.59 573.088 1636.42 559.041 C 1666.57 554.713 1697.63 566.686 1721.34 584.762 C 1745.29 603.032 1806.29 658.691 1809.35 687.796 C 1809.93 693.324 1808.1 698.42 1804.46 702.605 C 1801.22 706.343 1796.98 708.063 1792.07 708.206 C 1769.32 708.871 1742.97 670.84 1728.93 654.74 C 1720.46 645.021 1710.92 634.808 1701.16 626.395 C 1686.19 613.489 1666.68 600.952 1646.07 602.633 C 1605.51 605.942 1571.09 653.209 1547.66 682.27 C 1537.74 694.529 1527.64 706.64 1517.36 718.599 C 1458.69 786.874 1401.32 803.682 1329.38 741.73 C 1297.71 709.64 1210.6 599.095 1167.46 604.853 C 1118.26 611.421 1046.46 714.649 1008.74 748.929 C 914.038 835 834.594 722.616 772.095 658.181 C 746.93 632.958 713.327 585.185 672.714 609.342 C 599.435 652.928 531.666 814.067 427.483 773.081 C 369.976 750.457 323.505 679.762 281.05 636.937 C 264 619.738 247.031 614.191 237.075 591.03 C 238.658 587.349 240.321 583.59 242.76 580.381 C 246.553 575.389 251.956 571.889 258.242 571.193 C 302.499 566.295 387.344 688.792 421.129 716.981 C 433.462 727.271 448.039 734.868 464.587 732.961 C 504.594 728.35 547.577 668.914 572.103 639.073 C 598.135 607.401 628.678 573.427 669.527 561.884 C 678.665 559.302 688.288 558.35 697.709 557.416 z"/>
<path transform="translate(0,0)" fill="rgb(1,1,221)" d="M 696.957 1281.33 C 764.266 1275.92 826.245 1355.74 873.73 1393.82 C 902.583 1416.95 931.67 1439.25 968.451 1413.77 C 999.597 1392.2 1026.4 1366.04 1055.47 1341.91 C 1078.97 1322.27 1103.16 1299.02 1132.1 1287.91 C 1146.3 1282.37 1161.71 1280.69 1176.76 1283.04 C 1250.62 1295.19 1310.51 1386.45 1374.31 1418.82 C 1410.84 1439.8 1465.47 1389.84 1489.51 1365.18 C 1594.19 1257.87 1663.23 1256.57 1767.33 1365.72 C 1783.64 1382.83 1843.44 1419.66 1783.57 1440.08 C 1766.52 1433.5 1752.57 1416.76 1739.44 1404.44 C 1716.99 1383.37 1685.75 1351.94 1659.37 1337.44 C 1649.39 1331.96 1636.82 1326.7 1625.26 1328.45 C 1571.5 1336.61 1491.57 1448.96 1421.34 1468.83 C 1388.43 1478.14 1363 1468.33 1334.67 1452.35 C 1319.75 1442.19 1310.52 1435.17 1296.81 1423.4 C 1265.02 1396.11 1223.98 1350.61 1185.08 1335.47 C 1140.02 1317.93 1084.92 1378.37 1054.49 1405.19 C 1030.9 1425.97 1006.74 1449.64 977.218 1463.63 C 889.953 1503.43 820.728 1402.21 760.302 1356.22 C 743.028 1343.07 717.187 1319.73 693.502 1329.79 C 624.475 1359.1 562.395 1453.65 490.111 1473.64 C 429.633 1490.36 336.097 1389.18 291.998 1354.12 C 269.381 1336.16 250.322 1339.35 237.011 1310.92 C 240.662 1296.19 246.932 1289.17 261.271 1284.88 C 314.971 1298.2 376.054 1365.29 421.304 1399.26 C 436.361 1410.56 459.086 1426.53 478.898 1425.56 C 527.117 1423.19 614.207 1293.19 696.957 1281.33 z"/>
</svg>