<svg version="1.1" xmlns="http://www.w3.org/2000/svg" style="display: block;" viewBox="0 0 2048 2048" width="512" height="512" preserveAspectRatio="none">
<path transform="translate(0,0)" fill="rgb(13,66,198)" d="M 293.201 763.903 C 292.347 751.397 289.524 692.727 296.386 687.922 C 325.244 667.715 372.185 643.645 402.761 626.553 L 610.729 509.611 L 786.243 410.823 C 820.928 391.232 855.302 369.562 891.61 353.153 C 901.423 348.718 1025.9 366.624 1047.62 369.313 C 1100.57 375.864 1153.68 381.305 1206.69 387.32 L 1661.41 438.952 C 1686.7 441.986 1712.02 444.823 1737.36 447.464 C 1758.15 449.505 1791.81 449.236 1810.1 456.606 C 1817.42 459.557 1820.46 463.102 1823.27 470.552 C 1831.11 491.31 1827.91 572.535 1827.91 599.72 L 1827.89 716.38 L 1827.86 1032.25 L 1827.84 1228.91 C 1827.86 1250.96 1829.2 1272.88 1829.09 1294.9 C 1829.04 1303.77 1828.36 1312.79 1824.25 1320.81 C 1821.78 1326.03 1816.84 1329.23 1811.85 1332.14 C 1765.81 1358.96 1719.35 1385.63 1673.08 1412.02 C 1577 1466.94 1480.58 1521.25 1383.83 1574.95 L 1270.1 1638.62 C 1250.17 1649.84 1229.13 1663.79 1208.03 1671.88 C 1198.75 1675.44 1186.52 1674.09 1176.41 1673.02 C 1130.81 1668.19 1085.08 1663.15 1039.48 1658.32 L 733.788 1625.69 L 459.809 1596.35 C 435.37 1593.73 317.102 1584.01 303.169 1577.1 C 300.716 1575.88 298.463 1574.23 296.244 1572.63 C 289.768 1554.86 292.464 1519.74 292.537 1499.74 L 292.634 1395.77 L 292.667 1280.43 C 292.666 1263.25 292.33 1246.11 292.453 1228.91 C 292.636 1218.25 296.824 1208 307.257 1203.89 C 316.873 1200.1 325.466 1209.94 327.5 1218.35 C 333.931 1244.92 332.269 1275.17 332.277 1302.44 L 332.291 1376.95 C 332.296 1423.39 333.681 1477.93 332.111 1523.85 C 350.833 1512.93 367.859 1504.77 386.12 1494.64 C 384.46 1486.41 385.32 1448.44 385.36 1437.58 L 385.383 1320.18 L 385.192 853.88 C 370.195 850.962 345.995 850.239 332.507 846.906 C 332.257 877.089 332.198 907.274 332.33 937.458 C 332.342 954.809 334.521 986.852 327.105 1001.42 C 314.79 1009.52 305.719 1008.57 295.027 998.196 C 291.151 981.439 292.275 936.247 292.424 916.673 C 292.59 894.806 291.708 864.492 292.747 843.163 C 276.951 842.153 251.321 841.843 236.897 835.999 C 218.344 828.483 214.168 808.308 232.537 796.658 C 250.83 785.057 273.057 772.883 293.201 763.903 z M 425.362 1473.02 C 437.964 1466.21 452.588 1456.71 467.076 1456.77 C 481.805 1456.83 487.373 1482.49 477.577 1489.36 C 445.62 1511.75 407.365 1526.71 374.686 1548.08 C 414.719 1547.19 450.734 1552.98 490.336 1557.48 L 618.706 1571.39 L 967.155 1608.99 C 1036.54 1616.56 1107.5 1626.47 1176.87 1631.58 C 1175.47 1595.27 1176.52 1552.22 1176.52 1515.57 L 1176.53 1300.23 L 1176.53 1066.37 C 1176.52 1025.49 1175.49 980.748 1176.81 940.211 C 1127.41 936.177 1075.99 929.472 1026.52 924.199 L 675.696 886.043 L 488.05 865.516 C 475.153 863.975 435.197 860.982 424.872 858.369 C 427.303 886.673 425.515 924.007 425.303 953.084 L 425.251 1095.6 L 425.273 1339.56 C 425.34 1383.89 426.694 1428.84 425.362 1473.02 z M 1217.39 935.247 C 1218.91 959.278 1218.11 990.477 1218.11 1014.91 L 1218.11 1152.28 L 1218.3 1580.34 C 1218.31 1585.62 1216.44 1618.12 1217.55 1620.38 L 1219.5 1619.88 C 1270.47 1593.25 1326.1 1560.26 1376.57 1531.65 L 1645.74 1379.62 C 1664.78 1369.01 1683.62 1358.04 1702.24 1346.71 C 1727.7 1331.16 1761.34 1309.38 1789 1300.45 C 1787.06 1278.05 1788.15 1243.59 1788.15 1220.24 L 1788.16 1075.75 L 1788.54 611.88 L 1787.11 610.947 L 1403.42 830.929 L 1285.19 898.573 C 1266.79 908.978 1236.17 926.98 1217.39 935.247 z M 482.707 699.053 C 489.558 693.351 512 681.276 520.733 676.373 L 591.307 636.689 C 686.372 583.134 781.27 531.494 875.441 476.504 C 873.194 469.132 873.478 416.69 874.901 408.092 L 555.644 588.308 L 451.027 647.099 C 426.606 660.825 400.87 674.35 377.798 690.18 C 401.385 689.5 433.391 695.432 457.714 697.025 C 466.001 697.568 474.214 699.143 482.707 699.053 z M 1599.84 591.518 C 1580.9 607.698 1528.57 636.257 1505.65 649.35 C 1444.13 684.586 1382.36 719.374 1320.33 753.711 C 1289.21 771.075 1245.75 793.167 1217.47 812.509 C 1218.36 827.486 1218.84 877.791 1217.12 891.738 C 1242.84 872.636 1261.65 863.078 1289.49 847.439 L 1354.91 810.09 L 1625.31 655.84 C 1638.57 648.279 1708.95 610.81 1715.81 603.798 C 1676.86 599.683 1638.48 597.404 1599.84 591.518 z M 385.634 811.566 C 384.562 793.289 385.01 772.369 384.973 753.877 C 357.054 769.329 320.843 785.076 294.265 802.789 C 315.71 803.489 334.394 805.63 355.6 808.305 C 360.376 808.908 382.063 811.853 385.634 811.566 z M 1788.16 518.008 C 1775.09 523.881 1723.36 552.445 1714.7 561.777 C 1728.57 562.264 1767.49 565.137 1779.45 568.708 C 1781.11 568.168 1783.87 567.392 1785.02 566.093 C 1792.28 557.887 1788.73 528.54 1788.16 518.008 z M 341.397 736.718 C 346.573 733.504 351.687 730.19 356.736 726.78 C 352.25 727.194 347.368 727.863 342.93 727.495 C 339.1 727.568 336.091 727.07 333.169 729.281 C 331.166 732.66 331.831 739.158 331.87 743.419 L 341.397 736.718 z M 1645.69 553.637 C 1647.59 552.801 1647.13 553.169 1648.43 552.141 C 1666.21 538.079 1687.2 527.081 1706.98 515.935 C 1721.84 507.564 1741.12 496.058 1756.57 489.309 C 1709.49 487.845 1644.91 478.369 1597.17 472.861 L 1326.34 441.777 L 1070.56 412.693 C 1025.25 407.621 958.65 401.914 915.402 393.106 C 916.826 412.474 916.81 453.682 915.093 472.698 C 969.778 477.265 1030.2 485.798 1085.57 491.902 L 1435.66 530.616 L 1563.5 544.733 C 1587.64 547.544 1622.6 552.763 1645.69 553.637 z M 448.154 738.314 C 440.509 745.471 434.189 748.859 425.111 754.081 C 425.488 774.931 424.439 797.737 425.139 817.96 C 443.236 817.145 476.889 822.092 496.328 824.287 L 611.381 836.907 L 967.716 876.034 L 1091.13 889.686 C 1120.08 892.915 1147.85 896.681 1177.02 898.42 C 1176.48 893.303 1176.35 888.1 1176.43 882.956 C 1176.77 861.562 1175.62 839.66 1176.84 818.327 C 1161.69 817.76 1140.65 814.454 1125.08 812.498 C 1095.87 808.789 1066.64 805.298 1037.38 802.024 L 610.797 756.805 C 569.693 752.198 528.558 747.859 487.397 743.789 C 475.416 742.508 459.515 738.755 448.154 738.314 z M 1532.76 585.782 C 1500.2 580.22 1464.12 576.829 1430.98 573.132 L 1274.42 555.713 L 1048.49 530.381 C 1003.19 525.266 957.782 520.069 912.44 515.361 C 908.88 514.991 898.651 513.933 895.673 515.083 C 879.772 521.219 861.66 531.55 846.611 539.626 C 797.826 566.209 749.462 593.559 701.539 621.666 C 669.242 640.393 636.644 659.069 604.127 677.402 C 585.985 687.63 567.11 696.998 548.889 707.347 C 554.217 709.366 575.961 711.529 583.096 712.353 L 662.23 720.933 L 1044.5 762.61 C 1063.07 764.66 1183.5 779.935 1191.28 776.384 C 1213.78 766.127 1235.22 753.269 1256.76 741.161 L 1350.8 688.552 C 1395.66 663.776 1440.32 638.632 1484.77 613.124 C 1498.16 605.393 1520.96 593.609 1532.76 585.782 z"/>
<path transform="translate(0,0)" fill="rgb(246,126,10)" d="M 995.525 1151.86 C 1011.05 1152.61 1023.93 1173.46 1034.15 1183.49 C 1052.06 1201.06 1071.1 1217.06 1083.22 1239.51 C 1092.15 1256.03 1078.87 1262.59 1065.91 1268.78 C 1044.62 1259.09 1038.58 1246.88 1021.64 1231.18 C 1023.47 1246.3 1020.85 1324.17 1023.4 1328.41 C 1035.21 1348.05 1107.4 1398.01 1111.26 1432.54 C 1112.51 1443.79 1101.87 1451.84 1092.72 1452.07 C 1069.25 1443.87 1060.9 1427.32 1044.64 1410.41 C 1026.83 1391.89 1005.39 1375.71 989.887 1355 C 982.878 1345.27 980.378 1329.23 981.14 1317.21 C 983.011 1287.68 977.915 1246.81 983.367 1218.35 C 965.602 1234.62 956.361 1249.78 934.113 1259.05 C 924.105 1255.93 906.311 1245.1 913.054 1233.61 C 927.293 1209.33 970.909 1163.74 995.525 1151.86 z"/>
<path transform="translate(0,0)" fill="rgb(246,126,10)" d="M 758.685 1007.94 C 765.134 1007.63 779.402 1013.73 783.396 1018.3 C 793.521 1029.88 851.19 1081.2 849.736 1093.58 C 843.617 1145.69 799.105 1092.77 784.155 1077.61 C 785.098 1100.56 783.202 1124.48 784.283 1147.56 C 784.833 1159.3 784.98 1171.58 784.479 1183.31 L 785.056 1183.98 C 802.712 1204.79 872.393 1257.9 873.114 1282.39 C 873.326 1289.55 865.823 1295.73 861.349 1300.65 C 858.912 1301.96 856.929 1302.81 854.077 1302.38 C 832.411 1299.08 773.662 1233.48 757.719 1213.37 C 753.565 1208.13 747.973 1201.49 746.178 1194.96 C 742.604 1181.96 742.993 1093.57 744.914 1077.01 C 731.253 1087.29 721.222 1102.18 706.557 1110.62 C 691.344 1119.32 674.545 1097.32 681.041 1083.6 C 686.761 1071.51 699.863 1059.1 709.491 1049.75 C 723.095 1036.54 741.461 1015.49 758.685 1007.94 z"/>
<path transform="translate(0,0)" fill="rgb(246,126,10)" d="M 544.978 1137.87 C 566.926 1137.61 621.937 1202.84 630.86 1224.34 C 633.178 1229.93 632.214 1236.42 629.118 1241.28 C 610.269 1270.86 579.364 1217.3 566.657 1210.37 C 567.661 1240.61 568.117 1287.66 566.494 1317.33 C 581.512 1335.97 668.918 1397.45 638.698 1424.72 C 635.16 1427.57 630.484 1431.35 625.624 1430.89 C 612.818 1429.66 546.067 1357.42 536.541 1345.02 C 533.334 1340.85 529.576 1335.67 528.263 1330.55 C 523.781 1313.08 524.243 1229.1 527.017 1208.12 C 513.518 1224.6 504.982 1234.08 485.986 1243.18 C 475.768 1238.09 465.57 1230.1 470.355 1217.74 C 481.213 1189.69 519.449 1152.03 544.978 1137.87 z"/>
<path transform="translate(0,0)" fill="rgb(246,126,10)" d="M 385.192 853.88 C 398.908 854.757 411.305 856.88 424.872 858.369 C 427.303 886.673 425.515 924.007 425.303 953.084 L 425.251 1095.6 L 425.273 1339.56 C 425.34 1383.89 426.694 1428.84 425.362 1473.02 C 414.892 1479.92 397.94 1491.29 386.12 1494.64 C 384.46 1486.41 385.32 1448.44 385.36 1437.58 L 385.383 1320.18 L 385.192 853.88 z"/>
<path transform="translate(0,0)" fill="rgb(13,66,198)" d="M 1614.72 892.078 C 1629.55 892.008 1644.7 909.863 1636.65 919.883 C 1622.95 936.946 1582.79 956.206 1564.35 966.664 L 1472.3 1019.24 L 1392.33 1065.2 C 1376.86 1074.06 1348.63 1091.1 1332.49 1095.94 C 1322.08 1096.19 1313.59 1092.02 1310.12 1081.55 C 1308.66 1077.1 1309.05 1072.25 1311.21 1068.09 C 1313.56 1063.56 1317.18 1060.26 1321.48 1057.66 C 1375.58 1024.93 1432.54 994.211 1487.44 962.823 L 1562.68 919.736 C 1575.66 912.269 1601.62 896.59 1614.72 892.078 z"/>
<path transform="translate(0,0)" fill="rgb(13,66,198)" d="M 1615.62 1136.11 C 1634.19 1135.6 1639.47 1145.88 1634.17 1165.28 C 1633.27 1168.56 1621.41 1175.9 1617.98 1178 C 1571.96 1206.27 1522.1 1232.12 1475.33 1258.67 L 1395.9 1303.92 C 1377.21 1314.58 1351.8 1330.43 1331.97 1336.52 C 1322.12 1336.07 1312.81 1328.48 1310.22 1319.04 C 1309.13 1315.17 1309.63 1311.02 1311.61 1307.52 C 1316.52 1299.01 1359.87 1276.8 1371.53 1270.2 L 1468.12 1215.42 L 1546.82 1170.74 C 1567.38 1159.09 1593.77 1142.69 1615.62 1136.11 z"/>
<path transform="translate(0,0)" fill="rgb(13,66,198)" d="M 1484.88 1087 C 1494.46 1086.1 1497.65 1089.28 1504.78 1094.74 C 1506.91 1100.91 1509.68 1108.68 1506.99 1115.12 C 1500.39 1130.95 1356.95 1205.95 1332.21 1215.22 C 1318.98 1218.4 1313.37 1203.91 1308.81 1194.54 C 1319.2 1176.2 1329.31 1172.28 1347.07 1162.66 C 1360.45 1155.41 1374.1 1148 1387.38 1140.55 C 1405.81 1130.19 1424.14 1119.65 1442.37 1108.94 C 1454.93 1101.69 1471.5 1091.63 1484.88 1087 z"/>
<path transform="translate(0,0)" fill="rgb(246,126,10)" d="M 875.441 476.504 C 892.841 470.566 897.043 471.106 915.093 472.698 C 969.778 477.265 1030.2 485.798 1085.57 491.902 L 1435.66 530.616 L 1563.5 544.733 C 1587.64 547.544 1622.6 552.763 1645.69 553.637 C 1658.71 556.789 1701.98 562.82 1714.7 561.777 C 1728.57 562.264 1767.49 565.137 1779.45 568.708 C 1769.7 577.751 1728.54 600.333 1715.81 603.798 C 1676.86 599.683 1638.48 597.404 1599.84 591.518 C 1584.61 585.685 1549.21 585.229 1532.76 585.782 C 1500.2 580.22 1464.12 576.829 1430.98 573.132 L 1274.42 555.713 L 1048.49 530.381 C 1003.19 525.266 957.782 520.069 912.44 515.361 C 908.88 514.991 898.651 513.933 895.673 515.083 C 879.772 521.219 861.66 531.55 846.611 539.626 C 797.826 566.209 749.462 593.559 701.539 621.666 C 669.242 640.393 636.644 659.069 604.127 677.402 C 585.985 687.63 567.11 696.998 548.889 707.347 C 536.435 708.242 494.868 702.515 482.707 699.053 C 489.558 693.351 512 681.276 520.733 676.373 L 591.307 636.689 C 686.372 583.134 781.27 531.494 875.441 476.504 z"/>
<path transform="translate(0,0)" fill="rgb(246,126,10)" d="M 384.973 753.877 C 405.18 741.664 422.812 730.875 448.154 738.314 C 440.509 745.471 434.189 748.859 425.111 754.081 C 425.488 774.931 424.439 797.737 425.139 817.96 C 416.417 816.699 392.892 813.783 385.634 811.566 C 384.562 793.289 385.01 772.369 384.973 753.877 z"/>
<path transform="translate(0,0)" fill="rgb(13,66,198)" d="M 310.233 1070.07 C 342.67 1075.45 341.816 1125.8 316.411 1136.53 C 291.282 1135.51 286.182 1110.3 292.617 1089.34 C 295.636 1079.51 301.073 1074.29 310.233 1070.07 z"/>
</svg>