<svg version="1.1" xmlns="http://www.w3.org/2000/svg" style="display: block;" viewBox="0 0 2048 2048" width="512" height="512" preserveAspectRatio="none">
<path transform="translate(0,0)" fill="rgb(1,81,245)" d="M 1025.35 178.096 C 1053.27 191.048 1095.04 215.695 1123.67 231.597 C 1189.79 268.054 1255.56 305.136 1320.98 342.84 L 1594.25 495.52 C 1614.85 507.081 1691.6 544.084 1702.94 558.81 C 1706.62 567.411 1704.5 623.811 1704.45 636.562 L 1704.4 771.022 L 1704.43 1247.54 L 1704.43 1404.79 C 1704.44 1416.75 1705.9 1478.09 1703.38 1482.79 C 1696.43 1495.75 1600.28 1543.92 1584.72 1552.52 L 1329.61 1694.73 L 1137.57 1801.92 C 1112.76 1815.93 1087.79 1829.66 1062.68 1843.11 C 1050.93 1849.39 1035.48 1858.02 1023.55 1863.22 C 973.53 1839.95 923.114 1810.43 874.597 1783.57 L 671.015 1671.56 L 449.337 1549.64 C 422.935 1535.12 396.294 1522.25 370.142 1507.74 C 361.901 1503.16 345.473 1493.07 343.146 1483.93 C 342.104 1479.83 342.711 1475.03 343.07 1470.71 C 340.699 1461.42 341.891 1436.13 341.89 1425.34 L 341.901 1351.43 L 341.915 1124.22 L 341.903 742.945 L 341.872 630.119 C 341.607 546.289 329.507 562.082 402.392 521.166 L 509.259 461.942 L 788.955 306.568 L 941.449 221.869 C 962 210.47 1005.3 184.602 1025.35 178.096 z M 1226.53 1196.95 C 1264.42 1153.85 1314.33 1192.7 1297.14 1235.53 C 1336.26 1251.87 1379.77 1277.23 1417.58 1297.41 C 1496.7 1339.64 1575.41 1386.43 1654.26 1428.84 C 1653.15 1405.42 1653.66 1379.37 1653.66 1355.75 L 1653.68 1239.55 L 1653.72 881.265 L 1653.72 701.47 C 1653.72 688.634 1652.88 630.493 1654.67 620.935 C 1646.79 624.172 1631.62 633.385 1623.43 637.906 L 1562.28 671.609 L 1386.29 768.594 C 1376.82 773.779 1291.33 819.102 1287.98 823.194 C 1287.79 859.538 1270.52 933.12 1254.85 966.204 C 1219.74 1040.34 1188.22 1085.79 1178.67 1170.26 C 1191.48 1175.47 1215.74 1187.99 1226.53 1196.95 z M 1042.58 1166.29 C 1041.48 1181.68 1042.4 1205.73 1042.46 1222.08 L 1042.51 1323.24 L 1042.51 1646.24 L 1042.73 1732.92 C 1042.85 1753.19 1043.57 1778.47 1041.44 1798.37 C 1091.36 1769.87 1144.44 1741.58 1194.97 1713.83 C 1295.93 1658.53 1396.61 1602.7 1497 1546.36 L 1599.91 1488.58 C 1613.45 1480.95 1635.47 1469.51 1647.8 1461.47 C 1636.11 1456.38 1608.03 1440.05 1595.93 1433.39 L 1490.3 1375.15 L 1337.21 1291.06 C 1327.3 1285.61 1283.63 1262.73 1276.94 1256.91 C 1245.07 1271.77 1231.14 1255.72 1218.3 1228.31 C 1207.25 1220.27 1191.13 1213.92 1178.58 1206.11 C 1173.44 1222.24 1158.97 1229.99 1149.56 1211.78 C 1144.02 1201.08 1146.41 1181.76 1147.47 1169.48 C 1151.93 1118.07 1168.26 1067.63 1191.06 1021.51 C 1203.52 996.426 1217.37 973.315 1227.11 946.769 C 1236.1 922.26 1241.74 898.142 1248.13 872.863 C 1250.68 862.788 1253.56 849.587 1257.03 840.003 C 1247.27 841.979 1159.04 890.311 1151.6 897.013 C 1148.26 918.977 1143.79 952.114 1135.46 971.825 C 1119.34 1010.01 1093.9 1049.67 1083.56 1090.49 C 1081.1 1100.37 1079.18 1110.38 1077.81 1120.48 C 1075.96 1134.25 1076.34 1164.86 1065 1175.51 C 1059.35 1180.81 1045.73 1173.61 1042.58 1166.29 z M 1564.88 608.872 C 1589.14 594.997 1618.29 578.286 1643.25 566.115 C 1621.21 555.47 1600.07 542.991 1578.8 530.844 L 1493.08 482.154 L 1191.95 314.112 C 1159.36 295.681 1126.67 277.414 1093.9 259.31 C 1082.09 252.656 1055.1 236.287 1043.84 231.606 C 1044.47 253.241 1045.09 290.292 1043.98 311.392 C 1078.94 328.856 1118.76 353.065 1153.37 372.738 L 1365.01 493.64 L 1497.57 569.3 C 1512.37 577.755 1552.6 599.644 1564.88 608.872 z M 478.789 522.412 C 484.135 526.999 493.02 531.381 499.133 535.115 C 514.757 544.66 535.455 554.724 549.479 565.816 C 595.748 538.551 645.083 512.398 692.059 486.051 C 797.246 427.051 902.736 368.596 1008.53 310.686 C 1007.44 296.118 1009.68 239.735 1006.85 231.085 C 934.514 266.808 872.854 303.599 803.056 343.328 L 613.505 448.925 C 573.508 471.189 519.675 503.046 478.789 522.412 z M 1004.03 1798.51 C 1002.43 1704.38 1003.9 1605.4 1003.9 1510.94 L 1003.88 952.908 C 990.506 944.847 974.363 936.562 960.53 928.793 L 862.675 873.893 L 558.227 703.067 C 499.95 670.447 434.961 635.865 378.201 601.687 C 380.107 614.255 379.248 659.17 379.241 674.077 L 379.211 818.526 L 379.219 1335.22 C 379.22 1346.09 378.131 1452.14 378.922 1454.41 C 442.963 1422.18 506.101 1388.18 568.266 1352.47 C 601.315 1333.65 634.516 1315.1 667.865 1296.83 C 683.981 1288.04 700.287 1279.23 716.624 1270.88 C 726.55 1266.08 737.612 1262.09 744.285 1273.98 C 748.909 1282.22 739.924 1289.85 734.135 1294.43 C 712.04 1311.91 686.299 1323.66 661.347 1336.41 C 649.308 1342.57 637.24 1348.94 625.286 1355.46 L 413.024 1470.17 C 486.387 1506.68 555.324 1546.81 626.532 1587.18 L 803.108 1685.86 L 920.407 1750.17 C 942.683 1762.25 983.956 1784.28 1004.03 1798.51 z M 1094.22 873.134 C 1109.12 865.942 1134.9 849.612 1151.05 840.519 L 1269.88 774.575 L 1433.09 683.693 C 1462.58 667.387 1501.97 646.975 1530.11 629.782 C 1493.59 610.487 1458.05 589.195 1422.36 568.363 L 1239.92 461.94 C 1195.84 436.442 1151.54 411.329 1107.02 386.602 C 1083.66 373.758 1047.18 355.674 1026.16 342.247 C 995.282 357.661 959.212 379.439 928.396 396.442 L 693.246 526.886 L 618.821 568.189 C 610.259 572.905 594.262 582.517 586.189 586.173 C 610.359 596.876 643.804 616.757 667.518 630.182 L 778.062 692.054 L 935.641 780.362 C 962.984 795.34 1077.78 853.656 1094.22 873.134 z M 397.038 570.07 C 440.69 591.935 491.216 621.5 534.178 645.572 L 794.583 791.857 L 941.524 874.585 L 983.87 898.971 C 992.622 903.916 1007.08 911.529 1014.92 917.125 C 1027.53 910.978 1046.44 899.431 1058.38 891.666 C 1056.18 889.533 1031.35 876.447 1025.94 873.42 L 947.836 829.213 L 613.344 641.459 L 518.234 588.196 C 494.942 575.356 464.004 559.729 443.438 543.952 C 427.672 552.071 412.484 561.847 397.038 570.07 z M 1041.94 953.959 C 1043 972.572 1042.49 992.872 1042.52 1011.7 L 1042.26 1128.8 L 1042.91 1129.26 L 1043.75 1128.29 C 1050.93 1065.39 1076.51 1025.58 1100.96 968.964 C 1109.59 948.995 1112.25 932.601 1118.85 914.183 C 1110.24 917.365 1044.61 949.29 1041.94 953.959 z"/>
<path transform="translate(0,0)" fill="rgb(254,141,28)" d="M 1098.65 1533.05 C 1144.02 1529.3 1157.77 1580.38 1127.14 1607.43 C 1120.35 1613.43 1114.52 1615.52 1106.33 1618.58 C 1063.71 1627.33 1033.13 1554.43 1098.65 1533.05 z"/>
<path transform="translate(0,0)" fill="rgb(255,192,93)" d="M 1100.38 1557.75 C 1123.46 1556.66 1114.15 1583.08 1097.54 1591.3 C 1074.3 1588.79 1084.78 1566.56 1100.38 1557.75 z"/>
<path transform="translate(0,0)" fill="rgb(254,141,28)" d="M 1145.46 1277.16 C 1192.47 1272.56 1206.88 1345.95 1147.64 1364.01 C 1139.86 1363.95 1132.2 1362.01 1125.33 1358.36 C 1115.95 1353.44 1109.05 1344.82 1106.3 1334.6 C 1098.43 1305.68 1118.48 1283.84 1145.46 1277.16 z"/>
<path transform="translate(0,0)" fill="rgb(255,192,93)" d="M 1144.03 1300.89 C 1164.3 1300 1160.59 1325.92 1142.93 1335.42 C 1118.75 1333.9 1127.81 1310.7 1144.03 1300.89 z"/>
<path transform="translate(0,0)" fill="rgb(254,141,28)" d="M 1208.92 1460.99 C 1226.63 1461.6 1245.77 1477.65 1249.22 1495.11 C 1254.6 1522.27 1235.52 1543.15 1210.23 1548.82 C 1192.33 1549.41 1176.43 1539.92 1170.6 1522.62 C 1166.7 1511.15 1167.56 1498.59 1173 1487.75 C 1180.83 1472.2 1193.67 1466.33 1208.92 1460.99 z"/>
<path transform="translate(0,0)" fill="rgb(255,192,93)" d="M 1204.5 1488.92 C 1229.55 1488.31 1223.2 1512.07 1209.21 1524.35 C 1188.88 1515.9 1182.17 1500.59 1204.5 1488.92 z"/>
<path transform="translate(0,0)" fill="rgb(254,141,28)" d="M 1105.51 1401.3 C 1113.57 1400.44 1120.79 1400.9 1127.86 1405.04 C 1146.6 1416.01 1150.92 1443.96 1140.21 1461.83 C 1131.81 1475.83 1120.54 1481.03 1105.89 1484.71 C 1058.1 1486.67 1051 1420.27 1091.5 1404.44 C 1095.73 1402.78 1101 1402.04 1105.51 1401.3 z"/>
<path transform="translate(0,0)" fill="rgb(255,192,93)" d="M 1103.47 1424.9 C 1126.2 1425.79 1118.9 1447.09 1102.94 1455.57 C 1079.47 1452.76 1087.68 1433.95 1103.47 1424.9 z"/>
<path transform="translate(0,0)" fill="rgb(254,141,28)" d="M 1248.78 1331.32 C 1255.2 1329.81 1264.88 1332.98 1270.14 1336.54 C 1289.03 1349.32 1293.6 1379.61 1280.09 1397.84 C 1271.23 1409.79 1261.7 1413.86 1247.68 1416.32 C 1189.75 1409.37 1197.37 1339.46 1248.78 1331.32 z"/>
<path transform="translate(0,0)" fill="rgb(255,192,93)" d="M 1246.25 1355.8 C 1269.4 1360.31 1259.63 1379.3 1244.77 1388.08 C 1220.96 1385.04 1232.75 1364.73 1246.25 1355.8 z"/>
<path transform="translate(0,0)" fill="rgb(210,209,210)" d="M 1297.14 1235.53 C 1336.26 1251.87 1379.77 1277.23 1417.58 1297.41 C 1496.7 1339.64 1575.41 1386.43 1654.26 1428.84 C 1654.86 1436.42 1657.35 1453.86 1652.79 1459.46 C 1651.63 1460.88 1649.81 1460.94 1647.8 1461.47 C 1636.11 1456.38 1608.03 1440.05 1595.93 1433.39 L 1490.3 1375.15 L 1337.21 1291.06 C 1327.3 1285.61 1283.63 1262.73 1276.94 1256.91 C 1285.74 1247.38 1287.79 1250.01 1297.14 1235.53 z"/>
<path transform="translate(0,0)" fill="rgb(254,141,28)" d="M 1257.03 840.003 C 1263.93 834.249 1279.42 825.721 1287.98 823.194 C 1287.79 859.538 1270.52 933.12 1254.85 966.204 C 1219.74 1040.34 1188.22 1085.79 1178.67 1170.26 C 1178.3 1177.75 1177.42 1199.07 1178.58 1206.11 C 1173.44 1222.24 1158.97 1229.99 1149.56 1211.78 C 1144.02 1201.08 1146.41 1181.76 1147.47 1169.48 C 1151.93 1118.07 1168.26 1067.63 1191.06 1021.51 C 1203.52 996.426 1217.37 973.315 1227.11 946.769 C 1236.1 922.26 1241.74 898.142 1248.13 872.863 C 1250.68 862.788 1253.56 849.587 1257.03 840.003 z"/>
<path transform="translate(0,0)" fill="rgb(254,141,28)" d="M 1118.85 914.183 C 1126.87 908.417 1142.37 900.281 1151.6 897.013 C 1148.26 918.977 1143.79 952.114 1135.46 971.825 C 1119.34 1010.01 1093.9 1049.67 1083.56 1090.49 C 1081.1 1100.37 1079.18 1110.38 1077.81 1120.48 C 1075.96 1134.25 1076.34 1164.86 1065 1175.51 C 1059.35 1180.81 1045.73 1173.61 1042.58 1166.29 C 1042.81 1153.01 1043.31 1141.46 1043.75 1128.29 C 1050.93 1065.39 1076.51 1025.58 1100.96 968.964 C 1109.59 948.995 1112.25 932.601 1118.85 914.183 z"/>
<path transform="translate(0,0)" fill="rgb(38,63,140)" d="M 1702.94 558.81 C 1706.62 567.411 1704.5 623.811 1704.45 636.562 L 1704.4 771.022 L 1704.43 1247.54 L 1704.43 1404.79 C 1704.44 1416.75 1705.9 1478.09 1703.38 1482.79 C 1696.43 1495.75 1600.28 1543.92 1584.72 1552.52 L 1329.61 1694.73 L 1137.57 1801.92 C 1112.76 1815.93 1087.79 1829.66 1062.68 1843.11 C 1050.93 1849.39 1035.48 1858.02 1023.55 1863.22 C 973.53 1839.95 923.114 1810.43 874.597 1783.57 L 671.015 1671.56 L 449.337 1549.64 C 422.935 1535.12 396.294 1522.25 370.142 1507.74 C 361.901 1503.16 345.473 1493.07 343.146 1483.93 C 342.104 1479.83 342.711 1475.03 343.07 1470.71 L 344.349 1470.43 C 345.875 1466.97 345.938 1466.21 349.137 1464.1 C 353.399 1463.18 358.587 1464.71 362.08 1467.05 C 401.799 1493.76 445.06 1515.8 487.027 1538.78 L 870.512 1749.04 C 919.92 1776.14 970.143 1805.49 1019.52 1831.65 C 1046.84 1821.08 1077.14 1802.79 1102.83 1788.4 L 1188.56 1741.31 L 1529.54 1551.06 L 1610.21 1505.31 C 1631.81 1493 1653.33 1479.71 1676.47 1470.69 C 1677.71 1405.28 1676.31 1334.39 1676.31 1268.63 L 1676.32 822.135 C 1676.32 751.555 1675.26 679.15 1676.16 608.825 C 1670.1 611.467 1657.58 615.553 1654.67 620.935 C 1646.79 624.172 1631.62 633.385 1623.43 637.906 L 1562.28 671.609 L 1386.29 768.594 C 1376.82 773.779 1291.33 819.102 1287.98 823.194 C 1279.42 825.721 1263.93 834.249 1257.03 840.003 C 1247.27 841.979 1159.04 890.311 1151.6 897.013 C 1142.37 900.281 1126.87 908.417 1118.85 914.183 C 1110.24 917.365 1044.61 949.29 1041.94 953.959 C 1039.33 952.301 1028.47 956.688 1025.08 957.798 L 1024.98 930.498 C 1060.8 909.819 1101.34 888.614 1138 868.531 L 1499.4 672.57 C 1545.01 647.331 1591.04 616.578 1637.23 591.676 C 1655.79 581.672 1683.2 565.75 1702.94 558.81 z"/>
<path transform="translate(0,0)" fill="rgb(38,63,140)" d="M 438.017 701.075 C 459.276 699.425 460.65 723.052 460.421 738.888 C 460.07 763.166 459.163 787.079 459.161 811.403 L 459.281 1083.14 C 459.293 1097.31 461.736 1176.55 457.282 1182.91 C 457.087 1183.19 456.86 1183.45 456.655 1183.72 C 454.197 1187 451.38 1188.41 447.765 1190.25 C 428.116 1195.12 425.763 1177.03 425.31 1162.3 C 424.652 1140.87 424.981 1119.26 424.976 1097.81 L 424.983 974.996 L 424.925 806.252 C 424.903 774.986 424.308 741.424 425.135 710.311 C 429.799 704.781 431.295 703.865 438.017 701.075 z"/>
<path transform="translate(0,0)" fill="rgb(254,141,28)" d="M 828.794 1354.19 C 874.383 1348.75 893.475 1424.24 834.859 1439.62 C 784.106 1445.6 769.347 1370.4 828.794 1354.19 z"/>
<path transform="translate(0,0)" fill="rgb(255,192,93)" d="M 825.647 1378.96 C 848.375 1378.19 846.55 1400.45 830.176 1412.34 C 806.647 1416.81 810.411 1390.54 825.647 1378.96 z"/>
<path transform="translate(0,0)" fill="rgb(254,141,28)" d="M 875.922 1233.04 C 924.115 1228.16 942.724 1298.36 883.406 1318.27 C 835.129 1324.41 818.957 1249.56 875.922 1233.04 z"/>
<path transform="translate(0,0)" fill="rgb(255,192,93)" d="M 877.698 1256.05 C 899.32 1260.81 894.641 1284.68 874.657 1292.16 C 853.952 1283.99 856.343 1262.67 877.698 1256.05 z"/>
<path transform="translate(0,0)" fill="rgb(254,141,28)" d="M 934.887 1440.24 C 943.31 1439.66 950.101 1439.6 957.962 1443.06 C 966.26 1446.74 972.725 1453.61 975.896 1462.12 C 986.767 1490.81 969.133 1514.65 942.13 1523.89 C 896.837 1526.88 881.937 1466.58 918.682 1444.79 C 923.277 1442.07 929.581 1441.18 934.887 1440.24 z"/>
<path transform="translate(0,0)" fill="rgb(255,192,93)" d="M 937.214 1460.95 C 958.766 1468.35 949.861 1488.37 934.309 1497.07 C 913.574 1487.64 919.066 1469.8 937.214 1460.95 z"/>
<path transform="translate(0,0)" fill="rgb(254,141,28)" d="M 965.706 1329.39 C 971.122 1328.87 979.251 1330.88 983.197 1334.9 C 986.063 1345.82 982.504 1386.1 981.709 1399.49 C 981.538 1402.37 975.894 1406.94 973.085 1408.17 C 962.361 1412.87 954.912 1415.19 943.684 1411.83 C 930.768 1404.79 919.413 1393.79 917.096 1378.63 C 915.533 1367.93 918.344 1357.05 924.896 1348.44 C 935.318 1334.8 949.886 1331.42 965.706 1329.39 z"/>
<path transform="translate(0,0)" fill="rgb(255,192,93)" d="M 952.044 1354.02 C 977.059 1354.04 975.435 1372.05 957.932 1384.1 C 937.654 1387.69 935.28 1366.12 952.044 1354.02 z"/>
<path transform="translate(0,0)" fill="rgb(38,63,140)" d="M 440.898 1250.06 C 450.374 1251.59 455.494 1254.01 457.758 1264.57 C 462.427 1286.36 467.425 1352.78 443.363 1364.18 C 436.401 1362.43 432.931 1360.06 427.127 1356.29 C 420.282 1338.09 419.313 1289.04 425.721 1269.88 C 428.919 1260.31 431.982 1254.6 440.898 1250.06 z"/>
<path transform="translate(0,0)" fill="rgb(38,63,140)" d="M 1006.85 231.085 C 1020.55 223.122 1030.15 224.121 1043.84 231.606 C 1044.47 253.241 1045.09 290.292 1043.98 311.392 C 1078.94 328.856 1118.76 353.065 1153.37 372.738 L 1365.01 493.64 L 1497.57 569.3 C 1512.37 577.755 1552.6 599.644 1564.88 608.872 C 1562.68 609.23 1563.64 608.747 1562.3 609.929 C 1553.55 617.642 1540.72 625.008 1530.11 629.782 C 1493.59 610.487 1458.05 589.195 1422.36 568.363 L 1239.92 461.94 C 1195.84 436.442 1151.54 411.329 1107.02 386.602 C 1083.66 373.758 1047.18 355.674 1026.16 342.247 C 995.282 357.661 959.212 379.439 928.396 396.442 L 693.246 526.886 L 618.821 568.189 C 610.259 572.905 594.262 582.517 586.189 586.173 C 610.359 596.876 643.804 616.757 667.518 630.182 L 778.062 692.054 L 935.641 780.362 C 962.984 795.34 1077.78 853.656 1094.22 873.134 C 1081.59 881.201 1072.94 887.249 1058.38 891.666 C 1056.18 889.533 1031.35 876.447 1025.94 873.42 L 947.836 829.213 L 613.344 641.459 L 518.234 588.196 C 494.942 575.356 464.004 559.729 443.438 543.952 C 449.932 538.03 458.534 533.28 466.088 528.93 C 469.83 526.775 476.514 524.842 478.789 522.412 C 484.135 526.999 493.02 531.381 499.133 535.115 C 514.757 544.66 535.455 554.724 549.479 565.816 C 595.748 538.551 645.083 512.398 692.059 486.051 C 797.246 427.051 902.736 368.596 1008.53 310.686 C 1007.44 296.118 1009.68 239.735 1006.85 231.085 z"/>
<path transform="translate(0,0)" fill="rgb(210,209,210)" d="M 378.922 1454.41 C 442.963 1422.18 506.101 1388.18 568.266 1352.47 C 601.315 1333.65 634.516 1315.1 667.865 1296.83 C 683.981 1288.04 700.287 1279.23 716.624 1270.88 C 726.55 1266.08 737.612 1262.09 744.285 1273.98 C 748.909 1282.22 739.924 1289.85 734.135 1294.43 C 712.04 1311.91 686.299 1323.66 661.347 1336.41 C 649.308 1342.57 637.24 1348.94 625.286 1355.46 L 413.024 1470.17 C 403.335 1466.67 390.065 1458.78 378.922 1454.41 z"/>
<path transform="translate(0,0)" fill="rgb(254,141,28)" d="M 1226.53 1196.95 C 1264.42 1153.85 1314.33 1192.7 1297.14 1235.53 C 1287.79 1250.01 1285.74 1247.38 1276.94 1256.91 C 1245.07 1271.77 1231.14 1255.72 1218.3 1228.31 C 1220.3 1215.82 1221.95 1208.78 1226.53 1196.95 z"/>
<path transform="translate(0,0)" fill="rgb(255,192,93)" d="M 1257.7 1201.95 C 1279.79 1202.36 1273.74 1223.45 1258.64 1233.04 C 1236.01 1232.86 1242.26 1211.78 1257.7 1201.95 z"/>
<path transform="translate(0,0)" fill="rgb(1,81,245)" d="M 1178.67 1170.26 C 1191.48 1175.47 1215.74 1187.99 1226.53 1196.95 C 1221.95 1208.78 1220.3 1215.82 1218.3 1228.31 C 1207.25 1220.27 1191.13 1213.92 1178.58 1206.11 C 1177.42 1199.07 1178.3 1177.75 1178.67 1170.26 z"/>
</svg>