<svg version="1.1" xmlns="http://www.w3.org/2000/svg" style="display: block;" viewBox="0 0 2048 2048" width="512" height="512" preserveAspectRatio="none">
<path transform="translate(0,0)" fill="rgb(0,25,187)" d="M 1117.82 900.68 C 1130.11 882.103 1149.62 877.936 1170.94 878.437 C 1208.28 879.314 1245.1 879.928 1282.49 879.943 L 1469.07 879.927 C 1518.12 879.894 1573.3 875.307 1620.97 886.995 C 1696.09 905.414 1740.63 992.185 1718.84 1064.93 C 1715.32 1070.61 1704.89 1094.88 1702.14 1101.96 C 1651.17 1179.11 1573.88 1168.47 1492.45 1168.42 C 1463.28 1168.4 1433.86 1168.29 1404.67 1168.29 L 1244.94 1168.35 C 1215.64 1168.37 1186.35 1168.61 1157.06 1168.17 C 1137.27 1167.87 1128.23 1163.4 1119.75 1145.03 C 1118 1145.13 1116.25 1145.2 1114.5 1145.23 C 1080.98 1145.99 1046.09 1145.51 1012.49 1145.51 L 829.892 1145.51 L 729.961 1145.73 C 683.615 1145.43 642.74 1147.46 606.774 1112.9 C 582.645 1090.03 568.912 1058.29 568.76 1025.05 C 568.382 991.931 580.926 959.007 604.398 935.47 C 620.574 919.15 641.257 908.035 663.794 903.553 C 685.564 899.259 711.53 900.481 733.951 900.592 L 811.662 900.719 L 1117.82 900.68 z"/>
<path transform="translate(0,0)" fill="rgb(249,123,45)" d="M 702.74 940.437 C 738.267 939.471 776.775 940.173 812.481 940.173 L 1012.2 940.189 L 1109.23 940.155 C 1130.35 940.085 1162.79 938.103 1182.01 942.355 C 1242.07 955.643 1267.44 1030.96 1223.55 1076.1 C 1202.99 1097.25 1181.89 1104.79 1154.12 1106.1 L 831.027 1106.1 L 742.148 1106.23 C 719.725 1106.36 698.938 1106.83 676.422 1104.55 C 614.892 1098.56 585.298 1014.41 625.886 969.279 C 646.256 946.628 673.883 941.843 702.74 940.437 z"/>
<path transform="translate(0,0)" fill="rgb(223,225,232)" d="M 1230.94 920.209 L 1488.45 920.831 C 1508.61 920.95 1528.77 920.919 1548.94 920.738 C 1565.96 920.644 1586.37 919.938 1602.87 923.154 C 1621.72 926.893 1639.03 936.172 1652.57 949.802 C 1672.95 970.138 1684.47 997.692 1684.64 1026.48 C 1684.47 1090.94 1631.41 1125.11 1572.08 1128.78 C 1547.89 1130.27 1524.04 1129.76 1499.84 1129.74 L 1353.11 1131.01 C 1336.55 1131.21 1305.45 1130.08 1290.72 1131.31 C 1275.68 1133.69 1238.85 1129.44 1220.08 1130.98 C 1238.63 1116.43 1246.86 1114.26 1261.39 1094.39 C 1303.57 1036.72 1284.05 980.506 1242.14 928.404 C 1238.28 925.404 1235.06 922.93 1230.94 920.209 z"/>
<path transform="translate(0,0)" fill="rgb(168,188,229)" d="M 1242.14 928.404 C 1262.24 923.916 1288.4 935.637 1304.83 946.076 C 1348.26 973.678 1363.91 1037.44 1335.99 1080.8 C 1331.6 1087.57 1326.55 1093.89 1320.93 1099.69 C 1313.48 1107.46 1293.24 1123.37 1290.72 1131.31 C 1275.68 1133.69 1238.85 1129.44 1220.08 1130.98 C 1238.63 1116.43 1246.86 1114.26 1261.39 1094.39 C 1303.57 1036.72 1284.05 980.506 1242.14 928.404 z"/>
<path transform="translate(0,0)" fill="rgb(0,25,187)" d="M 640.614 631.453 C 662.348 630.965 681.418 630.705 702.825 636.852 C 747.332 649.632 774.839 683.555 761.767 730.78 C 739.257 812.108 667.543 789.427 603.758 795.21 C 571.897 798.2 541.005 807.78 513.043 823.342 C 349.661 914.832 355.209 1140.31 518.718 1226.78 C 551.7 1244.22 588.578 1250.77 625.692 1251.84 C 652.748 1252.61 683.001 1246.73 709.491 1254.26 C 751.18 1266.11 777.402 1310.74 764.972 1352.78 C 757.539 1377.59 743.402 1391.01 721.298 1403.11 C 707.061 1409.51 694.029 1410.71 678.659 1411.39 C 557.429 1417.53 448.992 1395.66 358.192 1310.15 C 204.391 1165.3 182.422 917.547 331.916 761.178 C 425.136 663.671 509.988 636.794 640.614 631.453 z"/>
<path transform="translate(0,0)" fill="rgb(65,134,251)" d="M 625.815 669.43 C 643.617 668.169 661.995 668.519 679.899 669.086 C 712.295 670.111 732.961 696.827 721.923 728.25 C 710.084 761.954 672.463 754.649 643.982 755.174 C 598.425 756.013 555.925 763.37 514.087 782.359 C 446.977 812.225 394.633 867.736 368.757 936.483 C 344.607 1000.6 347.072 1071.71 375.604 1134.01 C 389.282 1162.95 408.057 1189.2 431.032 1211.5 C 501.93 1280.68 584.333 1295.22 679.512 1290.89 C 715.216 1289.27 738.004 1317.63 723.397 1351.75 C 722.875 1352.38 722.341 1353.01 721.798 1353.62 C 696.575 1382.07 630.151 1374.45 595.347 1371.89 C 518.845 1366.24 447.651 1337.06 389.815 1286.38 C 319.522 1225.16 276.601 1138.39 270.595 1045.37 C 256.745 829.591 418.755 682.295 625.815 669.43 z"/>
<path transform="translate(0,0)" fill="rgb(0,25,187)" d="M 454.243 1521.47 C 471.363 1521.33 489.176 1522.6 506.356 1523.19 C 525.652 1523.78 544.958 1524 564.263 1523.86 L 1096.66 1523.83 L 1365.33 1523.82 C 1401.36 1523.82 1437.39 1523.65 1473.42 1522.68 C 1480.84 1522.48 1489 1526.28 1494.82 1531.14 C 1503.34 1538.27 1496.53 1555.85 1490.31 1562.4 C 1480.92 1570.12 1453.42 1567.34 1441.5 1567.18 L 736.148 1566.82 L 522.764 1566.83 L 456.459 1566.86 C 437.162 1566.96 414.411 1570.44 397.942 1559.33 C 389.616 1553.71 390.542 1540.63 396.713 1534.48 C 409.591 1521.63 437.073 1522.31 454.243 1521.47 z"/>
<path transform="translate(0,0)" fill="rgb(0,25,187)" d="M 421.645 477.29 C 433.429 476.353 453.717 477.177 466.355 477.213 L 552.908 477.32 L 832.459 477.303 L 1247.91 477.325 L 1382.9 477.258 C 1407.39 477.234 1432.01 476.943 1456.51 477.422 C 1467.86 478.487 1488.31 478.198 1497.13 486.219 C 1509.51 497.472 1498.02 518.196 1482.25 518.792 C 1413.15 519.684 1342.43 518.843 1273.15 518.839 L 863.268 518.837 L 558.264 518.81 C 512.236 518.811 466.116 518.983 420.086 519.187 C 414.814 519.211 409.485 518.655 404.872 515.834 C 400.627 513.295 397.697 509.034 396.846 504.162 C 393.707 486.806 406.997 479.501 421.645 477.29 z"/>
<path transform="translate(0,0)" fill="rgb(249,123,45)" d="M 444.627 1453.22 C 449.659 1452.68 454.774 1456.47 459.079 1459.07 C 467.283 1475.26 465.962 1482.97 450.158 1493.31 C 439.456 1500.31 427.797 1504.36 416.324 1509.7 C 387.274 1523.22 355.275 1533.78 327.882 1550.36 C 349.834 1556.89 453.104 1594.5 462.122 1610.55 C 464.393 1614.59 464.83 1618.82 463.366 1623.22 C 460.345 1632.31 450.972 1638.78 442.646 1642.63 C 434.949 1639.82 426.162 1635.86 418.426 1632.7 L 326.916 1592.13 C 309.584 1584.6 258.728 1568.64 253.476 1550.59 C 252.283 1546.48 252.891 1542.06 255.151 1538.43 C 264.799 1522.83 335.977 1498.12 355.898 1489.33 C 379.638 1478.86 420.383 1458.31 444.627 1453.22 z"/>
<path transform="translate(0,0)" fill="rgb(249,123,45)" d="M 1844.39 1006.62 C 1836.88 1004.88 1830.51 1001.9 1823.42 998.743 C 1785.06 981.667 1748.49 965.377 1711.71 944.646 C 1695.74 935.643 1694.68 917.783 1710 906.494 C 1716.04 902.045 1729.3 909.619 1735.29 911.326 C 1764.83 924.604 1794 938.936 1823.39 952.77 C 1849.84 965.377 1877.37 976.231 1902.79 990.859 C 1906.38 992.926 1912.66 999.387 1914.25 1003.14 C 1918.31 1012.75 1901.96 1022.58 1895.16 1026.44 C 1884.6 1032.43 1873.07 1037.59 1862.14 1042.8 L 1805.11 1070.01 L 1749.1 1096.95 C 1741.07 1100.8 1726.22 1108.45 1718.24 1111.45 C 1711.44 1108.37 1708.22 1106.51 1702.14 1101.96 C 1704.89 1094.88 1715.32 1070.61 1718.84 1064.93 C 1753.59 1046.46 1791.91 1032.81 1827.01 1014.62 C 1832.55 1011.76 1838.6 1008.91 1844.39 1006.62 z"/>
<path transform="translate(0,0)" fill="rgb(249,123,45)" d="M 440.347 407.322 C 443.967 407.85 447.086 408.441 450.252 410.371 C 455.227 413.404 460.613 419.6 461.595 425.509 C 462.237 429.369 460.708 433.326 458.543 436.449 C 448.698 450.653 347.751 490.094 328.03 493.272 C 350.109 508.746 383.993 521.739 408.722 532.885 C 427.72 541.447 439.699 545.203 456.461 558.732 C 458.772 564.925 461.914 573.652 459.047 579.92 C 451.676 596.036 430.434 585.347 419.772 581.114 C 417.841 580.494 415.925 579.828 414.027 579.116 C 403.107 574.98 388.571 567.558 377.66 562.58 C 342.447 546.514 306.902 529.908 272.155 513.104 C 220.823 488.28 325.063 453.41 342.738 446.025 C 373.55 433.148 408.725 415.112 440.347 407.322 z"/>
<path transform="translate(0,0)" fill="rgb(249,123,45)" d="M 1466.8 1453.99 C 1478.72 1453.19 1525.87 1480.54 1538.77 1488.15 C 1556.36 1498.53 1639.1 1535.72 1638.96 1555.06 C 1632.8 1567.36 1600.47 1580.75 1587.65 1587.72 C 1556.69 1604.54 1523.91 1619.64 1493.13 1636.61 C 1485.44 1640.74 1477.65 1644.52 1469.39 1647.34 C 1435.09 1632.71 1446.81 1607.92 1475.01 1596.19 C 1506.68 1583.02 1537.56 1563.06 1569.3 1550.19 C 1536.54 1539.21 1479.21 1508.97 1451.32 1487.06 C 1440.53 1478.59 1457.52 1459.74 1466.8 1453.99 z"/>
<path transform="translate(0,0)" fill="rgb(249,123,45)" d="M 1468.96 407.302 C 1481.98 404.538 1503.89 416.922 1516.04 422.35 L 1585.36 453.983 C 1600.63 460.901 1628.67 469.479 1637.93 483.243 C 1653.77 509.955 1603.24 524.358 1587.85 532.574 C 1558.86 548.045 1521.21 560.896 1494.58 578.336 L 1493.45 579.083 C 1485.42 582.644 1468.2 590.787 1461.17 586.051 C 1442.04 573.152 1447.07 554.447 1464.9 544.407 C 1481.95 534.798 1495.24 530.984 1511.52 523.471 C 1532.21 513.93 1553.82 500.311 1575.32 494.369 C 1551.35 484.689 1526.56 473.774 1503.38 462.32 C 1488.61 454.315 1454.76 446.66 1449.41 428.526 C 1445.6 415.63 1458.99 408.923 1468.96 407.302 z"/>
</svg>