<svg version="1.1" xmlns="http://www.w3.org/2000/svg" style="display: block;" viewBox="0 0 2048 2048" width="512" height="512" preserveAspectRatio="none">
<path transform="translate(0,0)" fill="rgb(252,104,10)" d="M 217.191 191.047 C 246.044 199.683 281.559 248.444 303.468 269.99 C 310.604 277.008 317.731 282.589 325.538 288.824 L 425.436 288.635 C 444.303 288.551 465.66 287.312 484.311 290.15 C 487.511 290.637 493.892 295.49 496.516 297.776 C 501.082 313.65 502.132 327.065 482.675 331.541 C 464.078 335.819 439.374 333.27 420.224 333.399 C 403.388 333.512 383.772 333.97 367.352 332.17 C 404.04 370.734 444.8 408.371 482.886 446.481 L 760.326 724.249 L 912.691 877.355 C 932.845 897.803 953.121 918.132 973.517 938.339 C 981.967 946.671 994.939 960.107 1003.46 967.279 C 1010.81 977.765 1015.29 982.263 1024.76 990.973 C 1035.38 1001.69 1046.19 1012.21 1057.2 1022.52 C 1061.4 1026.99 1065.09 1030.51 1069.68 1034.56 C 1071.98 1036.58 1079.36 1041.77 1080.82 1043.53 C 1084.73 1049.16 1110.61 1073.57 1117.04 1079.97 L 1206.3 1169.34 L 1561.46 1524.14 C 1599.66 1561.72 1637.51 1599.66 1674.99 1637.95 C 1685.56 1648.9 1705.22 1667.22 1713.74 1678.45 C 1711.73 1669.58 1712.03 1657.99 1712.07 1648.72 C 1712.21 1620.48 1711.29 1592.13 1712.42 1563.92 C 1712.84 1553.24 1717.08 1543.51 1728.63 1541.55 C 1740.61 1539.6 1747.56 1542.67 1755.79 1550.7 C 1760.39 1567.94 1758.57 1621.35 1758.46 1642.43 C 1758.35 1664.13 1759.34 1699.9 1757.58 1720.6 C 1764.58 1730.35 1776.38 1740.83 1785.17 1749.33 C 1799 1762.59 1812.73 1775.96 1826.36 1789.43 C 1844.18 1807.11 1870.82 1829.79 1836.04 1848.01 C 1823.25 1843.75 1809.04 1836.85 1798.94 1827.79 C 1772.57 1804.13 1747.37 1777.29 1724.83 1750.03 C 1714.22 1751.5 1700.93 1751.14 1690.03 1751.15 L 1637.55 1751.22 C 1623.17 1751.28 1564.46 1755.14 1554.55 1747.14 C 1521.17 1720.17 1562.54 1704.43 1587.53 1703.87 C 1615.73 1703.24 1654.47 1702.53 1682.02 1707.89 C 1661.85 1691.07 1641.73 1669.84 1623.02 1651.06 L 1539 1566.87 L 1199.75 1227.33 L 1095.55 1123.02 C 1080.3 1107.7 1061.52 1086.41 1045.88 1072.91 C 1040.11 1064.78 1032.49 1056.91 1025.23 1050.1 C 1015.78 1040.72 1004 1030.58 993.958 1021.78 C 986.054 1013.27 979.187 1006.3 970.406 998.685 L 547.412 575.548 C 477.484 505.648 403.095 433.452 334.815 362.369 C 329.638 348.889 303.771 329.525 292.126 321.698 C 285.222 312.978 278.222 304.539 270.337 296.669 C 254.437 280.798 194.126 231.157 196.199 210.733 C 196.73 205.498 199.171 201.149 203.312 197.906 C 207.403 194.702 212.352 192.796 217.191 191.047 z"/>
<path transform="translate(0,0)" fill="rgb(0,58,174)" d="M 1044.94 969.263 L 1046.13 968.27 C 1061.18 955.551 1088.76 924.393 1103.96 909.038 L 1233.02 779.761 L 1659.97 352.726 L 1764.53 248.155 C 1782.42 229.983 1821.87 171.234 1847.77 202.407 C 1862.69 220.355 1830.93 246.108 1820.62 259.801 C 1764.62 317.785 1705.1 371.821 1648.09 428.894 L 1212.91 864.713 C 1198.52 879.111 1084.02 991.674 1081.31 1000.24 C 1072.51 1005.89 1063.12 1013.87 1057.2 1022.52 C 1046.19 1012.21 1035.38 1001.69 1024.76 990.973 C 1031.81 986.232 1039.87 975.955 1044.94 969.263 z"/>
<path transform="translate(0,0)" fill="rgb(0,58,174)" d="M 993.958 1021.78 C 1004 1030.58 1015.78 1040.72 1025.23 1050.1 C 1017.46 1053.93 1006.71 1066.09 1003.54 1074.1 C 1002.65 1073.77 1001.8 1073.36 1001.03 1073.99 C 986.392 1086.31 972.174 1099.17 958.683 1112.74 C 933.01 1138.58 907.829 1164.95 882.318 1190.95 L 765.09 1309.1 L 406.132 1669.46 L 294.531 1781.34 C 275.518 1800.46 256.248 1820.66 236.544 1839.1 C 232.245 1843.13 225.297 1847.82 219.571 1848.7 C 214.5 1849.49 209.17 1845.89 205.32 1843.01 C 188.134 1829.35 206.176 1805.47 216.172 1793.56 C 234.37 1771.87 256.612 1754.69 276.665 1735 L 388.52 1622.95 L 762.395 1246.89 L 895.742 1113.41 L 946.098 1063.12 C 951.011 1058.21 961.467 1048.78 965.272 1044.61 L 964.264 1043.72 C 971.813 1040.47 986.872 1027.52 993.958 1021.78 z"/>
<path transform="translate(0,0)" fill="rgb(63,139,243)" d="M 266.742 1038.03 C 257.965 1023.53 259.543 1001.16 279.676 999.918 C 298.178 998.776 317.694 999.764 336.343 999.778 L 449.904 999.815 L 784.037 999.815 C 826.91 999.889 869.782 999.577 912.648 998.878 C 931.07 998.712 952.646 999.626 970.406 998.685 C 979.187 1006.3 986.054 1013.27 993.958 1021.78 C 986.872 1027.52 971.813 1040.47 964.264 1043.72 C 915.3 1044.79 863.729 1044.07 814.61 1044.07 L 549.425 1044.07 L 376.62 1044.07 C 346.51 1044.07 315.9 1044.32 285.796 1043.64 C 277.789 1043.47 273.496 1041.61 266.742 1038.03 z"/>
<path transform="translate(0,0)" fill="rgb(63,139,243)" d="M 1003.54 1074.1 C 1006.71 1066.09 1017.46 1053.93 1025.23 1050.1 C 1032.49 1056.91 1040.11 1064.78 1045.88 1072.91 C 1048.09 1113.25 1046.85 1166.85 1046.86 1207.74 L 1046.87 1445.56 L 1046.9 1642.44 C 1046.9 1669.91 1046.95 1697.25 1046.9 1724.87 C 1046.88 1742.29 1046.55 1765.9 1035.9 1780.83 C 1029.65 1789.59 1015.82 1780.6 1010.61 1774.56 C 1005.8 1768.97 1002.9 1761.99 1002.35 1754.63 C 1001.57 1744.05 1002.21 1725.96 1002.28 1714.89 L 1002.46 1644.15 L 1002.45 1409.07 L 1002.44 1188.25 L 1002.56 1116.55 C 1002.61 1103.2 1002.06 1087.18 1003.54 1074.1 z"/>
<path transform="translate(0,0)" fill="rgb(63,139,243)" d="M 1003.46 967.279 C 1001.67 955.858 1002.77 910.351 1002.76 895.891 L 1002.69 732.948 L 1002.71 424.968 L 1002.58 343.325 C 1002.38 326.235 1001.7 309.003 1001.98 291.954 C 1002.1 284.16 1002.35 273.874 1007.42 267.803 C 1016.86 256.484 1032 259.278 1041.75 268.208 L 1043.02 269.36 C 1043.26 269.598 1043.51 269.836 1043.76 270.073 C 1046.61 278.681 1046.93 286.37 1046.94 295.41 C 1046.99 347.427 1046.85 399.553 1046.85 451.568 L 1046.88 770.78 L 1046.88 898.637 C 1046.88 911.469 1047.61 958.898 1044.94 969.263 C 1039.87 975.955 1031.81 986.232 1024.76 990.973 C 1015.29 982.263 1010.81 977.765 1003.46 967.279 z"/>
<path transform="translate(0,0)" fill="rgb(63,139,243)" d="M 1081.31 1000.24 C 1128.94 998.089 1187.46 999.808 1236.13 999.814 L 1528.53 999.824 L 1679.82 999.812 C 1701.04 999.791 1758.61 998.15 1775.4 1002.63 C 1783.17 1009.84 1784.13 1011.46 1786.48 1022.48 C 1780.87 1041.82 1774.92 1044.14 1754.68 1044.12 C 1708.13 1044.09 1661.57 1044.02 1615.01 1044.04 L 1309.67 1044.06 L 1156.46 1044.07 C 1139.67 1044.09 1095.51 1045.17 1080.82 1043.53 C 1079.36 1041.77 1071.98 1036.58 1069.68 1034.56 C 1065.09 1030.51 1061.4 1026.99 1057.2 1022.52 C 1063.12 1013.87 1072.51 1005.89 1081.31 1000.24 z"/>
<path transform="translate(0,0)" fill="rgb(244,84,0)" d="M 292.126 321.698 C 303.771 329.525 329.638 348.889 334.815 362.369 C 337.707 377.917 335.618 405.339 336.006 422.027 C 336.385 438.296 338.23 461.311 335.458 476.753 C 330.913 502.07 298.013 507.371 293.535 477.162 C 290.395 457.301 292.067 437.583 292.178 417.724 C 292.371 385.716 292.354 353.706 292.126 321.698 z"/>
</svg>