<svg version="1.1" xmlns="http://www.w3.org/2000/svg" style="display: block;" viewBox="0 0 2048 2048" width="512" height="512" preserveAspectRatio="none">
<path transform="translate(0,0)" fill="rgb(2,73,216)" d="M 897.276 945.59 C 939.34 914.94 976.89 878.534 1008.83 837.44 C 1022.47 819.752 1040.59 793.039 1054.81 777.112 C 1071.9 757.977 1133.64 813.769 1145.3 827.249 C 1157.98 844.867 1169.24 859.583 1180.44 878.385 C 1186.15 887.973 1194.72 908.922 1199.49 916.069 C 1200.76 923.452 1201.94 928.639 1194.75 933.346 C 1132.9 973.843 1083.49 1029.28 1031.85 1081.56 C 1061.41 1114.61 1081.49 1163.21 1094.85 1205.2 C 1129.46 1315.21 1118.91 1434.46 1065.51 1536.67 C 1007.72 1647.54 908.544 1731.14 789.504 1769.33 C 672.029 1806.99 544.311 1795.47 435.474 1737.39 C 328.614 1682.29 248.269 1586.69 212.381 1471.94 C 176.684 1357.47 186.49 1225.86 242.502 1119.49 C 299.48 1011.16 397.526 930.222 514.679 894.791 C 611.395 864.355 715.536 867.321 810.364 903.213 C 843.573 916.079 865.914 929.018 897.276 945.59 z M 298.241 1252.13 C 309.677 1210.61 319.318 1173.95 338.215 1135.02 C 358.495 1093.24 392.125 1116.46 375.911 1145.69 C 336.339 1217.02 323.426 1302.79 348.602 1381.15 C 349.096 1382.67 349.176 1382.74 349.808 1384.07 C 351.828 1284.49 391.134 1189.29 459.956 1117.29 C 534.541 1039.35 637.006 994.193 744.856 991.727 L 743.97 990.012 C 737.124 986.593 722.725 985.148 714.678 984.191 C 661.597 977.798 607.757 983.519 557.205 1000.92 C 547.121 1004.32 537.232 1008.67 527.659 1012.22 C 512.19 1017.72 478.702 1046.31 469.819 1019.08 C 463.406 999.434 492.786 990.053 506.023 983.584 C 600.222 937.545 745.366 928.135 838.036 983.784 C 840.127 985.049 842.168 986.394 844.154 987.817 C 852.509 980.375 857.935 976.166 866.859 969.664 L 865.595 969.176 C 853.537 964.442 841.925 957.322 830.158 951.783 C 725.071 902.319 600.596 892.707 492.354 938.832 C 384.194 984.52 298.828 1071.61 255.31 1180.66 C 214.858 1281.96 213.767 1393.4 257.223 1493.91 C 279.661 1545.38 311.376 1592.29 350.785 1632.28 C 355.394 1637.02 365.609 1648.05 370.866 1650.52 C 363.612 1637.45 352.119 1624.9 343.946 1612.21 C 280.959 1514.49 260.106 1361.99 298.241 1252.13 z M 1119.9 850.79 C 1100.7 830.159 1091.42 826.262 1073.31 810.077 C 1035 869.123 992.841 912.213 938.296 956.69 C 915.059 975.638 885.194 998.939 866.569 1021.88 C 835.991 1059.53 863.427 1095.6 896.476 1117.83 C 879.338 1035.02 996.423 963.183 1048.33 913.056 C 1068.84 893.243 1097.58 867.899 1119.9 850.79 z"/>
<path transform="translate(0,0)" fill="rgb(253,184,74)" d="M 744.856 991.727 C 785.309 994.457 791.122 1003.02 823.832 1015.18 C 809.798 1074.62 839.903 1137.3 901.543 1153.97 C 919.532 1158.84 942.293 1156.65 958.775 1147.66 L 971.618 1139.07 C 974.015 1166.67 977.625 1191.98 977.776 1220.08 C 978.211 1300.65 951.732 1377.27 902.1 1440.69 C 889.56 1456.72 858.493 1476.67 876.32 1498.8 C 896.131 1505.72 909.528 1482.6 920.092 1469.5 C 952.678 1429.09 978.123 1383.95 993.732 1334.33 C 1012.52 1276.03 1016.36 1213.94 1004.89 1153.76 C 1002.91 1143.57 999.353 1127.34 995.705 1118.07 C 999.897 1113.21 1002.93 1109.85 1006.4 1104.43 C 1067.73 1192.75 1091.65 1301.73 1072.96 1407.62 C 1052.66 1517.81 989.344 1615.39 896.98 1678.82 C 755.918 1777.18 537.566 1785.01 398.962 1677.13 C 392.37 1672 386.304 1666.93 380.67 1660.73 C 379.142 1659.08 372.199 1651.46 370.866 1650.52 C 363.612 1637.45 352.119 1624.9 343.946 1612.21 C 280.959 1514.49 260.106 1361.99 298.241 1252.13 C 309.677 1210.61 319.318 1173.95 338.215 1135.02 C 358.495 1093.24 392.125 1116.46 375.911 1145.69 C 336.339 1217.02 323.426 1302.79 348.602 1381.15 C 349.096 1382.67 349.176 1382.74 349.808 1384.07 C 351.828 1284.49 391.134 1189.29 459.956 1117.29 C 534.541 1039.35 637.006 994.193 744.856 991.727 z"/>
<path transform="translate(0,0)" fill="rgb(112,165,250)" d="M 1006.4 1104.43 C 1067.73 1192.75 1091.65 1301.73 1072.96 1407.62 C 1052.66 1517.81 989.344 1615.39 896.98 1678.82 C 755.918 1777.18 537.566 1785.01 398.962 1677.13 C 392.37 1672 386.304 1666.93 380.67 1660.73 C 379.142 1659.08 372.199 1651.46 370.866 1650.52 C 363.612 1637.45 352.119 1624.9 343.946 1612.21 C 280.959 1514.49 260.106 1361.99 298.241 1252.13 C 309.677 1210.61 319.318 1173.95 338.215 1135.02 C 358.495 1093.24 392.125 1116.46 375.911 1145.69 C 336.339 1217.02 323.426 1302.79 348.602 1381.15 C 349.096 1382.67 349.176 1382.74 349.808 1384.07 C 356.471 1435.36 408.055 1501.58 449.43 1531.78 C 478.204 1552.78 493.194 1560.3 525.696 1572.08 C 588.77 1597.77 675.225 1588.76 737.904 1562.62 C 746.09 1558.85 754.016 1554.38 762.144 1550.49 C 782.726 1540.65 789.307 1542.25 801.452 1561.45 C 822.829 1541.8 862.904 1520.72 876.32 1498.8 C 896.131 1505.72 909.528 1482.6 920.092 1469.5 C 952.678 1429.09 978.123 1383.95 993.732 1334.33 C 1012.52 1276.03 1016.36 1213.94 1004.89 1153.76 C 1002.91 1143.57 999.353 1127.34 995.705 1118.07 C 999.897 1113.21 1002.93 1109.85 1006.4 1104.43 z"/>
<path transform="translate(0,0)" fill="rgb(2,73,216)" d="M 298.241 1252.13 C 309.677 1210.61 319.318 1173.95 338.215 1135.02 C 358.495 1093.24 392.125 1116.46 375.911 1145.69 C 336.339 1217.02 323.426 1302.79 348.602 1381.15 C 349.096 1382.67 349.176 1382.74 349.808 1384.07 C 356.471 1435.36 408.055 1501.58 449.43 1531.78 C 478.204 1552.78 493.194 1560.3 525.696 1572.08 C 588.77 1597.77 675.225 1588.76 737.904 1562.62 C 746.09 1558.85 754.016 1554.38 762.144 1550.49 C 782.726 1540.65 789.307 1542.25 801.452 1561.45 C 789.864 1580.46 772.853 1584.23 753.675 1592.51 C 546.574 1681.97 329.06 1556.41 303.532 1331.86 C 301.911 1317.91 301.174 1303.87 301.325 1289.83 C 301.446 1279.69 303.797 1259.64 298.241 1252.13 z"/>
<path transform="translate(0,0)" fill="rgb(247,149,37)" d="M 958.775 1147.66 L 971.618 1139.07 C 974.015 1166.67 977.625 1191.98 977.776 1220.08 C 978.211 1300.65 951.732 1377.27 902.1 1440.69 C 889.56 1456.72 858.493 1476.67 876.32 1498.8 C 862.904 1520.72 822.829 1541.8 801.452 1561.45 C 789.307 1542.25 782.726 1540.65 762.144 1550.49 C 754.016 1554.38 746.09 1558.85 737.904 1562.62 C 675.225 1588.76 588.77 1597.77 525.696 1572.08 C 529.808 1570.01 538.46 1568.49 542.973 1568.11 C 653.088 1558.74 747.661 1500.15 822.204 1420.4 C 879.614 1358.99 928.228 1277.95 949.968 1195.54 C 953.139 1183.53 959.232 1159.83 958.775 1147.66 z"/>
<path transform="translate(0,0)" fill="rgb(2,73,216)" d="M 410.43 1048.54 C 422.034 1047.84 432.105 1056.46 433.201 1068.04 C 434.296 1079.61 426.023 1089.97 414.494 1091.46 C 408.16 1092.28 401.789 1090.25 397.096 1085.92 C 392.403 1081.59 389.871 1075.4 390.181 1069.02 C 390.715 1058.03 399.442 1049.2 410.43 1048.54 z"/>
<path transform="translate(0,0)" fill="rgb(112,165,250)" d="M 1119.9 850.79 C 1140.5 870.47 1146.67 891.255 1162.46 909.455 C 1153.49 917.156 1144.35 924.847 1135.43 932.582 C 1080.26 980.382 1032.83 1036.5 979.945 1086.8 C 944.182 1120.83 945.952 1124.74 896.476 1117.83 C 879.338 1035.02 996.423 963.183 1048.33 913.056 C 1068.84 893.243 1097.58 867.899 1119.9 850.79 z"/>
<path transform="translate(0,0)" fill="rgb(2,73,216)" d="M 1314.5 707.962 C 1360.63 676.389 1402.12 642.078 1446.71 608.902 L 1693.99 426.168 L 1767.26 371.995 C 1788.09 356.378 1808.66 340.274 1830.59 326.227 C 1835.99 322.912 1842.67 319.421 1849.09 319.762 C 1857.5 320.209 1861.25 334.269 1859.44 340.89 C 1856.03 353.304 1834.05 365.409 1823.44 372.965 C 1810.19 382.571 1796.99 392.254 1783.85 402.014 L 1643.68 506.013 L 1393.53 691.527 C 1366.08 711.745 1338.18 733.155 1310.59 752.859 C 1339.51 751.732 1372.61 753.472 1401.62 755.403 C 1417.02 756.429 1425.6 771.851 1413.56 782.533 C 1402.83 794.008 1333.37 808.206 1331.28 820.763 C 1340.7 837.818 1408.44 889.656 1369.4 914.581 C 1366.96 916.14 1362.12 914.678 1359.83 913.411 C 1314.05 888.59 1307.82 892.954 1259.64 894.176 C 1236.48 899.461 1221 905.529 1199.49 916.069 C 1194.72 908.922 1186.15 887.973 1180.44 878.385 C 1169.24 859.583 1157.98 844.867 1145.3 827.249 C 1145.88 826.807 1146.57 826.237 1147.45 825.755 C 1177.86 809.084 1184.99 811.103 1215.86 817.546 C 1236.96 808.521 1248.16 782.532 1265.67 776.844 L 1262.72 767.349 C 1268.92 745.922 1271.04 742.313 1283.33 723.479 C 1270.34 734.303 1252.29 750.496 1237.22 757.488 C 1210.2 770.022 1212.62 726.712 1214.7 710.601 C 1198.89 739.016 1173.76 783.953 1140.42 793.585 C 1137.57 794.388 1134.69 795.1 1131.8 795.722 C 1106.8 781.739 1131.15 764.2 1144.24 751.808 C 1160.42 736.484 1176.21 717.089 1184.58 696.295 C 1187.54 688.789 1189.83 681.033 1191.41 673.119 C 1193.6 661.508 1190.26 634.353 1205.5 633.182 C 1230.27 631.278 1240.35 684.219 1242.73 700.952 C 1243.38 705.497 1243.97 710.05 1244.5 714.61 C 1255.63 702.994 1268 693.132 1280.56 683.216 C 1321.42 650.969 1337.14 659.606 1314.5 707.962 z M 1296.46 859.012 C 1308.31 860.038 1313.4 860.424 1324.84 863.761 C 1317.01 854.445 1307.81 846.37 1297.56 839.812 C 1294.3 849.334 1293.31 849.628 1296.46 859.012 z"/>
<path transform="translate(0,0)" fill="rgb(247,149,37)" d="M 1265.67 776.844 C 1274.6 782.491 1282.78 783.095 1293.14 784.638 C 1293.8 790.625 1294.2 790.43 1298.09 795.309 C 1266.73 813.079 1272.02 820.298 1297.56 839.812 C 1294.3 849.334 1293.31 849.628 1296.46 859.012 C 1286.01 859.524 1262.49 859.635 1254.66 867.587 C 1247.5 874.862 1255.59 887.136 1259.64 894.176 C 1236.48 899.461 1221 905.529 1199.49 916.069 C 1194.72 908.922 1186.15 887.973 1180.44 878.385 C 1169.24 859.583 1157.98 844.867 1145.3 827.249 C 1145.88 826.807 1146.57 826.237 1147.45 825.755 C 1177.86 809.084 1184.99 811.103 1215.86 817.546 C 1236.96 808.521 1248.16 782.532 1265.67 776.844 z"/>
<path transform="translate(0,0)" fill="rgb(253,184,74)" d="M 1293.14 784.638 C 1298.74 784.917 1316.38 784.341 1319.18 785.294 C 1316.99 788.625 1303.3 792.682 1298.09 795.309 C 1294.2 790.43 1293.8 790.625 1293.14 784.638 z"/>
<path transform="translate(0,0)" fill="rgb(2,73,216)" d="M 1488.89 752.237 C 1523.74 751.478 1584.15 758.806 1620.67 761.997 L 1752.89 774.677 C 1780.18 777.547 1814.15 779.325 1840.55 787.673 C 1842.67 788.342 1845.65 790.802 1845.97 793.247 C 1847.61 805.6 1847.5 812.753 1834.11 815.775 C 1814.32 816.925 1774.52 812.472 1753.94 810.404 L 1661.5 801.866 L 1560.79 792.906 C 1535.44 790.709 1506.12 789.478 1481.63 783.979 C 1474.23 782.318 1471.54 758.041 1488.89 752.237 z"/>
<path transform="translate(0,0)" fill="rgb(2,73,216)" d="M 1408.19 283.908 C 1432.8 288.828 1428.5 305.615 1422 324.816 C 1416.6 340.79 1409.26 356.163 1403.06 371.875 C 1390.66 403.785 1378.49 435.783 1366.56 467.867 C 1354.96 499.206 1344.5 531.346 1332.94 562.718 C 1326.16 581.135 1319.62 601.545 1310.11 618.516 C 1305.82 621.402 1304.8 621.722 1299.88 623.636 C 1293.95 623.549 1283.77 623.033 1282.06 616.526 C 1277.2 597.979 1291.93 568.021 1298.24 551.453 L 1321.17 490.247 L 1362 380.982 C 1369.53 360.459 1388.56 292.576 1408.19 283.908 z"/>
<path transform="translate(0,0)" fill="rgb(2,73,216)" d="M 1444.49 874.732 C 1451.09 874.765 1461.6 880.407 1467.23 884.039 C 1528.88 923.898 1589.25 965.793 1651.15 1005.34 C 1672.31 1018.86 1673.17 1028.86 1651.82 1043.16 C 1635.98 1042.2 1458.63 922.696 1434.11 902.209 C 1431.57 900.092 1429.25 897.316 1429.64 893.623 C 1430.45 886.052 1439.07 879.485 1444.49 874.732 z"/>
<path transform="translate(0,0)" fill="rgb(2,73,216)" d="M 924.188 506.906 C 925.863 506.811 927.53 506.679 929.203 506.902 C 953.843 510.185 1029.21 595.649 1050.28 616.8 C 1063.17 629.744 1077.85 640.053 1089.17 654.639 C 1093.76 660.554 1099.57 667.201 1098.22 675.184 C 1097.08 681.962 1092.04 685.998 1086.66 689.612 C 1082.28 690.827 1078.46 691.403 1074.53 688.365 C 1065.68 681.524 1057.69 673.155 1049.77 665.243 L 1010 625.481 L 955.127 570.841 C 945.637 561.389 918.495 537.365 914.087 522.743 C 912.761 518.344 920.457 510.089 924.188 506.906 z"/>
<path transform="translate(0,0)" fill="rgb(2,73,216)" d="M 1233.99 1022.19 C 1252.56 1020.96 1256.79 1033.2 1258.61 1049.27 C 1264.23 1098.87 1272.31 1148.15 1277.75 1197.76 C 1279.5 1213.77 1279.48 1215.07 1265.39 1221.68 C 1259.81 1222.72 1254.19 1221.5 1249.99 1217.55 C 1247.34 1215.06 1245.37 1211.93 1244.26 1208.46 C 1241.55 1200.03 1237.64 1172.52 1236.19 1162.09 C 1230.66 1122.16 1221.21 1072.62 1221.11 1032.81 C 1225.47 1026.75 1227.3 1025.5 1233.99 1022.19 z"/>
<path transform="translate(0,0)" fill="rgb(2,73,216)" d="M 1330.2 964.055 C 1347.92 963.965 1355.36 982.106 1363.9 995.301 L 1390.37 1036.07 C 1403.2 1055.74 1417.18 1075 1429.3 1094.99 C 1440.19 1112.96 1441.86 1121.73 1424.7 1135.21 C 1404.86 1135.49 1389.84 1103.63 1380.71 1088.54 C 1372.78 1075.66 1364.74 1062.84 1356.6 1050.09 C 1346.09 1033.6 1334.08 1018.45 1324.21 1001.59 C 1315.51 986.755 1311.59 973.024 1330.2 964.055 z"/>
<path transform="translate(0,0)" fill="rgb(2,73,216)" d="M 1140.56 432.124 C 1146.33 431.974 1154.65 434.393 1156.43 440.502 C 1170.08 487.372 1182.05 535.181 1193.87 582.57 C 1198.11 599.575 1196.26 603.526 1180.71 609.939 C 1176.9 610.159 1172.48 610.847 1168.99 609.049 C 1162.29 605.603 1153.08 566.391 1150.78 558.162 C 1146.41 542.598 1120.08 448.554 1126.01 439.802 C 1129.3 434.953 1135.26 433.598 1140.56 432.124 z"/>
<path transform="translate(0,0)" fill="rgb(2,73,216)" d="M 1446.25 1146.9 C 1473.64 1152.72 1513.77 1230.73 1530.17 1255.25 C 1540.73 1271.03 1536.41 1280.47 1520.42 1288.5 C 1520.14 1288.41 1519.85 1288.33 1519.58 1288.22 C 1499.97 1280.29 1442.59 1192.54 1433.3 1171.3 C 1431.36 1166.88 1429.71 1162.83 1431.81 1158.14 C 1434.41 1152.33 1440.67 1149.17 1446.25 1146.9 z"/>
<path transform="translate(0,0)" fill="rgb(2,73,216)" d="M 758.159 676.978 C 779.806 679.699 877.652 695.833 890.89 705.601 C 893.569 707.578 894.84 711.177 895.289 714.357 C 896.058 719.804 894.734 725.626 891.343 730.015 C 888.62 733.538 885.489 734.672 881.246 735.386 C 851.014 735.435 812.471 726.017 782.893 718.942 C 763.166 714.223 716.046 694.989 758.159 676.978 z"/>
<path transform="translate(0,0)" fill="rgb(2,73,216)" d="M 1084.72 235.992 C 1113.03 237.354 1124.96 314.052 1122.81 335.424 C 1122.44 339.099 1115.53 342.762 1112.59 344.588 C 1104.12 346.56 1098.74 341.515 1094.89 333.993 C 1081.68 308.249 1073.17 272.546 1073.83 243.67 C 1073.9 240.651 1082.17 237.146 1084.72 235.992 z"/>
<path transform="translate(0,0)" fill="rgb(2,73,216)" d="M 1692.05 1038.99 C 1702.84 1038.59 1731.7 1056.83 1740.6 1063.23 C 1756.19 1074.46 1787.66 1097.31 1758.68 1113.2 C 1744.78 1112.01 1714.15 1092.18 1702.3 1083.34 C 1687.08 1071.99 1665.53 1051.83 1692.05 1038.99 z"/>
<path transform="translate(0,0)" fill="rgb(2,73,216)" d="M 864.642 443.057 C 878.292 442.272 895.942 460.47 904.693 469.751 C 911.759 477.246 915.873 485.304 919.11 494.993 C 916.584 504.154 915.071 506.368 906.932 511.001 C 895.17 514.018 867.78 488.413 861.384 479.019 C 850.977 463.734 849.413 453.961 864.642 443.057 z"/>
<path transform="translate(0,0)" fill="rgb(2,73,216)" d="M 936.919 713.3 C 950.361 712.963 972.614 718.376 984.051 725.653 C 999.132 735.25 989.753 754.04 972.973 755.498 C 962.008 753.791 905.923 744.133 919.139 722.853 C 922.816 716.932 930.234 714.481 936.919 713.3 z"/>
<path transform="translate(0,0)" fill="rgb(2,73,216)" d="M 815.096 391.822 C 836.08 396.919 850.405 408.879 856.32 429.994 C 856.027 431.202 855.705 432.404 855.352 433.596 C 852.872 441.838 850.515 443.279 843.233 447.291 C 825.092 447.316 783.3 409.971 815.096 391.822 z"/>
<path transform="translate(0,0)" fill="rgb(2,73,216)" d="M 1119.57 364.899 C 1127.15 364.036 1131.11 366.87 1136.67 371.505 C 1137.2 372.82 1137.71 374.147 1138.17 375.487 C 1142.54 388.144 1140.07 400.195 1126.32 404.442 C 1102.28 398.84 1096.59 377.97 1119.57 364.899 z"/>
</svg>