<svg version="1.1" xmlns="http://www.w3.org/2000/svg" style="display: block;" viewBox="0 0 2048 2048" width="512" height="512" preserveAspectRatio="none">
<path transform="translate(0,0)" fill="rgb(16,72,177)" d="M 416.506 187.65 C 429.91 190.682 434.272 195.513 443.844 205.052 C 467.486 228.969 490.323 253.598 514.935 276.534 C 534.043 294.342 554.751 308.966 562.31 334.941 C 558.427 351.089 551.404 353.219 536.77 358.876 C 515.413 348.98 459.306 289.968 440.692 269.619 C 442.373 281.725 441.988 299.537 442.001 312.106 L 441.993 375.914 L 441.989 590.99 L 442.016 1042.29 C 442.025 1122.89 443.033 1205.6 441.792 1285.95 C 438.815 1297.04 439.457 1343.65 441.705 1355.3 C 442.107 1411.64 442.214 1467.98 442.025 1524.32 C 442.02 1552.64 443.22 1591.67 441.756 1619.29 C 481.012 1618.27 521.923 1618.86 561.283 1618.95 L 727.964 1619 L 1277.99 1619.02 L 1600.31 1619 L 1702.24 1618.93 C 1719.9 1618.91 1743.71 1618.1 1760.64 1619.56 C 1743.35 1606.3 1726.09 1589.33 1710.63 1573.93 C 1696.46 1559.81 1674.21 1541.63 1670.97 1521.24 C 1668.32 1504.56 1686.05 1500.63 1698.61 1500.34 C 1721.59 1511.11 1765.91 1561.92 1786.56 1581.71 C 1797.67 1592.35 1810.35 1601.62 1820.92 1612.72 C 1826.64 1618.74 1834.26 1626.08 1837.18 1633.88 C 1839.35 1639.67 1840.69 1644.64 1837.91 1650.36 C 1829.18 1668.36 1715.15 1779.2 1697.05 1784.86 C 1695.39 1785.38 1693.7 1785.79 1692 1786.18 C 1678.09 1781.95 1661.7 1767.48 1669.65 1754.54 C 1686.53 1727.09 1721.43 1700.96 1745.35 1678.46 C 1748.3 1675.69 1758.34 1669.29 1757.77 1666.67 C 1657.49 1665.53 1554.46 1666.89 1453.81 1666.88 L 804.562 1666.87 L 562.782 1666.88 C 524.049 1666.88 479.675 1668.06 441.615 1666.85 C 443.409 1708.36 441.078 1750.94 442.2 1792.55 C 442.453 1801.96 442.197 1811.37 440.967 1820.56 C 437.29 1848.05 396.822 1851.24 394.176 1820.19 C 392.435 1799.76 392.937 1780.44 393.03 1759.96 C 393.366 1731.25 392.415 1701.31 393.14 1672.79 C 393.208 1670.71 393.308 1668.64 393.439 1666.57 C 357.548 1666.88 321.655 1666.99 285.762 1666.9 C 276.762 1666.9 264.891 1667.25 256.86 1666.87 C 244.107 1666.26 214.366 1669.08 207.749 1656.09 C 197.888 1636.74 206.214 1620.84 227.941 1619.78 C 248.916 1618.75 267.136 1618.9 287.055 1618.91 L 393.985 1618.93 C 392.156 1605.24 393.062 1572.21 393.065 1556.8 L 393.015 1433.83 C 392.995 1429.26 393.937 1405.08 393.192 1402.51 C 388.08 1404.72 382.542 1406.61 377.29 1408.53 C 328.97 1393.56 367.272 1352.77 393.544 1341.08 C 394.004 1337.74 393.395 1322.57 393.318 1318.42 C 393.106 1304.61 393.03 1290.8 393.088 1276.99 L 393.094 1104.8 L 393.11 541.427 L 393.106 363.575 C 393.086 338.592 391.683 293.877 393.731 270.177 C 381.249 281.072 369.239 292.496 357.734 304.417 C 344.165 318.405 324.146 344.674 307.02 353.312 C 284.952 364.442 267.933 338.721 280.14 318.961 C 284.457 311.973 291.141 305.546 296.928 299.56 C 331.962 265.472 364.227 228.166 400.256 195.246 C 404.52 191.351 411.104 189.324 416.506 187.65 z"/>
<path transform="translate(0,0)" fill="rgb(250,111,3)" d="M 393.544 1341.08 C 394.424 1355.87 394.987 1388.08 393.192 1402.51 C 388.08 1404.72 382.542 1406.61 377.29 1408.53 C 328.97 1393.56 367.272 1352.77 393.544 1341.08 z"/>
<path transform="translate(0,0)" fill="rgb(250,111,3)" d="M 441.792 1285.95 C 454.581 1271.11 470.579 1245.93 481.001 1229.37 C 596.734 1045.44 627.407 825.047 666.773 615.572 C 671.799 588.828 689.724 525.878 719.056 516.966 C 787.509 496.169 805.279 632.772 812.418 675.854 L 823.449 742.524 C 829.306 778.265 836.34 813.803 844.539 849.08 C 858.003 905.364 874.515 960.873 894.003 1015.36 C 940.748 1145.09 1050.2 1355.45 1221.15 1290.3 C 1393.28 1224.69 1489.24 1013.63 1550.01 852.467 C 1557.13 833.584 1561.05 815.668 1569.63 796.882 C 1578.31 795.58 1607.04 795.432 1616.16 796.2 C 1610.56 826.607 1596.15 862.797 1585.36 892.166 C 1529.56 1044.08 1451.19 1191.92 1318.82 1290.25 C 1176.2 1396.2 1030.3 1344.81 937.215 1205.68 C 845.003 1067.86 808.65 907.807 777.564 747.253 C 764.692 679.765 763.93 627.597 733.336 564.329 C 713.529 599.611 708.361 643.353 701.22 683.038 L 684.772 772.473 C 650.717 948.608 606.604 1125.78 506.419 1277.32 C 490.361 1301.61 465.124 1338.25 441.705 1355.3 C 439.457 1343.65 438.815 1297.04 441.792 1285.95 z"/>
<path transform="translate(0,0)" fill="rgb(16,72,177)" d="M 1330.72 765.795 C 1313.86 748.065 1271.09 713.329 1264.76 688.296 C 1261.32 674.685 1285.15 655.837 1301.04 669.085 C 1323.74 688.018 1343.52 710.863 1365.31 731.558 C 1378.25 713.459 1432.65 645.501 1456.74 671.711 C 1479.67 696.668 1428.21 735.611 1411.36 750.833 C 1426.52 749.089 1466.88 749.702 1483.7 749.894 C 1514.66 750.247 1553.85 748.539 1583.89 750.689 C 1590.91 751.1 1623.24 751.812 1628.72 750.355 C 1649.13 749.594 1670.45 749.544 1690.93 749.866 C 1735.8 750.571 1781.13 748.233 1825.86 751.019 C 1845.62 752.249 1851.8 779.276 1838.34 791.805 C 1834.01 795.93 1827.73 796.205 1822.07 796.764 C 1799.4 797.521 1776.17 796.326 1753.46 796.218 L 1616.16 796.2 C 1607.04 795.432 1578.31 795.58 1569.63 796.882 C 1555.15 795.449 1525.92 796.082 1510.79 796.193 C 1483.9 796.391 1454.37 795.407 1427.83 796.438 L 1427.68 797.726 C 1431.17 802.034 1435.98 805.329 1440.23 808.874 C 1447.8 815.202 1463.19 829.092 1463.69 839.213 C 1464.04 846.357 1460.37 853.982 1455.35 858.889 C 1450.74 863.406 1444.07 867.518 1437.36 867.164 C 1421.22 866.314 1377.19 813.492 1364.84 800.007 C 1341.74 821.35 1314.16 859.184 1283.91 866.831 C 1261.38 857.19 1258.75 839.598 1274.34 821.213 C 1290.65 801.971 1310.57 781.036 1330.72 765.795 z"/>
<path transform="translate(0,0)" fill="rgb(250,111,3)" d="M 1583.89 750.689 C 1584.09 735.146 1600.45 676.425 1604.6 656.814 C 1615.88 602.902 1624.47 548.46 1630.33 493.693 C 1631.45 483.024 1632.28 452.335 1639.94 445.064 C 1651.27 434.29 1667.01 438.675 1676.9 449.972 C 1679.18 464.875 1679.28 475.372 1677.75 490.458 C 1670.46 562.293 1655.82 634.411 1640.64 704.986 C 1638.4 715.387 1633 742.546 1628.72 750.355 C 1623.24 751.812 1590.91 751.1 1583.89 750.689 z"/>
</svg>