<svg version="1.1" xmlns="http://www.w3.org/2000/svg" style="display: block;" viewBox="0 0 2048 2048" width="512" height="512" preserveAspectRatio="none">
<path transform="translate(0,0)" fill="rgb(2,32,162)" d="M 921.302 194.383 C 924.094 193.953 926.8 194.064 929.545 194.145 C 991.366 196.346 996.951 249.166 996.118 298.791 C 995.508 335.131 997.158 372.236 995.779 408.554 C 1099.51 454.343 1127.46 557.714 1085.44 658.422 C 1094.13 671.883 1103.35 694.462 1110.01 709.468 C 1121.72 736.053 1133.6 762.567 1145.63 789.009 C 1164.29 830.268 1183.58 871.24 1203.5 911.909 C 1213.68 932.821 1225.15 954.225 1234.82 975.152 L 1400.71 594.604 C 1423.06 543.201 1438.88 490.749 1464.87 440.86 C 1489.53 393.514 1514.33 386.121 1562.06 409.366 C 1588.42 422.201 1629.11 435.421 1652.04 452.206 C 1694.81 483.518 1652.01 556.524 1635.69 591.255 C 1627.25 609.599 1619.14 628.092 1611.37 646.725 L 1469.68 979.429 C 1465.15 990.072 1460.63 1000.72 1456.11 1011.37 C 1439.1 1051.44 1418.41 1088.94 1405.17 1130.53 C 1448.96 1217.12 1491.9 1306.42 1534.86 1393.69 L 1571.28 1468.86 C 1582.95 1492.36 1599.13 1521.24 1606.53 1546.45 C 1620.68 1594.66 1624.93 1647.48 1637.23 1696.49 C 1639.14 1710.22 1641.72 1718.96 1644.02 1733.06 C 1646.33 1747.28 1679.18 1782.71 1667.48 1796.04 C 1656.41 1808.64 1643.46 1799.77 1637 1787.92 C 1632.61 1779.89 1623.62 1765.9 1616.86 1758.7 C 1606.61 1748.93 1592.41 1741.53 1580.68 1733.79 C 1552.49 1715.4 1524.49 1696.73 1496.68 1677.77 C 1483.19 1668.4 1460.15 1652.4 1449.17 1640.67 C 1450.22 1656.78 1450.43 1671.1 1452.72 1687.39 C 1455.51 1707.2 1458.25 1726.61 1461.05 1746.55 C 1462.49 1756.71 1461.43 1775.41 1463.47 1784.7 C 1466.73 1799.55 1486.38 1820.77 1483.37 1839.18 C 1482.32 1845.62 1473.17 1849.74 1467.79 1852.52 C 1440.03 1834.84 1443.36 1801.77 1421.03 1781.63 C 1409.87 1771.56 1391.99 1759.28 1379.58 1749.68 L 1307.44 1692.92 C 1295.55 1683.73 1282.92 1674.52 1271.77 1664.45 C 1259.99 1653.81 1255.78 1637.44 1250.48 1622.75 C 1233.33 1578.74 1210.5 1536.18 1190.91 1493.17 C 1186.57 1483.62 1181.67 1474.3 1178.33 1464.33 C 1172.32 1467.95 1170.04 1469.16 1163.51 1471.81 C 1145.34 1464.76 1122.24 1455.24 1110.3 1438.94 C 1114.57 1415.21 1122.8 1394.24 1125.25 1370.01 C 1130.63 1316.75 1130.62 1273.75 1143.67 1221.28 C 1134.03 1208.61 1118.19 1171 1110.78 1155.02 L 1054.21 1033.64 L 970.482 853.801 C 962.857 837.282 955.141 820.806 947.334 804.373 C 942.652 794.533 936.049 781.727 932.508 771.666 C 929.866 780.84 920.017 801.476 915.762 811.418 L 883.497 888.293 L 763.34 1173.32 L 625.804 1499.86 L 586.018 1594.56 C 565.996 1642.54 562.285 1657.44 524.121 1694.55 C 492.247 1725.54 458.863 1758.9 429.19 1791.95 C 415.161 1807.57 411.347 1838.64 393.698 1852.35 C 387.898 1857.16 378.595 1855.3 375.472 1847.98 C 365.168 1823.84 395.582 1799.21 393.849 1776.15 C 390.072 1725.88 383.27 1675.79 380.868 1625.37 C 381.295 1614.62 378.019 1596.42 380.803 1585.96 C 386.929 1562.95 399.795 1537.09 409.259 1515.05 L 464.549 1385.27 L 666.882 909.864 C 692.145 851.475 716.87 792.856 741.053 734.012 C 751.086 709.495 763.268 683.288 771.49 658.349 C 752.544 615.101 742.362 573.672 753.975 526.491 C 763.734 486.087 788.12 450.733 822.422 427.258 C 834.365 419.051 843.881 414.964 855.436 407.931 C 853.283 386.43 854.827 363.788 855.03 342.116 C 855.611 279.994 838.263 204.513 921.302 194.383 z M 1257.49 1224.22 C 1270.86 1221.39 1279.42 1208.28 1276.63 1194.9 C 1273.85 1181.52 1260.77 1172.92 1247.38 1175.65 C 1233.93 1178.4 1225.26 1191.56 1228.06 1205.01 C 1230.86 1218.46 1244.06 1227.07 1257.49 1224.22 z M 419.26 1579.23 C 438.851 1583.78 468.35 1597.31 487.752 1605.47 C 501.741 1611.36 521.065 1618.81 534.446 1624.99 L 536.788 1624.41 C 545.057 1607.69 555.377 1579.26 563.193 1560.77 L 625.237 1414.11 L 819.049 955.252 L 877.533 816.734 C 883.633 802.266 899.015 762.869 905.85 750.516 C 874.441 749.737 833.022 729.856 810.536 708.257 C 807.885 705.711 795.912 693.704 793.521 692.388 L 526.472 1325.97 L 449.615 1506.46 C 443.381 1521.18 437.311 1535.96 431.406 1550.81 C 428.316 1558.55 423.326 1572.42 419.26 1579.23 z M 957.956 751.02 C 964.94 764.641 970.526 778.304 976.989 792.13 L 1012.49 867.383 C 1055.14 958.752 1098.34 1052.84 1141.98 1143.53 C 1146.27 1153.63 1150.7 1163.88 1154.85 1174.03 C 1165.96 1124.33 1194.51 1062.81 1217.35 1017.08 C 1201.86 986.962 1070.27 695.774 1063.92 692.674 C 1027.74 725.732 1005.64 740.206 957.956 751.02 z M 1318.35 1298.09 C 1327.78 1319.82 1339.98 1343.5 1350.32 1365.25 L 1417.25 1505.01 C 1430.29 1531.77 1454.55 1574.73 1461.33 1601.43 C 1471.86 1593.75 1478.19 1590.78 1490.25 1585.58 C 1514.37 1575.55 1550.79 1561.11 1573.44 1549.65 C 1564.2 1525.42 1539.02 1475.81 1526.61 1451.77 C 1512.55 1424.54 1485.21 1365.27 1473.63 1343.38 C 1464.24 1325.64 1392.15 1171.79 1386.25 1165.75 C 1371.05 1204.39 1348.03 1271.37 1318.35 1298.09 z M 1478.79 1625.71 C 1495.57 1635.75 1511.22 1646.56 1527.22 1657.79 C 1534.68 1663.03 1545.64 1669.82 1552.56 1675.24 C 1571.64 1687.39 1591.5 1701.75 1609.73 1715.17 C 1605.73 1699.97 1584.02 1588.22 1579.42 1585.11 L 1578.6 1585.28 C 1543.9 1597.75 1512.81 1611.72 1478.79 1625.71 z M 913.127 503.558 C 875.18 510.794 850.306 547.452 857.604 585.388 C 864.901 623.323 901.599 648.137 939.523 640.778 C 977.36 633.436 1002.1 596.841 994.824 558.992 C 987.543 521.143 950.988 496.339 913.127 503.558 z M 421.273 1750.83 C 437.512 1735.73 454.793 1717.8 470.073 1701.67 C 483.42 1688.09 503.747 1665.93 517.232 1653.71 C 508.066 1650.56 498.764 1646.43 489.89 1642.49 C 465.064 1631.46 438.221 1622.85 413.847 1610.98 C 414.153 1633.48 416.357 1654.69 418.185 1676.99 C 419.889 1697.77 424.151 1730.87 421.273 1750.83 z M 1144.78 1429.98 C 1152.35 1432.26 1156.29 1434.6 1163.28 1437.49 L 1169.2 1428.13 C 1175.09 1419.89 1182.03 1409.62 1188.47 1402.03 C 1178.97 1398.5 1164.68 1392.6 1155.62 1387.67 C 1152.2 1401.97 1148.96 1415.88 1144.78 1429.98 z M 919.046 226.171 C 909.416 228.32 900.793 233.769 895.298 242.076 C 879.717 265.632 890.767 362.854 887.033 395.55 C 886.98 396.015 886.936 396.482 886.888 396.948 C 902.658 394.844 913.827 392.962 929.751 393.625 C 938.769 394.306 955.842 395.434 963.979 397.548 L 964.115 317.359 C 964.192 280.526 972.968 221.638 919.046 226.171 z M 1409.72 1602.01 C 1373.04 1620.14 1340.68 1633.3 1304.92 1653.88 C 1326.76 1665.52 1353.69 1685.59 1372.47 1702.07 C 1388.14 1712.33 1416.03 1736.13 1427.82 1750.51 C 1424.58 1734.44 1413.27 1605.68 1409.72 1602.01 z M 1306.42 1616.18 C 1335.11 1601.96 1371.32 1583.03 1401.15 1572.33 C 1389.5 1548.45 1291.96 1338.95 1287.49 1334.67 C 1281.27 1343.56 1273.22 1352.35 1265.95 1360.48 C 1243.43 1385.66 1222.33 1411.12 1201.7 1437.89 C 1221.69 1479.71 1241.26 1521.71 1260.42 1563.9 C 1266.53 1577.12 1284.46 1613.34 1288.65 1625.39 C 1294.52 1622.26 1300.41 1619.03 1306.42 1616.18 z"/>
<path transform="translate(0,0)" fill="rgb(244,103,25)" d="M 1449.07 561.683 C 1458.79 567.172 1476.48 574.257 1487.39 579.285 C 1521.87 594.271 1554.07 607.222 1588.27 623.385 C 1567.82 669.089 1548.02 716.529 1528.18 762.647 L 1386.42 1091.76 C 1373.79 1120.65 1360.55 1149.66 1348.03 1178.56 C 1340.21 1196.62 1326.92 1236.12 1316.92 1250.81 C 1286.66 1295.25 1243.83 1336.87 1208.36 1377.96 C 1197.03 1372.61 1185.62 1367.42 1174.14 1362.4 C 1168.31 1360.1 1162.55 1357.63 1156.88 1354.97 C 1165.55 1301.05 1164.54 1247.68 1180.08 1193.97 C 1193.99 1145.85 1213.1 1103.22 1233.04 1057.46 L 1297.94 908.491 L 1395.84 683.737 C 1413.06 644.077 1430.58 600.356 1449.07 561.683 z M 1257.49 1224.22 C 1270.86 1221.39 1279.42 1208.28 1276.63 1194.9 C 1273.85 1181.52 1260.77 1172.92 1247.38 1175.65 C 1233.93 1178.4 1225.26 1191.56 1228.06 1205.01 C 1230.86 1218.46 1244.06 1227.07 1257.49 1224.22 z"/>
<path transform="translate(0,0)" fill="rgb(251,149,68)" d="M 1449.07 561.683 C 1458.79 567.172 1476.48 574.257 1487.39 579.285 C 1484.45 589.057 1481.7 598.076 1478.29 607.69 C 1477 611.319 1473.31 620.503 1472.57 623.34 C 1464.98 630.22 1462.87 634.217 1466.93 644.158 C 1460.18 657.608 1455.7 672.934 1448.15 686.238 C 1445.99 690.048 1442.62 695.548 1440.81 699.284 C 1431.5 704.936 1426.59 709.991 1432.92 720.903 C 1428.42 735.07 1411.58 765.85 1409.93 775.768 C 1398.97 781.053 1396.88 784.981 1401.36 796.601 C 1395.08 808.046 1389.71 824.216 1384.37 836.503 C 1383.4 838.726 1378.25 850.678 1377.91 851.8 C 1364.82 851.974 1363.44 861.052 1368.27 871.177 C 1362.96 883.851 1357.42 896.424 1351.63 908.889 C 1349.92 912.654 1344.95 922.758 1343.9 925.841 C 1332.61 929.938 1329.5 936.755 1334.48 947.939 C 1329.21 959.789 1324.52 971.974 1319.17 983.959 C 1317.19 988.385 1311.33 1000.04 1309.95 1003.55 C 1299.9 1007.39 1297.94 1014.22 1303.88 1023.13 C 1297.54 1031.51 1278.34 1067.69 1278.15 1076.46 C 1270.87 1079 1261.57 1084.18 1266.53 1093.5 C 1267.51 1095.33 1268.71 1097.02 1270.09 1098.56 C 1264.52 1112.52 1253.49 1130.83 1250.34 1144.89 C 1233.67 1146.52 1220.49 1151.51 1209.47 1165.02 C 1199.99 1176.63 1195.71 1191.64 1197.63 1206.51 C 1199.85 1223.41 1209.97 1237.92 1224.36 1246.85 C 1212.63 1272.24 1202.86 1300.11 1191.65 1325.84 C 1187.22 1336.01 1180.13 1353.34 1174.14 1362.4 C 1168.31 1360.1 1162.55 1357.63 1156.88 1354.97 C 1165.55 1301.05 1164.54 1247.68 1180.08 1193.97 C 1193.99 1145.85 1213.1 1103.22 1233.04 1057.46 L 1297.94 908.491 L 1395.84 683.737 C 1413.06 644.077 1430.58 600.356 1449.07 561.683 z"/>
<path transform="translate(0,0)" fill="rgb(2,32,162)" d="M 1250.34 1144.89 C 1266.72 1145.72 1280.33 1149.91 1291.88 1162.55 C 1301.86 1173.58 1306.97 1188.17 1306.04 1203.02 C 1304.92 1218.07 1297.77 1232.04 1286.21 1241.74 C 1275.46 1250.82 1261.52 1255.24 1247.5 1254.02 C 1238.69 1253.23 1232.1 1250.69 1224.36 1246.85 C 1209.97 1237.92 1199.85 1223.41 1197.63 1206.51 C 1195.71 1191.64 1199.99 1176.63 1209.47 1165.02 C 1220.49 1151.51 1233.67 1146.52 1250.34 1144.89 z M 1257.49 1224.22 C 1270.86 1221.39 1279.42 1208.28 1276.63 1194.9 C 1273.85 1181.52 1260.77 1172.92 1247.38 1175.65 C 1233.93 1178.4 1225.26 1191.56 1228.06 1205.01 C 1230.86 1218.46 1244.06 1227.07 1257.49 1224.22 z"/>
<path transform="translate(0,0)" fill="rgb(2,32,162)" d="M 1278.15 1076.46 C 1286.98 1079.04 1329.64 1092.19 1325.35 1108.1 C 1322.09 1120.19 1294.57 1110.15 1285.9 1106.48 C 1280.49 1104.14 1275.21 1101.49 1270.09 1098.56 C 1268.71 1097.02 1267.51 1095.33 1266.53 1093.5 C 1261.57 1084.18 1270.87 1079 1278.15 1076.46 z"/>
<path transform="translate(0,0)" fill="rgb(2,32,162)" d="M 1343.9 925.841 C 1354.76 929.646 1390.77 941.993 1388.74 957.038 C 1380.15 971.725 1344.98 953.499 1334.48 947.939 C 1329.5 936.755 1332.61 929.938 1343.9 925.841 z"/>
<path transform="translate(0,0)" fill="rgb(2,32,162)" d="M 1409.93 775.768 C 1487.39 798.806 1446.98 833.184 1401.36 796.601 C 1396.88 784.981 1398.97 781.053 1409.93 775.768 z"/>
<path transform="translate(0,0)" fill="rgb(2,32,162)" d="M 1368.27 871.177 C 1363.44 861.052 1364.82 851.974 1377.91 851.8 C 1388.83 854.792 1414.13 862.106 1417.38 872.513 C 1425.73 899.269 1389.26 884.032 1380.91 879.312 C 1376.54 876.84 1372.32 874.124 1368.27 871.177 z"/>
<path transform="translate(0,0)" fill="rgb(2,32,162)" d="M 1472.57 623.34 C 1485.42 627.788 1522.02 639.528 1522.32 655.389 C 1514 670.673 1477.03 650.914 1466.93 644.158 C 1462.87 634.217 1464.98 630.22 1472.57 623.34 z"/>
<path transform="translate(0,0)" fill="rgb(2,32,162)" d="M 1309.95 1003.55 C 1321.99 1006.81 1357.39 1017.83 1355.02 1034.02 C 1353.39 1045.15 1331.3 1039.09 1324.96 1036.42 C 1317.29 1033.11 1310.18 1028.62 1303.88 1023.13 C 1297.94 1014.22 1299.9 1007.39 1309.95 1003.55 z"/>
<path transform="translate(0,0)" fill="rgb(2,32,162)" d="M 1440.81 699.284 C 1452.44 702.999 1486.65 714.09 1485.89 729.584 C 1477.7 743.723 1443.3 726.915 1432.92 720.903 C 1426.59 709.991 1431.5 704.936 1440.81 699.284 z"/>
<path transform="translate(0,0)" fill="rgb(244,103,25)" d="M 921.603 425.31 C 1003.09 422.295 1071.59 485.912 1074.6 567.398 C 1077.61 648.885 1013.99 717.381 932.502 720.386 C 851.023 723.391 782.533 659.777 779.524 578.298 C 776.514 496.818 840.123 428.325 921.603 425.31 z M 939.523 640.778 C 977.36 633.436 1002.1 596.841 994.824 558.992 C 987.543 521.143 950.988 496.339 913.127 503.558 C 875.18 510.794 850.306 547.452 857.604 585.388 C 864.901 623.323 901.599 648.137 939.523 640.778 z"/>
<path transform="translate(0,0)" fill="rgb(2,32,162)" d="M 915.166 471.512 C 970.921 465.501 1020.97 505.892 1026.86 561.66 C 1032.75 617.427 992.256 667.386 936.476 673.162 C 880.863 678.921 831.084 638.571 825.208 582.97 C 819.332 527.368 859.577 477.505 915.166 471.512 z M 939.523 640.778 C 977.36 633.436 1002.1 596.841 994.824 558.992 C 987.543 521.143 950.988 496.339 913.127 503.558 C 875.18 510.794 850.306 547.452 857.604 585.388 C 864.901 623.323 901.599 648.137 939.523 640.778 z"/>
<path transform="translate(0,0)" fill="rgb(244,103,25)" d="M 1459.84 533.951 C 1469.08 510.999 1489.76 443.314 1510.97 424.953 C 1514.99 421.48 1534.51 431.177 1540.11 433.804 C 1557.13 441.771 1574.39 449.195 1591.88 456.064 C 1647.9 478.658 1650.51 477.334 1626.23 533.384 C 1617.13 554.422 1607.78 575.354 1598.19 596.175 C 1562.66 580.152 1529.91 568.055 1494.48 550.627 C 1481.8 545.191 1471.74 541.07 1459.84 533.951 z"/>
<path transform="translate(0,0)" fill="rgb(251,149,68)" d="M 1459.84 533.951 C 1469.08 510.999 1489.76 443.314 1510.97 424.953 C 1514.99 421.48 1534.51 431.177 1540.11 433.804 C 1535.76 447.811 1525.56 469.789 1519.49 484.118 C 1510.08 505.871 1501.74 528.067 1494.48 550.627 C 1481.8 545.191 1471.74 541.07 1459.84 533.951 z"/>
</svg>