<svg version="1.1" xmlns="http://www.w3.org/2000/svg" style="display: block;" viewBox="0 0 2048 2048" width="512" height="512" preserveAspectRatio="none">
<path transform="translate(0,0)" fill="rgb(23,73,216)" d="M 641.365 266.384 C 737.919 262.584 824.336 295.285 895.477 360.13 C 962.574 422.177 1002.54 508.149 1006.73 599.442 C 1014.98 787.102 854.154 940.92 670.496 948.218 C 672.092 985.121 670.889 1030.2 670.883 1068.02 L 670.868 1292.11 L 670.919 1416.12 C 670.915 1433.6 671.529 1474.1 668.618 1489.36 C 679.504 1474.17 689.747 1457.68 700.606 1442.21 C 722.723 1410.84 745.793 1380.14 769.781 1350.17 C 779.808 1337.48 788.326 1326.05 800.043 1312.98 C 810.495 1301.33 825.215 1300.68 832.861 1316.56 C 834.787 1320.56 829.277 1329.38 826.525 1333.14 C 809.643 1356.22 790.955 1377.94 773.417 1400.65 C 748.882 1432.04 724.95 1463.89 701.635 1496.2 C 693.463 1507.76 686.209 1519.73 678.226 1531.37 C 670.694 1543.05 668.947 1546.27 656.115 1551.22 C 650.89 1549.6 643.755 1546.41 639.958 1542.52 C 623.584 1525.76 611.258 1503.39 597.064 1484.57 L 536.652 1405.26 C 521.356 1385.58 505.074 1366.44 491.718 1345.39 C 486.357 1336.95 480.558 1326.85 480.039 1316.61 C 479.271 1301.47 500.312 1303.4 507.697 1311.12 C 512.389 1316.02 516.741 1321.11 520.651 1326.68 C 530.145 1339.61 539.295 1352.81 548.9 1365.65 L 637.217 1483.72 C 636.135 1462.73 636.804 1436.08 636.771 1414.74 L 636.73 1283.87 C 636.715 1172.57 635.637 1059.4 636.903 948.227 C 467.218 933.741 336.581 814.477 318.337 643.493 C 308.744 553.578 333.383 462.8 390.655 392.247 C 453.345 315.02 544.052 276.399 641.365 266.384 z"/>
<path transform="translate(0,0)" fill="rgb(102,166,252)" d="M 637.722 298.467 C 809.039 286.276 957.713 415.471 969.545 586.813 C 981.376 758.155 851.869 906.558 680.503 918.03 C 509.644 929.467 361.777 800.428 349.981 629.594 C 338.184 458.76 466.913 310.622 637.722 298.467 z"/>
<path transform="translate(0,0)" fill="rgb(156,205,253)" d="M 695.667 367.148 C 697.393 367.085 699.119 367.04 700.846 367.014 C 816.687 365.373 908.979 485.434 910.033 595.368 C 904.4 600.758 901.814 602.77 894.553 605.512 C 878.443 608.096 874.449 594.726 873.474 581.66 C 871.145 550.459 862.026 522.302 845.147 495.62 C 818.261 453.247 776.343 422.61 727.806 409.859 C 717.805 407.158 707.089 406.484 696.917 404.311 C 675.534 399.743 678.44 375.76 695.667 367.148 z"/>
<path transform="translate(0,0)" fill="rgb(23,73,216)" d="M 1395.18 495.981 C 1415.15 495.185 1427.66 520.269 1438.63 535.111 L 1480.33 591.268 L 1530.25 658.397 C 1541.77 673.691 1553.8 688.664 1564.18 704.777 C 1568.41 711.356 1568.38 719.785 1562.43 725.322 C 1559 728.487 1554.4 730.072 1549.74 729.693 C 1545.13 729.329 1541.16 727.426 1538.15 723.973 C 1526.34 710.443 1515.9 693.999 1505.12 679.354 L 1452.52 608.829 C 1440.07 592.012 1426.71 572.937 1413.6 557.008 C 1416.06 583.237 1414.6 636.757 1414.59 664.655 L 1414.57 860.524 L 1414.61 1002.73 C 1414.62 1017.31 1415.61 1059.51 1413.83 1072.65 C 1431.37 1075.92 1447.9 1078.4 1465.35 1082.75 C 1623.29 1122.18 1729.17 1250.74 1731.34 1414.97 C 1732.55 1506.48 1696.61 1594.58 1631.72 1659.13 C 1565.7 1725.96 1479.06 1757.8 1385.97 1758.14 C 1382.71 1758.15 1379.45 1758.15 1376.18 1758.13 C 1290.97 1758.07 1209.42 1723.44 1150.21 1662.16 C 1083.11 1593.72 1046.42 1501.15 1048.41 1405.33 C 1050.56 1266.75 1144.6 1136.38 1275.81 1091.15 C 1308.65 1079.83 1347 1072.4 1381.88 1073.18 C 1380.63 1060.33 1381.11 1045.39 1381.14 1032.32 L 1381.19 970.894 L 1381.2 768.425 L 1381.22 634.416 C 1381.17 617.341 1379.9 574.518 1382.53 559.303 C 1355.97 601.818 1321.86 641.7 1291.69 681.808 C 1279.19 696.92 1268.92 713.914 1254.63 727.407 C 1243.51 737.903 1226.5 725.625 1229.06 712.519 C 1231.11 706.512 1236.4 698.138 1240.16 693.268 C 1284.56 635.661 1327.37 576.894 1371.39 519.026 C 1377.11 511.505 1387.05 500.894 1395.18 495.981 z"/>
<path transform="translate(0,0)" fill="rgb(252,130,6)" d="M 1376.41 1105.21 C 1548.01 1098.11 1692.9 1231.41 1700.1 1403.01 C 1707.31 1574.6 1574.09 1719.57 1402.5 1726.88 C 1230.77 1734.19 1085.65 1600.84 1078.44 1429.1 C 1071.23 1257.36 1204.67 1112.32 1376.41 1105.21 z"/>
<path transform="translate(0,0)" fill="rgb(254,174,21)" d="M 1437.84 1181.09 C 1445.62 1180.29 1453.44 1181.21 1461.01 1182.97 C 1546.16 1202.71 1615.56 1271.96 1632.77 1358.05 C 1636.62 1377.27 1642.04 1389.81 1625.27 1403.87 C 1600.89 1409.62 1602.78 1384.3 1599.38 1367.21 C 1593.92 1339.16 1582.21 1312.7 1565.11 1289.8 C 1543.82 1261.65 1515.28 1239.8 1482.55 1226.59 C 1468.86 1220.91 1438.48 1217.6 1428.62 1208.07 C 1420.74 1200.46 1428.36 1187.04 1437.84 1181.09 z"/>
</svg>