<svg version="1.1" xmlns="http://www.w3.org/2000/svg" style="display: block;" viewBox="0 0 2048 2048" width="512" height="512" preserveAspectRatio="none">
<path transform="translate(0,0)" fill="rgb(10,69,220)" d="M 716.222 399.183 C 961.552 387.707 1169.78 577.178 1181.45 822.499 C 1193.13 1067.82 1003.82 1276.2 758.509 1288.07 C 512.922 1299.94 304.255 1110.38 292.572 864.785 C 280.888 619.189 470.617 410.672 716.222 399.183 z M 1000.29 521.464 L 1007.05 522.889 C 838.405 381.563 589.239 394.496 436.134 552.524 C 283.029 710.551 277.983 960.001 424.573 1124.09 C 420.311 1115.15 409.298 1101.81 403.636 1091.69 C 263.53 841.484 429.35 524.872 701.367 465.099 C 786.406 446.413 873.818 458.831 952.38 496.541 C 969.469 504.743 983.949 510.898 1000.29 521.464 z"/>
<path transform="translate(0,0)" fill="rgb(251,161,71)" d="M 424.573 1124.09 C 420.311 1115.15 409.298 1101.81 403.636 1091.69 C 263.53 841.484 429.35 524.872 701.367 465.099 C 786.406 446.413 873.818 458.831 952.38 496.541 C 969.469 504.743 983.949 510.898 1000.29 521.464 L 1007.05 522.889 C 1125.01 621.745 1179.39 777.245 1148.75 928.072 C 1118.11 1078.9 1007.35 1200.85 860.166 1245.83 C 712.979 1290.82 552.976 1251.61 443.251 1143.69 C 436.816 1137.36 430.587 1130.82 424.573 1124.09 z"/>
<path transform="translate(0,0)" fill="rgb(245,114,15)" d="M 1000.29 521.464 L 1007.05 522.889 C 1125.01 621.745 1179.39 777.245 1148.75 928.072 C 1118.11 1078.9 1007.35 1200.85 860.166 1245.83 C 712.979 1290.82 552.976 1251.61 443.251 1143.69 C 446.82 1142.51 447.364 1142.68 451.094 1143.67 L 452.818 1144.14 C 477.708 1150.74 505.37 1167.4 529.809 1175.94 C 606.524 1202.56 689.034 1206.52 767.717 1186.33 C 1013.3 1123.29 1161.71 844.378 1050.31 609.706 C 1045.19 599.124 1039.52 588.817 1033.33 578.826 C 1024.51 564.772 1003.64 535.96 1000.29 521.464 z"/>
<path transform="translate(0,0)" fill="rgb(10,69,220)" d="M 486.829 715.356 C 560.534 709.039 552.764 789.924 554.829 838.91 C 556.938 888.912 546.751 921.662 493.273 933.293 C 439.263 934.018 425.031 900.399 424.198 852.024 C 423.177 792.799 408.99 727.066 486.829 715.356 z"/>
<path transform="translate(0,0)" fill="rgb(251,161,71)" d="M 447.541 781.162 C 449.731 768.25 452.302 756.548 463.887 748.666 C 483.001 735.663 509.025 735.434 521.329 757.573 C 536.244 784.413 531.842 817.615 530.802 847.047 C 530.406 856.865 530.33 870.787 527.966 880.008 C 523.142 898.817 497.072 912.487 478.828 907.365 C 467.778 904.306 458.521 896.745 453.317 886.528 C 449.881 879.759 448.487 872.576 447.586 865.089 C 446.193 854.141 446.412 791.805 447.541 781.162 z"/>
<path transform="translate(0,0)" fill="rgb(10,69,220)" d="M 864.505 789.677 C 879.585 790.048 880.648 799.876 881.512 812.216 C 909.053 797.684 928.503 799.875 950.658 822.3 C 959.073 814.247 967.925 807.905 979.395 804.815 C 991.736 801.395 1004.94 803.132 1015.97 809.629 C 1029.28 817.629 1034.86 829.796 1038.22 844.4 C 1042.07 861.1 1050.6 921.212 1025.94 925.614 C 1007.14 919.558 1027.11 848.628 1008.21 833.616 C 995.297 823.367 981.198 826.331 969.809 837.635 L 968.911 838.545 C 957.488 860.931 967.819 897.909 958.413 921.338 C 956.169 926.927 946.562 928.927 943.731 924.999 C 929.642 904.688 941.561 873.273 935.336 849.367 C 930.477 830.709 919.153 823.143 900.123 829.924 C 866.598 842.763 891.883 898.288 877.821 921.936 C 869.329 936.218 856.724 921.897 856.325 908.34 C 855.497 880.212 847.179 811.977 864.505 789.677 z"/>
<path transform="translate(0,0)" fill="rgb(10,69,220)" d="M 695.614 795.724 C 711.154 797.702 779.591 861.251 742.363 865.38 C 734.176 866.288 718.175 846.079 710.89 837.53 C 712.545 858.852 714.09 888.937 706.056 908.588 C 679.593 915.825 685.954 852.815 687.482 840.357 C 679.421 847.92 666.328 864.35 655.271 865.859 C 645.136 865.733 644.235 854.32 647.561 847.903 C 658.198 827.38 677.193 809.366 695.614 795.724 z"/>
<path transform="translate(0,0)" fill="rgb(10,69,220)" d="M 1403.77 1072.4 C 1452.24 1069.32 1500.63 1079.63 1543.64 1102.19 C 1611.27 1137.53 1662.25 1198.09 1685.55 1270.76 C 1701.96 1321.92 1702.74 1376.83 1687.79 1428.44 C 1684.68 1439.5 1680.07 1454.02 1674.88 1463.98 C 1682.41 1463.06 1690.06 1462.94 1697.63 1463.07 C 1747.4 1463.92 1797.24 1465.07 1846.94 1462.17 C 1850.87 1462.46 1858.02 1461.77 1860.61 1464.91 C 1863.94 1468.96 1864.8 1481.1 1859.64 1483.7 C 1843.35 1491.93 1811.17 1491.02 1794.65 1490.44 C 1750.25 1488.87 1705.9 1491.23 1661.89 1489.53 C 1637.46 1531.79 1588.77 1573.6 1546.01 1595.85 C 1481.58 1630.06 1406.16 1637.18 1336.46 1615.63 C 1281.56 1598.05 1235.92 1564.63 1200.97 1518.96 C 1193.67 1509.42 1186.38 1499.94 1180.87 1489.22 C 1169.81 1490.49 1147.1 1489.98 1135.48 1489.98 L 1054.33 1489.98 L 787.5 1489.98 L 389.608 1489.97 L 260.872 1489.94 C 247.412 1489.94 190.931 1492.54 185.658 1485.85 C 163.193 1457.33 235.506 1463.69 242.901 1463.72 L 312.744 1463.8 L 539.249 1463.79 L 1167.47 1463.91 C 1130.3 1367.97 1133.77 1259.08 1200.79 1176.81 C 1249.85 1116.58 1327.27 1080.2 1403.77 1072.4 z M 1192.66 1364.98 C 1187.09 1348.84 1193.35 1321.38 1200.65 1305.82 C 1197.23 1300.99 1182.1 1295.97 1185.31 1285.63 C 1189.33 1281.47 1195.53 1280 1201.1 1279.33 L 1201.33 1278.57 C 1203.42 1271.98 1205.31 1267.63 1208.18 1261.33 C 1236.5 1199.11 1287.2 1151.67 1351.7 1128.62 C 1405.14 1109.46 1463.48 1108.84 1517.32 1126.87 C 1532.51 1132.05 1547.33 1139.49 1561.88 1146.37 C 1557.51 1137.63 1505.11 1116.77 1492.99 1112.85 C 1431.52 1092.97 1362.67 1096.44 1304.89 1125.85 C 1245.82 1155.64 1201.35 1208.09 1181.62 1271.24 C 1169.42 1309.26 1171.24 1328.22 1168.65 1365.3 C 1177.88 1364.24 1183.3 1364.17 1192.66 1364.98 z M 1234.55 1517.78 C 1215.34 1481.07 1188.19 1433.12 1188.07 1391.03 C 1186.11 1388.47 1173.14 1387.56 1168.45 1386.86 L 1168.97 1388.07 C 1173.98 1399.93 1177.99 1414.29 1182.09 1426.64 C 1191.23 1454.19 1202.69 1479.58 1220.44 1502.72 C 1223.59 1506.83 1229.59 1516.5 1234.55 1517.78 z"/>
<path transform="translate(0,0)" fill="rgb(111,201,246)" d="M 1188.07 1391.03 C 1191.72 1389.95 1200.12 1394.57 1203.52 1396.42 C 1240.21 1416.42 1268.14 1446.68 1313.75 1431.23 C 1368.37 1411.37 1396.64 1363.55 1459.28 1400.45 C 1492.36 1419.94 1530.26 1444.87 1569.49 1430.13 C 1611.32 1414.41 1623.7 1393.6 1671.03 1386.45 C 1651.51 1464.07 1626.22 1520.19 1553.43 1563.92 C 1493.34 1599.69 1421.58 1610.37 1353.68 1593.66 C 1313.5 1583.48 1274.48 1562.38 1245.87 1532.05 C 1240.66 1526.52 1238.91 1523.09 1234.55 1517.78 C 1215.34 1481.07 1188.19 1433.12 1188.07 1391.03 z"/>
<path transform="translate(0,0)" fill="rgb(111,201,246)" d="M 1201.1 1279.33 L 1201.33 1278.57 C 1203.42 1271.98 1205.31 1267.63 1208.18 1261.33 C 1236.5 1199.11 1287.2 1151.67 1351.7 1128.62 C 1405.14 1109.46 1463.48 1108.84 1517.32 1126.87 C 1532.51 1132.05 1547.33 1139.49 1561.88 1146.37 C 1608.9 1169 1638.85 1226.22 1659.03 1271.6 C 1642.77 1273.66 1630.01 1276.88 1615.11 1284.21 C 1590.86 1296.14 1575 1311.77 1547.3 1314.88 C 1499.27 1320.26 1477.49 1274.05 1432.36 1270.11 C 1411.11 1267.94 1390.75 1270.87 1371.11 1278.78 C 1341.41 1290.75 1310.13 1322.82 1275.54 1313.63 C 1249.13 1306.62 1229.03 1288.39 1201.1 1279.33 z"/>
<path transform="translate(0,0)" fill="rgb(111,201,246)" d="M 1200.65 1305.82 C 1213.05 1305.91 1250.08 1340.53 1285.85 1340.95 C 1349.9 1341.7 1361.55 1291.64 1419.89 1294 C 1463.54 1299.49 1496.72 1346.35 1547.76 1341.51 C 1602.7 1336.31 1609.55 1298.69 1665.42 1297.02 C 1670.62 1322.77 1671.2 1335.77 1671.21 1361.9 C 1611.19 1364.6 1601.29 1397.9 1550.93 1405.64 C 1502.26 1413.11 1477.81 1367.15 1424.52 1360.96 C 1355.75 1352.97 1332.76 1423.03 1268.38 1404.61 C 1251.71 1399.84 1213.57 1374.58 1192.66 1364.98 C 1187.09 1348.84 1193.35 1321.38 1200.65 1305.82 z"/>
</svg>