<svg version="1.1" xmlns="http://www.w3.org/2000/svg" style="display: block;" viewBox="0 0 2048 2048" width="512" height="512" preserveAspectRatio="none">
<path transform="translate(0,0)" fill="rgb(56,93,216)" d="M 670.247 307.188 C 753.917 304.942 846.978 304.33 929.466 312.172 C 1079.03 326.391 1227.86 385.332 1337.69 489.193 C 1468.11 611.798 1532.02 756.72 1591.59 921.061 C 1600.12 944.548 1608.48 968.092 1616.68 991.693 C 1619.93 1001.08 1627.34 1021.92 1629.08 1030.62 C 1654.14 1017.03 1704.21 991.273 1715.03 1034.74 C 1712.35 1043.14 1709.58 1050.96 1700.75 1054.97 C 1685.31 1062 1668.01 1068.6 1652.24 1074.84 C 1610.95 1090.78 1569.54 1106.44 1528.03 1121.8 L 1395.54 1172.22 C 1366.66 1183.3 1337.87 1194.27 1308.64 1204.4 C 1284.28 1212.85 1276.02 1206.33 1269.27 1181.9 C 1274.16 1167.24 1282.48 1160.25 1296.62 1153.95 C 1310.35 1147.82 1336.15 1137.78 1350.57 1134.33 C 1332.42 1095.47 1312.23 1032.46 1298.81 991.609 C 1270.36 904.968 1246.43 822.193 1206.53 739.633 C 1142.08 606.273 1050.77 499.053 918.635 430.069 C 894.657 417.55 869.46 403.06 843.776 393.958 C 839.043 390.683 834.653 388.877 829.459 386.522 C 822.612 394.481 802.398 392.045 791.827 393.692 C 791.844 386.694 791.905 379.696 792.009 372.698 C 788.038 371.883 782.677 370.094 778.708 368.778 C 727.58 351.823 675.791 348.999 622.123 350.161 C 611.747 351.867 584.97 351.364 574.74 349.804 C 580.103 345.79 583.459 345.408 589.899 343.607 C 612.488 333.821 678.657 325.436 703.652 326.701 C 692.399 321.101 674.845 317.147 670.247 307.188 z M 1395.26 1119.77 C 1418.72 1105.97 1583.04 1047.35 1585.08 1044.83 C 1576.05 1023.37 1566.54 993.68 1558.58 971.111 C 1546.47 936.792 1533.72 902.704 1520.34 868.862 C 1464.05 726.545 1393.61 595.63 1272.91 498.131 C 1155.01 402.891 1020.15 361.979 870.903 355.205 C 908.21 371.6 930.857 380.36 966.988 400.798 C 1128 491.878 1223.74 640.281 1287.37 809.367 C 1313.07 877.635 1336.51 948.186 1360.84 1017.51 L 1384.5 1087.1 C 1386.61 1093.24 1394.51 1114.34 1395.26 1119.77 z"/>
<path transform="translate(0,0)" fill="rgb(0,30,154)" d="M 1629.08 1030.62 C 1654.14 1017.03 1704.21 991.273 1715.03 1034.74 C 1712.35 1043.14 1709.58 1050.96 1700.75 1054.97 C 1685.31 1062 1668.01 1068.6 1652.24 1074.84 C 1610.95 1090.78 1569.54 1106.44 1528.03 1121.8 L 1395.54 1172.22 C 1366.66 1183.3 1337.87 1194.27 1308.64 1204.4 C 1284.28 1212.85 1276.02 1206.33 1269.27 1181.9 C 1274.16 1167.24 1282.48 1160.25 1296.62 1153.95 C 1310.35 1147.82 1336.15 1137.78 1350.57 1134.33 C 1358.7 1133.04 1385.3 1123.21 1395.26 1119.77 C 1418.72 1105.97 1583.04 1047.35 1585.08 1044.83 L 1585.48 1045.81 C 1591.19 1045.61 1622.56 1033.33 1629.08 1030.62 z"/>
<path transform="translate(0,0)" fill="rgb(198,63,0)" d="M 792.009 372.698 C 803.7 375.262 818.294 381.47 829.459 386.522 C 822.612 394.481 802.398 392.045 791.827 393.692 C 791.844 386.694 791.905 379.696 792.009 372.698 z"/>
<path transform="translate(0,0)" fill="rgb(29,65,220)" d="M 589.899 343.607 C 590.908 346.472 590.986 348.741 593.995 349.433 C 603.033 351.511 612.812 349.088 622.123 350.161 C 611.747 351.867 584.97 351.364 574.74 349.804 C 580.103 345.79 583.459 345.408 589.899 343.607 z"/>
<path transform="translate(0,0)" fill="rgb(0,30,154)" d="M 498.446 366.341 C 485.156 373.663 473.224 378.148 459.004 386.683 C 405.64 417.619 375.729 467.651 359.365 526.088 C 354.093 544.915 343.645 594.929 311.7 568.599 C 299.831 558.818 305.844 533.169 308.669 519.387 C 319.498 468.404 345.076 421.729 382.223 385.167 C 402.894 364.313 426.951 347.114 453.372 334.301 C 527.608 297.736 590.601 306.857 670.247 307.188 C 674.845 317.147 692.399 321.101 703.652 326.701 C 678.657 325.436 612.488 333.821 589.899 343.607 C 583.459 345.408 580.103 345.79 574.74 349.804 C 566.707 351.928 555.914 353.837 547.59 355.563 C 548.737 386.042 547.719 423.255 547.709 454.25 L 547.701 645.68 L 547.698 1227.12 L 547.714 1524.24 L 547.743 1609.44 C 547.757 1620.98 548.44 1646.14 546.953 1656.81 C 583.518 1656.23 620.287 1655.47 656.057 1658.68 C 723.491 1664.02 736.767 1717.55 755.9 1771.81 C 763.324 1792.87 787.669 1831.66 763.339 1848.26 C 758.267 1851.76 751.947 1852.94 745.954 1851.5 C 731.271 1847.9 724.094 1826.99 718.891 1814.29 C 711.492 1796.1 704.369 1777.8 697.525 1759.39 C 692.502 1746.09 687.944 1732.02 680.776 1719.74 C 671.567 1703.97 651.736 1704.6 635.73 1705.08 C 608.345 1705.9 580.948 1705.81 553.538 1705.81 L 451.764 1705.46 C 433.268 1705.36 414.577 1704.44 396.111 1705.44 C 389.673 1705.79 382.465 1706.32 377.045 1710.2 C 359.757 1722.55 339.468 1813.45 325.989 1837.88 C 323.495 1842.4 319.785 1846.54 315.33 1849.18 C 310.12 1852.28 303.555 1853.44 297.661 1851.87 C 288.133 1849.32 283.468 1841.53 278.953 1833.54 C 280.321 1811.33 295.575 1780.31 302.863 1758.98 C 313.881 1725.56 328.692 1668.43 370.396 1660.56 C 406.643 1653.72 460.521 1655.58 498.421 1657.11 C 497.306 1642.89 498.11 1617.21 498.12 1602.1 L 498.164 1497.37 L 498.168 1163.95 L 498.153 639.933 L 498.126 464.989 C 498.123 432.584 497.541 398.546 498.446 366.341 z"/>
<path transform="translate(0,0)" fill="rgb(254,105,0)" d="M 829.459 386.522 C 834.653 388.877 839.043 390.683 843.776 393.958 C 845.48 448.408 844.062 510.068 844.05 565.184 L 843.999 888.052 L 843.965 1115.38 L 843.959 1189.36 C 843.959 1200.84 844.486 1216.71 843.777 1227.62 C 827.394 1223.77 810.309 1224.07 794.074 1228.5 C 791.475 1207 792.682 1166.11 792.686 1142.53 L 792.65 989.626 L 792.447 646.615 C 792.615 563.094 793.84 477.096 791.827 393.692 C 802.398 392.045 822.612 394.481 829.459 386.522 z"/>
<path transform="translate(0,0)" fill="rgb(254,175,45)" d="M 794.074 1228.5 C 810.309 1224.07 827.394 1223.77 843.777 1227.62 C 893.342 1239.27 926.475 1286 921.062 1336.63 C 915.649 1387.26 873.384 1425.94 822.475 1426.85 C 771.567 1427.75 727.948 1390.61 720.73 1340.21 C 713.513 1289.81 744.956 1241.92 794.074 1228.5 z"/>
<path transform="translate(0,0)" fill="rgb(254,105,0)" d="M 1736.59 1304.19 C 1754.42 1303.25 1763.05 1313.23 1765.94 1330.03 C 1751.52 1374.43 1713.46 1410.1 1676.42 1436.63 C 1622.07 1475.55 1536.32 1491.33 1470.74 1479.5 C 1467.51 1478.5 1464.3 1477.46 1461.1 1476.37 C 1453.95 1473.92 1444.91 1468.6 1442.95 1461.39 C 1432.89 1420.98 1479.11 1432.9 1500.03 1434.94 C 1565.86 1441.39 1637.42 1413.05 1683.15 1364.65 C 1690.67 1356.63 1697.65 1348.11 1704.04 1339.16 C 1713.84 1325.18 1720.1 1310.74 1736.59 1304.19 z"/>
</svg>