<svg version="1.1" xmlns="http://www.w3.org/2000/svg" style="display: block;" viewBox="0 0 2048 2048" width="512" height="512" preserveAspectRatio="none">
<path transform="translate(0,0)" fill="rgb(2,36,170)" d="M 995.543 172.454 C 1074.39 170.09 1144.48 180.014 1218.51 207.847 C 1355.1 259.035 1465.69 362.507 1525.83 495.399 C 1601.91 664.017 1594.91 853.7 1499.34 1013.47 C 1455.55 1086.68 1391.75 1167.97 1359.28 1245.03 C 1338.54 1293.68 1324.74 1345 1318.3 1397.5 C 1307.89 1480.53 1322.02 1524.68 1233.87 1563.21 C 1234.92 1592.13 1234.53 1622.08 1234.25 1651.02 C 1233.51 1728.01 1244.85 1777.57 1149.66 1784.93 C 1158.92 1854.8 1105.27 1863.19 1050.75 1863.27 L 1003.84 1863.35 C 970.412 1863.34 925.624 1866 907.838 1831.09 C 900.906 1817.49 897.349 1800.66 896.881 1785.47 C 859.221 1783.12 822.521 1775.78 815.633 1732.23 C 811.318 1704.96 812.352 1676.98 812.457 1649.41 C 812.566 1620.89 811.849 1592.1 812.606 1563.63 C 797.931 1559.34 784.386 1551.85 772.939 1541.72 C 736.751 1509.77 734.927 1480.17 731.884 1436.51 C 730.6 1419.55 728.798 1402.62 726.479 1385.77 C 720.895 1345.3 711.442 1305.46 698.25 1266.8 C 677.348 1207.32 647.517 1152.17 611.136 1100.8 C 594.854 1077.81 576.316 1055.26 560.933 1031.83 C 508.407 951.322 477.751 858.524 471.983 762.569 C 455.414 486.793 642.811 238.837 911.993 185.73 C 939.415 180.32 967.583 174.028 995.543 172.454 z M 896.784 1530.09 C 895.177 1514.22 896.086 1494.36 895.833 1478.05 C 894.328 1381.25 886.32 1291.8 848.022 1201.5 C 836.913 1175.9 824.056 1151.1 809.542 1127.27 C 796.888 1106.64 779.615 1084.54 771.065 1062.4 C 764.989 1046.66 787.189 1034.08 800.7 1049.05 C 816.344 1066.37 827.81 1085.96 840.574 1105.43 C 915.66 1223.83 932.31 1352.97 933.811 1490.01 C 933.939 1501.67 934.435 1519.08 933.594 1530.38 C 969.56 1528.76 1013.91 1529.99 1050.5 1530.02 C 1071.28 1529.85 1092.14 1529.5 1112.91 1530.24 C 1109.02 1377.39 1122.94 1254.96 1199.8 1120.25 C 1211.43 1099.86 1229.46 1066.81 1245.47 1050.4 C 1250.47 1045.27 1256.08 1041.97 1263.38 1041.94 C 1268.1 1041.92 1272.77 1042.74 1276.29 1046.1 C 1279.46 1049.12 1279.89 1054.33 1279.5 1058.41 C 1277.71 1077.42 1238.95 1124.38 1228.03 1144.61 C 1209.97 1178.08 1193.95 1211.59 1182.48 1247.93 C 1161.47 1314.52 1153.54 1384.26 1151.16 1453.81 C 1150.29 1479.08 1152.12 1505.28 1149.75 1530.37 C 1188.53 1529.06 1226.62 1536.91 1257.04 1504.73 C 1265.24 1495.97 1271.03 1485.23 1273.85 1473.56 C 1279.47 1450.25 1277.03 1426.01 1279.62 1402.06 C 1292.41 1284.56 1342.84 1174.16 1409.75 1077.82 C 1427.73 1051.94 1445.62 1029.06 1462.19 1002.02 C 1513.27 918.701 1543.07 816.496 1539.64 718.427 C 1535.94 576.764 1475.18 442.6 1371.15 346.376 C 1271.42 254.048 1139.27 204.831 1003.44 209.429 C 844.173 219.431 697.793 295.565 604.781 426.372 C 534.159 525.585 500.377 646.334 509.263 767.79 C 514.21 843.481 536.835 915.18 573.481 981.455 C 598.888 1027.4 632.719 1062.73 660.505 1106.73 C 699.62 1168.28 729.352 1235.31 748.724 1305.61 C 758.305 1340.05 764.843 1375.26 768.26 1410.85 C 771.325 1446.2 765.043 1487.13 794.678 1512.43 C 821.884 1535.65 863.523 1530.67 896.784 1530.09 z M 850.661 1664.2 C 850.995 1686 848.271 1724.29 862.66 1740.73 C 872.675 1752.16 916.514 1748.39 931.376 1748.05 C 950.001 1747.74 968.628 1747.64 987.255 1747.72 L 1093.35 1747.67 C 1115.17 1747.66 1172.98 1750.98 1188.92 1737.68 C 1199.82 1719.29 1196.67 1686.31 1196.69 1663.85 C 1158.87 1665.02 1122.11 1664.13 1084.29 1664.11 L 850.661 1664.2 z M 1197.02 1627.02 C 1196.63 1615.47 1196.66 1605.81 1196.96 1594.26 L 874.251 1594.22 C 866.197 1594.79 858.444 1594.95 850.52 1595.43 C 850.704 1606.7 851.135 1616.67 849.919 1627.9 C 862.827 1626.48 879.955 1626.99 893.235 1627.01 L 958.206 1627.11 C 1036.83 1627.15 1118.62 1628.24 1197.02 1627.02 z"/>
<path transform="translate(0,0)" fill="rgb(254,123,3)" d="M 1020.47 409.573 C 1036.74 408.503 1048.04 407.059 1063.05 413.911 C 1072.3 425.599 1071.8 443.966 1069.95 458.05 C 1108.24 466.929 1129.54 473.567 1162.5 496.761 C 1170.75 483.09 1190.96 456.252 1208.18 468.221 C 1224.99 479.911 1250.9 502.867 1256.2 522.745 C 1251.85 535.382 1238.19 549.785 1227.55 557.539 C 1247.42 590.656 1254.88 606.976 1264.32 645.464 C 1288.05 646.375 1319.64 644.624 1316.62 678.257 C 1315.42 691.66 1320.51 721.341 1308.49 729.563 C 1300.79 734.834 1274.14 734.41 1264.47 732.704 C 1255.55 774.38 1249.76 786.019 1227.36 822.725 C 1239.59 837.292 1249.31 839.596 1256.32 861.304 L 1255.92 862.674 C 1251.61 877.782 1215.46 913.4 1200.82 920.1 C 1187.39 914.931 1172.6 902.065 1163.54 891.029 C 1135.39 900.013 1098.83 921.908 1070.48 929.011 C 1072.14 943.772 1073.14 955.15 1067.99 969.5 C 1054 982.76 1043.2 980.973 1024.5 981.433 C 977.973 983.841 974.096 973.404 976.657 928.673 C 950.69 923.426 910.25 905.235 888.709 890.384 C 883.32 897.306 860.983 921.452 851.126 920.093 C 840.358 918.18 828.601 906.625 821.481 898.551 C 815.508 891.778 792.915 870.731 795.245 861.849 C 798.853 848.095 814.547 834.045 826.042 826.056 C 803.323 802.569 789.141 764.883 784.356 732.861 C 769.358 735.72 756.048 736.5 741.664 731.084 C 740.75 729.798 739.862 728.495 738.998 727.175 C 730.219 713.665 731.884 671.745 735.068 656.401 C 747.676 642.246 766.628 643.594 783.804 646.251 C 794.284 613.352 801.923 584.669 825.27 558.419 C 817.586 550.954 794.408 530.738 796.339 519.955 C 799.806 500.592 832.483 466.31 853.04 466.101 C 862.276 466.008 883.385 489.698 889.965 497.189 C 909.973 478.776 954.082 459.592 981.547 457.53 C 979.765 443.656 978.032 433.398 983.066 419.987 C 995.428 409.259 1004.87 410.198 1020.47 409.573 z M 882.046 538.206 C 869.885 528.917 859.376 519.541 850.162 507.165 C 846.035 511.97 841.12 518.012 836.633 522.247 C 843.248 528.948 863.008 548.23 865.577 556.055 C 865.223 566.89 851.722 581.86 845.928 591.103 C 840.355 599.993 833.182 610.667 830.514 620.954 C 819.283 664.256 826.455 681.694 770.109 679.802 C 771.247 688.018 771.154 690.197 769.974 698.702 C 781.624 697.72 802.56 698.259 811.347 706.738 C 828.154 722.954 822.771 755.866 835.149 776.194 C 841.985 787.422 848.337 796.655 856.107 807.057 C 869.999 825.229 870.199 831.39 854.219 848.191 C 848.918 853.764 842.665 860.197 836.78 865.745 C 841.854 869.985 846.032 873.092 849.971 878.428 C 857.694 870.634 874.131 851.675 885.006 850.056 C 891.742 849.053 907.624 860.134 913.85 863.581 C 926.451 870.846 938.607 876.964 951.982 882.741 C 968.841 890.023 993.881 889.632 1007.77 901.797 C 1016.3 909.265 1014.86 930.269 1013.42 940.781 L 1013 943.9 L 1014.49 945.468 C 1019 945.186 1031.94 945.408 1034.28 943.888 C 1030.26 902.832 1034.08 897.372 1074.02 888.968 C 1085.06 886.578 1095.27 883.136 1105.5 878.495 C 1123.88 870.158 1142.17 851.507 1161.39 846.627 C 1173.77 843.485 1191.68 869.945 1197.62 878.302 C 1203.43 872.048 1208.26 866.824 1214.64 861.114 C 1207.81 856.432 1185.96 839.173 1184.54 831.039 C 1183.05 822.564 1197.77 804.877 1201.93 797.08 C 1206.09 789.258 1210.11 780.721 1213.83 772.562 C 1224.51 749.156 1226.46 725.144 1237.86 702.142 C 1248.86 695.579 1267.71 697.706 1280.87 698.068 C 1280.22 690.954 1280.18 687.059 1280.38 679.896 C 1264.75 680.105 1251.88 680.615 1236.35 678.407 C 1221.92 646.539 1218.68 608.616 1197.49 579.291 C 1193.31 573.509 1183.8 559.957 1186.55 553.614 C 1191.39 542.446 1205.83 530.242 1214.73 521.755 C 1208.11 516.72 1203.72 512.964 1197.57 507.333 C 1168.99 544.042 1168.48 544.008 1129.08 515.93 C 1104.27 498.252 1064.4 499.251 1038.17 484.061 C 1029.31 478.924 1035.91 453.863 1032.81 447.079 C 1027.35 447.037 1019.44 447.148 1014.26 446.314 C 1011.55 453.935 1021.56 478.308 1009.23 485.76 C 994.565 494.619 972.915 495.816 956.686 501.551 C 931.633 509.84 907.943 529.786 884.307 537.474 L 882.897 537.941 C 882.614 538.029 882.33 538.118 882.046 538.206 z"/>
<path transform="translate(0,0)" fill="rgb(254,123,3)" d="M 1011.11 567.517 C 1079.89 559.735 1142.07 608.863 1150.41 677.569 C 1158.75 746.275 1110.13 808.855 1041.49 817.755 C 972.063 826.758 908.601 777.451 900.163 707.95 C 891.725 638.449 941.546 575.389 1011.11 567.517 z M 1032.29 782.108 C 1081.53 778.093 1118.23 734.988 1114.33 685.743 C 1110.44 636.499 1067.43 599.693 1018.17 603.463 C 968.746 607.245 931.783 650.444 935.689 699.862 C 939.594 749.281 982.885 786.137 1032.29 782.108 z"/>
<path transform="translate(0,0)" fill="rgb(130,158,251)" d="M 849.832 1565.98 L 1197.03 1565.99 L 1196.96 1594.26 L 874.251 1594.22 C 866.167 1594.13 858.082 1594.2 850.001 1594.43 L 849.832 1565.98 z"/>
<path transform="translate(0,0)" fill="rgb(130,158,251)" d="M 932.53 1785.15 C 992.203 1784.43 1053.94 1784.93 1113.66 1785.16 C 1113.79 1787.23 1113.91 1789.3 1114 1791.37 C 1114.54 1803.76 1113.17 1809.67 1104.76 1818.85 C 1082.76 1831.77 1044.68 1825.77 1019.5 1826.59 C 1002.84 1827.13 984.608 1827.69 968.015 1826.57 C 941.805 1824.81 936.262 1807.8 932.53 1785.15 z"/>
</svg>