<svg version="1.1" xmlns="http://www.w3.org/2000/svg" style="display: block;" viewBox="0 0 2048 2048" width="512" height="512" preserveAspectRatio="none">
<path transform="translate(0,0)" fill="rgb(0,40,181)" d="M 715.551 434.114 C 722.804 423.384 729.086 411.929 736.179 401.07 C 748.18 382.697 804.661 298.13 819.729 291.715 C 823.495 290.112 827.588 290.99 831.19 292.606 C 838.219 295.76 843.346 300.876 847.631 307.127 C 857.454 321.459 864.747 337.599 872.594 353.06 L 905.954 418.712 L 937.249 479.872 C 949.302 502.863 961.948 525.652 971.01 550.002 C 961.97 569.278 941.557 595.115 929.023 612.973 L 849.793 728.109 C 836.631 747.258 820.4 767.374 809.449 787.142 C 840.792 804.53 884.3 835.098 914.767 855.644 L 1099.7 981.376 C 1150.53 1015.77 1201.77 1049.87 1252.5 1084.41 C 1296.52 1114.37 1348.47 1144.95 1390.24 1177.17 C 1394.44 1173.3 1399.93 1164.7 1403.06 1159.84 C 1430.55 1117.2 1452.77 1083.3 1507.3 1114.85 C 1539.91 1133.71 1571.3 1155.95 1603.14 1177.26 L 1759.38 1282.26 L 1812.05 1317.5 C 1827.67 1327.8 1847.15 1338.97 1859.82 1352.32 C 1879.78 1373.37 1884.07 1406.33 1867.57 1430.74 C 1857.91 1445.24 1847.11 1458.01 1836.56 1471.73 L 1772.01 1555.31 L 1676.67 1682.69 C 1665.71 1697.21 1654.5 1712.07 1643.61 1726.31 C 1631.94 1741.57 1613.25 1759.56 1592.71 1758.53 C 1582.88 1758.03 1568.95 1749.05 1560.56 1744.18 C 1538.45 1729.56 1516.38 1713.83 1494.59 1698.63 L 1377.97 1617.34 L 1290.34 1556.68 C 1257.01 1533.93 1190.51 1498.57 1195.84 1450.91 C 1199 1422.64 1229.88 1400.39 1243.17 1378.28 C 1230.25 1371 1214.87 1359.77 1202.57 1351.16 C 1187.14 1340.4 1171.62 1329.76 1156.03 1319.23 L 965.922 1190.16 L 759.887 1050.26 L 696.77 1007.49 C 686.741 1000.72 671.024 990.759 662.141 983.597 C 652.192 1000.88 634.049 1025.22 622.134 1041.53 L 567.005 1117.37 C 560.954 1125.7 554.498 1133.92 548.843 1142.5 C 539.192 1157.14 530.625 1172.36 520.001 1186.36 C 515.304 1192.55 510.347 1198.61 504.015 1203.21 C 498.474 1207.23 489.547 1212.48 482.341 1210.68 C 474.434 1208.7 469.499 1198.27 466.465 1191.41 C 452.627 1160.11 445.567 1124.17 435.977 1091.35 C 419.894 1036.3 402.685 981.52 385.989 926.647 C 375.555 892.354 364.749 858.134 354.771 823.707 C 347.345 798.083 331.508 730.159 318.327 710.41 C 295.382 676.035 192.784 639.054 177.582 606.857 C 174.168 599.628 176.469 591.053 178.903 583.916 C 182.749 580.409 187.309 576.095 192.163 574.352 C 208.289 568.562 225.101 564.676 241.606 560.398 L 323.609 538.822 L 584.248 469.31 L 665.454 447.734 C 681.322 443.547 700.175 439.138 715.551 434.114 z M 498.111 1135.86 C 525.168 1096.34 552.587 1057.06 580.365 1018.04 C 594.34 998.634 611.541 978.641 623.967 958.431 C 616.923 954.64 611.057 951.258 605.944 944.878 C 593.382 961.405 574.474 966.836 565.251 944.116 C 560.703 932.912 557.348 921.167 553.63 909.652 L 534.927 852.781 C 524.615 821.635 514.053 790.006 503.997 758.8 C 496.76 736.34 472.994 687.713 483.879 666.89 C 495.182 658.256 531.956 649.89 547.181 645.646 L 634.571 621.172 C 660.84 613.752 706.883 598.409 731.582 594.375 C 739.119 597.029 746.861 601.266 750.478 608.79 C 752.464 612.91 752.717 617.655 751.182 621.964 C 744.128 642.101 704.475 647.682 686.484 652.682 C 649.904 662.85 610.699 670.227 576.012 686.058 C 590.269 690.113 626.145 706.525 640.846 713.001 C 681.742 731.016 726.724 749.631 766.663 769.584 C 775.551 750.639 787.346 734.049 798.781 716.652 C 836.751 658.891 881.776 604.149 920.039 546.764 C 895.661 503.987 872.845 460.339 851.635 415.906 C 843.504 399.218 830.521 374.141 823.784 357.587 C 814.051 374.838 751.785 464.503 740.71 472.747 C 733.489 478.121 714.378 481.824 705.291 484.356 L 417.453 561.73 L 310.599 590.792 C 293.198 595.419 267.136 602.924 249.853 605.635 L 251.038 606.654 C 260.351 614.575 270.7 619.892 280.908 626.323 C 305.328 641.707 333.61 655.395 354.394 675.562 C 359.063 680.092 364.587 695.693 366.615 701.897 C 379.463 741.21 389.952 781.231 401.425 820.94 C 412.64 858.554 424.12 896.087 435.864 933.539 L 478.215 1070.94 C 484.218 1090.48 493.33 1116.78 498.111 1135.86 z M 1390.24 1177.17 C 1382.06 1190.57 1373.17 1203.33 1362.51 1214.91 C 1353.88 1208.81 1343.38 1202.59 1334.37 1196.48 L 1251.16 1139.99 L 1013.72 979.603 L 868.72 881.587 C 843.633 864.531 806.897 838.152 781.561 823.192 C 727.04 799.094 672.377 775.319 617.574 751.868 C 595.852 742.524 558.817 724.629 536.901 718.701 C 556.047 771.152 579.972 840.642 593.967 894.979 C 602.38 893.841 607.442 893.011 615.102 897.689 C 637.282 911.234 659.547 926.913 681.242 941.329 C 730.637 974.092 779.863 1007.11 828.918 1040.38 L 1270.83 1341.32 C 1261.64 1355.85 1254.11 1365.4 1243.17 1378.28 C 1229.88 1400.39 1199 1422.64 1195.84 1450.91 C 1190.51 1498.57 1257.01 1533.93 1290.34 1556.68 L 1377.97 1617.34 L 1494.59 1698.63 C 1516.38 1713.83 1538.45 1729.56 1560.56 1744.18 C 1568.95 1749.05 1582.88 1758.03 1592.71 1758.53 C 1613.25 1759.56 1631.94 1741.57 1643.61 1726.31 C 1654.5 1712.07 1665.71 1697.21 1676.67 1682.69 L 1772.01 1555.31 L 1836.56 1471.73 C 1847.11 1458.01 1857.91 1445.24 1867.57 1430.74 C 1884.07 1406.33 1879.78 1373.37 1859.82 1352.32 C 1847.15 1338.97 1827.67 1327.8 1812.05 1317.5 L 1759.38 1282.26 L 1603.14 1177.26 C 1571.3 1155.95 1539.91 1133.71 1507.3 1114.85 C 1452.77 1083.3 1430.55 1117.2 1403.06 1159.84 C 1399.93 1164.7 1394.44 1173.3 1390.24 1177.17 z"/>
<path transform="translate(0,0)" fill="rgb(251,120,4)" d="M 1390.24 1177.17 C 1394.44 1173.3 1399.93 1164.7 1403.06 1159.84 C 1430.55 1117.2 1452.77 1083.3 1507.3 1114.85 C 1539.91 1133.71 1571.3 1155.95 1603.14 1177.26 L 1759.38 1282.26 L 1812.05 1317.5 C 1827.67 1327.8 1847.15 1338.97 1859.82 1352.32 C 1879.78 1373.37 1884.07 1406.33 1867.57 1430.74 C 1857.91 1445.24 1847.11 1458.01 1836.56 1471.73 L 1772.01 1555.31 L 1676.67 1682.69 C 1665.71 1697.21 1654.5 1712.07 1643.61 1726.31 C 1631.94 1741.57 1613.25 1759.56 1592.71 1758.53 C 1582.88 1758.03 1568.95 1749.05 1560.56 1744.18 C 1538.45 1729.56 1516.38 1713.83 1494.59 1698.63 L 1377.97 1617.34 L 1290.34 1556.68 C 1257.01 1533.93 1190.51 1498.57 1195.84 1450.91 C 1199 1422.64 1229.88 1400.39 1243.17 1378.28 C 1254.11 1365.4 1261.64 1355.85 1270.83 1341.32 C 1275.62 1336.45 1293.48 1308.72 1298.8 1301.3 C 1319.56 1272.37 1342.04 1243.87 1362.51 1214.91 C 1373.17 1203.33 1382.06 1190.57 1390.24 1177.17 z M 1291.14 1389.44 C 1335.04 1415.29 1373.76 1443.65 1415.36 1472.59 L 1561.13 1572.74 L 1614.76 1610.06 C 1624.21 1616.76 1644.78 1631.93 1654.16 1636.48 L 1656.01 1635.64 C 1672.02 1610.49 1693.12 1581.26 1710.57 1556.97 C 1726.23 1535.18 1763.51 1481.81 1783.53 1464.76 C 1753.9 1447.43 1714.91 1419.11 1685.53 1399.31 L 1495.92 1271.34 C 1485.53 1264.31 1422.85 1220.67 1416.3 1219.47 C 1407.89 1235.35 1302.15 1380.36 1291.14 1389.44 z M 1244.23 1466.7 C 1253.93 1482.68 1286.42 1497.08 1302.81 1508.39 C 1336.16 1531.4 1369.71 1554.25 1403.04 1577.31 L 1543.03 1673.85 C 1559.65 1685.29 1577.5 1699.6 1594.12 1710.13 L 1600.57 1704.78 C 1609.98 1695.75 1618.63 1684.61 1626.9 1674.39 C 1604 1658.77 1580.31 1644.06 1557.27 1628.44 C 1505.26 1592.88 1453.52 1556.94 1402.04 1520.62 L 1313.54 1459.77 C 1301.63 1451.56 1276.61 1432.68 1264.61 1427.42 C 1254.34 1440.27 1247.09 1450.53 1244.23 1466.7 z M 1443.87 1181.95 C 1469.54 1197.8 1490.93 1212.81 1515.79 1229.3 L 1654.45 1322.13 L 1757.01 1391.21 C 1773.49 1402.4 1794.08 1415.35 1809.46 1427.29 C 1816.71 1424.03 1833.01 1398.82 1829.91 1388.87 C 1822.36 1379.9 1784.02 1355.52 1772.02 1347.48 L 1693.74 1294.89 L 1547.5 1196.62 C 1537.84 1190.14 1476.85 1147.5 1469.85 1146.53 C 1464.41 1155.17 1450.72 1174.76 1443.87 1181.95 z"/>
<path transform="translate(0,0)" fill="rgb(251,120,4)" d="M 605.944 944.878 C 593.382 961.405 574.474 966.836 565.251 944.116 C 560.703 932.912 557.348 921.167 553.63 909.652 L 534.927 852.781 C 524.615 821.635 514.053 790.006 503.997 758.8 C 496.76 736.34 472.994 687.713 483.879 666.89 C 495.182 658.256 531.956 649.89 547.181 645.646 L 634.571 621.172 C 660.84 613.752 706.883 598.409 731.582 594.375 C 739.119 597.029 746.861 601.266 750.478 608.79 C 752.464 612.91 752.717 617.655 751.182 621.964 C 744.128 642.101 704.475 647.682 686.484 652.682 C 649.904 662.85 610.699 670.227 576.012 686.058 C 590.269 690.113 626.145 706.525 640.846 713.001 C 681.742 731.016 726.724 749.631 766.663 769.584 C 777.887 776.94 786.296 779.793 795.396 789.999 C 792.927 800.858 786.948 813.445 781.561 823.192 C 727.04 799.094 672.377 775.319 617.574 751.868 C 595.852 742.524 558.817 724.629 536.901 718.701 C 556.047 771.152 579.972 840.642 593.967 894.979 C 598.661 911.581 603.769 927.75 605.944 944.878 z"/>
</svg>