<svg version="1.1" xmlns="http://www.w3.org/2000/svg" style="display: block;" viewBox="0 0 2048 2048" width="512" height="512" preserveAspectRatio="none">
<path transform="translate(0,0)" fill="rgb(250,118,15)" d="M 977.401 1260.25 C 979.136 1263.79 990.019 1273.77 993.507 1277.65 C 1035.99 1324.88 1081.8 1367.58 1129.49 1409.51 C 1178.06 1452.72 1228.03 1494.32 1279.33 1534.25 C 1303.19 1552.74 1327.75 1570.48 1351.65 1588.92 C 1372.26 1605.67 1415.14 1627.06 1414.42 1657.98 C 1413.48 1698.24 1372.66 1729.66 1334.41 1708.43 C 1309.58 1694.66 1291.2 1679.12 1269.31 1662.94 C 1167.92 1587.57 1071.75 1505.42 981.472 1417.05 C 898.61 1335.99 821.221 1250.81 748 1161.01 C 608.203 989.079 485.932 803.614 383.008 607.377 C 367.967 578.915 329.713 516.902 331.15 487.291 C 331.761 474.695 339.363 461.084 348.479 452.77 C 359.063 443.117 374.754 437.163 389.082 438.042 C 400.36 438.735 412.755 443.619 420.814 451.619 C 434.848 465.547 442.806 488.222 451.916 505.582 C 461.818 524.451 472.073 543.111 481.638 562.156 C 487.212 573.254 493.826 583.748 499.857 594.592 C 512.128 616.661 524.317 638.686 536.908 660.579 C 624.942 815.861 725.684 963.585 838.103 1102.24 C 875.883 1148.47 912.994 1187.88 951.915 1232.14 C 959.929 1242.84 967.816 1250.95 977.401 1260.25 z"/>
<path transform="translate(0,0)" fill="rgb(254,198,136)" d="M 383.224 474.954 C 387.267 474.778 393.569 474.551 396.15 478.204 C 403.07 487.996 408.351 500.142 413.727 510.867 C 421.158 525.705 428.723 540.475 436.42 555.176 C 512.15 700.598 598.289 840.359 694.163 973.366 C 814.411 1140.39 951.556 1294.58 1103.42 1433.48 C 1145.87 1472.05 1189.48 1509.3 1234.2 1545.2 C 1256.79 1563.3 1279.65 1581.05 1302.79 1598.44 C 1317.42 1609.44 1365.98 1641.45 1373.99 1653.32 C 1376.52 1657.07 1377.6 1661.03 1376.49 1665.5 C 1374.81 1672.25 1367.02 1676.94 1361.41 1680.13 C 1360.09 1680.06 1358.89 1679.99 1357.61 1679.65 C 1343.7 1675.98 1252.11 1604.45 1234.98 1591.01 C 931.919 1349.15 677.34 1052.14 484.672 715.654 C 454.903 664.798 426.427 613.196 399.272 560.898 C 388.88 540.92 377.939 520.696 369.015 500.043 C 363.948 488.315 374.313 479.921 383.224 474.954 z"/>
<path transform="translate(0,0)" fill="rgb(45,102,236)" d="M 232.087 200.838 C 256.957 205.743 281.313 245.175 295.323 264.764 C 310.475 285.952 339.167 313.589 298.866 327.613 C 277.778 320.407 266.5 299.993 255.521 281.675 C 254.811 321.88 255.769 366.55 255.861 407.113 L 255.939 637.169 L 255.935 1393.65 L 255.951 1646.66 C 255.972 1689.55 257.214 1739.87 255.697 1782.23 C 292.589 1780.56 338.893 1781.94 376.603 1781.94 L 609.678 1781.93 L 1323.6 1781.93 L 1668.19 1781.95 L 1762.9 1781.84 C 1776.64 1781.83 1804.92 1781.03 1817.31 1783.2 C 1808.75 1775.9 1769.79 1739.55 1783.35 1725.63 C 1802.8 1705.66 1826.8 1734.58 1841.27 1746.53 C 1854.29 1757.37 1866.69 1769.41 1879.62 1780.3 C 1897.88 1795.67 1899.58 1804.13 1883.04 1822.12 C 1867.21 1842.5 1830.15 1869.77 1807.67 1882.44 C 1801.93 1885.67 1787.08 1889.73 1783.32 1882.31 C 1769.84 1855.71 1802.64 1833.9 1819.03 1821.3 C 1817.21 1821.73 1815.38 1822.09 1813.53 1822.37 C 1805.1 1823.68 1782.9 1823.17 1773.16 1823.16 L 1699.99 1823.1 L 1440.99 1823.09 L 505.114 1823.25 L 329.702 1823.26 C 300.537 1823.27 270.774 1823.81 241.658 1823.09 C 237.424 1822.99 223.683 1820.9 221.536 1818.11 C 214.673 1809.21 214.175 1790.67 214.075 1780.2 C 213.719 1742.7 213.873 1705.21 213.876 1667.77 L 213.906 1459.23 L 213.921 838.079 L 213.933 472.836 L 213.94 356.778 C 213.942 336.381 213.19 307.968 214.826 288.128 C 202.31 303.603 193.763 327.904 170.032 326.314 C 158.421 325.535 151.259 320.066 154.232 307.854 C 161.943 276.175 205.918 218.893 232.087 200.838 z"/>
<path transform="translate(0,0)" fill="rgb(5,46,174)" d="M 1148.63 639.472 C 1153.35 619.833 1171.07 614.732 1188 607.592 C 1209.6 598.485 1232.23 590.544 1254.93 584.623 C 1330.14 565.307 1409.17 566.678 1483.66 588.589 C 1497.23 592.535 1518.61 599.288 1530.37 606.17 C 1537.92 600.266 1548.44 593.331 1558.61 595.85 C 1591.63 604.028 1615.09 635.937 1637.72 659.469 C 1661.36 684.038 1675.86 693.561 1661.51 728.988 C 1674.06 752.359 1684.46 774.203 1692.76 799.53 C 1720.42 883.925 1720.36 976.086 1700.06 1062.07 C 1696.86 1073.86 1689.77 1083.48 1676.37 1079.71 C 1669.84 1077.87 1665.97 1063.78 1664.72 1057.64 C 1647.93 975.123 1615.68 893.069 1555.52 831.991 C 1547.07 838.267 1539.39 842.287 1528.39 840.389 C 1502.43 835.909 1473.26 800.108 1458.7 779.332 C 1439 798.412 1419.93 816.157 1400.34 835.739 L 1300.16 937.621 C 1249.08 987.865 1198.28 1038.4 1147.78 1089.23 C 1109.76 1128.23 1072.9 1169.39 1033.71 1207.42 C 1019.17 1221.53 992.986 1249.09 977.401 1260.25 C 967.816 1250.95 959.929 1242.84 951.915 1232.14 C 964.344 1214.35 995.207 1186.31 1011.85 1169.63 L 1128.96 1052.23 L 1325.41 855.215 L 1384.72 795.821 C 1401.09 779.441 1415.17 764.714 1433.04 749.905 C 1429.16 743.609 1426.95 739.262 1424.19 732.313 C 1422.76 728.725 1421.69 723.526 1419.81 720.832 C 1374.02 688.158 1277.59 660.172 1221.1 656.973 C 1201.86 655.883 1176.65 659.455 1158.87 654.418 C 1153.16 652.8 1150.3 644.764 1148.63 639.472 z M 1498.05 636.962 C 1426.57 609.803 1348.62 604.53 1274.12 621.815 C 1317.09 633.836 1409.86 659.107 1443.86 688.237 C 1446.25 686.409 1457.01 675.401 1459.82 672.669 C 1469.2 663.678 1478.8 654.922 1488.61 646.412 C 1491.86 643.578 1497.13 640.28 1498.05 636.962 z M 1583.4 804.718 C 1619.43 843.451 1638.08 875.766 1664.04 921.787 C 1669.57 933.823 1671.8 945.958 1677.42 958.766 C 1675.14 900.416 1666.94 835.974 1645 781.509 C 1642.79 776.027 1634.43 760.414 1629.76 757.57 C 1619.51 771.006 1596.16 793.302 1583.4 804.718 z"/>
<path transform="translate(0,0)" fill="rgb(17,64,205)" d="M 1148.63 639.472 C 1153.35 619.833 1171.07 614.732 1188 607.592 C 1209.6 598.485 1232.23 590.544 1254.93 584.623 C 1330.14 565.307 1409.17 566.678 1483.66 588.589 C 1497.23 592.535 1518.61 599.288 1530.37 606.17 C 1524.92 612.198 1504.43 635.371 1498.05 636.962 C 1426.57 609.803 1348.62 604.53 1274.12 621.815 C 1317.09 633.836 1409.86 659.107 1443.86 688.237 C 1437.28 694.009 1436.01 695.243 1430.65 701.871 C 1426.73 706.72 1421.19 719.704 1419.81 720.832 C 1374.02 688.158 1277.59 660.172 1221.1 656.973 C 1201.86 655.883 1176.65 659.455 1158.87 654.418 C 1153.16 652.8 1150.3 644.764 1148.63 639.472 z"/>
<path transform="translate(0,0)" fill="rgb(250,118,15)" d="M 1554.55 636.778 C 1564.35 638.431 1617.08 694.607 1627.59 705.561 C 1597.09 735.211 1560.25 770.883 1532.9 802.337 L 1531.63 803.619 L 1529.88 803.469 C 1507.54 779.919 1481.77 747.879 1460.65 722.64 C 1489.97 700.126 1524.51 658.344 1554.55 636.778 z"/>
<path transform="translate(0,0)" fill="rgb(45,102,236)" d="M 1509.49 1132.24 C 1544.57 1128.28 1576.21 1153.55 1580.09 1188.65 C 1583.96 1223.74 1558.61 1255.31 1523.51 1259.1 C 1488.52 1262.88 1457.08 1237.64 1453.22 1202.66 C 1449.35 1167.69 1474.52 1136.19 1509.49 1132.24 z M 1520.49 1239.55 C 1544.69 1237.7 1562.82 1216.59 1561 1192.39 C 1559.19 1168.18 1538.13 1150.02 1513.92 1151.78 C 1489.64 1153.55 1471.41 1174.69 1473.23 1198.96 C 1475.05 1223.23 1496.22 1241.42 1520.49 1239.55 z"/>
<path transform="translate(0,0)" fill="rgb(45,102,236)" d="M 1405.85 1204.4 C 1411.37 1203.98 1416.38 1203.86 1421.97 1206.41 C 1433.68 1211.75 1463.02 1263.17 1457.6 1273.15 C 1449.97 1287.19 1423.6 1314.78 1408.89 1323.93 C 1406.48 1325.43 1404.37 1324.25 1402.04 1323.29 C 1388.73 1311.27 1331.02 1243.52 1347.14 1218.26 C 1352.21 1210.32 1393.23 1205.74 1405.85 1204.4 z M 1366.67 1232.73 C 1376.97 1260.56 1380.74 1271.51 1400.69 1293.9 C 1404.03 1297.3 1403.48 1297.82 1407.39 1298.85 C 1419.38 1286.64 1426.92 1277.58 1440.08 1265.29 C 1431.48 1253.69 1422.03 1235.19 1413.84 1222.7 C 1413.14 1222.42 1412.43 1222.14 1411.73 1221.86 L 1410.37 1222.25 C 1397.78 1224.85 1378.11 1228.3 1366.67 1232.73 z"/>
<path transform="translate(0,0)" fill="rgb(45,102,236)" d="M 1505.54 1026.41 C 1509.15 1026.31 1512.75 1026.27 1516.35 1026.29 C 1533 1026.39 1571.16 1028.98 1581.5 1040.02 C 1587.85 1046.8 1560.37 1101.8 1552.43 1109.29 C 1548.02 1113.44 1532.25 1110.81 1527.24 1110.25 C 1515.78 1109.48 1498.43 1112.09 1485.97 1112.83 C 1468.51 1099.8 1455.09 1061.68 1448.31 1041.2 C 1462.31 1030.29 1488.18 1028.05 1505.54 1026.41 z M 1471.5 1050.99 C 1477.38 1062.03 1489.09 1084.6 1493.1 1095.73 C 1506.62 1090.57 1515.53 1090.59 1530 1091.11 C 1534.28 1092.67 1537.4 1093.89 1541.52 1095.82 C 1547.98 1079.36 1551.85 1066.15 1560.75 1050.53 L 1559.53 1050.44 C 1536.75 1048.46 1529.6 1043.89 1503.7 1046.35 C 1492.4 1047.69 1482.73 1048.87 1471.5 1050.99 z"/>
<path transform="translate(0,0)" fill="rgb(45,102,236)" d="M 1611.69 1204.08 C 1626.42 1203.64 1678.64 1206.78 1687.17 1214.74 C 1703.59 1230.09 1653.8 1301.93 1642.58 1314.34 C 1636.7 1320.41 1634.39 1322.04 1627.46 1326.25 C 1615.84 1316.03 1581.95 1278.91 1573.57 1265.58 C 1577.88 1256.08 1586.16 1246.42 1591.52 1237.11 C 1598.18 1225.54 1601.21 1212.51 1611.69 1204.08 z M 1595.51 1265.37 C 1605.72 1273.49 1622.36 1289.98 1630.56 1300.7 C 1632.52 1297.98 1634.46 1295.25 1636.38 1292.5 C 1652.18 1267.42 1658.84 1256.86 1667.85 1228.41 C 1654.92 1227.52 1633.56 1225.61 1621.71 1221.26 C 1617.26 1235.6 1606.33 1255.1 1595.51 1265.37 z"/>
<path transform="translate(0,0)" fill="rgb(45,102,236)" d="M 1484.27 1279.89 C 1494.01 1281.06 1504.45 1281.86 1513.83 1282.26 C 1518.88 1283 1544.51 1279.4 1547.38 1281.28 C 1564.72 1292.65 1575.87 1335.55 1584.33 1353.36 L 1584.9 1354.55 C 1571.61 1360.03 1564.29 1363.11 1550.22 1365.43 C 1522.26 1372.72 1476.42 1372.74 1452.98 1353.67 C 1455.91 1340.29 1475.16 1289.63 1484.27 1279.89 z M 1474.77 1345.9 C 1485.61 1346.77 1496.07 1348.63 1506.76 1349.45 C 1517.22 1350.25 1529.73 1348.95 1540.23 1347.94 C 1546.42 1347.12 1553.51 1346.01 1559.66 1345.54 C 1553.96 1332.92 1544.47 1313.69 1542.06 1300.52 C 1529.47 1302.69 1505.6 1302.93 1493.21 1300.42 C 1490.02 1312.81 1481.53 1335.01 1474.77 1345.9 z"/>
<path transform="translate(0,0)" fill="rgb(45,102,236)" d="M 1401.1 1064.59 C 1415.93 1069.18 1432.19 1087.69 1442.7 1098.57 C 1463 1119.61 1465.37 1128.31 1446.82 1151.2 C 1437.4 1162.82 1424.51 1184.51 1406.58 1181.74 C 1392.8 1178.46 1341.9 1171.11 1345.56 1152.8 C 1351.86 1121.25 1376.91 1085.25 1401.1 1064.59 z M 1366.38 1152.38 C 1380.2 1155.88 1393.99 1159.49 1407.76 1163.23 C 1418.44 1159.55 1430.78 1135.96 1439.71 1125.06 C 1432.09 1117.64 1409.1 1093.31 1401.67 1088.53 C 1393.17 1101.38 1385.46 1114.74 1378.58 1128.53 C 1375.02 1135.55 1370.46 1146.19 1366.38 1152.38 z"/>
<path transform="translate(0,0)" fill="rgb(45,102,236)" d="M 1628.53 1064.77 C 1648.29 1072.38 1694.97 1144.53 1686.51 1162.52 C 1678.97 1168.97 1644.43 1174.46 1632.75 1177.52 C 1610.33 1181.96 1608.39 1180.2 1596.21 1160.52 C 1588.07 1147.38 1578.05 1135.1 1572.27 1120.54 C 1579.43 1102.66 1611.99 1074.13 1628.53 1064.77 z M 1592.78 1125.85 C 1600.82 1132.65 1603.55 1135.77 1609.85 1144.18 C 1612.71 1147.99 1620.14 1161.23 1622.96 1162.58 C 1625.37 1161.51 1626.41 1161.1 1628.68 1159.68 C 1640.41 1156.24 1653.92 1151.95 1665.64 1149.31 C 1658.9 1135.95 1637.95 1095.42 1626.51 1088.49 C 1617.69 1100.95 1602.42 1113.2 1592.78 1125.85 z"/>
</svg>