<svg version="1.1" xmlns="http://www.w3.org/2000/svg" style="display: block;" viewBox="0 0 2048 2048" width="512" height="512" preserveAspectRatio="none">
<path transform="translate(0,0)" fill="rgb(253,114,30)" d="M 729.454 788.572 C 710.464 679.444 736.056 567.259 800.494 477.163 C 861.733 392.257 953.829 334.756 1057 317.01 C 1167.6 298.141 1276.58 320.599 1368.36 385.991 C 1457.03 449.703 1517 545.827 1535.22 653.487 C 1539.1 677.491 1539.84 699.634 1540.07 723.748 C 1540.87 806.136 1517.26 872.861 1475.29 942.824 C 1466.22 953.518 1457.96 964.882 1450.61 976.82 C 1444.91 982.265 1441.43 988.484 1435.77 993.921 C 1428.38 1001.02 1420.95 1008.05 1413.4 1014.98 C 1410.69 1017.47 1405.95 1020.52 1403.9 1022.53 C 1394.62 1028.99 1377.3 1041.99 1369.54 1050.2 C 1360.24 1056.1 1351.42 1062.81 1342.04 1068.52 C 1262.25 1117.07 1164.79 1133.33 1072.88 1119.99 C 1067.21 1119.17 1041.18 1113.11 1037.74 1113.44 C 1023.74 1129.51 1008.23 1144.15 993.115 1159.17 L 931.96 1220.25 L 729.745 1422.45 L 556.051 1596.19 L 508.025 1644.28 C 478.62 1673.71 449.863 1709.54 403.769 1686.94 C 361.223 1666.08 330.271 1622.85 297.622 1589.62 L 225.722 1517.69 C 187.772 1480.29 100.434 1412.05 155.351 1357.03 C 170.201 1342.15 185.566 1327.35 200.591 1312.59 L 279.983 1233.74 L 551.557 963.352 L 668.055 847.239 C 679.073 836.205 719.355 794.376 729.454 788.572 z M 425.839 1654.43 C 452.92 1649.04 462.115 1631.23 480.963 1614.4 L 481.855 1613.61 C 469.725 1603.32 427.762 1566.49 428.155 1552.27 C 428.32 1546.28 431.03 1540.64 435.607 1536.77 C 454.888 1520.65 499.5 1572.36 509.962 1586.65 C 513.209 1582.46 517.315 1578.19 521.11 1574.47 C 537.157 1558.74 552.538 1542.16 568.581 1526.46 C 553.504 1513.86 500.065 1474.97 518.331 1453.12 C 533.077 1435.47 554.516 1458 565.627 1468.65 C 576.282 1478.85 586.451 1489.75 596.677 1500.47 C 610.718 1483.67 637.344 1457.34 654.093 1442.15 C 638.412 1427.07 565.888 1371.48 620.735 1360.79 C 632.924 1358.41 674.796 1404.84 682.596 1414.44 C 686.901 1409.43 692.484 1404.02 697.317 1399.38 C 712.164 1385.1 726.125 1369.26 741.118 1355.22 C 726.33 1342.15 684.931 1309.46 687.688 1294.14 C 694.059 1258.73 729.355 1283.82 742.491 1299.6 C 749.927 1308.54 763.576 1321.45 769.657 1327.8 C 783.316 1311.09 811.612 1283.4 828.226 1269.72 C 815.623 1258.54 758.632 1213.82 777.084 1195.31 C 781.256 1191.17 787.001 1189.01 792.867 1189.38 C 808.597 1190.45 844.861 1229.2 855.247 1241.91 C 863.347 1232.28 877.097 1219.32 886.188 1209.93 C 892.928 1202.97 907.421 1187.79 914.272 1182.46 C 908.849 1177.91 903.483 1173.29 898.178 1168.6 C 880.922 1153.3 833.316 1113.9 883.472 1103.97 C 893.532 1101.98 932.607 1147.21 941.487 1155.83 C 958.04 1136.87 978.402 1119.21 994.347 1101.02 C 975.884 1092.65 957.757 1086.05 939.611 1076.41 C 903.259 1057.09 856.306 1020.82 829.481 989.57 C 785.521 1037.51 739.043 1081.91 692.886 1127.83 L 468.93 1350.24 L 345.581 1472.5 L 312.487 1505.13 C 306.017 1511.57 297.23 1521.07 290.155 1526.37 C 299.201 1534.41 310.858 1548.55 320.568 1557.87 C 340.218 1576.73 359.672 1595.56 379.235 1614.58 C 391.336 1626.35 403.472 1640.24 416.613 1650.95 C 418.516 1652.5 423.365 1653.77 425.839 1654.43 z M 1105.18 353.474 C 904.068 368.148 752.944 543.099 767.662 744.207 C 782.379 945.316 957.363 1096.4 1158.47 1081.64 C 1359.51 1066.88 1510.54 891.966 1495.83 690.919 C 1481.12 489.871 1306.23 338.804 1105.18 353.474 z M 741.727 831.554 C 731.316 843.073 713.817 857.922 702.052 869.627 L 612.982 959.468 L 325.639 1245.91 C 284.539 1286.92 240.923 1326.05 201.51 1368.5 C 191.841 1378.91 181.895 1395.93 179.059 1410.02 C 204.855 1442.28 234.459 1468.21 262.24 1497.57 C 297.391 1460.72 335.586 1423.65 371.771 1387.56 L 552.397 1207.19 L 700.134 1059.55 C 734.569 1025.14 768.634 990.195 804.496 957.307 C 781.318 925.284 762.69 893.831 748.714 856.513 C 745.969 849.183 744.603 840.42 742.213 833.032 L 741.727 831.554 z"/>
<path transform="translate(0,0)" fill="rgb(8,53,175)" d="M 729.454 788.572 C 733.853 799.839 738.609 819.515 741.727 831.554 C 731.316 843.073 713.817 857.922 702.052 869.627 L 612.982 959.468 L 325.639 1245.91 C 284.539 1286.92 240.923 1326.05 201.51 1368.5 C 191.841 1378.91 181.895 1395.93 179.059 1410.02 C 204.855 1442.28 234.459 1468.21 262.24 1497.57 C 270.175 1506.68 281.277 1517.93 290.155 1526.37 C 299.201 1534.41 310.858 1548.55 320.568 1557.87 C 340.218 1576.73 359.672 1595.56 379.235 1614.58 C 391.336 1626.35 403.472 1640.24 416.613 1650.95 C 418.516 1652.5 423.365 1653.77 425.839 1654.43 C 452.92 1649.04 462.115 1631.23 480.963 1614.4 L 481.855 1613.61 C 469.725 1603.32 427.762 1566.49 428.155 1552.27 C 428.32 1546.28 431.03 1540.64 435.607 1536.77 C 454.888 1520.65 499.5 1572.36 509.962 1586.65 C 513.209 1582.46 517.315 1578.19 521.11 1574.47 C 537.157 1558.74 552.538 1542.16 568.581 1526.46 C 553.504 1513.86 500.065 1474.97 518.331 1453.12 C 533.077 1435.47 554.516 1458 565.627 1468.65 C 576.282 1478.85 586.451 1489.75 596.677 1500.47 C 610.718 1483.67 637.344 1457.34 654.093 1442.15 C 638.412 1427.07 565.888 1371.48 620.735 1360.79 C 632.924 1358.41 674.796 1404.84 682.596 1414.44 C 686.901 1409.43 692.484 1404.02 697.317 1399.38 C 712.164 1385.1 726.125 1369.26 741.118 1355.22 C 726.33 1342.15 684.931 1309.46 687.688 1294.14 C 694.059 1258.73 729.355 1283.82 742.491 1299.6 C 749.927 1308.54 763.576 1321.45 769.657 1327.8 C 783.316 1311.09 811.612 1283.4 828.226 1269.72 C 815.623 1258.54 758.632 1213.82 777.084 1195.31 C 781.256 1191.17 787.001 1189.01 792.867 1189.38 C 808.597 1190.45 844.861 1229.2 855.247 1241.91 C 863.347 1232.28 877.097 1219.32 886.188 1209.93 C 892.928 1202.97 907.421 1187.79 914.272 1182.46 C 908.849 1177.91 903.483 1173.29 898.178 1168.6 C 880.922 1153.3 833.316 1113.9 883.472 1103.97 C 893.532 1101.98 932.607 1147.21 941.487 1155.83 C 958.04 1136.87 978.402 1119.21 994.347 1101.02 C 1003.77 1102.02 1028.54 1109.57 1037.74 1113.44 C 1023.74 1129.51 1008.23 1144.15 993.115 1159.17 L 931.96 1220.25 L 729.745 1422.45 L 556.051 1596.19 L 508.025 1644.28 C 478.62 1673.71 449.863 1709.54 403.769 1686.94 C 361.223 1666.08 330.271 1622.85 297.622 1589.62 L 225.722 1517.69 C 187.772 1480.29 100.434 1412.05 155.351 1357.03 C 170.201 1342.15 185.566 1327.35 200.591 1312.59 L 279.983 1233.74 L 551.557 963.352 L 668.055 847.239 C 679.073 836.205 719.355 794.376 729.454 788.572 z"/>
<path transform="translate(0,0)" fill="rgb(8,53,175)" d="M 1110.73 413.34 C 1279.04 401.55 1424.98 528.568 1436.53 696.895 C 1448.08 865.222 1320.86 1010.98 1152.51 1022.29 C 984.509 1033.58 839.107 906.664 827.581 738.676 C 816.055 570.689 942.76 425.106 1110.73 413.34 z M 1152.48 979.619 C 1296.94 968.322 1404.88 842.03 1393.53 697.574 C 1382.18 553.117 1255.85 445.227 1111.4 456.625 C 967.018 468.017 859.193 594.27 870.534 738.656 C 881.876 883.041 1008.09 990.91 1152.48 979.619 z"/>
<path transform="translate(0,0)" fill="rgb(253,114,30)" d="M 1258.45 606.951 C 1269.22 606.322 1283.11 612.3 1283.5 623.917 C 1284.09 641.96 1259.11 664.426 1247.19 675.338 C 1216.96 702.995 1190.88 731.097 1161.85 760.146 C 1142.22 779.777 1119.42 813.297 1090.64 819.964 C 1082.68 821.132 1031.84 766.133 1023.24 758.247 C 1002.93 739.331 979.189 713.324 1021.65 702.443 C 1022.43 702.712 1023.2 702.982 1023.98 703.251 L 1025.02 703.65 C 1038.69 708.772 1083.45 755.634 1093.63 767.93 L 1094.17 767.237 C 1104.23 753.928 1143.54 715.429 1158 701.587 C 1182.89 677.743 1212.72 644.781 1237.47 622.532 C 1243.92 616.648 1250.95 611.428 1258.45 606.951 z"/>
<path transform="translate(0,0)" fill="rgb(8,53,175)" d="M 1475.29 942.824 C 1493.81 957.768 1522.78 986.714 1539.7 1004.81 C 1570.24 995.465 1596.53 1008.25 1617.4 1030.08 C 1651.57 1065.79 1686.35 1100.7 1721.35 1135.56 L 1790.66 1204.34 C 1812.39 1225.95 1840.47 1249.23 1849.32 1279.16 C 1875.07 1366.23 1779.22 1456.8 1695.75 1408.51 C 1679.32 1399.03 1666.13 1387.43 1652.05 1374.93 C 1606.91 1333.81 1565.02 1289.6 1522.42 1245.93 L 1469.13 1190.38 C 1458.82 1179.54 1448.65 1169.05 1438.8 1157.76 C 1425.31 1142.31 1429.4 1128.08 1427.31 1109.35 C 1415.1 1095.8 1401.43 1083.37 1388.66 1070.36 C 1383.38 1064.99 1373.76 1056.14 1369.54 1050.2 C 1377.3 1041.99 1394.62 1028.99 1403.9 1022.53 C 1412.44 1029.73 1423.27 1041.16 1431.47 1049.2 C 1439.13 1056.71 1451.97 1068.01 1458.02 1075.72 C 1467.89 1063.69 1491.94 1039.15 1503.54 1029.09 C 1491.89 1015 1465.4 991.79 1450.61 976.82 C 1457.96 964.882 1466.22 953.518 1475.29 942.824 z M 1727.1 1376.57 C 1760.94 1382.45 1792.11 1369.32 1806.5 1336.41 C 1815.15 1316.6 1812.18 1288.17 1798.5 1271.37 C 1755.82 1219.37 1704.27 1174.47 1656.26 1127.41 L 1602.84 1074.2 C 1592.76 1064.12 1578.78 1049.42 1567.71 1040.9 L 1554.58 1041.28 C 1535.88 1046.73 1485.16 1103.36 1470.89 1120.5 C 1460.16 1133.38 1499.2 1164 1508.24 1172.78 C 1525.32 1189.65 1542.3 1206.62 1559.18 1223.68 C 1595.39 1260.59 1682.67 1360.55 1727.1 1376.57 z"/>
<path transform="translate(0,0)" fill="rgb(253,114,30)" d="M 1688.61 1197.85 C 1695.34 1197.38 1703.93 1201.98 1707.99 1207.24 C 1710.76 1210.79 1711.89 1215.34 1711.12 1219.77 C 1708.27 1236.55 1668.24 1268.14 1654.4 1278.22 C 1641.54 1280.89 1628.71 1262.09 1632.85 1254.67 C 1643.46 1235.65 1669.58 1207.56 1688.61 1197.85 z"/>
<path transform="translate(0,0)" fill="rgb(253,114,30)" d="M 1629.85 1144.28 C 1645.34 1143.36 1656.11 1150.16 1648.46 1166.6 C 1639.08 1186.71 1616.68 1211.83 1595.96 1220.54 C 1591.8 1220.44 1587.09 1219.99 1583.65 1217.83 C 1554.58 1199.62 1598.84 1168.39 1612.03 1155.7 C 1617.69 1150.26 1623.24 1146.2 1629.85 1144.28 z"/>
<path transform="translate(0,0)" fill="rgb(253,114,30)" d="M 1569.37 1086.92 C 1578.19 1086.12 1597.72 1099.49 1594.31 1106.42 C 1584.36 1126.65 1560.54 1149.16 1541.75 1161.29 C 1524.73 1167.97 1513.72 1149.9 1518.73 1137.73 C 1524.38 1123.97 1556.77 1092.8 1569.37 1086.92 z"/>
<path transform="translate(0,0)" fill="rgb(8,53,175)" d="M 1887.42 1500.26 C 1891.84 1500.44 1896.25 1500.63 1900.42 1502.26 C 1904.05 1503.68 1906.78 1506.22 1908.22 1509.85 C 1913.47 1523.03 1912.42 1673.46 1907.56 1684.93 C 1905.3 1690.28 1901.91 1695.77 1896.18 1697.79 C 1892.97 1698.92 1889.5 1699.08 1886.12 1699.13 C 1869.46 1699.4 1852.59 1698.01 1835.9 1697.8 C 1801.21 1697.38 1766.48 1697.71 1731.78 1697.71 L 1018.93 1697.7 L 856.924 1697.74 C 830.727 1697.8 787.138 1701.56 761.496 1693.82 C 758.53 1692.92 755.511 1686.98 754.94 1683.87 C 748.831 1650.52 753.634 1614.51 752.126 1580.59 C 752.424 1560.54 751.436 1540.28 752.445 1520.26 C 753.07 1507.88 759.442 1504.45 769.751 1501.56 C 781.799 1505.03 784.898 1505.91 791.92 1516.69 C 792.681 1534.83 792.189 1556.2 792.179 1574.6 C 792.265 1601.76 792.186 1628.92 791.944 1656.08 C 814.714 1655.59 839.533 1655.79 862.314 1656.1 C 860.686 1645.38 862.049 1632.35 860.698 1622.1 C 857.798 1600.11 876.778 1573.94 896.558 1593.05 C 908.357 1604.45 905.269 1638.45 903.567 1656.05 L 974.789 1655.99 C 971.669 1632.33 973.919 1583.96 977.368 1560.26 C 980.272 1540.3 1004.77 1539.85 1013.79 1560.25 C 1016.91 1576.62 1016.8 1637.48 1015.56 1656.16 C 1039.55 1656 1063.55 1655.99 1087.54 1656.13 C 1084.92 1642.24 1083.08 1600.34 1096.05 1592.21 C 1134.04 1568.36 1131.27 1637.5 1127.81 1656.11 L 1200.48 1656.05 C 1198.66 1644.59 1199.02 1634.87 1198.8 1623.31 C 1198.43 1603.58 1216.94 1575.19 1234.8 1598.71 C 1243.87 1610.64 1243.5 1641.02 1240.78 1656.07 C 1264.24 1655.9 1287.71 1655.9 1311.17 1656.08 C 1310.89 1654.4 1310.66 1652.7 1310.49 1651 C 1309.59 1641.17 1310.61 1630.8 1310.56 1620.91 C 1310.47 1602.83 1308.07 1582.26 1311.25 1564.53 C 1312.16 1559.47 1313.76 1554.9 1317.18 1550.96 C 1321.2 1546.32 1328.68 1541.51 1334.99 1541.29 C 1338.43 1541.17 1341.01 1542.72 1343.33 1545.13 C 1356.13 1558.37 1352.5 1636.01 1351.94 1656.21 C 1372.89 1655.45 1400.9 1655.49 1421.83 1656.12 C 1419.96 1642.5 1421.07 1628.02 1421.11 1614.04 C 1420.54 1599.22 1431.89 1586.49 1447.18 1588.08 C 1468.19 1590.26 1465.16 1641.31 1463.14 1656.02 C 1485.19 1655.39 1512.37 1655.35 1534.33 1656.12 C 1534.23 1654.94 1534.15 1653.76 1534.09 1652.57 C 1532.98 1631.42 1534.98 1608.44 1534.01 1587.11 C 1533.86 1583.68 1533.75 1568.27 1534.7 1565.85 C 1545.95 1537.1 1576.03 1543.99 1577.54 1574.8 C 1578.27 1586.88 1578.26 1597.18 1578.24 1608.19 C 1578.31 1624.22 1578.19 1640.25 1577.88 1656.29 C 1593.07 1655.17 1633.08 1653.86 1647.69 1656.21 C 1646.28 1642.16 1647.09 1630.1 1647.14 1614.88 C 1645.43 1596.39 1669.72 1579.42 1682.69 1595.39 C 1692.13 1607 1691 1642.87 1688.97 1656.02 C 1703.16 1654.2 1742.81 1654.65 1757.48 1656.26 C 1757.34 1655.01 1757.23 1653.76 1757.15 1652.51 C 1756.31 1640.43 1753.76 1604.13 1764.38 1594.7 C 1778.91 1581.79 1802.82 1588.96 1802.56 1611.12 C 1802.39 1624.82 1802.76 1641.12 1801.86 1656.06 C 1822.62 1655.45 1848.47 1655.33 1869.1 1656.15 C 1866.74 1638.2 1866.73 1518.23 1872.2 1507.84 C 1874.68 1503.12 1882.65 1501.62 1887.42 1500.26 z"/>
</svg>