<svg version="1.1" xmlns="http://www.w3.org/2000/svg" style="display: block;" viewBox="0 0 2048 2048" width="512" height="512" preserveAspectRatio="none">
<path transform="translate(0,0)" fill="rgb(6,47,186)" d="M 497.067 493.343 C 481.208 496.235 446.923 494.736 430.097 494.753 L 366.548 494.748 C 348.423 494.726 328.228 495.131 310.388 492.184 C 302.386 490.793 294.788 487.661 288.132 483.009 C 263.005 465.426 268.659 420.564 268.562 392.734 C 268.477 368.372 264.93 332.417 276.691 310.665 C 295.177 282.252 355.071 289.047 384.556 289.323 L 480.014 289.428 L 836.984 289.406 L 1430.77 289.39 L 1621.94 289.883 C 1656.5 289.878 1691.07 289.378 1725.67 289.858 C 1739.01 290.044 1755.15 295.068 1765.89 303.856 C 1792.3 325.467 1781.86 371.553 1783.35 401.868 C 1784.17 418.634 1784.89 436.095 1782.58 452.53 C 1776.51 487.439 1746.87 493.705 1716.57 494.494 C 1683.07 495.367 1649.36 494.348 1615.83 494.752 C 1600.14 494.653 1562.48 495.912 1549.02 494.2 C 1549.66 517.25 1550.17 536.797 1548.83 559.841 C 1563.08 574.469 1638.05 654.842 1638.17 670.563 C 1638.23 677.604 1630.88 683.588 1626.2 687.959 C 1611.48 687.51 1606.75 682.129 1595.12 673.65 C 1574.63 646.749 1550.13 620.213 1526.54 595.831 C 1515.89 613.589 1479.64 655.645 1465.74 670.364 C 1459.28 675.898 1452.37 683.145 1446.04 687.92 C 1443.38 686.558 1436.77 682.898 1434.27 682.309 C 1429.84 677.88 1423.11 671.38 1423.11 664.658 C 1423.11 649.93 1495.83 571.442 1508.67 554.928 C 1508.56 535.632 1508.12 513.248 1509.03 494.173 C 1469.92 495.23 1429.15 494.719 1389.89 494.715 L 1199.84 494.704 L 1097.22 494.773 C 1084.72 494.802 1053.76 495.566 1042.18 494.049 C 1043.48 505.645 1043.24 545.761 1042.27 558.627 C 1069.76 588.023 1091.87 617.383 1115.92 649.583 C 1130.07 668.535 1143.42 697.678 1130.12 721.153 C 1121.98 731.768 1111.82 743.12 1104.44 752.988 C 1099.52 756.044 1094.46 758.242 1089.05 760.257 C 1043.04 777.387 986.812 779.365 943.785 753.053 C 932.594 741.619 927.215 734.662 918.101 721.847 C 895.789 671.293 951.296 620.564 981.194 586.534 C 1012.08 551.377 1003.52 538.782 1004.07 494.052 C 981.989 495.333 955.572 494.703 933.146 494.702 L 815.826 494.671 L 746.825 494.777 C 736.447 494.791 714.604 495.188 704.803 493.543 C 700.36 492.282 671.866 492.756 667.085 493.173 C 657.005 493.548 644.413 493.198 634.151 493.167 C 628.999 492.7 622.915 492.911 617.696 492.975 C 578.753 493.455 539.599 492.319 500.681 493.279 C 499.932 493.281 497.713 493.235 497.067 493.343 z M 1026.98 732.997 C 1049.19 731.838 1072.7 730.815 1089.83 714.389 C 1103.1 701.662 1084.06 672.838 1076.38 661.393 C 1068.9 650.246 1031.15 601.097 1021.84 596.492 L 1021.09 597.636 C 1001.31 627.202 952.449 666.554 953.072 704.566 C 953.463 728.465 1009.38 733.335 1026.98 732.997 z"/>
<path transform="translate(0,0)" fill="rgb(113,135,218)" d="M 1690.72 329.488 C 1704.3 329.43 1726.72 329.289 1739.34 332.437 C 1743.87 350.899 1748.25 442.254 1737.26 453.406 C 1726.67 456.06 1655.41 454.99 1639.41 454.989 L 1407.29 454.981 L 360.089 455.145 C 349.032 455.411 307.183 459.938 307.959 440.806 C 308.882 418.024 301.866 348.223 313.268 331.878 C 319.374 328.422 424.953 329.955 440.966 329.958 L 671.625 329.969 L 1331.5 329.962 C 1449.62 329.971 1572.91 331.703 1690.72 329.488 z"/>
<path transform="translate(0,0)" fill="rgb(220,219,219)" d="M 667.085 493.173 C 671.866 492.756 700.36 492.282 704.803 493.543 C 706.742 509.869 705.818 544.244 705.81 561.871 L 705.77 690.062 L 705.881 1117.22 L 705.929 1453.6 L 705.988 1551.64 C 705.99 1561.44 706.555 1591.6 705.351 1600.04 C 703.835 1600.7 702.942 1601.02 701.249 1601.03 C 633.817 1601.47 566.394 1600.62 498.968 1601.9 C 498.391 1601.38 497.813 1600.86 497.236 1600.33 C 495.965 1581.53 496.696 1555.21 496.701 1536.02 L 496.729 1421.38 L 496.729 1065.69 L 496.725 685.109 L 496.705 560.981 C 496.703 540.257 495.885 513.39 497.067 493.343 C 497.713 493.235 499.932 493.281 500.681 493.279 C 505.978 496.44 526.868 494.978 534.407 494.749 C 533.843 506.421 532.768 560.341 534.773 569.552 C 535.894 548.28 534.658 516.962 535.068 494.041 C 565.172 494.093 605.01 495.197 634.151 493.167 C 644.413 493.198 657.005 493.548 667.085 493.173 z"/>
<path transform="translate(0,0)" fill="rgb(40,83,198)" d="M 667.085 493.173 C 671.866 492.756 700.36 492.282 704.803 493.543 C 706.742 509.869 705.818 544.244 705.81 561.871 L 705.77 690.062 L 705.881 1117.22 L 705.929 1453.6 L 705.988 1551.64 C 705.99 1561.44 706.555 1591.6 705.351 1600.04 C 703.835 1600.7 702.942 1601.02 701.249 1601.03 C 633.817 1601.47 566.394 1600.62 498.968 1601.9 C 498.391 1601.38 497.813 1600.86 497.236 1600.33 C 495.965 1581.53 496.696 1555.21 496.701 1536.02 L 496.729 1421.38 L 496.729 1065.69 L 496.725 685.109 L 496.705 560.981 C 496.703 540.257 495.885 513.39 497.067 493.343 C 497.713 493.235 499.932 493.281 500.681 493.279 C 505.978 496.44 526.868 494.978 534.407 494.749 C 533.843 506.421 532.768 560.341 534.773 569.552 C 536.095 662.37 534.997 757.695 534.992 850.702 L 534.944 1381.38 L 534.931 1541.68 C 534.9 1561.15 533.954 1580.97 534.259 1600.18 C 577.949 1599.98 623.549 1599.47 667.114 1600.4 L 667.076 737.856 L 667.079 551.251 C 667.082 542.876 668.306 498.29 667.085 493.173 z"/>
<path transform="translate(0,0)" fill="rgb(254,108,23)" d="M 1130.12 721.153 C 1145.09 727.519 1160.88 744.132 1167.8 759.18 C 1180.58 786.976 1144.26 818.837 1119.94 826.114 C 1123.98 828.426 1127.98 830.54 1132.12 832.666 C 1191.15 862.98 1174.61 913.713 1120.09 933.906 C 1133.13 940.793 1142.8 945.588 1154.22 955.104 C 1193.91 988.152 1157.05 1026.35 1122.64 1042.04 C 1165.76 1063.75 1194.79 1098.45 1142.42 1136.5 C 1139.26 1138.79 1124.2 1146.7 1122.75 1148.83 C 1156.06 1163.68 1180.32 1179.66 1164.89 1220.38 C 1159.05 1235.79 1135.98 1249.29 1133.43 1254.75 C 1136.55 1258.66 1144.6 1262.79 1148.94 1266.08 C 1180.28 1289.85 1174.71 1318.58 1145.13 1340.37 C 1143.75 1342.14 1142.17 1343.56 1140.54 1345.1 C 1085.3 1397.28 955.937 1395.93 904.733 1340.34 C 887.336 1328.71 871.369 1314.51 879.884 1291.08 C 885.981 1274.31 902.487 1261.55 918.565 1254.84 C 905.758 1249 888.969 1235.05 882.439 1222.47 C 864.182 1187.33 892.81 1163.07 921.288 1149.04 C 860.047 1118.14 861.703 1067.54 925.49 1042.01 C 923.101 1041.44 920.736 1040.77 918.401 1040.01 C 873.222 1024.89 860.826 980.939 899.404 949.334 C 907.707 942.532 914.882 938.741 924.643 934.353 C 911.259 928.21 895.964 914.913 886.282 904.204 C 872.615 887.981 872.588 871.704 885.434 855.308 C 896.091 841.703 908.419 837.684 921.059 827.931 L 920.995 826.694 C 913.958 824.57 911.173 822.084 905.564 818.22 C 873.361 796.035 863.855 756.273 899.065 730.767 C 905.677 725.976 909.079 722.653 918.101 721.847 C 927.215 734.662 932.594 741.619 943.785 753.053 C 929.86 761.295 922.238 759.439 913.532 775.492 C 930.498 801.076 998.828 806.184 1027.9 806.071 C 1062.87 805.936 1108.43 798.035 1133.75 772.008 C 1120.95 761.823 1117.38 761.06 1104.44 752.988 C 1111.82 743.12 1121.98 731.768 1130.12 721.153 z M 1025.54 1343.97 C 1053.89 1344.49 1088.69 1338.25 1111.77 1320.73 C 1086.38 1297.96 1057.24 1295.18 1024.86 1294.48 C 1010.23 1294.98 941.03 1299.55 941.266 1318.96 C 948.312 1337.15 1007.45 1343.54 1025.54 1343.97 z M 910.821 987.016 C 916.298 992.014 921.717 997.04 927.955 1001.02 C 955.899 1018.87 1001.45 1024.16 1033.99 1022.68 C 1038.04 1022.47 1042.09 1022.18 1046.13 1021.83 C 1075.42 1018.58 1113.57 1009.65 1133.98 987.123 C 1128.56 982.427 1122.19 976.748 1116.02 973.231 C 1085.06 955.589 1036.22 950.944 1000.97 954.306 C 975.595 957.768 951.364 961.614 928.895 974.834 C 921.906 978.947 917.248 982.927 910.821 987.016 z M 1133.77 879.912 C 1101.04 854.285 1057.76 845.869 1016.89 848.422 C 986.917 849.607 934.088 856.8 913.515 879.225 L 912.593 880.246 C 936.067 907.533 983.532 911.198 1017.66 913.793 C 1022.23 914.173 1026.81 914.36 1031.4 914.355 C 1063.71 913.363 1110.65 904.796 1133.77 879.912 z M 1032.14 1238.22 C 1077.58 1234.62 1098.11 1233.72 1134.07 1205.09 C 1095.65 1172.94 1062.26 1168.86 1012.89 1169.46 C 980.775 1170.99 936.719 1176.67 914.22 1201.33 L 911.086 1204.79 C 942.118 1228.57 993.538 1242.44 1032.14 1238.22 z M 1019.66 1062.43 C 979.461 1065.19 943.003 1068.01 911.824 1095.83 C 939.556 1121.01 991.206 1130.9 1027.84 1129.71 C 1066.28 1127.44 1102.85 1122.64 1133.73 1096.58 C 1102.46 1069.05 1060.72 1059.69 1019.66 1062.43 z"/>
<path transform="translate(0,0)" fill="rgb(6,47,186)" d="M 904.733 1340.34 C 901.398 1327.24 896.234 1312.68 903.985 1300.34 C 918.136 1279.13 951.039 1268.9 974.707 1264.33 C 1020.08 1255.57 1079.01 1252.9 1119.92 1278.17 C 1144.8 1293.54 1146.57 1314.3 1145.13 1340.37 C 1143.75 1342.14 1142.17 1343.56 1140.54 1345.1 C 1085.3 1397.28 955.937 1395.93 904.733 1340.34 z M 1025.54 1343.97 C 1053.89 1344.49 1088.69 1338.25 1111.77 1320.73 C 1086.38 1297.96 1057.24 1295.18 1024.86 1294.48 C 1010.23 1294.98 941.03 1299.55 941.266 1318.96 C 948.312 1337.15 1007.45 1343.54 1025.54 1343.97 z"/>
<path transform="translate(0,0)" fill="rgb(254,108,23)" d="M 1465.74 670.364 C 1498.54 669.409 1531.65 665.774 1564.62 667.718 C 1573.78 668.258 1586.65 672.679 1595.12 673.65 C 1606.75 682.129 1611.48 687.51 1626.2 687.959 C 1638.01 692.821 1649.12 696.947 1658.6 705.707 C 1695.01 739.363 1660.13 776.036 1629.34 794.051 C 1646.96 804.468 1662.46 815.492 1670.76 834.989 C 1682.7 863.002 1656.59 889.414 1632.26 898.764 C 1637.9 902.595 1646.1 907.475 1651.11 911.731 C 1690.03 944.791 1673.87 987.48 1629.27 1002.49 C 1646.38 1012.32 1665.81 1023.41 1671.3 1044 C 1678.36 1070.54 1650.14 1094.09 1628.94 1104.36 C 1637.9 1122.57 1638.19 1149.58 1632.49 1168.81 C 1624.17 1196.13 1605.34 1219.03 1580.14 1232.47 C 1554.09 1246.24 1523.59 1248.95 1495.52 1239.99 C 1446.37 1224.8 1407.08 1175.33 1419.35 1122.11 C 1420.7 1116.27 1422.97 1110.28 1424.79 1104.52 C 1411.14 1097.13 1397.33 1090.04 1389.39 1076.09 C 1370.86 1043.52 1399.51 1017.88 1424.54 1003.5 C 1366.17 973.355 1369.65 913.35 1435.31 898.967 C 1428.44 896.319 1424.37 893.283 1418.21 889.561 C 1388.81 871.785 1365.76 845.769 1394.38 813.553 C 1403.42 803.374 1414.68 797.226 1427.1 791.179 C 1371.08 768.849 1361.96 694.276 1434.27 682.309 C 1436.77 682.898 1443.38 686.558 1446.04 687.92 C 1452.37 683.145 1459.28 675.898 1465.74 670.364 z M 1460.38 1116.68 C 1458.54 1123.87 1457.22 1129.66 1456.61 1137.07 C 1451.8 1194.74 1520.64 1225.1 1566.34 1196.96 C 1581.34 1187.68 1592 1172.78 1595.93 1155.59 C 1598.83 1142.73 1598.12 1129.19 1592.4 1117.18 C 1589.82 1116.81 1591.45 1116.73 1589.24 1117.23 C 1548.81 1126.29 1505.36 1126.72 1464.94 1117.38 C 1462.52 1116.82 1463.66 1116.17 1460.38 1116.68 z M 1417.24 842.261 C 1440.09 868.923 1498.45 880.237 1532.25 879.132 C 1565.05 879.229 1615.24 872.439 1638.69 847.947 C 1611.08 818.931 1565.51 811.913 1527.18 813.431 C 1480.58 815.626 1458.24 820.481 1417.24 842.261 z M 1509.76 1024.53 C 1477.23 1026.17 1444.38 1034.32 1417.42 1053.02 C 1444.39 1079.34 1508.6 1089.32 1544.98 1085.09 C 1581.92 1081.69 1607.38 1077.83 1636.2 1053.47 C 1600.1 1029.4 1552.45 1021.2 1509.76 1024.53 z M 1417.48 738.108 C 1439.73 765.943 1493.01 770.504 1526.25 771.289 C 1569.21 771.663 1605.21 767.681 1639.18 738.656 C 1631.59 733.096 1623.55 727.285 1615.2 722.95 C 1594.05 711.967 1557.28 705.393 1533.65 707.421 C 1493.59 709.501 1449.64 711.488 1417.48 738.108 z M 1529.56 983.003 C 1567.42 982.926 1607.44 975.518 1638.71 953.069 C 1612.75 924.782 1575.66 921.126 1538.86 918.474 C 1536.45 918.3 1530.83 918.288 1528.36 918.44 C 1443.53 923.912 1347.36 959.027 1504.07 981.062 C 1512.38 982.229 1521.17 982.706 1529.56 983.003 z"/>
<path transform="translate(0,0)" fill="rgb(6,47,186)" d="M 1424.79 1104.52 C 1437.66 1107.72 1448.1 1111.67 1460.38 1116.68 C 1458.54 1123.87 1457.22 1129.66 1456.61 1137.07 C 1451.8 1194.74 1520.64 1225.1 1566.34 1196.96 C 1581.34 1187.68 1592 1172.78 1595.93 1155.59 C 1598.83 1142.73 1598.12 1129.19 1592.4 1117.18 C 1601.18 1113.02 1619.4 1107.34 1628.94 1104.36 C 1637.9 1122.57 1638.19 1149.58 1632.49 1168.81 C 1624.17 1196.13 1605.34 1219.03 1580.14 1232.47 C 1554.09 1246.24 1523.59 1248.95 1495.52 1239.99 C 1446.37 1224.8 1407.08 1175.33 1419.35 1122.11 C 1420.7 1116.27 1422.97 1110.28 1424.79 1104.52 z"/>
<path transform="translate(0,0)" fill="rgb(6,47,186)" d="M 705.351 1600.04 C 709.024 1601.9 789.956 1599.45 801.119 1600.17 C 820.545 1601.43 852.541 1591.26 868.684 1610.94 C 893.547 1641.71 916.978 1675.26 938.37 1708.54 C 949.704 1726.17 938.697 1739.65 919.373 1740.38 C 879.868 1741.87 839.988 1741.06 800.417 1741.06 L 578.355 1741.03 L 447.481 1741.05 C 422.305 1741.17 298.749 1744.75 282.665 1738.55 C 273.541 1735.03 268.717 1727.63 265.193 1718.99 C 266.562 1715.26 269.954 1707.6 272.485 1703.97 C 285.791 1684.92 335.054 1609.88 351.85 1602.37 C 384.456 1597.27 420.871 1601.6 453.884 1600.39 C 462.473 1600.07 493.219 1602.06 497.236 1600.33 C 497.813 1600.86 498.391 1601.38 498.968 1601.9 C 566.394 1600.62 633.817 1601.47 701.249 1601.03 C 702.942 1601.02 703.835 1600.7 705.351 1600.04 z"/>
<path transform="translate(0,0)" fill="rgb(208,75,4)" d="M 368.487 1639.18 C 392.049 1638.51 418.36 1639.09 442.088 1639.1 L 581.649 1639.08 C 666.637 1639.06 757.096 1637.48 841.686 1639.32 C 857.029 1656.76 872.862 1682.31 883.898 1702.79 C 871.547 1701.75 852.371 1702.29 839.5 1702.28 L 494.393 1702.27 L 385.677 1702.27 C 367.316 1702.27 341.181 1701.46 323.733 1702.95 C 332.566 1688.05 356.859 1651.71 368.487 1639.18 z"/>
<path transform="translate(0,0)" fill="rgb(113,135,218)" fill-opacity="0.94902" d="M 500.681 493.279 C 539.599 492.319 578.753 493.455 617.696 492.975 C 622.915 492.911 628.999 492.7 634.151 493.167 C 605.01 495.197 565.172 494.093 535.068 494.041 C 534.658 516.962 535.894 548.28 534.773 569.552 C 532.768 560.341 533.843 506.421 534.407 494.749 C 526.868 494.978 505.978 496.44 500.681 493.279 z"/>
</svg>