<svg version="1.1" xmlns="http://www.w3.org/2000/svg" style="display: block;" viewBox="0 0 2048 2048" width="512" height="512" preserveAspectRatio="none">
<path transform="translate(0,0)" fill="rgb(0,39,163)" d="M 316.73 545.246 C 344.568 543.577 350.754 560.002 350.858 584.425 C 350.982 613.573 350.906 642.75 350.903 671.899 L 350.892 841.857 L 350.868 1353.55 L 350.881 1593.35 L 350.918 1658.01 C 350.927 1668.18 351.54 1687.63 350.021 1696.64 C 408.676 1694.54 478.544 1696.64 537.677 1696.67 L 913.153 1696.69 L 1220.44 1696.65 L 1321.13 1696.62 C 1339.46 1696.62 1358.06 1696.37 1376.38 1696.87 C 1391.55 1697.29 1410.03 1704.59 1413.62 1721.1 C 1415.27 1728.72 1413.73 1736.67 1409.34 1743.11 C 1404.17 1750.85 1397.42 1754.8 1388.55 1756.75 C 1372.11 1758.82 1328.23 1757.47 1309.59 1757.46 L 1141.6 1757.12 L 573.565 1757.11 L 405.019 1757.15 C 383.353 1757.17 338.684 1758.54 318.283 1756.8 C 314.254 1756.44 310.323 1755.35 306.685 1753.58 C 286.312 1743.46 288.673 1712.94 289.019 1693.61 C 289.326 1676.5 290.035 1659.64 290.055 1642.48 L 290.075 1446.07 L 290.123 873.22 C 290.128 775.151 289.929 677.074 290.301 579.009 C 290.373 559.98 298.722 550.128 316.73 545.246 z"/>
<path transform="translate(0,0)" fill="rgb(250,124,24)" d="M 351.192 350.036 C 367.809 348.326 424.13 390.947 441.584 403.209 C 490.685 437.445 538.741 473.158 585.684 510.298 C 938.24 790.389 1242.42 1126.46 1486.1 1505.1 C 1513.21 1547.5 1539.37 1589.91 1564.27 1633.72 C 1575.94 1653.89 1588.93 1673.97 1596.39 1696.16 C 1603.81 1718.2 1589.3 1728.21 1569.67 1733.5 C 1555.16 1733.86 1542.86 1723.04 1535.71 1711.26 C 1526 1695.24 1516.9 1678.75 1507.75 1662.4 C 1491.95 1633.99 1475.71 1605.83 1459.03 1577.93 C 1408.64 1496.72 1354.94 1417.62 1298.05 1340.83 C 1120 1096.68 915.532 872.933 688.375 673.65 C 674.913 661.835 659.884 649.956 646.249 638.411 C 591.809 592.202 535.71 547.985 478.061 505.847 C 449.794 485.458 421.336 465.336 392.691 445.483 C 376.226 434.123 358.79 423.078 342.854 411.086 C 313.93 389.323 315.706 362.083 351.192 350.036 z"/>
</svg>