<svg version="1.1" xmlns="http://www.w3.org/2000/svg" style="display: block;" viewBox="0 0 2048 2048" width="512" height="512" preserveAspectRatio="none">
<path transform="translate(0,0)" fill="rgb(254,148,0)" d="M 1139.74 688.995 C 1158.97 664.435 1180.05 641.384 1202.81 620.045 C 1214.01 609.505 1225.91 599.636 1237.26 589.237 C 1252.91 574.912 1267.99 560.199 1284.25 546.519 C 1351.88 489.608 1441.69 431.152 1531.27 420.255 C 1571.79 415.326 1619.67 419.972 1652.52 446.422 C 1679.28 467.977 1694.81 499.824 1698.17 533.773 C 1709.82 651.765 1630.21 859.845 1579.46 968.884 C 1567.93 993.655 1532.97 1051.59 1531.61 1075.22 C 1530.31 1097.69 1548.09 1124.93 1557.45 1144.84 C 1563.62 1157.98 1569.44 1171.52 1574.8 1185 C 1610.75 1275.5 1627.45 1417.42 1561.23 1497.47 C 1538.67 1524.22 1506.34 1540.85 1471.45 1543.65 C 1367.4 1552.88 1236.85 1468.05 1164.32 1397.38 C 1156.05 1389.31 1149.42 1379.34 1140.64 1371.23 C 1109.9 1339.97 1083.16 1306.8 1056.42 1272.06 C 1055.47 1261.8 1055.88 1245.55 1055.87 1234.87 L 1055.87 1172.72 L 1055.9 971.852 L 1055.84 844.644 C 1055.83 832.916 1055.15 792.834 1056.84 783.922 C 1075.41 756.571 1116.25 712.489 1139.74 688.995 z"/>
<path transform="translate(0,0)" fill="rgb(254,203,126)" d="M 1139.74 688.995 C 1141.67 690.401 1143.66 691.278 1143.73 693.999 C 1144.09 708.678 1143.89 725.3 1143.8 739.864 L 1143.68 839.012 L 1143.83 1246.44 C 1143.83 1262.37 1145.89 1364.34 1141.35 1370.51 C 1141.15 1370.78 1140.88 1370.99 1140.64 1371.23 C 1109.9 1339.97 1083.16 1306.8 1056.42 1272.06 C 1055.47 1261.8 1055.88 1245.55 1055.87 1234.87 L 1055.87 1172.72 L 1055.9 971.852 L 1055.84 844.644 C 1055.83 832.916 1055.15 792.834 1056.84 783.922 C 1075.41 756.571 1116.25 712.489 1139.74 688.995 z"/>
<path transform="translate(0,0)" fill="rgb(254,148,0)" d="M 907.253 1370.86 C 899.988 1379.23 894.047 1388.93 886.755 1397.37 C 875.545 1410.34 862.392 1421.6 849.198 1432.48 C 785.847 1484.75 661.942 1551.24 578.422 1542.79 C 542.655 1539.17 510.305 1522.95 487.485 1494.98 C 469.341 1472.74 459.782 1447.96 453.062 1420.25 C 431.863 1332.81 450.726 1239.83 482.783 1157.39 C 485.922 1149.32 489.12 1141.2 492.819 1133.37 C 500.016 1118.13 515.344 1095.34 514.351 1078.04 C 513.204 1058.06 474.504 981.526 463.761 958.208 C 412.848 847.703 340.535 654.861 353.358 533.984 C 357.155 498.191 371.15 467.338 399.524 444.527 C 430.548 419.585 474.221 412.874 513.007 417.389 C 645.574 432.821 827.185 587.329 907.251 688.928 C 930.616 707.647 975.429 759.295 992.824 783.119 C 994.765 945.709 992.038 1110.01 992.651 1272.71 C 965.135 1299.97 936.467 1346.08 907.253 1370.86 z"/>
<path transform="translate(0,0)" fill="rgb(254,203,126)" d="M 907.251 688.928 C 930.616 707.647 975.429 759.295 992.824 783.119 C 994.765 945.709 992.038 1110.01 992.651 1272.71 C 965.135 1299.97 936.467 1346.08 907.253 1370.86 C 905.179 1368.07 905.053 1367.04 905.031 1363.46 C 904.869 1337.13 905.152 1310.54 905.182 1284.22 L 905.233 1119.79 L 905.216 821.96 C 905.212 781.113 905.283 740.24 904.894 699.398 C 904.845 694.301 904.386 692.083 907.251 688.928 z"/>
<path transform="translate(0,0)" fill="rgb(0,75,235)" d="M 992.824 783.119 L 992.871 782.212 C 993.419 770.238 992.673 754.989 992.678 742.526 L 992.77 652.756 L 992.783 386.26 L 992.705 300.34 C 992.673 283.488 992.506 266.629 993.454 250.25 C 995.251 219.217 1030.01 211.848 1048.91 230.377 C 1058.94 240.215 1056.2 286.239 1056.19 300.089 L 1056.17 385.245 L 1056.16 671.032 L 1056.17 743.81 C 1056.18 753.625 1055.77 775.256 1056.84 783.922 C 1055.15 792.834 1055.83 832.916 1055.84 844.644 L 1055.9 971.852 L 1055.87 1172.72 L 1055.87 1234.87 C 1055.88 1245.55 1055.47 1261.8 1056.42 1272.06 L 1056.14 1639.52 C 1056.14 1687.02 1056.56 1734.87 1057.8 1782.28 C 1058.32 1802.06 1046.38 1825.09 1023.9 1822.6 C 1006.11 1821.32 994.05 1810.46 993.153 1792.4 C 992.301 1775.27 992.598 1758.33 992.665 1741.18 L 992.797 1652.75 L 992.752 1400.27 C 992.751 1359.83 993.871 1312.68 992.651 1272.71 C 992.038 1110.01 994.765 945.709 992.824 783.119 z"/>
</svg>