<svg version="1.1" xmlns="http://www.w3.org/2000/svg" style="display: block;" viewBox="0 0 2048 2048" width="512" height="512" preserveAspectRatio="none">
<path transform="translate(0,0)" fill="rgb(1,19,154)" d="M 1042.56 1492.24 C 1019.28 1496.99 994.712 1496.18 971.036 1496.75 C 917.289 1498.03 862.711 1498.02 809 1495.3 C 722.743 1490.94 519.02 1477.68 461.054 1412.53 C 453.141 1403.64 447.259 1392.38 446.133 1380.42 C 444.09 1358.73 444.648 1336.71 444.652 1314.94 L 444.711 1225.56 L 444.708 935.576 L 444.679 573.392 L 444.645 456.742 C 444.637 421.311 437.244 362.624 466.487 338.328 C 481.386 325.95 510.15 311.941 529.113 305.417 C 690.721 249.821 881.454 251.269 1049.85 263.392 C 1087.87 266.227 1125.81 270.141 1163.62 275.128 C 1181.29 277.479 1223.08 280.776 1235.03 294.594 C 1250.79 298.086 1276.9 302.102 1290.18 309.578 C 1301.72 312.39 1320.83 310.328 1333.37 311.042 C 1365.67 310.488 1397.98 310.181 1430.29 310.121 C 1460.2 310.114 1508.48 306.841 1532.73 328.016 C 1541.1 335.323 1546.75 351.904 1548.5 362.68 C 1553.24 397.221 1551.38 432.792 1551.63 467.642 C 1551.99 517.641 1551.41 568.128 1551.37 618.068 C 1551.32 676.315 1534.99 701.407 1474.04 703.254 C 1456.61 704.324 1439.09 703.346 1421.8 704.105 C 1422.82 720.857 1422.13 741.548 1422.07 758.638 L 1422.01 847 L 1422 1132.03 L 1421.98 1209.62 C 1421.94 1263.68 1419.54 1314.61 1465.62 1352.35 C 1478.34 1362.77 1491.8 1373.58 1503.27 1385.32 C 1540.83 1424.15 1563.35 1475.09 1566.79 1529.01 C 1571.2 1594.44 1549.39 1658.94 1506.18 1708.27 C 1465.5 1754.46 1408.22 1782.7 1346.81 1786.84 C 1283.31 1791.3 1220.72 1769.84 1173.31 1727.37 C 1127.01 1686.71 1095.46 1631.47 1091.39 1569.27 C 1090.7 1559.54 1090.69 1549.76 1091.37 1540.03 C 1091.47 1538.44 1091.45 1539.01 1090.87 1537.24 C 1070.98 1548.52 1057.06 1551.71 1038.63 1536.08 C 1036.63 1522.6 1037.08 1504.77 1042.56 1492.24 z M 487.517 1378.84 C 527.343 1443.04 810.946 1457.42 888.56 1456.74 C 915.339 1456.51 946.823 1455.85 973.999 1455.21 C 997.369 1454.96 1025.78 1450.19 1048.29 1455.2 C 1048.53 1455.21 1048.77 1455.22 1049.01 1455.24 C 1048.74 1428.83 1089.82 1376.43 1108.52 1360.09 C 1136.72 1335.46 1174.44 1315.91 1183.17 1275.88 C 1189.06 1248.82 1188.38 1222.3 1188.38 1194.75 L 1188.34 1125.1 C 1188.36 1031.13 1187.14 934.8 1188.16 841.097 C 1188.15 836.657 1188.2 832.607 1187.84 828.166 C 1185.13 828.101 1173.07 832.144 1168.81 833.12 C 1159.82 835.088 1150.76 836.766 1141.66 838.151 C 1114.35 842.52 1082.78 845.028 1055.18 847.181 C 1004.46 850.764 953.633 852.438 902.794 852.202 C 773.091 852.267 605.527 842.928 487.128 788.259 C 488.061 805.971 487.488 828.135 487.489 846.107 L 487.476 949.431 L 487.418 1232.4 C 487.409 1280.26 486.45 1331.35 487.517 1378.84 z M 1276.26 724.289 L 1276.18 1106.54 L 1276.19 1209.31 C 1276.17 1237.8 1277.2 1270.18 1271.97 1297.96 C 1267.11 1323.74 1252.03 1352.51 1233.55 1371.07 C 1220.83 1383.84 1204.45 1394.48 1191.21 1406.94 C 1152.77 1443.73 1131.08 1494.66 1131.2 1547.86 C 1130.81 1609.86 1156.99 1657.57 1200.53 1699.48 C 1233.44 1732.14 1276.12 1747.34 1322.28 1747.01 C 1379.45 1746.6 1431.5 1725.96 1471.71 1686.05 C 1544.1 1614.2 1546.3 1480.28 1470.93 1409.84 C 1458.11 1397.86 1443.91 1387.04 1430.81 1375.35 C 1391.82 1338.47 1381.72 1292.5 1381.07 1240.58 C 1380.6 1203.5 1380.91 1165.79 1380.92 1128.51 L 1380.95 917.005 L 1380.89 777.923 C 1380.86 756.462 1379.82 724.523 1381.01 703.698 C 1371.73 703.753 1343.13 704.385 1335.51 703.315 L 1333.54 703.062 C 1309.78 705.575 1293.87 705.817 1276.26 724.289 z M 1189.27 442.628 C 1190.53 434.595 1189.86 423.494 1189.54 415.243 C 1188.2 379.999 1184.34 353.456 1209.19 325.249 C 1189.42 317.868 1150.63 313.928 1128.95 311.171 C 984.211 292.762 660.468 288.745 531.217 347.876 C 513.777 355.855 500.498 365.58 486.411 378.492 C 523.69 421.456 612.942 435.444 666.441 443.635 C 836.026 469.598 1010.57 465.868 1179.91 440.75 C 1182.45 440.374 1186.81 441.765 1189.27 442.628 z M 1189.06 558.075 L 1188.84 554.196 C 1187 535.61 1187.55 498.308 1188.3 478.802 C 1154.28 495.314 982.586 501.672 940.179 502.729 C 898.111 503.697 856.023 503.121 813.997 501.005 C 729.07 497.569 625.818 488.392 545.053 460.317 C 524.785 453.376 505.238 444.488 486.683 433.778 L 486.78 435.262 C 488.031 455.85 479.554 497.057 496.759 511.116 C 516.653 527.372 549.258 533.877 573.51 541.284 C 749.019 585.757 934.817 583.03 1113.82 564.945 C 1130.74 563.235 1173.87 554.951 1189.06 558.075 z M 1276.35 662.775 C 1281.63 661.834 1285.83 662.237 1291.12 662.35 C 1353.02 663.553 1414.81 661.407 1476.76 662.157 C 1507.66 662.531 1512.3 652.742 1512.24 624.576 C 1512.09 561.084 1512.18 497.606 1511.95 434.115 C 1511.88 415.025 1512 395.585 1509.02 376.673 C 1507.16 367.048 1501.54 354.355 1490.67 352.41 C 1467.66 348.296 1441.56 351.183 1418.09 351.314 C 1375.66 351.216 1333.23 351.352 1290.8 351.722 C 1268.1 359.201 1275.97 414.603 1276.1 434.737 L 1276.1 541.547 L 1276.04 623.906 C 1276.03 633.466 1275.36 654.584 1276.35 662.775 z M 486.846 553.516 C 487.779 574.87 486.088 596.744 487.341 617.979 C 519.013 651.004 575.081 659.72 618.612 667.789 C 694.115 682.214 770.681 690.37 847.528 692.174 C 927.003 694.126 1006.52 691.243 1085.65 683.541 C 1102.75 681.918 1119.96 680.297 1136.93 677.989 C 1152.5 675.873 1169.04 668.711 1184.57 673.872 C 1186.07 674.37 1187.32 674.488 1188.87 674.598 L 1188.79 672.257 C 1187.37 649.104 1188.06 618.679 1188.02 594.952 C 1161.99 602.464 1109.81 607.778 1083.74 610.286 C 937.556 624.349 616.762 625.604 490.143 555.393 C 489.036 554.78 487.937 554.155 486.846 553.516 z M 1188.4 715.252 L 1187.6 710.999 C 1185.74 710.295 1160.97 716.639 1156.43 717.389 C 1090.41 728.281 1022.67 731.199 955.924 732.608 C 823.555 735.403 687.891 731.74 559.185 697.827 C 539.084 692.504 503.77 680.8 486.517 670.173 C 488.19 693.265 481.58 732.792 498.346 746.366 C 514.895 759.764 549.092 768.642 570.149 774.01 C 730.606 814.909 907.529 818.878 1071.48 802.839 C 1095.13 800.397 1118.72 797.464 1142.25 794.045 C 1153.62 792.389 1164.93 790.085 1176.37 789.089 C 1180.43 788.735 1185.84 792.413 1188.9 791.195 C 1187.94 768.439 1187.3 738.045 1188.4 715.252 z"/>
<path transform="translate(0,0)" fill="rgb(248,108,15)" d="M 744.95 935.789 C 861.354 926.554 963.148 1013.56 972.15 1129.98 C 981.152 1246.4 893.943 1348.02 777.503 1356.79 C 661.393 1365.54 560.122 1278.63 551.145 1162.53 C 542.169 1046.44 628.876 944.998 744.95 935.789 z M 742.199 1317.52 C 741.885 1293.26 740.902 1266.87 742.303 1242.88 C 721.463 1240.36 698.71 1224.35 685.651 1208.17 C 652.537 1167.14 658.424 1099.58 701.143 1067.41 C 713.629 1058.01 726.886 1053.62 741.963 1049.03 C 741.878 1031.68 738.092 966.695 770.282 983.228 C 777.791 988.387 780.461 993.655 781.976 1002.81 C 784.059 1015.4 783.919 1036.97 781.726 1049.32 C 811.926 1056.88 833.8 1069.95 849.455 1097.4 C 877.126 1145.92 859.744 1203.23 812.396 1230.73 C 802.933 1236.3 792.946 1240.93 782.579 1244.56 C 783.506 1256.92 783.557 1305.49 782.064 1317.31 C 835.329 1303.48 879.606 1284.5 909.268 1234.68 C 932.879 1195.03 936.381 1145.84 924.662 1101.66 C 912.787 1057.16 883.88 1019.11 844.187 995.748 C 818.202 980.785 782.03 973.3 752.268 976.537 L 747.183 976.94 C 704.025 980.362 661.916 1000.28 633.755 1033.54 C 602.815 1070.07 588.069 1117.61 592.906 1165.24 C 599.467 1236.22 646.86 1290.36 714.804 1309.45 C 723.071 1311.77 734.904 1313.99 742.199 1317.52 z M 769.439 1205.47 C 801.88 1201.66 825.165 1172.38 821.568 1139.92 C 817.971 1107.45 788.842 1083.98 756.355 1087.37 C 723.571 1090.79 699.837 1120.24 703.466 1153 C 707.096 1185.76 736.702 1209.31 769.439 1205.47 z"/>
<path transform="translate(0,0)" fill="rgb(1,19,154)" d="M 1321.29 1381.53 C 1412.61 1377.47 1490.03 1447.99 1494.5 1539.29 C 1498.98 1630.59 1428.81 1708.33 1337.53 1713.22 C 1245.67 1718.13 1167.32 1647.42 1162.82 1555.53 C 1158.32 1463.65 1229.38 1385.62 1321.29 1381.53 z M 1337.5 1671.72 C 1405.96 1666.73 1457.47 1607.27 1452.65 1538.8 C 1447.84 1470.32 1388.51 1418.67 1320.02 1423.31 C 1251.29 1427.98 1199.41 1487.56 1204.25 1556.28 C 1209.08 1624.99 1268.79 1676.73 1337.5 1671.72 z"/>
<path transform="translate(0,0)" fill="rgb(248,108,15)" d="M 1341.03 487.265 C 1365.27 486.581 1450.5 484.423 1465.96 493.466 C 1468.93 495.205 1470.19 497.752 1470.86 501.033 C 1472.1 507.165 1470.92 512.89 1467.27 517.927 C 1463.2 523.541 1458.04 526.826 1451.25 528.073 C 1429.19 528.249 1338.46 531.666 1325.17 524.059 C 1321.34 521.869 1318.53 518.29 1317.51 513.988 C 1316.26 508.71 1317.9 501.581 1320.95 497.143 C 1325.54 490.45 1333.49 488.432 1341.03 487.265 z"/>
<path transform="translate(0,0)" fill="rgb(248,108,15)" d="M 1340.5 577.324 C 1358.18 575.227 1439.33 575.437 1455.43 579.396 C 1460.95 580.752 1464.67 583.545 1469.15 586.856 C 1470.42 591.52 1471.02 595.181 1471.8 599.897 C 1466.63 611.295 1461.16 614.473 1449.59 617.662 C 1415.93 619.469 1374.6 617.479 1340.61 616.915 C 1315.63 616.501 1301.87 582.66 1340.5 577.324 z"/>
<path transform="translate(0,0)" fill="rgb(248,108,15)" d="M 1360.81 398.527 C 1377.44 397.903 1394.62 398.499 1411.29 398.204 C 1423.59 398.882 1437.52 396.811 1449.6 398.942 C 1474.74 403.379 1474.17 418.481 1462.1 435.211 C 1449.37 440.814 1440.23 439.575 1426.5 439.49 C 1402.12 439.244 1345.56 442.074 1325.92 435.166 C 1300.92 401.934 1336 398.536 1360.81 398.527 z"/>
<path transform="translate(0,0)" fill="rgb(1,19,154)" d="M 1042.56 1492.24 C 1019.28 1496.99 994.712 1496.18 971.036 1496.75 C 917.289 1498.03 862.711 1498.02 809 1495.3 C 722.743 1490.94 519.02 1477.68 461.054 1412.53 C 453.141 1403.64 447.259 1392.38 446.133 1380.42 C 444.09 1358.73 444.648 1336.71 444.652 1314.94 L 444.711 1225.56 L 444.708 935.576 L 444.679 573.392 L 444.645 456.742 C 444.637 421.311 437.244 362.624 466.487 338.328 C 481.386 325.95 510.15 311.941 529.113 305.417 C 690.721 249.821 881.454 251.269 1049.85 263.392 C 1087.87 266.227 1125.81 270.141 1163.62 275.128 C 1181.29 277.479 1223.08 280.776 1235.03 294.594 C 1228.06 310.472 1231.82 322.904 1209.19 325.249 C 1189.42 317.868 1150.63 313.928 1128.95 311.171 C 984.211 292.762 660.468 288.745 531.217 347.876 C 513.777 355.855 500.498 365.58 486.411 378.492 C 523.69 421.456 612.942 435.444 666.441 443.635 C 836.026 469.598 1010.57 465.868 1179.91 440.75 C 1182.45 440.374 1186.81 441.765 1189.27 442.628 C 1199.7 457.978 1203.37 463.978 1189.14 478.583 C 1188.07 502.217 1190.29 532.874 1188.84 554.196 C 1187 535.61 1187.55 498.308 1188.3 478.802 C 1154.28 495.314 982.586 501.672 940.179 502.729 C 898.111 503.697 856.023 503.121 813.997 501.005 C 729.07 497.569 625.818 488.392 545.053 460.317 C 524.785 453.376 505.238 444.488 486.683 433.778 L 486.78 435.262 C 488.031 455.85 479.554 497.057 496.759 511.116 C 516.653 527.372 549.258 533.877 573.51 541.284 C 749.019 585.757 934.817 583.03 1113.82 564.945 C 1130.74 563.235 1173.87 554.951 1189.06 558.075 C 1198.56 572.826 1205.17 581.283 1188.95 594.302 C 1188.8 618.104 1190.16 649.345 1188.79 672.257 C 1187.37 649.104 1188.06 618.679 1188.02 594.952 C 1161.99 602.464 1109.81 607.778 1083.74 610.286 C 937.556 624.349 616.762 625.604 490.143 555.393 C 489.036 554.78 487.937 554.155 486.846 553.516 C 487.779 574.87 486.088 596.744 487.341 617.979 C 519.013 651.004 575.081 659.72 618.612 667.789 C 694.115 682.214 770.681 690.37 847.528 692.174 C 927.003 694.126 1006.52 691.243 1085.65 683.541 C 1102.75 681.918 1119.96 680.297 1136.93 677.989 C 1152.5 675.873 1169.04 668.711 1184.57 673.872 C 1186.07 674.37 1187.32 674.488 1188.87 674.598 C 1192.04 681.273 1195.81 685.939 1199.08 692.171 C 1194.3 700.384 1189.22 706.295 1188.4 715.252 L 1187.6 710.999 C 1185.74 710.295 1160.97 716.639 1156.43 717.389 C 1090.41 728.281 1022.67 731.199 955.924 732.608 C 823.555 735.403 687.891 731.74 559.185 697.827 C 539.084 692.504 503.77 680.8 486.517 670.173 C 488.19 693.265 481.58 732.792 498.346 746.366 C 514.895 759.764 549.092 768.642 570.149 774.01 C 730.606 814.909 907.529 818.878 1071.48 802.839 C 1095.13 800.397 1118.72 797.464 1142.25 794.045 C 1153.62 792.389 1164.93 790.085 1176.37 789.089 C 1180.43 788.735 1185.84 792.413 1188.9 791.195 C 1191.67 799.332 1195.75 803.156 1198.43 811.241 C 1195.28 818.283 1194 820.4 1189.2 826.652 L 1188.16 841.097 C 1188.15 836.657 1188.2 832.607 1187.84 828.166 C 1185.13 828.101 1173.07 832.144 1168.81 833.12 C 1159.82 835.088 1150.76 836.766 1141.66 838.151 C 1114.35 842.52 1082.78 845.028 1055.18 847.181 C 1004.46 850.764 953.633 852.438 902.794 852.202 C 773.091 852.267 605.527 842.928 487.128 788.259 C 488.061 805.971 487.488 828.135 487.489 846.107 L 487.476 949.431 L 487.418 1232.4 C 487.409 1280.26 486.45 1331.35 487.517 1378.84 C 527.343 1443.04 810.946 1457.42 888.56 1456.74 C 915.339 1456.51 946.823 1455.85 973.999 1455.21 C 997.369 1454.96 1025.78 1450.19 1048.29 1455.2 C 1048.53 1455.21 1048.77 1455.22 1049.01 1455.24 C 1060.2 1468.71 1059.59 1484.38 1042.56 1492.24 z"/>
<path transform="translate(0,0)" fill="rgb(182,183,206)" d="M 1235.03 294.594 C 1250.79 298.086 1276.9 302.102 1290.18 309.578 C 1268.66 320.934 1248.41 321.184 1240.2 350.962 C 1232.57 378.664 1235.96 410.081 1236.17 438.641 L 1236.3 513.259 L 1236.27 1026.74 L 1236.31 1169.51 C 1236.36 1210.25 1239.93 1262.26 1229.65 1300.79 C 1220.27 1335.98 1194.21 1353.99 1168.54 1376.27 C 1151.86 1390.74 1132.8 1412.31 1121.72 1431.38 C 1111.19 1449.62 1103.34 1469.29 1098.42 1489.77 C 1096.66 1497.35 1092.33 1534.82 1090.87 1537.24 C 1070.98 1548.52 1057.06 1551.71 1038.63 1536.08 C 1036.63 1522.6 1037.08 1504.77 1042.56 1492.24 C 1059.59 1484.38 1060.2 1468.71 1049.01 1455.24 C 1048.74 1428.83 1089.82 1376.43 1108.52 1360.09 C 1136.72 1335.46 1174.44 1315.91 1183.17 1275.88 C 1189.06 1248.82 1188.38 1222.3 1188.38 1194.75 L 1188.34 1125.1 C 1188.36 1031.13 1187.14 934.8 1188.16 841.097 L 1189.2 826.652 C 1194 820.4 1195.28 818.283 1198.43 811.241 C 1195.75 803.156 1191.67 799.332 1188.9 791.195 C 1187.94 768.439 1187.3 738.045 1188.4 715.252 C 1189.22 706.295 1194.3 700.384 1199.08 692.171 C 1195.81 685.939 1192.04 681.273 1188.87 674.598 L 1188.79 672.257 C 1190.16 649.345 1188.8 618.104 1188.95 594.302 C 1205.17 581.283 1198.56 572.826 1189.06 558.075 L 1188.84 554.196 C 1190.29 532.874 1188.07 502.217 1189.14 478.583 C 1203.37 463.978 1199.7 457.978 1189.27 442.628 C 1190.53 434.595 1189.86 423.494 1189.54 415.243 C 1188.2 379.999 1184.34 353.456 1209.19 325.249 C 1231.82 322.904 1228.06 310.472 1235.03 294.594 z"/>
<path transform="translate(0,0)" fill="rgb(248,108,15)" d="M 1333.37 311.042 C 1365.67 310.488 1397.98 310.181 1430.29 310.121 C 1460.2 310.114 1508.48 306.841 1532.73 328.016 C 1541.1 335.323 1546.75 351.904 1548.5 362.68 C 1553.24 397.221 1551.38 432.792 1551.63 467.642 C 1551.99 517.641 1551.41 568.128 1551.37 618.068 C 1551.32 676.315 1534.99 701.407 1474.04 703.254 C 1429.56 702.073 1380.02 702.584 1335.51 703.315 L 1333.54 703.062 C 1309.89 692.558 1290.8 685.047 1276.35 662.775 C 1281.63 661.834 1285.83 662.237 1291.12 662.35 C 1353.02 663.553 1414.81 661.407 1476.76 662.157 C 1507.66 662.531 1512.3 652.742 1512.24 624.576 C 1512.09 561.084 1512.18 497.606 1511.95 434.115 C 1511.88 415.025 1512 395.585 1509.02 376.673 C 1507.16 367.048 1501.54 354.355 1490.67 352.41 C 1467.66 348.296 1441.56 351.183 1418.09 351.314 C 1375.66 351.216 1333.23 351.352 1290.8 351.722 C 1292.45 336.369 1322.46 321.099 1333.37 311.042 z"/>
</svg>