<svg version="1.1" xmlns="http://www.w3.org/2000/svg" style="display: block;" viewBox="0 0 2048 2048" width="512" height="512" preserveAspectRatio="none">
<path transform="translate(0,0)" fill="rgb(2,23,172)" d="M 787.572 213.398 C 872.316 204.13 957.487 278.994 969.429 361.488 C 972.463 382.446 971.901 407.054 971.756 428.261 C 971.501 452.798 971.407 477.336 971.473 501.874 L 971.455 794.285 L 971.472 1087.68 L 971.498 1176.88 C 971.51 1190.95 972.183 1213.73 970.797 1227.27 C 989.921 1238.15 1007.59 1251.4 1023.4 1266.71 C 1094.93 1336.25 1129.26 1442.65 1120.53 1541.1 C 1114.01 1614.51 1080.22 1682.33 1028.42 1734.26 C 970.856 1792.74 892.55 1826.16 810.497 1827.27 C 808.162 1827.29 805.826 1827.29 803.49 1827.26 C 710.279 1826.89 621.2 1788.75 556.597 1721.56 C 499.679 1662.19 468.52 1582.74 469.905 1500.5 C 471.648 1397.89 517.925 1304.39 598.862 1242.29 C 606.587 1236.36 617.712 1229.23 624.229 1222.64 C 623.478 1200.69 623.98 1176.05 623.978 1153.86 L 623.976 1030.87 L 623.982 660.725 L 623.976 456.819 L 623.902 402.346 C 623.817 387.899 623.255 370.606 625.146 356.466 C 629.096 326.375 641.63 298.058 661.247 274.9 C 696.46 232.53 734.757 218.02 787.572 213.398 z M 929.78 1249.11 C 929.25 1223.44 929.816 1196.92 929.843 1171.15 C 910.388 1171.19 890.932 1171.12 871.478 1170.93 C 872.456 1200.83 870.678 1231.48 871.389 1261.4 C 871.986 1286.56 866.277 1313.64 886.145 1332.93 C 906.866 1353.06 930.148 1370.39 947.624 1393.62 C 975.259 1430.17 986.942 1476.34 980.017 1521.63 C 971.997 1573.98 943.459 1620.97 900.711 1652.23 C 865.248 1678.37 819.727 1691.9 775.973 1684.34 C 630.037 1659.12 564.107 1490.4 663.449 1377.14 C 673.513 1362.03 720.141 1331.81 724.223 1316.22 C 731.462 1288.57 728.786 1231.33 728.786 1202.15 L 728.779 883.629 L 728.603 795.986 C 728.542 776.052 727.82 747.925 730.858 728.634 C 747.708 708.793 767.786 714.999 769.674 740.829 C 771.105 760.403 770.28 780.835 770.225 800.512 L 770.178 904.113 L 770.915 1261.5 C 771.342 1297.17 766.69 1347.93 735.705 1369.89 C 687.423 1404.1 656.456 1440.35 658.042 1504.36 C 658.772 1542.78 674.8 1579.32 702.572 1605.88 C 757.676 1657.78 850.23 1655.61 901.793 1599.38 C 928.071 1570.33 941.74 1532.04 939.796 1492.92 C 938.151 1458.45 923.81 1425.8 899.534 1401.27 C 889.852 1391.4 875.48 1379.59 864.949 1370.18 C 843.074 1351.73 831.048 1328.03 830.491 1299.13 C 829.827 1264.75 830.095 1228.75 830.101 1194.22 C 830.103 1184.96 829.075 1144.93 835.869 1140.3 C 859.62 1124.09 901.769 1128.95 929.875 1130.1 C 928.023 1066.38 929.434 996.659 929.444 932.468 L 929.479 581.546 L 929.506 458.041 C 929.815 407.923 935.826 359.912 907.773 315.661 C 863.039 245.097 754.131 234.13 697.527 295.737 C 682.256 312.461 672.237 333.303 668.716 355.674 C 664.852 381.313 666.229 427.319 666.308 454.751 L 666.37 608.854 L 666.35 1026.22 C 666.347 1096.54 667.782 1172.59 666.168 1242.61 C 658.35 1250.4 647.134 1256.96 638.358 1263.91 C 495.471 1376.94 461.486 1563.04 593.886 1700.61 C 646.046 1754.15 717.21 1784.98 791.948 1786.4 C 1056.94 1791.41 1176.12 1480.75 995.232 1299.41 C 984.126 1288.28 972.352 1277.45 959.439 1268.5 C 950.66 1262.17 937.769 1255.24 929.78 1249.11 z"/>
<path transform="translate(0,0)" fill="rgb(248,118,22)" d="M 850.17 589.419 C 866.468 588.899 895.183 586.128 908.279 596.675 C 915.873 602.791 913.219 614.862 906.922 621.105 C 899.643 628.322 894.887 628.778 885.248 629.116 C 869.142 630.148 840.899 630.833 826.769 621.182 C 818.534 615.557 818.644 606.354 825.285 599.289 C 833.687 590.35 838.741 589.991 850.17 589.419 z"/>
<path transform="translate(0,0)" fill="rgb(248,118,22)" d="M 855.739 698.325 C 869.57 697.887 897.181 696.223 907.327 704.664 C 929.708 723.284 896.856 736.801 882.155 738.275 C 871.477 738.987 839.562 740.339 832.413 734.062 C 803.537 708.707 838.299 700.691 855.739 698.325 z"/>
<path transform="translate(0,0)" fill="rgb(248,118,22)" d="M 857.525 476.439 C 871.709 475.534 892.067 475.815 905.37 480.163 C 912.299 488.341 916.397 498.614 907.496 507.699 C 899.701 515.657 889.752 516.002 879.262 516.085 C 862.301 516.193 840.773 517.465 826.43 507.108 C 818.612 501.208 819.971 493.057 826.274 486.7 C 835.768 477.125 845.122 476.922 857.525 476.439 z"/>
<path transform="translate(0,0)" fill="rgb(248,118,22)" d="M 857.878 1021.42 C 873.231 1021.01 894.474 1019.32 907.387 1029.07 C 915.542 1035.23 916.42 1045.12 909.036 1052.45 C 899.333 1062.08 891.92 1062.17 879.249 1062.45 C 864.971 1062.79 843.182 1063.83 831.409 1054.27 C 823.864 1048.15 822.457 1037.91 829.671 1030.68 C 838.746 1021.57 845.841 1021.83 857.878 1021.42 z"/>
<path transform="translate(0,0)" fill="rgb(248,118,22)" d="M 865.637 806.47 C 887.617 807.127 919.775 804.523 908.627 836.543 C 895.386 848.939 889.417 847.022 871.656 847.017 C 860.026 846.765 841.908 847.46 832 841.94 C 825.615 838.384 825.195 834.29 823.67 827.84 C 829.808 804.052 844.711 807.237 865.637 806.47 z"/>
<path transform="translate(0,0)" fill="rgb(248,118,22)" d="M 857.575 916.428 C 872.013 916.002 894.419 913.713 906.989 921.914 C 915.17 927.253 917.135 937.176 910.432 944.74 C 902.265 953.955 894.215 954.618 882.834 955.641 C 868.429 955.843 825.649 959.187 825.04 937.861 C 824.438 916.762 842.376 917.272 857.575 916.428 z"/>
<path transform="translate(0,0)" fill="rgb(248,118,22)" d="M 730.858 728.634 C 747.708 708.793 767.786 714.999 769.674 740.829 C 771.105 760.403 770.28 780.835 770.225 800.512 L 770.178 904.113 L 770.915 1261.5 C 771.342 1297.17 766.69 1347.93 735.705 1369.89 C 687.423 1404.1 656.456 1440.35 658.042 1504.36 C 658.772 1542.78 674.8 1579.32 702.572 1605.88 C 757.676 1657.78 850.23 1655.61 901.793 1599.38 C 928.071 1570.33 941.74 1532.04 939.796 1492.92 C 938.151 1458.45 923.81 1425.8 899.534 1401.27 C 889.852 1391.4 875.48 1379.59 864.949 1370.18 C 843.074 1351.73 831.048 1328.03 830.491 1299.13 C 829.827 1264.75 830.095 1228.75 830.101 1194.22 C 830.103 1184.96 829.075 1144.93 835.869 1140.3 C 859.62 1124.09 901.769 1128.95 929.875 1130.1 C 930.107 1142.22 930.695 1159.12 929.843 1171.15 C 910.388 1171.19 890.932 1171.12 871.478 1170.93 C 872.456 1200.83 870.678 1231.48 871.389 1261.4 C 871.986 1286.56 866.277 1313.64 886.145 1332.93 C 906.866 1353.06 930.148 1370.39 947.624 1393.62 C 975.259 1430.17 986.942 1476.34 980.017 1521.63 C 971.997 1573.98 943.459 1620.97 900.711 1652.23 C 865.248 1678.37 819.727 1691.9 775.973 1684.34 C 630.037 1659.12 564.107 1490.4 663.449 1377.14 C 673.513 1362.03 720.141 1331.81 724.223 1316.22 C 731.462 1288.57 728.786 1231.33 728.786 1202.15 L 728.779 883.629 L 728.603 795.986 C 728.542 776.052 727.82 747.925 730.858 728.634 z"/>
<path transform="translate(0,0)" fill="rgb(2,23,172)" d="M 1332.45 332.055 C 1349.97 331.677 1368.88 347.987 1357.24 362.602 C 1340.12 384.079 1314.82 401.518 1295.04 421.803 C 1295.03 437.264 1295.78 470.232 1293.32 483.808 C 1311.49 468.004 1334.32 434.225 1361.05 428.991 C 1368.43 427.547 1373.61 430.894 1379.11 435.352 C 1383.43 445.716 1385.73 454.144 1377.1 463.332 C 1357.2 484.536 1333.97 502.593 1313.43 523.281 C 1306.9 529.859 1298.94 537.496 1291.5 542.751 C 1316.04 551.056 1331.59 556.944 1348.91 576.961 C 1364.21 564.093 1409.43 541.443 1428.73 531.222 C 1426.95 511.922 1428.52 487.315 1427.44 467.527 C 1427.47 456.59 1426.47 437.192 1434.91 429.014 C 1442.53 422.31 1456.17 421.341 1462.67 429.962 C 1471.33 441.438 1471.3 457.47 1471.38 471.247 C 1471.43 482.797 1471.06 495.236 1469.65 506.729 C 1493.97 494.17 1517.38 478.408 1543.28 466.225 C 1575.42 451.109 1584.22 482.776 1578.1 490.578 C 1566.19 505.778 1509.18 535.827 1489.75 542.306 C 1513.25 555.331 1551.02 558.909 1568.61 581.557 C 1577.01 591.963 1557.97 614.741 1548.42 611.081 C 1514.07 597.911 1476.52 586.876 1442.67 572.705 C 1424.29 582.787 1391.78 599.884 1376.44 612.712 L 1375.25 625.691 C 1400.49 622.798 1508.67 609.727 1482.99 661.848 C 1468.81 670.513 1445.01 667.984 1428.57 667.929 C 1411.47 667.872 1393.01 668.189 1376.01 667.071 C 1374.08 675.682 1372.56 680.157 1369.07 688.102 C 1394.35 696.829 1428.48 717.945 1451.18 732.787 C 1471.97 724.023 1538.8 683.841 1556.54 690.053 C 1562.36 692.089 1568.35 697.835 1570.67 703.538 C 1572.37 707.709 1572.12 712.238 1570.17 716.277 C 1562.17 732.896 1511.97 751.677 1494.34 757.825 C 1521.6 769.764 1562.47 788.293 1575.07 816.213 C 1571.89 822.41 1567.54 828.919 1560.74 831.502 C 1543.06 838.227 1489.11 801.888 1470.33 793.061 C 1473.16 814.608 1475.27 871.323 1437.59 855.264 C 1423.52 839.988 1429.02 807.845 1428.01 788.333 C 1427.57 779.931 1430.88 769.858 1422.57 764.567 C 1412 757.838 1400.76 752.224 1389.73 746.282 C 1375.51 738.714 1361.64 730.506 1348.16 721.682 C 1330.13 730.086 1309.88 744.674 1290.62 749.11 C 1314.6 772.658 1336.39 791.536 1362.24 812.879 C 1370 819.73 1381.07 827.966 1380.09 839.966 C 1375.74 893.336 1304.96 819.743 1293.68 807.583 C 1295.61 819.903 1294.77 863.795 1294.08 877.145 C 1315.35 892.221 1346.92 916.137 1358.38 940.147 C 1365.43 954.929 1352.86 962.94 1340.65 967.312 C 1311.05 954.086 1299.2 933.843 1277.4 920.214 C 1276.49 919.457 1275.17 918.177 1274.07 917.618 C 1261.18 911.051 1225.8 962.945 1208.51 965.505 C 1203.3 966.277 1198.28 965.115 1194.2 961.714 C 1189.51 957.814 1186.31 951.652 1185.9 945.558 C 1185.63 941.47 1186.77 936.982 1189.01 933.541 C 1201.6 914.179 1235.3 889.924 1252.5 871.506 C 1251.76 853.323 1251.97 827.595 1252.5 809.376 C 1228.13 827.079 1176.62 893.606 1160.41 836.779 C 1160.52 836.524 1160.63 836.269 1160.74 836.014 L 1161.33 834.754 C 1168.19 819.75 1200.97 796.294 1214.54 784.596 C 1225.85 774.847 1241.12 761.467 1252.8 752.516 C 1228.36 737.764 1218.65 740.378 1196.85 717.575 C 1170.21 733.883 1139.41 748.332 1115.12 767.303 C 1115.75 791.599 1122.3 836.224 1102.91 854.238 C 1095.51 861.109 1083.23 861.28 1076.96 852.626 C 1065.51 836.814 1069.88 810.635 1071.7 792.199 C 1059.77 800.177 1047.53 808.595 1034.42 814.412 C 1014.76 823.135 1005.42 816.434 997.811 798.412 C 1003.65 775.371 1030.03 765.257 1050.19 758.177 C 1029.99 749.518 955.65 714.568 1010.15 691.568 C 1019.24 687.734 1083 726.121 1092.4 732.888 C 1115.37 712.704 1148.61 696.304 1176.1 682.52 C 1174.13 676.829 1172.69 673.158 1171.76 667.125 C 1153.02 667.748 1071.32 673.152 1059.23 662.099 C 1055.69 658.86 1054.2 652.501 1054 647.912 C 1053.76 642.151 1056.23 636.189 1060.24 632.069 C 1063.11 629.112 1066.57 627.31 1070.59 626.495 C 1084.09 623.757 1099.37 624.981 1113.11 625.017 L 1171.04 625.116 C 1172.47 620.916 1174.57 616.251 1176.3 612.109 C 1153.81 603.39 1108.37 576.391 1087.5 562.611 C 1070.54 576.851 1025.58 604.177 1002.82 596.373 C 993.391 593.138 988.829 583.507 993.366 574.316 C 1002.79 555.225 1032.06 542.127 1050.84 534.099 C 1039.1 528.95 953.808 487.508 1011.16 466.574 C 1019.23 463.627 1059.12 489.826 1071.26 497.296 C 1070.11 477.663 1069.82 450.905 1074.72 432.027 C 1083.45 423.873 1096.95 416.247 1106.73 427.103 C 1118.7 440.397 1115.07 467.223 1115.22 484.227 C 1115.35 498.236 1115.95 517.625 1114.22 531.061 C 1148.48 545.949 1166.2 560.814 1196.76 576.428 C 1213.14 556.283 1227.98 551.527 1251.98 543.077 C 1236.31 527.601 1163.61 467.616 1162.27 450.409 C 1161.87 445.239 1165.06 439.18 1168.36 435.402 C 1171.89 431.343 1176.63 429.146 1182.01 429.047 C 1187.75 428.942 1192.98 431.171 1197.78 434.133 C 1213.08 443.577 1238.77 471.156 1253.13 484.467 C 1251.5 469.57 1252.27 438.331 1252.03 421.869 C 1240.06 410.339 1184.75 369.767 1187.98 352.911 C 1196.85 306.648 1242.3 353.152 1257.81 368.325 C 1262.48 372.896 1268.93 377.562 1273.96 383.205 C 1287.04 368.03 1314.75 339.765 1332.45 332.055 z M 1279.48 708.315 C 1313.43 704.628 1338.05 674.231 1334.61 640.248 C 1331.16 606.265 1300.94 581.429 1266.94 584.634 C 1232.59 587.87 1207.44 618.463 1210.92 652.789 C 1214.4 687.115 1245.18 712.039 1279.48 708.315 z"/>
</svg>