<svg version="1.1" xmlns="http://www.w3.org/2000/svg" style="display: block;" viewBox="0 0 2048 2048" width="512" height="512" preserveAspectRatio="none">
<path transform="translate(0,0)" fill="rgb(248,116,2)" d="M 1118.68 996.301 L 1118.51 995.359 C 1113.03 967.765 1099.55 934.371 1091.89 906.677 C 1047.43 746.113 976.174 575.6 833.623 478.444 C 819.863 468.958 803.9 461.316 788.409 455.209 C 777.97 451.094 770.513 447.431 761.433 441.922 C 741.619 429.901 758.839 392.046 776.312 392.728 C 818.405 394.371 866.229 425.99 899.378 450.687 C 1036.21 563.011 1100.68 726.424 1150.93 889.659 C 1158.64 914.094 1166.08 938.614 1173.24 963.214 C 1176 972.848 1180.49 986.382 1181.47 996.163 C 1201.02 995.653 1221.78 995.67 1241.35 995.482 C 1253.11 995.369 1286.85 993.853 1297.48 996.319 C 1363.42 833.508 1387.83 653.216 1385.49 478.265 C 1385.28 462.533 1385.23 446.795 1386.07 431.078 C 1386.65 420.149 1386.56 408.916 1395.49 401.174 C 1397.87 399.135 1400.56 397.48 1403.46 396.269 C 1419.37 389.542 1437.59 396.855 1442.56 414.062 C 1450.54 441.702 1445.22 474.298 1446.47 502.95 C 1444.08 629.019 1432.04 753.439 1399.46 875.524 C 1392.22 903.036 1384.06 930.301 1375.01 957.273 C 1372.04 966.063 1363.11 988.583 1361.1 995.762 C 1352.41 1013.33 1344.59 1031.32 1337.66 1049.65 C 1335.84 1053.71 1334.44 1058.85 1332.75 1063.11 C 1317.98 1100.38 1301.47 1137.65 1277.8 1170.22 C 1272.01 1178.18 1264.3 1186.14 1257.88 1193.86 C 1264.83 1205.84 1271.52 1218.83 1278.45 1230.45 C 1312.44 1287.43 1356.49 1349 1406.65 1392.98 C 1429.47 1413.07 1453.87 1431.27 1479.63 1447.42 C 1498.24 1458.86 1534.09 1472.5 1548.28 1487.09 C 1564.04 1503.3 1541.55 1539.84 1515.32 1529.61 C 1386.55 1479.38 1287.4 1364.07 1220.96 1246.44 C 1220.42 1247.27 1219.74 1248.34 1219.15 1249.06 C 1126.01 1362.59 1018.86 1471.75 873.813 1514.28 C 851.325 1520.87 830.196 1527.05 807.033 1530.6 C 790.481 1534.21 759.623 1528.43 757.63 1507.75 C 754.608 1476.41 806.53 1470.23 825.938 1465.37 C 929.571 1439.6 1018.52 1377.18 1093 1302.49 C 1129.69 1265.69 1157.32 1223.43 1191.07 1185.57 C 1164.09 1140.64 1151.62 1097.68 1135.24 1049.17 C 1132.33 1032.64 1124.91 1011.91 1118.68 996.301 z M 1201.12 1050.94 C 1207.04 1070.13 1225.08 1106.82 1233.47 1125.85 C 1235.6 1120.81 1238.07 1116.1 1240.77 1111.35 C 1252.21 1091.25 1262.58 1070.59 1273.53 1050.24 C 1260.27 1050.42 1210.11 1049.19 1201.12 1050.94 z"/>
<path transform="translate(0,0)" fill="rgb(0,17,180)" d="M 1181.47 996.163 C 1201.02 995.653 1221.78 995.67 1241.35 995.482 C 1253.11 995.369 1286.85 993.853 1297.48 996.319 C 1289.85 1017.5 1284.59 1030.02 1273.53 1050.24 C 1260.27 1050.42 1210.11 1049.19 1201.12 1050.94 C 1193.5 1035.61 1186.57 1012.52 1181.47 996.163 z"/>
<path transform="translate(0,0)" fill="rgb(48,86,176)" d="M 1716.15 1589.64 C 1700.03 1575.53 1657.69 1541.37 1656.22 1520.17 C 1655.8 1514 1657.85 1507.93 1661.92 1503.28 C 1666.41 1498.15 1673.24 1494.62 1680.07 1494.18 C 1692.83 1493.37 1703.99 1505.02 1712.65 1513.13 C 1725.98 1525.61 1738.39 1539.07 1751.38 1551.9 C 1767.27 1567.6 1786.21 1581.94 1798.31 1600.91 C 1801.37 1605.71 1803.11 1611.54 1803.4 1617.21 C 1804.05 1629.75 1790.35 1642.23 1782.32 1650.7 C 1766.4 1667.47 1698.44 1741.95 1679.52 1742.41 C 1672.48 1742.59 1663.73 1736.69 1658.98 1731.85 C 1655.06 1727.85 1652.8 1722.84 1652.85 1717.2 C 1653.01 1699.34 1673.81 1679.55 1685.89 1668.37 C 1695.76 1659.24 1706.27 1649.82 1717.42 1642.31 C 1706.31 1643.93 1687.05 1643.42 1675.3 1643.43 L 1604.37 1643.32 L 1388 1643.15 L 709.81 1643.16 L 488.617 1643.16 C 456.148 1643.16 410.678 1641.65 379.21 1643.25 C 378.572 1625.26 379.681 1606.53 378.844 1588.96 C 414.65 1588.23 452.21 1588.75 488.125 1588.75 L 684.814 1588.75 L 1278.92 1588.76 L 1578.04 1588.76 L 1666.26 1588.74 C 1679.71 1588.74 1703.78 1588.05 1716.15 1589.64 z"/>
<path transform="translate(0,0)" fill="rgb(48,86,176)" d="M 264.237 450.796 C 256.052 448.017 250.349 446.2 244.286 439.403 C 239.81 434.384 237.576 427.755 238.103 421.05 C 239.101 408.061 300.354 326.958 310.772 310.659 C 345.354 259.118 360.784 266.182 392.192 313.819 C 413.85 346.668 442.616 381.165 459.906 417.621 C 466.558 433.31 443.122 454.777 428.695 450.6 C 408.196 444.664 389.414 405.976 377.459 388.905 C 380.463 404.198 379.132 455.547 379.077 474.255 L 379.051 631.593 L 378.853 887.082 C 378.708 909.181 378.682 931.282 378.775 953.381 C 378.81 966.27 379.334 983.83 378.147 996.297 C 377.946 1003.63 377.144 1045 378.497 1049.92 C 380.663 1097.84 379.073 1157.75 379.06 1206.42 L 379.234 1538.07 C 360.743 1537.58 340.896 1538 322.252 1537.86 C 321.62 1509.33 322.266 1478.33 322.267 1449.54 L 322.272 1272.04 L 322.271 735.025 L 322.207 504.269 L 322.061 433.623 C 322.062 420.506 321.444 402.103 323.463 389.63 C 312.168 404.726 301.994 421.049 290.105 435.651 C 282.45 445.054 275.712 448.427 264.237 450.796 z"/>
<path transform="translate(0,0)" fill="rgb(0,17,180)" d="M 378.147 996.297 C 398.804 995.234 422.505 995.714 443.35 995.712 L 549.564 995.707 L 876.53 995.713 L 1044.4 995.731 L 1089.95 995.608 C 1097.91 995.578 1111.27 995.133 1118.68 996.301 C 1124.91 1011.91 1132.33 1032.64 1135.24 1049.17 C 1117.41 1051.66 1073.63 1050.27 1053.63 1050.26 L 892.104 1050.25 L 552.46 1050.11 C 495.146 1050.07 435.617 1050.93 378.497 1049.92 C 377.144 1045 377.946 1003.63 378.147 996.297 z"/>
<path transform="translate(0,0)" fill="rgb(0,17,180)" d="M 1361.1 995.762 L 1584.34 995.711 C 1623.95 995.717 1669.64 994.646 1708.82 996.049 C 1711.65 997.303 1711.29 996.521 1712.47 998.277 C 1718.55 1007.32 1732.94 1022.65 1740.93 1029.66 C 1735.85 1037.15 1728.81 1046.09 1720.21 1049.37 C 1713.03 1050.83 1687.18 1050.25 1678.89 1050.21 L 1607.21 1050.08 L 1439.88 1050.11 C 1406.21 1050.12 1371.21 1050.58 1337.66 1049.65 C 1344.59 1031.32 1352.41 1013.33 1361.1 995.762 z"/>
<path transform="translate(0,0)" fill="rgb(0,17,180)" d="M 322.252 1537.86 C 340.896 1538 360.743 1537.58 379.234 1538.07 C 379.267 1553.65 378.244 1574.35 378.844 1588.96 C 379.681 1606.53 378.572 1625.26 379.21 1643.25 C 378.11 1673.01 381.997 1703.77 377.346 1733.1 C 375.501 1744.72 359.458 1752.18 348.862 1751.87 C 318.344 1751 322.528 1707.77 321.889 1686.53 C 321.464 1672.4 321.756 1656.97 322.163 1642.96 C 305.651 1645.23 268.668 1645.97 253.425 1639.21 C 246.578 1631.49 243.533 1625.7 244.049 1615.56 C 245.185 1593.22 262.857 1588.16 281.651 1588.25 C 295.898 1588.32 308.594 1587.85 322.338 1589.21 C 321.457 1574.16 322.166 1553.34 322.252 1537.86 z"/>
<path transform="translate(0,0)" fill="rgb(48,86,176)" d="M 1710.56 995.315 C 1695.28 974.872 1653.99 956.544 1654 927.693 C 1655.55 913.218 1668.49 902.186 1683.19 904.18 C 1699.77 906.431 1712.54 922.998 1724.44 933.718 C 1745.74 952.898 1765.77 977.794 1787.67 995.826 C 1805.69 1009.03 1812.53 1035.22 1792.4 1049.21 C 1782 1048.88 1728.44 1046.79 1722.67 1050.08 L 1720.21 1049.37 C 1728.81 1046.09 1735.85 1037.15 1740.93 1029.66 C 1732.94 1022.65 1718.55 1007.32 1712.47 998.277 C 1711.29 996.521 1711.65 997.303 1708.82 996.049 L 1710.56 995.315 z"/>
<path transform="translate(0,0)" fill="rgb(0,11,133)" d="M 1710.56 995.315 C 1717.26 997.195 1778.32 996.423 1787.67 995.826 C 1805.69 1009.03 1812.53 1035.22 1792.4 1049.21 C 1782 1048.88 1728.44 1046.79 1722.67 1050.08 L 1720.21 1049.37 C 1728.81 1046.09 1735.85 1037.15 1740.93 1029.66 C 1732.94 1022.65 1718.55 1007.32 1712.47 998.277 C 1711.29 996.521 1711.65 997.303 1708.82 996.049 L 1710.56 995.315 z"/>
<path transform="translate(0,0)" fill="rgb(48,86,176)" d="M 1722.67 1050.08 C 1728.44 1046.79 1782 1048.88 1792.4 1049.21 C 1762.24 1085.08 1729.04 1118.41 1694.15 1149.38 C 1678.55 1163.23 1652.52 1148.04 1653.17 1131.09 C 1654.46 1098 1704.29 1073.14 1722.67 1050.08 z"/>
</svg>