<svg version="1.1" xmlns="http://www.w3.org/2000/svg" style="display: block;" viewBox="0 0 2048 2048" width="512" height="512" preserveAspectRatio="none">
<path transform="translate(0,0)" fill="rgb(23,38,164)" d="M 483.216 365.465 C 603.664 365.732 705.086 441.963 745.179 554.914 C 759.427 595.053 767.063 648.931 758.179 691.139 C 762.566 694.824 769.193 698.667 774.109 702.136 C 842.934 750.699 911.669 799.504 980.408 848.181 L 1452.56 1182.14 L 1688.52 1349 L 1754.96 1395.95 C 1773.94 1409.33 1792.89 1422.04 1810.15 1437.68 C 1859.76 1482.64 1869.14 1552.54 1830.41 1607.88 C 1812.01 1634.43 1783.76 1652.54 1751.95 1658.16 C 1702.4 1666.5 1675.66 1649.31 1637.61 1621.96 L 1591.25 1588.76 L 1409.49 1459.28 L 927.978 1117.37 L 721.519 970.96 C 683.231 944.105 645.126 916.989 607.209 889.612 C 600.468 893.374 591.724 897.756 584.717 900.952 C 518.927 931.289 443.704 933.906 375.965 908.215 C 260.083 864.455 182.936 755.386 192.888 630.343 C 193.925 617.308 195.182 603.653 199.972 591.323 C 203.879 581.263 207.238 577.307 216.908 573.068 C 232.017 576.929 263.395 601.201 277.564 611.181 L 348.652 661.009 L 397.648 695.497 C 405.201 700.871 417.57 709.131 423.988 715.224 C 431.754 699.938 455.794 665.443 466.431 649.256 C 487.873 616.513 508.806 583.439 529.222 550.046 C 521.506 545.862 509.625 536.763 502.275 531.443 C 489.59 522.254 476.817 513.188 463.958 504.244 L 396.029 456.742 C 383.457 447.862 370.326 438.861 358.409 429.181 C 353.74 425.39 348.998 420.43 348.67 414.167 C 348.451 409.97 351.038 404.324 354.014 401.666 C 382.134 376.552 447.892 367.591 483.216 365.465 z M 431.889 420.785 C 441.065 425.171 452.381 433.381 461.134 439.35 C 476.611 449.926 492.023 460.599 507.369 471.366 C 530.752 487.682 554.701 503.744 577.329 520.972 C 594.946 534.385 593.084 545.386 581.797 563.077 C 538.502 630.928 495.473 699.481 450.021 765.875 C 446.27 771.353 437.329 777.432 429.828 777.317 C 414.707 773.515 390.769 753.552 379.104 744.959 L 321.119 702.806 C 305.121 691.259 288.949 679.952 272.611 668.89 C 263.953 663.025 250.842 654.876 242.905 648.652 C 244.338 665.502 245.156 682.061 249.093 698.599 C 275.325 808.803 380.619 882.926 492.862 872.747 C 519.976 870.341 546.34 862.564 570.418 849.868 C 582.751 843.505 594.072 836.303 607.532 832.768 C 629.186 838.203 740.595 921.909 766.878 940.668 L 1003.83 1108.79 L 1297.15 1316.79 C 1344.67 1350.52 1397.18 1386.2 1443.52 1420.73 L 1620.8 1545.93 L 1665.4 1577.42 C 1690.87 1595.45 1708.88 1612.59 1742.24 1606.42 C 1760.74 1603.03 1777.13 1592.41 1787.77 1576.89 C 1814.75 1537.19 1802.47 1495.64 1766.86 1467.4 C 1751.24 1455.01 1735.68 1444.61 1719.33 1433.34 C 1701.43 1420.85 1683.63 1408.23 1665.9 1395.49 L 1456.77 1247.33 L 727.015 731.559 C 724.635 729.849 708.807 717.472 708.404 715.664 C 704.446 697.914 709.353 678.155 710.763 659.842 C 720.396 534.758 600.957 404.728 472.774 416.385 C 459.184 418.03 445.247 419.097 431.889 420.785 z"/>
<path transform="translate(0,0)" fill="rgb(23,38,164)" d="M 1543.86 1376.89 C 1546.24 1376.94 1548.35 1377.77 1550.55 1378.6 C 1576.62 1388.45 1693.71 1469.26 1702.26 1490.18 C 1704.47 1495.59 1704.6 1501.36 1702.12 1506.7 C 1698.4 1514.74 1691.39 1518.8 1683.35 1521.61 C 1681.21 1521.91 1678.77 1521.34 1676.7 1520.72 C 1667.16 1517.88 1657.43 1511.81 1649.02 1506.58 C 1629.56 1494.46 1532.51 1426.7 1525.6 1411.88 C 1523.25 1406.84 1523.23 1400.57 1525.05 1395.37 C 1528.24 1386.22 1535.63 1381.03 1543.86 1376.89 z"/>
<path transform="translate(0,0)" fill="rgb(250,136,24)" d="M 1062.5 392.512 C 1070.23 394.455 1077.49 397.357 1082.13 404.04 C 1089.73 414.985 1088.11 477.909 1085.95 488.757 C 1111.57 487.982 1136.39 492.304 1161.36 497.511 C 1296.69 526.196 1415.05 607.536 1490.34 723.592 C 1528.33 781.862 1558.58 852.431 1570.97 920.826 C 1575.51 945.872 1581.74 1017.5 1576.45 1042.61 C 1568.52 1052.27 1557.28 1063.49 1550.25 1073.42 C 1540.76 1063.96 1535.07 1056.13 1526.54 1046.99 C 1524.59 1039.69 1524.77 1026.57 1524.72 1018.66 C 1524.06 912.329 1494.12 819.542 1431.74 732.562 C 1366.28 640.453 1269.73 575.104 1159.89 548.552 C 1131.2 541.815 1113.14 542.145 1086.04 537.709 C 1089.38 556.853 1092.24 602.494 1085.42 620.938 C 1080.83 633.344 1075.54 638.459 1064.36 643.819 C 1050.67 638.244 1033.5 626.043 1021.12 617.697 L 977.488 588.609 C 948.675 569.576 918.803 550.879 891.095 530.634 C 871.595 516.385 874.21 501.98 892.293 489.29 C 911.548 476.318 932.432 463.43 952.794 452.144 C 987.679 432.807 1025.18 405.811 1062.5 392.512 z"/>
<path transform="translate(0,0)" fill="rgb(254,172,1)" d="M 1032.72 468.846 L 1035.09 469.745 C 1036.44 475.299 1035.98 497.486 1035.97 504.146 C 1035.87 525.375 1035.88 546.604 1036 567.833 C 1021.18 556.681 1007.64 548.056 992.003 538.142 C 980.716 530.208 968.079 520.932 956.419 513.87 C 977.045 497.683 1009.53 480.594 1032.72 468.846 z"/>
<path transform="translate(0,0)" fill="rgb(250,136,24)" d="M 601.636 944.031 C 611.072 943.881 625.028 951.604 631.234 958.326 C 645.58 973.867 659.283 991.349 673.277 1007.25 C 690.19 1026.3 709.079 1044.02 723.623 1065.05 C 730.059 1074.66 726.95 1089.81 718.547 1097.03 C 690.71 1120.91 647.046 1058.01 632.511 1038.54 C 642.401 1113.33 664.229 1182.45 707.566 1245.23 C 805.043 1386.44 971.779 1456.01 1141.77 1435.98 C 1157.33 1434.1 1172.79 1431.5 1188.1 1428.2 C 1211.26 1423.37 1253.28 1404.24 1267.9 1427.71 C 1270.92 1432.48 1271.73 1438.32 1270.11 1443.72 C 1266.82 1454.71 1256.19 1464.04 1246.27 1469.26 C 1200.41 1480.92 1161.71 1489.58 1114.06 1492.52 C 981.134 1500.73 840.411 1453.89 741.728 1362.19 C 666.639 1293.59 613.938 1203.97 590.481 1105.01 C 585.551 1084.28 580.425 1060.05 579.541 1038.68 C 560.795 1056.64 547.708 1079.52 525.399 1094.53 C 506.399 1107.31 489.205 1101.73 481.827 1079.85 C 489.326 1050.09 511.934 1032.17 531.607 1009.73 C 549.448 989.368 575.335 951.911 601.636 944.031 z"/>
<path transform="translate(0,0)" fill="rgb(235,99,32)" d="M 1576.45 1042.61 C 1586.3 1039.65 1609.8 998.315 1638.51 992.863 C 1649.87 995.937 1651.96 998.113 1660.14 1006.83 C 1661.39 1012.14 1662.81 1017.49 1663.51 1022.89 C 1661.39 1028.14 1659.29 1032.27 1655.69 1036.72 C 1644.31 1050.75 1566.71 1128.8 1554.79 1133.58 C 1550.23 1135.41 1545.05 1133.14 1540.9 1131.19 C 1517.29 1120.09 1446.87 1048.15 1438.85 1027 C 1436.98 1022.07 1438.37 1016.78 1440.7 1012.24 C 1443.71 1006.38 1448.39 1000.8 1453.52 996.701 L 1465 994.389 C 1488.53 1003.17 1496.49 1016.17 1513.4 1034.09 C 1516.52 1037.41 1522.92 1044.62 1526.54 1046.99 C 1535.07 1056.13 1540.76 1063.96 1550.25 1073.42 C 1557.28 1063.49 1568.52 1052.27 1576.45 1042.61 z"/>
</svg>