<svg version="1.1" xmlns="http://www.w3.org/2000/svg" style="display: block;" viewBox="0 0 2048 2048" width="512" height="512" preserveAspectRatio="none">
<path transform="translate(0,0)" fill="rgb(3,15,181)" d="M 514.945 497.761 C 586.985 424.717 662.176 354.054 735.514 282.259 C 738.101 279.726 744.15 274.876 747.803 274.833 C 758.602 274.707 768.166 281.709 776.388 288.015 C 794.743 303.645 810.579 322.585 827.915 339.448 L 929.968 437.906 C 950.171 457.648 967.004 475.995 988.095 495.342 C 1028.85 499.589 1071.47 496.126 1112.41 497.207 C 1129.6 497.661 1161.03 493.72 1174.97 503.583 C 1185.06 522.844 1182.11 580.926 1182.1 605.087 L 1182.02 745.833 C 1182.02 753.349 1181.4 789.174 1182.19 793.924 C 1234.47 743.422 1285.84 691.025 1337.2 639.581 C 1342.92 633.852 1352.14 628.465 1359.68 625.692 C 1367.97 628.604 1377.72 633.407 1383.97 639.591 C 1417.9 673.145 1451.93 707.64 1485.83 741.196 C 1514.46 769.234 1542.88 797.489 1571.08 825.958 C 1577.85 832.777 1595.48 849.138 1600.99 855.564 C 1625.2 852.777 1658.86 855.217 1684.07 854.312 C 1700.87 854.532 1717.54 852.408 1734.34 853.751 C 1741.45 854.32 1753.12 856.156 1759 860.529 C 1761.93 862.71 1762.17 870.123 1762.19 873.609 C 1762.51 926.129 1762.34 978.666 1762.33 1031.19 L 1762.28 1336.66 L 1762.29 1508.54 C 1762.3 1529.22 1763.53 1575.71 1761.63 1594.65 C 1754.73 1605.88 1730.08 1625.04 1719.27 1634.51 C 1691.55 1658.77 1663.69 1682.86 1635.68 1706.78 C 1622.25 1718.4 1609.7 1730.87 1596.11 1742.33 C 1581.35 1754.78 1570.14 1759.48 1550.69 1759.49 C 1516.63 1759.52 1482.6 1759.37 1448.56 1759.37 L 1236.38 1759.4 L 1009.18 1759.41 C 983.631 1759.43 890.067 1763.05 872.31 1755.56 C 864.257 1743.65 866.178 1714.09 866.243 1699.82 L 866.288 1644.86 L 866.388 1463.27 C 866.401 1453.5 867.058 1403.43 865.533 1398.03 C 856.797 1397.09 832.177 1397.86 821.825 1397.87 L 728.733 1397.88 L 438.89 1397.86 L 356.544 1398.03 C 339.675 1398.15 322.901 1398.41 306 1398.09 C 294.935 1398.5 286.894 1392.88 286.281 1380.99 C 283.848 1333.8 284.993 1283.74 284.987 1236.5 L 284.944 968.612 L 284.87 772.949 L 284.834 710.564 C 284.803 694.279 281.431 665.495 292.952 651.922 C 301.238 642.16 308.129 636.717 318.055 628.921 C 353.701 600.923 389.53 571.184 424.361 542.295 C 458.521 513.962 465.562 494.193 514.945 497.761 z M 903.954 1722.06 C 916.264 1720.95 933.048 1721.51 945.676 1721.56 L 1012.05 1721.64 L 1236.25 1721.63 L 1445.68 1721.64 C 1471.4 1721.63 1525.02 1719.68 1548.6 1722 C 1547.64 1683.61 1548.47 1641.97 1548.47 1603.29 L 1548.46 1375.7 L 1548.45 1161.83 C 1548.46 1120.74 1547.75 1077.55 1548.95 1036.74 C 1522.84 1037.11 1482.52 1035.37 1457.86 1037.38 C 1459.08 1059.22 1458.8 1082.54 1458.86 1104.51 L 1458.53 1218.34 C 1458.41 1237.49 1458.52 1256.65 1458.84 1275.79 C 1459.17 1297.79 1466.4 1339.32 1436.47 1339.42 C 1415.72 1339.35 1391.19 1340.65 1370.78 1339.61 C 1348.06 1338.46 1293.12 1345.29 1276.45 1331.98 C 1270.92 1321.26 1272.7 1293.27 1272.74 1280.52 L 1272.78 1219.04 L 1273.02 1036.58 C 1259.07 1037.84 1231.82 1036.84 1216.93 1036.83 L 1104.98 1036.84 C 1059.48 1037.08 1013.99 1036.86 968.498 1036.18 C 950.94 1036.08 919.606 1037.43 904.133 1036.16 L 904.244 1487.36 L 904.265 1641.84 C 904.268 1665.45 905.417 1699.66 903.954 1722.06 z M 322.766 1360.84 C 362.407 1359.85 404.064 1360.58 443.912 1360.6 L 656.419 1360.59 L 793.09 1360.58 C 814.424 1360.58 846.801 1359.59 866.946 1361.12 C 865.452 1349.99 866.266 1323.38 866.305 1311.28 L 866.366 1222.88 L 866.324 1091.37 C 866.306 1068.88 866.012 1046.43 866.436 1023.95 C 866.824 1003.38 886.365 993.825 900.344 981.797 C 924.406 961.092 953.1 943.311 976.974 922.73 C 975.734 908.307 976.129 890.743 976.379 876.051 C 977.459 812.502 974.996 748.194 976.951 684.741 C 938.67 685.273 900.273 684.452 861.981 684.782 C 856.814 684.826 850.836 684.732 845.751 685.312 C 847.894 718.454 846.339 766.637 846.378 800.899 L 846.467 854.796 C 846.506 866.56 846.987 880.433 845.875 891.892 C 839.373 897.812 830.255 902.582 821.197 903.984 C 776.61 910.886 729.393 905.023 684.46 903.361 C 669.925 902.823 667.204 891.784 666.422 879.259 C 665.006 856.556 665.613 833.037 665.615 810.117 L 665.911 685.074 C 644.93 683.574 608.731 684.845 586.726 684.874 L 416.335 684.863 C 388.139 684.869 349.958 686.083 323.111 684.302 C 324.185 700.886 323.616 721.432 323.609 738.401 L 323.564 832.245 L 323.539 1120.42 L 323.56 1285.73 C 323.575 1298.49 324.406 1351.3 322.766 1360.84 z M 1013.33 893.213 C 1065.18 852.944 1050.32 851.535 1116.55 855.368 C 1128.35 848.394 1134.66 841.619 1144.45 832.178 C 1142.18 819.02 1142.89 799.895 1142.89 785.98 L 1142.93 718.996 L 1142.83 627.098 C 1142.79 606.471 1142.26 582.499 1143.8 562.175 C 1110.29 592.332 1073.8 619.098 1040.82 649.908 C 1032.86 657.346 1021.93 666.385 1014.63 674.071 L 1014.59 822.104 C 1014.59 835.984 1015.47 882.182 1013.33 893.213 z M 1273.01 1000.7 C 1272.27 965.727 1272.85 928.918 1272.86 893.81 C 1217.62 895.209 1162.2 891.805 1107.04 895.173 C 1100.98 895.542 1095.78 889.5 1092.44 885.38 C 1048.04 911.28 1015.93 938.083 976.326 970.598 C 965.354 979.605 950.4 993.195 939.598 1001.14 C 959.619 999.559 986.325 1000.26 1006.89 1000.26 L 1118.15 1000.32 L 1218.39 1000.29 C 1233.81 1000.28 1258.4 999.534 1273.01 1000.7 z M 570.294 497.406 C 607.21 495.874 646.589 497.766 683.617 497.58 C 700.059 497.497 704.613 506.132 705.255 521.063 C 706.62 541.136 706.148 561.183 706.139 581.263 L 706.061 675.691 L 705.966 803.546 C 705.94 822.624 706.587 846.267 705.842 864.817 L 757.5 864.782 C 772.232 864.742 791.73 864.104 806.073 864.817 C 805.24 838.428 805.664 810.215 805.66 783.656 L 805.656 646.915 L 805.544 566.04 C 805.46 549.946 804.343 533.155 805.883 517.194 C 807.1 504.582 812.31 497.771 825.106 497.274 C 843.987 496.542 862.601 496.894 881.475 496.954 C 895.53 497.238 919.748 496.285 932.845 498.049 C 913.295 477.176 760.214 325.536 749.353 322.544 C 739.255 336.106 724.924 349.967 712.825 362.051 C 689.381 385.243 665.493 407.981 641.175 430.254 C 617.82 451.907 593.31 476.585 570.294 497.406 z M 1722.9 917.006 C 1698.39 935.898 1672.34 960.167 1648.96 980.868 C 1628.33 999.13 1608.84 1013.36 1588.01 1030.38 C 1585.87 1076.38 1587.49 1135.49 1587.5 1182.42 L 1587.55 1469.34 L 1587.54 1625.89 C 1587.5 1641.48 1585.94 1684.18 1587.78 1697.44 C 1614.6 1674.59 1641.1 1648.58 1668.55 1625.03 C 1679.81 1615.33 1691.25 1605.84 1702.86 1596.56 C 1709.21 1591.53 1718.66 1584.87 1724.27 1579.53 C 1722.87 1524.78 1725.84 920.494 1722.9 917.006 z M 1544.95 855.438 C 1530.64 842.628 1513.02 823.644 1499.03 809.635 C 1469.3 779.757 1439.38 750.059 1409.28 720.542 C 1398.09 709.573 1371.82 682.898 1360.21 674.473 C 1297.82 732.522 1239.09 796.534 1176.91 855.17 C 1190.39 853.447 1206.05 854.866 1219.89 854.835 C 1241.15 854.789 1263.54 852.928 1284.63 855.331 C 1299.91 857.071 1310.4 861.32 1311.18 877.928 C 1312.15 898.462 1311.67 918.544 1311.57 939.019 L 1311.48 1036.38 L 1311.46 1218.76 C 1311.46 1245.49 1312.07 1274.26 1311.65 1300.77 L 1360.5 1300.78 C 1377.34 1300.75 1401.82 1299.9 1418.04 1300.85 C 1416.42 1286.24 1417.25 1255.1 1417.25 1239.12 L 1417.28 1125.76 L 1417.24 966.133 C 1417.23 937.425 1416.97 908.504 1417.58 880.098 C 1418 860.655 1431.86 855.872 1449.11 855.359 C 1478.06 854.497 1516.66 851.885 1544.95 855.438 z M 845.846 537.968 C 846.687 567.618 844.174 597.235 845.336 626.892 C 845.598 633.574 845.867 640.814 845.49 647.437 C 861.982 649.544 898.482 647.102 916.943 647.62 C 933.893 648.096 965.015 648.778 981.406 646.352 C 988.245 645.34 1011.08 624.696 1017.74 619.029 L 1074.91 570.85 C 1087.57 560.193 1104.38 544.564 1118.84 537.028 C 1080.3 536.444 1038.38 535.33 999.935 538.05 C 982.191 539.664 961.707 538.171 943.625 538.044 L 845.846 537.968 z M 665.911 537.926 L 569.064 538.069 C 557.36 538.15 524.878 539.117 515.303 537.381 C 509.985 537.04 496.387 536.119 492.136 538.351 C 442.205 564.566 401.131 615.523 356.064 647.917 L 582.511 647.684 C 603.983 647.761 625.455 647.619 646.923 647.259 C 650.278 647.215 663.728 647.461 665.851 646.955 C 665.617 610.612 665.637 574.269 665.911 537.926 z M 1611.87 893.935 L 1457.91 893.972 C 1458.53 923.742 1459.3 971.013 1457.77 1000.22 C 1492.47 999.873 1527.18 999.878 1561.88 1000.23 C 1577.67 990.487 1601.02 969.815 1615.41 957.425 C 1641.06 935.339 1665.52 913.638 1692.03 892.507 C 1670.8 894.906 1634.87 893.854 1611.87 893.935 z"/>
<path transform="translate(0,0)" fill="rgb(252,117,19)" d="M 1359.68 625.692 C 1367.97 628.604 1377.72 633.407 1383.97 639.591 C 1417.9 673.145 1451.93 707.64 1485.83 741.196 C 1514.46 769.234 1542.88 797.489 1571.08 825.958 C 1577.85 832.777 1595.48 849.138 1600.99 855.564 C 1606.2 863.376 1612.44 868.607 1617.06 876.641 C 1615.52 883.802 1614.4 887.04 1611.87 893.935 L 1457.91 893.972 C 1458.53 923.742 1459.3 971.013 1457.77 1000.22 C 1456.82 1010.65 1456.5 1027.01 1457.86 1037.38 C 1459.08 1059.22 1458.8 1082.54 1458.86 1104.51 L 1458.53 1218.34 C 1458.41 1237.49 1458.52 1256.65 1458.84 1275.79 C 1459.17 1297.79 1466.4 1339.32 1436.47 1339.42 C 1415.72 1339.35 1391.19 1340.65 1370.78 1339.61 C 1348.06 1338.46 1293.12 1345.29 1276.45 1331.98 C 1270.92 1321.26 1272.7 1293.27 1272.74 1280.52 L 1272.78 1219.04 L 1273.02 1036.58 C 1273.66 1024.63 1273.66 1012.65 1273.01 1000.7 C 1272.27 965.727 1272.85 928.918 1272.86 893.81 C 1217.62 895.209 1162.2 891.805 1107.04 895.173 C 1100.98 895.542 1095.78 889.5 1092.44 885.38 C 1097.99 870.185 1104.66 865.605 1116.55 855.368 C 1128.35 848.394 1134.66 841.619 1144.45 832.178 C 1156.52 823.02 1172.39 805.351 1182.19 793.924 C 1234.47 743.422 1285.84 691.025 1337.2 639.581 C 1342.92 633.852 1352.14 628.465 1359.68 625.692 z M 1176.91 855.17 C 1190.39 853.447 1206.05 854.866 1219.89 854.835 C 1241.15 854.789 1263.54 852.928 1284.63 855.331 C 1299.91 857.071 1310.4 861.32 1311.18 877.928 C 1312.15 898.462 1311.67 918.544 1311.57 939.019 L 1311.48 1036.38 L 1311.46 1218.76 C 1311.46 1245.49 1312.07 1274.26 1311.65 1300.77 L 1360.5 1300.78 C 1377.34 1300.75 1401.82 1299.9 1418.04 1300.85 C 1416.42 1286.24 1417.25 1255.1 1417.25 1239.12 L 1417.28 1125.76 L 1417.24 966.133 C 1417.23 937.425 1416.97 908.504 1417.58 880.098 C 1418 860.655 1431.86 855.872 1449.11 855.359 C 1478.06 854.497 1516.66 851.885 1544.95 855.438 C 1530.64 842.628 1513.02 823.644 1499.03 809.635 C 1469.3 779.757 1439.38 750.059 1409.28 720.542 C 1398.09 709.573 1371.82 682.898 1360.21 674.473 C 1297.82 732.522 1239.09 796.534 1176.91 855.17 z"/>
<path transform="translate(0,0)" fill="rgb(252,117,19)" d="M 514.945 497.761 C 586.985 424.717 662.176 354.054 735.514 282.259 C 738.101 279.726 744.15 274.876 747.803 274.833 C 758.602 274.707 768.166 281.709 776.388 288.015 C 794.743 303.645 810.579 322.585 827.915 339.448 L 929.968 437.906 C 950.171 457.648 967.004 475.995 988.095 495.342 C 993.896 503.074 1000.37 510.909 1004.1 519.8 L 999.935 538.05 C 982.191 539.664 961.707 538.171 943.625 538.044 L 845.846 537.968 C 846.687 567.618 844.174 597.235 845.336 626.892 C 845.598 633.574 845.867 640.814 845.49 647.437 C 844.423 657.102 843.882 675.937 845.751 685.312 C 847.894 718.454 846.339 766.637 846.378 800.899 L 846.467 854.796 C 846.506 866.56 846.987 880.433 845.875 891.892 C 839.373 897.812 830.255 902.582 821.197 903.984 C 776.61 910.886 729.393 905.023 684.46 903.361 C 669.925 902.823 667.204 891.784 666.422 879.259 C 665.006 856.556 665.613 833.037 665.615 810.117 L 665.911 685.074 C 666.503 673.329 666.25 658.662 665.851 646.955 C 665.617 610.612 665.637 574.269 665.911 537.926 L 569.064 538.069 C 557.36 538.15 524.878 539.117 515.303 537.381 C 511.512 529.417 508.709 527.073 505.213 517.412 C 507.883 509.358 510.877 505.12 514.945 497.761 z M 570.294 497.406 C 607.21 495.874 646.589 497.766 683.617 497.58 C 700.059 497.497 704.613 506.132 705.255 521.063 C 706.62 541.136 706.148 561.183 706.139 581.263 L 706.061 675.691 L 705.966 803.546 C 705.94 822.624 706.587 846.267 705.842 864.817 L 757.5 864.782 C 772.232 864.742 791.73 864.104 806.073 864.817 C 805.24 838.428 805.664 810.215 805.66 783.656 L 805.656 646.915 L 805.544 566.04 C 805.46 549.946 804.343 533.155 805.883 517.194 C 807.1 504.582 812.31 497.771 825.106 497.274 C 843.987 496.542 862.601 496.894 881.475 496.954 C 895.53 497.238 919.748 496.285 932.845 498.049 C 913.295 477.176 760.214 325.536 749.353 322.544 C 739.255 336.106 724.924 349.967 712.825 362.051 C 689.381 385.243 665.493 407.981 641.175 430.254 C 617.82 451.907 593.31 476.585 570.294 497.406 z"/>
</svg>