<svg version="1.1" xmlns="http://www.w3.org/2000/svg" style="display: block;" viewBox="0 0 2048 2048" width="512" height="512" preserveAspectRatio="none">
<path transform="translate(0,0)" fill="rgb(15,55,175)" d="M 381.633 992.177 C 381.54 991.344 381.461 990.51 381.396 989.675 C 380.688 981.036 381.18 965.761 381.2 956.501 L 381.125 901.396 L 381.111 714.554 L 381.152 427.111 C 381.202 385.613 381.029 343.939 380.892 302.434 C 381.179 297.264 380.839 291.315 385.05 287.508 C 398.486 274.87 410.131 272.707 422.708 287.628 C 474.205 348.723 526.46 410.024 578.323 470.766 L 657.876 563.026 C 720.179 634.276 728.591 624.697 657.968 690.342 C 674.189 704.112 741.697 768.183 743.596 788.66 C 745.001 803.807 676.798 869.962 661.019 882.378 L 730.448 950.112 C 742.146 961.6 764.875 983.126 773.915 995.796 C 848.241 953.181 889.931 1045.56 937.272 1040.78 C 984.788 1035.99 1046.03 941.405 1116.39 1002.26 C 1117.17 1020.58 1116.96 1035.94 1116.22 1054.29 C 1100.79 1048.05 1091.85 1036.74 1073.49 1032.89 C 1024.93 1022.71 997.754 1092.17 929.874 1087.97 C 876.2 1084.64 852.062 1037.45 817.193 1033.54 C 777.836 1029.13 693.821 1136.17 662.249 1161.67 C 661.933 1161.93 661.61 1162.18 661.291 1162.43 C 686.377 1189.77 714.313 1213.6 738.426 1241.42 C 755.964 1261.65 719.692 1289.17 706.128 1302.56 L 657.925 1350.49 C 658.639 1351.04 659.34 1351.6 660.03 1352.18 C 667.541 1358.42 676.555 1368.35 683.196 1375.72 C 697.336 1391.41 716.575 1405.27 698.058 1426.3 C 605.135 1531.81 515.599 1640.48 421.509 1744.92 C 406.747 1761.31 382.227 1748.5 381.681 1727.75 C 380.675 1700.59 381.079 1672.96 381.089 1645.59 L 381.101 1484.72 L 381.108 1196.33 C 381.107 1145.99 380.274 1093.56 381.276 1043.41 C 365.813 1040.24 301.627 1042.08 295.422 1032.92 C 258.561 978.496 354.918 991.421 381.633 992.177 z M 650.523 1409.88 C 640.152 1399.56 612.843 1373.77 605.853 1362.99 C 588.568 1333.99 668.242 1274.9 685.563 1254.13 C 664.506 1237.43 645.539 1212.97 625.641 1194.74 C 599.983 1171.24 595.8 1163.57 620.449 1135.29 C 631.615 1122.93 644.65 1111.19 656.713 1099.62 C 683.068 1074.35 708.303 1046.23 735.6 1022.05 C 697.713 987.858 664.883 948.319 625.635 915.873 C 594.154 889.848 602.037 870.758 629.328 846.994 C 649.042 828.409 667.958 807.295 688.835 789.398 C 669.963 768.711 603.941 708.805 604.679 683.628 C 605.041 671.307 617.859 659.643 626.528 652.064 C 635.37 644.333 644.735 637.192 654.041 630.034 C 629.934 600.039 602.29 568.428 577.261 538.89 L 464.244 405.815 C 457.372 397.844 435.552 371.34 428.849 366.502 C 427.246 382.756 428.213 413.519 428.223 430.86 L 428.27 552.939 L 428.276 946.637 L 428.275 1433.65 L 428.267 1588.13 C 428.259 1608.96 427.073 1647.17 428.486 1666.84 C 440.125 1651.87 453.459 1637.22 465.754 1622.63 C 496.956 1585.54 528.503 1548.74 560.39 1512.24 L 609.1 1455.63 C 621.709 1440.86 636.462 1422.84 650.523 1409.88 z"/>
<path transform="translate(0,0)" fill="rgb(252,100,0)" d="M 1116.39 1002.26 C 1117.2 986.103 1116.36 964.322 1116.37 947.563 L 1116.27 825.489 L 1116.27 478.667 L 1116.25 365.027 C 1116.25 344.831 1115.12 321.336 1117.12 301.492 C 1120.09 272.139 1146.75 270.84 1164.77 290.135 C 1169.24 309.967 1167.78 332.422 1167.56 352.933 C 1167.3 374.599 1167.17 396.266 1167.19 417.933 L 1167.23 693.206 L 1167.23 1375.18 L 1167.23 1623.33 C 1167.17 1654.06 1167.15 1684.79 1167.31 1715.53 C 1167.39 1729.81 1163.99 1749.45 1146.98 1752.18 C 1139.97 1753.25 1132.82 1751.44 1127.16 1747.16 C 1121.76 1743.08 1116.96 1735.26 1116.66 1728.73 C 1115.98 1713.55 1116.28 1696.95 1116.27 1681.72 L 1116.26 1583.05 L 1116.27 1220.43 L 1116.36 1107.59 C 1116.37 1095.62 1117.25 1064.91 1116.22 1054.29 C 1116.96 1035.94 1117.17 1020.58 1116.39 1002.26 z"/>
<path transform="translate(0,0)" fill="rgb(252,100,0)" d="M 1240.88 1416.83 C 1237.9 1421.59 1241.29 1603.95 1240.21 1625.66 C 1240.37 1657.85 1243.82 1690.05 1241.12 1722.18 C 1240.6 1733.62 1237.9 1747.22 1224.76 1750.95 C 1186.96 1761.67 1191.71 1712.92 1190.73 1692.22 C 1189.1 1657.4 1191.53 1624.54 1191.8 1590.77 L 1191.85 1433.89 L 1191.9 568.845 L 1191.93 383.229 C 1192 356.745 1191.58 330.233 1191.91 303.778 C 1192.14 285.847 1203.78 279.953 1218.71 275.734 C 1231.35 280.979 1239.49 287.441 1241.27 301.852 C 1243.85 322.725 1240.26 344.151 1240.17 365.152 C 1240.05 391.018 1240.13 416.898 1240.13 442.768 L 1240.16 603.792 C 1240.17 630.962 1241.16 664.295 1239.79 690.767 C 1239.21 707.25 1239.93 724.034 1239.9 740.555 C 1239.27 821.789 1242.04 907.306 1239.89 988.081 C 1239.42 1000.85 1238.2 1021.01 1240.06 1033.26 L 1240.19 1364.81 C 1239.55 1370.79 1238.92 1412.49 1240.88 1416.83 z"/>
<path transform="translate(0,0)" fill="rgb(254,162,97)" d="M 1239.79 690.767 L 1240.79 690.056 C 1280.01 661.794 1302.2 629.145 1355.01 633.789 C 1403.41 638.045 1438.99 705.468 1481.97 690.559 C 1525.96 675.301 1555.94 624.362 1611.88 633.644 C 1643.42 638.877 1658.29 655.072 1684.18 671.82 C 1689.04 676.922 1696.7 681.126 1701.83 684.767 C 1713.9 693.319 1747.88 694.765 1754.61 706.736 C 1766.86 729.291 1747.29 753.649 1721.33 747.221 C 1694.6 740.604 1669.21 724.392 1647.21 707.936 C 1620.36 685.852 1597.31 675.712 1565.61 698.856 C 1528.83 725.706 1508.79 752.247 1459.45 745.926 C 1416.39 740.409 1379.88 693.107 1346.44 687.121 C 1314.93 681.478 1278.3 737.684 1239.9 740.555 C 1239.93 724.034 1239.21 707.25 1239.79 690.767 z"/>
<path transform="translate(0,0)" fill="rgb(254,162,97)" d="M 1240.19 1364.81 C 1249.91 1359.74 1262.8 1348.5 1271.61 1341.81 C 1317.23 1307.14 1364.15 1312.79 1409.95 1342.96 C 1436.34 1360.36 1467.62 1383.34 1498.68 1364.53 C 1541.79 1340.32 1571.78 1304.75 1626.11 1321.47 C 1658.36 1331.4 1675.99 1351.06 1703.69 1366.87 C 1718.1 1375.09 1734.07 1368.48 1752.96 1382.83 C 1758.66 1400.99 1757.5 1418.1 1735.53 1424.55 C 1718.15 1429.65 1694.55 1418.23 1679.9 1409.64 C 1650.88 1393.77 1621.16 1359.32 1586.01 1368.59 C 1565.73 1373.93 1550.91 1387.97 1534.25 1399.82 C 1495.71 1427.23 1453.32 1425.41 1413.34 1402.46 C 1386.62 1387.12 1361.15 1359.64 1329.58 1367.9 C 1297.19 1376.37 1273.64 1409.79 1240.88 1416.83 C 1238.92 1412.49 1239.55 1370.79 1240.19 1364.81 z"/>
<path transform="translate(0,0)" fill="rgb(15,55,175)" d="M 1239.89 988.081 C 1291.65 987.801 1301.58 1027.33 1345.78 1039.7 C 1366.09 1045.38 1394.07 1021.85 1408.83 1010.03 C 1442.56 983.022 1483.88 981.08 1522.35 999.339 C 1549.83 1012.38 1575.53 1049.2 1608.36 1039.97 C 1629.55 1033.37 1645.7 1014.82 1662.99 1004.18 C 1691.31 986.743 1728.65 975.584 1755.46 1001.32 C 1762 1019.56 1757.53 1029.92 1740.34 1039.22 C 1711.27 1035.97 1696.67 1036.49 1672.4 1056.77 C 1641.79 1082.36 1627.49 1089.35 1587.86 1087.44 C 1543.73 1085.32 1508.06 1038.91 1478.28 1033.7 C 1442.95 1027.53 1412.87 1087.05 1360.15 1088.03 C 1303.56 1089.07 1304.13 1072.91 1259.25 1041.64 C 1254.18 1038.1 1246.14 1034.18 1240.06 1033.26 C 1238.2 1021.01 1239.42 1000.85 1239.89 988.081 z"/>
</svg>