<svg version="1.1" xmlns="http://www.w3.org/2000/svg" style="display: block;" viewBox="0 0 2048 2048" width="512" height="512" preserveAspectRatio="none">
<path transform="translate(0,0)" fill="rgb(248,147,25)" d="M 1053.36 996.232 C 1102.99 891.815 1140.92 767.354 1259.38 723.024 C 1264.1 721.553 1271.57 717.631 1276.11 716.567 C 1297.15 711.646 1334.17 696.312 1354.95 705 C 1374.96 715.957 1372.73 744.492 1348.3 748.446 C 1331.29 751.198 1314.84 752.439 1298.72 756.89 C 1188.75 787.252 1148.78 904.116 1105.65 995.422 C 1097.72 1012.01 1092.09 1025.01 1085.73 1042.26 C 1077.55 1064.89 1068.12 1087.43 1059.08 1109.62 C 1042.3 1150.83 1025.77 1192.11 1001.6 1229.48 C 945.887 1315.65 904.27 1227.79 879.009 1174.86 C 863.666 1142.71 852.711 1108.91 840.395 1075.47 C 837.446 1067.54 832.26 1049.78 828.515 1043.34 C 814.261 1044.52 789.318 1043.39 774.121 1043.3 L 682.826 1043.13 C 664.584 1043.11 643.907 1042.6 626.003 1043.55 C 624.574 1045.27 617.654 1060.53 616.162 1063.34 C 581.424 1128.74 553.066 1202.55 486.162 1242.22 C 450.101 1263.6 402.225 1275.44 360.343 1268.36 C 349.655 1266.55 340.024 1257.77 346.327 1247.05 C 357.901 1222.48 380.822 1227.68 402.711 1223.16 C 499.608 1203.17 536.995 1123.52 574.04 1043.21 C 583.753 1025.98 587.725 1015.39 594.675 997.015 C 610.358 963.172 623.991 928.5 638.758 894.266 C 653.947 859.053 678.709 799.588 717.012 785.157 C 727.253 781.299 738.186 782.383 747.956 787.102 C 799.176 811.847 844.676 942.503 862.443 995.966 L 975.639 995.675 C 989.581 995.516 1042.13 993.531 1053.36 996.232 z M 644.952 995.937 C 665.119 994.385 691.208 995.008 711.924 994.941 C 745.375 994.643 778.828 994.774 812.275 995.333 C 811.283 990.583 803.235 970.048 801.295 965.151 C 786.451 927.686 757.419 856.321 728.386 829.329 C 687.297 884.466 671.861 935.189 644.952 995.937 z M 954.736 1216.33 C 989.086 1155.43 1005.46 1105.65 1034.03 1043.39 C 985.339 1045.04 926.882 1040.51 878.628 1043.73 C 899.54 1096.89 922.337 1169.67 954.736 1216.33 z"/>
<path transform="translate(0,0)" fill="rgb(7,44,230)" d="M 644.952 995.937 C 665.119 994.385 691.208 995.008 711.924 994.941 C 745.375 994.643 778.828 994.774 812.275 995.333 C 820.355 1013.35 823.333 1024.67 828.515 1043.34 C 814.261 1044.52 789.318 1043.39 774.121 1043.3 L 682.826 1043.13 C 664.584 1043.11 643.907 1042.6 626.003 1043.55 C 632.929 1026.76 636.772 1013.82 644.952 995.937 z"/>
<path transform="translate(0,0)" fill="rgb(7,44,230)" d="M 862.443 995.966 L 975.639 995.675 C 989.581 995.516 1042.13 993.531 1053.36 996.232 C 1047.28 1014.78 1043.17 1025.7 1034.03 1043.39 C 985.339 1045.04 926.882 1040.51 878.628 1043.73 C 872.548 1027.14 867.605 1012.89 862.443 995.966 z"/>
<path transform="translate(0,0)" fill="rgb(7,44,230)" d="M 1784.88 995.937 C 1761.74 975.326 1740.86 952.906 1719.41 930.587 C 1708.68 919.427 1698.74 904.969 1711.48 890.546 C 1715.03 886.5 1720.09 884.095 1725.47 883.899 C 1737.66 883.342 1749.26 892.543 1757.42 901.119 C 1790.55 935.968 1825.61 969.595 1857.72 1005.29 C 1860.58 1008.47 1862.76 1017.48 1862.94 1021.72 C 1863.22 1026.97 1860.1 1032.76 1857.05 1036.86 C 1844.58 1053.66 1828.56 1067.74 1814.28 1083 C 1808.44 1089.23 1802.4 1095.46 1796.48 1101.6 C 1790.89 1107.4 1785.36 1114.6 1779.46 1119.93 C 1763.32 1134.54 1747.86 1152.87 1727.16 1160.62 C 1715.8 1156.01 1711.25 1153.72 1706.28 1141.64 C 1706 1140.96 1705.73 1140.27 1705.47 1139.58 C 1712.77 1107.59 1738.84 1085.94 1762.04 1064.49 C 1769.16 1057.9 1780.27 1047.38 1787.78 1041.86 C 1777.76 1043.67 1764.02 1043.03 1753.56 1043.04 L 1701.37 1043.12 L 1499.93 1043.2 L 1188.6 1043.16 C 1170.42 1043.15 1097.72 1045.46 1085.73 1042.26 C 1092.09 1025.01 1097.72 1012.01 1105.65 995.422 C 1125.11 996.643 1152.32 995.849 1172.37 995.821 L 1287.49 995.787 L 1615.2 995.783 C 1671.12 995.78 1729.37 994.373 1784.88 995.937 z"/>
<path transform="translate(0,0)" fill="rgb(188,214,252)" d="M 232.529 1043.09 L 280.038 1043.14 L 280.177 1268.98 L 280.163 1327.65 C 280.161 1331.95 279.414 1348.09 281.095 1350.6 C 283.715 1351.47 285.375 1351 288.108 1350.65 C 299.755 1349.92 324.801 1342.23 331.045 1356.96 C 334.877 1369.45 329.349 1385.89 323.741 1397.4 C 310.994 1424.18 294.23 1449.14 275.979 1472.49 C 247.614 1508.78 222.305 1442 209.409 1423.33 C 197.706 1406.38 185.704 1388.5 181.066 1367.76 C 192.782 1333.45 211.169 1352.96 230.883 1350.3 C 234.106 1342.59 232.345 1273.61 232.302 1261.01 L 232.255 1128.5 C 232.176 1102.12 231.214 1069.11 232.529 1043.09 z"/>
<path transform="translate(0,0)" fill="rgb(125,176,253)" d="M 181.066 1367.76 C 192.782 1333.45 211.169 1352.96 230.883 1350.3 C 225.201 1374.29 247.861 1394.91 257.856 1415.12 C 264.123 1400.61 292.949 1359.72 294.744 1351.76 L 288.108 1350.65 C 299.755 1349.92 324.801 1342.23 331.045 1356.96 C 334.877 1369.45 329.349 1385.89 323.741 1397.4 C 310.994 1424.18 294.23 1449.14 275.979 1472.49 C 247.614 1508.78 222.305 1442 209.409 1423.33 C 197.706 1406.38 185.704 1388.5 181.066 1367.76 z"/>
<path transform="translate(0,0)" fill="rgb(7,44,230)" d="M 232.329 995.752 C 248.247 996.113 264.171 996.097 280.088 995.706 C 305.821 996.638 336.879 995.783 362.985 995.772 L 521.624 995.824 C 537.063 995.831 583.4 993.138 594.675 997.015 C 587.725 1015.39 583.753 1025.98 574.04 1043.21 C 564.388 1044.03 548.983 1043.43 538.975 1043.35 L 482.46 1043.2 L 280.038 1043.14 L 232.529 1043.09 C 219.187 1043.04 196.204 1043.15 185.844 1033.33 C 182.475 1030.12 180.536 1025.7 180.464 1021.05 C 180.042 992.449 213.686 995.667 232.329 995.752 z"/>
<path transform="translate(0,0)" fill="rgb(188,214,252)" d="M 233.336 663.63 C 239.428 655.151 252.766 634.756 258.169 626.077 C 267.025 639.212 272.783 652.28 279.715 662.76 C 280.815 678.379 280.084 702.266 280.064 718.449 L 280.019 821.717 L 280.168 937.266 C 280.192 954.446 281.025 979.278 280.088 995.706 C 264.171 996.097 248.247 996.113 232.329 995.752 C 231.277 975.332 232.232 947.734 232.245 926.686 L 232.296 789.44 L 232.326 715.397 C 232.285 705.726 231.26 671.139 233.336 663.63 z"/>
<path transform="translate(0,0)" fill="rgb(125,176,253)" d="M 233.336 663.63 C 230.452 666.047 226.222 670.814 223.376 673.44 C 209.092 686.626 190.716 694.681 181.597 671.292 C 178.054 662.207 181.901 652.544 186.401 644.368 C 197.342 624.489 211.614 608.446 223.919 588.968 C 229.498 580.137 243.706 560.798 255.926 561.145 C 272.012 563.69 289.517 588.267 299.072 599.902 C 314.147 618.259 361.685 678.816 311.914 685.28 C 300.248 686.795 287.196 670.038 279.715 662.76 C 272.783 652.28 267.025 639.212 258.169 626.077 C 252.766 634.756 239.428 655.151 233.336 663.63 z"/>
</svg>