<svg version="1.1" xmlns="http://www.w3.org/2000/svg" style="display: block;" viewBox="0 0 2048 2048" width="512" height="512" preserveAspectRatio="none">
<path transform="translate(0,0)" fill="rgb(0,21,147)" d="M 288.936 470.03 C 284.991 439.998 285.779 411.649 323.472 408.479 C 365.578 404.938 407.592 406.531 449.668 409.538 C 667.586 426.915 875.292 509.218 1045.97 645.819 C 1295.5 841.358 1456.98 1128.16 1494.75 1442.92 C 1497.54 1466.14 1500.65 1509.3 1499.01 1532.82 L 1651.72 1532.88 C 1689.43 1532.77 1763.9 1519.87 1763.41 1576.27 C 1763.19 1601.58 1743.69 1612.66 1721.52 1615.45 C 1685.26 1620.03 1650.4 1616.57 1614.07 1616.85 C 1568.52 1615.96 1520.26 1618.77 1475.08 1615.92 C 1461.68 1619.12 1452.45 1621.59 1439.23 1615.88 C 1416.75 1597.3 1410.12 1591.38 1416.48 1560.31 C 1415.36 1552.91 1414.92 1543.54 1414.59 1535.97 C 1412.24 1520.72 1411.64 1495.8 1410.14 1479.19 C 1406.94 1444.03 1402.17 1409.04 1395.82 1374.32 C 1357.34 1166.24 1258.78 973.98 1112.31 821.257 C 938.496 641.502 696.356 510.887 444.545 492.462 C 419.287 490.614 393.725 490.365 368.403 489.929 C 330.373 490.744 319.176 498.113 288.936 470.03 z"/>
<path transform="translate(0,0)" fill="rgb(79,32,0)" d="M 1416.48 1560.31 C 1426.21 1538.44 1450.94 1528.32 1472.98 1538.42 C 1483.78 1543.26 1492.1 1552.35 1495.95 1563.54 C 1507.47 1597.69 1477.28 1607.84 1475.08 1615.92 C 1461.68 1619.12 1452.45 1621.59 1439.23 1615.88 C 1416.75 1597.3 1410.12 1591.38 1416.48 1560.31 z"/>
<path transform="translate(0,0)" fill="rgb(71,112,203)" d="M 288.936 470.03 C 319.176 498.113 330.373 490.744 368.403 489.929 C 371.118 497.817 370.001 532.045 369.998 541.805 L 369.954 627.654 L 369.959 895.31 L 369.972 1183.85 L 370.071 1277.8 C 370.087 1298.52 374.116 1347.88 359.324 1362.75 C 336.112 1386.07 291.608 1375.54 289.658 1337.5 C 287.967 1304.5 288.606 1271.51 288.656 1238.27 L 288.691 1061.13 L 288.936 470.03 z"/>
<path transform="translate(0,0)" fill="rgb(71,112,203)" d="M 1439.23 1615.88 C 1437.16 1616.33 1435.08 1616.7 1432.98 1616.97 C 1424.52 1617.99 1408.37 1617.64 1399.33 1617.64 L 1345.24 1617.6 L 1170.67 1617.78 L 926.666 1617.73 L 854.092 1617.85 C 832.65 1617.93 796.366 1621.45 778.354 1606.92 C 770.54 1600.62 765.966 1584.33 765.671 1574.5 C 764.848 1547.09 788.081 1537.32 811.428 1535.47 C 835.854 1533.49 860.582 1535.08 885.299 1535.12 L 1029.22 1535.3 C 1157.22 1535.85 1286.93 1534.36 1414.59 1535.97 C 1414.92 1543.54 1415.36 1552.91 1416.48 1560.31 C 1410.12 1591.38 1416.75 1597.3 1439.23 1615.88 z"/>
<path transform="translate(0,0)" fill="rgb(71,112,203)" d="M 613.261 1535.31 C 630.429 1535.69 645.259 1536.03 659.648 1546.83 C 678.008 1560.53 677.971 1586.26 664.243 1603.29 C 655.451 1614.19 645.988 1617.79 632.591 1619.18 C 544.241 1620.78 556.228 1542.12 613.261 1535.31 z"/>
<path transform="translate(0,0)" fill="rgb(236,133,6)" d="M 1616.12 1309.2 C 1640.78 1305.85 1663.47 1323.18 1666.73 1347.86 C 1669.98 1372.54 1652.57 1395.16 1627.88 1398.33 C 1603.32 1401.47 1580.83 1384.17 1577.6 1359.62 C 1574.36 1335.07 1591.58 1312.53 1616.12 1309.2 z"/>
<path transform="translate(0,0)" fill="rgb(236,133,6)" d="M 1537.52 1075.4 C 1561.84 1073.08 1583.47 1090.84 1585.93 1115.14 C 1588.4 1139.45 1570.78 1161.18 1546.49 1163.8 C 1521.99 1166.43 1500.02 1148.62 1497.54 1124.11 C 1495.05 1099.59 1512.99 1077.74 1537.52 1075.4 z"/>
<path transform="translate(0,0)" fill="rgb(236,133,6)" d="M 1431.02 858.513 C 1446.7 855.696 1462.69 861.538 1472.86 873.803 C 1483.03 886.067 1485.81 902.856 1480.14 917.746 C 1474.47 932.635 1461.22 943.32 1445.47 945.712 C 1421.57 949.341 1399.19 933.091 1395.23 909.24 C 1391.28 885.388 1407.23 862.787 1431.02 858.513 z"/>
<path transform="translate(0,0)" fill="rgb(236,133,6)" d="M 1097.31 485.207 C 1121.21 482.507 1142.8 499.636 1145.6 523.525 C 1148.4 547.413 1131.37 569.073 1107.49 571.98 C 1083.47 574.904 1061.65 557.741 1058.83 533.706 C 1056.01 509.671 1073.26 487.923 1097.31 485.207 z"/>
<path transform="translate(0,0)" fill="rgb(236,133,6)" d="M 1273.15 661.347 C 1296.72 657.43 1319 673.338 1322.96 696.897 C 1326.91 720.457 1311.03 742.766 1287.48 746.752 C 1263.88 750.747 1241.51 734.831 1237.55 711.223 C 1233.59 687.615 1249.54 665.273 1273.15 661.347 z"/>
</svg>