<svg version="1.1" xmlns="http://www.w3.org/2000/svg" style="display: block;" viewBox="0 0 2048 2048" width="512" height="512" preserveAspectRatio="none">
<path transform="translate(0,0)" fill="rgb(33,66,187)" d="M 917.96 959.505 C 911.073 949.892 878.439 926.034 867.05 916.298 C 848.897 900.78 831.654 884.203 814.272 867.834 C 798.199 852.698 783.156 836.417 768.236 820.152 C 672.385 715.659 595.439 586.775 580.464 443.402 C 575.693 397.726 577.33 282.694 606.815 247.728 C 617.589 234.951 633.28 227.681 649.808 226.253 C 665.705 224.975 681.457 230.081 693.58 240.444 C 734.03 274.655 697.524 354.476 701.812 404.604 L 1347.48 403.858 C 1351.03 352.029 1298.61 224.473 1399.14 226.984 C 1439.64 227.995 1454.7 264.405 1459.87 298.113 C 1463.27 320.3 1469.25 344.135 1469.73 367.099 C 1486.62 568.481 1363.73 745.4 1225.14 878.679 C 1219.13 884.463 1207.29 893.893 1202.42 900.154 C 1221.28 917.735 1230.53 933.219 1232.16 959.564 C 1233.28 977.54 1226.66 998.398 1213.55 1010.82 C 1193.81 1029.53 1164.84 1052.43 1142.24 1067.36 C 1136.87 1072.22 1133.45 1074.39 1127.34 1078.3 C 1158.75 1099.82 1197.52 1133.93 1225.92 1159.81 C 1339.1 1262.93 1434.69 1392.15 1462.77 1545.88 C 1474.18 1608.31 1479.73 1723.61 1444.4 1780.68 C 1436.34 1793.71 1418.42 1803.71 1403.31 1806.04 C 1387.15 1808.53 1372.88 1805.69 1359.32 1796.04 C 1347.46 1787.6 1336.83 1772.3 1335.07 1757.83 C 1332.82 1739.29 1341.15 1716.69 1343.42 1697.98 C 1345.72 1679.06 1345.71 1660.79 1346.22 1641.87 C 1219.51 1639.92 1088.33 1641.52 961.29 1641.52 L 798.427 1641.52 C 767.199 1641.52 732.53 1640.86 701.493 1642.19 C 701.427 1679.33 706.912 1711.61 711.139 1747.73 C 716.545 1793.92 650.9 1831.28 616.897 1795.69 C 583.899 1761.14 579.497 1700.85 577.874 1655.77 C 572.034 1493.58 650.286 1345.84 756.686 1228.4 C 774.097 1209.02 792.292 1189.43 810.283 1170.49 C 819.391 1160.9 833.032 1150.86 841.381 1141.87 L 842.705 1140.43 C 828.431 1120.22 814.658 1101.04 815.941 1074.86 C 818.558 1021.44 882.899 991.974 916.733 960.652 L 917.96 959.505 z M 725.996 1516.02 C 718.323 1534.28 713.757 1548.25 710.168 1568.17 C 708.507 1577.39 707.35 1588.37 705.484 1597.2 L 1131.95 1597.23 L 1268.91 1597.22 C 1291.68 1597.22 1320.91 1596.42 1343.27 1597.61 C 1343.24 1588.1 1328.42 1522.66 1323.25 1515.9 C 1303.96 1516.62 1281.79 1515.91 1262.25 1515.89 L 1144.4 1515.86 L 725.996 1516.02 z M 726.748 527.967 C 773.389 528.441 820.545 527.869 867.246 527.85 L 1145.61 527.849 L 1254.11 527.747 C 1275.45 527.591 1302.44 526.319 1323.12 527.89 C 1325.82 518.744 1327.38 508.751 1329.81 499.494 C 1334.38 482.086 1338.76 464.775 1342.97 447.273 C 1328.38 447.677 1310.9 447.128 1295.97 447.124 L 1190.22 447.112 L 868.394 447.11 L 769.425 447.084 C 750.233 447.079 728.74 446.634 709.699 447.511 L 707.07 448.287 C 705.794 460.295 722.235 514.159 726.748 527.967 z M 1116.88 1034.85 C 1139.83 1015.79 1169.81 1000.53 1186.39 974.909 C 1200.38 953.282 1184.56 940.378 1166.53 930.652 C 959.881 1104.11 645.674 1301.52 620.133 1596.54 C 616.84 1634.57 616.733 1733.61 640.213 1762.19 C 643.128 1765.74 646.612 1768.46 651.264 1769.04 C 656.049 1769.64 662.16 1766.53 665.597 1763.41 C 669.198 1760.15 670.445 1755.24 670.481 1750.54 C 670.578 1737.96 666.525 1724.3 664.76 1711.79 C 661.153 1687.45 659.515 1662.86 659.862 1638.26 C 660.521 1583.51 675.64 1522.91 696.375 1472.47 C 761.633 1313.73 896.838 1205.04 1028.69 1103.11 L 1087.62 1057.61 C 1095.37 1051.62 1110.09 1040.96 1116.88 1034.85 z M 944.867 993.021 L 944.074 993.76 C 923.42 1012.65 858.219 1050.04 856.574 1076.97 C 856.086 1084.96 859.346 1092.59 864.689 1098.43 C 868.558 1102.66 873.605 1105.33 877.882 1109.06 C 922.103 1075.19 965.394 1038.81 1009.33 1004.32 C 1217.4 841.007 1459.91 639.914 1425.14 345.146 C 1422.61 323.681 1420.98 284.406 1404.19 269.179 C 1392.3 258.393 1380.86 273.051 1375.15 282.361 C 1376.35 299.157 1381.73 316.998 1383.94 333.661 C 1389.54 375.997 1390.16 424.043 1383.2 466.169 C 1351.93 655.325 1198.24 791.571 1056.2 905.154 C 1032.52 924.122 1008.7 942.906 984.738 961.505 C 971.82 971.698 958.093 983.528 944.867 993.021 z M 944.068 1224.23 C 981.824 1224.74 1019.58 1224.88 1057.34 1224.67 C 1071.88 1224.64 1093.4 1223.79 1107.14 1224.45 C 1105.28 1216.73 1035.67 1168.15 1024.39 1157.7 C 1014.06 1166.91 946.109 1218.17 944.068 1224.23 z M 1024.18 881.042 C 1047.25 860.553 1073.87 841.495 1096.04 821.218 C 1088.4 822.499 1073.62 821.881 1065.46 821.815 C 1048.56 821.639 1031.66 821.548 1014.76 821.544 C 1002.86 821.552 958.666 822.687 949.614 821.613 C 953.544 826.018 962.693 832.754 967.547 836.845 C 985.839 852.262 1005.12 866.58 1024.18 881.042 z M 1145.29 777.643 C 1162.57 766.09 1207.04 714.845 1221.26 697.897 C 1196.28 698.776 1166.94 697.993 1141.54 697.975 L 988.52 697.916 L 883.662 698.005 C 867.382 698.043 841.19 698.861 825.716 697.719 C 833.935 711.303 887.968 770.412 900.619 776.846 L 1057.32 777.298 L 1114.4 777.288 C 1122.93 777.287 1137.09 776.944 1145.29 777.643 z M 1058.78 1132.25 C 1097.98 1157.53 1128.53 1187.46 1163.32 1217.65 C 1300.73 1336.89 1408.43 1510.81 1385.03 1699.17 C 1382.94 1716 1376.25 1732.83 1375.49 1749.77 C 1375.29 1754.82 1380.75 1761.3 1384.54 1764.34 C 1402.46 1771.71 1413.95 1755.48 1418.19 1739.74 C 1438.83 1663.13 1431.58 1576.36 1409.12 1500.81 C 1363.2 1352.81 1255.85 1233.7 1138.02 1137.63 C 1134.75 1134.97 1096.84 1103.89 1096.97 1103.93 C 1085.51 1112.69 1070.61 1124.53 1058.78 1132.25 z M 955.051 934.21 C 957.87 931.958 961.572 929.172 964.139 926.742 C 972.729 919.62 981.493 913.269 990.332 906.494 C 960.768 887.786 928.807 861.233 902.59 838.089 C 762.481 714.4 641.322 535.761 662.99 340.466 C 665.456 318.233 688.472 268.809 653.222 265.241 C 641.411 268.354 635.987 276.22 633.05 287.899 C 577.19 509.982 711.966 724.69 871.416 867.025 C 886.944 880.934 903.043 894.192 919.673 906.763 C 929.355 914.098 947.211 926.386 955.051 934.21 z M 1253.98 652.958 C 1261.75 647.778 1301.1 580.87 1301.35 572.911 L 1298.22 572.552 C 1284.62 573.322 1267.51 572.273 1253.42 572.064 C 1231.53 571.849 1209.63 571.782 1187.74 571.861 L 893.147 571.618 L 801.061 571.628 C 783.601 571.634 762.347 571.168 745.159 572.185 C 751.185 589.003 781.381 638.395 792.276 652.906 L 1083.5 652.913 C 1138.86 652.836 1198.83 651.578 1253.98 652.958 z M 1157.39 1269.24 C 1145.87 1270.8 1126.06 1270.21 1114 1270.11 C 1092.97 1269.91 1071.94 1269.83 1050.9 1269.88 L 947.815 1269.99 C 931.989 1270.01 909.242 1270.76 894.063 1269.82 C 877.548 1279.26 834.047 1328.66 825.219 1345.07 C 852.552 1344.33 882.936 1345.23 910.626 1345.24 L 1088.82 1345.3 L 1178.05 1345.6 C 1189.07 1345.56 1219.67 1344.69 1228.83 1345.98 C 1221.15 1332.36 1170.9 1280.94 1157.39 1269.24 z M 1261.29 1390.15 C 1244.16 1392.04 1214.59 1390.8 1196.27 1390.64 L 1096.42 1390.51 L 896 1390.57 C 861.204 1390.66 824.412 1391.69 789.711 1391 C 781.379 1396.47 746.646 1460.49 743.892 1471.74 L 1306.33 1471.89 C 1297.44 1448.35 1274.44 1411.83 1261.29 1390.15 z"/>
<path transform="translate(0,0)" fill="rgb(238,111,4)" d="M 705.484 1597.2 L 1131.95 1597.23 L 1268.91 1597.22 C 1291.68 1597.22 1320.91 1596.42 1343.27 1597.61 C 1345.28 1613.95 1346.06 1625.12 1346.22 1641.87 C 1219.51 1639.92 1088.33 1641.52 961.29 1641.52 L 798.427 1641.52 C 767.199 1641.52 732.53 1640.86 701.493 1642.19 C 700.161 1631.29 703.012 1607.96 705.484 1597.2 z"/>
<path transform="translate(0,0)" fill="rgb(238,111,4)" d="M 701.812 404.604 L 1347.48 403.858 C 1346.84 417.012 1346.44 434.854 1342.97 447.273 C 1328.38 447.677 1310.9 447.128 1295.97 447.124 L 1190.22 447.112 L 868.394 447.11 L 769.425 447.084 C 750.233 447.079 728.74 446.634 709.699 447.511 C 708.502 447.459 707.968 447.105 706.771 446.666 C 702.525 440.05 701.413 412.554 701.812 404.604 z"/>
<path transform="translate(0,0)" fill="rgb(244,160,76)" d="M 743.892 1471.74 L 1306.33 1471.89 C 1311.08 1481.65 1322.95 1506.21 1323.25 1515.9 C 1303.96 1516.62 1281.79 1515.91 1262.25 1515.89 L 1144.4 1515.86 L 725.996 1516.02 C 726.581 1503.82 737.603 1482.17 743.892 1471.74 z"/>
<path transform="translate(0,0)" fill="rgb(244,160,76)" d="M 726.748 527.967 C 773.389 528.441 820.545 527.869 867.246 527.85 L 1145.61 527.849 L 1254.11 527.747 C 1275.45 527.591 1302.44 526.319 1323.12 527.89 C 1321.05 537.814 1309.04 563.822 1301.98 571.329 C 1300.76 571.729 1299.44 572.192 1298.22 572.552 C 1284.62 573.322 1267.51 572.273 1253.42 572.064 C 1231.53 571.849 1209.63 571.782 1187.74 571.861 L 893.147 571.618 L 801.061 571.628 C 783.601 571.634 762.347 571.168 745.159 572.185 C 736.233 556.613 731.925 545.176 726.748 527.967 z"/>
<path transform="translate(0,0)" fill="rgb(244,160,76)" d="M 825.219 1345.07 C 852.552 1344.33 882.936 1345.23 910.626 1345.24 L 1088.82 1345.3 L 1178.05 1345.6 C 1189.07 1345.56 1219.67 1344.69 1228.83 1345.98 C 1239.96 1357.28 1253.53 1375.89 1261.29 1390.15 C 1244.16 1392.04 1214.59 1390.8 1196.27 1390.64 L 1096.42 1390.51 L 896 1390.57 C 861.204 1390.66 824.412 1391.69 789.711 1391 C 790.888 1379.86 816.529 1353.52 825.219 1345.07 z"/>
<path transform="translate(0,0)" fill="rgb(244,160,76)" d="M 792.276 652.906 L 1083.5 652.913 C 1138.86 652.836 1198.83 651.578 1253.98 652.958 C 1250.78 661.947 1228.61 690.995 1221.26 697.897 C 1196.28 698.776 1166.94 697.993 1141.54 697.975 L 988.52 697.916 L 883.662 698.005 C 867.382 698.043 841.19 698.861 825.716 697.719 C 815.89 688.088 799.627 665.361 792.276 652.906 z"/>
<path transform="translate(0,0)" fill="rgb(244,160,76)" d="M 944.068 1224.23 C 981.824 1224.74 1019.58 1224.88 1057.34 1224.67 C 1071.88 1224.64 1093.4 1223.79 1107.14 1224.45 C 1120.51 1231.32 1149.95 1257.06 1157.39 1269.24 C 1145.87 1270.8 1126.06 1270.21 1114 1270.11 C 1092.97 1269.91 1071.94 1269.83 1050.9 1269.88 L 947.815 1269.99 C 931.989 1270.01 909.242 1270.76 894.063 1269.82 C 900.593 1259.19 932.233 1230.57 944.068 1224.23 z"/>
<path transform="translate(0,0)" fill="rgb(244,160,76)" d="M 900.619 776.846 L 1057.32 777.298 L 1114.4 777.288 C 1122.93 777.287 1137.09 776.944 1145.29 777.643 C 1135.52 788.559 1108.14 814.314 1096.04 821.218 C 1088.4 822.499 1073.62 821.881 1065.46 821.815 C 1048.56 821.639 1031.66 821.548 1014.76 821.544 C 1002.86 821.552 958.666 822.687 949.614 821.613 C 938.032 814.383 908.139 787.827 900.619 776.846 z"/>
<path transform="translate(0,0)" fill="rgb(238,111,4)" d="M 917.96 959.505 C 927.71 968.274 937.674 981.832 944.867 993.021 L 944.074 993.76 C 923.42 1012.65 858.219 1050.04 856.574 1076.97 C 856.086 1084.96 859.346 1092.59 864.689 1098.43 C 868.558 1102.66 873.605 1105.33 877.882 1109.06 C 868.046 1119.61 854.346 1131.57 842.705 1140.43 C 828.431 1120.22 814.658 1101.04 815.941 1074.86 C 818.558 1021.44 882.899 991.974 916.733 960.652 L 917.96 959.505 z"/>
<path transform="translate(0,0)" fill="rgb(238,111,4)" d="M 1202.42 900.154 C 1221.28 917.735 1230.53 933.219 1232.16 959.564 C 1233.28 977.54 1226.66 998.398 1213.55 1010.82 C 1193.81 1029.53 1164.84 1052.43 1142.24 1067.36 C 1133.74 1056.85 1126.55 1044.58 1116.88 1034.85 C 1139.83 1015.79 1169.81 1000.53 1186.39 974.909 C 1200.38 953.282 1184.56 940.378 1166.53 930.652 C 1178.46 919.059 1188.77 909.746 1202.42 900.154 z"/>
</svg>