<svg version="1.1" xmlns="http://www.w3.org/2000/svg" style="display: block;" viewBox="0 0 2048 2048" width="512" height="512" preserveAspectRatio="none">
<path transform="translate(0,0)" fill="rgb(19,71,177)" d="M 401.219 1560.17 C 399.942 1545.42 400.723 1519.6 400.749 1503.87 L 400.8 1405.36 L 400.794 1082.64 L 400.795 520.304 L 400.749 335.219 C 400.734 301.894 400.602 268.452 400.877 235.15 C 400.951 226.224 401.129 215.158 407.342 208.493 C 412.454 202.796 420.237 199.194 428.05 199.193 C 448.317 199.191 457.526 212.75 457.859 231.619 C 458.176 249.543 457.939 266.71 457.937 284.257 L 457.93 389.607 L 457.925 715.762 L 457.925 1231.4 C 457.927 1320.56 459.345 1413.36 457.699 1502.17 C 454.845 1512.44 456.019 1547.55 456.146 1560.2 C 475.154 1560.04 565.306 1562.44 575.948 1559.24 C 582.687 1559.88 606.445 1559.08 614.496 1559.16 C 649.36 1559.72 684.23 1559.91 719.098 1559.71 L 1018.86 1559.71 L 1499.46 1559.72 C 1593.71 1559.72 1688.17 1561.04 1782.34 1558.47 C 1795.57 1558.19 1808.39 1558.4 1820.04 1565.42 C 1840.71 1577.86 1830.36 1604.47 1811.16 1611.93 C 1801.63 1615.63 1793.17 1616.01 1783.06 1616.36 C 1760.15 1617.14 1737.23 1615.28 1714.31 1615.21 L 1550.04 1615.22 L 1017.28 1615.23 L 640.055 1615.23 L 520.568 1615.25 C 502.298 1615.28 474.923 1616.29 457.758 1614.96 L 457.979 1737.33 C 458 1761.84 459.132 1787.17 456.139 1811.43 C 454.51 1824.64 440.567 1834.57 427.707 1834.22 C 420.789 1833.97 414.248 1831.01 409.499 1825.97 C 396.048 1811.74 400.683 1755.42 400.731 1734.42 C 400.579 1694.66 400.663 1654.89 400.984 1615.13 L 295.854 1615.3 C 274.922 1615.46 249.953 1617.07 229.754 1614.52 C 200.298 1610.79 198.692 1562.41 234.507 1560.87 C 258.104 1559.84 280.451 1559.29 304.078 1559.68 C 336.348 1560.22 369.076 1558.81 401.219 1560.17 z"/>
<path transform="translate(0,0)" fill="rgb(233,100,3)" d="M 524.942 1508.1 C 557.586 1500.54 586.342 1495.21 618.803 1484.09 C 764.667 1434.1 899.597 1325.16 981.85 1195.1 C 1052.63 1083.19 1086.78 950.574 1094.59 819.354 C 1097.21 775.361 1094.75 734.005 1099.93 690.345 C 1117.22 553.295 1174.64 424.418 1264.99 319.923 C 1292.59 287.85 1327.52 254.992 1359.12 227.051 C 1375.62 212.469 1405.76 184.553 1426.56 204.305 C 1453.65 230.025 1419.37 250.114 1401.63 264.133 C 1391.33 272.284 1381.35 280.824 1371.71 289.737 C 1308.72 348.331 1241.16 427.191 1207.14 506.547 C 1221.58 515.334 1249.82 554.455 1261.77 568.091 C 1271 578.632 1281.49 589.422 1291.1 599.703 C 1298.26 607.359 1305.57 616.487 1312.61 623.664 C 1364.61 676.719 1437.4 739.44 1512.44 753.718 C 1535.53 758.113 1582.32 756.775 1607.31 756.734 L 1747.53 756.717 C 1769.83 756.665 1794.31 753.918 1815.88 759.586 C 1839.1 765.687 1836.36 805.977 1811.91 809.703 C 1798.24 811.705 1783.36 811.008 1769.53 810.973 L 1696.43 810.718 L 1587.48 810.649 C 1556.7 810.708 1522.54 812.861 1492.33 806.4 C 1455.02 798.419 1418.24 778.322 1385.99 758.282 C 1327.58 720.241 1278.36 668.413 1232.19 616.754 C 1216.49 599.184 1201.24 576.798 1186.24 560.137 C 1173.8 599.411 1160.85 641.162 1157.08 682.345 C 1150.58 753.237 1152.21 822.861 1144.07 893.826 C 1136.3 957.67 1121.15 1020.4 1098.95 1080.76 C 1028.94 1269.97 899.042 1411.6 720.579 1504.03 C 692.647 1518.57 663.553 1530.76 633.598 1540.47 C 623.572 1543.75 582.132 1555.86 575.948 1559.24 C 565.306 1562.44 475.154 1560.04 456.146 1560.2 C 456.019 1547.55 454.845 1512.44 457.699 1502.17 L 458.701 1501.02 C 467.331 1490.96 480.285 1470.71 487.976 1459.27 C 542.065 1378.8 579.011 1287.41 604.182 1194.06 C 613.914 1157.98 622.875 1125.34 627.891 1088.01 C 630.574 1068.05 631.294 1019.61 653.535 1013.02 C 654.841 1012.63 656.181 1012.37 657.537 1012.24 C 671.761 1010.85 688.384 1024.33 688.818 1038.93 C 688.984 1044.51 687.828 1050.32 687.625 1055.9 C 686.711 1076.52 684.434 1095.01 681.065 1115.38 C 660.729 1238.33 613.582 1358.35 551.847 1466.32 C 543.559 1480.82 533.929 1494.26 524.942 1508.1 z"/>
</svg>