<svg version="1.1" xmlns="http://www.w3.org/2000/svg" style="display: block;" viewBox="0 0 2048 2048" width="512" height="512" preserveAspectRatio="none">
<path transform="translate(0,0)" fill="rgb(6,40,154)" d="M 1125.65 452.119 C 1010.12 442.008 1023.74 277.933 1138.38 285.255 C 1153.86 286.243 1174.77 285.784 1190.61 285.807 L 1337.93 285.848 L 1523.9 285.806 L 1581.4 285.798 C 1616.68 285.821 1650.65 284.477 1674.42 315.495 C 1689.04 334.559 1693.88 357.748 1690.87 381.353 C 1688.31 402.598 1677.33 421.925 1660.39 435.001 C 1646.38 445.656 1630.93 450.817 1613.45 451.975 C 1614.12 470.424 1613.38 491.84 1613.54 510.76 L 1613.82 687.551 L 1613.82 1143.49 L 1613.83 1389.93 C 1613.83 1442 1616.71 1502.21 1608.47 1553.22 C 1590.78 1662.7 1487.81 1743.69 1380.15 1749 C 1314.52 1751.85 1250.4 1728.74 1201.68 1684.67 C 1121.99 1611.89 1126.1 1503.37 1126.12 1405.17 L 1126.16 1244.68 L 1126.15 718.518 L 1126.13 544.315 C 1126.1 516.803 1127.04 480.29 1125.74 453.759 L 1125.65 452.119 z M 1570.65 832.962 C 1568.19 784.578 1573.41 461.295 1568.79 453.108 L 1565.63 452.267 C 1519.71 453.894 1463.67 452.437 1416.97 452.445 L 1169.4 452.253 C 1167.85 459.659 1168.26 483.46 1168.26 492.007 L 1168.28 562.593 L 1168.21 833.067 C 1289.29 881.67 1449.9 883.37 1570.65 832.962 z M 1604.64 412.565 C 1619.39 411.501 1631.87 408.167 1641.08 396.376 C 1667.05 363.119 1648.06 326.326 1607.12 325.284 C 1573.44 324.426 1541.74 324.98 1509 324.995 L 1315.15 325.021 L 1192.15 324.909 C 1178.96 324.889 1145.64 323.325 1133.73 325.411 C 1123.83 326.413 1119.44 326.943 1110.06 330.205 C 1071.53 343.595 1080.82 403.54 1118 410.01 C 1143.22 414.399 1173.19 412.795 1198.93 412.795 L 1318.41 412.788 L 1504.51 412.752 C 1537.06 412.751 1572.33 413.476 1604.64 412.565 z M 1526.99 1631.39 C 1567.54 1573.22 1570.15 1532.77 1570.22 1465.09 L 1570.2 1388.16 L 1570.19 1039.35 L 1570.17 936.299 C 1570.17 921.861 1569.42 892.46 1571.1 879.39 C 1439.35 928.023 1300.86 920.242 1168.18 879.291 L 1168.29 1324.82 L 1168.2 1436.97 C 1168.17 1469.47 1167.48 1515.46 1173.69 1546.35 C 1181.35 1584.57 1200.19 1619.65 1227.81 1647.15 C 1306.02 1724.29 1428.98 1728.22 1507.76 1650.07 C 1512.88 1644.99 1518.81 1640.31 1523.75 1635.12 C 1524.88 1633.92 1525.97 1632.68 1526.99 1631.39 z"/>
<path transform="translate(0,0)" fill="rgb(252,114,22)" d="M 1125.65 452.119 C 1010.12 442.008 1023.74 277.933 1138.38 285.255 C 1153.86 286.243 1174.77 285.784 1190.61 285.807 L 1337.93 285.848 L 1523.9 285.806 L 1581.4 285.798 C 1616.68 285.821 1650.65 284.477 1674.42 315.495 C 1689.04 334.559 1693.88 357.748 1690.87 381.353 C 1688.31 402.598 1677.33 421.925 1660.39 435.001 C 1646.38 445.656 1630.93 450.817 1613.45 451.975 C 1596.4 451.053 1582.73 451.629 1565.63 452.267 C 1519.71 453.894 1463.67 452.437 1416.97 452.445 L 1169.4 452.253 C 1154.82 451.52 1140.23 451.475 1125.65 452.119 z M 1604.64 412.565 C 1619.39 411.501 1631.87 408.167 1641.08 396.376 C 1667.05 363.119 1648.06 326.326 1607.12 325.284 C 1573.44 324.426 1541.74 324.98 1509 324.995 L 1315.15 325.021 L 1192.15 324.909 C 1178.96 324.889 1145.64 323.325 1133.73 325.411 C 1123.83 326.413 1119.44 326.943 1110.06 330.205 C 1071.53 343.595 1080.82 403.54 1118 410.01 C 1143.22 414.399 1173.19 412.795 1198.93 412.795 L 1318.41 412.788 L 1504.51 412.752 C 1537.06 412.751 1572.33 413.476 1604.64 412.565 z"/>
<path transform="translate(0,0)" fill="rgb(6,40,154)" d="M 1388.17 1172.28 C 1408.73 1172.27 1425.38 1185.58 1425.45 1207.35 C 1425.5 1222.67 1413.27 1235.41 1402.95 1245.58 C 1402.76 1270.84 1406.25 1283.93 1413.68 1307.75 C 1435.89 1322.27 1460.68 1338.83 1482.39 1354.09 C 1485.93 1350.34 1488.76 1346.93 1493.83 1345.48 C 1521.35 1337.6 1552.42 1376.56 1538.31 1401.56 C 1530.95 1414.59 1516.3 1418.88 1503.21 1422.76 C 1489.09 1444.97 1477.18 1475.69 1466.8 1499.83 C 1474.43 1508.1 1479.64 1515.18 1481.39 1526.91 C 1482.89 1537.55 1480.01 1548.34 1473.42 1556.83 C 1460.86 1573.33 1437.15 1575.36 1421.37 1562.74 C 1406.72 1552.02 1402.82 1533.1 1408.91 1516.54 C 1394.96 1508.59 1334.09 1455.42 1326.38 1442.5 C 1314.08 1448.57 1297.97 1454.2 1284.54 1447.33 C 1257.14 1433.33 1261.44 1380.12 1291.49 1371.74 C 1303.43 1368.4 1316.16 1373.91 1326.48 1380.11 C 1339.54 1359.68 1367.08 1329.69 1383.75 1312.03 C 1374.06 1290.62 1367.38 1265.98 1372.13 1242.54 C 1362.22 1234.4 1353.28 1223.08 1351.07 1210.14 C 1349.61 1201.89 1351.71 1193.4 1356.85 1186.78 C 1364.98 1176.25 1375.94 1173.91 1388.17 1172.28 z M 1422.39 1499.72 C 1431.18 1495.51 1434.42 1494.53 1444.58 1493.88 C 1448.22 1485.58 1452.51 1478.04 1456.42 1469.9 L 1482.67 1414.4 C 1468.74 1403.01 1463 1391.26 1466.01 1372.96 C 1442.52 1357.34 1424.46 1341.8 1398.4 1325.55 C 1382.49 1349.34 1357.86 1371.69 1340.22 1397.08 C 1341.59 1408.01 1340.93 1415.5 1339.98 1426.52 C 1346.36 1436.17 1416.55 1498.23 1422.39 1499.72 z M 1385.91 1193.69 C 1380.24 1194.71 1375.58 1198.74 1373.74 1204.19 C 1371.9 1209.64 1373.17 1215.67 1377.05 1219.92 C 1380.94 1224.16 1386.82 1225.96 1392.42 1224.62 C 1400.74 1222.61 1405.95 1214.36 1404.19 1205.99 C 1402.42 1197.62 1394.32 1192.17 1385.91 1193.69 z M 1299.44 1393.11 C 1293.98 1396.3 1288.98 1401.18 1287.47 1407.53 C 1286.45 1411.76 1287.34 1416.21 1289.89 1419.73 C 1293.51 1424.74 1300.21 1427.07 1306.16 1427.46 C 1324.73 1415.69 1322.29 1396.05 1299.44 1393.11 z M 1501.16 1367.59 C 1495.32 1368.4 1490.37 1372.31 1488.24 1377.82 C 1486.11 1383.32 1487.14 1389.54 1490.92 1394.07 C 1494.7 1398.6 1500.64 1400.73 1506.43 1399.62 C 1514.33 1398.12 1519.94 1391.05 1519.61 1383.01 C 1519.42 1378.44 1517.31 1374.15 1513.8 1371.22 C 1510.29 1368.28 1505.7 1366.96 1501.16 1367.59 z M 1441.74 1514.97 C 1419.55 1525.12 1424.27 1546.44 1445.31 1549.59 C 1456.5 1545.22 1458.38 1541.57 1459.87 1529.48 C 1455.61 1519.57 1454.17 1514.07 1441.74 1514.97 z"/>
<path transform="translate(0,0)" fill="rgb(114,165,246)" d="M 1272.57 1014.5 C 1292.44 1013.41 1309.43 1028.64 1310.51 1048.52 C 1311.6 1068.39 1296.37 1085.38 1276.49 1086.46 C 1256.62 1087.55 1239.63 1072.32 1238.55 1052.44 C 1237.46 1032.57 1252.69 1015.58 1272.57 1014.5 z"/>
<path transform="translate(0,0)" fill="rgb(114,165,246)" d="M 1462.81 1005.62 C 1475.62 1003.74 1488.46 1008.88 1496.43 1019.09 C 1504.4 1029.3 1506.26 1043.01 1501.31 1054.97 C 1496.36 1066.94 1485.37 1075.33 1472.51 1076.93 C 1452.95 1079.38 1435.06 1065.62 1432.4 1046.08 C 1429.74 1026.54 1443.3 1008.5 1462.81 1005.62 z"/>
<path transform="translate(0,0)" fill="rgb(6,40,154)" d="M 435.045 452.212 C 410.354 450.217 391.227 442.97 374.773 423.596 C 346.651 390.481 349.333 332.247 383.671 304.324 C 416.323 277.771 465.756 285.599 505.748 285.786 L 648.279 285.861 L 833.265 285.799 C 850.614 285.786 868.39 286.047 885.692 285.756 C 921.304 285.158 958.118 283.855 982.631 314.698 C 996.591 332.263 1004.28 357.897 1001.78 380.193 C 999.559 400.916 989.079 419.869 972.711 432.772 C 957.73 444.457 941.704 449.824 923.087 451.989 C 921.628 457.13 922.536 493.244 922.536 501.222 L 922.549 641.411 L 922.529 1246.83 L 922.539 1430.13 C 922.54 1462.94 923.959 1509.01 920.469 1540.34 C 916.797 1571.42 906.965 1601.45 891.548 1628.68 C 859.961 1684.07 807.531 1724.53 745.938 1741.04 C 682.817 1758.99 615.114 1750.53 558.349 1717.61 C 504.016 1686.29 460.888 1631.23 444.12 1570.74 C 430.606 1521.98 436.097 1468.43 436.159 1417.43 L 436.147 1252.77 L 436.109 625.593 L 436.212 503.988 C 436.22 494.849 437.232 458.886 435.045 452.212 z M 478.787 655.291 C 590.977 701.012 683.539 703.115 802.57 677.093 C 830.006 671.095 854.182 662.761 880.676 655.814 C 878.8 632.967 882.379 460.551 879.009 452.204 L 828.086 452.344 C 792.414 453.171 754.911 452.642 719.086 452.642 L 479.37 452.78 C 480.099 466.029 479.48 481.528 479.399 495.035 L 479.385 564.842 L 479.402 622.241 C 479.401 632.286 479.85 645.744 478.787 655.291 z M 915.249 412.568 C 951.233 408.907 974.018 384.486 956.103 347.205 C 947.99 330.32 931.537 325.694 914.478 325.204 C 885.652 324.359 856.768 324.982 827.93 324.989 L 656.08 324.989 L 512.966 324.968 C 494.199 324.962 457.835 323.814 440.89 325.38 C 427.293 327.055 409.599 330.838 402.017 342.928 C 383.255 372.845 401.251 411.41 437.752 412.345 C 463.617 413.007 487.77 412.828 512.867 412.802 L 653.802 412.746 L 824.46 412.776 C 852.243 412.807 888.341 413.947 915.249 412.568 z M 479.206 702.556 C 480.119 725.43 479.435 752.313 479.411 775.395 L 479.363 904.917 L 479.381 1309.29 L 479.318 1445.47 C 479.282 1476.44 478.312 1505.59 482.106 1537.95 C 485.724 1568.81 502.557 1604.1 521.789 1629.43 C 522.072 1629.68 522.356 1629.93 522.64 1630.18 C 539.846 1649.39 552.905 1662.28 575.313 1676.03 C 708.615 1757.83 876.8 1664.22 879.013 1507.57 C 879.913 1443.84 879.959 1379.4 879.957 1315.6 L 879.974 968.796 L 879.988 780.472 L 879.994 727.292 C 879.995 721.901 880.358 707.027 879.68 702.605 L 877.897 702.119 C 856.432 708.532 834.229 716.045 812.519 721.053 C 732.995 738.881 650.713 740.652 570.495 726.264 C 537.173 719.95 511.41 712.305 479.206 702.556 z"/>
<path transform="translate(0,0)" fill="rgb(252,114,22)" d="M 435.045 452.212 C 410.354 450.217 391.227 442.97 374.773 423.596 C 346.651 390.481 349.333 332.247 383.671 304.324 C 416.323 277.771 465.756 285.599 505.748 285.786 L 648.279 285.861 L 833.265 285.799 C 850.614 285.786 868.39 286.047 885.692 285.756 C 921.304 285.158 958.118 283.855 982.631 314.698 C 996.591 332.263 1004.28 357.897 1001.78 380.193 C 999.559 400.916 989.079 419.869 972.711 432.772 C 957.73 444.457 941.704 449.824 923.087 451.989 C 908.394 451.911 893.701 451.982 879.009 452.204 L 828.086 452.344 C 712.272 450.043 595.183 454.146 479.245 452.195 C 464.61 451.949 449.666 451.865 435.045 452.212 z M 915.249 412.568 C 951.233 408.907 974.018 384.486 956.103 347.205 C 947.99 330.32 931.537 325.694 914.478 325.204 C 885.652 324.359 856.768 324.982 827.93 324.989 L 656.08 324.989 L 512.966 324.968 C 494.199 324.962 457.835 323.814 440.89 325.38 C 427.293 327.055 409.599 330.838 402.017 342.928 C 383.255 372.845 401.251 411.41 437.752 412.345 C 463.617 413.007 487.77 412.828 512.867 412.802 L 653.802 412.746 L 824.46 412.776 C 852.243 412.807 888.341 413.947 915.249 412.568 z"/>
<path transform="translate(0,0)" fill="rgb(252,114,22)" d="M 628.991 859.331 C 555.737 835.91 594.25 734.333 664.663 758.921 C 700.969 771.6 711.175 829.071 676.313 850.183 C 662.621 858.475 654.848 856.687 656.458 875.085 C 657.635 888.532 655.037 895.413 649.033 906.941 C 651.227 909.482 658.38 912.516 661.767 914.637 C 709.887 944.767 680.697 1021.3 625.826 1013.8 C 624.867 1013.67 623.909 1013.52 622.954 1013.37 C 616.482 1012.09 609.007 1008.55 602.802 1005.91 C 594.968 1000.05 590.521 996.773 585.171 988.252 C 563.777 954.176 585.049 910.414 624.862 906.041 C 630.564 905.414 636.824 905.819 642.545 905.945 C 625.532 901.534 617.736 898.805 623.477 878.981 C 625.234 872.913 627.519 865.459 628.991 859.331 z M 639.101 983.478 C 648.936 980.372 656.001 971.739 657.1 961.483 C 658.017 952.927 654.636 944.471 648.071 938.907 C 641.507 933.343 632.612 931.392 624.321 933.699 C 615.28 936.214 608.3 943.412 606.063 952.525 C 603.826 961.638 606.679 971.25 613.527 977.666 C 620.375 984.082 630.152 986.304 639.101 983.478 z M 650.463 832.553 C 659.061 830.136 665.663 823.229 667.689 814.53 C 669.715 805.831 666.845 796.718 660.198 790.751 C 653.552 784.783 644.184 782.907 635.753 785.855 C 623.264 790.221 616.5 803.715 620.475 816.333 C 624.45 828.951 637.727 836.133 650.463 832.553 z"/>
<path transform="translate(0,0)" fill="rgb(252,114,22)" d="M 754.101 1070.12 C 765.637 1075.39 768.426 1079.03 774.357 1090.53 C 754.997 1110.64 738.292 1137.74 714.809 1153.55 C 707.724 1158.32 706.592 1158.15 700.283 1164.91 C 716.005 1176.19 716.002 1184.68 720.399 1202.44 C 722.633 1211.47 722.085 1237.36 723.377 1240.28 C 740.188 1243.72 748.655 1243.38 760.725 1258.65 C 789.931 1295.58 755.172 1361.15 707.533 1348.03 C 690.612 1343.27 676.329 1331.88 667.915 1316.44 C 660.901 1303.62 659.027 1291.38 663.008 1276.97 C 667.563 1260.48 677.981 1252.93 692.389 1245.18 C 694.329 1244.14 694.028 1244.64 695.59 1243.01 C 701.063 1244.44 713.29 1244.39 718.373 1241.43 L 718.437 1240.35 C 714.158 1238.82 700.603 1241.05 695.879 1242.51 C 689.902 1232.23 684.977 1187.83 681.745 1172.36 C 685.411 1171.06 688.035 1170.72 690.214 1168.06 C 686.484 1165.84 658.516 1165.68 649.778 1161.77 C 641.029 1157.85 637.126 1158.86 631.778 1148.87 C 630.748 1143.9 631.134 1142.54 631.636 1137.35 C 633.64 1132.85 635.282 1129.66 640.277 1127.85 C 653.318 1123.11 681.393 1134.29 693.339 1140.63 L 694.858 1141.45 C 711.853 1114.06 729.067 1091.01 754.101 1070.12 z M 721.447 1316.94 C 730.149 1315.21 737.223 1308.89 739.909 1300.44 C 742.595 1291.98 740.468 1282.73 734.357 1276.3 C 728.245 1269.87 719.119 1267.28 710.538 1269.53 C 697.817 1272.87 690.05 1285.71 692.999 1298.52 C 695.947 1311.34 708.546 1319.5 721.447 1316.94 z"/>
<path transform="translate(0,0)" fill="rgb(252,114,22)" d="M 628.274 1151.16 C 623.905 1179.2 598.712 1199.18 570.411 1197.04 C 542.109 1194.89 520.209 1171.35 520.112 1142.97 C 520.015 1114.59 541.753 1090.9 570.039 1088.56 C 598.325 1086.23 623.655 1106.03 628.215 1134.04 C 629.138 1139.71 629.157 1145.49 628.274 1151.16 z M 580.482 1167.16 C 594.092 1164.23 602.776 1150.85 599.918 1137.22 C 597.06 1123.59 583.733 1114.83 570.09 1117.61 C 556.335 1120.42 547.487 1133.88 550.368 1147.61 C 553.25 1161.35 566.76 1170.12 580.482 1167.16 z"/>
<path transform="translate(0,0)" fill="rgb(252,114,22)" d="M 753.574 996.226 C 782.626 955.588 844.404 973.1 850.834 1020.53 C 852.726 1034.59 848.977 1048.84 840.406 1060.16 C 821.649 1084.64 786.217 1088.65 762.476 1068.8 C 750.941 1059.2 743.814 1045.32 742.736 1030.35 C 742.284 1023.71 743.113 1020.14 744.616 1013.86 C 747.954 1008.33 748.183 1003.74 753.574 996.226 z M 804.138 1050.81 C 817.44 1046.73 824.909 1032.64 820.807 1019.34 C 816.705 1006.05 802.591 998.609 789.306 1002.74 C 776.061 1006.86 768.65 1020.92 772.739 1034.17 C 776.829 1047.43 790.875 1054.87 804.138 1050.81 z"/>
<path transform="translate(0,0)" fill="rgb(252,114,22)" d="M 599.603 1007.94 C 606.657 1010.89 614.973 1014.63 622.169 1016.76 C 625.726 1024.86 618.436 1055.9 616.796 1065.05 C 613.309 1084.49 607.802 1098.16 586.408 1084.77 C 578.163 1079.61 587.824 1055.99 587.825 1048.56 C 589.356 1038.66 592.727 1014.07 599.603 1007.94 z"/>
<path transform="translate(0,0)" fill="rgb(252,114,22)" d="M 692.968 967.595 C 712.37 976.054 733.317 979.792 750.533 993.684 C 747.482 1000.12 743.226 1009.7 739.109 1015.13 C 729.463 1015.17 703.51 1004.2 693.845 999.689 C 676.351 991.53 684.441 980.629 692.968 967.595 z"/>
<path transform="translate(0,0)" fill="rgb(252,114,22)" fill-opacity="0.0156863" d="M 750.533 993.684 L 753.574 996.226 C 748.183 1003.74 747.954 1008.33 744.616 1013.86 L 739.109 1015.13 C 743.226 1009.7 747.482 1000.12 750.533 993.684 z"/>
<path transform="translate(0,0)" fill="rgb(252,114,22)" fill-opacity="0.0235294" d="M 602.802 1005.91 C 609.007 1008.55 616.482 1012.09 622.954 1013.37 L 622.169 1016.76 C 614.973 1014.63 606.657 1010.89 599.603 1007.94 L 602.802 1005.91 z"/>
<path transform="translate(0,0)" fill="rgb(254,164,106)" fill-opacity="0.984314" d="M 695.879 1242.51 C 700.603 1241.05 714.158 1238.82 718.437 1240.35 L 718.373 1241.43 C 713.29 1244.39 701.063 1244.44 695.59 1243.01 L 695.879 1242.51 z"/>
<path transform="translate(0,0)" fill="rgb(252,114,22)" fill-opacity="0.0705882" d="M 628.215 1134.04 L 631.636 1137.35 C 631.134 1142.54 630.748 1143.9 631.778 1148.87 L 628.274 1151.16 C 629.157 1145.49 629.138 1139.71 628.215 1134.04 z"/>
</svg>