<svg version="1.1" xmlns="http://www.w3.org/2000/svg" style="display: block;" viewBox="0 0 2048 2048" width="512" height="512" preserveAspectRatio="none">
<path transform="translate(0,0)" fill="rgb(2,11,190)" d="M 582.352 526.634 C 580.523 453.488 576.395 372.102 672.561 372.357 C 718.213 372.478 764.785 372.294 810.521 372.311 L 1074.11 372.339 L 1219.3 372.284 C 1258.04 372.266 1292.04 371.363 1330.61 376.321 C 1405.13 385.901 1404.59 446.186 1405.74 507.87 C 1405.85 514.029 1405.74 520.19 1405.41 526.342 C 1427.84 525.943 1500.23 521.406 1515.31 535.386 C 1520.96 540.628 1521.4 549.977 1521.35 557.188 C 1521.26 572.879 1520.55 589.421 1518.65 604.98 C 1517.37 611.362 1516.88 635.018 1518.65 641.256 C 1519.44 651.852 1520.2 663.958 1521 674.458 C 1523.33 705.086 1521.27 718.093 1486.97 719.933 C 1460.38 721.359 1432.56 719.381 1406.01 720.997 C 1403.74 785.502 1420.78 868.831 1331.65 876.783 C 1291.8 880.339 1253.63 879.211 1213.7 879.211 L 1023.1 879.212 L 790.442 879.206 L 716.637 879.261 C 679.161 879.279 630.692 883.488 604.053 851.833 C 582.215 825.882 581.905 786.859 582.007 754.654 C 582.061 745.387 581.788 732.359 582.572 723.44 C 554.763 724.251 526.58 723.302 498.735 723.923 C 479.374 724.356 473.643 717.48 472.852 698.925 C 471.887 676.278 472.342 653.908 472.92 631.291 C 473.799 617.8 473.399 606.162 472.722 592.804 C 472.333 581.699 469.951 538.775 476.264 534.002 C 494.296 520.371 560.824 526.789 582.352 526.634 z M 714.119 768.276 C 712.921 738.771 744.939 745.115 765.481 745.185 L 820.652 745.238 C 839.652 745.296 858.652 745.254 877.651 745.112 C 898.972 744.915 942.068 737.072 939.718 768.174 C 944.071 769.375 952.439 768.358 957.292 768.276 C 986.244 767.792 1015.22 767.24 1044.14 769.076 C 1042.3 753.937 1051.66 746.123 1066.1 745.625 C 1086.75 744.915 1107.35 745.236 1128.02 745.218 C 1153.52 745.912 1238.07 743.109 1257.84 749.07 L 1259.63 749.594 C 1266.61 762.009 1262.34 768.212 1264.9 773.848 C 1275.65 772.428 1291.4 772.909 1302.46 772.93 C 1322.92 773.128 1343.39 773.045 1363.86 772.682 C 1365.33 772.472 1366.36 772.169 1367.8 771.807 C 1369 769.304 1368.28 732.891 1368.29 726.821 L 1368.43 557.797 C 1368.49 524.667 1369.57 491.364 1367.13 458.321 C 1364.44 421.802 1343.45 410.65 1309.62 409.792 C 1267.45 408.723 1225.47 409.191 1183.36 409.191 L 947.874 409.222 L 762.065 409.234 C 729.121 409.225 696.234 408.194 663.342 409.956 C 638.932 411.264 625.251 424.816 621.926 449.027 C 617.306 482.67 618.836 517.764 618.843 551.77 L 618.864 684.721 C 618.865 711.92 619.357 740.876 618.274 767.917 C 648.339 767.869 684.55 766.891 714.119 768.276 z"/>
<path transform="translate(0,0)" fill="rgb(249,130,7)" d="M 1405.41 526.342 C 1427.84 525.943 1500.23 521.406 1515.31 535.386 C 1520.96 540.628 1521.4 549.977 1521.35 557.188 C 1521.26 572.879 1520.55 589.421 1518.65 604.98 C 1517.37 611.362 1516.88 635.018 1518.65 641.256 C 1519.44 651.852 1520.2 663.958 1521 674.458 C 1523.33 705.086 1521.27 718.093 1486.97 719.933 C 1460.38 721.359 1432.56 719.381 1406.01 720.997 C 1404.28 715.531 1404.71 687.759 1404.73 680.603 C 1403.48 645.593 1403.74 602.925 1404.41 567.772 C 1404.6 554.425 1404.51 539.515 1405.41 526.342 z"/>
<path transform="translate(0,0)" fill="rgb(250,202,108)" d="M 1404.41 567.772 C 1417.95 566.065 1463.14 567.213 1479.2 567.32 L 1479.11 640.322 C 1479.11 652.455 1478.66 669.229 1479.39 680.92 C 1456.47 680.916 1427.2 681.655 1404.73 680.603 C 1403.48 645.593 1403.74 602.925 1404.41 567.772 z"/>
<path transform="translate(0,0)" fill="rgb(249,130,7)" d="M 472.722 592.804 C 472.333 581.699 469.951 538.775 476.264 534.002 C 494.296 520.371 560.824 526.789 582.352 526.634 C 583.728 538.698 582.615 555.323 583.315 568.019 C 584.735 599.861 584.594 652.328 583.199 684.144 C 583.016 696.892 583.095 710.794 582.572 723.44 C 554.763 724.251 526.58 723.302 498.735 723.923 C 479.374 724.356 473.643 717.48 472.852 698.925 C 471.887 676.278 472.342 653.908 472.92 631.291 C 473.799 617.8 473.399 606.162 472.722 592.804 z"/>
<path transform="translate(0,0)" fill="rgb(250,202,108)" d="M 511.164 567.293 C 533.274 568.512 560.884 567.951 583.315 568.019 C 584.735 599.861 584.594 652.328 583.199 684.144 C 559.179 683.921 535.158 683.925 511.139 684.157 L 511.164 567.293 z"/>
<path transform="translate(0,0)" fill="rgb(249,130,7)" d="M 822.743 574.344 C 851.932 575.461 885.782 574.717 915.298 574.722 L 1083.1 574.738 L 1141.02 574.559 C 1163.66 574.413 1179.38 571.097 1199.22 583.642 C 1200.27 585.861 1201.58 588.611 1202.27 590.933 C 1203.71 595.694 1203 600.845 1200.34 605.042 C 1195.74 612.39 1187.77 614.45 1180.05 615.967 C 1107.72 617.382 1031.5 615.98 958.92 615.943 L 872.344 616.017 C 855.299 616.066 838.982 616 821.282 615.773 C 803.392 615.544 790.154 600.08 801.428 583.576 C 806.077 576.769 814.711 575.054 822.743 574.344 z"/>
<path transform="translate(0,0)" fill="rgb(166,165,175)" d="M 714.119 768.276 C 712.921 738.771 744.939 745.115 765.481 745.185 L 820.652 745.238 C 839.652 745.296 858.652 745.254 877.651 745.112 C 898.972 744.915 942.068 737.072 939.718 768.174 C 944.071 769.375 952.439 768.358 957.292 768.276 C 986.244 767.792 1015.22 767.24 1044.14 769.076 C 1042.3 753.937 1051.66 746.123 1066.1 745.625 C 1086.75 744.915 1107.35 745.236 1128.02 745.218 C 1153.52 745.912 1238.07 743.109 1257.84 749.07 L 1259.63 749.594 C 1266.61 762.009 1262.34 768.212 1264.9 773.848 C 1275.65 772.428 1291.4 772.909 1302.46 772.93 C 1322.92 773.128 1343.39 773.045 1363.86 772.682 C 1365.23 772.865 1366.48 773.194 1367.83 773.498 C 1368.97 775.582 1369.48 777.546 1369.33 779.958 C 1367.2 813.827 1364.3 840.158 1323.2 842.671 C 1292.76 844.533 1261.87 843.823 1231.03 843.817 L 1068.44 843.79 L 782.877 843.795 C 748.699 843.8 713.557 844.039 679.41 844.836 C 627.956 846.037 616.16 813.231 618.274 767.917 C 648.339 767.869 684.55 766.891 714.119 768.276 z"/>
<path transform="translate(0,0)" fill="rgb(2,11,190)" d="M 714.119 768.276 C 712.921 738.771 744.939 745.115 765.481 745.185 L 820.652 745.238 C 839.652 745.296 858.652 745.254 877.651 745.112 C 898.972 744.915 942.068 737.072 939.718 768.174 L 939.016 769.467 C 937.257 772.737 934.933 780.783 930.585 781.054 C 865.812 785.083 800.231 782.762 735.31 782.63 C 723.793 782.606 720.419 776.846 714.119 768.276 z"/>
<path transform="translate(0,0)" fill="rgb(2,11,190)" d="M 1044.14 769.076 C 1042.3 753.937 1051.66 746.123 1066.1 745.625 C 1086.75 744.915 1107.35 745.236 1128.02 745.218 C 1153.52 745.912 1238.07 743.109 1257.84 749.07 L 1259.63 749.594 C 1266.61 762.009 1262.34 768.212 1264.9 773.848 C 1263.36 774.417 1263.87 774.089 1262.65 775.061 C 1259.88 777.262 1257.21 779.663 1254.13 781.441 C 1251.62 782.893 1248.76 782.975 1245.93 783.107 C 1224.63 784.107 1064.56 784.688 1055.55 781.701 C 1049.8 779.793 1046.87 774.035 1044.14 769.076 z"/>
<path transform="translate(0,0)" fill="rgb(2,11,190)" d="M 1518.65 604.98 C 1615.42 605.705 1692.46 653.481 1712.8 751.493 C 1720.57 788.904 1718.94 822.281 1718.93 860.059 L 1718.92 964.212 L 1718.92 1167.23 C 1718.92 1201.1 1719.49 1236.75 1718.88 1270.5 C 1718.8 1273.44 1718.62 1276.37 1718.33 1279.3 C 1777.56 1281.99 1794.99 1290.42 1792.01 1354.45 C 1791.43 1378.56 1796.5 1413.24 1775.97 1430.94 C 1755.8 1448.34 1720.22 1446.66 1695.16 1446.34 C 1685.8 1446.21 1673.09 1446.42 1663.94 1445.28 L 1664.06 1589.96 C 1664.07 1612.69 1664.55 1635.34 1663.91 1658.2 C 1663.53 1671.69 1645.14 1680.69 1634.27 1673.07 C 1630.28 1670.28 1629.42 1658.69 1628.83 1653.96 C 1627.63 1627.79 1627.87 1600.17 1628.02 1573.92 C 1628.26 1531.16 1627.53 1487.89 1628.33 1445.21 C 1616.86 1446.41 1600.72 1445.95 1588.75 1445.95 L 1524.88 1445.93 L 1318 1445.92 L 969.196 1445.92 C 911.78 1445.92 846.589 1447.56 789.912 1445.7 C 790.86 1491.38 789.88 1537.39 790.194 1583.11 C 790.368 1608.51 791.04 1635.23 789.184 1660.46 C 787.913 1677.74 775.094 1679.55 761.58 1675.42 L 755.351 1668.2 C 751.146 1646.16 752.455 1595.83 752.636 1571.4 C 752.941 1530.32 751.814 1486.05 753.025 1445.23 C 727.305 1447.61 666.453 1449.49 643.969 1434.09 C 635.126 1428.03 628.311 1404.69 628.9 1393.04 C 632.737 1317.1 609.442 1279.64 701.946 1278.66 C 701.106 1204.66 701.857 1129.38 701.868 1055.29 C 701.898 1035.98 701.823 1016.66 701.644 997.344 C 701.42 982.424 700.639 969.308 701.855 954.28 C 703.201 937.664 721.946 924.372 734.151 938.125 C 741.786 946.727 740.623 977.594 739.02 988.628 C 738.899 989.466 738.759 990.303 738.601 991.135 L 829.144 990.314 C 828.526 973.794 836.036 946.823 860.081 961.761 C 867.789 966.55 866.335 982.615 865.978 991.224 C 863.928 999.546 864.209 1024.16 866.265 1032.25 C 866.314 1045.31 866.509 1060.01 865.615 1072.95 C 864.778 1081.59 864.321 1106.14 866.035 1114.11 C 866.366 1126 866.965 1145.09 865.466 1156.83 C 864.556 1165.61 863.484 1188.88 865.75 1196.67 C 866.413 1206.43 867.746 1222.94 859.99 1229.44 C 835.064 1250.33 828.756 1215.34 829.076 1199.19 C 805.586 1200.41 763.608 1200.18 739.421 1199.59 C 740.003 1217.46 739.914 1262.42 738.635 1279.35 C 775.135 1278.14 815.29 1278.93 852.021 1278.93 L 1054.99 1278.93 L 1682.09 1278.93 C 1681.26 1266.54 1681.84 1247.58 1681.84 1234.73 L 1681.84 1151.76 L 1681.88 897.292 L 1681.96 825.196 C 1682 763.587 1680.78 718.734 1629.1 676.699 C 1601.26 654.053 1554.34 637.626 1518.65 641.256 C 1516.88 635.018 1517.37 611.362 1518.65 604.98 z M 668.204 1407.55 C 699.025 1409.85 726.684 1409.32 757.576 1409.32 L 871.178 1409.29 L 1232.62 1409.27 L 1582.18 1409.12 L 1678.47 1409.18 C 1695.99 1409.26 1716.1 1410.31 1733.25 1409.02 C 1741.73 1408.31 1749.4 1408.24 1755.42 1401.84 C 1756.98 1393.27 1753.91 1368.87 1754.92 1357.39 C 1755.57 1349.93 1755.13 1338.27 1756.44 1329.95 C 1756.72 1328.19 1755.46 1324.36 1754.22 1322.74 C 1749.32 1316.35 1736.39 1316.12 1728.87 1315.88 C 1705.1 1315.13 1681.07 1315.38 1657.27 1315.39 L 1544.41 1315.45 L 1193.06 1315.46 L 858.21 1315.46 L 751.206 1315.39 C 733.249 1315.36 711.305 1314.67 693.722 1315.45 C 685.061 1315.91 676.573 1316.04 668.246 1318.64 C 665.333 1344.69 665.242 1381.52 668.204 1407.55 z M 827.829 1164.88 C 828.2 1164.42 828.572 1163.96 828.943 1163.49 C 829.658 1127.29 828.028 1061.87 829.127 1027.99 L 739.327 1028.1 C 740.014 1066.74 738.891 1105.66 739.299 1144.33 C 739.371 1151.09 739.386 1158.08 739.003 1164.81 C 765.42 1164.22 801.458 1163.94 827.829 1164.88 z"/>
<path transform="translate(0,0)" fill="rgb(2,11,190)" d="M 472.92 631.291 C 463.538 632.179 453.649 632.087 444.009 633.061 C 410.05 636.492 379.263 645.692 350.988 665.063 C 322.108 684.848 299.053 717.032 293.076 751.623 C 280.711 823.181 328.085 875.75 393.586 895.704 C 424.781 905.208 453.768 907.075 483.715 920.335 C 519.183 936.134 549.544 961.508 571.388 993.608 C 595.328 1029.05 599.915 1052.31 605.787 1093.68 C 613.052 1144.87 569.915 1158.04 568.328 1103.19 C 568.014 1092.34 566.593 1078.54 563.993 1067.88 C 559.993 1051.51 553.428 1035.86 544.541 1021.54 C 521.24 983.449 484.232 955.737 441.127 944.099 C 427.646 940.394 412.642 938.661 398.686 935.216 C 349.906 923.176 301.39 893.278 275.154 849.483 C 254.614 815.252 248.451 774.285 258.009 735.525 C 278.376 655.991 349.351 611.108 427.137 600.209 C 441.441 598.205 455.661 596.557 470.128 597.12 C 470.77 596.741 471.412 596.361 472.054 595.982 L 472.722 592.804 C 473.399 606.162 473.799 617.8 472.92 631.291 z"/>
<path transform="translate(0,0)" fill="rgb(249,130,7)" d="M 865.615 1072.95 L 931.589 1072.56 C 945.456 1072.45 992.58 1067.78 994.834 1090.78 C 995.668 1099.28 984.685 1112.85 974.752 1113.76 C 961.243 1115 947.231 1114.23 933.317 1114.06 C 910.89 1113.9 888.462 1113.91 866.035 1114.11 C 864.321 1106.14 864.778 1081.59 865.615 1072.95 z"/>
<path transform="translate(0,0)" fill="rgb(249,130,7)" d="M 865.466 1156.83 C 887.704 1156.3 909.948 1156.1 932.191 1156.22 C 947.791 1156.16 976.419 1153.02 988.474 1162.99 C 992.145 1172.11 995.253 1194.09 981.398 1195.83 C 944.004 1200.52 903.681 1195.08 865.75 1196.67 C 863.484 1188.88 864.556 1165.61 865.466 1156.83 z"/>
<path transform="translate(0,0)" fill="rgb(249,130,7)" d="M 865.978 991.224 C 888.241 988.19 917.52 992.175 940.639 990.483 C 957.352 989.26 974.226 990.044 988.71 999.177 C 993.265 1010.86 994.146 1024.64 978.898 1028.57 C 945.779 1037.1 899.133 1026.08 866.265 1032.25 C 864.209 1024.16 863.928 999.546 865.978 991.224 z"/>
</svg>