<svg version="1.1" xmlns="http://www.w3.org/2000/svg" style="display: block;" viewBox="0 0 2048 2048" width="512" height="512" preserveAspectRatio="none">
<path transform="translate(0,0)" fill="rgb(34,59,145)" d="M 398.784 1123.41 C 432.911 1121.05 458.067 1124.59 490.664 1135.17 C 548.456 1153.93 607.354 1213.46 633.484 1268.1 C 662.523 1241.62 706.933 1223.97 745.37 1217.97 C 809.235 1208.52 874.254 1224.55 926.411 1262.6 C 1036.96 1343.5 1060.45 1493.97 980.064 1606.46 C 940.613 1661.66 869.494 1693.07 803.484 1702.9 C 755.959 1704.9 704.547 1694.39 663.003 1671.19 C 625.553 1650.28 594.718 1619.28 574 1581.72 C 570.05 1574.53 564.903 1564.46 562.748 1556.76 C 556.323 1561.99 548.904 1566.47 541.84 1570.76 C 448.72 1627.31 342.437 1622.98 258.943 1550.55 C 94.9709 1408.32 176.789 1138.81 398.784 1123.41 z M 521.091 1188.52 C 504.615 1170.55 448.458 1157.04 423.526 1155.91 C 366.777 1153.14 311.326 1173.47 269.809 1212.26 C 240.239 1239.56 219.637 1275.19 210.72 1314.44 C 208.638 1323.22 205.573 1336.28 206.451 1345.04 C 242.152 1240.68 354.918 1153.43 467.873 1172.98 C 484.579 1175.88 504.503 1183.48 521.091 1188.52 z M 617.07 1362.92 C 620.025 1355.22 627.179 1347.47 632.371 1340.53 C 623.26 1329.7 627.487 1316.92 642.048 1314.66 C 646.766 1313.93 649.395 1317 652.694 1320.13 C 656.019 1318.18 659.368 1316.27 662.738 1314.4 C 662.834 1314.31 662.93 1314.22 663.027 1314.14 C 674.098 1307.72 683.777 1299.22 694.608 1292.27 C 741.194 1262.37 801.449 1253.27 855.182 1265.74 C 861.802 1267.28 868.44 1269.88 875.056 1271.27 L 876.708 1271.61 C 874.959 1267.93 856.803 1261.58 852.402 1260.06 C 744.485 1222.9 623.238 1281.21 585.701 1389.39 C 579.54 1407.15 569.663 1450.26 574.945 1468.52 C 580.267 1439.51 586.891 1416.65 601.363 1390.8 C 605.983 1382.55 613.707 1371.27 617.07 1362.92 z"/>
<path transform="translate(0,0)" fill="rgb(251,127,5)" d="M 662.738 1314.4 C 662.834 1314.31 662.93 1314.22 663.027 1314.14 C 674.098 1307.72 683.777 1299.22 694.608 1292.27 C 741.194 1262.37 801.449 1253.27 855.182 1265.74 C 861.802 1267.28 868.44 1269.88 875.056 1271.27 L 876.708 1271.61 C 903.687 1282.75 918.566 1294.3 939.323 1315.16 C 979.641 1356.38 997.059 1409.15 996.24 1466.01 C 995.29 1521.13 972.504 1573.63 932.884 1611.97 C 847.873 1694.79 712.758 1691.91 630.737 1606.39 C 614.108 1589.26 600.728 1569.27 591.247 1547.36 C 581.618 1522.36 572.052 1495.58 574.945 1468.52 C 580.267 1439.51 586.891 1416.65 601.363 1390.8 C 605.983 1382.55 613.707 1371.27 617.07 1362.92 C 620.025 1355.22 627.179 1347.47 632.371 1340.53 C 623.26 1329.7 627.487 1316.92 642.048 1314.66 C 646.766 1313.93 649.395 1317 652.694 1320.13 C 656.019 1318.18 659.368 1316.27 662.738 1314.4 z"/>
<path transform="translate(0,0)" fill="rgb(244,99,0)" d="M 939.323 1315.16 C 979.641 1356.38 997.059 1409.15 996.24 1466.01 C 995.29 1521.13 972.504 1573.63 932.884 1611.97 C 847.873 1694.79 712.758 1691.91 630.737 1606.39 C 614.108 1589.26 600.728 1569.27 591.247 1547.36 C 599.043 1548.06 621.91 1564.03 632.629 1569.2 C 644.836 1575.04 657.535 1579.8 670.577 1583.41 C 729.337 1598.54 791.698 1589.71 843.952 1558.87 C 924.602 1511.59 963.828 1422.84 940.803 1333.54 C 939.312 1327.76 937.042 1320.71 939.323 1315.16 z"/>
<path transform="translate(0,0)" fill="rgb(254,252,253)" d="M 632.371 1340.53 C 623.26 1329.7 627.487 1316.92 642.048 1314.66 C 646.766 1313.93 649.395 1317 652.694 1320.13 C 656.019 1318.18 659.368 1316.27 662.738 1314.4 C 661.72 1316.66 639.633 1339.37 635.652 1344.13 C 634.346 1341.96 634.381 1342.1 632.371 1340.53 z"/>
<path transform="translate(0,0)" fill="rgb(255,234,217)" d="M 632.371 1340.53 C 634.381 1342.1 634.346 1341.96 635.652 1344.13 C 631.864 1349.55 623.42 1361.94 617.07 1362.92 C 620.025 1355.22 627.179 1347.47 632.371 1340.53 z"/>
<path transform="translate(0,0)" fill="rgb(34,59,145)" d="M 716.05 1344.23 C 724.368 1344.69 737.08 1349.74 735.017 1360.1 C 732.877 1370.86 712.165 1378.41 702.913 1382.83 C 674.129 1396.55 682.543 1417.23 677.009 1442.69 C 675.502 1449.03 671.084 1452.77 665.333 1455.65 C 621.909 1449.39 649.917 1355.89 716.05 1344.23 z"/>
<path transform="translate(0,0)" fill="rgb(138,180,246)" d="M 206.451 1345.04 C 242.152 1240.68 354.918 1153.43 467.873 1172.98 C 484.579 1175.88 504.503 1183.48 521.091 1188.52 C 554.59 1202.95 576.664 1236.05 595.143 1266.26 C 599.524 1273.42 604.911 1284.54 609.36 1290.95 C 579.066 1326 570.899 1343.69 555.526 1387.27 C 552.455 1395.98 546.261 1407.46 543.342 1416.07 C 544.597 1423.43 544.204 1433.7 544.281 1441.36 C 544.538 1467.06 542.53 1503.1 552.484 1527.23 C 537.825 1536.98 520.944 1548.77 505.679 1556.71 C 465.249 1577.72 419.598 1583.54 375.202 1574.34 C 317.906 1562.47 268.967 1529.94 237.347 1480.54 C 232.993 1473.73 226.2 1462.91 225.018 1454.86 C 224.244 1451.86 218.462 1438.98 216.876 1433.52 C 208.895 1406 199.67 1373.49 206.451 1345.04 z"/>
<path transform="translate(0,0)" fill="rgb(51,120,245)" d="M 225.018 1454.86 C 232.611 1457.57 252.121 1470.56 261.422 1475.22 C 297.819 1493.48 340.649 1499.88 380.95 1497.09 C 430.113 1493.69 480.41 1476.23 517.598 1443.29 C 527.418 1434.59 534.82 1425.89 543.342 1416.07 C 544.597 1423.43 544.204 1433.7 544.281 1441.36 C 544.538 1467.06 542.53 1503.1 552.484 1527.23 C 537.825 1536.98 520.944 1548.77 505.679 1556.71 C 465.249 1577.72 419.598 1583.54 375.202 1574.34 C 317.906 1562.47 268.967 1529.94 237.347 1480.54 C 232.993 1473.73 226.2 1462.91 225.018 1454.86 z"/>
<path transform="translate(0,0)" fill="rgb(34,59,145)" d="M 336.622 1255.07 C 357.217 1251.95 367.776 1280.48 341.694 1288.41 C 334.621 1290.56 318.361 1302.78 313.565 1309.28 C 302.02 1324.92 305.499 1359.98 290.861 1372.14 C 287.864 1372.11 284.756 1372.13 281.871 1371.27 C 276.825 1369.79 272.644 1366.24 270.364 1361.5 C 265.352 1350.98 269.127 1332.51 273.321 1321.96 C 286.004 1290.03 305.999 1269.32 336.622 1255.07 z"/>
<path transform="translate(0,0)" fill="rgb(34,59,145)" d="M 1817.85 369.181 C 1825.09 368.303 1832.41 368.514 1839.59 369.808 C 1871.72 375.929 1896.73 409.328 1890.19 441.254 C 1884.22 470.373 1844.19 497.349 1822.33 515.584 L 1735.57 588.052 L 1460.56 817.775 L 1256.77 987.84 C 1224.7 1014.6 1179.92 1055.49 1146.4 1077.3 C 1156.89 1086.12 1167.57 1096.93 1161.68 1111.96 C 1158.98 1118.83 1151.83 1125.13 1145.55 1128.92 C 1126.8 1140.26 1105.18 1146.44 1084.99 1154.74 C 1066.25 1162.39 1047.8 1170.39 1029.27 1178.36 C 1018.28 1181.95 1006.59 1184.68 994.958 1183.83 C 987.213 1183.27 979.298 1180.86 974.298 1174.56 C 969.148 1168.06 968.066 1159.21 968.931 1151.2 C 971.23 1129.93 1018.97 1026.16 1032.3 1005.63 C 1034.41 1002.38 1036.85 999.66 1039.91 997.273 C 1044.91 993.378 1051 991.402 1057.33 992.348 C 1069.69 994.196 1079.29 1004.59 1086.22 1014.27 C 1098.49 998.029 1151.11 952.996 1169.64 936.371 L 1339.76 783.96 L 1639.39 515.618 L 1728.6 435.658 C 1753.01 413.745 1786.54 378.128 1817.85 369.181 z M 1081.44 1060.65 C 1074.47 1052.39 1062.14 1038.16 1057.37 1029.06 C 1040.22 1065.53 1015.45 1118.34 1001.09 1154.96 C 1007.42 1151.78 1013.74 1148.48 1020.25 1145.7 C 1049.03 1133.03 1095.52 1112.07 1126.26 1105.97 C 1117.72 1098.32 1106.09 1086.47 1098.5 1077.71 C 1110.59 1064.15 1138.71 1042.42 1153.36 1030.46 C 1177.97 1010.18 1202.48 989.769 1226.88 969.237 L 1638.71 624.341 L 1776.75 508.847 C 1794.91 493.658 1850.25 451.47 1859.24 434.247 C 1853.76 416.24 1845.44 404.108 1825.42 401 C 1789.7 413.984 1608.78 587.112 1566.66 625.316 C 1511.46 675.394 1437.48 741.816 1380.08 792.907 C 1328.32 839.853 1276.31 886.523 1224.05 932.914 C 1182.42 969.943 1141.49 1007.89 1100.18 1045.26 C 1094.49 1050.4 1087.64 1056.17 1081.44 1060.65 z"/>
<path transform="translate(0,0)" fill="rgb(34,59,145)" d="M 1501.23 291.21 C 1560.6 286.286 1596.24 356.465 1551.22 398.259 C 1546.36 402.77 1541.81 407.892 1536.74 412.299 C 1512.69 433.215 1487.85 453.063 1463.54 473.724 L 1276.06 632.4 L 982.144 881.409 L 893.46 956.351 C 874.14 972.768 853.209 991.405 833.147 1006.62 C 833.9 1008.09 834.612 1009.58 835.283 1011.1 C 842.609 1027.49 840.777 1044.7 824.505 1054.47 C 807.979 1064.38 789.931 1070.65 772.171 1077.99 C 749.639 1087.32 727.211 1096.9 704.891 1106.72 C 697.237 1109.05 690.034 1111.09 681.914 1110.83 C 673.395 1110.56 664.285 1107.71 658.499 1101.15 C 653.369 1095.33 651.73 1087.54 652.277 1079.96 C 653.817 1058.63 705.656 956.079 719.383 934.861 C 721.743 931.213 724.38 928.079 727.756 925.326 C 733.319 920.786 739.876 918.791 747.032 919.638 C 759.211 921.079 770.639 930.414 778.158 939.661 C 794.689 918.199 823.965 894.234 844.454 875.134 L 990.404 740.711 C 1094.72 643.905 1199.69 547.817 1305.33 452.453 C 1343.38 418.017 1381.71 383.88 1420.3 350.045 C 1437.85 334.456 1454.82 318.245 1472.66 303.034 C 1480.65 296.228 1491.18 293.205 1501.23 291.21 z M 773.752 988.441 C 766.088 980.782 751.569 964.611 746.041 955.573 C 727.973 989.849 709.178 1023.68 693.575 1059.17 C 690.919 1065.22 688.249 1071.26 685.425 1077.22 C 691.881 1075.41 698.701 1073.77 704.768 1070.98 C 737.569 1055.55 771.01 1041.52 805.003 1028.93 C 798.037 1021.72 790.715 1014.51 784.771 1006.46 C 805.971 985.019 823.84 971.196 846.772 951.989 L 919.983 890.114 L 1306.58 562.498 L 1437.77 451.394 C 1467.55 426.312 1498.09 402.087 1526.33 375.306 C 1532.76 369.208 1536.36 365.069 1539.72 356.844 C 1535.31 339.37 1523.66 323.85 1503.99 324.209 C 1485.73 332.945 1447.22 370.37 1430.96 385.413 L 1375.53 436.124 L 1235.38 564.246 L 954.17 821.203 L 856.665 910.657 C 830.321 934.852 798.973 963.207 773.752 988.441 z"/>
<path transform="translate(0,0)" fill="rgb(34,59,145)" d="M 1167.78 1371.34 C 1171.32 1371.06 1176.28 1370.53 1179.57 1372.08 C 1182.37 1373.4 1184.03 1375.23 1185.22 1378.05 C 1195.34 1401.88 1129.27 1585.08 1116.74 1616.54 C 1104.65 1646.88 1072.21 1730.99 1043.4 1743.43 C 1012.7 1745.96 1025.52 1722.81 1033.95 1706.29 C 1038.7 1696.97 1044 1687.73 1048.95 1678.51 C 1084.2 1612.92 1112.44 1543.79 1133.19 1472.28 C 1138.04 1455.32 1142.4 1438.23 1146.25 1421.02 C 1148.92 1409.09 1151.4 1396.09 1154.92 1384.43 C 1157.04 1377.38 1161.46 1374.36 1167.78 1371.34 z"/>
<path transform="translate(0,0)" fill="rgb(34,59,145)" d="M 433.489 963.238 C 454.112 962.826 462.59 983.879 440.146 993.165 C 424.254 999.739 409.179 1003.3 392.778 1008.18 C 345.138 1022.18 298.553 1039.54 253.372 1060.14 C 228.746 1071.2 204.579 1083.77 179.778 1094.94 C 174.726 1095.37 169.699 1095.19 165.058 1092.89 C 161.904 1091.34 159.313 1088.41 158.577 1084.91 C 157.742 1080.94 159.47 1076.94 161.671 1073.72 C 185.389 1039.07 385.092 971.404 433.489 963.238 z"/>
</svg>