<svg version="1.1" xmlns="http://www.w3.org/2000/svg" style="display: block;" viewBox="0 0 2048 2048" width="512" height="512" preserveAspectRatio="none">
<path transform="translate(0,0)" fill="rgb(32,66,177)" d="M 1029 667.593 C 1079.75 662.415 1148.3 676.679 1195.09 697.294 C 1284.26 735.867 1354.29 808.495 1389.6 899.003 C 1465.14 1093.04 1372.5 1287.83 1179.88 1362.54 C 1213.9 1370.12 1247.64 1378.92 1281.04 1388.92 C 1422.74 1429.87 1569.75 1490.6 1669.96 1602.83 C 1690.54 1625.89 1710.82 1652.29 1725.74 1679.34 L 1726.89 1679.15 C 1752.09 1675.18 1815.5 1673.67 1836.46 1688.48 C 1854.14 1700.98 1835.59 1731.07 1810.28 1730.19 C 1792.18 1729.56 1768.32 1729.84 1749.54 1729.84 L 1608.06 1729.84 L 1164.42 1729.84 L 558.356 1729.86 L 358.37 1729.89 C 322.796 1729.89 287.189 1730.1 251.636 1729.61 C 230.226 1729.31 207.314 1723.19 206.211 1697.69 C 205.297 1679.59 207.146 1661.31 207.423 1643.2 C 208.826 1550.86 207.754 1458.41 208.019 1366.05 C 207.743 1334.37 203.029 1307.6 206.62 1275.66 C 209.075 1253.81 228.007 1232.93 250.145 1249.2 C 255.81 1253.37 259.307 1271.99 259.566 1279.65 C 260.252 1300.01 259.57 1320.85 259.527 1341.4 L 259.461 1467.79 L 259.551 1604.48 C 259.561 1624.55 260.537 1658.1 259.019 1677.22 L 258.876 1678.91 C 272.472 1678.18 292.942 1678.67 306.93 1678.6 L 413.64 1678.5 L 715.5 1678.49 L 1361.11 1678.51 L 1563.1 1678.47 L 1626.67 1678.42 C 1638.84 1678.41 1654.15 1677.96 1666.08 1679.08 C 1644.62 1656.48 1629.96 1637.2 1606.28 1614.72 C 1490.62 1504.91 1345.84 1451.07 1193.14 1415.31 C 1153.18 1404.82 1111.15 1398.82 1071.42 1387.99 C 1008.81 1370.93 945.464 1343.84 887.952 1314.26 C 701.436 1218.36 530.992 1086.94 380.872 941.071 C 341.212 902.534 291.976 853.903 259.21 809.92 C 258.905 830.869 263.527 876.941 241.192 887.329 C 231.26 891.948 211.473 881.228 209.228 871.296 C 204.531 850.515 208.563 825.393 208.012 804.004 C 207.409 780.57 206.693 758.246 207.038 734.956 C 208.604 720.79 207.828 709.777 224.119 705.747 C 239.309 701.989 247.27 714.638 256.121 725.263 C 268.798 740.482 281.002 756.14 294.083 771.255 C 390.232 884.534 497.819 987.583 615.134 1078.76 C 652.128 1107.94 688.167 1136.72 728.184 1161.66 C 710.614 1127.64 699.628 1085.78 697.336 1047.52 C 685.99 858.107 838.778 679.883 1029 667.593 z"/>
<path transform="translate(0,0)" fill="rgb(254,213,163)" d="M 1036.03 716.649 C 1051.98 715.576 1067.98 715.741 1083.9 717.144 C 1236.24 730.563 1355.85 853.392 1365.21 1006.03 C 1366.24 1022.68 1365.91 1039.39 1364.23 1055.98 C 1353.69 1160.47 1290.81 1252.45 1197.27 1300.19 C 1182.39 1307.79 1166.92 1314.16 1151.01 1319.26 C 1061.42 1347.94 963.644 1334.26 885.374 1282.07 C 807.103 1229.89 756.864 1144.9 748.886 1051.17 C 747.436 1034.13 747.403 1017 748.787 999.956 C 761.171 847.42 883.34 726.927 1036.03 716.649 z"/>
<path transform="translate(0,0)" fill="rgb(254,213,163)" d="M 748.886 1051.17 C 768.23 1045.35 789.461 1038.6 809.241 1034.81 C 871.552 1022.78 936.105 1032.7 991.933 1062.87 C 1062.15 1101.11 1114.35 1165.61 1137.13 1242.25 C 1142.2 1259.41 1144.97 1274.26 1147.31 1291.76 C 1148.26 1298.84 1149.56 1312.84 1151.01 1319.26 C 1061.42 1347.94 963.644 1334.26 885.374 1282.07 C 807.103 1229.89 756.864 1144.9 748.886 1051.17 z"/>
<path transform="translate(0,0)" fill="rgb(254,213,163)" d="M 1083.9 717.144 C 1236.24 730.563 1355.85 853.392 1365.21 1006.03 C 1313.09 994.272 1254.63 968.988 1211.42 937.464 C 1138.06 883.951 1097.86 805.118 1083.9 717.144 z"/>
<path transform="translate(0,0)" fill="rgb(253,117,2)" d="M 748.787 999.956 C 768.412 994.328 786.265 988.939 806.492 985.48 C 878.259 972.966 952.148 985.26 1016 1020.34 C 1111.57 1073.69 1174.81 1170.06 1193.06 1277.26 C 1194.31 1284.6 1195.48 1293.02 1197.27 1300.19 C 1182.39 1307.79 1166.92 1314.16 1151.01 1319.26 C 1149.56 1312.84 1148.26 1298.84 1147.31 1291.76 C 1144.97 1274.26 1142.2 1259.41 1137.13 1242.25 C 1114.35 1165.61 1062.15 1101.11 991.933 1062.87 C 936.105 1032.7 871.552 1022.78 809.241 1034.81 C 789.461 1038.6 768.23 1045.35 748.886 1051.17 C 747.436 1034.13 747.403 1017 748.787 999.956 z"/>
<path transform="translate(0,0)" fill="rgb(253,117,2)" d="M 1036.03 716.649 C 1051.98 715.576 1067.98 715.741 1083.9 717.144 C 1097.86 805.118 1138.06 883.951 1211.42 937.464 C 1254.63 968.988 1313.09 994.272 1365.21 1006.03 C 1366.24 1022.68 1365.91 1039.39 1364.23 1055.98 C 1188.68 1024.15 1056.47 896.152 1036.03 716.649 z"/>
<path transform="translate(0,0)" fill="rgb(253,117,2)" d="M 1133.28 485.156 C 1138.29 484.614 1143.35 484.658 1148.36 485.287 C 1171.65 488.05 1200.61 497.681 1223 505.831 C 1327.91 543.752 1420.26 610.005 1489.8 697.234 C 1565.11 792.587 1609.97 905.966 1620.26 1027.03 C 1625.61 1090.01 1627.51 1154.2 1624.83 1217.3 C 1624.31 1229.52 1624.54 1241.94 1623.13 1254.09 C 1641.96 1229.49 1669.95 1196.92 1698.96 1185.7 C 1710.87 1188.9 1717.05 1193.36 1725.13 1202.24 C 1727.37 1211.96 1727.85 1219.4 1721.07 1227.9 C 1709.01 1243.01 1694.47 1258.24 1680.52 1271.62 C 1656.8 1294.38 1632.87 1322.28 1606.27 1341.49 C 1595.33 1346.43 1581.19 1336.87 1572.93 1329.52 C 1552.55 1311.4 1534.91 1290.04 1516.7 1269.83 C 1504.14 1257.6 1493.75 1246.22 1481.37 1233.64 C 1464.97 1216.99 1473.35 1189.36 1496.46 1188.16 C 1514.87 1187.21 1531.64 1209.99 1543.91 1222.87 C 1553.46 1232.92 1563.18 1242.82 1573.06 1252.55 C 1570.12 1228.33 1572.29 1180.16 1572.24 1153.97 C 1572.16 1115.06 1573.65 1080.43 1570.98 1040.95 C 1566.31 977.674 1550.89 915.657 1525.37 857.566 C 1471.76 734.282 1364.92 621.135 1240 569.297 C 1217.28 559.632 1193.89 551.667 1169.99 545.468 C 1159.05 542.583 1142.1 540.424 1132.47 536.452 C 1107.6 526.196 1104.82 495.425 1133.28 485.156 z"/>
<path transform="translate(0,0)" fill="rgb(253,117,2)" d="M 795.999 346.002 C 798.613 346.198 800.777 346.453 803.197 347.52 C 824.857 357.066 928.433 454.116 935.663 475.072 C 937.383 480.058 935.95 486.794 933.645 491.374 C 931.419 495.799 928.188 499.926 924.887 503.61 C 909.379 520.921 891.34 536.815 874.684 553.104 C 854.883 572.469 835.365 593.725 813.555 610.796 C 808.351 614.868 803.646 617.252 797.442 619.422 C 722.792 603.897 822.577 526.064 843.951 507.227 C 832.336 509.268 819.89 510.125 808.157 511.812 C 793.281 513.951 778.314 516.495 763.537 519.237 C 702.321 530.447 643.596 552.489 590.122 584.326 C 578.534 591.119 568.649 598.689 557.492 605.455 C 533.855 622.393 510.54 640.921 489.123 660.616 C 477.604 671.208 466.797 682.585 455.183 693.07 C 450.273 697.504 440.69 706.752 433.753 706.266 C 426.737 705.774 417.887 700.232 413.416 694.866 C 409.096 689.681 407.113 683.197 408.106 676.495 C 411.794 651.59 496.946 582.87 520.741 566.02 C 601.491 508.837 701.785 467.925 800.565 459.087 C 817.733 457.551 835.691 455.542 852.766 458.45 C 828.055 437.644 793.032 408.582 777.366 379.674 C 767.946 362.291 780.127 351.962 795.999 346.002 z"/>
<path transform="translate(0,0)" fill="rgb(32,66,177)" d="M 229.487 980.175 C 237.382 980.16 254.63 985.003 255.844 993.25 C 260.47 1024.65 264.417 1100.92 255.579 1128.98 C 249.45 1135.63 245.539 1137.35 236.906 1139.48 C 227.206 1139.83 225.691 1139.09 217.447 1134.7 C 213.476 1129.03 210.327 1123 208.609 1116.26 C 205.992 1106 206.469 996.662 210.374 990.91 C 214.218 985.251 223.107 981.647 229.487 980.175 z"/>
</svg>