<svg version="1.1" xmlns="http://www.w3.org/2000/svg" style="display: block;" viewBox="0 0 2048 2048" width="512" height="512" preserveAspectRatio="none">
<path transform="translate(0,0)" fill="rgb(0,0,168)" d="M 836.578 293.266 C 903.721 291.583 976.404 293.126 1044.13 293.133 L 1142.55 293.093 C 1151.37 293.066 1215.38 291.266 1219.28 296.484 C 1233.56 315.575 1223.81 371.109 1226.81 395.404 C 1228.63 410.1 1226.26 429.021 1217.43 439.857 C 1205.4 444.958 1192.23 443.429 1179.63 441.699 C 1180.18 450.941 1180 465.899 1178.77 474.937 C 1189.33 473.552 1211.94 474.208 1223.57 474.213 L 1304.64 474.233 L 1578.22 474.342 C 1577.03 451.49 1578.86 426.609 1577.89 404.015 C 1576.07 361.672 1590.12 331.619 1630.49 371.013 C 1675.39 414.909 1723.68 456.13 1764.36 504.178 C 1771.34 512.431 1765.78 648.527 1768.07 665.44 C 1772.13 695.28 1768.27 715.087 1747.42 735.761 C 1723.58 759.393 1700.17 785.322 1675.92 808.749 C 1656.98 828.319 1637.56 849.118 1617.15 866.964 C 1569.76 908.397 1576.63 806.937 1578.4 782.308 C 1552 784.573 1501.3 782.979 1473.83 782.946 L 1280.23 782.895 C 1266.01 782.955 1251.78 782.897 1237.56 782.722 C 1226.16 782.499 1182.55 777.999 1180.66 794.392 C 1178.56 812.569 1179.33 835.771 1179.46 854.462 L 1179.7 948.432 L 1179.69 1401.92 L 1179.72 1538.27 C 1179.72 1557.33 1181.38 1588.08 1178.86 1606.31 C 1190.94 1604.92 1224.3 1604.28 1225.19 1619.23 C 1227.4 1656.56 1226.93 1696.98 1226.39 1734.55 C 1226.18 1748.93 1215.56 1752.06 1203.87 1754.03 L 954.443 1753.96 L 886.163 1754.08 C 863.252 1754.34 822.83 1762.31 821.015 1731.22 C 819.084 1698.14 820.64 1664.96 819.848 1631.85 C 819.11 1600.97 844.938 1604.68 866.907 1606.18 C 865.092 1589.22 864.152 1574.17 843.119 1572.71 C 827.97 1571.67 814.2 1572.67 799.009 1573.1 C 784.587 1573.37 770.163 1573.45 755.739 1573.36 L 571.417 1573.33 C 540.364 1573.34 499.993 1574.48 469.985 1572.93 C 471.127 1587.6 470.104 1607.61 470.455 1622.8 C 470.233 1638.49 471.094 1654.22 469.945 1669.88 C 468.744 1686.25 459.295 1690.77 444.903 1693.32 C 427.239 1682.43 394.249 1653.04 377.068 1636.03 C 348.528 1607.76 309.947 1572.25 285.15 1540.26 C 281.893 1531.76 281.167 1520.49 281.082 1511.54 C 280.555 1455.55 280.75 1399.64 282.456 1343.67 C 282.558 1325.32 286.284 1313.26 300.126 1300.48 C 343.747 1260.22 384.152 1212.55 429.052 1174.13 C 471.69 1137.65 472.399 1191.65 470.545 1220.33 C 469.718 1233.13 470.778 1249.87 469.912 1264.05 C 550.781 1262.34 632.348 1264.73 713.274 1263.76 C 754.043 1263.27 795.252 1264.95 835.876 1261.56 C 850.957 1260.1 870.421 1256.8 870.122 1237.36 C 869.173 1175.84 868.917 1114.28 868.915 1052.76 L 868.923 654.383 L 868.788 518.435 C 868.797 493.796 868.262 466.311 869.326 441.864 C 851.213 442.861 845.265 443.762 827.928 438.899 C 813.84 418.907 807.535 303.677 836.578 293.266 z M 1027.12 1507.46 C 1029.37 1537.96 1030.95 1575.97 1028.6 1606.81 C 1057.9 1604.72 1101.91 1606.06 1132.26 1606.09 C 1131.57 1588.65 1132.15 1567.22 1132.15 1549.42 L 1132.16 1440.97 L 1132.2 1109.44 L 1132.23 890.374 C 1132.22 851.141 1121.82 791.794 1147.41 760.001 L 1071.22 759.992 C 1059.61 759.998 1039.78 760.66 1029.12 759.429 C 1030.65 795.031 1029.55 836.52 1029.54 872.621 L 1029.54 1073.68 L 1029.61 1268.78 C 1029.63 1323.31 1030.06 1374.9 1027.24 1429.38 C 1027.01 1455.63 1025.92 1481.22 1027.12 1507.46 z M 1029.03 724.704 C 1043.73 692.057 1066.41 655.114 1101.85 642.774 C 1146.78 627.13 1218.08 631.213 1266.96 631.215 L 1479.52 631.263 C 1506.76 631.278 1550.3 633.428 1575.34 631.657 L 1577.32 631.052 C 1579.06 628.099 1577.71 533.684 1578.37 521.666 C 1552.74 522.809 1520.94 521.973 1494.73 521.974 L 1338.01 521.989 L 1228.71 522.005 C 1204.89 521.997 1180.59 522.327 1156.82 520.38 C 1149.48 519.779 1142.72 516.803 1136.35 513.314 C 1126.61 497.91 1130.76 460.338 1132.7 441.67 C 1121.43 442.406 1105.63 441.985 1094.03 442.019 C 1072.31 442.213 1050.59 442.136 1028.87 441.789 C 1029.92 469.818 1029.52 499.025 1029.54 527.161 L 1029.46 650.29 C 1029.37 671.326 1028.01 704.508 1029.03 724.704 z M 867.609 1653.45 C 868.093 1669.88 868.423 1689.15 866.862 1705.41 C 933.679 1704.53 1001.9 1705.23 1068.81 1705.25 L 1138.61 1705.24 C 1149.59 1705.23 1167.07 1704.79 1177.7 1705.82 C 1179.18 1689.22 1177.22 1670.06 1178.38 1653.7 C 1111.49 1654.83 1042.5 1653.95 975.445 1653.95 L 907.419 1654 C 896.4 1654.02 878.275 1654.53 867.609 1653.45 z M 866.846 393.803 C 905.1 392.69 946.712 393.55 985.184 393.569 L 1175.01 393.615 L 1176.89 393.095 C 1179.36 387.817 1177.69 348.455 1178 340.104 C 1109.93 340.968 1041.03 340.406 972.862 340.401 L 905.997 340.402 C 894.48 340.41 879.618 341.022 868.54 340.093 C 866.245 356.7 869.026 379.33 866.846 393.803 z M 1019.6 1509.14 C 1022.45 1500.9 1020.9 1448.17 1020.8 1435.94 C 1019.48 1414.74 1014.92 1397.48 1005.1 1378.37 C 988.514 1345.93 960.349 1320.9 926.184 1308.24 C 914.456 1304.01 901.193 1301.37 889.019 1297.51 C 855.101 1316.13 841.423 1312.18 803.682 1312.12 L 723.874 1312 C 639.992 1311.97 553.895 1312.98 470.24 1311.92 C 470.711 1339.93 469.993 1368.24 470.187 1396.23 C 470.241 1403.9 469.451 1426.24 470.432 1432.3 C 474.249 1433.53 475.043 1433.49 479.122 1433.75 L 772.117 1433.68 C 798.934 1433.66 825.654 1433.26 852.658 1432.92 C 901.422 1432.33 953.271 1433.99 990.351 1470.34 C 1001.96 1481.71 1009.78 1499.79 1019.6 1509.14 z"/>
<path transform="translate(0,0)" fill="rgb(198,197,197)" d="M 916.269 450.814 C 918.449 447.634 921.592 442.59 925.724 442.109 C 936.955 440.802 948.99 441.272 960.317 441.28 C 983.169 441.194 1006.02 441.364 1028.87 441.789 C 1029.92 469.818 1029.52 499.025 1029.54 527.161 L 1029.46 650.29 C 1029.37 671.326 1028.01 704.508 1029.03 724.704 C 1043.73 692.057 1066.41 655.114 1101.85 642.774 C 1146.78 627.13 1218.08 631.213 1266.96 631.215 L 1479.52 631.263 C 1506.76 631.278 1550.3 633.428 1575.34 631.657 L 1578.04 632.479 C 1579.56 638.29 1579.06 661.024 1579.05 668.6 L 1578.94 735.889 L 1306.04 735.834 L 1237.71 735.693 C 1199.38 735.51 1176.53 730.471 1147.27 759.101 L 1066.52 759.003 C 1060.18 758.995 1034.05 758.699 1029.12 759.429 C 1030.65 795.031 1029.55 836.52 1029.54 872.621 L 1029.54 1073.68 L 1029.61 1268.78 C 1029.63 1323.31 1030.06 1374.9 1027.24 1429.38 C 1026.55 1431.76 1025.93 1434.01 1025.06 1436.34 L 1023.32 1437.07 L 1020.8 1435.94 C 1019.48 1414.74 1014.92 1397.48 1005.1 1378.37 C 988.514 1345.93 960.349 1320.9 926.184 1308.24 C 914.456 1304.01 901.193 1301.37 889.019 1297.51 C 900.147 1286.69 911.727 1273.17 913.795 1257.43 C 917.108 1232.21 916.01 1203.57 916.001 1177.9 L 915.934 1043.08 L 915.934 661.055 C 915.877 591.273 913.76 520.381 916.269 450.814 z"/>
<path transform="translate(0,0)" fill="rgb(198,197,197)" d="M 479.122 1433.75 L 772.117 1433.68 C 798.934 1433.66 825.654 1433.26 852.658 1432.92 C 901.422 1432.33 953.271 1433.99 990.351 1470.34 C 1001.96 1481.71 1009.78 1499.79 1019.6 1509.14 L 1020.97 1509.72 C 1023.47 1508.54 1024.47 1507.73 1027.12 1507.46 C 1029.37 1537.96 1030.95 1575.97 1028.6 1606.81 L 913.172 1606.91 C 913.347 1523.49 865.339 1526.71 798.538 1526.73 L 727.286 1526.79 L 469.261 1526.63 L 469.46 1471.54 C 469.469 1460.32 469.079 1445.53 470.012 1434.67 C 472.227 1433.41 476.176 1433.81 479.122 1433.75 z"/>
<path transform="translate(0,0)" fill="rgb(246,88,0)" d="M 422.534 1250.76 C 425.602 1254.97 422.007 1581.41 423.891 1614.67 L 378.294 1571.14 C 361.649 1555.51 345.652 1538.8 328.926 1523.34 L 329.075 1341.04 C 348.727 1315.13 397.36 1271.12 422.534 1250.76 z"/>
<path transform="translate(0,0)" fill="rgb(246,88,0)" d="M 1624.84 431.989 C 1638.1 439.058 1707.81 512.106 1719.68 526.993 C 1720.79 546.872 1720.07 574.104 1720.06 594.551 C 1720.05 627.357 1720.51 661.415 1719.85 694.116 C 1711.13 706.825 1683.39 733.979 1671.35 746.219 C 1655.36 762.065 1639.65 778.194 1624.23 794.598 C 1625.47 764.983 1624.57 729.164 1624.57 699.023 L 1624.63 528.991 L 1624.43 467.401 C 1624.4 457.95 1623.9 440.784 1624.84 431.989 z"/>
<path transform="translate(0,0)" fill="rgb(103,111,202)" d="M 1020.8 1435.94 L 1023.32 1437.07 L 1025.06 1436.34 C 1025.93 1434.01 1026.55 1431.76 1027.24 1429.38 C 1027.01 1455.63 1025.92 1481.22 1027.12 1507.46 C 1024.47 1507.73 1023.47 1508.54 1020.97 1509.72 L 1019.6 1509.14 C 1022.45 1500.9 1020.9 1448.17 1020.8 1435.94 z"/>
<path transform="translate(0,0)" fill="rgb(246,88,0)" d="M 1404.21 992.926 C 1427.4 992.705 1477.69 1050.57 1494.05 1068.27 C 1503.33 1078.31 1530.47 1102.62 1530.36 1115.48 C 1530.25 1127.78 1514.49 1142.29 1499.52 1138.32 C 1481.16 1133.45 1443.82 1078.52 1432.04 1077.33 C 1430.89 1081.24 1431.67 1115.53 1431.72 1121.66 L 1431.89 1256.13 C 1431.97 1282.34 1439.81 1325.67 1416.08 1342.17 C 1398.16 1347.28 1385.16 1324.98 1382.99 1309.94 C 1378.72 1280.25 1382.72 1251.05 1383.41 1221.27 C 1384.05 1194.07 1383.64 1166.84 1383.75 1139.63 C 1383.62 1119.71 1384.5 1095.41 1383.03 1075.94 C 1369.23 1095.16 1336.18 1129.76 1312.88 1137.78 C 1297.84 1142.95 1291.34 1126.81 1288.47 1114.75 C 1296.81 1083.86 1316.62 1072.2 1337.97 1051.66 C 1360.55 1029.93 1373.94 1005.91 1404.21 992.926 z"/>
<path transform="translate(0,0)" fill="rgb(246,88,0)" d="M 638.237 705.268 C 643.706 705.355 655.432 708.728 657.851 713.382 C 665.574 728.242 663.22 754.675 663.166 770.447 L 663.124 837.533 L 663.078 914.039 C 663.047 935.13 663.335 955.729 661.241 976.748 C 678.349 962.763 727.917 887.095 750.404 936.238 C 752.259 941.509 749.792 952.08 746.437 955.97 C 731.528 973.257 660.262 1050.87 642.544 1054.16 C 634.577 1050.84 627.065 1045.87 620.326 1040.52 C 603.526 1027.19 530.406 958.191 530.499 940.411 C 530.529 934.688 535.233 927.442 539.616 924.026 C 543.939 920.657 548.918 919.415 554.331 920.224 C 576.46 923.532 605.726 960.007 619.011 977.203 C 617.484 964.549 617.857 941.334 617.823 928.008 L 617.758 847.356 C 617.747 812.826 616.818 778.138 616.626 743.63 C 616.535 727.252 619.578 709.741 638.237 705.268 z"/>
</svg>