<svg version="1.1" xmlns="http://www.w3.org/2000/svg" style="display: block;" viewBox="0 0 2048 2048" width="512" height="512" preserveAspectRatio="none">
<path transform="translate(0,0)" fill="rgb(0,53,184)" d="M 1546.67 757.032 C 1570.83 752.991 1630.46 802.324 1651.09 817.326 L 1757.45 893.63 L 1856.63 964.576 C 1875.21 977.821 1901.45 994.978 1917.35 1010.15 C 1923.65 1030.03 1909.61 1046.06 1894.51 1056.83 C 1867.26 1076.28 1838.8 1092.87 1811.43 1112.48 L 1640.17 1234.87 C 1615.2 1252.65 1586.83 1274.89 1559.87 1289.73 C 1542.5 1297.77 1523.59 1272.93 1529.24 1258.01 C 1543.91 1219.18 1565.16 1182.18 1581.94 1144.11 C 1586.66 1133.53 1591.98 1123.69 1597.38 1113.45 C 1584.35 1117 1531.25 1114.31 1514.31 1114.24 C 1487.45 1114.14 1459.09 1114.14 1432.09 1114.14 L 1209.15 1114.15 C 1180.71 1114.18 1152.61 1115.05 1124.21 1115.19 C 1116.28 1115.22 1111.25 1113.67 1103.91 1111.14 C 1092.88 1098.79 1091.65 1077.6 1092.06 1061.36 C 1092.91 1026.97 1089.92 991.022 1093.42 956.881 C 1094.91 942.396 1106.59 933.272 1120.77 932.378 C 1140.6 931.127 1160.77 932.693 1180.84 932.81 L 1302.37 932.841 L 1491.85 932.83 C 1524.84 932.828 1564.11 931.799 1596.52 933.358 C 1586.98 905.48 1523.49 794.668 1529.85 773.583 C 1532.3 765.452 1539.55 760.715 1546.67 757.032 z M 1657.17 1158.87 C 1657.06 1154.82 1657.4 1151.71 1655.58 1148.16 C 1652.86 1145.25 1647.94 1144.42 1643.92 1143.25 C 1640.8 1145.66 1626.29 1177.12 1622.19 1183.85 C 1630.67 1177.43 1648.09 1163.77 1657.17 1158.87 z M 1636.94 888.611 C 1641.74 887.468 1646.51 885.463 1651.15 883.699 C 1648.3 880.278 1628.42 867.036 1622.98 862.846 C 1626.15 868.507 1634.11 887.401 1636.94 888.611 z"/>
<path transform="translate(0,0)" fill="rgb(222,223,233)" d="M 1651.15 883.699 C 1662.88 889.488 1678.94 902.057 1689.76 909.916 C 1702.83 919.405 1715.94 928.826 1729.07 938.239 C 1748.5 952.218 1768.03 966.051 1787.66 979.737 C 1808.27 994.152 1828.36 1007.76 1846.93 1024.84 C 1799.56 1052.36 1761.43 1082.04 1717.98 1114.83 C 1704.36 1125.11 1670.83 1151.14 1657.17 1158.87 C 1657.06 1154.82 1657.4 1151.71 1655.58 1148.16 C 1652.86 1145.25 1647.94 1144.42 1643.92 1143.25 L 1643.38 1142.73 C 1644.09 1130.84 1666.66 1097.56 1669.33 1082.76 C 1672.36 1065.94 1656.88 1063.77 1643.53 1062.5 C 1620.34 1060.3 1596.38 1060.84 1573.06 1060.83 L 1476.02 1060.84 L 1145.15 1060.72 C 1145.63 1035.53 1145.43 1010.33 1144.54 985.154 C 1256.22 987.268 1368.17 985.704 1479.87 985.698 C 1504.57 985.697 1642.42 988.553 1654.88 983.738 C 1659.67 981.888 1663.72 978.494 1665.67 973.664 C 1674.46 951.884 1644.15 910.504 1636.33 890.391 L 1636.94 888.611 C 1641.74 887.468 1646.51 885.463 1651.15 883.699 z"/>
<path transform="translate(0,0)" fill="rgb(0,53,184)" d="M 491.861 756.171 C 510.238 755.71 524.855 771.311 518.204 788.86 C 504.614 824.715 484.189 859.062 467.819 893.812 C 461.658 906.89 455.265 920.419 448.614 932.946 L 751.332 932.857 L 843.002 932.809 C 862.376 932.657 881.957 931.084 901.022 933.27 C 914.479 934.813 923.718 944.181 925.257 957.41 C 927.388 975.721 926.071 995.883 926.106 1014.43 C 926.146 1035.19 926.529 1056.09 925.478 1076.8 C 923.929 1098.34 919.595 1114.54 894.506 1114.5 C 867.03 1114.45 839.724 1114.16 812.35 1114.15 L 630.261 1114.15 L 507.693 1114.18 C 493.149 1114.21 461.492 1115.3 448.395 1113.86 C 453.955 1125.62 461.647 1140.13 468.024 1151.45 C 476.847 1168.88 485.863 1186.2 495.073 1203.43 C 510.545 1232.43 541.783 1274.97 492.479 1288.2 C 488.187 1286.15 483.957 1283.98 479.796 1281.67 C 460.674 1270.86 423.4 1243.4 404.527 1230.3 L 267.908 1135.78 C 249.016 1122.66 230.037 1109.12 210.82 1096.52 C 190.84 1083.18 168.108 1071.59 149.731 1056 C 129.031 1038.44 112.855 1019.54 141.067 999.108 C 164.492 982.14 187.91 965.306 211.358 948.584 L 335.218 860.217 C 361.236 841.68 387.118 822.928 413.131 804.39 C 438.071 786.616 461.504 763.496 491.861 756.171 z M 406.802 899.504 C 411.632 888.315 422.444 869.369 428.74 858.577 C 416.831 866.03 402.204 877.245 390.814 885.606 C 396.794 892.287 398.913 894.715 406.802 899.504 z M 389.915 1155.05 C 400.381 1162.57 410.717 1170.28 420.919 1178.16 C 415.268 1166.66 408.905 1154.73 403.117 1143.13 C 398.677 1147.06 394.276 1151.03 389.915 1155.05 z"/>
<path transform="translate(0,0)" fill="rgb(222,223,233)" d="M 390.814 885.606 C 396.794 892.287 398.913 894.715 406.802 899.504 C 402.817 908.207 398.565 916.312 394.236 925.071 C 385.818 942.296 372.725 970.899 396.707 982.09 C 402.627 984.852 414.1 985.456 420.859 985.615 C 470.439 986.782 520.099 985.865 569.692 985.739 L 873.591 985.821 C 872.559 1007.35 872.727 1039.13 873.403 1060.88 L 558.874 1060.84 L 471.434 1060.75 C 450.926 1060.61 431.275 1059.35 410.709 1061.39 C 393.625 1063.08 380.671 1072.19 382.176 1090.96 C 383.673 1109.61 395.842 1126.37 403.117 1143.13 C 398.677 1147.06 394.276 1151.03 389.915 1155.05 C 381.495 1150.98 353.384 1130.74 343.922 1124.16 L 251.16 1059.74 C 237.207 1050.07 213.615 1032.75 199.756 1025.06 C 247.787 986.999 299.892 952.913 348.803 915.857 C 362.27 905.654 376.699 894.793 390.814 885.606 z"/>
<path transform="translate(0,0)" fill="rgb(254,109,0)" d="M 1265.5 1254.39 C 1285.89 1252.46 1317.47 1251.53 1333.75 1265.5 C 1343.74 1274.08 1344.04 1288.24 1334.48 1297.48 C 1321.94 1309.61 1308.32 1306.95 1292.52 1306.89 C 1283.51 1306.84 1274.85 1306.84 1266.05 1306.83 L 1154.08 1306.77 L 778.884 1306.78 C 761.475 1306.96 705.061 1311.03 703.533 1284.4 C 701.504 1249.06 752.306 1255.89 775.599 1255.94 L 853.79 1256.04 L 1120.33 1256 L 1202.33 1256.04 C 1222.48 1256.03 1245.56 1256.27 1265.5 1254.39 z"/>
<path transform="translate(0,0)" fill="rgb(254,109,0)" d="M 721.724 738.325 C 747.509 737.12 780.959 738.113 807.523 738.12 L 972.868 738.166 L 1102.42 738.034 C 1129.76 737.933 1157.83 737.53 1185.15 738.734 C 1198.14 739.307 1200.56 740.772 1208.72 750.079 C 1210.09 755.741 1210.71 760.71 1211.48 766.444 C 1211.18 767.241 1210.86 768.036 1210.54 768.827 C 1205.54 781.009 1201.86 784.9 1190.16 789.826 C 1175.08 791.024 1150.74 789.871 1134.82 789.838 L 1022 789.828 L 832.744 789.837 C 801.508 789.848 770.168 790.036 738.935 789.914 C 733.375 789.892 721.421 788.974 716.432 786.753 C 707.735 782.882 704.19 774.759 701.227 766.527 C 703.156 752.592 708.287 743.556 721.724 738.325 z"/>
</svg>