<svg version="1.1" xmlns="http://www.w3.org/2000/svg" style="display: block;" viewBox="0 0 2048 2048" width="512" height="512" preserveAspectRatio="none">
<path transform="translate(0,0)" fill="rgb(1,71,219)" d="M 298.357 494.499 C 296.066 468.472 296.767 441.303 296.184 415.177 C 295.619 389.816 294.839 363.792 297.305 338.639 C 299.251 318.785 322.276 315.343 335.687 326.562 C 344.063 333.569 343.197 344.182 343.897 354.146 C 344.253 381.466 344.088 409.077 344.09 436.469 L 344.078 591.632 L 344.066 1054.51 L 344.068 1414.24 L 344.071 1530.82 C 344.073 1549.34 344.834 1574.58 343.908 1592.41 C 375.673 1591.4 410.092 1592.06 442.155 1592.06 L 615.111 1592.06 L 1137.68 1592.08 L 1559.65 1592.07 L 1697.74 1592.06 C 1720.03 1592.06 1742.27 1591.6 1764.6 1592 C 1779.1 1592.27 1803.67 1596.48 1803.16 1615.37 C 1802.78 1629.74 1794.11 1638.23 1779.78 1639.02 C 1748.63 1640.74 1716.85 1638.6 1685.59 1639.22 C 1679.78 1639.34 1673.73 1639.36 1667.95 1638.81 L 1666.89 1638.7 C 1665.26 1658.97 1663.04 1676.4 1641.33 1683.39 C 1621.9 1677.29 1617.33 1657.05 1616.17 1638.9 C 1598.98 1641.16 1556.28 1640.51 1538.77 1638.64 C 1535.18 1641.66 1536.22 1660.67 1532.61 1667.61 C 1517.24 1697.11 1489.2 1677.32 1488.67 1650.92 C 1488.61 1648.11 1488.99 1641.78 1488.16 1639.34 L 1485.19 1638.65 C 1470.02 1639.66 1426.89 1639.68 1411.77 1638.6 C 1408.39 1641.88 1413.09 1683.35 1385.44 1679.51 C 1360.15 1676.01 1357.95 1660.87 1361.55 1638.58 C 1349.26 1640.54 1296.49 1639.65 1282.78 1638.53 L 1281.92 1639.94 C 1281.84 1644.71 1281.47 1655.71 1280.3 1659.73 C 1275.82 1675.01 1256.36 1691.2 1242.54 1675.87 C 1231.75 1663.91 1231.83 1652.92 1232.02 1638.46 C 1217.21 1640.29 1170.86 1639.7 1155.74 1638.74 C 1153.31 1640.68 1154.59 1650.53 1153.98 1654.31 C 1153.23 1660.64 1151.37 1669.02 1146.28 1673.51 C 1136.33 1682.28 1120.08 1682.31 1111.57 1671.36 C 1103.53 1661.02 1104.29 1650.63 1105.62 1638.6 C 1095.67 1640.14 1039.07 1638.89 1027.77 1638.07 C 1027.52 1638.6 1026.73 1655.18 1026.16 1658.77 C 1023.09 1677.91 1011.2 1681.9 993.67 1679.99 C 979.854 1668.72 979.591 1656.56 980.195 1639.98 C 979.651 1639.59 978.783 1638.89 978.22 1638.65 C 961.603 1639.62 917.312 1639.91 901.777 1638.54 C 894.536 1645.48 911.541 1682.64 870.256 1680.94 C 860.147 1674.73 852.705 1665.54 852.064 1653 C 851.823 1648.3 853.191 1643.91 851.899 1639.36 L 849.198 1638.62 C 833.559 1639.8 791.696 1639.45 775.78 1638.45 L 774.225 1639.66 C 773.854 1645.83 772.079 1658.85 769.148 1664.21 C 751.909 1695.75 725.4 1682.57 724.083 1650.5 C 723.959 1647.49 724.371 1642.25 723.678 1639.33 L 721.215 1638.58 C 703.438 1639.76 660.326 1639.85 642.773 1638.56 L 641.352 1639.99 C 644.225 1658.3 639.047 1679.38 616.307 1681.88 C 611.004 1681.99 607.008 1679.38 603.485 1676.05 C 591.47 1664.68 596.262 1651.32 594.095 1638.55 C 584.158 1639.44 567.712 1639.09 557.459 1639.1 C 542.721 1639.12 525.539 1639.57 510.973 1638.65 L 510.603 1639.98 C 512.285 1645.63 512.003 1651.88 511.716 1657.7 C 510.732 1677.66 497.344 1681.6 479.389 1679.98 C 464.737 1669.94 463.472 1655.03 465.588 1638.88 C 458.995 1639.32 451.045 1639.41 444.431 1639.32 C 411.163 1638.84 377.216 1640.35 344.02 1639 C 344.364 1657.95 344.51 1681.27 343.764 1700.04 C 336.366 1709.94 315.863 1722.68 306.312 1710.58 C 294.016 1694.99 297.938 1657.91 298.187 1637.91 C 279.296 1639.36 234.516 1631.94 257.681 1601.86 C 265.649 1591.52 285.522 1591.71 298.103 1591.91 C 296.275 1563.13 298.612 1529.78 297.45 1499.95 C 285.503 1500.36 269.799 1503.05 260.772 1494.19 C 256.175 1489.68 252.067 1482.68 252.196 1476.09 C 252.657 1452.49 281.794 1455.49 298.098 1456.24 C 296.437 1431.82 297.022 1385.68 298.075 1360.95 C 290.19 1362.87 283.054 1364.11 274.854 1362.88 C 262.144 1361.46 249.316 1348.12 253.58 1334.68 C 260.195 1313.84 282.381 1317.03 297.959 1322.44 C 297.309 1293.47 296.537 1252.18 297.837 1223.92 C 290.085 1224.19 283.347 1224.49 275.304 1223.9 C 253.13 1222.27 241.447 1200.41 261.511 1185.88 C 271.85 1178.4 286.112 1179.24 298.507 1181.44 C 296.445 1165.04 297.07 1101.62 298.412 1084.8 C 294.225 1083.49 281.542 1090.76 274.905 1089.39 C 245.5 1083.36 247.203 1038.74 280.305 1041.91 C 286.328 1042.48 290.793 1044.75 296.368 1045.81 L 297.87 1046.08 C 296.391 1018.17 296.682 975.194 297.983 947.164 C 284.076 949.624 266.938 952.806 257.386 938.919 C 254.039 934.018 252.936 927.924 254.353 922.16 C 259.322 901.383 281.885 902.598 298.045 906.913 C 296.646 885.407 295.327 828.142 298.391 807.961 C 295.479 807.35 288.756 810.458 285.599 811.639 C 258.962 821.652 242.536 779.915 266.968 767.661 C 277.081 762.589 288.609 766.949 298.214 770.773 C 296.868 756.484 297.364 734.25 297.275 719.537 C 297.193 705.909 296.76 682.916 298.272 669.942 L 297.002 669.575 C 281.995 678.311 272.162 679.193 260.686 664.552 C 253.06 654.824 251.243 639.785 262.992 632.419 C 273.658 625.732 286.816 628.479 298.449 630.613 C 296.966 620.732 297.143 598.889 297.191 588.924 C 297.283 569.866 297.02 549.642 297.977 530.728 C 298.943 523.76 300.022 501.116 298.357 494.499 z"/>
<path transform="translate(0,0)" fill="rgb(3,32,187)" d="M 298.103 1591.91 C 301.742 1611.98 298.708 1620.47 298.187 1637.91 C 279.296 1639.36 234.516 1631.94 257.681 1601.86 C 265.649 1591.52 285.522 1591.71 298.103 1591.91 z"/>
<path transform="translate(0,0)" fill="rgb(3,32,187)" d="M 1232.02 1638.46 C 1239.63 1637.08 1278.42 1636.31 1282.78 1638.53 L 1281.92 1639.94 C 1281.84 1644.71 1281.47 1655.71 1280.3 1659.73 C 1275.82 1675.01 1256.36 1691.2 1242.54 1675.87 C 1231.75 1663.91 1231.83 1652.92 1232.02 1638.46 z"/>
<path transform="translate(0,0)" fill="rgb(3,32,187)" d="M 721.215 1638.58 C 726.808 1636.88 771.917 1636.58 775.78 1638.45 L 774.225 1639.66 C 773.854 1645.83 772.079 1658.85 769.148 1664.21 C 751.909 1695.75 725.4 1682.57 724.083 1650.5 C 723.959 1647.49 724.371 1642.25 723.678 1639.33 L 721.215 1638.58 z"/>
<path transform="translate(0,0)" fill="rgb(3,32,187)" d="M 1361.55 1638.58 C 1368.88 1637.17 1407.21 1636.06 1411.77 1638.6 C 1408.39 1641.88 1413.09 1683.35 1385.44 1679.51 C 1360.15 1676.01 1357.95 1660.87 1361.55 1638.58 z"/>
<path transform="translate(0,0)" fill="rgb(3,32,187)" d="M 297.837 1223.92 C 290.085 1224.19 283.347 1224.49 275.304 1223.9 C 253.13 1222.27 241.447 1200.41 261.511 1185.88 C 271.85 1178.4 286.112 1179.24 298.507 1181.44 C 299.829 1195.44 298.889 1209.92 297.837 1223.92 z"/>
<path transform="translate(0,0)" fill="rgb(3,32,187)" d="M 298.412 1084.8 C 294.225 1083.49 281.542 1090.76 274.905 1089.39 C 245.5 1083.36 247.203 1038.74 280.305 1041.91 C 286.328 1042.48 290.793 1044.75 296.368 1045.81 L 297.87 1046.08 C 299.784 1050.91 299.582 1080.45 298.412 1084.8 z"/>
<path transform="translate(0,0)" fill="rgb(3,32,187)" d="M 297.45 1499.95 C 285.503 1500.36 269.799 1503.05 260.772 1494.19 C 256.175 1489.68 252.067 1482.68 252.196 1476.09 C 252.657 1452.49 281.794 1455.49 298.098 1456.24 C 298.209 1467.76 298.912 1488.89 297.45 1499.95 z"/>
<path transform="translate(0,0)" fill="rgb(3,32,187)" d="M 1105.62 1638.6 C 1112.8 1637.08 1150.75 1636.7 1155.74 1638.74 C 1153.31 1640.68 1154.59 1650.53 1153.98 1654.31 C 1153.23 1660.64 1151.37 1669.02 1146.28 1673.51 C 1136.33 1682.28 1120.08 1682.31 1111.57 1671.36 C 1103.53 1661.02 1104.29 1650.63 1105.62 1638.6 z"/>
<path transform="translate(0,0)" fill="rgb(3,32,187)" d="M 1485.19 1638.65 C 1492.96 1637.38 1534.18 1636.23 1538.77 1638.64 C 1535.18 1641.66 1536.22 1660.67 1532.61 1667.61 C 1517.24 1697.11 1489.2 1677.32 1488.67 1650.92 C 1488.61 1648.11 1488.99 1641.78 1488.16 1639.34 L 1485.19 1638.65 z"/>
<path transform="translate(0,0)" fill="rgb(3,32,187)" d="M 594.095 1638.55 C 601.63 1637.2 638.528 1636.33 642.773 1638.56 L 641.352 1639.99 C 644.225 1658.3 639.047 1679.38 616.307 1681.88 C 611.004 1681.99 607.008 1679.38 603.485 1676.05 C 591.47 1664.68 596.262 1651.32 594.095 1638.55 z"/>
<path transform="translate(0,0)" fill="rgb(3,32,187)" d="M 849.198 1638.62 C 855.021 1637.49 898.663 1636.98 901.777 1638.54 C 894.536 1645.48 911.541 1682.64 870.256 1680.94 C 860.147 1674.73 852.705 1665.54 852.064 1653 C 851.823 1648.3 853.191 1643.91 851.899 1639.36 L 849.198 1638.62 z"/>
<path transform="translate(0,0)" fill="rgb(3,32,187)" d="M 298.272 669.942 L 297.002 669.575 C 281.995 678.311 272.162 679.193 260.686 664.552 C 253.06 654.824 251.243 639.785 262.992 632.419 C 273.658 625.732 286.816 628.479 298.449 630.613 C 299.46 635.046 299.685 666.63 298.272 669.942 z"/>
<path transform="translate(0,0)" fill="rgb(3,32,187)" d="M 298.075 1360.95 C 290.19 1362.87 283.054 1364.11 274.854 1362.88 C 262.144 1361.46 249.316 1348.12 253.58 1334.68 C 260.195 1313.84 282.381 1317.03 297.959 1322.44 C 299.59 1335.74 299.182 1347.62 298.075 1360.95 z"/>
<path transform="translate(0,0)" fill="rgb(3,32,187)" d="M 298.391 807.961 C 295.479 807.35 288.756 810.458 285.599 811.639 C 258.962 821.652 242.536 779.915 266.968 767.661 C 277.081 762.589 288.609 766.949 298.214 770.773 C 299.727 775.322 299.525 803.698 298.391 807.961 z"/>
<path transform="translate(0,0)" fill="rgb(3,32,187)" d="M 978.22 1638.65 C 982.194 1636.67 1021.21 1637.78 1027.77 1638.07 C 1027.52 1638.6 1026.73 1655.18 1026.16 1658.77 C 1023.09 1677.91 1011.2 1681.9 993.67 1679.99 C 979.854 1668.72 979.591 1656.56 980.195 1639.98 C 979.651 1639.59 978.783 1638.89 978.22 1638.65 z"/>
<path transform="translate(0,0)" fill="rgb(3,32,187)" d="M 297.983 947.164 C 284.076 949.624 266.938 952.806 257.386 938.919 C 254.039 934.018 252.936 927.924 254.353 922.16 C 259.322 901.383 281.885 902.598 298.045 906.913 C 298.551 921.518 298.947 932.564 297.983 947.164 z"/>
<path transform="translate(0,0)" fill="rgb(3,32,187)" d="M 465.588 1638.88 C 470.6 1638.04 507.148 1637.09 510.973 1638.65 L 510.603 1639.98 C 512.285 1645.63 512.003 1651.88 511.716 1657.7 C 510.732 1677.66 497.344 1681.6 479.389 1679.98 C 464.737 1669.94 463.472 1655.03 465.588 1638.88 z"/>
<path transform="translate(0,0)" fill="rgb(3,32,187)" d="M 1616.17 1638.9 C 1630.18 1638.34 1653.04 1637.34 1666.89 1638.7 C 1665.26 1658.97 1663.04 1676.4 1641.33 1683.39 C 1621.9 1677.29 1617.33 1657.05 1616.17 1638.9 z"/>
<path transform="translate(0,0)" fill="rgb(3,32,187)" d="M 1068.31 926.152 C 1067.85 940.886 1073.76 955.102 1084.53 965.175 C 1070.43 980.657 1052.8 990.911 1040.19 1009.45 C 993.191 1078.51 971.645 1160.9 933.585 1235.34 C 935.082 1251.19 936.57 1259.48 928.902 1274.47 C 919.132 1293.57 901.177 1289.23 886.261 1299.41 C 881.879 1302.4 874.403 1313.2 869.803 1316.87 C 864.911 1321.97 850.35 1333.46 847.423 1338.47 C 839.513 1351.99 837.996 1365.5 824.632 1376.66 C 815.797 1384.03 804.584 1388.5 792.727 1387.03 C 779.257 1385.36 768.032 1376.93 759.915 1366.48 C 743.123 1366.8 717.751 1367.68 701.469 1366.33 C 699.772 1368.82 698.034 1371.28 696.257 1373.72 C 660.313 1422.29 592.877 1359.63 628.975 1319.66 C 650.557 1295.76 680.129 1302.6 701.762 1322.98 C 721.348 1322.83 740.936 1322.84 760.523 1323 C 760.798 1322.25 761.088 1321.51 761.393 1320.77 C 771.868 1295.62 798.327 1292.72 820.508 1303.53 C 830.455 1293.26 840.852 1282.4 849.804 1271.29 C 844.181 1237.9 857.539 1203.96 897.638 1210.22 C 897.801 1209.83 897.964 1209.44 898.128 1209.04 C 948.415 1113.19 969.122 984.803 1068.31 926.152 z"/>
<path transform="translate(0,0)" fill="rgb(3,32,187)" d="M 1552.9 795.603 C 1562.5 780.982 1570.45 766.836 1589.22 763.265 C 1602.7 760.466 1614.69 764.177 1626.06 771.332 C 1657.06 790.849 1640.35 840.898 1606.93 845.561 C 1595.76 847.119 1579.73 841.496 1569.66 836.605 C 1546.31 844.855 1523.22 853.829 1500.43 863.515 C 1487.35 895.057 1482.22 896.781 1448.79 900.626 C 1418.98 931.256 1392.96 966.623 1364.8 998.731 C 1360.32 1003.84 1356.29 1008.74 1351.36 1013.47 C 1354.96 1025.48 1355.4 1033.26 1349.29 1045.09 C 1338.62 1065.84 1308.38 1073.81 1288.77 1061.54 C 1279.27 1055.6 1272.74 1044.05 1263.74 1037.72 C 1228.08 1012.67 1193.15 987.245 1157.21 962.583 C 1167.09 951.916 1171.98 937.556 1170.67 923.075 C 1190.13 926.401 1235.57 966.059 1253.02 978.399 C 1260.64 983.785 1269.57 989.968 1277.65 995.295 C 1290.9 981.3 1302.06 978.565 1321.04 982.245 C 1337.16 954.015 1369.21 920.32 1391.61 896.279 C 1399.37 887.953 1408.66 879.686 1416.26 871.268 C 1415.29 854.975 1417.22 836.326 1428.71 823.815 C 1445.04 806.027 1467.52 810.112 1485.01 823.46 C 1506.13 808.108 1528.51 803.299 1552.9 795.603 z"/>
<path transform="translate(0,0)" fill="rgb(254,106,0)" d="M 498.733 1366.6 C 528.138 1364.68 553.581 1386.85 555.706 1416.24 C 557.831 1445.63 535.842 1471.23 506.467 1473.56 C 476.798 1475.92 450.887 1453.66 448.741 1423.97 C 446.595 1394.29 469.034 1368.54 498.733 1366.6 z"/>
<path transform="translate(0,0)" fill="rgb(255,173,69)" d="M 501.432 1406.61 C 508.817 1406.46 514.959 1412.26 515.246 1419.64 C 515.533 1427.02 509.859 1433.27 502.485 1433.69 C 497.589 1433.98 492.921 1431.6 490.28 1427.46 C 487.638 1423.33 487.435 1418.09 489.747 1413.77 C 492.06 1409.45 496.529 1406.71 501.432 1406.61 z"/>
<path transform="translate(0,0)" fill="rgb(254,106,0)" d="M 1267.8 1393.35 C 1297.18 1390.16 1323.59 1411.38 1326.81 1440.76 C 1330.04 1470.13 1308.86 1496.57 1279.48 1499.83 C 1250.05 1503.1 1223.56 1481.87 1220.33 1452.44 C 1217.1 1423.01 1238.36 1396.54 1267.8 1393.35 z"/>
<path transform="translate(0,0)" fill="rgb(255,173,69)" d="M 1269.7 1433.55 C 1274.57 1432.24 1279.78 1433.66 1283.31 1437.27 C 1286.84 1440.88 1288.14 1446.11 1286.73 1450.96 C 1285.31 1455.81 1281.38 1459.51 1276.46 1460.64 C 1269.04 1462.36 1261.62 1457.81 1259.77 1450.42 C 1257.93 1443.03 1262.34 1435.53 1269.7 1433.55 z"/>
<path transform="translate(0,0)" fill="rgb(254,106,0)" d="M 988.945 1275.54 C 1018.23 1271.53 1045.16 1292.16 1048.92 1321.48 C 1052.68 1350.8 1031.81 1377.55 1002.46 1381.05 C 973.472 1384.51 947.112 1363.96 943.402 1335 C 939.692 1306.04 960.019 1279.5 988.945 1275.54 z"/>
<path transform="translate(0,0)" fill="rgb(255,173,69)" d="M 993.917 1314.07 C 1016.06 1317.28 1014.27 1332.61 997.647 1343.21 C 978 1341.28 976.289 1321.97 993.917 1314.07 z"/>
<path transform="translate(0,0)" fill="rgb(254,106,0)" d="M 1432.1 1241.4 C 1461.3 1239.21 1486.77 1261.05 1489.08 1290.24 C 1491.38 1319.43 1469.65 1344.99 1440.47 1347.41 C 1411.12 1349.85 1385.38 1327.97 1383.06 1298.61 C 1380.75 1269.25 1402.73 1243.6 1432.1 1241.4 z"/>
<path transform="translate(0,0)" fill="rgb(255,173,69)" d="M 1431.17 1280.53 C 1438.73 1277.71 1447.14 1281.54 1449.99 1289.09 C 1452.83 1296.64 1449.03 1305.07 1441.49 1307.94 C 1433.91 1310.83 1425.43 1307.01 1422.57 1299.42 C 1419.71 1291.83 1423.57 1283.36 1431.17 1280.53 z"/>
<path transform="translate(0,0)" fill="rgb(254,106,0)" d="M 1626.04 1087.4 C 1655.19 1083.57 1681.9 1104.16 1685.61 1133.33 C 1689.32 1162.49 1668.63 1189.12 1639.46 1192.72 C 1610.43 1196.31 1583.97 1175.75 1580.28 1146.74 C 1576.58 1117.73 1597.05 1091.2 1626.04 1087.4 z"/>
<path transform="translate(0,0)" fill="rgb(255,173,69)" d="M 1626.65 1127.06 C 1646.43 1126.23 1655.67 1138.98 1638.88 1153.74 C 1619.89 1157.27 1611.88 1140.97 1626.65 1127.06 z"/>
<path transform="translate(0,0)" fill="rgb(254,106,0)" d="M 1483.41 989.43 C 1512.4 988.155 1537.03 1010.41 1538.69 1039.39 C 1540.35 1068.36 1518.42 1093.28 1489.47 1095.32 C 1470.4 1096.67 1452.09 1087.65 1441.53 1071.71 C 1430.97 1055.78 1429.8 1035.39 1438.47 1018.36 C 1447.15 1001.32 1464.31 990.27 1483.41 989.43 z"/>
<path transform="translate(0,0)" fill="rgb(255,173,69)" d="M 1480.18 1029.59 C 1485 1027.69 1490.48 1028.53 1494.52 1031.79 C 1498.56 1035.05 1500.53 1040.22 1499.7 1045.34 C 1498.86 1050.46 1495.34 1054.74 1490.47 1056.54 C 1483.06 1059.29 1474.81 1055.55 1471.99 1048.16 C 1469.16 1040.78 1472.82 1032.49 1480.18 1029.59 z"/>
<path transform="translate(0,0)" fill="rgb(254,106,0)" d="M 540.428 1137.43 C 569.018 1133.42 595.475 1153.27 599.612 1181.84 C 603.749 1210.41 584.01 1236.95 555.456 1241.21 C 526.729 1245.5 499.992 1225.61 495.83 1196.87 C 491.668 1168.12 511.666 1141.47 540.428 1137.43 z"/>
<path transform="translate(0,0)" fill="rgb(255,173,69)" d="M 542.966 1177.02 C 561.16 1175 567.481 1189.86 550.685 1201.79 C 536.81 1205.29 524.293 1187.63 542.966 1177.02 z"/>
<path transform="translate(0,0)" fill="rgb(254,106,0)" d="M 1182.75 1146.68 C 1211.36 1142.46 1237.97 1162.2 1242.24 1190.8 C 1246.5 1219.39 1226.8 1246.04 1198.21 1250.35 C 1169.55 1254.66 1142.84 1234.91 1138.57 1206.25 C 1134.3 1177.59 1154.09 1150.91 1182.75 1146.68 z"/>
<path transform="translate(0,0)" fill="rgb(255,173,69)" d="M 1187.09 1185.83 C 1205.73 1186.77 1209.21 1206.46 1194.17 1214.66 C 1188.22 1214.01 1182.88 1212.81 1179.24 1207.54 C 1177.35 1204.82 1176.67 1201.45 1177.37 1198.21 C 1178.6 1192.24 1182.35 1189.05 1187.09 1185.83 z"/>
<path transform="translate(0,0)" fill="rgb(254,106,0)" d="M 1238.6 767.211 C 1267.31 764.052 1293.14 784.766 1296.3 813.478 C 1299.46 842.189 1278.75 868.025 1250.03 871.183 C 1221.32 874.34 1195.49 853.626 1192.33 824.916 C 1189.17 796.205 1209.89 770.371 1238.6 767.211 z"/>
<path transform="translate(0,0)" fill="rgb(255,173,69)" d="M 1239.1 805.694 C 1246.74 802.789 1255.28 806.649 1258.15 814.302 C 1261.02 821.955 1257.12 830.481 1249.45 833.312 C 1241.84 836.124 1233.38 832.254 1230.53 824.654 C 1227.69 817.054 1231.51 808.58 1239.1 805.694 z"/>
<path transform="translate(0,0)" fill="rgb(254,106,0)" d="M 1618.47 1393.47 C 1646.82 1390.65 1672.2 1411.09 1675.47 1439.4 C 1678.74 1467.71 1658.7 1493.41 1630.45 1497.13 C 1611.77 1499.59 1593.21 1491.79 1581.9 1476.72 C 1570.59 1461.65 1568.28 1441.66 1575.86 1424.41 C 1583.43 1407.16 1599.72 1395.33 1618.47 1393.47 z"/>
<path transform="translate(0,0)" fill="rgb(255,173,69)" d="M 1620.11 1430.54 C 1625.33 1429.32 1630.81 1431.01 1634.43 1434.96 C 1638.06 1438.91 1639.29 1444.51 1637.63 1449.61 C 1635.98 1454.72 1631.71 1458.54 1626.46 1459.61 C 1618.48 1461.24 1610.68 1456.16 1608.94 1448.2 C 1607.2 1440.25 1612.18 1432.38 1620.11 1430.54 z"/>
<path transform="translate(0,0)" fill="rgb(254,106,0)" d="M 1690.18 890.463 C 1718.47 887.364 1743.97 907.632 1747.33 935.887 C 1750.7 964.142 1730.68 989.834 1702.45 993.468 C 1673.85 997.152 1647.74 976.797 1644.32 948.161 C 1640.91 919.525 1661.51 893.604 1690.18 890.463 z"/>
<path transform="translate(0,0)" fill="rgb(255,173,69)" d="M 1692.29 928.571 C 1699.7 926.869 1707.12 931.356 1709.06 938.709 C 1711 946.062 1706.75 953.626 1699.47 955.798 C 1694.54 957.266 1689.21 955.935 1685.55 952.324 C 1681.89 948.714 1680.49 943.397 1681.89 938.453 C 1683.29 933.508 1687.28 929.721 1692.29 928.571 z"/>
<path transform="translate(0,0)" fill="rgb(254,106,0)" d="M 1686.95 662.355 C 1714.98 657.197 1741.88 675.759 1747 703.795 C 1752.12 731.831 1733.52 758.703 1705.48 763.787 C 1677.49 768.861 1650.68 750.306 1645.56 722.323 C 1640.45 694.339 1658.97 667.504 1686.95 662.355 z"/>
<path transform="translate(0,0)" fill="rgb(255,173,69)" d="M 1690.33 700.596 C 1697.84 697.634 1706.34 701.267 1709.39 708.746 C 1712.45 716.225 1708.91 724.768 1701.47 727.908 C 1696.58 729.972 1690.95 729.247 1686.74 726.008 C 1682.53 722.769 1680.39 717.517 1681.13 712.257 C 1681.88 706.998 1685.39 702.544 1690.33 700.596 z"/>
<path transform="translate(0,0)" fill="rgb(254,106,0)" d="M 1068.31 926.152 C 1069.13 899.041 1090.93 877.26 1118.04 876.445 C 1145.15 875.63 1168.21 896.062 1170.67 923.075 C 1171.98 937.556 1167.09 951.916 1157.21 962.583 C 1137.89 983.441 1105.29 984.603 1084.53 965.175 C 1073.76 955.102 1067.85 940.886 1068.31 926.152 z"/>
<path transform="translate(0,0)" fill="rgb(255,173,69)" d="M 1117.02 914.054 C 1137.09 917.417 1141.6 930.225 1123.69 942.115 C 1116.68 941.796 1110.42 939.509 1107.3 932.674 C 1105.89 929.654 1105.75 926.199 1106.9 923.074 C 1108.84 917.942 1112.37 916.217 1117.02 914.054 z"/>
<path transform="translate(0,0)" fill="rgb(254,106,0)" d="M 768.311 1021.29 C 796.371 1017.33 822.32 1036.9 826.235 1064.96 C 830.15 1093.03 810.546 1118.95 782.474 1122.82 C 754.464 1126.68 728.618 1107.13 724.711 1079.13 C 720.805 1051.12 740.314 1025.25 768.311 1021.29 z"/>
<path transform="translate(0,0)" fill="rgb(255,173,69)" d="M 773.1 1058.75 C 792.811 1063.79 791.863 1076.63 776.992 1087.52 C 760.77 1085.42 756.799 1068.41 773.1 1058.75 z"/>
<path transform="translate(0,0)" fill="rgb(3,32,187)" d="M 297.977 530.728 C 284.85 535.473 267.239 538.219 257.202 525.872 C 249.606 516.529 252.878 503.564 262.734 497.272 C 274.038 490.056 286.037 492.185 298.357 494.499 C 300.022 501.116 298.943 523.76 297.977 530.728 z"/>
</svg>