<svg version="1.1" xmlns="http://www.w3.org/2000/svg" style="display: block;" viewBox="0 0 2048 2048" width="512" height="512" preserveAspectRatio="none">
<path transform="translate(0,0)" fill="rgb(13,39,243)" d="M 668.056 684.644 C 585.78 604.629 504.146 523.956 423.162 442.633 L 349.139 369.01 C 340.225 360.179 302.351 327.102 300.974 313.725 C 299.464 299.054 323.442 291.225 332.595 304.834 C 362.098 333.364 390.493 361.902 419.257 390.654 L 562.789 533.598 C 585.424 556.208 608.166 578.396 631.097 601.078 C 649.861 619.639 670.236 640.316 689.07 659.07 C 689.354 659.353 690.718 661.316 691.019 661.726 C 703.377 645.995 721.507 631.098 737.74 619.263 C 802.809 571.823 889.405 541.824 968.882 531.887 C 1100.29 515.456 1226.21 556.571 1329.73 637.781 C 1400.94 693.669 1455.41 768.052 1487.21 852.804 C 1492.3 866.288 1504.09 902.177 1504.31 916.426 C 1523.48 923.862 1542.78 928.558 1560.88 938.921 C 1575.49 947.284 1588.27 958.217 1602.14 967.654 C 1635.87 990.592 1668.81 997.662 1706.88 980.654 C 1749.86 961.456 1776.34 921.708 1827.28 917.9 C 1836.76 917.192 1847.75 917.763 1856.68 921.245 C 1859.92 922.507 1863.12 924.376 1864.79 927.56 C 1866.08 930.017 1866.08 932.609 1865.08 935.147 C 1861.89 943.278 1851.45 947.825 1843.78 950.748 C 1828.28 956.661 1811.83 959.107 1797.1 967.145 C 1779.69 976.64 1765.54 990.688 1749.07 1001.51 C 1708.59 1028.1 1655.63 1034.19 1611.17 1013.71 C 1582.59 1000.55 1539.94 957.863 1511.4 956.184 C 1516.02 986.867 1511.22 1038.42 1514.25 1074.82 C 1529.98 1081.23 1555.76 1090.8 1569.02 1100.47 C 1613.99 1133.5 1644.89 1167.85 1704.31 1142.53 C 1742.98 1126.04 1763.54 1094.76 1804.3 1083.02 C 1814.2 1080.17 1862.92 1067.98 1866.36 1090.56 C 1865.72 1115.46 1812.79 1113.23 1798.89 1122.7 C 1756.83 1151.37 1733.42 1179.25 1679.51 1183.37 C 1620.33 1187.89 1597.96 1166.24 1553.27 1136.64 C 1537.75 1126.34 1521.48 1117.22 1504.6 1109.36 C 1504.58 1109.73 1504.57 1110.11 1504.56 1110.48 C 1491.52 1186.22 1461.45 1256.79 1411.75 1315.77 C 1401.07 1328.43 1393.09 1340.12 1381.99 1350.33 C 1394.92 1361.03 1415.12 1382.36 1427.61 1394.69 L 1518.85 1484.84 L 1669.46 1633.82 C 1681.04 1645.41 1692.72 1656.92 1704.49 1668.32 C 1717.5 1680.74 1753.76 1706.48 1737.85 1725.04 C 1735.86 1727.37 1730.34 1731.78 1727.07 1731.15 C 1714.41 1728.72 1704.53 1715.51 1695.39 1707.18 C 1683.49 1695.54 1672.54 1684.14 1660.93 1672.82 L 1564.66 1580.57 C 1510.96 1528.36 1455.68 1478.01 1405.11 1422.5 C 1390.33 1406.28 1372.13 1388.45 1358.69 1371.58 C 1350.81 1380.56 1324.96 1401.01 1314.76 1408.37 C 1240.65 1461.74 1152.99 1493.13 1061.85 1498.93 C 925.956 1508.23 791.962 1462.97 689.543 1373.17 C 631.093 1321.56 586.703 1255.95 560.532 1182.5 C 550.958 1155.96 544.996 1137.96 543.215 1109.53 C 530.98 1113.8 517.425 1117.13 506.146 1123.35 C 490.539 1131.96 476.957 1144.72 462.431 1154.89 C 431.565 1176.49 393.78 1187.81 356.201 1182.93 C 323.916 1178.73 300.786 1164.32 277.178 1142.88 C 266.77 1133.43 255.178 1124.65 242.045 1118.23 C 225.933 1110.29 199.412 1112.44 187.12 1098.45 C 179.47 1089.74 191.562 1078.81 198.128 1074.3 C 254.769 1070.9 278.291 1103.18 319.746 1131.85 C 391.222 1181.28 435.07 1122.14 495.017 1089.31 C 509.186 1081.55 521.822 1077.97 537.78 1074.76 C 537.141 1068.76 536.765 1062.51 536.022 1056.57 C 531.676 1021.79 535.583 987.88 536.997 953.035 C 489.248 966.333 473.537 996.029 432.477 1014.99 C 395.508 1032.06 335.293 1027.87 302.213 1003.59 C 283.81 990.091 268.466 973.718 247.678 962.68 C 232.562 954.298 214.426 954.304 198.472 948.576 C 190.572 945.844 180.554 937.084 185.675 927.874 C 194.388 912.2 219.39 913.9 233.981 918.035 C 274.17 929.425 303.257 961.312 339.709 980.599 C 377.694 1000.7 410.457 993.764 443.877 968.478 C 458.561 957.444 473.238 944.583 488.891 934.866 C 504.328 925.629 526.554 919.253 543.79 913.895 C 557.074 841.511 611.633 732.536 668.056 684.644 z M 947.343 913.48 C 998.325 885.016 1078.21 878.851 1117.16 931.306 C 1118.21 932.715 1117.59 932.079 1119.01 933.183 C 1133.41 921.98 1155.93 911.376 1171.82 901.724 C 1192.3 889.279 1214.32 877.213 1235.69 866.334 C 1249.12 859.496 1261.98 870.569 1259.69 884.453 C 1258.14 893.85 1246.73 898.926 1239.53 903.627 C 1220.74 914.682 1201.5 925.608 1182.54 936.452 C 1172.33 942.298 1157.85 949.01 1148.3 955.232 C 1157.46 956.677 1166.57 958.207 1175.66 960.402 C 1207.42 968.072 1233.37 985.51 1266.28 988.733 C 1319.14 993.91 1357.37 946.198 1403.49 928.36 C 1426.65 919.406 1447.17 915.927 1470.9 913.63 C 1463.89 894.623 1459.58 874.72 1452.06 855.92 C 1383.61 684.608 1221.57 569.996 1037.19 562.505 C 933.154 558.956 831.084 591.421 748.216 654.416 C 737.335 662.709 724.222 675.174 714.03 684.566 C 734.294 699.558 756.474 725.475 775.326 744.082 C 815.569 783.479 855.604 823.087 895.429 862.906 C 903.452 871.036 940.109 909.222 947.343 913.48 z M 1314.62 1328.85 C 1320.97 1341.79 1318.67 1350.29 1326.97 1355.91 C 1329.89 1354.72 1333.44 1353.14 1334.49 1350.08 C 1330.58 1343.76 1321.02 1332.73 1314.62 1328.85 z M 1350.65 1314.58 C 1354.34 1318.69 1355.86 1322.23 1358.41 1327.1 C 1362.09 1322.98 1367.17 1317.78 1369.9 1313.15 C 1360.88 1309.24 1358.59 1308.15 1350.65 1314.58 z M 577.688 913.188 C 600.138 912.96 609.807 913.745 631.345 919.876 C 681.414 934.129 710.571 986.05 762.967 988.675 C 796.417 990.351 821.929 974.425 851.563 963.972 C 864.972 959.243 894.563 956.109 909.547 955.082 C 913.438 949.599 917.926 942.872 922.366 938 C 917.409 932.163 909.855 925.444 904.242 919.888 L 870.425 886.072 L 747.339 762.855 C 730.444 745.997 705.313 723.234 690.376 706.475 C 678.472 722.502 665.404 736.125 653.108 753.27 C 627.995 788.619 607.673 827.138 592.67 867.821 C 587.129 882.914 583.036 898.102 577.688 913.188 z M 569.981 1070.55 C 580.533 1069.39 595.156 1071.84 605.484 1073.06 C 655.317 1078.96 678.325 1107.17 718.292 1131.16 C 773.2 1164.1 803.087 1138 851.758 1110.82 C 870.574 1100.31 892.513 1093.44 913.741 1087.61 C 898.092 1055.45 892.434 1028.75 897.903 993.239 C 882.527 995.639 872.12 997.871 857.029 1002.72 C 829.858 1011.45 798.771 1026.61 770.26 1027.26 C 706.759 1028.72 671.993 972.019 616.753 954.381 C 602.393 949.796 588.825 949.555 573.889 949.561 C 570.039 977.072 571.136 1005.17 571.004 1032.87 C 570.947 1044.7 571.397 1058.9 569.981 1070.55 z M 1479.49 1070.69 C 1477.29 1057.21 1479.74 1039.66 1479.43 1025.64 C 1478.85 999.665 1478.47 975.921 1479.89 949.906 C 1438.45 949.609 1409.45 959.792 1376.62 984.689 C 1342.59 1010.49 1304.26 1030.14 1260.34 1025.22 C 1236.61 1022.84 1209.76 1008.98 1187.53 1000.17 C 1172.94 994.384 1163.34 992.085 1148.08 988.666 C 1155.86 1022.7 1156.16 1057.65 1135.61 1087.72 C 1153.2 1092.25 1163.93 1096.02 1180.23 1104.15 C 1224.21 1126.09 1269.75 1168.76 1320.38 1137.37 C 1362.89 1111.01 1391.82 1078.41 1444.58 1071.51 C 1460.16 1069.48 1467.43 1071.38 1479.49 1070.69 z M 1181.15 1148.28 C 1186.83 1154.38 1194.23 1158.54 1200.6 1164.04 C 1207.81 1170.27 1223.48 1187.3 1229.05 1192.22 C 1240.39 1202.21 1327.33 1294.33 1330.74 1295.94 C 1329.77 1293.44 1326.78 1289.66 1326.2 1288.86 C 1323.11 1284.54 1339.65 1266.12 1343.32 1262.06 C 1385.05 1215.77 1408.68 1165.71 1435.85 1110.3 C 1427.47 1111.73 1412.04 1119.24 1404.83 1123.57 C 1356.29 1152.74 1310.51 1201.94 1248.28 1181.57 C 1219.62 1173.09 1205.13 1159.53 1181.15 1148.28 z M 574.121 1106.23 C 574.238 1110.02 583.237 1139.5 584.969 1144.86 C 609.563 1222.91 653.978 1293.25 713.875 1349 C 768.528 1400.44 841.749 1433.24 913.474 1452.93 C 920.979 1454.99 945.681 1461.95 952.246 1460.42 C 949.072 1456.72 947.157 1455.06 948.096 1450.07 C 949.695 1448.65 951.383 1447.8 953.572 1447.81 C 968.764 1447.87 984.354 1448.15 999.507 1446.91 C 1024.15 1445.06 1048.62 1441.29 1072.68 1435.64 C 1131.27 1421.87 1186.45 1396.35 1234.9 1360.64 C 1252.43 1347.69 1280.86 1323.99 1299.38 1314.48 L 1300.77 1313.78 C 1297.73 1309.86 1292.27 1304.12 1288.67 1300.56 C 1241.69 1254.08 1196.43 1205.83 1148.78 1160.07 C 1137.07 1148.83 1124.49 1138.69 1112.4 1127.92 C 1071.96 1148.78 1032.9 1164 986.521 1150.15 C 968.305 1144.71 946.881 1131.37 934.234 1117.17 C 913.271 1124.67 891.228 1131.22 871.869 1141.55 C 827.762 1165.08 785.121 1196.58 732.829 1177.74 C 723.971 1174.55 707.037 1170.19 699.331 1165.17 C 701.888 1171.52 706.001 1177.81 709.398 1183.77 C 731.444 1222.46 761.29 1255.01 794.36 1284.5 C 802.086 1291.39 836.638 1317.36 839.338 1323.34 C 840.975 1326.96 840.684 1330.93 839.044 1334.49 C 836.999 1338.93 834.034 1343.09 829.24 1344.67 C 823.281 1346.64 816.81 1344.55 811.521 1341.7 C 796.14 1333.41 781.709 1319.87 768.534 1308.46 C 725.136 1270.86 686.112 1225.94 663.307 1172.75 C 656.916 1157.84 652.176 1142.39 647.416 1126.91 C 628.358 1108.37 598.822 1106.73 574.121 1106.23 z"/>
<path transform="translate(0,0)" fill="rgb(13,39,243)" d="M 1011.62 629.463 C 1037.3 629.235 1077.2 633.555 1103.01 639.679 C 1131.99 647.807 1173.39 655.273 1193.63 678.46 C 1201.84 687.856 1187.52 696.667 1179.96 700.237 C 1176.06 699.334 1171.62 697.795 1167.76 696.569 C 1161.12 695.291 1147.97 690.635 1141.44 688.216 C 1101.15 673.281 1061.76 663.234 1018.41 665.393 C 1007.18 665.953 976.223 665.778 976.615 648.843 C 977.077 628.84 997.638 629.912 1011.62 629.463 z"/>
<path transform="translate(0,0)" fill="rgb(13,39,243)" d="M 1325.85 789.075 C 1349.47 793.479 1381.56 833.702 1350.75 852.442 C 1331.66 847.975 1294.14 805.072 1325.85 789.075 z"/>
<path transform="translate(0,0)" fill="rgb(13,39,243)" d="M 1249.37 711.972 C 1273.45 715.739 1301.04 741.086 1270.61 758.275 C 1248.9 753.511 1218.65 727.954 1249.37 711.972 z"/>
<path transform="translate(0,0)" fill="rgb(13,39,243)" d="M 647.416 1126.91 C 659.871 1132.77 691.121 1154.98 699.331 1165.17 C 701.888 1171.52 706.001 1177.81 709.398 1183.77 C 731.444 1222.46 761.29 1255.01 794.36 1284.5 C 802.086 1291.39 836.638 1317.36 839.338 1323.34 C 840.975 1326.96 840.684 1330.93 839.044 1334.49 C 836.999 1338.93 834.034 1343.09 829.24 1344.67 C 823.281 1346.64 816.81 1344.55 811.521 1341.7 C 796.14 1333.41 781.709 1319.87 768.534 1308.46 C 725.136 1270.86 686.112 1225.94 663.307 1172.75 C 656.916 1157.84 652.176 1142.39 647.416 1126.91 z"/>
<path transform="translate(0,0)" fill="rgb(13,39,243)" d="M 1119.01 933.183 C 1133.41 921.98 1155.93 911.376 1171.82 901.724 C 1192.3 889.279 1214.32 877.213 1235.69 866.334 C 1249.12 859.496 1261.98 870.569 1259.69 884.453 C 1258.14 893.85 1246.73 898.926 1239.53 903.627 C 1220.74 914.682 1201.5 925.608 1182.54 936.452 C 1172.33 942.298 1157.85 949.01 1148.3 955.232 C 1144.46 955.885 1139.02 955.943 1135.01 956.114 C 1129.27 949.976 1123.37 940.295 1119.01 933.183 z"/>
<path transform="translate(0,0)" fill="rgb(249,148,20)" d="M 577.688 913.188 C 600.138 912.96 609.807 913.745 631.345 919.876 C 681.414 934.129 710.571 986.05 762.967 988.675 C 796.417 990.351 821.929 974.425 851.563 963.972 C 864.972 959.243 894.563 956.109 909.547 955.082 C 913.438 949.599 917.926 942.872 922.366 938 C 940.614 953.327 957.942 970.464 975.07 987.072 C 1005.84 1016.74 1035.92 1047.14 1065.26 1078.23 C 1081.71 1095.41 1098.01 1109.02 1112.4 1127.92 C 1071.96 1148.78 1032.9 1164 986.521 1150.15 C 968.305 1144.71 946.881 1131.37 934.234 1117.17 C 913.271 1124.67 891.228 1131.22 871.869 1141.55 C 827.762 1165.08 785.121 1196.58 732.829 1177.74 C 723.971 1174.55 707.037 1170.19 699.331 1165.17 C 691.121 1154.98 659.871 1132.77 647.416 1126.91 C 628.358 1108.37 598.822 1106.73 574.121 1106.23 C 563.172 1105.04 553.764 1106.4 543.215 1109.53 C 530.98 1113.8 517.425 1117.13 506.146 1123.35 C 490.539 1131.96 476.957 1144.72 462.431 1154.89 C 431.565 1176.49 393.78 1187.81 356.201 1182.93 C 323.916 1178.73 300.786 1164.32 277.178 1142.88 C 266.77 1133.43 255.178 1124.65 242.045 1118.23 C 225.933 1110.29 199.412 1112.44 187.12 1098.45 C 179.47 1089.74 191.562 1078.81 198.128 1074.3 C 254.769 1070.9 278.291 1103.18 319.746 1131.85 C 391.222 1181.28 435.07 1122.14 495.017 1089.31 C 509.186 1081.55 521.822 1077.97 537.78 1074.76 C 537.141 1068.76 536.765 1062.51 536.022 1056.57 C 531.676 1021.79 535.583 987.88 536.997 953.035 C 489.248 966.333 473.537 996.029 432.477 1014.99 C 395.508 1032.06 335.293 1027.87 302.213 1003.59 C 283.81 990.091 268.466 973.718 247.678 962.68 C 232.562 954.298 214.426 954.304 198.472 948.576 C 190.572 945.844 180.554 937.084 185.675 927.874 C 194.388 912.2 219.39 913.9 233.981 918.035 C 274.17 929.425 303.257 961.312 339.709 980.599 C 377.694 1000.7 410.457 993.764 443.877 968.478 C 458.561 957.444 473.238 944.583 488.891 934.866 C 504.328 925.629 526.554 919.253 543.79 913.895 C 550.332 913.904 572.165 914.35 577.688 913.188 z M 569.981 1070.55 C 580.533 1069.39 595.156 1071.84 605.484 1073.06 C 655.317 1078.96 678.325 1107.17 718.292 1131.16 C 773.2 1164.1 803.087 1138 851.758 1110.82 C 870.574 1100.31 892.513 1093.44 913.741 1087.61 C 898.092 1055.45 892.434 1028.75 897.903 993.239 C 882.527 995.639 872.12 997.871 857.029 1002.72 C 829.858 1011.45 798.771 1026.61 770.26 1027.26 C 706.759 1028.72 671.993 972.019 616.753 954.381 C 602.393 949.796 588.825 949.555 573.889 949.561 C 570.039 977.072 571.136 1005.17 571.004 1032.87 C 570.947 1044.7 571.397 1058.9 569.981 1070.55 z"/>
<path transform="translate(0,0)" fill="rgb(13,39,243)" d="M 536.997 953.035 C 547.847 948.924 562.413 948.272 573.889 949.561 C 570.039 977.072 571.136 1005.17 571.004 1032.87 C 570.947 1044.7 571.397 1058.9 569.981 1070.55 C 561.959 1071.7 545.356 1074.51 537.78 1074.76 C 537.141 1068.76 536.765 1062.51 536.022 1056.57 C 531.676 1021.79 535.583 987.88 536.997 953.035 z"/>
<path transform="translate(0,0)" fill="rgb(249,148,20)" d="M 947.343 913.48 C 998.325 885.016 1078.21 878.851 1117.16 931.306 C 1118.21 932.715 1117.59 932.079 1119.01 933.183 C 1123.37 940.295 1129.27 949.976 1135.01 956.114 C 1139.02 955.943 1144.46 955.885 1148.3 955.232 C 1157.46 956.677 1166.57 958.207 1175.66 960.402 C 1207.42 968.072 1233.37 985.51 1266.28 988.733 C 1319.14 993.91 1357.37 946.198 1403.49 928.36 C 1426.65 919.406 1447.17 915.927 1470.9 913.63 C 1481.68 914.677 1493.57 916.092 1504.31 916.426 C 1523.48 923.862 1542.78 928.558 1560.88 938.921 C 1575.49 947.284 1588.27 958.217 1602.14 967.654 C 1635.87 990.592 1668.81 997.662 1706.88 980.654 C 1749.86 961.456 1776.34 921.708 1827.28 917.9 C 1836.76 917.192 1847.75 917.763 1856.68 921.245 C 1859.92 922.507 1863.12 924.376 1864.79 927.56 C 1866.08 930.017 1866.08 932.609 1865.08 935.147 C 1861.89 943.278 1851.45 947.825 1843.78 950.748 C 1828.28 956.661 1811.83 959.107 1797.1 967.145 C 1779.69 976.64 1765.54 990.688 1749.07 1001.51 C 1708.59 1028.1 1655.63 1034.19 1611.17 1013.71 C 1582.59 1000.55 1539.94 957.863 1511.4 956.184 C 1516.02 986.867 1511.22 1038.42 1514.25 1074.82 C 1529.98 1081.23 1555.76 1090.8 1569.02 1100.47 C 1613.99 1133.5 1644.89 1167.85 1704.31 1142.53 C 1742.98 1126.04 1763.54 1094.76 1804.3 1083.02 C 1814.2 1080.17 1862.92 1067.98 1866.36 1090.56 C 1865.72 1115.46 1812.79 1113.23 1798.89 1122.7 C 1756.83 1151.37 1733.42 1179.25 1679.51 1183.37 C 1620.33 1187.89 1597.96 1166.24 1553.27 1136.64 C 1537.75 1126.34 1521.48 1117.22 1504.6 1109.36 C 1493.29 1106.98 1483.46 1107.1 1472.11 1105.66 C 1461.33 1103.44 1445.05 1103.87 1435.85 1110.3 C 1427.47 1111.73 1412.04 1119.24 1404.83 1123.57 C 1356.29 1152.74 1310.51 1201.94 1248.28 1181.57 C 1219.62 1173.09 1205.13 1159.53 1181.15 1148.28 C 1172.71 1143 1158.85 1125.4 1151.09 1117.32 C 1103.27 1067.47 1052.29 1020.94 1003.15 972.464 C 985.262 954.813 961.995 933.737 947.343 913.48 z M 1135.61 1087.72 C 1153.2 1092.25 1163.93 1096.02 1180.23 1104.15 C 1224.21 1126.09 1269.75 1168.76 1320.38 1137.37 C 1362.89 1111.01 1391.82 1078.41 1444.58 1071.51 C 1460.16 1069.48 1467.43 1071.38 1479.49 1070.69 C 1477.29 1057.21 1479.74 1039.66 1479.43 1025.64 C 1478.85 999.665 1478.47 975.921 1479.89 949.906 C 1438.45 949.609 1409.45 959.792 1376.62 984.689 C 1342.59 1010.49 1304.26 1030.14 1260.34 1025.22 C 1236.61 1022.84 1209.76 1008.98 1187.53 1000.17 C 1172.94 994.384 1163.34 992.085 1148.08 988.666 C 1155.86 1022.7 1156.16 1057.65 1135.61 1087.72 z"/>
<path transform="translate(0,0)" fill="rgb(13,39,243)" d="M 1479.89 949.906 C 1490.95 950.067 1501.12 951.869 1511.4 956.184 C 1516.02 986.867 1511.22 1038.42 1514.25 1074.82 C 1502.67 1073.35 1491.09 1071.97 1479.49 1070.69 C 1477.29 1057.21 1479.74 1039.66 1479.43 1025.64 C 1478.85 999.665 1478.47 975.921 1479.89 949.906 z"/>
<path transform="translate(0,0)" fill="rgb(174,205,250)" d="M 1300.77 1313.78 C 1306.58 1318.57 1310.91 1322.05 1314.62 1328.85 C 1320.97 1341.79 1318.67 1350.29 1326.97 1355.91 L 1327.51 1356.91 C 1320.41 1364.19 1296.93 1381.42 1287.53 1387.76 C 1209.92 1440.12 1115.38 1465.75 1022.22 1466.99 C 1015.35 1467.08 988.679 1467.34 983.859 1464.99 C 981.9 1462.58 980.329 1459.59 977.385 1459.53 C 971.498 1459.43 957.202 1459.23 952.246 1460.42 C 949.072 1456.72 947.157 1455.06 948.096 1450.07 C 949.695 1448.65 951.383 1447.8 953.572 1447.81 C 968.764 1447.87 984.354 1448.15 999.507 1446.91 C 1024.15 1445.06 1048.62 1441.29 1072.68 1435.64 C 1131.27 1421.87 1186.45 1396.35 1234.9 1360.64 C 1252.43 1347.69 1280.86 1323.99 1299.38 1314.48 L 1300.77 1313.78 z"/>
<path transform="translate(0,0)" fill="rgb(174,205,250)" d="M 1435.85 1110.3 C 1445.05 1103.87 1461.33 1103.44 1472.11 1105.66 C 1459.94 1168.8 1434.76 1228.71 1398.17 1281.59 C 1392.19 1290.25 1379.56 1307.72 1370.79 1313.36 L 1369.9 1313.15 C 1360.88 1309.24 1358.59 1308.15 1350.65 1314.58 C 1343.83 1311.93 1334.78 1301.98 1330.74 1295.94 C 1329.77 1293.44 1326.78 1289.66 1326.2 1288.86 C 1323.11 1284.54 1339.65 1266.12 1343.32 1262.06 C 1385.05 1215.77 1408.68 1165.71 1435.85 1110.3 z"/>
</svg>