<svg version="1.1" xmlns="http://www.w3.org/2000/svg" style="display: block;" viewBox="0 0 2048 2048" width="512" height="512" preserveAspectRatio="none">
<path transform="translate(0,0)" fill="rgb(0,28,160)" d="M 1652.99 449.208 C 1666.86 441.138 1687.86 407.048 1710.63 402.423 C 1721.66 400.183 1725.28 402.335 1734.23 407.523 C 1735.35 414.852 1734.63 432.041 1734.56 440.479 L 1734.4 499.067 L 1734.4 720.899 L 1734.34 1164.33 L 1734.31 1303.15 C 1734.37 1328.69 1734.5 1354.3 1734.45 1379.82 C 1734.39 1406.57 1706.91 1427.57 1691.07 1446.63 C 1677.73 1462.69 1664.02 1478.55 1650.55 1494.52 L 1564.09 1597.15 C 1555.79 1606.95 1509.68 1664.02 1500.62 1664.96 C 1470.88 1668.06 1433.42 1666.81 1403.19 1666.76 L 1224.63 1666.42 L 990.416 1666.44 L 917.355 1666.47 C 907.694 1666.49 888.137 1667.13 879.076 1666.41 C 878.922 1652.24 878.952 1638.07 879.166 1623.9 L 1236.21 1623.7 C 1313.62 1623.7 1399.24 1621.97 1476.04 1624.1 C 1474.43 1587.33 1475.82 1540.63 1475.82 1502.99 L 1475.8 1265.26 L 1475.79 888.975 C 1475.79 819.707 1475.16 749.29 1476.06 680.093 C 1354.13 681.65 1229.44 680.322 1107.34 680.323 L 1001.26 680.302 C 985.862 680.299 958.157 679.549 943.668 680.99 C 943.739 664.483 955.998 649.566 966.38 637.536 C 974.341 635.92 1009.21 636.489 1018.78 636.541 L 1113.91 636.901 L 1357.82 636.899 C 1401.22 636.719 1444.62 636.774 1488.02 637.064 C 1508.62 618.441 1541.96 578.439 1560.7 556.19 C 1590.98 520.112 1621.74 484.448 1652.99 449.208 z M 1519.06 670.703 C 1517.6 745.193 1518.69 822.983 1518.69 897.666 L 1518.71 1312.51 L 1518.73 1484.32 C 1518.73 1507.92 1519.91 1557.36 1517.31 1579.57 C 1518.43 1580.57 1517.88 1580.5 1518.68 1580.49 C 1531.58 1567.22 1684.67 1387.71 1687.3 1380.23 C 1691.23 1369.05 1689.06 1299.13 1689.05 1281.66 L 1688.99 1101.73 L 1689 676.23 C 1689.01 612.32 1690.35 544.319 1689.3 480.947 C 1689.28 480.081 1689.25 479.215 1689.21 478.349 L 1688.05 477.677 C 1649.15 518.91 1612.31 562.807 1575.03 605.581 C 1557.05 626.208 1535.26 649.199 1519.06 670.703 z"/>
<path transform="translate(0,0)" fill="rgb(244,98,5)" d="M 358.091 1604.45 C 415.562 1567.71 473.758 1532.11 532.645 1497.68 C 559.838 1481.51 601.858 1450.32 631.185 1444.47 C 634.946 1446.14 638.199 1447.53 641.818 1449.56 C 654.286 1475.63 649.645 1539.58 647.898 1569.68 L 780.887 1569.75 C 794.619 1569.63 808.665 1568.63 822.395 1568.38 C 855.019 1567.79 880.079 1566.11 879.838 1607.58 C 879.843 1613.03 879.619 1618.47 879.166 1623.9 C 878.952 1638.07 878.922 1652.24 879.076 1666.41 C 879.976 1735.62 863.76 1725.78 806.055 1724.21 C 754.309 1722.79 701.117 1724.43 649.157 1723.67 C 651.352 1751.68 654.137 1796.64 646.707 1823.85 C 643.728 1834.76 638.56 1839.9 629.053 1844.79 C 609.189 1839.87 580.487 1818.83 562.274 1807.54 C 527.751 1786.46 493.412 1765.08 459.262 1743.4 L 381.774 1694.66 C 371.141 1688.01 360.457 1681.2 349.898 1674.44 C 336.774 1666.04 308.455 1651.34 313.22 1632.05 C 329.352 1623 343.001 1615.1 358.091 1604.45 z M 377.188 1642.03 C 389.735 1650.55 404.635 1657.74 417.452 1666.06 C 474.221 1702.88 534.474 1735.62 589.631 1774.66 C 594.379 1778.02 598.995 1779.85 603.902 1783.42 L 604.092 1768.25 C 604.134 1752.8 600.383 1698.84 610.846 1688.74 C 616.912 1682.89 626.739 1679.9 634.998 1678.89 C 662.28 1675.56 691.51 1678.93 719.055 1678.98 L 799.63 1678.93 C 811.118 1678.88 825.981 1677.72 837.131 1678.62 C 836.377 1664.32 835.227 1626.96 837.062 1613.11 C 825.182 1614.46 806.912 1613.85 794.45 1613.83 L 721.225 1613.75 L 663.481 1613.89 C 633.151 1614.03 604.958 1619.8 604.009 1579.06 C 603.462 1555.57 605.237 1532.44 605.429 1509.01 C 603.974 1507.69 604.84 1508.06 602.799 1507.98 C 581.703 1520.21 560.314 1534.12 539.321 1546.84 C 502.758 1569.15 465.865 1590.92 428.654 1612.13 C 413.746 1620.76 391.81 1634.65 377.188 1642.03 z"/>
<path transform="translate(0,0)" fill="rgb(244,98,5)" d="M 1402.27 310.016 C 1401.02 288.29 1397.48 205.016 1409.78 190.903 C 1412.08 188.269 1416.06 186.563 1419.52 186.379 C 1426.14 186.027 1434.46 191.174 1440.07 194.364 C 1463.68 207.776 1486.63 223.243 1509.64 237.716 L 1636.06 316.883 C 1644.34 322.078 1653.11 326.804 1661.29 332.11 C 1687.82 349.343 1741.2 367.115 1734.23 407.523 C 1725.28 402.335 1721.66 400.183 1710.63 402.423 C 1687.86 407.048 1666.86 441.138 1652.99 449.208 C 1598.13 468.148 1447.02 579.05 1413.23 579.754 C 1395.86 573.985 1403.02 499.009 1401.27 483.981 C 1400.72 479.237 1401.24 466.696 1402.1 462.165 C 1392.62 463.392 1378.28 462.933 1368.29 462.935 L 1311.49 462.935 L 1234.32 462.96 C 1214.5 463.062 1189 465.238 1170.13 460.379 C 1169.55 459.818 1168.98 459.245 1168.43 458.661 C 1158.89 448.59 1160.94 431.507 1161.12 418.154 C 1162.44 403.493 1162.46 388.744 1161.18 374.079 C 1160.39 355.278 1159.93 339.23 1160.23 320.39 C 1178.88 306.775 1203.41 308.28 1225.5 308.954 C 1241.67 309.447 1257.35 309.911 1273.54 309.889 L 1360.86 309.745 C 1370.71 309.727 1393.62 308.994 1402.27 310.016 z M 1205.63 353.92 C 1206.88 364.859 1207.1 407.185 1205.41 417.895 L 1352.1 417.513 C 1364.32 417.533 1377.74 417.89 1389.82 417.819 C 1436.05 417.547 1449.32 417.039 1447.88 469.558 C 1447.64 477.042 1447.34 484.524 1446.99 492.004 C 1446.83 501.4 1446.58 508.487 1445.65 517.802 C 1458.29 510.628 1469.64 502.968 1481.94 495.618 C 1527.65 467.861 1573.72 440.703 1620.14 414.151 C 1632.21 407.359 1655.25 393.004 1667.41 387.417 C 1653.86 381.082 1629.93 364.832 1616.49 356.614 C 1576.96 332.419 1537.59 307.981 1498.37 283.299 C 1486.33 275.619 1457.88 255.52 1445.96 250.591 C 1448.15 274.986 1451.17 330.999 1438.38 351.04 C 1423.09 357.181 1386.08 354.852 1368.41 354.773 L 1276.14 354.412 C 1256.75 354.171 1223.38 356.034 1205.63 353.92 z"/>
<path transform="translate(0,0)" fill="rgb(0,28,160)" d="M 313.22 1632.05 C 315.1 1524.97 313.728 1414.28 313.701 1306.99 L 313.428 699.178 C 313.43 647.498 312.742 652.672 348.127 614.615 L 382.917 576.827 L 498.515 449.812 C 517.133 429.412 534.364 408.535 552.776 388.152 C 560.214 379.917 570.528 376.137 581.405 375.223 C 604.593 373.274 629.273 373.924 652.635 373.94 L 773.077 374.003 L 1161.18 374.079 C 1162.46 388.744 1162.44 403.493 1161.12 418.154 C 1149.22 419.613 1115.86 418.746 1102.39 418.747 L 985.009 418.747 L 585.947 418.799 C 563.541 440.967 536.019 473.395 514.814 497.383 C 483.661 532.522 452.033 567.237 419.94 601.52 C 409.074 613.287 399.123 625.655 387.947 637.153 C 506.1 635.36 627.196 637.195 745.626 636.799 C 784.651 636.489 823.678 636.404 862.704 636.544 C 873.537 636.593 902.532 635.816 912.152 637.608 C 905.51 651.552 898.541 665.578 899.236 681.601 C 886.773 679.512 854.409 680.241 840.852 680.244 L 733.664 680.322 L 359.036 680.388 C 360.574 756.123 359.154 836.434 359.146 912.532 L 359.136 1363.2 L 359.218 1509.85 C 359.258 1522.01 360.662 1597.03 358.091 1604.45 C 343.001 1615.1 329.352 1623 313.22 1632.05 z"/>
<path transform="translate(0,0)" fill="rgb(244,98,5)" d="M 912.152 637.608 C 915.6 634.447 925.153 616.665 929.036 611.07 L 998.225 512.747 C 1013.78 490.322 1030.67 455.132 1057.05 445.846 C 1074.36 451.022 1086.23 460.507 1076.4 478.977 C 1068.38 494.054 1059.61 507.016 1049.92 521.057 C 1031.24 547.635 1012.3 574.025 993.093 600.22 C 985.293 610.963 973.105 626.612 966.38 637.536 C 955.998 649.566 943.739 664.483 943.668 680.99 C 945.009 730.29 943.19 780.21 943.937 829.563 C 944.052 837.165 944.132 845.485 943.838 853.034 L 1212.22 852.962 L 1293.56 852.851 C 1311.93 852.789 1346.74 849.167 1360.5 861.301 C 1365.69 873.979 1366.23 885.912 1353.6 894.5 C 1348.45 898 1339.01 897.075 1332.98 897.765 C 1304.22 897.96 1275.28 897.859 1246.51 897.834 L 1082.94 897.779 L 990.308 897.796 C 977.902 897.801 954.012 898.622 942.807 897.229 C 945.833 921.919 943.052 950.506 943.995 975.75 C 944.593 991.781 944.26 1009.52 943.798 1025.59 C 943.348 1041.28 924.329 1048.68 910.474 1044.39 C 900.209 1034.73 898.501 1022.43 898.385 1008.78 C 898.073 971.873 899.728 934.594 900.087 897.696 C 873.195 898.477 844.098 897.793 816.963 897.782 L 661.021 897.765 L 573.422 897.809 C 557.187 897.912 541.204 898.624 525.013 897.822 C 509.991 897.078 496.646 890.796 496.439 873.857 C 496.113 847.212 540.987 852.974 558.851 852.967 L 626.891 852.951 L 857.936 852.845 C 863.82 852.814 890.755 852.544 898.233 852.669 C 898.626 852.232 899.019 851.795 899.412 851.358 C 898.837 804.865 897.255 758.37 898.224 711.819 C 898.392 703.744 900.165 688.512 899.236 681.601 C 898.541 665.578 905.51 651.552 912.152 637.608 z"/>
</svg>