<svg version="1.1" xmlns="http://www.w3.org/2000/svg" style="display: block;" viewBox="0 0 2048 2048" width="512" height="512" preserveAspectRatio="none">
<defs>
	<linearGradient id="Gradient1" gradientUnits="userSpaceOnUse" x1="1465.76" y1="654.5" x2="149.58" y2="1119.78">
		<stop class="stop0" offset="0" stop-opacity="1" stop-color="rgb(8,15,170)"/>
		<stop class="stop1" offset="1" stop-opacity="1" stop-color="rgb(1,56,228)"/>
	</linearGradient>
</defs>
<path transform="translate(0,0)" fill="url(#Gradient1)" d="M 396.212 350.087 C 395.927 317.482 395.812 284.875 395.867 252.268 C 395.903 238.721 395.197 218.33 396.907 205.477 C 399.67 184.701 434.705 186.684 435.726 210.26 C 436.282 223.089 436.095 235.533 436.063 248.262 L 436.058 315.623 L 436.049 406.52 C 436.044 421.157 436.638 442.216 435.549 456.413 C 702.751 464.36 885.272 757.02 1026.72 948.428 C 1073.88 1013.2 1125.37 1074.71 1180.83 1132.53 C 1297.06 1251.86 1433.96 1335.67 1600.94 1358.98 C 1638.85 1364.27 1670.1 1365.7 1708.27 1366.2 C 1716.36 1373 1722.07 1377.97 1729.31 1385.62 C 1721.9 1393.8 1717.11 1398.68 1709.04 1406.18 C 1699.85 1407.53 1689.82 1407.13 1680.52 1407.14 C 1414.84 1407.36 1191.29 1233.19 1037.12 1030.86 C 883.577 829.349 747.644 562.526 478.644 503.593 C 464.418 500.488 450.088 498.928 435.928 496.131 L 436.005 1173.14 L 435.995 1423.87 C 435.979 1465.14 437.112 1516.31 435.548 1556.96 C 435.358 1570.47 434.914 1584.56 435.899 1598 L 436.051 1748.22 C 436.06 1773.61 436.629 1800.73 435.347 1826.1 C 435.177 1829.66 432.714 1836.41 429.887 1838.69 C 391.341 1869.69 395.665 1796.05 396.055 1775.97 C 397.204 1716.87 394.637 1656.77 396.514 1597.75 C 397.219 1586.84 396.918 1568.11 396.466 1557.16 C 396.261 1550.69 396.483 1543.61 396.639 1537.08 C 397.616 1496.04 395.982 1454.95 396.303 1413.93 C 386.034 1414.48 383.056 1413.3 373.036 1410.91 C 356.383 1395.56 360.527 1378.29 382.421 1371.06 C 386.37 1369.75 392.285 1369.99 396.542 1369.96 C 395.29 1336.01 396.062 1298 396.033 1263.75 C 386.57 1266.28 378.545 1266.33 370.89 1259.14 C 361.842 1250.65 361.333 1234.01 371.258 1225.95 C 378.821 1219.81 387.165 1220.57 396.185 1221.5 C 396.068 1212.07 396.815 1124.19 395.651 1123.22 C 392.363 1120.46 375.778 1122.42 366.144 1110.51 C 363.643 1107.41 362.228 1103.71 362.739 1099.71 C 363.692 1092.24 370.492 1083.23 376.602 1079.09 C 382.607 1075.02 389.81 1077.42 396.371 1078.61 C 395.606 1046.1 396.106 1011.75 396.129 979.145 C 376.376 978.48 350.471 964.341 368.785 940.991 C 374.332 933.919 387.62 933.864 396.332 934.018 C 395.465 900.726 396.11 864.816 396.149 831.355 C 351.305 832.587 350.828 787.475 396.738 786.323 C 395.457 753.607 396.028 717.797 395.946 684.777 C 395.575 684.783 395.205 684.789 394.834 684.795 L 392.981 684.787 C 373.916 684.807 353.709 671.15 368.902 650.064 C 374.337 642.521 387.589 641.889 396.539 641.823 C 395.236 610.215 395.956 570.192 396.229 538.291 C 386.098 538.337 377.006 537.004 369.526 529.759 C 355.816 516.478 365.71 498.373 382.489 494.976 C 387.645 493.932 391.515 494.159 396.592 494.275 C 395.418 463.005 396.098 427.931 396.101 396.483 C 382.759 393.731 362.725 384.909 363.054 368.8 C 363.185 364.131 365.238 359.724 368.726 356.618 C 376.597 349.5 386.498 349.837 396.212 350.087 z"/>
<path transform="translate(0,0)" fill="rgb(124,137,167)" d="M 435.548 1556.96 L 1359.36 1556.91 L 1674.55 1556.91 L 1777.38 1556.87 C 1794.7 1556.86 1813.05 1556.91 1830 1557.05 C 1852.3 1557.23 1858.53 1580.24 1847.22 1594.76 C 1842.38 1600.98 1801.75 1598.06 1792.72 1597.99 L 1710.83 1597.96 L 1426.63 1597.95 L 435.899 1598 C 434.914 1584.56 435.358 1570.47 435.548 1556.96 z"/>
<path transform="translate(0,0)" fill="rgb(254,112,0)" d="M 1267.71 422.91 C 1270.66 422.55 1272.37 422.739 1275.32 423.219 C 1283.18 423.822 1295.17 435.488 1291.1 444.062 C 1265.03 498.994 1225.9 548.906 1191.32 598.689 C 1175.38 621.64 1161.25 642.274 1143.98 663.817 C 1142.25 665.974 1137.78 668.3 1135.41 669.573 C 1122.67 674.26 1109.05 660.933 1112.99 647.885 C 1115.48 640.177 1120.33 629.632 1125.16 623.084 C 1160.21 575.587 1193.06 526.939 1225.75 477.802 C 1239.52 457.111 1246.3 437.059 1267.71 422.91 z"/>
<path transform="translate(0,0)" fill="rgb(254,112,0)" d="M 1670.48 1280.3 C 1675.05 1282.64 1679.9 1284.92 1683.96 1288.09 C 1701.1 1301.43 1770.61 1369.4 1775.23 1385.84 C 1776.53 1390.45 1773.95 1394.4 1771.59 1398.19 C 1763.86 1410.67 1751.12 1420.32 1740.9 1430.76 C 1723.41 1448.65 1706.52 1467.68 1687.66 1484.14 C 1680.54 1490.36 1672.9 1497.16 1664.08 1500.77 C 1648 1490.89 1638.94 1485.56 1651.6 1466.53 C 1665.92 1445.02 1695.41 1426.31 1709.04 1406.18 C 1717.11 1398.68 1721.9 1393.8 1729.31 1385.62 C 1722.07 1377.97 1716.36 1373 1708.27 1366.2 L 1707.59 1365.38 C 1691.15 1345.86 1655.94 1321.98 1652.36 1294.57 C 1651.19 1285.65 1663.78 1281.88 1670.48 1280.3 z"/>
<path transform="translate(0,0)" fill="rgb(254,112,0)" d="M 1480.48 749.715 C 1492.3 749.303 1506.21 761.997 1501.46 773.482 C 1494.29 790.806 1479.42 807.488 1468.3 822.747 L 1421.94 887.318 C 1402.5 914.469 1382.96 942.822 1362.57 969.231 C 1359.01 973.832 1354.01 976.649 1349.04 979.569 C 1341.07 978.067 1337.21 975.058 1331.27 969.445 C 1320.82 959.579 1333.26 943.082 1340.38 933.319 C 1377.83 881.971 1413.8 829.233 1451.02 777.745 C 1458.22 767.777 1470.2 756.541 1480.48 749.715 z"/>
<path transform="translate(0,0)" fill="rgb(124,137,167)" d="M 396.514 1597.75 C 336.362 1599.37 274.352 1597.47 214.089 1597.61 C 189.035 1597.67 191.449 1558.25 214.705 1557.77 C 274.921 1556.52 336.22 1555.93 396.466 1557.16 C 396.918 1568.11 397.219 1586.84 396.514 1597.75 z"/>
<path transform="translate(0,0)" fill="rgb(254,112,0)" d="M 1117.06 823.087 C 1117.7 823.367 1118.33 823.662 1118.96 823.971 C 1130.04 829.521 1168.08 887.624 1172.92 901.343 C 1166.83 908.824 1158.8 915.221 1150.62 920.258 L 1148.09 919.332 C 1135.78 904.448 1100.47 858.633 1094.07 841.403 C 1101.79 835.23 1108.79 828.452 1117.06 823.087 z"/>
<path transform="translate(0,0)" fill="rgb(254,112,0)" d="M 1184.3 922.725 C 1197.06 924.91 1235.76 980.137 1243.48 992.343 C 1235.98 1003.65 1232.69 1006.72 1222.72 1016.55 C 1213.6 1013.28 1171.13 954.123 1163.19 941.684 C 1168.98 934.497 1177.06 928.514 1184.3 922.725 z"/>
<path transform="translate(0,0)" fill="rgb(254,112,0)" d="M 1509.02 1213.75 C 1524.67 1215.14 1567.1 1237.44 1576.53 1251.08 C 1585.19 1263.62 1576.71 1274.48 1565.62 1280.55 C 1556.35 1281.33 1514.08 1254.97 1504.32 1249.13 C 1486.58 1238.51 1498.91 1225.59 1509.02 1213.75 z"/>
<path transform="translate(0,0)" fill="rgb(254,112,0)" d="M 1055.58 730.662 C 1069.84 736.444 1097.51 785.965 1105.33 800.051 C 1097.19 811.031 1093.04 814.98 1082.29 823.396 C 1070.26 812.296 1038.46 763.918 1032.69 748.848 C 1039.53 743.148 1048.2 734.274 1055.58 730.662 z"/>
<path transform="translate(0,0)" fill="rgb(254,112,0)" d="M 1338.41 1093.73 C 1346.93 1093.97 1397.6 1135.22 1404.76 1143.43 C 1400.25 1153.52 1393.51 1161.16 1386.78 1170.04 C 1375.15 1173.39 1326.68 1126.38 1319.77 1113.76 C 1325.96 1102.54 1327.75 1100.81 1338.41 1093.73 z"/>
<path transform="translate(0,0)" fill="rgb(254,112,0)" d="M 1256.42 1015.75 C 1272.86 1016.72 1309.13 1062.09 1322.21 1075.7 C 1316.6 1083.15 1309.43 1091.91 1301.49 1096.83 C 1288.14 1097.78 1246.2 1046.19 1237.84 1033.88 C 1244.4 1023.74 1246.44 1023.08 1256.42 1015.75 z"/>
<path transform="translate(0,0)" fill="rgb(254,112,0)" d="M 993.844 635.72 C 1005.93 639.508 1040.12 696.114 1045.11 708.088 C 1036.6 715.807 1032.06 720.569 1021.37 725.482 L 1020.21 725.574 C 1011.14 719.126 971.912 664.655 972.648 654.269 C 975.84 647.455 987.366 640.373 993.844 635.72 z"/>
<path transform="translate(0,0)" fill="rgb(254,112,0)" d="M 846.107 463.685 C 862.401 470.108 898.422 511.533 911.931 525.086 C 905.004 534.96 901.749 538.855 893.153 547.361 C 882.484 550.282 835.805 496.461 827.638 486.246 C 832.366 476.456 837.644 470.25 846.107 463.685 z"/>
<path transform="translate(0,0)" fill="rgb(254,112,0)" d="M 549.735 306.711 C 562.377 306.311 619.84 323.24 629.207 331.974 C 632.03 339.179 626.053 356.191 620.516 360.782 C 604.237 355.299 499.898 340.398 549.735 306.711 z"/>
<path transform="translate(0,0)" fill="rgb(254,112,0)" d="M 926.354 547.738 C 926.784 547.749 927.217 547.717 927.643 547.771 C 938.855 549.207 974.782 602.887 983.754 614.195 C 976.874 619.725 967.719 627.553 960.359 631.937 C 959.229 632.04 956.407 632.244 955.663 631.673 C 941.447 620.779 912.065 580.846 904.63 566.015 C 911.825 559.729 918.396 552.703 926.354 547.738 z"/>
<path transform="translate(0,0)" fill="rgb(254,112,0)" d="M 756.603 394.59 C 768.14 397.87 822.003 436.678 826.047 447.337 C 825.055 455.068 815.127 462.931 809.267 468.123 C 795.56 468.409 748.738 428.444 738.002 417.862 C 744.42 407.595 748.151 403.368 756.603 394.59 z"/>
<path transform="translate(0,0)" fill="rgb(254,112,0)" d="M 656.096 342.638 C 673.281 344.592 699.972 359.727 715.119 368.735 C 722.959 373.398 725.703 376.577 735.002 380.208 C 730.309 388.617 725.09 397.033 720.106 405.296 C 719.84 405.392 719.583 405.515 719.309 405.585 C 709.412 408.123 654.328 374.195 642.982 367.434 C 646.619 358.954 650.239 349.794 656.096 342.638 z"/>
<path transform="translate(0,0)" fill="rgb(254,112,0)" d="M 1423.27 1159.73 C 1435.34 1161.52 1470.62 1188.16 1482.57 1196 C 1494.35 1203.72 1477.06 1221.01 1470.5 1227.89 C 1447.43 1217.02 1421.46 1202.49 1404.44 1183.39 C 1408.81 1175.92 1416.81 1165.45 1423.27 1159.73 z"/>
<path transform="translate(0,0)" fill="rgb(254,112,0)" d="M 502.249 304.253 C 522.354 302.728 531.626 319.491 514.568 323.719 C 505.795 323.335 498.334 323.879 492.453 316.109 C 491.268 309.276 496.451 306.525 502.249 304.253 z"/>
</svg>