<svg version="1.1" xmlns="http://www.w3.org/2000/svg" style="display: block;" viewBox="0 0 2048 2048" width="512" height="512" preserveAspectRatio="none">
<path transform="translate(0,0)" fill="rgb(20,60,195)" d="M 1280.09 825.873 C 1310.7 825.986 1342.54 825.583 1372.98 828.089 C 1455.51 834.883 1537.53 869.097 1596.24 928.624 C 1663.02 997.692 1699.67 1090.44 1698.14 1186.5 C 1697.96 1282.54 1658.46 1374.31 1588.82 1440.45 C 1543 1484.66 1475.43 1516.64 1413.48 1529.82 C 1364.68 1540.19 1314.5 1538.34 1264.84 1538.18 L 1133.31 1538.12 L 691.663 1538.08 C 685.779 1538.03 678.284 1536.46 676.647 1540.75 C 675.16 1531.92 676.23 1506.25 677.057 1496.86 L 1085.11 1496.86 L 1228.84 1496.73 C 1373.35 1496.71 1472.98 1506.02 1578.4 1389.89 C 1633.79 1329.43 1662.57 1249.25 1658.29 1167.36 C 1654.22 1084.95 1617.89 1005.93 1556.6 950.081 C 1474.7 875.455 1386.32 862.319 1280.01 868.158 L 1280.09 825.873 z"/>
<path transform="translate(0,0)" fill="rgb(20,60,195)" d="M 768.943 1208.43 C 762.451 1208.9 740.949 1208.05 733.092 1208.05 C 701.254 1207.92 669.936 1208.64 638.352 1203.84 C 449.95 1175.18 323.943 995.101 352.084 807.909 C 366.694 715.839 416.996 633.235 492.089 577.997 C 536.937 544.932 589.007 523.009 643.999 514.038 C 681.618 507.607 721.977 508.154 760.177 508.491 C 784.686 508.681 809.195 508.745 833.705 508.683 L 1149.37 508.68 L 1301.9 508.666 C 1316.16 508.638 1360.76 507.448 1372.23 509.202 C 1372.07 522.418 1372.02 535.636 1372.07 548.854 C 1354.78 549.441 1335.2 548.793 1317.71 548.786 L 1206.9 548.782 L 868.435 548.812 L 767.448 548.694 C 718.865 548.504 676.974 546.684 629.013 558.179 C 570.25 572.113 516.907 603.082 475.669 647.203 C 416.051 711.101 387.076 790.755 390.159 878.048 C 392.976 956.76 426.978 1031.12 484.67 1084.74 C 503.199 1102.01 523.65 1117.1 545.622 1129.7 C 620.754 1173.37 685.198 1167.5 769.125 1168 C 769.085 1181.3 769.249 1195.19 768.943 1208.43 z"/>
<path transform="translate(0,0)" fill="rgb(20,60,195)" d="M 1278.39 916.713 C 1316 916.182 1352.06 914.67 1389.75 921.138 C 1673.68 969.867 1683.74 1378.76 1401.74 1440.66 C 1380.94 1445.23 1358.53 1445.85 1337 1445.98 L 882.496 1445.72 L 748.5 1445.72 C 727.284 1445.73 697.612 1444.91 676.871 1446.05 C 676.152 1432.2 675.887 1418.32 676.077 1404.45 C 732.649 1405.36 790.884 1404.68 847.56 1404.68 L 1158.55 1404.66 L 1296.4 1404.67 C 1324.52 1404.71 1360.74 1406.21 1388.02 1401.6 C 1426.66 1395.08 1470.6 1371.58 1498.78 1344.22 C 1542.65 1301.54 1567.8 1243.19 1568.7 1181.98 C 1569.61 1123.98 1546.9 1068.11 1505.78 1027.2 C 1432.71 953.341 1374.66 959.083 1278.62 957.732 C 1277.88 943.7 1279.07 930.009 1278.39 916.713 z"/>
<path transform="translate(0,0)" fill="rgb(20,60,195)" d="M 771.939 1116.18 C 720.688 1113.33 674.837 1120.26 623.182 1107.54 C 507.571 1079.06 441.32 972.892 441.685 857.852 C 442.076 734.613 523.605 632.733 645.021 608.867 C 687.948 600.398 733.057 603.229 776.425 603.679 L 894.472 603.752 L 1372.12 603.785 C 1372.03 615.955 1371.57 631.398 1372.29 643.287 C 1361.99 644.596 1326.53 643.653 1313.89 643.633 L 1191.25 643.555 L 867.911 643.601 C 818.792 643.604 769.241 643.526 720.276 643.342 C 651.249 642.398 591.411 657.976 542.655 709.184 C 457.826 798.277 461.492 939.892 551.936 1023.28 C 616.602 1082.9 690.852 1075.88 771.53 1073.87 C 770.624 1083.17 770.315 1106.96 771.939 1116.18 z"/>
<path transform="translate(0,0)" fill="rgb(247,119,43)" d="M 1372.23 509.202 C 1374.95 490.858 1380.58 482.259 1401.02 482.005 C 1429.5 481.65 1458.05 482.358 1486.59 482.351 L 1553.98 482.319 C 1578.94 482.296 1597.82 479.885 1620.82 491.269 C 1625.55 506.4 1625.18 535.743 1622.4 551.236 C 1630.5 551.07 1651.17 550.212 1658.2 550.992 C 1656.8 538.202 1656.72 528.932 1657.66 516.076 C 1668.49 521.383 1764.08 569.42 1766.12 574.384 C 1763.32 577.168 1763.81 575.272 1760 577.493 C 1727.28 596.593 1691.62 616.116 1657.21 631.771 C 1657.1 619.376 1656.64 605.227 1657.63 592.995 C 1645.95 594.109 1634.19 594.069 1622.52 592.877 C 1631.24 669.644 1620.72 664.067 1549.88 664.048 L 1477.83 664.057 L 1423.18 664.167 C 1411.95 664.284 1400.67 664.785 1389.46 664.094 C 1377.3 663.346 1374.57 653.246 1372.29 643.287 C 1371.57 631.398 1372.03 615.955 1372.12 603.785 C 1372.33 585.475 1372.31 567.163 1372.07 548.854 C 1372.02 535.636 1372.07 522.418 1372.23 509.202 z"/>
<path transform="translate(0,0)" fill="rgb(197,198,203)" d="M 1413.74 522.159 C 1429.28 523.165 1453.82 522.392 1470.36 522.384 L 1583.03 522.443 C 1582.52 553.91 1581.86 594.125 1583.11 625.146 L 1413.69 625.159 C 1414.83 593.383 1413.77 554.552 1413.74 522.159 z"/>
<path transform="translate(0,0)" fill="rgb(247,119,43)" d="M 424.864 1448.04 C 423.46 1432.5 421.722 1409.04 427.405 1394.49 C 428.406 1391.93 430.308 1388.17 433.003 1387.13 C 442.857 1383.33 638.747 1383.32 661.617 1385.26 C 665.755 1385.61 669.137 1386.83 672.902 1388.53 C 674.699 1395.09 675.437 1397.62 676.077 1404.45 C 675.887 1418.32 676.152 1432.2 676.871 1446.05 C 677.031 1453.66 676.187 1492.94 677.057 1496.86 C 676.23 1506.25 675.16 1531.92 676.647 1540.75 C 675.48 1551.18 670.775 1557 659.714 1557.32 C 595.966 1559.22 531.939 1557.69 468.132 1558.08 C 458.151 1557.97 434.826 1557.14 427.975 1548.9 C 418.237 1537.19 423.491 1502.67 424.743 1488.15 L 394.379 1488.08 C 395.885 1500.13 395.044 1519.66 395.068 1532.63 C 359.691 1513.37 324.012 1494.58 291.665 1470.35 C 324.568 1447.3 358.813 1426.32 395.397 1409.56 C 395.171 1419.72 396.308 1439.42 393.783 1448.21 C 403.854 1447.81 414.73 1448.03 424.864 1448.04 z M 466.575 1517.67 C 484.556 1517.82 632.425 1518.71 636.132 1516.73 C 635.65 1486.2 635.614 1455.68 636.025 1425.16 C 626.288 1426.02 612.052 1425.48 601.915 1425.42 L 547.864 1425.32 L 499.421 1425.39 C 488.794 1425.45 476.822 1426.22 466.418 1424.86 C 467.808 1438.82 468.882 1505.99 466.575 1517.67 z"/>
<path transform="translate(0,0)" fill="rgb(247,119,43)" d="M 835.972 1116.34 C 835.854 1094.63 836.156 1073.91 840.024 1052.5 C 860.963 936.62 957.155 843.659 1074.26 828.62 C 1103.02 824.926 1131.98 826.064 1160.81 826.11 C 1200.57 826.335 1240.33 826.256 1280.09 825.873 L 1280.01 868.158 C 1271.96 867.711 1262.51 867.634 1254.42 867.902 C 1189.71 870.044 1120.07 862.058 1056.77 875.478 C 1004.9 886.474 957.662 917.43 925.86 959.439 C 896.046 998.822 873.677 1066.37 879.475 1116.16 C 864.976 1115.75 850.467 1115.81 835.972 1116.34 z"/>
<path transform="translate(0,0)" fill="rgb(247,119,43)" d="M 1172.02 924.11 C 1187.12 926.55 1200.43 924.319 1213.97 925.823 C 1212.7 984.112 1200.68 1040.74 1169.07 1090.09 C 1122.64 1162.59 1042.3 1201.98 957.935 1207.52 C 930.308 1209.34 901.466 1207.85 873.728 1208.35 C 841.314 1208.41 808.951 1209.3 776.587 1208.79 C 774.306 1208.75 771.155 1208.69 768.943 1208.43 C 769.249 1195.19 769.085 1181.3 769.125 1168 L 882.357 1168.15 C 972.848 1168.11 1036.92 1166.76 1107.05 1097.16 C 1141.74 1062.15 1163.75 1016.55 1169.55 967.598 C 1171.12 955.433 1171.6 936.73 1172.02 924.11 z"/>
</svg>