<svg version="1.1" xmlns="http://www.w3.org/2000/svg" style="display: block;" viewBox="0 0 2048 2048" width="512" height="512" preserveAspectRatio="none">
<path transform="translate(0,0)" fill="rgb(244,114,15)" d="M 1277.3 827.735 C 1275.84 789.539 1277.26 750.733 1276.67 712.478 C 1276.4 694.935 1276.67 676.111 1281.06 659.072 C 1285.08 643.634 1292.92 629.455 1303.85 617.845 C 1326.44 593.52 1353.19 580.518 1386.29 580.142 C 1411.29 579.857 1436.18 580.003 1461.17 580.065 L 1594.19 580.277 L 1688.8 580.32 C 1733.58 580.557 1789.13 577.719 1824.35 610.27 C 1852.87 636.631 1858.31 680.289 1859.45 717.067 C 1860.15 753.397 1859.79 790.85 1859.76 827.358 L 1859.69 1013.39 L 1859.71 1109.82 C 1859.73 1153.05 1863.62 1202.37 1831.15 1236.12 C 1804.84 1263.46 1763.83 1270.71 1727.42 1271.11 C 1649.66 1271.31 1571.75 1271.23 1493.97 1271.24 L 1422.35 1271.23 C 1383.42 1271.21 1343.28 1274.23 1313.24 1244.25 C 1281.47 1212.54 1276.91 1166.6 1276.75 1124 L 1276.33 956.24 C 1276.25 934.441 1277.55 898.137 1275.74 877.611 C 1267.34 882.036 1255.76 889.756 1247.25 894.947 C 1227.46 906.92 1207.75 919.007 1188.1 931.209 L 979.24 1061.65 C 927.572 1093.42 875.236 1124.18 823.76 1156.15 C 812.42 1163.19 778.671 1183.04 770.778 1190.26 C 758.388 1222.13 746.936 1246.55 713.586 1261.68 C 693.852 1270.64 661.453 1273.37 639.668 1272.1 C 634.824 1272.11 551.712 1325.03 542.129 1330.92 L 312.903 1472.55 L 259.497 1505.48 C 244.44 1514.87 222.694 1530.17 205.754 1533.49 C 172.966 1508.21 203.818 1493.65 225.688 1479.86 L 281.432 1445.44 L 513.516 1302.14 C 522.024 1296.9 560.177 1275.67 564.151 1271.49 C 488.763 1270.78 413.178 1271.68 338.012 1271.1 C 301.664 1270.12 246.757 1267.48 220.781 1238.91 C 186.102 1200.78 189.753 1128.16 189.741 1079.32 L 189.743 979.015 L 189.754 789.878 C 189.753 757.482 189.558 724.686 189.824 692.472 C 190.284 663.938 197.557 634.03 219.635 614.334 C 260.03 578.298 318.194 580.531 368.541 580.522 L 451.357 580.552 C 518.634 580.593 585.929 580.217 653.204 580.861 C 727.019 581.567 773.48 635.218 770.862 707.733 C 794.622 720.693 817.758 737.382 840.234 752.682 L 938.064 819.498 L 1039.16 888.713 C 1058.22 901.693 1088.5 921.607 1106.35 935.706 C 1133.63 915.081 1164.87 900.152 1192.62 880.227 C 1218.92 861.343 1251.17 846.046 1277.3 827.735 z M 728.916 1165.91 C 732.031 1155.19 736.057 1140.66 736.491 1129.54 C 737.541 1102.61 736.836 1074.71 736.737 1047.69 L 736.668 902.113 L 736.768 772.337 C 737.014 684.706 745.5 611.559 631.606 615.046 C 614.849 615.559 595.527 615.099 578.45 615.136 L 471.251 615.234 L 364.526 615.148 C 334.816 615.124 284.754 611.953 259.702 626.816 C 215.557 653.006 225.424 735.388 225.716 777.966 L 225.798 904.108 L 225.753 1055.42 C 225.654 1091.52 223.919 1127.06 227.698 1162.64 C 230.932 1193.09 246.943 1229.66 280.526 1234.91 C 304.132 1238.59 336.057 1236.33 360.426 1236.24 L 532.516 1236.25 L 586.591 1236.26 C 593.355 1236.26 608.004 1235.86 614.35 1236.49 C 633.524 1229.79 712.766 1178.97 728.916 1165.91 z M 1312.12 855.118 C 1313.03 878.636 1312.25 906.047 1312.23 930 L 1312.16 1069.84 C 1312.15 1103.79 1311.02 1138.19 1315.33 1171.91 C 1319.04 1200.91 1336.43 1229.21 1367.33 1234.14 C 1388.13 1237.45 1412.32 1236.3 1433.7 1236.29 L 1536.52 1236.25 L 1662.8 1236.29 C 1715.24 1236.32 1812.51 1246.89 1822.67 1175.9 C 1825.97 1152.84 1824.79 1124.08 1824.76 1100.43 L 1824.71 979.8 L 1824.75 806.463 C 1824.75 770.905 1825.68 734.249 1822.59 698.874 C 1820.89 678.491 1816.6 658.98 1804.55 642.013 C 1782.36 610.762 1740.23 615.216 1706.83 615.194 L 1612.18 615.158 L 1471.79 615.171 C 1442.08 615.181 1413.16 614.474 1383.75 616.938 C 1329.31 621.498 1315.3 649.725 1313.32 700.161 C 1312.34 725.367 1312.07 751.201 1312.38 776.629 C 1312.49 785.844 1313.27 800.368 1311.85 809.174 C 1317.19 808.088 1334.17 792.02 1340.5 788.16 C 1386.8 759.968 1432.74 730.068 1479.92 703.517 C 1488.26 698.819 1514.88 691.077 1518.64 704.666 C 1525.1 725.983 1497.27 739.375 1482.81 748.775 C 1475.49 753.534 1468.33 757.752 1461.21 762.162 C 1431.94 780.605 1402.56 798.885 1373.08 817.001 C 1357.31 826.583 1326.21 844.17 1312.12 855.118 z M 770.944 1142.11 C 780.676 1137.27 790.297 1129.92 799.581 1123.91 C 815.588 1113.66 831.685 1103.56 847.871 1093.6 L 985.476 1010.03 C 1014.56 992.45 1042.7 974.002 1072.74 957.71 C 1063.86 952.976 1049.33 942.786 1040.62 936.997 C 1020.6 923.898 1000.8 910.474 981.216 896.729 L 852.322 808.075 C 828.81 791.855 794.544 766.952 770.902 752.769 C 771.722 809.692 771.111 868.073 771.108 925.073 L 770.944 1142.11 z"/>
<path transform="translate(0,0)" fill="rgb(244,114,15)" d="M 333.121 908.36 C 344.589 907.192 368.497 907.836 380.576 907.83 L 471.73 907.81 L 581.545 907.817 C 600.899 907.82 620.235 907.563 639.571 908.282 C 649.849 908.663 661.082 917.168 662.485 927.525 C 662.891 930.698 661.911 933.893 659.796 936.293 C 652.133 945.056 635.871 945.936 625.004 946.425 L 417.998 946.204 C 402.665 946.238 317.779 950.026 306.416 943.183 C 276.61 925.237 309.102 911.04 333.121 908.36 z"/>
<path transform="translate(0,0)" fill="rgb(9,47,180)" d="M 483.271 718.005 C 491.939 717.803 492.922 719.041 499.392 725.069 C 504.838 739.558 504.868 761.694 502.121 776.707 C 520.04 775.988 536.696 774.821 554.259 779.11 C 588.11 815.49 521.059 812.212 502.857 811.717 C 504.092 833.636 509.334 856.006 485.512 865.942 C 463.747 864.533 464.779 826.093 467.558 810.954 C 450.484 812.32 405.671 817.882 408.452 790.268 C 410.403 770.892 454.546 775.556 467.606 776.953 C 464.693 754.742 459.672 729.195 483.271 718.005 z"/>
<path transform="translate(0,0)" fill="rgb(9,47,180)" d="M 476.91 981.299 C 480.996 980.632 483.942 980.456 488.13 980.996 C 492.503 981.581 496.433 983.966 498.971 987.574 C 505.669 997.05 503.999 1024.89 502.387 1036.45 C 523.371 1034.1 579.273 1029.75 553.971 1067.04 C 539.546 1072.14 517.396 1071.5 502.319 1070 C 503.858 1086.08 502.574 1109.56 493.634 1123.62 C 488.179 1127.66 480.78 1128.64 476.185 1122.93 C 465.038 1109.09 467.277 1086.72 467.955 1070.08 C 455.159 1071.87 422.392 1072.77 412.912 1064.3 C 401.306 1053.92 410.36 1037.44 426.689 1036.58 C 441.448 1035.8 454.019 1035.9 468.193 1036.1 C 467.902 1022.76 467.057 1006.12 469.031 993.051 C 469.984 986.742 471.867 984.59 476.91 981.299 z"/>
<path transform="translate(0,0)" fill="rgb(244,114,15)" d="M 1406.21 908.205 C 1421.05 907.34 1439.66 907.834 1454.83 907.829 L 1541.09 907.811 L 1675.11 907.812 C 1693.64 907.815 1712.27 907.896 1730.78 907.967 C 1747.27 908.03 1762.49 909.813 1758.12 930.923 C 1756.13 940.557 1748.29 943.091 1740 945.944 C 1725.38 947.161 1699.43 946.27 1683.77 946.255 L 1576.98 946.186 L 1461.7 946.225 C 1439.56 946.263 1416.92 947.372 1394.95 945.665 C 1379.3 927.162 1381.57 912.723 1406.21 908.205 z"/>
<path transform="translate(0,0)" fill="rgb(9,47,180)" d="M 1513.74 731.175 C 1548.46 728.054 1537.8 798.623 1535.71 819.999 C 1544.24 809.25 1577.63 763.637 1592.56 787.492 C 1605.38 807.968 1542.18 864.315 1527.86 873.818 C 1507.55 879.999 1464.64 832.286 1451.1 818.308 C 1443.72 811.075 1441.61 800.592 1448.85 792.409 C 1463.93 775.351 1492.06 809.394 1502.62 819.744 C 1499.49 807.296 1498.2 762.917 1501.24 749.366 C 1503.27 740.304 1506.12 736.009 1513.74 731.175 z"/>
<path transform="translate(0,0)" fill="rgb(9,47,180)" d="M 1470.11 1033.31 C 1477.61 1032.89 1485.62 1032.82 1493.16 1032.85 C 1554.54 1033.07 1616.13 1032.01 1677.45 1034.61 C 1687.14 1034.7 1696.12 1039.01 1696.85 1049.89 C 1697.78 1063.65 1687.01 1066.76 1676.6 1067.58 C 1651.97 1069.21 1474.19 1070.89 1461.37 1064.49 C 1457.4 1062.51 1453.99 1058.88 1452.78 1054.56 C 1451.52 1050.05 1452.76 1045.82 1455.11 1041.91 C 1458.57 1036.15 1463.91 1034.75 1470.11 1033.31 z"/>
<path transform="translate(0,0)" fill="rgb(9,47,180)" d="M 1277.3 827.735 C 1275.84 789.539 1277.26 750.733 1276.67 712.478 C 1276.4 694.935 1276.67 676.111 1281.06 659.072 C 1285.08 643.634 1292.92 629.455 1303.85 617.845 C 1326.44 593.52 1353.19 580.518 1386.29 580.142 C 1411.29 579.857 1436.18 580.003 1461.17 580.065 L 1594.19 580.277 L 1688.8 580.32 C 1733.58 580.557 1789.13 577.719 1824.35 610.27 C 1852.87 636.631 1858.31 680.289 1859.45 717.067 C 1860.15 753.397 1859.79 790.85 1859.76 827.358 L 1859.69 1013.39 L 1859.71 1109.82 C 1859.73 1153.05 1863.62 1202.37 1831.15 1236.12 C 1804.84 1263.46 1763.83 1270.71 1727.42 1271.11 C 1649.66 1271.31 1571.75 1271.23 1493.97 1271.24 L 1422.35 1271.23 C 1383.42 1271.21 1343.28 1274.23 1313.24 1244.25 C 1281.47 1212.54 1276.91 1166.6 1276.75 1124 L 1276.33 956.24 C 1276.25 934.441 1277.55 898.137 1275.74 877.611 C 1289.89 867.274 1296.09 863.146 1312.12 855.118 C 1313.03 878.636 1312.25 906.047 1312.23 930 L 1312.16 1069.84 C 1312.15 1103.79 1311.02 1138.19 1315.33 1171.91 C 1319.04 1200.91 1336.43 1229.21 1367.33 1234.14 C 1388.13 1237.45 1412.32 1236.3 1433.7 1236.29 L 1536.52 1236.25 L 1662.8 1236.29 C 1715.24 1236.32 1812.51 1246.89 1822.67 1175.9 C 1825.97 1152.84 1824.79 1124.08 1824.76 1100.43 L 1824.71 979.8 L 1824.75 806.463 C 1824.75 770.905 1825.68 734.249 1822.59 698.874 C 1820.89 678.491 1816.6 658.98 1804.55 642.013 C 1782.36 610.762 1740.23 615.216 1706.83 615.194 L 1612.18 615.158 L 1471.79 615.171 C 1442.08 615.181 1413.16 614.474 1383.75 616.938 C 1329.31 621.498 1315.3 649.725 1313.32 700.161 C 1312.34 725.367 1312.07 751.201 1312.38 776.629 C 1312.49 785.844 1313.27 800.368 1311.85 809.174 C 1304.03 814.381 1286.32 823.922 1277.3 827.735 z"/>
<path transform="translate(0,0)" fill="rgb(9,47,180)" d="M 564.151 1271.49 C 488.763 1270.78 413.178 1271.68 338.012 1271.1 C 301.664 1270.12 246.757 1267.48 220.781 1238.91 C 186.102 1200.78 189.753 1128.16 189.741 1079.32 L 189.743 979.015 L 189.754 789.878 C 189.753 757.482 189.558 724.686 189.824 692.472 C 190.284 663.938 197.557 634.03 219.635 614.334 C 260.03 578.298 318.194 580.531 368.541 580.522 L 451.357 580.552 C 518.634 580.593 585.929 580.217 653.204 580.861 C 727.019 581.567 773.48 635.218 770.862 707.733 C 769.976 713.798 769.305 747.884 770.902 752.769 C 771.722 809.692 771.111 868.073 771.108 925.073 L 770.944 1142.11 C 761.862 1148.16 738.795 1164.48 728.916 1165.91 C 732.031 1155.19 736.057 1140.66 736.491 1129.54 C 737.541 1102.61 736.836 1074.71 736.737 1047.69 L 736.668 902.113 L 736.768 772.337 C 737.014 684.706 745.5 611.559 631.606 615.046 C 614.849 615.559 595.527 615.099 578.45 615.136 L 471.251 615.234 L 364.526 615.148 C 334.816 615.124 284.754 611.953 259.702 626.816 C 215.557 653.006 225.424 735.388 225.716 777.966 L 225.798 904.108 L 225.753 1055.42 C 225.654 1091.52 223.919 1127.06 227.698 1162.64 C 230.932 1193.09 246.943 1229.66 280.526 1234.91 C 304.132 1238.59 336.057 1236.33 360.426 1236.24 L 532.516 1236.25 L 586.591 1236.26 C 593.355 1236.26 608.004 1235.86 614.35 1236.49 C 604.133 1248.66 579.226 1265.57 564.151 1271.49 z"/>
<path transform="translate(0,0)" fill="rgb(9,47,180)" d="M 770.778 1190.26 C 758.388 1222.13 746.936 1246.55 713.586 1261.68 C 693.852 1270.64 661.453 1273.37 639.668 1272.1 C 646.864 1261.75 756.957 1193.6 770.778 1190.26 z"/>
</svg>