<svg version="1.1" xmlns="http://www.w3.org/2000/svg" style="display: block;" viewBox="0 0 2048 2048" width="512" height="512" preserveAspectRatio="none">
<path transform="translate(0,0)" fill="rgb(30,90,221)" d="M 1732.64 483.573 C 1732.6 483.136 1732.56 482.699 1732.52 482.262 C 1731.96 475.272 1733.02 466.667 1737.79 461.114 C 1740.43 458.035 1744.14 456.526 1748.16 456.384 C 1757.88 456.042 1766.25 463.424 1772.69 469.907 C 1788.48 485.804 1846.86 536.783 1845.95 557.236 C 1845.7 562.787 1842.53 567.41 1838.47 570.98 C 1814.79 591.801 1720.1 601.057 1710.66 620.058 C 1714.28 648.97 1714.03 681.8 1714.03 710.999 L 1713.96 808.252 L 1713.63 858.544 C 1713.56 866.239 1713.89 879.819 1712.43 886.964 C 1717.78 881.815 1724.1 874.336 1732.16 874.669 C 1741.27 875.045 1753.41 885.947 1751.92 895.528 C 1749.89 908.662 1740.05 921.551 1732.34 931.862 C 1721.77 945.992 1711.47 960.15 1701.11 974.352 C 1669.03 1018.49 1636.7 1062.45 1604.12 1106.22 L 1461.29 1297.27 C 1417.58 1355.5 1374.1 1414.06 1326.95 1469.67 C 1296.88 1505.15 1266.98 1534.94 1229.28 1562.7 C 1157.06 1615.88 1077.3 1632.42 989.332 1618.82 C 912.448 1606.93 856.925 1573.2 801.734 1519.9 C 783.64 1502.42 766.132 1483.34 745.308 1469.15 C 653.868 1406.86 530.171 1416.7 441.975 1479.82 C 423.048 1493.37 376.64 1533.87 372.232 1557.1 C 371.031 1563.43 371.325 1596.05 371.379 1604.19 C 371.728 1633.13 371.822 1662.07 371.661 1691.01 C 371.468 1706.7 372.551 1722.57 366.876 1737.02 C 347.114 1752.53 329.609 1742.78 325.658 1718.85 C 324.085 1709.32 326.91 1627.16 325.171 1624.59 C 320.352 1627.31 312.603 1639.07 308.991 1644.21 L 279.792 1686.66 C 269.167 1702.02 258.986 1718 246.02 1731.46 C 237.616 1740.19 216.524 1755.78 207.56 1740.04 C 203.745 1733.3 202.806 1725.31 204.956 1717.88 C 210.155 1699.93 249.958 1648.64 262.033 1631.14 C 264.948 1626.92 275.426 1614.1 276.526 1610.38 C 274.47 1608.94 275.441 1609.16 273.068 1609.62 C 264.11 1611.34 247.535 1601.25 246.381 1591.87 C 243.217 1566.12 244.374 1537.35 244.417 1511.39 L 244.527 1398.28 L 244.51 1270.28 C 244.504 1244.49 244.333 1218.68 244.664 1192.9 C 245.948 1092.92 295.359 998.08 372.472 935.616 C 429.945 888.178 501.444 860.992 575.915 858.26 C 613.277 856.654 653.181 863.472 688.438 875.855 C 698.283 879.312 706.781 883.804 715.499 887.105 C 726.079 892.826 737.325 897.873 747.593 903.727 C 782.89 923.85 811.767 952.902 836.275 984.976 C 840.141 990.035 844.356 995.244 848.941 999.739 C 854.234 1007.61 858.119 1011.39 863.413 1020.49 C 888.7 1063.92 903.2 1123.74 903.999 1173.94 C 922.899 1184.66 942.776 1193.56 963.362 1200.52 C 1033 1223.44 1109.54 1221.79 1175.54 1188.14 C 1197.81 1176.85 1218.22 1162.21 1236.06 1144.74 C 1244.31 1136.78 1252.03 1128.31 1259.19 1119.37 C 1268.92 1107.21 1281.21 1089.02 1290.68 1075.54 C 1305.05 1055.09 1330.16 1026.78 1338.81 1004.6 C 1340.96 999.075 1341.43 964.705 1342.01 955.842 C 1343.99 927.474 1349.45 899.456 1358.26 872.42 C 1383.23 796.156 1439.08 733.607 1486.39 670.341 C 1499.15 652.651 1514.12 635.992 1527.01 618.514 C 1562.35 570.63 1606.44 538.496 1659.23 511.518 C 1675.52 506.277 1689.46 500.146 1705.13 493.355 C 1714.89 489.055 1722.3 486.497 1732.64 483.573 z M 1253.7 1481.76 C 1262.82 1473.85 1277.5 1454.34 1285.64 1444.15 C 1298.61 1427.82 1312.08 1411.88 1326.02 1396.36 C 1321.97 1380.76 1321.64 1356.24 1322.36 1340.04 C 1324.19 1299.08 1324.26 1258.35 1324 1217.37 C 1323.74 1194.56 1323.24 1171.76 1322.51 1148.96 C 1322.17 1135.3 1317.96 1116.13 1329.22 1108.6 C 1343.58 1098.99 1352.53 1074.89 1362.86 1060 C 1368.47 1093.91 1366.6 1126.42 1366.31 1160.66 L 1365.8 1276.99 C 1365.82 1292.65 1365.12 1329.07 1368.21 1343.18 C 1375.49 1338.74 1432.36 1258.11 1439.05 1246.71 C 1434.56 1224.94 1439.11 1180.48 1439.1 1156.87 C 1438.63 1105.95 1438.55 1055.02 1438.89 1004.09 C 1438.92 997.323 1438.7 953.976 1439.97 952.138 C 1447.57 941.095 1468.71 915.524 1476.23 899.302 L 1476.75 898.157 C 1472.28 898.83 1467 905.803 1464.63 909.49 C 1451.47 929.949 1436.79 948.465 1422.3 967.821 C 1407.33 987.98 1392.72 1008.41 1378.5 1029.11 L 1344.5 1078.56 C 1338.8 1086.97 1332.33 1099.17 1326.08 1106.66 C 1308.76 1127.39 1292.18 1148.77 1275.16 1169.75 C 1270.94 1174.96 1251.49 1190.34 1249.83 1193.71 C 1254.18 1201.82 1255.48 1220.66 1255.21 1229.88 C 1252.78 1312.96 1258.3 1398.99 1253.7 1481.76 z M 468.282 1399.21 C 466.998 1358.96 468.014 1312.96 468.016 1272.32 L 467.822 1013.93 C 368.645 1086.2 371.426 1153.45 371.487 1264.12 L 371.61 1401.83 C 371.638 1421.24 372.682 1459.48 370.316 1477.54 C 391.256 1460.99 409.709 1444.91 432.631 1430.79 C 438.236 1427.34 464.973 1410.79 468.038 1406.99 C 468.393 1403.64 468.367 1402.49 468.282 1399.21 z M 515.178 1037.97 C 516.612 1056.51 515.991 1079.85 515.938 1098.78 L 515.776 1191.45 L 515.838 1326.37 C 515.854 1346.87 516.62 1371.79 515.893 1391.87 C 537.54 1385.4 560.104 1383.08 582.533 1381.16 C 587.546 1380.73 591.543 1382.36 592.413 1377.23 C 591.432 1362.66 591.993 1342.65 591.987 1327.54 L 591.974 1238.13 L 592.146 980.086 C 582.711 975.663 521.714 986.542 511.812 992.946 C 515.141 1006.83 515.234 1023.58 515.178 1037.97 z M 637.715 1380.7 C 662.731 1385.81 693.353 1392.06 716.147 1402.97 L 716.117 1389.48 L 714.285 1303.33 C 713.441 1228.79 713.808 1154.24 715.386 1079.71 C 715.57 1071.58 715.465 1038.9 717.294 1034.31 L 718.759 1033.58 C 715.232 1024.36 693.105 1011.09 684.891 1006.39 C 679 1003.02 643.027 986.463 637.912 987.937 C 639.442 1017.32 638.69 1051.06 638.681 1080.72 L 638.642 1240.3 C 638.69 1261.98 641.788 1366.94 637.715 1380.7 z M 763.374 1091.08 L 763.666 1277.96 C 763.678 1305.21 765.937 1405.89 759.319 1424.99 C 761.661 1428.28 783.724 1439.96 789.935 1445.05 C 811.356 1462.61 829.008 1480.3 848.297 1499.92 L 846.399 1268.62 C 846.402 1254.15 845.039 1197.7 847.125 1186.68 C 843.439 1181.49 815.101 1153.21 808.248 1145.52 C 792.273 1127.58 739.029 1040.28 721.003 1035.71 C 733.789 1062.25 746.179 1069.94 763.374 1091.08 z M 1013.37 1575.15 C 1020.53 1578.3 1083.11 1574.53 1088.84 1569.05 L 1088.78 1568.2 C 1087.76 1561.94 1087.96 1546.7 1087.94 1539.77 L 1087.92 1489.2 L 1087.9 1343.39 C 1087.96 1317.3 1089.01 1286.55 1087.84 1260.97 C 1063.14 1261.24 1037.75 1260.56 1013 1260.24 L 1012.21 1479.87 C 1012.29 1499.31 1013.22 1518.77 1013.33 1538.26 C 1013.4 1550.07 1014.49 1563.33 1013.37 1575.15 z M 891.133 1531.42 C 902.757 1543.72 949.093 1561.25 966.081 1566.82 L 965.874 1252.5 C 943.047 1241.68 911.67 1230.5 891.379 1218.04 C 892.413 1229.36 892.6 1278.37 891.812 1289.54 L 891.855 1456.91 C 891.856 1469.4 892.736 1521.14 891.133 1531.42 z M 1134.17 1252.68 C 1137.89 1343.4 1128.78 1434.94 1132.79 1525.85 C 1133.29 1537.02 1134.21 1549.1 1133.93 1560.23 C 1149.45 1557.81 1195.71 1531.27 1208.54 1520.97 C 1208.09 1515.89 1208 1513.3 1208.21 1508.21 C 1206.83 1422.51 1208.13 1331.29 1208.82 1245.4 C 1208.37 1237.21 1208.07 1229.01 1207.92 1220.82 C 1193.41 1229.96 1173.18 1238.23 1157.16 1244.65 C 1150.68 1247.25 1139.86 1250.1 1134.17 1252.68 z M 1594.32 728.042 C 1599.98 749.673 1598.06 797.006 1597.95 820.776 L 1597.81 979.001 C 1597.71 997.576 1595.52 1020.25 1596.16 1038.2 L 1597.34 1039.62 L 1599.1 1038.67 C 1608.66 1020.22 1668.7 948.023 1670.15 938.195 C 1667.09 924.895 1668.01 859.134 1668.01 842.108 L 1667.77 642.383 C 1644.42 657.705 1606.95 703.314 1594.32 728.042 z M 1484.05 1189.86 C 1488.76 1188.04 1550.13 1105.38 1552.11 1094.33 L 1552.13 902.234 C 1552.12 865.868 1551.39 826.979 1552.29 790.937 L 1550.32 790.613 C 1537.68 807.147 1483.79 878.978 1480.3 892.823 C 1485.31 903.667 1483.98 1157.09 1484.05 1189.86 z M 1440.14 806.228 C 1449.37 812.101 1461.42 818.03 1471.26 823.199 C 1472.05 823.016 1472.84 822.832 1473.63 822.649 C 1486.84 807.073 1505.54 774.695 1517.26 760.102 C 1510.27 756.252 1495.88 745.029 1489.44 739.556 C 1480.09 753.871 1451.09 793.277 1440.14 806.228 z M 1593.61 610.121 C 1599.25 614.162 1609.24 620.875 1614.18 625.212 L 1615.97 626.412 C 1619.03 625.34 1624.27 620.437 1626.87 618.003 C 1642.86 603.044 1661.22 592.704 1680.71 582.851 C 1677.86 578.517 1668.41 560.211 1666.44 559.115 C 1631.74 576.77 1622.38 586.079 1593.61 610.121 z M 1517.74 706.635 C 1524.64 710.53 1538.43 720.308 1543.15 722.604 C 1555.08 702.415 1569.81 676.717 1587.69 661.363 L 1562.09 641.685 C 1555.32 653.903 1544.19 668.075 1535.95 679.744 C 1529.57 688.764 1523.94 697.769 1517.74 706.635 z M 681.331 920.568 L 680.122 920.313 C 673.105 918.784 665.829 916.368 658.896 914.299 C 641.075 908.978 624.026 907.074 605.537 905.277 C 604.159 913.426 606.509 925.941 605.234 935.697 C 619.663 936.91 633.984 939.176 648.083 942.477 C 655.165 944.202 664.211 947.298 670.976 948.519 C 672.742 945.75 672.604 945.43 673.209 942.279 C 675.425 934.081 677.56 928.259 681.331 920.568 z M 307.72 1098.76 C 315.949 1101.84 326.955 1105.59 334.618 1109.4 C 339.016 1108.9 341.533 1104.44 343.473 1100.64 C 353.041 1081.94 363.935 1062.05 372.463 1042.91 C 368.978 1039.55 352.754 1023.03 349.697 1021.42 C 341.448 1035.49 332.622 1049.86 324.798 1064.13 C 318.79 1075.09 313.502 1087.56 307.72 1098.76 z M 485.951 920.877 C 490.753 929.02 496.448 940.794 499.83 949.7 C 516.217 944.734 544.502 936.414 560.835 935.782 C 560.022 925.673 562.463 914.109 558.053 907.476 C 554.718 905.584 554.016 905.876 549.492 906.261 C 524.83 910.559 509.796 914.857 485.951 920.877 z M 794.963 1005.13 C 772.486 977.321 750.812 965.65 725.394 942.006 C 723.937 940.651 724.98 941.423 723.257 940.334 C 718.439 949.305 712.771 959.633 708.776 968.922 C 724.886 978.715 738.792 988.321 753.252 1000.51 C 759.188 1005.51 768.622 1018.81 774.429 1018.77 L 777.001 1017.21 C 782.95 1013.1 788.826 1008.96 794.963 1005.13 z M 799.918 1056.94 C 812.291 1073.87 832.371 1105.78 844.77 1119.81 C 848.347 1124.22 852.306 1129.32 856.004 1133.53 C 847.348 1108.38 838.233 1061.43 821.387 1041.24 L 820.094 1040.81 C 811.867 1046.6 807.364 1050.22 799.918 1056.94 z M 325.931 1377.27 C 317.37 1377.58 297.178 1378.2 289.204 1377.13 C 289.409 1385.56 289.002 1447.17 291.258 1450.01 C 296.091 1450.2 322.132 1450.8 325.639 1449.76 C 324.808 1436.17 324.28 1390.2 325.931 1377.27 z M 444.953 940.189 C 427.879 948.48 414.381 959.288 399.587 970.985 C 393.127 976.093 386.583 982.164 379.567 986.265 C 386.181 993.224 393.085 1000.27 399.302 1007.56 L 401.113 1009.76 C 401.01 1009.77 447.564 973.175 459.297 968.338 C 457.047 963.228 448.586 942.242 444.953 940.189 z M 289.774 1570.84 C 294.155 1570.73 299.727 1570.74 303.994 1570.33 L 313.016 1557.67 C 330.422 1534.36 323.427 1518.09 326.092 1493.89 C 314.571 1494.01 300.292 1494.52 289.049 1493.79 C 290.059 1519.38 289.795 1545.22 289.774 1570.84 z M 1417.23 845.47 C 1397.6 878.25 1396.11 912.982 1384.41 945.007 C 1389.64 938.946 1392.87 934.15 1397.4 927.507 C 1407.72 913.117 1434.63 875.244 1445.39 863.37 C 1435.37 858.17 1426.76 851.068 1417.23 845.47 z M 1726.3 562.136 C 1741.35 556.068 1769.14 547.992 1785.17 544.569 C 1780.86 540.222 1764.28 521.047 1759.86 521.138 C 1742.82 525.97 1720.8 532.946 1704.8 540.542 C 1711.73 550.299 1713.46 554.782 1716.99 566.282 C 1719.01 565.374 1724.49 562.734 1726.3 562.136 z M 314.483 1216.48 L 325.167 1216.92 C 324.847 1198.11 324.688 1170.8 325.375 1152.15 C 316.938 1149.19 304.008 1144.48 296.039 1140.76 C 292.345 1156.96 290.289 1173.5 289.902 1190.12 C 289.657 1197.79 289.876 1209.97 288.969 1217.1 C 297.685 1216.72 305.731 1216.38 314.483 1216.48 z M 289.096 1260.99 C 289.502 1275.58 290.533 1320.78 289.272 1334.38 C 299.555 1333.35 319.113 1334.76 325.665 1333.66 C 325.668 1314.82 324.422 1277.74 326.119 1260.99 C 316.552 1261.63 298.591 1261.82 289.096 1260.99 z"/>
<path transform="translate(0,0)" fill="rgb(193,214,252)" d="M 1362.86 1060 C 1368.47 1093.91 1366.6 1126.42 1366.31 1160.66 L 1365.8 1276.99 C 1365.82 1292.65 1365.12 1329.07 1368.21 1343.18 C 1361.83 1354.58 1335.75 1387.19 1326.02 1396.36 C 1321.97 1380.76 1321.64 1356.24 1322.36 1340.04 C 1324.19 1299.08 1324.26 1258.35 1324 1217.37 C 1323.74 1194.56 1323.24 1171.76 1322.51 1148.96 C 1322.17 1135.3 1317.96 1116.13 1329.22 1108.6 C 1343.58 1098.99 1352.53 1074.89 1362.86 1060 z"/>
<path transform="translate(0,0)" fill="rgb(193,214,252)" d="M 467.822 1013.93 C 473.932 1007.48 502.056 995.208 511.812 992.946 C 515.141 1006.83 515.234 1023.58 515.178 1037.97 C 513.582 1078.79 514.93 1127.23 514.933 1168.75 L 515.131 1391.93 C 507.439 1394.06 473.514 1406.59 470.003 1407.06 C 469 1404.3 468.562 1399.79 468.282 1399.21 C 466.998 1358.96 468.014 1312.96 468.016 1272.32 L 467.822 1013.93 z"/>
<path transform="translate(0,0)" fill="rgb(193,214,252)" d="M 592.146 980.086 C 597.448 978.201 633.285 984.421 637.912 987.937 C 639.442 1017.32 638.69 1051.06 638.681 1080.72 L 638.642 1240.3 C 638.69 1261.98 641.788 1366.94 637.715 1380.7 C 630.426 1380.87 598.035 1381.93 593.229 1379.78 L 592.413 1377.23 C 591.432 1362.66 591.993 1342.65 591.987 1327.54 L 591.974 1238.13 L 592.146 980.086 z"/>
<path transform="translate(0,0)" fill="rgb(193,214,252)" d="M 717.294 1034.31 L 721.003 1035.71 C 733.789 1062.25 746.179 1069.94 763.374 1091.08 L 763.666 1277.96 C 763.678 1305.21 765.937 1405.89 759.319 1424.99 L 758.091 1425.5 C 741.097 1414.28 735.368 1411.33 716.801 1403.25 C 716.916 1397.69 716.683 1394.92 716.117 1389.48 L 714.285 1303.33 C 713.441 1228.79 713.808 1154.24 715.386 1079.71 C 715.57 1071.58 715.465 1038.9 717.294 1034.31 z"/>
<path transform="translate(0,0)" fill="rgb(193,214,252)" d="M 965.874 1252.5 C 980.15 1254.4 1000.87 1258.98 1013 1260.24 L 1012.21 1479.87 C 1012.29 1499.31 1013.22 1518.77 1013.33 1538.26 C 1013.4 1550.07 1014.49 1563.33 1013.37 1575.15 C 1007.75 1575.04 973.454 1568.19 966.081 1566.82 L 965.874 1252.5 z"/>
<path transform="translate(0,0)" fill="rgb(193,214,252)" d="M 1594.32 728.042 C 1599.98 749.673 1598.06 797.006 1597.95 820.776 L 1597.81 979.001 C 1597.71 997.576 1595.52 1020.25 1596.16 1038.2 C 1596.17 1039.69 1596.1 1041.84 1595.17 1043.04 C 1588.82 1051.19 1560.16 1092.95 1553.27 1094.92 L 1552.11 1094.33 L 1552.13 902.234 C 1552.12 865.868 1551.39 826.979 1552.29 790.937 C 1558.17 773.155 1582.36 741.981 1594.32 728.042 z"/>
<path transform="translate(0,0)" fill="rgb(193,214,252)" d="M 847.125 1186.68 C 854.271 1190.99 884.816 1212.52 890.93 1218.03 C 890.935 1228.56 890.435 1283.24 891.812 1289.54 L 891.855 1456.91 C 891.856 1469.4 892.736 1521.14 891.133 1531.42 C 875.015 1524.04 861.124 1511.91 848.297 1499.92 L 846.399 1268.62 C 846.402 1254.15 845.039 1197.7 847.125 1186.68 z"/>
<path transform="translate(0,0)" fill="rgb(193,214,252)" d="M 1208.89 1220.72 C 1215.66 1216.18 1244.68 1195.9 1249.83 1193.71 C 1254.18 1201.82 1255.48 1220.66 1255.21 1229.88 C 1252.78 1312.96 1258.3 1398.99 1253.7 1481.76 C 1240.13 1499.56 1227.61 1508.89 1209.19 1521.31 C 1209.1 1518.4 1209.2 1510.34 1208.21 1508.21 C 1206.83 1422.51 1208.13 1331.29 1208.82 1245.4 C 1209.41 1238.46 1208.98 1227.93 1208.89 1220.72 z"/>
<path transform="translate(0,0)" fill="rgb(193,214,252)" d="M 1088.75 1260.25 C 1101.03 1259.07 1121.16 1254.83 1134.17 1252.68 C 1137.89 1343.4 1128.78 1434.94 1132.79 1525.85 C 1133.29 1537.02 1134.21 1549.1 1133.93 1560.23 C 1125.95 1563.86 1096.22 1571.95 1088.84 1569.05 L 1088.78 1568.2 C 1089.63 1558.13 1089.01 1539.85 1088.95 1529.33 L 1088.72 1458.1 C 1088.74 1393.73 1090.22 1324.01 1088.75 1260.25 z"/>
<path transform="translate(0,0)" fill="rgb(193,214,252)" d="M 1476.75 898.157 C 1477.58 896.671 1479.29 894.321 1480.3 892.823 C 1485.31 903.667 1483.98 1157.09 1484.05 1189.86 C 1479.45 1199.54 1447.01 1238.63 1439.05 1246.71 C 1434.56 1224.94 1439.11 1180.48 1439.1 1156.87 C 1438.63 1105.95 1438.55 1055.02 1438.89 1004.09 C 1438.92 997.323 1438.7 953.976 1439.97 952.138 C 1447.57 941.095 1468.71 915.524 1476.23 899.302 L 1476.75 898.157 z"/>
<path transform="translate(0,0)" fill="rgb(193,214,252)" d="M 1667.77 642.383 C 1675.52 636.375 1701.16 617.912 1710.66 620.058 C 1714.28 648.97 1714.03 681.8 1714.03 710.999 L 1713.96 808.252 L 1713.63 858.544 C 1713.56 866.239 1713.89 879.819 1712.43 886.964 C 1705.9 894.285 1674.03 937.157 1670.94 938.542 L 1670.15 938.195 C 1667.09 924.895 1668.01 859.134 1668.01 842.108 L 1667.77 642.383 z"/>
<path transform="translate(0,0)" fill="rgb(254,151,53)" d="M 738.955 832.815 C 716.431 808.983 703.294 785.422 700.893 752.05 C 698.612 718.733 709.468 685.846 731.135 660.434 C 752.742 636.023 783.097 621.108 815.624 618.921 C 929.086 611.335 992.883 742.116 914.023 830.002 C 919.473 836.527 924.599 842.532 927.913 850.469 C 933.84 865.311 937.986 877.625 938.583 893.739 C 940.582 947.7 899.937 989.113 848.941 999.739 C 844.356 995.244 840.141 990.035 836.275 984.976 C 811.767 952.902 782.89 923.85 747.593 903.727 C 737.325 897.873 726.079 892.826 715.499 887.105 C 716.394 880.418 719.481 867.387 722.164 861.263 C 726.48 848.622 730.353 842.642 738.955 832.815 z"/>
<path transform="translate(0,0)" fill="rgb(254,151,53)" d="M 738.955 832.815 C 755.975 849.382 787.784 864.02 811.475 865.813 C 856.649 869.232 880.735 856.828 914.023 830.002 C 919.473 836.527 924.599 842.532 927.913 850.469 C 933.84 865.311 937.986 877.625 938.583 893.739 C 940.582 947.7 899.937 989.113 848.941 999.739 C 844.356 995.244 840.141 990.035 836.275 984.976 C 811.767 952.902 782.89 923.85 747.593 903.727 C 737.325 897.873 726.079 892.826 715.499 887.105 C 716.394 880.418 719.481 867.387 722.164 861.263 C 726.48 848.622 730.353 842.642 738.955 832.815 z"/>
<path transform="translate(0,0)" fill="rgb(254,68,17)" d="M 738.955 832.815 C 755.975 849.382 787.784 864.02 811.475 865.813 C 856.649 869.232 880.735 856.828 914.023 830.002 C 919.473 836.527 924.599 842.532 927.913 850.469 C 923.377 854.866 917.861 860.21 913.69 864.982 C 868.78 916.365 793.861 927.145 739.807 883.387 C 733.315 878.131 729.262 866.367 722.164 861.263 C 726.48 848.622 730.353 842.642 738.955 832.815 z"/>
<path transform="translate(0,0)" fill="rgb(254,151,53)" d="M 1583.19 378.275 C 1594.46 356.378 1625.81 331.901 1642.7 312.726 C 1648.45 306.197 1671.09 283.054 1679.23 283.532 C 1701.75 286.376 1714.88 307.112 1730.19 322.521 C 1743.29 335.703 1796.75 374.127 1777.75 397.162 C 1759.99 418.71 1731.03 386.838 1720.26 373.078 C 1717.38 369.397 1709.46 362.451 1705.19 358.62 C 1706.86 374.436 1705.78 408.64 1706.12 426.038 C 1706.37 439.101 1707.02 483.189 1705.13 493.355 C 1689.46 500.146 1675.52 506.277 1659.23 511.518 C 1656.37 498.88 1657.07 374.748 1658.58 361.344 C 1648.18 374.442 1626.63 397.345 1610.78 403.077 C 1592.72 409.606 1586.66 392.393 1583.19 378.275 z"/>
</svg>