<svg version="1.1" xmlns="http://www.w3.org/2000/svg" style="display: block;" viewBox="0 0 2048 2048" width="512" height="512" preserveAspectRatio="none">
<path transform="translate(0,0)" fill="rgb(0,12,162)" d="M 985.671 851.657 C 987.212 868.514 988.711 919.819 985.268 934.818 C 972.688 989.618 921.672 929.669 904.156 911.864 L 857.623 865.014 C 803.515 809.903 748.914 755.279 693.826 701.148 C 666.482 674.099 661.808 662.928 689.356 631.479 C 700.483 618.776 712.762 607.058 724.679 595.076 L 784.517 534.924 C 834.777 484.399 884.862 433.161 934.692 382.598 C 983.035 333.544 985.952 393.744 986.202 430.258 C 986.332 449.241 986.661 469.414 985.508 488.243 C 1020.73 489.615 1062.13 488.655 1097.85 488.657 L 1301.97 488.639 L 1375.04 488.617 C 1405.21 488.659 1457.13 485.888 1479.17 510.099 C 1501.09 534.171 1497.94 579.387 1498.88 609.918 C 1499.13 618.618 1499.23 638.722 1498.63 646.932 C 1498.5 648.855 1498.27 650.77 1497.93 652.667 C 1556.82 651.122 1619.67 652.515 1678.93 652.302 L 1755.67 652.022 C 1770.06 652.003 1784.38 652.385 1798.69 652.55 C 1824.14 652.844 1837.41 670.104 1822.96 693.691 C 1805.18 705.263 1778.68 702.013 1757.88 701.953 L 1682.7 701.876 L 1565.59 701.911 C 1544.15 701.917 1519.8 702.442 1498.61 701.598 C 1501.28 761.114 1511.76 850.368 1427.95 851.523 C 1390.05 852.045 1352.27 851.461 1314.38 851.39 L 1103.88 851.376 C 1065.64 851.382 1023.5 850.488 985.671 851.657 z M 935.701 872.403 C 931.07 824.125 923.068 794.652 985.126 802.868 C 1135.95 805.308 1289.78 800.469 1440.5 803.39 C 1451.61 778.182 1448.7 761.327 1448.47 734.493 L 1448.37 667.937 L 1448.49 603.857 C 1448.68 578.924 1452.7 558.708 1436.39 538.087 C 1420.25 536.964 1392.86 537.821 1375.91 537.844 L 1263.03 537.871 L 1087.22 537.858 C 1053.66 537.86 1018.39 537.352 984.978 538.236 C 971.264 538.648 950.511 540.109 939.94 529.985 C 933.881 524.181 933.061 515.082 933.328 507.131 C 933.936 489.006 936.171 470.427 935.724 452.304 C 885.705 506.917 832.538 558.436 780.987 611.61 C 763.766 629.373 745.261 647.174 728.444 665.177 C 742.051 677.432 755.508 691.351 768.503 704.368 C 824.007 759.969 882.254 814.904 935.701 872.403 z"/>
<path transform="translate(0,0)" fill="rgb(251,112,13)" d="M 985.671 851.657 C 987.212 868.514 988.711 919.819 985.268 934.818 C 972.688 989.618 921.672 929.669 904.156 911.864 L 857.623 865.014 C 803.515 809.903 748.914 755.279 693.826 701.148 C 666.482 674.099 661.808 662.928 689.356 631.479 C 700.483 618.776 712.762 607.058 724.679 595.076 L 784.517 534.924 C 834.777 484.399 884.862 433.161 934.692 382.598 C 983.035 333.544 985.952 393.744 986.202 430.258 C 986.332 449.241 986.661 469.414 985.508 488.243 C 984.76 504.629 985.064 521.754 984.978 538.236 C 971.264 538.648 950.511 540.109 939.94 529.985 C 933.881 524.181 933.061 515.082 933.328 507.131 C 933.936 489.006 936.171 470.427 935.724 452.304 C 885.705 506.917 832.538 558.436 780.987 611.61 C 763.766 629.373 745.261 647.174 728.444 665.177 C 742.051 677.432 755.508 691.351 768.503 704.368 C 824.007 759.969 882.254 814.904 935.701 872.403 C 931.07 824.125 923.068 794.652 985.126 802.868 C 984.986 813.464 984.195 842.736 985.671 851.657 z"/>
<path transform="translate(0,0)" fill="rgb(0,12,162)" d="M 1087.01 1072.77 C 1113.61 1078.28 1131.19 1103.29 1149.2 1122.47 C 1166.45 1140.75 1183.86 1158.86 1201.43 1176.82 L 1308.71 1286 C 1334.03 1311.45 1363.72 1334.67 1380.72 1366.58 C 1369.56 1387.46 1355.01 1403.3 1341.68 1421.91 C 1324.4 1438.42 1306.55 1454.45 1289.51 1471 C 1257.2 1502.68 1225.19 1534.68 1193.5 1566.98 L 1137.85 1622.69 C 1129.24 1631.3 1116.55 1645.56 1107.46 1652.6 C 1045.31 1700.78 1062.15 1567.77 1063.25 1545.96 C 1007 1547.11 949.039 1546.08 892.545 1546.07 L 643.351 1546.21 C 618.235 1546.07 592.659 1545.07 574.174 1525.66 C 550.723 1501.04 551.758 1458.8 552.045 1427.02 C 490.569 1428.56 424.729 1427.39 362.923 1427.42 L 294.49 1427.49 C 281.068 1427.54 268.18 1427.99 254.437 1427.25 C 236.184 1426.28 223.372 1421.97 221.393 1401.25 C 220.833 1396.07 224.804 1387.44 228.597 1384.08 C 240.562 1373.49 270.55 1376.88 285.334 1376.96 L 345.286 1376.99 L 552.046 1377.17 C 551.512 1356.17 551.228 1332.04 551.815 1311.07 C 552.915 1271.79 542.566 1204.42 595.786 1195.84 C 642.878 1188.24 694.233 1190.86 742.413 1190.87 L 972.153 1190.82 L 1029.2 1190.89 C 1038.99 1190.89 1053.95 1191.61 1063.25 1189.82 L 1062.83 1136.46 C 1062.73 1123.7 1061.94 1110.4 1064.04 1097.83 C 1066.67 1082.12 1072.08 1076.44 1087.01 1072.77 z M 1114.18 1240.34 C 1097.42 1239.99 1080.66 1239.94 1063.91 1240.2 C 1042.38 1238.56 1012.9 1239.38 990.629 1239.38 L 864.068 1239.36 L 712.518 1239.38 C 692.915 1239.39 620.542 1237.32 607.271 1243.87 C 597.181 1257.94 599.519 1282.49 599.908 1299.41 C 600.946 1344.66 599.698 1389.89 600.775 1435.12 C 601.256 1455.31 599.26 1474.86 609.772 1492.8 C 616.837 1496.66 621.828 1498.25 629.999 1498.42 C 650.724 1498.86 671.583 1498.01 692.385 1497.97 L 827.979 1497.94 L 996.304 1497.81 C 1016.95 1497.68 1044.12 1498.61 1063.96 1497.56 C 1079.59 1498 1098.78 1498.51 1114.26 1497.24 C 1113.66 1515.25 1113.84 1533.69 1113.46 1551.74 C 1113.27 1561.23 1114.31 1568.96 1113.16 1578.58 C 1136.49 1549.57 1179.52 1510.68 1207.63 1483.31 C 1245.43 1446.53 1284.01 1406.05 1322.12 1370.12 C 1303.24 1352.95 1281.15 1328.23 1262.21 1309.59 C 1212.35 1260.51 1163.51 1208.21 1113.35 1159.6 C 1115.34 1175.9 1114.19 1221.98 1114.18 1240.34 z"/>
<path transform="translate(0,0)" fill="rgb(251,112,13)" d="M 1087.01 1072.77 C 1113.61 1078.28 1131.19 1103.29 1149.2 1122.47 C 1166.45 1140.75 1183.86 1158.86 1201.43 1176.82 L 1308.71 1286 C 1334.03 1311.45 1363.72 1334.67 1380.72 1366.58 C 1369.56 1387.46 1355.01 1403.3 1341.68 1421.91 C 1324.4 1438.42 1306.55 1454.45 1289.51 1471 C 1257.2 1502.68 1225.19 1534.68 1193.5 1566.98 L 1137.85 1622.69 C 1129.24 1631.3 1116.55 1645.56 1107.46 1652.6 C 1045.31 1700.78 1062.15 1567.77 1063.25 1545.96 C 1063.93 1530.24 1063.81 1513.38 1063.96 1497.56 C 1079.59 1498 1098.78 1498.51 1114.26 1497.24 C 1113.66 1515.25 1113.84 1533.69 1113.46 1551.74 C 1113.27 1561.23 1114.31 1568.96 1113.16 1578.58 C 1136.49 1549.57 1179.52 1510.68 1207.63 1483.31 C 1245.43 1446.53 1284.01 1406.05 1322.12 1370.12 C 1303.24 1352.95 1281.15 1328.23 1262.21 1309.59 C 1212.35 1260.51 1163.51 1208.21 1113.35 1159.6 C 1115.34 1175.9 1114.19 1221.98 1114.18 1240.34 C 1097.42 1239.99 1080.66 1239.94 1063.91 1240.2 C 1064.33 1222.33 1064.56 1207.79 1063.25 1189.82 L 1062.83 1136.46 C 1062.73 1123.7 1061.94 1110.4 1064.04 1097.83 C 1066.67 1082.12 1072.08 1076.44 1087.01 1072.77 z"/>
<path transform="translate(0,0)" fill="rgb(0,12,162)" d="M 1380.72 1366.58 C 1387.08 1363.55 1461.98 1238.21 1481.71 1226.93 C 1487.94 1223.37 1496.09 1223.92 1502.6 1226.34 C 1508.59 1228.55 1513.27 1232.28 1515.83 1238.23 C 1518.04 1243.35 1518.43 1249.19 1518.28 1254.71 C 1517.76 1273.32 1515.7 1292.01 1514.03 1310.55 L 1504.77 1408.02 L 1496 1498.45 C 1494.44 1513.28 1491.95 1538.13 1488.93 1552.18 C 1497.43 1543.54 1521.81 1506.59 1530.6 1494.47 L 1628.23 1361.87 C 1641.22 1344.18 1653.94 1324.58 1669.6 1309.25 C 1677.78 1301.25 1695.17 1303.96 1703.07 1311.49 C 1723.72 1331.21 1690.39 1363.49 1677.83 1380.86 L 1608.28 1476.37 C 1577.45 1519.1 1546.26 1561.59 1514.73 1603.82 C 1501.49 1621.29 1488.38 1639.47 1473.54 1655.55 C 1469.84 1659.55 1459.76 1663.43 1454.32 1662.91 C 1427.54 1660.34 1432.4 1622.74 1434.03 1604.91 L 1449.79 1438.48 C 1452.63 1408.98 1454.66 1375.34 1459.36 1346.54 C 1416.85 1410.3 1369.63 1471.43 1326.11 1534.53 C 1317.45 1547.09 1310.44 1552.37 1295.48 1555.68 C 1259.87 1544.55 1271.8 1525.22 1285.59 1501.39 C 1300.33 1475.91 1329.22 1447.01 1341.68 1421.91 C 1355.01 1403.3 1369.56 1387.46 1380.72 1366.58 z"/>
<path transform="translate(0,0)" fill="rgb(0,12,162)" d="M 588.133 368.281 C 590.218 368.488 592.298 368.745 594.371 369.05 C 616.378 372.369 613.358 399.596 612.058 415.983 C 609.829 444.071 606.571 472.249 604.139 500.332 L 594.077 614.883 C 591.397 642.56 589.88 661.839 584.987 689.17 C 596.755 673.281 608.841 653.078 620.749 636.07 C 646.344 599.97 672.247 564.09 698.454 528.432 C 713.355 507.873 724.292 488.872 742.642 469.499 C 763.224 447.77 784.882 453.074 786.109 484.794 C 785.932 490.464 780.978 497.781 777.783 502.106 C 709.913 593.96 647.267 689.32 580.084 781.615 C 571.89 792.872 565.236 801.625 549.515 799.441 C 533.345 790.405 529.454 779.392 529.841 761.37 C 530.26 741.875 533.607 723.557 535.626 704.215 L 545.79 600.164 C 548.979 567.638 550.936 534.999 554.393 502.497 C 555.449 492.566 556.489 482.615 559.108 472.952 C 521.173 522.986 485.157 575.861 447.421 626.213 C 432.514 646.104 418.354 667.602 402.671 686.831 C 395.93 694.646 389.446 701.629 379.95 705.944 C 362.61 713.823 354.532 694.213 349.526 680.848 C 358.981 657.902 385.579 625.389 401.056 604.236 L 475.607 502.178 L 530.991 426.429 C 545.882 405.891 562.704 374.591 588.133 368.281 z"/>
</svg>