<svg version="1.1" xmlns="http://www.w3.org/2000/svg" style="display: block;" viewBox="0 0 2048 2048" width="512" height="512" preserveAspectRatio="none">
<path transform="translate(0,0)" fill="rgb(6,46,201)" d="M 1427.56 230.36 C 1465.35 227.745 1508.56 231.38 1546.22 230.187 C 1718.18 224.737 1714.74 263.54 1714.79 412.454 L 1714.8 556.121 L 1714.83 1020.34 L 1714.87 1502.32 L 1714.88 1653.39 C 1714.89 1679.98 1715.42 1708.02 1714.16 1734.43 C 1713.45 1749.42 1703.32 1770.99 1693.69 1782.48 C 1679.41 1799.53 1648.64 1818.64 1626.24 1820.61 C 1613.57 1822.02 1576.69 1821.17 1561.65 1821.02 C 1512.34 1820.11 1462.47 1823.17 1413.5 1816.36 C 1330.93 1804.87 1340.42 1710.93 1340.42 1649.03 L 1340.44 1529.58 L 1340.44 1123.75 L 1340.47 573.051 C 1340.47 524.163 1340.98 474.023 1340.43 425.248 C 1339.55 346.27 1320.6 242.767 1427.56 230.36 z M 1397.16 428.685 C 1399.48 457.137 1395.46 497.914 1397.96 523.991 C 1405.35 534.737 1488.19 507.778 1501.54 555.507 C 1493.05 581.231 1480.15 583.117 1456.01 582.338 L 1454.65 583.648 C 1455.52 602.5 1454.99 623.357 1455.12 642.418 C 1455.19 652.167 1455.6 671.997 1454.61 681.227 C 1457.17 684.836 1484.18 681.086 1493.4 692.408 C 1497.53 695.815 1502.01 707.548 1501.07 712.745 C 1495.68 742.432 1458.51 739.329 1436.31 739.245 C 1422.02 739.191 1410.31 739.37 1397.26 738.933 C 1398.35 758.23 1397.56 780.568 1397.82 800.045 C 1397.95 809.28 1398.38 833.235 1396.79 841.081 C 1398.64 840.975 1400.49 840.883 1402.34 840.804 C 1423.42 839.918 1484.48 836.973 1493.57 851.591 C 1529.79 909.807 1411.93 897.863 1397.06 897.745 C 1398.43 920.261 1397.53 943.406 1397.84 965.998 C 1397.97 975.524 1398.06 985.631 1397.17 995.105 C 1398 995.025 1398.82 994.962 1399.65 994.917 C 1425.41 993.397 1473.56 989.646 1494.19 1006.35 C 1509.85 1019.01 1496.2 1047.22 1480.29 1048.8 C 1454.39 1051.37 1423.38 1051.04 1397.03 1049.88 C 1398.19 1063.61 1397.78 1081.95 1397.81 1095.77 C 1397.85 1112.05 1398.11 1129.69 1397.33 1145.81 C 1398.16 1145.73 1399 1145.66 1399.83 1145.6 C 1409.34 1144.89 1421.43 1145.07 1431.01 1145.17 C 1454.43 1145.42 1500.24 1140.18 1501.08 1174.39 C 1501.22 1180.29 1498.27 1183.18 1495.34 1187.9 C 1488.16 1200.52 1471.85 1201.41 1458.63 1201.34 C 1438.34 1201.24 1417.58 1201.49 1397.19 1200.68 C 1398.25 1219.11 1397.59 1240.7 1397.9 1259.31 C 1398.06 1268.99 1398.47 1292.5 1396.79 1301 C 1398.73 1300.81 1400.67 1300.65 1402.61 1300.53 C 1427.81 1299.01 1504.07 1291.39 1502.02 1329.48 C 1500.04 1366.14 1424.1 1356.17 1397.08 1356 C 1398.31 1375.27 1397.66 1397.14 1397.88 1416.58 C 1397.99 1426.43 1398.46 1447.99 1396.83 1456.77 C 1415.56 1455 1436.45 1457.31 1455.58 1456.05 C 1497.89 1452.15 1523.09 1490.5 1478.6 1510.04 C 1472.75 1512.62 1406.61 1511.81 1397.46 1511.06 C 1397.77 1531.99 1397.91 1552.92 1397.86 1573.85 C 1397.87 1585.22 1398.39 1600.93 1397.08 1611.7 C 1415.97 1609.67 1442.81 1611.27 1462.3 1611.49 C 1491.02 1611.81 1529.5 1604.63 1553.39 1622.49 C 1558.71 1637.74 1555.63 1651.63 1543.96 1662.97 C 1507.94 1671.4 1463.44 1664.9 1426.16 1666.85 C 1417.84 1667.28 1405.18 1667.25 1397.02 1666.03 C 1398.31 1680.31 1397.23 1695.91 1397.63 1710.34 C 1398.12 1727.83 1395.86 1749.79 1414.16 1759.72 C 1417.93 1761.74 1422.03 1763.1 1426.27 1763.74 C 1450.49 1767.29 1480.56 1766.57 1505.96 1766.28 C 1545.78 1765.83 1591.94 1769.54 1630.85 1761.71 C 1655.51 1756.74 1658.06 1731.14 1658.1 1710.02 C 1658.17 1671.29 1658.19 1631.92 1658.19 1592.86 L 1658.21 1368.44 L 1658.35 700.821 L 1658.41 442.852 C 1658.41 420.383 1661.14 323.752 1655.97 308.896 C 1653.03 300.464 1646.12 294.076 1638.12 290.446 C 1630.92 287.176 1623.11 285.967 1615.29 285.381 C 1585.82 283.172 1553.06 285.107 1523.18 285.144 C 1495.34 285.178 1466.84 283.326 1439.09 285.192 C 1431.93 285.673 1424.31 286.536 1417.66 289.341 C 1410.28 292.451 1404.94 297.615 1401.96 305.074 C 1398.28 314.306 1395.02 365.949 1398.8 374.353 C 1440.69 373.437 1484.24 374.357 1526.26 374.117 C 1550.68 373.978 1566.53 390.581 1555.7 415.703 L 1555.12 417.016 C 1529.02 438.451 1486.26 429.117 1454.1 429.316 C 1436.2 429.427 1414.88 429.379 1397.16 428.685 z"/>
<path transform="translate(0,0)" fill="rgb(215,214,215)" fill-opacity="0.984314" d="M 1452.21 768.369 L 1454.94 769.859 C 1458.16 778.994 1458.13 800.731 1453.85 809.938 C 1451.42 808.521 1451.1 808.013 1449.07 806.009 C 1447.77 801.161 1451.08 799.116 1451.52 794.479 C 1452.28 786.319 1452.14 776.572 1452.21 768.369 z"/>
<path transform="translate(0,0)" fill="rgb(215,214,215)" d="M 1396.08 581.924 C 1409.62 581.897 1423.18 581.822 1436.71 581.878 C 1441.14 581.896 1451.73 581.068 1454.65 583.648 C 1455.52 602.5 1454.99 623.357 1455.12 642.418 C 1455.19 652.167 1455.6 671.997 1454.61 681.227 L 1454.36 681.778 C 1450.6 684.034 1404.02 683.165 1396.19 683.165 L 1396.08 581.924 z"/>
<path transform="translate(0,0)" fill="rgb(253,133,9)" d="M 1245.23 329.005 C 1278.12 330.204 1269.9 388.037 1269.05 409.708 C 1268.35 426.118 1268.06 442.542 1268.18 458.967 C 1268.24 500.628 1268.31 542.986 1268.26 584.622 C 1268.23 604.396 1274.13 666.167 1264.38 679.738 C 1221.67 739.21 1176.07 797.448 1131.72 855.793 L 897.574 1163.91 L 687.437 1440.47 C 660.629 1475.28 635.074 1511.25 607.51 1545.34 C 599.935 1554.7 583.342 1571.51 573.18 1577.62 C 543.219 1595.65 510.004 1611.05 478.837 1627.31 C 445.297 1644.8 412.829 1662.97 379.306 1680.32 C 374.185 1682.97 364.764 1686.81 359.102 1687.28 C 321.406 1675.46 329.58 1636.82 330.112 1605.54 C 330.282 1588.02 330.279 1570.5 330.102 1552.98 L 329.879 1482.3 C 329.834 1462.5 327.76 1426.99 337.38 1410 C 349.916 1387.86 368.033 1364.26 383.336 1343.71 C 416.236 1299.8 449.569 1256.22 483.329 1212.96 L 809.282 787.592 L 1025.03 505.869 C 1040.14 486.509 1055.04 466.987 1069.73 447.307 C 1082.32 430.447 1094.6 411.934 1109.76 397.272 C 1129.72 377.962 1216.37 338.432 1245.23 329.005 z M 400.735 1414.08 C 409.861 1419.89 420.329 1425.18 428.906 1430.85 C 470.256 1458.14 516.815 1485.78 555.489 1516.53 L 557.487 1518.14 C 557.985 1517.93 777.667 1226.97 794.652 1204.67 L 1050.87 868.344 L 1137.31 753.107 C 1151.54 734.163 1181.87 693.803 1197.96 677.406 C 1166.61 656.3 1139.31 634.981 1109.24 612.251 C 1092.87 599.884 1064.43 578.635 1046.91 569.573 C 1037.17 584.993 1022.69 603.371 1011.54 618.168 L 941.863 708.974 L 752.248 956.674 L 525.918 1252.46 L 446.797 1355.79 C 431.225 1375.95 417.529 1394.85 400.735 1414.08 z M 1079.79 526.511 C 1096.12 535.616 1125.59 555.132 1139.07 567.912 C 1163.39 581.842 1188.92 603.698 1212.59 620.482 C 1212.15 568.796 1212.05 517.108 1212.28 465.421 C 1212.31 451.811 1212.42 438.201 1212.63 424.593 C 1212.71 419.464 1213.3 409.089 1212.85 404.652 L 1211.33 404.134 C 1148.52 433.728 1147.95 433.261 1105.88 492.288 C 1101.98 497.758 1084.62 521.333 1079.79 526.511 z M 385.626 1612.26 C 412.76 1599.23 437.32 1585.61 463.568 1571.03 C 478.032 1564.1 494.841 1556.54 508.887 1549.2 C 499.156 1544.78 472.076 1526.05 462.247 1519.11 C 435.855 1500.48 413.884 1485.59 385.927 1469.51 C 387.915 1489.72 386.505 1523.25 386.821 1544.75 C 387.042 1559.83 387.573 1596.65 385.844 1610.4 L 385.626 1612.26 z"/>
<path transform="translate(0,0)" fill="rgb(253,133,9)" d="M 972.695 784.275 C 990.513 784.415 1003.08 793.049 1007.61 810.21 C 1001.14 834.84 954.445 889.157 936.366 912.727 L 816.838 1069 L 659.184 1275.26 C 638.371 1302.3 617.901 1330 596.763 1356.8 C 590.835 1364.32 582.98 1370.09 574.162 1373.84 C 555.799 1374.2 545.726 1363.21 540.187 1347.01 C 546.472 1325.06 565.408 1304.91 579.189 1286.55 C 604.374 1252.98 629.906 1219.68 655.78 1186.64 L 850.146 933.211 C 867.171 910.954 884.011 888.556 900.664 866.02 C 919.941 839.49 943.773 799.722 972.695 784.275 z"/>
<path transform="translate(0,0)" fill="rgb(6,46,201)" d="M 1229.37 870.286 C 1266.53 871.123 1258.97 913.969 1258.91 940.17 L 1258.77 1009.91 L 1258.79 1243.02 L 1258.86 1540.35 L 1258.87 1632.98 C 1258.86 1655 1259.21 1677.25 1257.63 1699.22 C 1256.76 1711.3 1253.59 1721.5 1245.96 1730.92 C 1226.36 1738.38 1200.48 1734.38 1179.32 1734.03 C 1153.89 1733.81 1128.45 1733.75 1103.02 1733.84 L 748.42 1733.85 L 603.235 1733.83 C 589.418 1733.86 544.348 1734.96 533.207 1732.68 C 499.282 1726.28 498.03 1682.4 534.195 1679.04 C 551.983 1677.39 568.37 1678.13 586.168 1678.15 L 681.845 1678.49 L 1037.95 1678.5 L 1140.17 1678.53 C 1158.87 1678.63 1185.16 1679.87 1203.23 1678.16 C 1202.07 1668.06 1202.59 1653.47 1202.61 1642.95 L 1202.66 1583.29 L 1202.5 1387.54 L 1202.74 1042.07 C 1202.77 1000.32 1202.52 958.88 1201.16 917.153 C 1200.5 897.093 1206.76 874.819 1229.37 870.286 z"/>
</svg>