<svg version="1.1" xmlns="http://www.w3.org/2000/svg" style="display: block;" viewBox="0 0 2048 2048" width="512" height="512" preserveAspectRatio="none">
<path transform="translate(0,0)" fill="rgb(0,28,187)" d="M 1086.81 634.08 C 1075.84 611.575 1078.83 580.62 1093.21 560.155 C 1104.68 543.952 1122.09 532.942 1141.65 529.528 C 1162.66 525.713 1184.33 530.422 1201.87 542.614 C 1217.63 553.952 1228.19 571.132 1231.18 590.311 C 1236.6 624.11 1224.86 640.958 1206.06 666.903 C 1214.95 669.393 1227.11 669.015 1236.58 670.441 C 1409.42 696.468 1527.65 874.952 1486.36 1044.08 C 1478.83 1074.94 1460.17 1118.76 1438.34 1142.8 C 1460.44 1165.85 1497.19 1206.98 1520.65 1227.11 C 1526.1 1220.77 1540.67 1201.51 1547.55 1201.48 C 1561.69 1201.41 1591.57 1235.75 1600.37 1244.68 L 1652.24 1296.54 L 1746.46 1390.54 C 1763.81 1407.84 1781.53 1425.47 1798.55 1442.72 C 1818.89 1462.54 1832.22 1485.64 1830.94 1515.06 C 1828.32 1575.46 1781.81 1614.02 1722.37 1612.04 C 1670.56 1610.32 1648.78 1580.21 1615.11 1545.99 L 1553.37 1483.74 L 1463.2 1392.92 C 1448.24 1378.1 1425 1361.38 1417.09 1342.69 C 1422.16 1327 1428.7 1319.86 1441.87 1310.32 C 1426.08 1294.61 1410.16 1279.04 1394.1 1263.6 C 1386.45 1256.39 1360.73 1232.4 1355.04 1224.96 C 1284.74 1269.14 1199.82 1283.71 1118.82 1265.48 C 957.594 1228.16 851.623 1065.06 890.958 902.808 C 897.392 876.265 906.292 850.053 919.828 826.224 C 926.174 817.445 933.792 803.372 939.285 793.746 C 951.346 768.807 1006.02 727.414 1029.22 708.823 C 1034.27 697.796 1076.33 647.514 1086.81 634.08 z M 1109.53 664.37 C 1105.39 669.629 1101.39 674.945 1096.77 679.779 C 1102.04 680.111 1115.23 675.827 1120.15 673.479 C 1114.99 669.915 1113.82 668.941 1109.53 664.37 z M 1152.44 563.535 C 1130.18 565.867 1114.07 585.896 1116.58 608.144 C 1119.09 630.393 1139.24 646.336 1161.47 643.654 C 1183.45 641.002 1199.18 621.118 1196.7 599.116 C 1194.22 577.114 1174.46 561.229 1152.44 563.535 z M 1197.49 1208.58 C 1328.76 1203.26 1430.92 1092.62 1425.78 961.335 C 1420.64 830.054 1310.14 727.744 1178.85 732.708 C 1047.31 737.681 944.758 848.44 949.91 979.975 C 955.062 1111.51 1065.96 1213.91 1197.49 1208.58 z M 1457.43 1340.74 C 1463.64 1347.12 1469.78 1352.33 1475.94 1358.49 L 1528.24 1411.79 C 1565.44 1449.72 1668.08 1560.69 1710.07 1578.34 C 1734.65 1582.96 1746.93 1579.88 1767.64 1567.82 C 1789.93 1554.83 1806.23 1517.63 1795.86 1493.86 C 1787.38 1474.43 1743.35 1434.62 1726.55 1417.9 L 1633.61 1325.11 L 1575.59 1267.03 C 1571.39 1262.76 1555.55 1245.23 1552.38 1242.48 C 1535.09 1266.55 1481.42 1322.8 1457.43 1340.74 z M 1465.83 1287.1 C 1475.12 1278.15 1490.05 1262.05 1499.3 1252.02 C 1490.67 1243.79 1419.31 1171.6 1417.31 1170.7 L 1416.3 1171.94 C 1409.12 1180.72 1387.72 1199.49 1384.18 1205.3 C 1387.74 1210.52 1397.67 1219.65 1402.51 1224.36 L 1443.92 1264.72 C 1448.85 1269.54 1462.28 1282.23 1465.83 1287.1 z"/>
<path transform="translate(0,0)" fill="rgb(254,122,24)" d="M 1086.81 634.08 C 1075.84 611.575 1078.83 580.62 1093.21 560.155 C 1104.68 543.952 1122.09 532.942 1141.65 529.528 C 1162.66 525.713 1184.33 530.422 1201.87 542.614 C 1217.63 553.952 1228.19 571.132 1231.18 590.311 C 1236.6 624.11 1224.86 640.958 1206.06 666.903 C 1199.5 667.904 1192.23 668.076 1185.58 668.105 C 1163.49 668.203 1142.06 670.828 1120.15 673.479 C 1114.99 669.915 1113.82 668.941 1109.53 664.37 C 1105.39 669.629 1101.39 674.945 1096.77 679.779 C 1084.5 686.053 1040.92 706.759 1029.22 708.823 C 1034.27 697.796 1076.33 647.514 1086.81 634.08 z M 1161.47 643.654 C 1183.45 641.002 1199.18 621.118 1196.7 599.116 C 1194.22 577.114 1174.46 561.229 1152.44 563.535 C 1130.18 565.867 1114.07 585.896 1116.58 608.144 C 1119.09 630.393 1139.24 646.336 1161.47 643.654 z"/>
<path transform="translate(0,0)" fill="rgb(254,122,24)" d="M 1183.01 696.278 C 1333.95 693.528 1458.58 813.585 1461.48 964.527 C 1464.38 1115.47 1344.44 1240.22 1193.5 1243.26 C 1042.36 1246.31 917.395 1126.17 914.495 975.024 C 911.594 823.874 1031.85 699.031 1183.01 696.278 z M 1197.49 1208.58 C 1328.76 1203.26 1430.92 1092.62 1425.78 961.335 C 1420.64 830.054 1310.14 727.744 1178.85 732.708 C 1047.31 737.681 944.758 848.44 949.91 979.975 C 955.062 1111.51 1065.96 1213.91 1197.49 1208.58 z"/>
<path transform="translate(0,0)" fill="rgb(0,28,187)" d="M 1170.76 769.288 C 1282.5 760.007 1380.56 843.192 1389.62 954.955 C 1398.68 1066.72 1315.3 1164.61 1203.52 1173.45 C 1092.06 1182.27 994.493 1099.17 985.458 987.72 C 976.423 876.268 1059.33 778.543 1170.76 769.288 z M 1020.85 1001.11 C 1036.64 1090.4 1120.1 1151.32 1209.96 1139.14 C 1299.82 1126.96 1364.05 1046.03 1355.51 955.751 C 1346.97 865.473 1268.7 798.028 1178.15 802.92 C 1182.22 806.301 1186.97 809.448 1187.57 815.163 C 1188.72 826.211 1124.53 981.467 1116.1 999.752 C 1113.69 1004.98 1111.27 1010.25 1107.54 1014.68 C 1095.88 1016.15 1038.48 1003.2 1020.85 1001.11 z M 1087.4 977.293 C 1098.73 947.229 1110.36 918.962 1121 888.355 C 1128.25 867.479 1143.42 824.592 1153.91 805.998 C 1077.41 821.398 1021.41 887.171 1018.39 965.146 C 1038.47 966.181 1068.08 971.544 1087.4 977.293 z"/>
<path transform="translate(0,0)" fill="rgb(254,172,105)" d="M 1153.91 805.998 C 1161.9 804.389 1170 803.36 1178.15 802.92 C 1182.22 806.301 1186.97 809.448 1187.57 815.163 C 1188.72 826.211 1124.53 981.467 1116.1 999.752 C 1113.69 1004.98 1111.27 1010.25 1107.54 1014.68 C 1095.88 1016.15 1038.48 1003.2 1020.85 1001.11 C 1018.75 989.242 1017.93 977.186 1018.39 965.146 C 1038.47 966.181 1068.08 971.544 1087.4 977.293 C 1098.73 947.229 1110.36 918.962 1121 888.355 C 1128.25 867.479 1143.42 824.592 1153.91 805.998 z"/>
<path transform="translate(0,0)" fill="rgb(0,28,187)" d="M 230.122 425.051 C 257.301 421.326 252.338 466.462 251.588 483.899 C 249.809 525.24 253.068 568.816 250.612 609.812 C 262.663 608.46 279.68 607.89 290.248 614.75 C 296.801 618.995 300.403 626.256 293.771 632.487 C 283.366 642.263 264.626 640.273 251.236 640.075 L 251.183 748.011 C 251.19 764.178 252.051 794.05 250.56 809.306 C 258.594 808.898 285.578 807.184 289.73 813.289 C 310.385 843.663 264.178 842.357 250.89 841.831 C 252.505 864.642 250.863 903.98 251.182 927.973 C 251.427 946.433 252.264 992.194 250.533 1008.85 C 264.99 1007.6 293.967 1003.82 295.146 1026.09 C 296.007 1042.37 262.577 1040.03 251.193 1040.02 L 251.186 1146.15 C 251.192 1161.71 252.071 1189.97 250.509 1204.46 C 309.384 1203.78 315.136 1236.58 250.92 1237 C 252.273 1277.88 250.423 1319.72 251.213 1360.67 C 251.454 1373.15 251.748 1388.83 250.572 1401.13 C 312.49 1398.36 311.785 1437.04 250.883 1434.08 C 252.185 1451.41 251.232 1484.69 251.223 1503.48 C 251.212 1524.41 252.196 1558.24 250.617 1577.75 C 265.392 1576.77 283.52 1577.23 298.522 1577.24 L 376.988 1577.29 L 624.799 1577.29 L 1397.5 1577.28 C 1414.43 1577.34 1498.47 1573.87 1507.5 1581.75 C 1510.77 1584.6 1512.03 1589.29 1511.98 1593.49 C 1511.93 1597.99 1510.33 1602.59 1506.85 1605.59 C 1500.89 1610.71 1490.92 1610.84 1483.43 1610.96 C 1455.54 1611.41 1427.57 1610.8 1399.68 1610.76 L 1218.73 1610.5 L 669.418 1610.47 L 377.406 1610.48 C 351.153 1610.4 324.9 1610.49 298.648 1610.74 C 276.693 1610.95 254.006 1611.11 232.109 1609.61 C 229.134 1609.41 223.404 1608.67 222.272 1606 C 218.896 1598.05 218.15 1581.77 218.146 1573.71 C 218.1 1481.25 218.112 1388.76 218.111 1296.32 L 218.124 741.908 L 217.923 573.66 C 217.701 533.904 215.945 474.284 220.692 433.917 C 221.113 430.339 227.027 426.765 230.122 425.051 z"/>
<path transform="translate(0,0)" fill="rgb(0,28,187)" d="M 356.161 506.005 C 365.425 504.662 377.437 508.093 377.843 519.122 C 378.615 540.066 378.287 561.194 378.261 582.168 L 378.191 700.758 L 378.152 1214.5 L 378.179 1369.8 C 378.185 1388.85 379.365 1431.7 377.458 1448.72 C 389.938 1448 407.206 1448.5 420.113 1448.42 L 520.75 1448.3 L 802.302 1448.3 L 1118.46 1448.35 C 1156.42 1448.35 1194.24 1448.36 1232.15 1446.46 C 1244.06 1446.65 1265.39 1449.08 1264.99 1464.84 C 1264.42 1486.85 1221.64 1481.19 1206.55 1481.05 C 1183.45 1480.93 1160.35 1480.69 1137.26 1480.33 C 1137.67 1495.52 1134.7 1507.15 1117.93 1508.06 C 1103.13 1503.86 1102.72 1494.44 1102.68 1480.73 C 1068.15 1481.42 1025.17 1481.55 991.064 1480.22 C 985.24 1518.21 965.982 1514.97 953.463 1481.97 C 915.789 1481.35 881.557 1480.33 843.38 1480.63 C 838.858 1520.02 808.418 1512.64 809.154 1481.33 C 770.821 1479.18 730.188 1480.9 691.713 1480.41 C 688.626 1517.81 654.782 1515.34 658.371 1480.95 C 620.046 1480.33 578.112 1482.08 540.12 1480.03 C 534.048 1516.19 507.831 1515.73 505.389 1480.86 C 463.874 1480.82 419.45 1481.78 378.207 1480.3 C 377.781 1489.49 374.547 1503.07 366.117 1506.84 C 344.56 1516.48 344.935 1481.77 344.821 1473.05 C 343.41 1274.73 343.417 1076.41 344.843 878.09 L 344.766 643.59 C 344.738 607.553 343.375 550.141 346.535 513.409 C 346.771 510.665 353.547 507.241 356.161 506.005 z"/>
<path transform="translate(0,0)" fill="rgb(254,122,24)" d="M 591.214 798.314 C 603.928 799.357 613.118 799.973 624.649 805.754 C 666.581 826.777 668.55 878.963 649.527 916.276 C 678.718 940.583 711.452 974.798 738.794 1002.29 C 762.842 1026.46 795.074 1056.19 816.834 1080.7 C 888.116 1047.66 960.71 1132.27 907.821 1194.67 C 878.324 1229.48 832.773 1232.49 797.954 1203.6 C 765.734 1176.87 762.018 1132.18 789.887 1100.84 C 781.542 1096.11 754.099 1067.04 745.999 1059.09 L 658.098 973.335 C 649.15 964.588 629.731 946.524 622.679 937.548 C 609.49 943.873 596.351 947.208 581.778 945.43 C 579.235 957.994 571.152 982.774 567.327 995.582 L 539.236 1089.41 L 500.471 1218.84 C 494.181 1240.25 488.91 1261.85 482.09 1283.21 C 477.68 1297.03 469.03 1323.63 449.843 1308.57 C 444.75 1304.57 443.422 1300.28 441.286 1294.49 C 443.057 1283.75 452.883 1253.32 456.297 1241.47 C 468.568 1198.4 481.353 1155.49 494.651 1112.73 L 527.079 1005.71 C 533.107 985.392 540.43 956.942 548.004 937.869 C 531.754 920.187 516.92 906.44 513.423 881.17 C 510.999 863.662 517.053 842.647 528.097 828.968 C 545.139 807.861 565.61 801.551 591.214 798.314 z M 851.506 1187.3 C 873.347 1185.35 889.437 1166.01 887.393 1144.18 C 885.349 1122.34 865.949 1106.33 844.124 1108.46 C 822.424 1110.58 806.522 1129.85 808.554 1151.56 C 810.587 1173.27 829.789 1189.25 851.506 1187.3 z M 589.501 911.224 C 610.882 910.951 627.997 893.404 627.737 872.023 C 627.478 850.642 609.942 833.516 588.561 833.761 C 567.16 834.007 550.014 851.562 550.274 872.963 C 550.534 894.364 568.1 911.498 589.501 911.224 z"/>
<path transform="translate(0,0)" fill="rgb(254,122,24)" d="M 919.828 826.224 C 794.195 749.394 671.739 666.98 544.869 592.075 C 536.349 587.045 515.823 574.441 521.66 563.087 C 528.141 550.481 538.063 544.81 550.973 552.503 C 583.548 569.868 613.566 591.514 644.918 610.969 L 838.902 731.524 C 871.166 751.521 906.608 776.104 939.285 793.746 C 933.792 803.372 926.174 817.445 919.828 826.224 z"/>
</svg>