<svg version="1.1" xmlns="http://www.w3.org/2000/svg" style="display: block;" viewBox="0 0 2048 2048" width="512" height="512" preserveAspectRatio="none">
<path transform="translate(0,0)" fill="rgb(18,32,151)" d="M 1519.76 1586.85 C 1506.1 1585.8 1489.52 1586.22 1475.58 1586.23 L 1407.87 1586.24 L 1192.56 1586.27 L 517.322 1586.25 L 330.053 1586.26 C 294.587 1586.28 258.707 1587.15 223.338 1584.97 C 205.892 1583.89 193.754 1576.97 193.234 1558.26 C 192.521 1532.59 193.196 1506.9 193.217 1481.2 L 193.222 1316.56 L 193.167 577.327 L 193.179 362.189 L 193.161 303.434 C 193.088 293.065 192.413 280.84 193.369 271.103 C 194.912 255.379 222.452 244.659 231.487 260.766 C 235.528 267.967 235.493 276.321 235.911 284.436 C 236.05 308.74 235.845 333.184 235.82 357.506 L 235.805 502.763 L 235.833 952.688 L 235.82 1260.58 C 235.918 1297.66 235.777 1334.73 235.395 1371.8 C 235.279 1384.51 236.108 1403.23 235.373 1414.92 C 247.518 1414.23 342.514 1415.65 344.979 1413.61 C 345.103 1413.51 345.191 1413.37 345.297 1413.25 C 343.582 1377.09 344.854 1333.15 344.872 1296.23 L 344.895 1083.93 L 344.888 933.93 C 344.857 907.54 343.926 878.685 345.622 852.71 C 350.506 801.446 413.081 810.657 449.494 809.942 C 475.979 809.422 519 803.622 540.344 823.729 C 557.683 840.063 554.004 879.325 554.748 901.577 C 555.048 910.551 554.672 921.428 554.638 930.589 L 554.547 1042.83 C 554.53 1161.41 554.513 1280.05 554.577 1398.64 C 554.58 1403.3 554.425 1409.62 553.909 1414.21 C 558.19 1415.17 566.733 1414.21 572.736 1414.84 C 571.162 1385.99 572.254 1347.17 572.256 1317.68 L 572.249 1141.22 C 572.239 984.173 572.188 827.034 572.23 669.995 C 572.235 650.983 572.065 622.824 586.888 609.457 C 591.529 605.272 599.244 600.76 605.67 599.6 C 642.653 593.356 681.79 596.565 719.271 596.167 C 759.998 595.735 780.8 614.291 782.546 655.453 C 784.085 691.743 783.329 727.734 783.299 763.918 L 783.274 967.359 L 783.285 1259.73 C 783.297 1308.1 784.791 1366.63 782.977 1414.23 C 785.943 1415.39 797.852 1415.51 800.644 1414.11 C 802.871 1415.31 815.172 1414.9 817.952 1414.61 C 823.214 1414.06 838.255 1415.78 841.722 1413.31 L 843.009 1414.7 C 853.771 1414.98 964.46 1414.7 966.382 1413.98 C 969.978 1414.94 1004.6 1415.19 1007.81 1413.91 C 1010.59 1415.42 1023.87 1414.73 1027.95 1414.68 C 1028.12 1399.55 1027.74 1384.69 1028.11 1369.46 L 1027.63 1359.67 C 1021.3 1354.88 1014.87 1349.53 1008.65 1344.54 C 996.415 1329.93 982.558 1316.75 967.348 1305.26 C 923.797 1249.93 897.48 1200.76 888.419 1129.89 C 875.394 1028.03 904.702 943.448 966.636 863.163 C 976.204 857.091 1001.07 831.439 1008.41 822.768 C 1014.87 818.159 1021.96 813.92 1028.73 809.724 C 1033.8 807.754 1063.56 787.148 1070.51 782.866 C 1110.75 763.205 1148.98 754.131 1193.4 751.619 C 1207.63 751.822 1221.85 751.8 1236.07 751.554 C 1322.85 756.389 1404.18 795.384 1462.29 860.015 C 1521.37 926.443 1551.57 1013.67 1546.21 1102.41 C 1540.8 1185.1 1515.5 1230.55 1471.45 1297.37 C 1485.24 1310.38 1521.04 1344.13 1530.16 1358.13 C 1538.21 1349.72 1547.97 1335.76 1560.66 1336.5 C 1565.17 1336.77 1572.48 1343.54 1575.81 1346.57 C 1594.53 1363.62 1612.69 1381.45 1630.76 1399.19 L 1716.56 1483.61 L 1781.85 1546.48 C 1818.21 1581.16 1859.48 1611.95 1858.35 1669.5 C 1856.97 1739.28 1778.45 1806.73 1710.19 1769.91 C 1689.49 1758.75 1661.08 1726.06 1643.18 1708.01 L 1562.44 1626.34 C 1552.04 1615.84 1531.52 1594.56 1519.76 1586.85 z M 612.644 1405.23 C 612.607 1408.48 612.108 1411.17 613.849 1413.75 C 617.721 1415.3 725.738 1414.28 739.806 1414.84 L 740.152 1405.21 C 739.173 1376.41 739.952 1343.59 739.949 1314.31 L 739.942 1143.28 L 740.112 638.782 C 703.104 640.141 652.132 639.523 614.718 638.978 C 615.53 651.033 614.952 669.901 614.944 682.615 L 614.921 765.581 L 614.911 1027.9 L 614.902 1263.13 C 614.901 1306.44 616.676 1363.27 612.644 1405.23 z M 1070.94 1392.8 L 1071.15 1414.76 C 1084.16 1414.44 1152.79 1416 1160.62 1413 C 1126 1406.03 1103.41 1398.82 1071.58 1385.09 L 1070.94 1392.8 z M 511.982 1415.13 L 511.843 1090.84 C 511.839 1022.71 510.227 947.372 512.108 879.725 C 512.032 870.51 511.875 861.283 512.194 852.074 L 386.961 852.169 C 387.773 895.424 387.053 940.553 387.047 983.969 L 387.041 1236.84 L 387.079 1356.96 C 387.082 1367.12 387.716 1403.76 386.473 1412.21 L 386.968 1413.89 C 387.448 1414.22 387.928 1414.55 388.408 1414.87 C 421.11 1414.82 481.859 1411.69 511.982 1415.13 z M 1238.47 1371.26 C 1397.63 1359.01 1516.68 1219.99 1504.3 1060.84 C 1491.91 901.69 1352.78 782.763 1193.64 795.297 C 1034.7 807.814 915.965 946.728 928.337 1105.67 C 940.709 1264.62 1079.51 1383.48 1238.47 1371.26 z M 235.513 1542.14 C 275.16 1541.2 316.693 1541.87 356.536 1541.86 L 574.235 1541.87 L 1228.96 1541.89 L 1392.01 1541.91 C 1406.51 1542.04 1460.55 1546.81 1470.32 1540.27 L 1470.61 1538.31 L 1469.04 1536.2 C 1445.45 1515.74 1400.58 1489.46 1434.65 1457.68 C 1423.38 1459.72 1389.34 1458.9 1376.47 1458.9 L 1263.54 1458.85 L 842.612 1458.83 L 417.764 1458.84 L 294.502 1458.89 C 282.38 1458.9 246.437 1459.7 236.17 1458.24 C 234.261 1484.59 237.306 1515.88 235.513 1542.14 z M 1558.43 1390.56 C 1548.68 1403.43 1530.01 1422.24 1518.52 1433.9 C 1503.63 1449.01 1486.34 1466.92 1470.53 1480.71 C 1492.28 1497.65 1520.74 1525.8 1540.76 1545.11 C 1582.28 1585.66 1623.48 1626.54 1664.35 1667.74 C 1674.62 1678.06 1723.48 1729.77 1732.82 1734.55 C 1746.46 1739.22 1761.4 1738.3 1774.36 1731.99 C 1805.11 1717.24 1826.09 1669.9 1809.82 1640.45 C 1795.65 1614.79 1754.77 1580.85 1732.85 1559.74 L 1643.48 1473.69 C 1614.88 1445.86 1589.81 1415.92 1558.43 1390.56 z M 1268.08 1413.15 C 1274.97 1416.59 1398.56 1416.72 1407.38 1413.55 C 1393.57 1402.54 1380.83 1391.87 1368.25 1379.42 C 1331.36 1396.68 1308.23 1404.49 1268.08 1413.15 z M 1440.14 1327.58 C 1431.59 1337.13 1422.63 1345.15 1411.56 1351.76 C 1426.13 1366.62 1461.37 1403.34 1477.84 1413.83 C 1487.02 1404.7 1492.45 1398.83 1502.61 1390.35 C 1485.42 1370.3 1459.55 1346.55 1440.14 1327.58 z"/>
<path transform="translate(0,0)" fill="rgb(254,117,7)" d="M 1236.07 751.554 C 1322.85 756.389 1404.18 795.384 1462.29 860.015 C 1521.37 926.443 1551.57 1013.67 1546.21 1102.41 C 1540.8 1185.1 1515.5 1230.55 1471.45 1297.37 C 1485.24 1310.38 1521.04 1344.13 1530.16 1358.13 C 1522.81 1367.23 1510.58 1382.22 1502.61 1390.35 C 1485.42 1370.3 1459.55 1346.55 1440.14 1327.58 C 1431.59 1337.13 1422.63 1345.15 1411.56 1351.76 C 1426.13 1366.62 1461.37 1403.34 1477.84 1413.83 C 1468.58 1424.45 1456.96 1436.09 1447.13 1446.41 C 1437.77 1437.54 1418.03 1419.51 1407.38 1413.55 C 1393.57 1402.54 1380.83 1391.87 1368.25 1379.42 C 1331.36 1396.68 1308.23 1404.49 1268.08 1413.15 C 1245.58 1416.5 1183.05 1416.54 1160.62 1413 C 1126 1406.03 1103.41 1398.82 1071.58 1385.09 C 1061.28 1377.35 1039.43 1364.46 1027.63 1359.67 C 1021.3 1354.88 1014.87 1349.53 1008.65 1344.54 C 996.415 1329.93 982.558 1316.75 967.348 1305.26 C 923.797 1249.93 897.48 1200.76 888.419 1129.89 C 875.394 1028.03 904.702 943.448 966.636 863.163 C 976.204 857.091 1001.07 831.439 1008.41 822.768 C 1014.87 818.159 1021.96 813.92 1028.73 809.724 C 1033.8 807.754 1063.56 787.148 1070.51 782.866 C 1110.75 763.205 1148.98 754.131 1193.4 751.619 C 1207.63 751.822 1221.85 751.8 1236.07 751.554 z M 1238.47 1371.26 C 1397.63 1359.01 1516.68 1219.99 1504.3 1060.84 C 1491.91 901.69 1352.78 782.763 1193.64 795.297 C 1034.7 807.814 915.965 946.728 928.337 1105.67 C 940.709 1264.62 1079.51 1383.48 1238.47 1371.26 z"/>
<path transform="translate(0,0)" fill="rgb(18,32,151)" d="M 1213.2 829.519 C 1353.52 827.781 1468.68 940.122 1470.42 1080.44 C 1472.16 1220.76 1359.82 1335.92 1219.5 1337.67 C 1079.18 1339.41 964.01 1227.07 962.27 1086.74 C 960.529 946.421 1072.87 831.256 1213.2 829.519 z M 1229.49 1295.06 C 1346.12 1287.72 1434.73 1187.26 1427.46 1070.63 C 1420.18 954.002 1319.78 865.328 1203.14 872.53 C 1086.41 879.738 997.642 980.249 1004.92 1096.98 C 1012.2 1213.71 1112.76 1302.41 1229.49 1295.06 z"/>
<path transform="translate(0,0)" fill="rgb(31,63,252)" d="M 572.736 1414.84 C 571.162 1385.99 572.254 1347.17 572.256 1317.68 L 572.249 1141.22 C 572.239 984.173 572.188 827.034 572.23 669.995 C 572.235 650.983 572.065 622.824 586.888 609.457 C 591.529 605.272 599.244 600.76 605.67 599.6 C 642.653 593.356 681.79 596.565 719.271 596.167 C 759.998 595.735 780.8 614.291 782.546 655.453 C 784.085 691.743 783.329 727.734 783.299 763.918 L 783.274 967.359 L 783.285 1259.73 C 783.297 1308.1 784.791 1366.63 782.977 1414.23 C 780.013 1415.89 747.145 1415.25 740.861 1415.22 C 740.774 1411.31 740.765 1409.05 740.152 1405.21 C 739.173 1376.41 739.952 1343.59 739.949 1314.31 L 739.942 1143.28 L 740.112 638.782 C 703.104 640.141 652.132 639.523 614.718 638.978 C 615.53 651.033 614.952 669.901 614.944 682.615 L 614.921 765.581 L 614.911 1027.9 L 614.902 1263.13 C 614.901 1306.44 616.676 1363.27 612.644 1405.23 C 611.294 1408.46 612.025 1411.21 612.411 1414.78 C 599.422 1414.91 585.64 1415.28 572.736 1414.84 z"/>
<path transform="translate(0,0)" fill="rgb(31,63,252)" d="M 345.297 1413.25 C 343.582 1377.09 344.854 1333.15 344.872 1296.23 L 344.895 1083.93 L 344.888 933.93 C 344.857 907.54 343.926 878.685 345.622 852.71 C 350.506 801.446 413.081 810.657 449.494 809.942 C 475.979 809.422 519 803.622 540.344 823.729 C 557.683 840.063 554.004 879.325 554.748 901.577 C 555.048 910.551 554.672 921.428 554.638 930.589 L 554.547 1042.83 C 554.53 1161.41 554.513 1280.05 554.577 1398.64 C 554.58 1403.3 554.425 1409.62 553.909 1414.21 C 550.519 1415.63 518.686 1415.08 512.886 1415.05 C 512.101 1370.58 512.637 1324.77 512.63 1280.17 L 512.619 1040.14 L 512.684 937.053 C 512.696 920.645 513.443 895.314 512.108 879.725 C 512.032 870.51 511.875 861.283 512.194 852.074 L 386.961 852.169 C 387.773 895.424 387.053 940.553 387.047 983.969 L 387.041 1236.84 L 387.079 1356.96 C 387.082 1367.12 387.716 1403.76 386.473 1412.21 L 385.242 1414.41 C 380.077 1415.18 347.475 1416.48 345.297 1413.25 z"/>
<path transform="translate(0,0)" fill="rgb(31,63,252)" d="M 1027.63 1359.67 C 1039.43 1364.46 1061.28 1377.35 1071.58 1385.09 L 1070.94 1392.8 C 1069.47 1399.64 1070.03 1407.81 1070.15 1414.92 C 1059.94 1414.03 1039.9 1414.77 1028.94 1414.88 C 1029.03 1404.5 1029.72 1378.79 1028.11 1369.46 L 1027.63 1359.67 z"/>
<path transform="translate(0,0)" fill="rgb(31,63,252)" d="M 800.644 1414.11 L 800.613 760.649 L 800.62 575.269 C 800.564 541.388 799.582 506.428 801.469 472.633 C 802.12 465.265 805.721 454.799 810.947 449.403 C 833.931 425.673 877.552 432.5 906.884 431.824 C 945.602 430.932 999.683 419.833 1005.72 473.358 C 1009.37 505.74 1008 539.575 1008.01 572.352 L 1007.98 733.674 C 1007.97 760.976 1006.98 796.253 1008.41 822.768 C 1001.07 831.439 976.204 857.091 966.636 863.163 C 963.828 806.969 966.03 736.956 966.028 679.478 L 966.013 546.437 C 966.011 522.876 965.434 496.617 966.251 473.215 C 949.694 474.586 923.336 473.914 906.246 473.909 C 887.277 473.902 860.411 474.704 841.91 473.296 C 842.971 544.492 842.183 617.67 842.178 689.008 L 842.134 1083.4 L 842.148 1303.61 L 842.153 1373.48 C 842.148 1385.01 842.616 1402.06 841.722 1413.31 C 838.255 1415.78 823.214 1414.06 817.952 1414.61 C 815.172 1414.9 802.871 1415.31 800.644 1414.11 z"/>
<path transform="translate(0,0)" fill="rgb(18,32,151)" d="M 1079.68 252.869 C 1093.28 250.909 1112.94 252.228 1127.1 252.082 C 1150.22 251.843 1173.85 250.73 1196.82 253.323 C 1223.49 256.335 1231.04 271.599 1233.77 296.111 C 1236.35 319.36 1236.03 342.329 1236.04 365.664 L 1236 452.103 L 1236.07 751.554 C 1221.85 751.8 1207.63 751.822 1193.4 751.619 L 1193.18 464.132 L 1193.17 363.258 C 1193.17 341.07 1192.82 315.818 1194.1 293.778 C 1161.75 293.966 1121.78 292.91 1090.14 294.387 C 1089.46 282.404 1089.89 266.491 1089.73 254.039 C 1087.02 252.593 1083.05 252.953 1079.68 252.869 z"/>
<path transform="translate(0,0)" fill="rgb(31,63,252)" d="M 1028.73 809.724 C 1026.09 798.452 1027.9 753.147 1027.91 739.14 L 1027.96 597.384 L 1027.94 405.811 C 1027.94 376.04 1027.72 346.09 1028.26 316.34 C 1029 276.081 1034.61 255.262 1079.68 252.869 C 1083.05 252.953 1087.02 252.593 1089.73 254.039 C 1089.89 266.491 1089.46 282.404 1090.14 294.387 L 1070.6 293.721 C 1072.05 328.366 1070.98 370.507 1070.97 405.674 L 1070.95 614.918 L 1071.03 727.834 C 1071.04 740.114 1071.89 772.508 1070.51 782.866 C 1063.56 787.148 1033.8 807.754 1028.73 809.724 z"/>
<path transform="translate(0,0)" fill="rgb(31,63,252)" d="M 967.348 1305.26 C 982.558 1316.75 996.415 1329.93 1008.65 1344.54 C 1006.61 1366.61 1009.02 1392.01 1007.81 1413.91 C 1004.6 1415.19 969.978 1414.94 966.382 1413.98 C 965.699 1408.92 965.94 1374.92 966.213 1368.21 C 966.876 1351.88 965.243 1320.23 967.348 1305.26 z"/>
</svg>