<svg version="1.1" xmlns="http://www.w3.org/2000/svg" style="display: block;" viewBox="0 0 2048 2048" width="512" height="512" preserveAspectRatio="none">
<path transform="translate(0,0)" fill="rgb(0,18,168)" d="M 871.429 211.374 C 895.681 209.942 925.073 211.542 949.884 211.672 L 1093.53 211.73 L 1237.94 211.703 C 1259.74 211.681 1281.82 211.102 1303.61 211.358 C 1309.91 211.432 1315.64 214.366 1321.18 217.139 C 1325.47 229.401 1325.93 234.034 1317.24 243.928 C 1304.02 246.568 1258.99 246.134 1242.77 245.867 C 1218.14 245.462 1185.31 246.829 1161.36 245.264 C 1194.7 298.526 1183.57 330.726 1143.58 375.157 C 1167.93 372.755 1215.35 374.201 1241.8 374.152 L 1304.8 374.058 C 1316.55 374.049 1327.4 374.364 1341.18 374.442 C 1358.53 370.117 1365 397.135 1355.72 403.639 C 1342.22 413.088 1277.97 408.753 1264 408.418 C 1264.62 453.944 1264.72 505.716 1263.9 551.093 C 1271.87 549.778 1289.21 549.982 1297.65 549.931 C 1337.03 549.927 1380.23 549.613 1417.12 565.079 C 1441.29 575.214 1466.99 594.388 1483.72 614.721 C 1508.69 645.081 1517.32 687.957 1518.69 726.63 C 1520.54 778.826 1519.79 831.665 1519.8 884.037 L 1519.78 1166.4 L 1519.8 1417.62 C 1519.8 1464.65 1521.41 1512.09 1518.39 1558.99 C 1512.68 1647.64 1475.56 1689.79 1395.92 1720.48 C 1397.24 1801.49 1397.84 1818.47 1310.12 1818.23 L 997.628 1818.2 L 904.637 1818.22 C 876.38 1818.21 822.641 1822 801.004 1802.82 C 785.201 1788.81 787.892 1741.23 787.788 1720.37 C 761.307 1710.86 734.839 1694.55 715.123 1674.43 C 690.584 1649.63 674.369 1617.8 668.725 1583.37 C 664.809 1559.31 666.125 1509.45 666.14 1482.72 L 666.148 1310.11 L 666.149 925.291 C 666.149 861.73 665.965 798.21 666.127 734.494 C 666.268 679.1 678.082 637.606 718.068 597.709 C 773.944 541.956 848.932 549.207 922.222 550.335 C 921.027 516.157 922.817 480.94 922.051 446.675 C 921.785 434.758 921.724 421.102 922.605 409.262 C 898.272 411.267 873.68 410.189 849.432 408.16 C 820.376 405.728 822.714 375.684 845.307 374.412 C 872.725 372.868 902.003 374.147 929.698 374.166 L 1002.14 374.18 C 1015.8 374.185 1033.86 373.699 1047.15 375.022 C 1004.81 334.461 996.786 296.135 1029.18 245.275 C 1009.46 247.257 876.235 247.057 865.592 243.151 C 862.191 241.903 859.942 239.029 858.529 235.788 C 856.314 230.709 856.675 225.903 859.012 220.937 C 861.566 215.506 866 213.242 871.429 211.374 z M 1487.23 1414 C 1432.47 1415.86 1370.9 1414.53 1315.5 1414.53 L 1001.41 1414.52 L 798.335 1414.51 L 736.609 1414.61 C 724.985 1414.64 709.784 1415 698.401 1414.01 L 698.51 1415.27 C 699.434 1427.03 698.934 1444.69 698.9 1456.87 L 698.627 1522.72 C 697.98 1582.55 699.67 1617.64 747.608 1660.46 C 794.191 1702.07 842.234 1693.54 899.497 1693.31 L 1045.02 1693.67 L 1254.13 1693.66 C 1290.98 1693.67 1328.49 1694.56 1365.22 1692.87 C 1389.58 1691.75 1432.84 1671.42 1447.69 1651.98 C 1503.34 1592.27 1486.98 1488.86 1487.23 1414 z M 697.922 851.021 C 709.717 849.267 747.505 850.147 761.422 850.15 L 893.104 850.184 L 1346.5 850.189 C 1393.06 850.187 1440.61 849.674 1487.08 850.211 L 1486.94 848.847 C 1485.54 835.276 1486.87 820.13 1486.69 806.454 C 1485.88 745.079 1493.41 659.413 1440.78 616.03 C 1397.15 580.071 1315.48 583.341 1261.5 583.343 L 1159.04 583.355 C 1053.29 583.378 945.86 582.255 840.297 583.433 C 801.894 584.763 763.76 594.734 736.523 623.996 C 693.925 669.762 699.382 746.499 698.845 804.537 C 698.735 816.437 699.818 840.131 697.922 851.021 z M 698.211 992.333 C 699.294 1006.04 698.876 1023.67 698.879 1037.7 L 698.883 1107.55 C 698.879 1160.1 700.234 1220.46 698.075 1272.39 C 741.571 1274 787.564 1272.56 831.35 1272.56 L 1088.38 1272.54 L 1227.51 1272.54 C 1252.84 1272.58 1279.84 1274.34 1304.9 1271.64 C 1346.7 1267.13 1352.25 1243.76 1352.69 1208 L 1353.27 1117.98 C 1353.58 1088.51 1354.12 1055.57 1350.28 1026.53 C 1344.08 979.716 1274.48 991.038 1240.27 991.191 L 1119.29 991.243 L 714.311 991.308 C 709.006 991.608 703.484 991.829 698.211 992.333 z M 1359.09 1782.14 C 1366.16 1764.83 1364.38 1744.12 1364.23 1725.25 C 1351.15 1726.25 1334.73 1725.8 1321.26 1725.82 L 1248.82 1725.83 L 1024.92 1725.8 L 883.745 1725.8 C 871.851 1725.81 829.759 1726.74 819.931 1725.22 C 819.267 1742.6 815.939 1766.71 827.884 1781 C 833.271 1787.44 840.491 1785.03 848.178 1786.08 C 872.934 1786.34 897.77 1785.7 922.538 1785.66 L 1087.59 1785.6 L 1234.99 1785.72 C 1257.58 1785.87 1341.79 1789.6 1359.09 1782.14 z"/>
<path transform="translate(0,0)" fill="rgb(172,191,230)" d="M 697.974 883.969 C 798.03 883.063 898.091 883.03 998.148 883.872 L 1487.78 883.924 C 1486.96 903.453 1487.67 923.434 1487.5 943.03 C 1486.22 1089.16 1489.34 1235.92 1487.34 1382 L 697.974 1381.87 C 697.996 1362.08 699.023 1326.55 697.709 1307.99 C 697.404 1297.28 696.986 1282.89 698.075 1272.39 C 741.571 1274 787.564 1272.56 831.35 1272.56 L 1088.38 1272.54 L 1227.51 1272.54 C 1252.84 1272.58 1279.84 1274.34 1304.9 1271.64 C 1346.7 1267.13 1352.25 1243.76 1352.69 1208 L 1353.27 1117.98 C 1353.58 1088.51 1354.12 1055.57 1350.28 1026.53 C 1344.08 979.716 1274.48 991.038 1240.27 991.191 L 1119.29 991.243 L 714.311 991.308 C 709.01 991.066 703.081 991.331 697.729 991.437 C 697.413 979.19 697.441 966.936 697.811 954.69 C 698.133 931.118 698.187 907.543 697.974 883.969 z"/>
<path transform="translate(0,0)" fill="rgb(243,118,2)" d="M 697.811 954.69 C 835.252 956.071 974.47 954.615 1112.01 954.557 L 1223.19 954.556 C 1255.46 954.573 1286.84 954.174 1318.52 958.067 C 1350.07 960.994 1379.02 977.224 1383.8 1011.56 C 1393.17 1078.91 1387.78 1149.84 1388.96 1217.89 C 1390.72 1318.67 1298.91 1308.03 1227.21 1308.04 L 1109.41 1308.03 L 697.709 1307.99 C 697.404 1297.28 696.986 1282.89 698.075 1272.39 C 741.571 1274 787.564 1272.56 831.35 1272.56 L 1088.38 1272.54 L 1227.51 1272.54 C 1252.84 1272.58 1279.84 1274.34 1304.9 1271.64 C 1346.7 1267.13 1352.25 1243.76 1352.69 1208 L 1353.27 1117.98 C 1353.58 1088.51 1354.12 1055.57 1350.28 1026.53 C 1344.08 979.716 1274.48 991.038 1240.27 991.191 L 1119.29 991.243 L 714.311 991.308 C 709.01 991.066 703.081 991.331 697.729 991.437 C 697.413 979.19 697.441 966.936 697.811 954.69 z"/>
<path transform="translate(0,0)" fill="rgb(243,118,2)" d="M 821.814 1042.12 C 879.541 1038.77 808.078 1102.63 795.286 1113.25 C 823.645 1112.09 852.175 1111.98 880.546 1112.48 C 887.294 1112.61 903.254 1113.17 905.633 1121.22 C 913.919 1153.49 880.762 1146.91 862.615 1148.07 C 853.55 1148.65 803.65 1146.05 799.124 1147.86 L 798.881 1149.06 C 803.87 1155.51 815.686 1167.7 821.696 1174.42 C 830.361 1182.47 849.943 1203.16 844.197 1215.21 C 841.744 1220.35 835.535 1222.27 830.633 1224.26 C 798.609 1206.21 755.363 1159.8 734.565 1129.74 C 745.683 1110.86 801.961 1052.62 821.814 1042.12 z"/>
<path transform="translate(0,0)" fill="rgb(172,191,230)" d="M 954.82 408.929 L 1231.04 408.909 C 1230.45 456.326 1230.43 503.749 1230.98 551.167 C 1200.87 550.526 1168.24 551.12 1137.89 551.122 L 954.948 551.138 L 954.82 408.929 z"/>
<path transform="translate(0,0)" fill="rgb(82,122,222)" d="M 1088.89 248.35 C 1118.1 245.464 1144.19 266.642 1147.37 295.827 C 1150.56 325.011 1129.64 351.314 1100.49 354.789 C 1081.37 357.068 1062.5 348.904 1051.07 333.408 C 1039.64 317.912 1037.41 297.471 1045.23 279.877 C 1053.06 262.282 1069.73 250.244 1088.89 248.35 z"/>
<path transform="translate(0,0)" fill="rgb(243,118,2)" d="M 525.799 283.697 C 551.195 294.35 547.975 331.116 547.517 354.244 C 547.149 372.79 545.839 390.789 545.848 409.483 L 545.909 643.325 L 545.901 984.906 C 546.622 1068.18 546.113 1151.45 544.373 1234.7 C 563.997 1216.23 576.003 1193.79 600.26 1180.52 C 616.958 1171.39 633.771 1190.57 623.55 1203.6 C 601.216 1232.07 552.31 1290.46 518.329 1299.18 C 500.049 1284.31 426.025 1215.03 420.154 1197.78 C 419.039 1194.5 419.522 1190.74 421.267 1187.77 C 424.558 1182.18 430.635 1179.84 436.541 1178.1 C 458.806 1187.11 495.912 1225.42 510.933 1244.94 C 509.351 1235 509.5 1218.36 509.384 1207.88 C 509.23 1184.98 509.2 1162.08 509.295 1139.18 L 509.303 928.906 L 509.327 471.851 C 509.328 445.228 509.289 418.946 509.232 392.003 C 509.172 363.703 505.799 331.271 511.221 303.43 C 512.951 294.548 518.08 288.174 525.799 283.697 z"/>
</svg>