<svg version="1.1" xmlns="http://www.w3.org/2000/svg" style="display: block;" viewBox="0 0 2048 2048" width="512" height="512" preserveAspectRatio="none">
<path transform="translate(0,0)" fill="rgb(19,44,188)" d="M 275.54 338.177 C 285.059 327.056 287.917 321.383 303.321 320.809 C 346.503 319.199 389.813 320.275 433.029 319.817 C 439.329 319.751 446.122 319.737 452.382 320.226 C 456.44 320.537 460.438 321.387 464.271 322.753 C 477.924 337.787 476.259 353.421 476.083 373.235 L 586.292 373.005 C 603.48 372.997 648.096 371.025 662.086 376.931 C 676.593 392.8 672.658 414.816 649.197 415.608 C 591.378 417.562 533.251 415.296 475.403 416.312 C 475.671 441.451 475.754 466.592 475.652 491.732 C 475.711 494.842 475.443 499.241 476.731 501.841 C 495.343 503.279 521.111 502.7 540.248 502.706 L 644.085 502.701 L 745.723 502.937 C 777.63 502.961 810.06 503.11 841.864 499.381 C 888.816 493.85 935.134 482.035 981.056 471.102 C 995.105 467.757 1031.11 460.866 1040.45 452.382 C 1061.51 433.243 1062.63 431.742 1091.12 430.267 C 1171.77 426.094 1184.93 456.892 1182.1 529.295 C 1229.87 527.896 1285.8 527.419 1332.85 532.302 C 1433.39 542.738 1529.01 595.689 1596.25 670.609 C 1656.36 737.588 1695.2 820.925 1707.83 910.028 C 1711.13 933.65 1712.18 961.965 1712.85 985.951 C 1713.67 1022.09 1713.91 1058.25 1713.55 1094.4 C 1713.48 1116.5 1713.86 1140.5 1713.02 1162.4 C 1781.14 1165.42 1813.16 1249.74 1761.89 1295.77 C 1733.56 1321.21 1687.7 1317.16 1652 1316.76 C 1623.74 1316.32 1595.47 1316.14 1567.2 1316.24 L 1450.07 1316.33 C 1423.62 1316.51 1383.63 1319.92 1359.09 1312.26 C 1281.1 1287.91 1290.85 1168.87 1376.96 1161.68 C 1375.23 1124.32 1376.86 1084.64 1376.41 1047.08 C 1376.02 1014.92 1379.43 977.314 1370.09 946.325 C 1365.18 929.747 1355.72 914.875 1342.79 903.392 C 1299.57 864.503 1235.43 876.381 1182.15 876.107 C 1181.63 930.723 1162.89 954.246 1105.15 952.25 C 1093.88 952.106 1082.48 951.494 1071.43 949.122 C 1055.91 945.842 1045.97 930.746 1031.01 926.525 C 999.672 917.68 968.311 909.448 936.813 901.047 C 896.546 890.308 854.12 879.982 812.394 877.093 C 786.65 875.31 758.789 876.083 732.965 876.074 L 609.859 876.077 L 518.266 876.123 C 509.794 876.132 482.62 874.46 477.011 877.859 C 474.906 881.608 475.658 881.276 475.676 886.264 C 475.801 897.498 475.713 909.538 475.804 920.682 C 476.115 958.619 464.793 961.994 429.756 962.181 L 353.08 962.026 C 338.625 962.126 322.683 962.954 308.272 961.792 C 298.415 960.998 291.242 954.006 285.173 946.75 C 277.123 943.77 267.763 937.271 262.871 930.196 C 257.171 921.95 257.152 914.569 256.917 904.892 C 256.502 887.87 257.193 870.527 257.449 853.483 C 257.608 832.821 257.654 812.159 257.588 791.497 L 257.571 528.274 L 257.536 407.985 C 257.532 391.75 256.9 371.306 258.427 355.217 C 259.085 348.292 269.872 341.655 275.54 338.177 z M 475.73 836.129 C 552.526 837.01 629.738 835.777 706.475 836.326 C 746.656 836.614 804.666 834.108 843.185 839.73 C 904.013 848.609 971.966 869.217 1032.08 885.355 L 1032 783.863 C 1031.99 766.097 1031.23 739.074 1033.31 721.938 C 1039.89 713.007 1048.55 706.597 1059.8 711.903 C 1074.49 718.839 1070.42 742.503 1071.02 755.756 C 1071.38 763.652 1070.99 772.259 1070.97 779.989 L 1070.7 871.648 C 1070.69 878.318 1070.11 899.207 1072.13 903.824 C 1078.3 917.952 1136.45 917.98 1138.62 901.731 C 1142.73 870.925 1141.21 837.623 1141.19 806.397 L 1141.14 626.194 L 1141.28 539.325 C 1141.32 522.676 1141.72 505.226 1140.64 488.658 C 1140.22 482.312 1136.13 475.537 1132.86 470.182 C 1123.21 468.73 1087.34 467.595 1078.81 472.018 C 1063.7 479.844 1080.04 530.669 1054.57 531.231 C 1050.27 531.326 1038.12 526.704 1035.8 523.323 C 1031.86 517.596 1032.31 506.488 1032.46 499.626 C 1022.22 503.239 996.608 508.952 985.094 511.744 C 939.645 522.763 886.653 535.803 840.108 539.692 C 792.966 543.631 738.492 542.134 690.596 542.141 L 475.847 541.967 L 475.685 556.01 L 475.755 732.216 C 475.752 761.093 476.632 795.017 475.675 823.544 L 475.73 836.129 z M 1390.15 1201.41 C 1378.12 1202.28 1364.27 1202.62 1356.75 1212.56 C 1336.74 1239.02 1348.61 1274.38 1383.7 1276 C 1406.97 1277.08 1427.64 1276.78 1450.04 1276.72 L 1559.74 1276.66 L 1650.43 1276.78 C 1665.5 1276.89 1689.23 1278.04 1703.24 1276.72 C 1731.61 1274.44 1747.74 1262.51 1745.96 1231.34 C 1744.6 1207.66 1722.08 1201.97 1702.67 1201.48 C 1681.73 1200.85 1660.88 1201.31 1639.97 1201.33 L 1516.7 1201.36 L 1436.46 1201.26 C 1425.61 1201.18 1399.61 1200.29 1390.15 1201.41 z M 298.897 363.102 C 300.004 409.609 299.246 458.838 299.241 505.519 L 299.215 765.217 L 299.315 866.772 C 299.339 877.783 300.351 911.584 298.066 920.037 C 309.211 920.786 323.749 920.388 335.099 920.536 C 368.081 920.964 401.235 919.891 434.215 920.219 C 433.068 901.397 433.869 874.684 433.866 855.215 L 433.861 732.1 L 433.964 362.77 C 420.184 363.403 402.091 362.876 388.045 362.875 L 298.897 363.102 z M 1182.32 568.425 C 1182.39 656.543 1183.7 748.686 1182.32 836.591 C 1201.49 836.037 1221.15 836.405 1240.3 836.32 C 1291.69 836.094 1331.6 837.142 1371.12 873.974 C 1405.28 905.814 1415.34 940.179 1415.79 986.366 C 1416.13 1020.74 1416.09 1056.52 1415.9 1090.93 C 1415.79 1111.3 1417.06 1142.55 1415.64 1162.12 C 1434.64 1161.47 1454.57 1161.51 1473.6 1161.76 C 1539.75 1162.63 1606.6 1160.45 1672.67 1162.01 L 1672.63 1043.6 C 1672.72 1009.89 1673.8 971.386 1670.7 938.001 C 1661.79 842.298 1620.08 752.616 1552.62 684.146 C 1495.01 624.649 1419.52 585.624 1337.66 573.019 C 1308.3 568.781 1270.37 568.364 1240.5 568.119 C 1221.11 568.038 1201.71 568.14 1182.32 568.425 z"/>
<path transform="translate(0,0)" fill="rgb(19,44,188)" d="M 1050.89 567.813 C 1076.52 570.825 1083.83 652.055 1053.13 670.604 C 1026.47 670.595 1031.59 627.774 1031.58 610.311 C 1031.56 588.948 1029.14 577.294 1050.89 567.813 z"/>
<path transform="translate(0,0)" fill="rgb(250,129,9)" d="M 275.54 338.177 C 285.059 327.056 287.917 321.383 303.321 320.809 C 346.503 319.199 389.813 320.275 433.029 319.817 C 439.329 319.751 446.122 319.737 452.382 320.226 C 456.44 320.537 460.438 321.387 464.271 322.753 C 477.924 337.787 476.259 353.421 476.083 373.235 L 586.292 373.005 C 603.48 372.997 648.096 371.025 662.086 376.931 C 676.593 392.8 672.658 414.816 649.197 415.608 C 591.378 417.562 533.251 415.296 475.403 416.312 C 475.671 441.451 475.754 466.592 475.652 491.732 C 474.843 513.15 474.855 534.592 475.685 556.01 L 475.755 732.216 C 475.752 761.093 476.632 795.017 475.675 823.544 C 474.957 844.943 474.563 864.868 475.676 886.264 C 475.801 897.498 475.713 909.538 475.804 920.682 C 476.115 958.619 464.793 961.994 429.756 962.181 L 353.08 962.026 C 338.625 962.126 322.683 962.954 308.272 961.792 C 298.415 960.998 291.242 954.006 285.173 946.75 C 277.123 943.77 267.763 937.271 262.871 930.196 C 257.171 921.95 257.152 914.569 256.917 904.892 C 256.502 887.87 257.193 870.527 257.449 853.483 C 257.608 832.821 257.654 812.159 257.588 791.497 L 257.571 528.274 L 257.536 407.985 C 257.532 391.75 256.9 371.306 258.427 355.217 C 259.085 348.292 269.872 341.655 275.54 338.177 z M 298.066 920.037 C 309.211 920.786 323.749 920.388 335.099 920.536 C 368.081 920.964 401.235 919.891 434.215 920.219 C 433.068 901.397 433.869 874.684 433.866 855.215 L 433.861 732.1 L 433.964 362.77 C 420.184 363.403 402.091 362.876 388.045 362.875 L 298.897 363.102 C 300.004 409.609 299.246 458.838 299.241 505.519 L 299.215 765.217 L 299.315 866.772 C 299.339 877.783 300.351 911.584 298.066 920.037 z"/>
<path transform="translate(0,0)" fill="rgb(19,44,188)" d="M 275.54 338.177 C 295.449 346.535 291.382 345.068 298.897 363.102 C 300.004 409.609 299.246 458.838 299.241 505.519 L 299.215 765.217 L 299.315 866.772 C 299.339 877.783 300.351 911.584 298.066 920.037 C 288.482 927.446 286.919 935 285.173 946.75 C 277.123 943.77 267.763 937.271 262.871 930.196 C 257.171 921.95 257.152 914.569 256.917 904.892 C 256.502 887.87 257.193 870.527 257.449 853.483 C 257.608 832.821 257.654 812.159 257.588 791.497 L 257.571 528.274 L 257.536 407.985 C 257.532 391.75 256.9 371.306 258.427 355.217 C 259.085 348.292 269.872 341.655 275.54 338.177 z"/>
<path transform="translate(0,0)" fill="rgb(250,129,9)" d="M 1604.84 1385.94 C 1621.86 1383.41 1636.47 1408.41 1643.49 1420.7 C 1649.32 1430.9 1655.88 1441.17 1662.34 1450.99 L 1700.96 1509.47 C 1709.83 1522.97 1718.63 1535.82 1725.92 1550.44 C 1744.73 1588.09 1732.71 1638.47 1706.31 1669.65 C 1682.66 1697.59 1651.87 1710.12 1616.4 1713.83 C 1606.22 1713.7 1596.08 1712.48 1586.15 1710.2 C 1550.41 1701.93 1520.37 1678.93 1501.34 1647.81 C 1487.47 1625.15 1481.19 1596.7 1487.57 1570.63 C 1495.98 1536.3 1558.98 1434.89 1582.25 1406.63 C 1589.01 1398.42 1595.69 1391.44 1604.84 1385.94 z M 1613.63 1672.25 C 1639.55 1667.09 1664.79 1656.56 1680.11 1633.74 C 1690.65 1617.87 1694.41 1598.45 1690.56 1579.8 C 1686.11 1558.87 1669.28 1537.77 1656.49 1520.7 C 1641.88 1501.19 1623.63 1460.55 1607.18 1444.72 C 1599.39 1457.66 1591.03 1470.41 1583.21 1483.22 C 1562.76 1516.75 1520.46 1568.34 1529.16 1609.33 C 1537.52 1648.75 1575.37 1670.97 1613.63 1672.25 z"/>
<path transform="translate(0,0)" fill="rgb(250,129,9)" d="M 891.42 372.405 C 936.731 373.535 940.531 419.707 890.824 417.718 C 876.986 417.164 861.326 416.936 847.413 417.066 C 831.814 415.954 816.13 416.707 812.108 398.653 C 806.126 371.8 841.291 372.684 858.237 373.451 C 869.475 373.96 880.713 373.156 891.42 372.405 z"/>
<path transform="translate(0,0)" fill="rgb(250,129,9)" d="M 726.943 373.245 C 742.473 371.877 781.603 374.995 774.841 402.712 C 773.409 408.581 759.959 415.335 753.787 416.822 C 742.531 417.643 727.299 417.172 717.606 411.441 C 693.377 397.115 703.938 378.337 726.943 373.245 z"/>
</svg>