<svg version="1.1" xmlns="http://www.w3.org/2000/svg" style="display: block;" viewBox="0 0 2048 2048" width="512" height="512" preserveAspectRatio="none">
<path transform="translate(0,0)" fill="rgb(0,20,160)" d="M 1544.22 186.901 C 1559.46 186.31 1574.62 197.487 1585.12 207.664 C 1613.26 234.945 1647.68 258.069 1674.86 285.877 C 1700.99 312.613 1675.06 328.543 1653.42 344.981 C 1623.9 367.405 1595.48 394.391 1565.06 415.86 C 1538.53 434.059 1533.93 417.238 1531.91 393.46 C 1531.23 385.471 1530.65 377.774 1530.56 369.77 C 1510.92 370.685 1471.01 370.487 1451.83 369.709 C 1452.65 393.966 1451.6 418.759 1451.99 443.064 C 1452.17 453.869 1452.12 465.316 1451.28 476.042 C 1464.53 474.735 1475.1 475.358 1488.21 477.672 C 1551.29 488.807 1548.51 555.845 1547.35 605.775 C 1547.12 619.245 1546.97 632.717 1546.92 646.189 C 1546.54 694.402 1541.74 695.193 1493.86 693.892 C 1493.92 695.753 1493.96 697.615 1493.98 699.477 C 1494.16 723.494 1491.64 754.47 1490 778.769 L 1479.75 916.689 L 1450.1 1312.39 L 1427.89 1608.74 C 1426.15 1631.32 1424.77 1653.93 1423.75 1676.55 C 1421.44 1726.75 1420.4 1786.64 1383.04 1824.93 C 1345.58 1863.33 1284.19 1857.69 1235 1857.65 L 1106.75 1857.58 L 657.75 1857.51 C 616.419 1856.69 554.866 1859.76 524.209 1827.94 C 491.463 1793.95 491.275 1726.04 487.901 1681.01 L 479.746 1572.57 L 452.908 1216.36 L 426.513 859.688 C 423.945 825.621 421.116 791.574 418.025 757.551 C 416.32 738.833 412.874 711.815 412.875 693.727 C 409.312 693.88 405.748 693.99 402.184 694.056 C 384.661 694.318 366.573 693.22 366.069 671.947 C 365.002 626.961 363.91 580.214 365.446 535.353 C 367.755 467.873 452.318 475.678 499.911 475.684 L 602.058 475.702 L 926.249 475.723 C 1006.93 476.014 1087.61 475.787 1168.29 475.042 L 1251.92 474.843 C 1268.06 474.848 1290.6 474.359 1306.14 476.034 C 1306.05 474.87 1305.9 473.179 1305.91 472.02 C 1306.35 443.669 1305.84 415.432 1306.13 387.076 C 1306.44 354.63 1304.98 323.456 1310.49 291.374 C 1318.16 246.779 1352.63 241.936 1391.2 239.266 C 1410.68 237.918 1429.82 238.118 1449.45 238.12 L 1530.06 238.249 C 1528.68 218.755 1526.09 198.935 1544.22 186.901 z M 975.906 1461.94 C 990.224 1471.71 1001.98 1481.49 1011.79 1495.52 C 1039.61 1535.31 1052.47 1590.47 1023.68 1633.24 C 1011.82 1650.84 1002.17 1649.84 989.889 1661.29 C 1014.5 1660.48 1108.09 1651.56 1071.48 1701.18 C 1062.52 1713.32 997.043 1706.87 979.363 1708.18 C 974.333 1729.31 982.528 1749.88 958.176 1763.45 C 927.82 1748.33 937.537 1736.2 935.043 1709.62 L 934.869 1707.89 C 858.774 1706.14 777.029 1707.7 700.513 1707.67 L 598.373 1707.64 C 578.07 1707.64 554.758 1707.11 534.713 1708.39 C 533.22 1708.77 534.064 1708.4 532.467 1710.01 C 532.417 1710.91 532.253 1713.43 532.398 1714.42 C 535.98 1738.79 534.54 1780.06 553.612 1798.24 C 573.161 1816.87 619.646 1814.12 644.722 1814.23 C 664.883 1814.32 685.033 1814.18 704.932 1814.17 L 907.842 1814.17 L 1160.31 1814.2 L 1242.25 1814.22 C 1278.34 1814.22 1334.32 1819.12 1359.33 1789.38 C 1377.26 1768.05 1377.25 1712.99 1379.18 1685.01 L 1385.86 1595.01 L 1409.91 1278.73 C 1415.7 1206.58 1421.07 1134.39 1426.03 1062.18 C 1427.1 1045.37 1428.62 1028.76 1429.87 1011.99 C 1430.26 1006.77 1431.31 996.163 1430.98 991.478 C 1419.08 993.233 1398.42 999.973 1386.36 1003.45 C 1369.89 1008.11 1353.22 1012 1336.39 1015.13 C 1214.36 1038.13 1090.89 1031.8 976.77 980.853 C 975.488 996.715 976.114 1019.15 976.095 1035.58 L 976.087 1131.13 C 976.115 1240.42 977.314 1352.86 975.906 1461.94 z M 528.025 1661.1 C 603.816 1662.1 681.165 1661.21 757.091 1661.26 C 810.473 1661.29 866.136 1662.34 919.144 1661.67 C 916.533 1657.72 909.804 1653.55 905.836 1650.97 C 844.38 1611.09 867.538 1526.58 909.796 1481.45 C 914.434 1476.5 930.412 1464.28 932.366 1460.19 C 931.16 1443.7 931.871 1420.37 931.884 1403.42 L 931.894 1306.03 C 931.892 1190.32 933.123 1072.76 931.786 957.254 C 923.874 952.927 914.453 944.585 906.64 940.737 C 884.561 929.863 856.977 925.63 833.418 920.222 C 703.604 890.421 601.605 909.66 476.615 947.075 C 475.701 961.818 480.113 1007.57 481.363 1024.18 L 492.453 1172.07 L 528.025 1661.1 z M 427.866 518.091 C 390.696 541.088 408.539 615.084 407.112 652.083 C 453.79 651.042 502.153 651.698 549 651.698 L 794.826 651.699 L 1480.75 651.748 C 1488.61 651.827 1497.26 651.732 1505.04 652.147 C 1504.99 651.721 1504.94 651.296 1504.88 650.87 C 1502.49 615.265 1507.88 576.492 1501.84 541.329 C 1500.97 536.258 1496.37 528.469 1492.32 525.255 C 1484.95 519.4 1466.68 518.28 1457.63 518.045 C 1429.96 517.324 1402.11 517.563 1374.44 517.562 L 1233.78 517.563 L 831.698 517.841 L 559.084 517.859 L 476.828 517.804 C 461.449 517.782 442.872 517.27 427.866 518.091 z M 1632.29 305.347 C 1615.57 288.963 1592.27 269.392 1573.77 255.435 C 1574.04 275.56 1574.12 295.687 1574.03 315.814 C 1574.02 327.081 1574.42 344.492 1572.93 355.307 C 1582.74 347.02 1594.54 336.277 1604.52 328.786 C 1613.76 321.163 1623.02 312.646 1632.29 305.347 z M 955.784 1623.88 C 982.68 1620.9 1001.33 1599.73 997.32 1572.32 C 993.896 1548.9 980.842 1530.57 966.801 1512.16 C 964.141 1508.67 960.511 1501.75 956.866 1499.76 C 919.581 1532.64 878.057 1611.38 955.784 1623.88 z M 1349.73 476.076 C 1368.06 475.733 1391.15 475.094 1409.34 476.161 C 1407.61 451.425 1409.19 416.034 1408.85 390.295 C 1408.58 381.031 1408.35 371.361 1408.11 362.423 C 1407.69 346.302 1407.26 330.973 1427.72 329.552 C 1459.11 327.37 1494.27 327.039 1525.75 328.313 C 1527.27 328.388 1528.78 328.493 1530.3 328.628 C 1529.86 315.325 1529.59 293.878 1530.49 280.8 C 1484.03 282.605 1431.6 278.942 1386.04 281.4 C 1365.78 282.994 1349.87 288.171 1349.35 311.11 C 1348.31 356.994 1351.28 403.62 1350.05 449.659 C 1349.82 458.538 1350.41 467.358 1349.73 476.076 z M 1443.78 836.858 C 1446.47 788.41 1450.8 742.579 1452.98 693.262 C 1433.14 694.824 1402 693.875 1381.16 693.877 L 1249.31 693.857 L 833.327 693.831 L 571.092 693.849 L 494.594 693.922 C 485.582 693.928 463.694 694.429 455.498 693.254 C 456.958 765.281 467.884 832.351 470.912 902.797 C 593.651 861.261 715.522 846.746 842.817 876.274 C 872.992 883.273 904.656 888.053 931.455 904.528 C 933.782 860.685 930.708 814.589 931.879 770.531 C 932.071 763.299 932.062 754.844 931.541 747.697 C 946.532 747.801 961.523 747.791 976.514 747.667 C 974.851 790.179 976.92 835.304 976.167 878.031 C 975.889 893.797 977.1 916.8 975.741 932.103 C 995.141 940.325 1016.56 949.691 1036.55 956.02 C 1141.27 989.177 1250.82 989.691 1357.15 964.815 C 1371.21 961.591 1385.05 957.522 1398.62 952.631 C 1410.54 948.282 1421.63 943.117 1433.92 940.166 L 1435.82 939.692 C 1437.84 933.497 1438.7 893.11 1439.93 882.191 C 1405.76 881.644 1355.33 880.691 1321.64 882.558 C 1321.05 867.682 1321.23 851.781 1321.18 836.861 C 1360.12 836.997 1405.38 838.308 1443.78 836.858 z"/>
<path transform="translate(0,0)" fill="rgb(250,107,8)" d="M 1263.28 1276.2 C 1280.97 1278.41 1285.75 1291.63 1286.81 1307.04 C 1287.9 1320.98 1287.02 1335.12 1286.69 1349.13 C 1285.74 1389.61 1287.9 1430.87 1284.76 1471.21 C 1299.1 1455.61 1318.88 1425.06 1342.96 1425.56 C 1351.45 1425.73 1365.76 1440.7 1361.67 1448.47 C 1346.03 1478.21 1293.6 1529.48 1266.55 1545.37 C 1249.71 1544.85 1163.59 1456.52 1166.32 1445.64 C 1179.7 1392.42 1228.59 1452.82 1243.65 1471.92 C 1240.1 1450.66 1242.85 1405.43 1241.95 1381.72 C 1242.28 1359.87 1240.22 1338.07 1241.21 1316.23 C 1242.02 1298.68 1244.35 1282.35 1263.28 1276.2 z"/>
<path transform="translate(0,0)" fill="rgb(250,107,8)" d="M 1211.28 1080.44 C 1244.95 1080.95 1278.62 1080.87 1312.28 1080.19 C 1311.83 1087.99 1313.22 1121.44 1310.5 1125.28 L 1308.25 1125.64 C 1275.59 1127.04 1239.6 1125.41 1205.79 1126.51 C 1205.21 1116.61 1203.18 1091.41 1206.51 1081.93 C 1206.98 1080.6 1209.44 1080.71 1211.28 1080.44 z"/>
<path transform="translate(0,0)" fill="rgb(250,107,8)" d="M 1224.13 1171.98 C 1246.25 1173.72 1277.78 1172.59 1300.33 1172.11 C 1299.86 1179.62 1301.12 1213.24 1298.7 1216.77 C 1288.63 1217.72 1232.65 1218.88 1226.23 1215.33 C 1222.77 1208.12 1223.94 1181.53 1224.13 1171.98 z"/>
<path transform="translate(0,0)" fill="rgb(250,107,8)" d="M 734.859 989.955 C 756.917 993.313 784.422 1026.3 799.277 1041.97 C 811.008 1054.34 832.327 1074.04 836.311 1090.05 C 829.062 1120.59 804.352 1114.89 787.211 1096.82 C 778.093 1087.21 768.987 1078.86 761.434 1067.77 C 763.571 1123.55 762.204 1187.66 762.18 1244.05 L 762.1 1305.08 C 762.037 1317.91 762.3 1336.18 760.096 1348.53 C 775.205 1330.6 796.99 1305.91 820.364 1301.76 C 834.355 1307.48 844.792 1320.64 834.488 1334.73 C 815.571 1360.59 765.938 1418.9 733.768 1426.1 C 725.678 1419.8 717.512 1413.54 710 1406.55 C 699.394 1396.67 639.033 1335.86 637.362 1328.02 C 636.337 1323.21 637.411 1317.91 640.097 1313.81 C 643.404 1308.76 649.789 1304.87 655.633 1303.64 C 681.577 1298.18 697.899 1336.62 716.186 1348.24 L 717.401 1347.75 C 716.042 1337.67 716.422 1320.78 716.407 1310.11 L 716.358 1250.04 C 716.334 1190.63 715.261 1126.02 716.55 1066.89 C 710.946 1067.32 676.068 1118.31 656.484 1109.92 C 620.008 1094.31 657.563 1058.02 672.863 1042.42 C 691.336 1023.6 712.235 1002.77 734.859 989.955 z"/>
<path transform="translate(0,0)" fill="rgb(250,107,8)" d="M 1077.56 836.193 C 1088.13 838.365 1142.56 837.896 1155.1 837.887 L 1226.34 837.58 C 1240.41 837.462 1258.54 837.595 1272.25 836.224 C 1271.55 850.781 1272.28 866.644 1271.82 881.525 C 1229.07 882.946 1184.07 881.099 1141.07 881.785 C 1119.48 882.129 1098.85 881.207 1077.15 883.13 C 1076.4 873.68 1074.74 843.809 1077.56 836.193 z"/>
<path transform="translate(0,0)" fill="rgb(250,107,8)" d="M 470.912 902.797 C 593.651 861.261 715.522 846.746 842.817 876.274 C 872.992 883.273 904.656 888.053 931.455 904.528 C 940.291 912.932 964.234 928.38 975.741 932.103 C 995.141 940.325 1016.56 949.691 1036.55 956.02 C 1141.27 989.177 1250.82 989.691 1357.15 964.815 C 1371.21 961.591 1385.05 957.522 1398.62 952.631 C 1410.54 948.282 1421.63 943.117 1433.92 940.166 L 1435.82 939.692 C 1435.8 948.114 1433.98 985.01 1430.98 991.478 C 1419.08 993.233 1398.42 999.973 1386.36 1003.45 C 1369.89 1008.11 1353.22 1012 1336.39 1015.13 C 1214.36 1038.13 1090.89 1031.8 976.77 980.853 C 970.171 975.043 941.031 959.908 931.786 957.254 C 923.874 952.927 914.453 944.585 906.64 940.737 C 884.561 929.863 856.977 925.63 833.418 920.222 C 703.604 890.421 601.605 909.66 476.615 947.075 C 473.947 938.915 468.852 910.151 470.912 902.797 z"/>
<path transform="translate(0,0)" fill="rgb(0,20,160)" d="M 932.366 1460.19 C 937.075 1461.74 947.286 1453.99 954.42 1454.44 C 961.742 1454.91 969.71 1460.52 975.906 1461.94 C 990.224 1471.71 1001.98 1481.49 1011.79 1495.52 C 1039.61 1535.31 1052.47 1590.47 1023.68 1633.24 C 1011.82 1650.84 1002.17 1649.84 989.889 1661.29 C 985.968 1661.65 982.054 1662.07 978.148 1662.56 C 959.458 1665.41 955.32 1666.07 936.03 1664.74 C 930.365 1662.64 925.086 1662.28 919.144 1661.67 C 916.533 1657.72 909.804 1653.55 905.836 1650.97 C 844.38 1611.09 867.538 1526.58 909.796 1481.45 C 914.434 1476.5 930.412 1464.28 932.366 1460.19 z M 955.784 1623.88 C 982.68 1620.9 1001.33 1599.73 997.32 1572.32 C 993.896 1548.9 980.842 1530.57 966.801 1512.16 C 964.141 1508.67 960.511 1501.75 956.866 1499.76 C 919.581 1532.64 878.057 1611.38 955.784 1623.88 z"/>
<path transform="translate(0,0)" fill="rgb(61,71,177)" d="M 931.786 957.254 C 941.031 959.908 970.171 975.043 976.77 980.853 C 975.488 996.715 976.114 1019.15 976.095 1035.58 L 976.087 1131.13 C 976.115 1240.42 977.314 1352.86 975.906 1461.94 C 969.71 1460.52 961.742 1454.91 954.42 1454.44 C 947.286 1453.99 937.075 1461.74 932.366 1460.19 C 931.16 1443.7 931.871 1420.37 931.884 1403.42 L 931.894 1306.03 C 931.892 1190.32 933.123 1072.76 931.786 957.254 z"/>
<path transform="translate(0,0)" fill="rgb(250,107,8)" d="M 528.025 1661.1 C 603.816 1662.1 681.165 1661.21 757.091 1661.26 C 810.473 1661.29 866.136 1662.34 919.144 1661.67 C 925.086 1662.28 930.365 1662.64 936.03 1664.74 C 935.709 1675.98 936.202 1697.93 934.869 1707.89 C 858.774 1706.14 777.029 1707.7 700.513 1707.67 L 598.373 1707.64 C 578.07 1707.64 554.758 1707.11 534.713 1708.39 L 532.865 1707.72 C 529.417 1702.59 528.329 1669.03 528.025 1661.1 z"/>
<path transform="translate(0,0)" fill="rgb(61,71,177)" d="M 931.541 747.697 C 946.532 747.801 961.523 747.791 976.514 747.667 C 974.851 790.179 976.92 835.304 976.167 878.031 C 975.889 893.797 977.1 916.8 975.741 932.103 C 964.234 928.38 940.291 912.932 931.455 904.528 C 933.782 860.685 930.708 814.589 931.879 770.531 C 932.071 763.299 932.062 754.844 931.541 747.697 z"/>
<path transform="translate(0,0)" fill="rgb(250,107,8)" d="M 1321.18 836.861 C 1360.12 836.997 1405.38 838.308 1443.78 836.858 C 1442.91 849.816 1442.06 869.923 1439.93 882.191 C 1405.76 881.644 1355.33 880.691 1321.64 882.558 C 1321.05 867.682 1321.23 851.781 1321.18 836.861 z"/>
<path transform="translate(0,0)" fill="rgb(250,107,8)" d="M 989.889 1661.29 C 1014.5 1660.48 1108.09 1651.56 1071.48 1701.18 C 1062.52 1713.32 997.043 1706.87 979.363 1708.18 C 978.05 1702.8 978.259 1670.49 978.148 1662.56 C 982.054 1662.07 985.968 1661.65 989.889 1661.29 z"/>
<path transform="translate(0,0)" fill="rgb(61,71,177)" d="M 936.03 1664.74 C 955.32 1666.07 959.458 1665.41 978.148 1662.56 C 978.259 1670.49 978.05 1702.8 979.363 1708.18 C 974.333 1729.31 982.528 1749.88 958.176 1763.45 C 927.82 1748.33 937.537 1736.2 935.043 1709.62 L 934.869 1707.89 C 936.202 1697.93 935.709 1675.98 936.03 1664.74 z"/>
</svg>