<svg version="1.1" xmlns="http://www.w3.org/2000/svg" style="display: block;" viewBox="0 0 2048 2048" width="512" height="512" preserveAspectRatio="none">
<path transform="translate(0,0)" fill="rgb(0,29,184)" d="M 375.951 307.437 C 398.754 305.268 428.479 306.944 451.959 306.963 L 594.845 307.018 L 1037.57 307.022 L 1459.53 307.016 L 1594.05 306.985 C 1621.46 306.982 1648.64 307.221 1675.92 308.002 C 1773.22 310.787 1759.33 382.098 1759.27 455.606 L 1759.26 589.908 L 1759.28 1009.84 L 1759.3 1438.12 L 1759.31 1573.02 C 1759.32 1601.25 1759.88 1629.24 1758.28 1657.43 C 1754.71 1720.73 1728.2 1729.61 1672.25 1733.58 C 1646.71 1735.69 1613.66 1734.09 1587.57 1734.07 L 1444.3 1734.07 L 987.472 1733.86 L 584.836 1733.87 L 455.558 1734.07 C 424.803 1734.07 393.464 1734.32 362.812 1732.34 C 347.426 1731.34 324.961 1726.82 313.218 1716.27 C 296.259 1701.03 292.263 1671.98 291.066 1650.38 C 289.373 1619.84 289.974 1588.21 289.976 1557.55 L 289.959 1413.28 L 289.859 960.661 L 289.739 566.207 L 289.696 440.288 C 289.667 361.252 277.91 313.309 375.951 307.437 z M 342.823 1686.93 C 359.759 1692.12 399.144 1690.43 418.614 1690.43 C 522.691 1689.23 628.393 1690.15 732.651 1690.14 L 1311.84 1690.14 L 1569.56 1690.15 L 1647.15 1690.25 C 1662.35 1690.31 1677.76 1690.93 1692.93 1689.91 C 1699.92 1689.43 1711.54 1680.42 1712.75 1673.49 C 1715.46 1657.92 1714.68 1641.63 1714.65 1625.83 L 1714.52 1569.19 L 1714.41 1362.13 L 1714.21 603.63 L 1714.22 459.954 C 1714.23 435.006 1714.48 409.996 1713.9 385.067 C 1713.82 381.496 1712.51 370.318 1710.65 367.7 C 1699.51 352.014 1677.95 348.508 1660.18 347.583 C 1651.69 347.137 1643.18 347.09 1634.68 347.441 C 1577.3 350.802 1528.28 350.265 1470.79 350.266 L 1277.97 350.246 L 665.998 350.242 L 461.64 350.242 C 426.943 350.235 392.024 349.512 357.383 350.831 C 338.334 351.557 332.54 367.767 332.34 384.244 C 331.955 416.034 332.169 447.819 332.198 479.612 L 332.223 650.524 L 332.258 1182.21 L 332.252 1498.49 L 332.193 1598.86 C 332.196 1620.37 331.949 1642.41 333.522 1663.88 C 334.209 1673.26 336.382 1680.05 342.823 1686.93 z"/>
<path transform="translate(0,0)" fill="rgb(246,84,9)" d="M 698.774 573.749 C 706.497 574.145 717.788 580.156 722.799 585.81 C 740.034 605.258 756.816 626.008 773.389 646.032 C 805.948 685.406 838.948 724.413 872.383 763.045 C 902.601 797.475 954.879 852.596 866.489 846.087 C 834.71 843.747 797.426 848.789 765.928 845.188 C 766.522 850.164 766.953 854.292 766.961 859.381 C 767.072 932.14 767.022 1004.97 767.023 1077.73 L 767.099 1156.26 C 767.142 1169.05 769.73 1217.27 761.22 1226.34 C 751.691 1236.49 718.647 1233.98 704.476 1233.85 C 688.112 1233.75 671.009 1235.05 654.684 1233.67 C 645.863 1232.92 641.582 1230.44 635.311 1224.5 C 630.987 1205.93 632.237 1163.21 632.245 1142.7 L 632.292 1024.37 L 632.259 910.414 C 632.257 891.661 631.392 863.487 633.033 845.665 C 610.672 846.738 587.936 845.818 565.536 845.892 C 547.018 845.954 527.04 848.286 508.805 844.797 C 502.408 843.572 493.34 841.378 489.725 835.453 C 487.233 831.368 486.362 825.848 487.607 821.212 C 493.101 800.754 661.825 606.068 684.899 583.863 C 689.082 579.837 693.886 576.836 698.774 573.749 z M 555.747 803.406 C 581.273 800.569 635.94 800.533 661.889 804.89 C 664.982 805.409 669.719 808.725 672.383 810.531 C 678.094 836.978 676.041 879.262 675.977 908.018 L 675.929 1037.38 L 675.952 1136.17 C 675.952 1151.26 676.732 1176.24 675.234 1190 C 684.894 1190 694.894 1190.13 704.526 1190.01 C 710.574 1189.98 716.977 1189.85 722.995 1189.99 C 721.492 1177.16 722.162 1151.95 722.161 1138.38 L 722.125 1045.93 L 722.091 904.073 C 722.088 885.524 719.62 823.997 726.759 810.443 C 744.349 798.707 824.12 800.812 847.441 803.348 C 817.929 766.454 787.997 729.897 757.653 693.684 C 740.985 673.599 719.423 646.589 701.352 628.519 C 697.179 636.542 670.601 668.385 663.351 677.293 C 640.62 705.442 617.504 733.278 594.012 760.795 C 583.284 773.308 567.568 792.204 555.747 803.406 z"/>
<path transform="translate(0,0)" fill="rgb(246,84,9)" d="M 1309.02 806.342 C 1333.6 804.782 1363.73 806.438 1388.7 806.717 C 1405.37 806.903 1416.73 817.007 1417.82 834.233 C 1419.36 858.713 1418.58 883.821 1418.52 908.656 L 1418.48 1032.38 L 1418.46 1133.8 C 1418.45 1148.02 1419.16 1177.12 1417.4 1190.14 C 1418.26 1190.09 1419.12 1190.06 1419.98 1190.02 C 1437.42 1189.53 1456.24 1190.08 1473.97 1189.91 C 1491.14 1190.47 1509.19 1187.63 1526.15 1190.72 C 1564.49 1197.71 1548.14 1223.09 1533.32 1243.19 C 1503.44 1283.73 1470.91 1321.69 1439.64 1360.9 L 1394.5 1417.52 C 1385.45 1428.88 1375.55 1442.87 1365.12 1452.5 C 1339.43 1481.49 1323.52 1450.75 1306.93 1429.8 L 1273.19 1387.67 L 1186.42 1281.15 C 1172.28 1263.79 1157.62 1246.54 1144.13 1228.72 C 1140.36 1223.04 1133.82 1215.98 1133.15 1209.15 C 1131.88 1196.1 1149.71 1192.31 1160.18 1191.04 C 1175.21 1189.21 1192.53 1189.87 1208.15 1189.88 L 1283.45 1189.94 C 1282.32 1164.85 1282.87 1135.95 1282.86 1110.73 L 1282.83 978.334 L 1282.84 882.993 C 1282.85 865.047 1282.56 846.947 1283.47 829.035 C 1284.27 813.458 1295.49 808.473 1309.02 806.342 z M 1324.15 1222.21 L 1323.18 1223.24 C 1311.5 1235.43 1299.83 1232.7 1286.04 1233.95 C 1274.79 1234.97 1212.07 1232.31 1205.36 1234.13 C 1208.02 1239.86 1243.08 1279.93 1248.13 1286.31 C 1278.5 1324.69 1310.01 1362.8 1340.26 1401.31 L 1345.79 1408.57 C 1366.51 1376.95 1404.89 1332.54 1429.04 1302.47 L 1460.7 1262.86 C 1467.15 1254.72 1478.66 1239.83 1485.75 1232.9 C 1465.05 1235.8 1437.31 1233.78 1416.33 1233.66 C 1368.92 1233.4 1372.54 1217.01 1373.49 1177.61 C 1373.58 1172.87 1373.63 1164.79 1373.66 1159.6 L 1373.71 1055.96 L 1373.69 913.84 C 1373.68 897.738 1372.39 862.603 1373.44 848.322 L 1355.09 848.46 C 1345.61 848.743 1336.16 849.134 1326.68 848.854 C 1328.37 860.659 1327.46 882.68 1327.38 895.278 L 1327.32 965.385 L 1327.38 1117.1 C 1327.39 1141.24 1330 1201.25 1324.15 1222.21 z"/>
<path transform="translate(0,0)" fill="rgb(0,29,184)" d="M 1021.71 488.093 C 1024.85 487.996 1027.99 488.383 1031.01 489.241 C 1045.68 493.455 1046.69 508.535 1046.72 521.192 C 1046.88 588.336 1046.81 655.483 1046.81 722.627 L 1046.81 1115.35 L 1046.85 1329.08 C 1046.89 1358.44 1050.35 1515.45 1043.98 1531.14 C 1040.97 1538.54 1034.4 1541.08 1027.56 1543.9 C 1005.32 1545.1 1002.54 1521.13 1001.87 1503.93 C 1001.28 1489.11 1002.36 1473.71 1002.67 1458.83 C 1002.94 1440.88 1003.02 1422.92 1002.93 1404.97 L 1003.25 1125 L 1002.75 729.509 C 1002.72 661.627 1002.72 593.599 1002.92 525.711 C 1002.94 517.798 1003.88 503.553 1007.15 496.129 C 1009.21 491.453 1017.14 489.384 1021.71 488.093 z"/>
</svg>