<svg version="1.1" xmlns="http://www.w3.org/2000/svg" style="display: block;" viewBox="0 0 2048 2048" width="512" height="512" preserveAspectRatio="none">
<path transform="translate(0,0)" fill="rgb(6,58,176)" d="M 327.825 421.553 C 319.958 407.624 298.492 387.075 286.623 375.478 L 224.023 313.142 C 211.003 300.4 198.254 289.529 186.361 275.598 C 160.015 244.737 192.599 217.654 219.76 245.774 C 227.774 254.071 237.296 263.813 245.433 272.238 C 258.357 285.523 271.404 298.688 284.572 311.732 L 435.979 464.005 C 603.609 634.227 772.116 803.583 941.494 972.066 C 944.623 977.234 950.862 984.12 954.966 988.946 C 976.252 965.183 999.566 946.234 1021.24 921.491 L 1378.43 562.652 L 1481.32 459.545 C 1501.37 439.335 1521.27 418.856 1541.78 399.108 C 1546.7 394.374 1559.8 382.841 1566.72 382.242 C 1576.12 381.427 1589.9 395.219 1589.91 404.609 C 1589.91 409.194 1586.94 414.122 1583.97 417.514 C 1567.23 435.44 1549.38 452.947 1532.11 470.354 L 1433.5 569.756 L 1116.77 887.934 L 1047.9 956.885 C 1038.93 965.819 1014.71 988.935 1008.75 997.903 C 1000.72 1001.26 987.973 1013.87 982.12 1020.47 C 988.412 1026.31 1000.24 1037.33 1007.24 1041.65 C 1044.51 1081.01 1083.24 1117.8 1121.35 1156.16 L 1383.09 1418.89 C 1407.94 1443.84 1432.71 1468.92 1457.74 1493.68 C 1475.21 1510.95 1495.16 1525.88 1510.89 1544.84 C 1529.15 1566.85 1532.76 1584.87 1501.54 1594.36 C 1490.32 1586.68 1469.27 1565.71 1459.05 1556.02 C 1428.94 1527.8 1399.36 1499.01 1370.34 1469.66 C 1276.42 1376.42 1183.23 1282.43 1090.8 1187.71 L 997.207 1092.99 C 988.384 1084.06 961.209 1057.89 954.791 1049.35 C 927.063 1084.28 881.515 1124.53 848.983 1156.75 L 670.956 1335.88 L 364.467 1643.84 L 265.467 1743.1 C 249.713 1758.89 233.868 1774.91 218.102 1790.7 C 212.078 1796.74 202.884 1800.95 194.722 1803.27 C 181.575 1799.01 171.618 1789.02 177.951 1774.22 C 187.717 1751.39 211.137 1736.29 227.81 1718.9 C 257.721 1688.77 286.864 1657.94 317.143 1628.17 C 320.831 1624.54 324.775 1620.77 327.971 1616.74 C 329.049 1570.38 328.169 1521.84 328.158 1475.22 L 328.15 1200.77 C 327.9 1148.02 328.034 1095.26 328.551 1042.5 C 329.318 1029.36 328.855 1011.02 328.542 997.721 C 328.052 950.821 327.929 903.917 328.174 857.015 L 328.201 582.929 C 328.444 529.137 328.319 475.343 327.825 421.553 z M 903.359 997.242 C 900.868 993.3 895.928 989.182 892.447 985.809 C 859.971 954.344 828.833 921.617 796.991 889.506 L 511.94 603.305 L 422.474 513.624 C 407.657 498.759 384.01 476.205 371.105 460.497 C 372.665 475.054 371.745 513.14 371.739 528.849 L 371.733 661.925 L 371.723 876.674 C 371.72 915.314 372.682 958.928 371.19 997.073 L 733.006 997.08 L 849.3 997.132 C 862.574 997.142 891.253 996.238 903.359 997.242 z M 370.64 1574.8 L 798.396 1146.1 C 826.43 1118.07 854.459 1089.95 882.503 1061.92 C 885.962 1058.46 900.184 1046.86 901.189 1043.82 C 874.551 1042.71 843.049 1043.45 816.009 1043.45 L 663.751 1043.43 L 479.444 1043.43 C 444.272 1043.42 407.123 1042.84 372.076 1043.8 C 371.033 1054.86 371.674 1077.43 371.687 1089.51 L 371.728 1175.55 L 371.728 1454.54 L 371.791 1527.66 C 371.801 1541.34 372.264 1561.47 370.64 1574.8 z"/>
<path transform="translate(0,0)" fill="rgb(254,110,0)" d="M 371.19 997.073 L 733.006 997.08 L 849.3 997.132 C 862.574 997.142 891.253 996.238 903.359 997.242 C 911.927 1005.05 917.764 1011.72 925.463 1020.35 C 919.781 1026.44 907.53 1040.43 901.189 1043.82 C 874.551 1042.71 843.049 1043.45 816.009 1043.45 L 663.751 1043.43 L 479.444 1043.43 C 444.272 1043.42 407.123 1042.84 372.076 1043.8 C 369.971 1037.75 371.036 1005.78 371.19 997.073 z"/>
<path transform="translate(0,0)" fill="rgb(254,110,0)" d="M 1776.3 990.702 C 1789.33 974.813 1841.28 909.488 1862.81 927.431 C 1892.11 951.854 1833.34 991.712 1819.49 1007.97 C 1816.81 1011.14 1806.97 1018.56 1803.87 1020.63 C 1824.35 1040.15 1864.32 1069.16 1868.63 1099.15 C 1869.9 1107.96 1857.18 1119.45 1848.6 1117.36 C 1818.49 1110.01 1796.46 1074.28 1775.72 1054.1 C 1761.62 1069.13 1709.32 1136.31 1688.05 1109.95 C 1671.11 1088.95 1715.6 1052.57 1730.07 1041.43 C 1717.98 1043.35 1701.99 1042.77 1689.31 1042.95 C 1665.67 1043.37 1642.02 1043.57 1618.38 1043.55 L 1394.92 1043.5 L 1121.95 1043.48 C 1105.35 1043.48 1018.44 1044.93 1007.24 1041.65 C 1000.24 1037.33 988.412 1026.31 982.12 1020.47 C 987.973 1013.87 1000.72 1001.26 1008.75 997.903 C 1026.94 996.983 1047.78 997.577 1066.16 997.594 L 1164.55 997.593 L 1472.88 997.58 L 1640.51 997.604 C 1660.66 997.596 1707.39 996.128 1725.22 998.917 C 1705.64 983.346 1649.88 935.465 1702.27 923.899 C 1729.05 932.326 1756.26 973.222 1776.3 990.702 z"/>
<path transform="translate(0,0)" fill="rgb(254,110,0)" d="M 941.494 972.066 C 952.071 938.518 983.51 897.461 1000.63 865.508 C 1094.91 689.547 1171.65 493.026 1332.97 365.644 C 1349.53 352.572 1366.57 336.824 1387.65 332.062 C 1398.58 336.961 1417.18 351.698 1405.05 364.522 C 1391.44 377.981 1375.31 388.385 1360.44 400.707 C 1221 516.251 1144.24 681.662 1063.98 840.31 C 1054.65 858.572 1045.08 876.711 1035.27 894.723 C 1031.68 901.404 1023.62 915.157 1021.24 921.491 C 999.566 946.234 976.252 965.183 954.966 988.946 C 950.862 984.12 944.623 977.234 941.494 972.066 z"/>
<path transform="translate(0,0)" fill="rgb(254,110,0)" d="M 185.904 1039.06 C 185.312 1038.4 184.729 1037.74 184.155 1037.07 C 170.366 1020.9 176.217 999.69 199.278 997.559 C 233.589 994.39 268.005 996.258 302.417 996.619 C 311.054 996.71 319.938 996.835 328.542 997.721 C 328.855 1011.02 329.318 1029.36 328.551 1042.5 C 319.873 1044.2 288.92 1044.16 279.546 1043.58 C 254.424 1042.04 208.508 1047.53 185.904 1039.06 z"/>
<path transform="translate(0,0)" fill="rgb(254,110,0)" d="M 1459.65 294.077 C 1471.29 291.436 1487.25 307.578 1482.16 319.431 C 1476.79 331.951 1456.95 339.441 1445.22 344.559 C 1423.89 351.289 1416.24 329.977 1423.17 312.296 C 1437.6 300.704 1442.09 299.769 1459.65 294.077 z"/>
</svg>