<svg version="1.1" xmlns="http://www.w3.org/2000/svg" style="display: block;" viewBox="0 0 2048 2048" width="512" height="512" preserveAspectRatio="none">
<path transform="translate(0,0)" fill="rgb(251,116,1)" d="M 1053.92 641.571 C 1062.19 639.694 1073.38 632.322 1083.85 629.307 C 1157.91 607.973 1214.72 610.343 1280.47 652.261 C 1344.57 693.127 1386.09 760.358 1401.94 833.912 C 1428.68 957.952 1391.48 1096.46 1322 1200.67 C 1281.99 1260.66 1216.59 1336.93 1142.99 1353.49 C 1100.58 1363.04 1080.03 1345.21 1040.22 1342.35 C 1027.59 1341.44 997.573 1345.02 985.052 1347.59 C 922.966 1360.33 884.165 1356.09 829.961 1319.21 C 730.35 1251.44 666.196 1128.68 643.271 1012.67 C 623.594 913.094 631.673 805.184 689.689 719.634 C 723.715 669.457 778.906 630.844 838.445 619.226 C 895.446 608.091 954.549 618.811 1004.01 649.254 C 1010.56 654.921 1013.55 657.275 1020.82 661.877 C 1032.84 655.994 1043 649.114 1053.92 641.571 z"/>
<path transform="translate(0,0)" fill="rgb(254,220,167)" d="M 870.236 665.4 C 930.877 658.495 968.756 692.454 1021.37 715.888 C 1034.94 709.137 1048.9 699.731 1062.14 692.313 C 1145.43 645.676 1239.9 661.115 1300.2 736.375 C 1351.23 800.058 1367.02 877.529 1358 957.258 C 1344.31 1078.29 1278.4 1202.23 1183.95 1279.17 C 1118.41 1327.25 1090.55 1291.78 1018.13 1292.11 C 987.874 1292.25 961.181 1300.43 931.796 1304.18 C 898.223 1308.41 865.217 1288.04 840.654 1266.6 C 703.582 1147 617.279 889.017 742.87 733.901 C 773.785 695.72 821.028 669.57 870.236 665.4 z"/>
<path transform="translate(0,0)" fill="rgb(5,29,190)" d="M 143.752 1638.38 C 173.737 1637.5 204.813 1638.21 234.893 1638.5 L 388.06 1640.15 L 881.194 1644.4 L 1555.4 1649.92 L 1760.66 1652.07 C 1800.19 1652.33 1839.71 1652.19 1879.23 1652.52 C 1894.16 1652.64 1913.73 1655.13 1918.44 1672.09 C 1920.28 1678.92 1919.12 1686.21 1915.26 1692.13 C 1910.3 1699.82 1905.28 1702.12 1896.82 1703.74 C 1877.92 1705.1 1846.96 1703.8 1827.45 1703.59 L 1708.56 1702.69 L 1335.95 1699.29 L 552.688 1692.25 L 293.593 1690.2 C 245.125 1689.86 192.592 1691.29 143.995 1687.69 C 139.21 1687.34 133.835 1685.07 129.544 1682.93 C 125.11 1676.94 123.743 1672.2 121.533 1665.33 C 124.598 1650.93 128.726 1641.93 143.752 1638.38 z"/>
<path transform="translate(0,0)" fill="rgb(5,29,190)" d="M 1021.19 477.672 C 1028.26 445.86 1050.81 409.902 1074.15 386.916 C 1126.8 335.329 1202.3 306.163 1275.75 305.406 C 1312.03 305.031 1325.47 308.711 1324.19 347.024 C 1321.84 416.817 1295.88 489.189 1243.65 537.01 C 1196.31 580.347 1118.51 619.884 1053.9 617.751 C 1054.29 626.354 1054.21 632.939 1053.92 641.571 C 1043 649.114 1032.84 655.994 1020.82 661.877 C 1013.55 657.275 1010.56 654.921 1004.01 649.254 C 1001.92 636.98 1002.9 622.536 1001.86 609.968 C 995.585 534.573 964.62 459.274 914.108 402.755 C 899.549 386.464 864.35 356.836 897.636 338.332 C 903.005 335.347 911.974 334.328 917.968 336.838 C 964.027 361.96 999.74 434.327 1021.19 477.672 z M 1053.24 569.011 C 1102.36 558.6 1142.01 547.216 1184.42 518.469 C 1243.63 478.336 1264.67 426.585 1273.42 358.485 C 1271.72 357.356 1272.53 357.472 1271.16 357.535 C 1142.32 361.871 1067.68 441.416 1050.62 565.551 C 1050.51 566.394 1050.97 567.493 1051.26 568.289 L 1053.24 569.011 z"/>
<path transform="translate(0,0)" fill="rgb(5,29,190)" d="M 1580.73 1120.17 C 1585.16 1119.91 1589.94 1120.16 1594.14 1121.72 C 1600.56 1124.1 1603.35 1128.39 1605.87 1134.47 C 1613.66 1153.21 1640.97 1272.08 1634.14 1286.7 C 1629.46 1296.73 1618.12 1301.12 1608.41 1304.71 C 1580.18 1288.68 1579.61 1255.27 1575.11 1226.1 C 1532.97 1309.96 1452.06 1403.63 1388.59 1472.82 C 1373.73 1489.01 1361.53 1504.91 1344.12 1518.88 C 1368.19 1514.26 1396.69 1507.39 1420.92 1509.08 C 1440.61 1510.46 1443.34 1529.53 1439.77 1545.24 C 1418.35 1569.14 1341.44 1566.77 1309.26 1574.74 C 1291.96 1579.02 1267.32 1580.98 1250.06 1575.52 C 1232.67 1549.72 1248.45 1484.2 1250.75 1453.76 C 1251.8 1439.8 1254.44 1422.03 1257.37 1408.28 C 1259.52 1398.18 1276.95 1394.23 1285.5 1396.67 C 1300.93 1398.72 1303.85 1408.84 1304.07 1423.54 C 1304.42 1446.59 1301.68 1473.07 1296.72 1495.82 C 1301.04 1492.05 1304.84 1488.14 1308.92 1484.21 C 1387 1408.8 1454.55 1322.25 1512.39 1230.53 C 1519.68 1218.97 1528.28 1207.28 1535.2 1195.79 C 1512.94 1208.45 1483.52 1221.66 1458.81 1227.13 C 1457.36 1226.41 1455.93 1225.69 1454.52 1224.89 C 1446.66 1220.47 1439.66 1212.61 1437.52 1203.68 C 1436.22 1198.23 1437.14 1192.94 1440.12 1188.2 C 1449.88 1172.74 1560.62 1125.31 1580.73 1120.17 z"/>
</svg>