<svg version="1.1" xmlns="http://www.w3.org/2000/svg" style="display: block;" viewBox="0 0 2048 2048" width="512" height="512" preserveAspectRatio="none">
<path transform="translate(0,0)" fill="rgb(83,142,245)" d="M 571.871 655.954 C 571.61 695.106 571.617 734.261 571.894 773.413 C 571.928 791.962 572.325 810.181 571.125 828.877 C 570.289 841.89 551.739 849.168 542.699 840.786 C 537.64 836.097 535.87 823.523 535.207 816.729 C 533.715 791.39 534.266 765.19 534.322 739.757 L 534.321 614.743 L 534.197 479.011 C 534.124 453.275 532.669 426.657 534.688 401.015 C 537.415 366.376 555.045 338.137 581.233 316.011 C 703.73 212.514 995.915 199.1 1149.56 212.799 C 1260.34 222.676 1417.57 250.764 1492.33 340.512 C 1506.94 358.059 1513.83 378.924 1516.3 401.516 C 1520.77 442.484 1516.53 483.965 1516.27 525.021 L 1516.22 751.115 L 1516.28 1133.46 L 1516.29 1258.65 C 1516.29 1279.07 1517 1304.83 1516.09 1324.9 C 1508.36 1330.44 1492.01 1347.71 1485.98 1348.91 C 1483.73 1298.42 1487.56 1254.38 1480.46 1203.6 C 1481.52 1193.89 1480.65 1164.89 1480.72 1153.05 L 1480.64 1025.32 C 1480.61 901.954 1481.93 775.921 1480.24 652.801 C 1303.67 821.023 822.345 796.93 616.458 686.955 C 602.25 679.366 584.861 666.046 571.871 655.954 z M 1075.2 573.158 C 1089.18 572.885 1103.11 571.208 1117.03 569.957 C 1210.67 561.535 1384.52 530.481 1451.66 461.107 C 1466.68 445.59 1480.87 423.742 1480.01 401.251 C 1479.22 380.721 1465.4 361.465 1450.54 348.279 C 1390.64 295.122 1272.98 264.993 1195.32 253.847 C 1155 248.06 1114.57 246.098 1073.92 244.577 C 1042.65 243.407 1010.94 242.254 979.678 243.435 C 860.094 248.916 717.065 266.107 616.842 336.367 C 538.3 391.428 570.242 452.98 641.916 493.839 C 741.803 550.781 857.211 563.854 969.987 572.426 C 1003.24 574.831 1041.52 572.761 1075.2 573.158 z M 580.284 606.281 C 598.657 644.634 664.009 674.571 703.215 688.423 C 895.207 756.257 1204.77 759.047 1391.18 669.784 C 1422.18 654.936 1464.92 629.054 1476.54 594.734 C 1484.24 572.002 1480.35 513.457 1480.51 486.877 L 1479.81 485.936 C 1358.64 592.901 1119.52 618.21 965.002 608.047 C 841.865 599.948 690.94 579.191 589.743 503.028 C 586.231 500.404 573.817 487.482 571.674 487.086 C 570.119 515.415 568.32 583.073 580.284 606.281 z"/>
<path transform="translate(0,0)" fill="rgb(252,151,20)" d="M 771.297 629.998 C 784.696 628.794 826.245 639.26 841.75 641.599 C 866.681 645.359 890.925 648.72 916.403 651.049 C 936.958 652.927 955.823 653.646 976.76 654.307 C 996.167 656.62 1029 650.334 1047.01 655.739 C 1072.91 663.515 1069.69 684.894 1047.9 695.899 C 1007.71 701.748 935.918 694.956 894.467 690.001 C 853.938 683.663 809.699 679.468 770.639 666.612 C 747.591 659.026 754.052 640.697 771.297 629.998 z"/>
<path transform="translate(0,0)" fill="rgb(252,151,20)" d="M 1422.27 569.119 C 1431.25 569.714 1434.09 573.242 1440.52 578.932 C 1442.23 584.32 1444.81 590.248 1441 595.088 C 1422.06 619.165 1367.54 641.14 1338.99 647.724 C 1328.05 645.836 1321.27 640.381 1317.67 629.57 C 1311.76 611.774 1343.65 600.75 1355.9 595.209 C 1376.58 585.861 1400.17 574.627 1422.27 569.119 z"/>
<path transform="translate(0,0)" fill="rgb(252,151,20)" d="M 608.706 562.043 C 622.674 563.388 700.749 598.561 714.996 611.275 C 717.583 613.583 719.782 620.76 718.8 625.073 C 716.828 633.738 710.838 638.356 703.879 643.209 C 684.517 643.495 549.05 589.901 608.706 562.043 z"/>
<path transform="translate(0,0)" fill="rgb(3,56,238)" d="M 572.701 1199.53 C 630.505 1102.56 780.278 1057.87 886.115 1046.3 C 894.609 1045.37 908.68 1053.91 909.755 1062.67 C 912.063 1081.49 891.419 1086.28 877.845 1088.46 C 852.381 1093.22 824.671 1096.41 799.796 1103.52 C 735.98 1121.76 656.92 1149.72 615.62 1204.17 C 580.974 1249.85 612.064 1295.84 653.115 1322.27 C 686.402 1343.71 722.747 1360.75 761.218 1371.12 C 786.656 1377.7 812.922 1381.93 838.857 1388.85 C 863.98 1362.73 891.724 1339.88 926.605 1327.94 C 935.152 1327.33 958.758 1319.21 966.695 1316 C 998.41 1306.45 1052.41 1308.11 1083.99 1315.81 C 1091.32 1319.62 1116.15 1327.52 1124.55 1328.58 C 1155.77 1347.2 1183.29 1362.23 1208.43 1389.21 C 1277.99 1369.93 1345.11 1367.87 1404.97 1319.76 C 1450.15 1283.45 1469.48 1238.43 1425.13 1190.98 C 1379.01 1141.62 1306.18 1117.53 1241.88 1102.49 C 1216.14 1096.46 1189.48 1092.51 1163.82 1086.06 C 1156.45 1084.66 1138.56 1074.49 1142.46 1064.62 C 1155 1032.82 1227.8 1058.78 1251.7 1063.64 C 1338.39 1081.25 1435.66 1122.8 1480.46 1203.6 C 1487.56 1254.38 1483.73 1298.42 1485.98 1348.91 C 1492.01 1347.71 1508.36 1330.44 1516.09 1324.9 C 1517.12 1385.22 1515.5 1445.69 1516.24 1506.18 C 1516.76 1549.61 1520.81 1596.66 1513.74 1639.86 C 1510.64 1658.79 1494.97 1682.1 1482.17 1695.66 C 1386.57 1796.85 1173.8 1826.81 1041.03 1828.79 C 900.836 1830.89 680.746 1801.45 573.718 1701.12 C 545.943 1675.08 532.988 1644.13 533.283 1606.37 C 533.742 1547.6 533.873 1488.51 534.007 1429.68 L 534.158 1370.53 C 534.194 1358.95 533.845 1340.27 535.581 1329.14 C 542.085 1335.62 561.25 1358.72 564.968 1361.54 C 567.393 1350.27 564.341 1300.01 564.388 1285.52 C 564.493 1253.05 566.615 1231.42 572.701 1199.53 z M 1455.15 1329.85 C 1378.56 1390.79 1318.93 1409.42 1222.28 1425.93 C 1175.58 1433.9 1184.43 1409.86 1150.08 1385.49 C 1081.31 1336.69 973.557 1336.78 903.125 1382.32 C 895.94 1386.97 889.525 1391.98 883.457 1397.43 C 874.101 1405.82 860.245 1425.66 846.763 1426.32 C 835.716 1426.85 814.817 1422.34 803.369 1420.2 C 720.95 1404.78 665.27 1381.52 600.558 1329.47 C 602.561 1343.14 600.567 1355.81 607.295 1368.35 C 613.176 1379.32 625.712 1389.78 635.387 1397.34 C 656.128 1413.26 678.882 1426.37 703.058 1436.32 C 734.139 1449.38 765.624 1458.26 798.269 1466.37 C 809.729 1469.12 832.181 1475.52 829.95 1491.01 C 825.306 1523.26 761.498 1497.13 743.328 1492 C 687.923 1476.35 632.562 1452.92 593.281 1409.24 C 585.575 1400.67 576.976 1392.11 570.159 1382.79 C 568.361 1397.17 579.781 1424.74 587.05 1437.33 C 625.06 1503.2 707.647 1530.27 777.327 1547.33 C 799.863 1552.84 822.582 1555.48 844.689 1560.69 C 842.468 1519.82 844.157 1453.76 873.871 1422.27 C 910.164 1383.81 974.26 1393.04 1022.09 1391.76 C 1065.76 1391.09 1133.9 1390.11 1168.04 1419.72 C 1199.15 1446.71 1201.8 1521.63 1199.94 1560.82 L 1201.42 1560.33 C 1222.12 1553.73 1251.11 1549.02 1273.15 1543.38 C 1337.49 1526.93 1428.23 1500.91 1461.47 1437.94 C 1464.93 1431.38 1473.38 1407.6 1473.7 1400.84 C 1460.61 1414.87 1438.63 1432.34 1422.72 1443.71 C 1404.74 1455.24 1380.03 1473.94 1357.64 1471.5 C 1348.03 1470.46 1338.1 1457.7 1341.55 1448.96 C 1347.31 1434.36 1377.71 1424.13 1391.3 1416.51 C 1430.39 1394.59 1443.22 1371.47 1455.15 1329.85 z M 1200.16 1594.39 C 1200.2 1722.74 1144.87 1734.93 1030.4 1734.91 L 973.061 1734.88 C 880.107 1734.31 844.913 1684.04 844.279 1594.41 C 757.719 1584.2 627.222 1545.06 568.703 1476.34 C 567.67 1495.65 568.226 1518.38 568.243 1537.94 L 568.042 1592.09 C 567.771 1630.09 567.775 1646.55 598.142 1676.07 C 689.876 1765.25 903.885 1792.71 1026.87 1793.95 C 1144.88 1795.13 1315.01 1770.72 1413.87 1705.58 C 1425.26 1698.07 1442.22 1686.29 1451.2 1676.5 C 1473.64 1652.03 1481.53 1636.38 1481.3 1604.13 C 1480.9 1575.06 1480.75 1545.98 1480.85 1516.91 C 1480.86 1511.13 1481.15 1477.78 1480.3 1474.4 L 1479.48 1473.63 C 1473.02 1483.52 1462.52 1493.28 1453.41 1500.99 C 1396.6 1549.13 1321.05 1571.45 1249.15 1585.17 C 1232.6 1588.33 1216.43 1590.83 1200.16 1594.39 z M 1080.05 1700.77 C 1105.52 1700.21 1125.23 1696.17 1143.9 1677.04 C 1170.85 1649.43 1165.55 1610.69 1166 1575.56 C 1166.31 1556.34 1166.95 1538.4 1166.57 1518.85 C 1165.85 1481.98 1156.04 1439.44 1114.12 1430.17 C 1088.96 1424.61 1061.31 1427.59 1035.61 1426.79 C 1013.15 1426.82 990.059 1426.27 967.895 1426.48 C 942.261 1427.52 917.261 1429.35 898.564 1449.28 C 892.402 1455.85 887.516 1464.38 884.844 1472.97 C 875.123 1504.22 878.76 1570.97 880.271 1605.41 C 881.383 1630.76 883.976 1663.45 904.515 1681.47 C 933.632 1707 1040.34 1700.8 1080.05 1700.77 z"/>
<path transform="translate(0,0)" fill="rgb(252,151,20)" d="M 1285.7 1459.42 C 1302.66 1455.29 1313.49 1477.85 1303.78 1489.06 C 1290.06 1504.9 1252.92 1508.06 1233.17 1510.54 C 1216.65 1510.56 1202.39 1491.77 1213.41 1480.49 C 1225.13 1468.49 1269.41 1460.63 1285.7 1459.42 z"/>
<path transform="translate(0,0)" fill="rgb(252,151,20)" d="M 572.701 1199.53 C 630.505 1102.56 780.278 1057.87 886.115 1046.3 C 894.609 1045.37 908.68 1053.91 909.755 1062.67 C 912.063 1081.49 891.419 1086.28 877.845 1088.46 C 852.381 1093.22 824.671 1096.41 799.796 1103.52 C 735.98 1121.76 656.92 1149.72 615.62 1204.17 C 580.974 1249.85 612.064 1295.84 653.115 1322.27 C 686.402 1343.71 722.747 1360.75 761.218 1371.12 C 786.656 1377.7 812.922 1381.93 838.857 1388.85 C 863.98 1362.73 891.724 1339.88 926.605 1327.94 C 935.152 1327.33 958.758 1319.21 966.695 1316 C 998.41 1306.45 1052.41 1308.11 1083.99 1315.81 C 1091.32 1319.62 1116.15 1327.52 1124.55 1328.58 C 1155.77 1347.2 1183.29 1362.23 1208.43 1389.21 C 1277.99 1369.93 1345.11 1367.87 1404.97 1319.76 C 1450.15 1283.45 1469.48 1238.43 1425.13 1190.98 C 1379.01 1141.62 1306.18 1117.53 1241.88 1102.49 C 1216.14 1096.46 1189.48 1092.51 1163.82 1086.06 C 1156.45 1084.66 1138.56 1074.49 1142.46 1064.62 C 1155 1032.82 1227.8 1058.78 1251.7 1063.64 C 1338.39 1081.25 1435.66 1122.8 1480.46 1203.6 C 1487.56 1254.38 1483.73 1298.42 1485.98 1348.91 C 1486.97 1368.58 1485.98 1372.54 1477.49 1391.09 C 1476.62 1392.98 1473.87 1398.97 1473.7 1400.84 C 1460.61 1414.87 1438.63 1432.34 1422.72 1443.71 C 1404.74 1455.24 1380.03 1473.94 1357.64 1471.5 C 1348.03 1470.46 1338.1 1457.7 1341.55 1448.96 C 1347.31 1434.36 1377.71 1424.13 1391.3 1416.51 C 1430.39 1394.59 1443.22 1371.47 1455.15 1329.85 C 1378.56 1390.79 1318.93 1409.42 1222.28 1425.93 C 1175.58 1433.9 1184.43 1409.86 1150.08 1385.49 C 1081.31 1336.69 973.557 1336.78 903.125 1382.32 C 895.94 1386.97 889.525 1391.98 883.457 1397.43 C 874.101 1405.82 860.245 1425.66 846.763 1426.32 C 835.716 1426.85 814.817 1422.34 803.369 1420.2 C 720.95 1404.78 665.27 1381.52 600.558 1329.47 C 602.561 1343.14 600.567 1355.81 607.295 1368.35 C 613.176 1379.32 625.712 1389.78 635.387 1397.34 C 656.128 1413.26 678.882 1426.37 703.058 1436.32 C 734.139 1449.38 765.624 1458.26 798.269 1466.37 C 809.729 1469.12 832.181 1475.52 829.95 1491.01 C 825.306 1523.26 761.498 1497.13 743.328 1492 C 687.923 1476.35 632.562 1452.92 593.281 1409.24 C 585.575 1400.67 576.976 1392.11 570.159 1382.79 C 567.038 1376.42 566.062 1368.53 564.968 1361.54 C 567.393 1350.27 564.341 1300.01 564.388 1285.52 C 564.493 1253.05 566.615 1231.42 572.701 1199.53 z"/>
<path transform="translate(0,0)" fill="rgb(83,142,245)" d="M 1014.47 1465.28 C 1068.34 1459.75 1116.44 1499.08 1121.73 1552.98 C 1127.01 1606.88 1087.46 1654.8 1033.54 1659.84 C 979.958 1664.85 932.409 1625.61 927.16 1572.05 C 921.911 1518.49 960.936 1470.77 1014.47 1465.28 z M 1033.44 1623.17 C 1066.68 1618.04 1089.61 1587.12 1084.85 1553.82 C 1080.09 1520.52 1049.42 1497.25 1016.07 1501.64 C 994.169 1504.52 975.502 1518.95 967.196 1539.42 C 958.89 1559.9 962.226 1583.25 975.933 1600.58 C 989.639 1617.91 1011.6 1626.54 1033.44 1623.17 z"/>
<path transform="translate(0,0)" fill="rgb(3,56,238)" d="M 951.927 1031.89 C 941.892 1018.5 931.586 1008 923.904 992.763 C 900.28 945.895 916.511 894.256 957.77 863.52 C 982.596 844.959 1013.8 837.075 1044.47 841.619 C 1115.12 852.169 1159.28 931.348 1126.97 994.624 C 1118.58 1011.07 1112.24 1017.57 1099.11 1029.85 C 1098.22 1106.17 1095.86 1186.89 1107.34 1262.53 C 1110.82 1285.46 1119.22 1306.46 1124.55 1328.58 C 1116.15 1327.52 1091.32 1319.62 1083.99 1315.81 C 1073.71 1274.38 1067.05 1223.89 1065.14 1181.24 C 1063.23 1138.59 1065.1 1094.23 1064.57 1051.6 C 1039.85 1059.29 1011.42 1061.03 986.845 1051.81 C 987.349 1122.96 991.26 1251.64 966.695 1316 C 958.758 1319.21 935.152 1327.33 926.605 1327.94 C 928.14 1317.3 933.013 1306.76 935.914 1296.36 C 940.167 1281.1 943.438 1265.7 945.855 1250.05 C 952.123 1206.75 952.611 1161.61 952.407 1117.9 C 952.276 1089.71 953.008 1059.93 951.927 1031.89 z M 1027.84 1024.27 C 1069.2 1022.92 1101.61 988.262 1100.18 946.907 C 1098.75 905.552 1064.03 873.208 1022.68 874.716 C 981.439 876.22 949.204 910.827 950.627 952.067 C 952.05 993.308 986.594 1025.61 1027.84 1024.27 z"/>
<path transform="translate(0,0)" fill="rgb(83,142,245)" d="M 535.581 1329.14 C 533.382 1313.21 534.16 1285.13 534.222 1268.14 L 534.294 1176.9 L 534.264 1017.32 C 534.256 987.113 533.977 956.577 534.714 926.392 C 535.65 918.632 535.123 903.63 539.141 896.805 C 545.626 885.787 558.311 887.981 567.059 893.629 C 574.167 909.891 571.94 958.797 571.927 978.683 L 571.826 1124.29 C 571.815 1141.46 570.757 1183.89 572.701 1199.53 C 566.615 1231.42 564.493 1253.05 564.388 1285.52 C 564.341 1300.01 567.393 1350.27 564.968 1361.54 C 561.25 1358.72 542.085 1335.62 535.581 1329.14 z"/>
</svg>