<svg version="1.1" xmlns="http://www.w3.org/2000/svg" style="display: block;" viewBox="0 0 2048 2048" width="512" height="512" preserveAspectRatio="none">
<path transform="translate(0,0)" fill="rgb(18,97,217)" d="M 1747.2 328.481 C 1786.46 327.379 1827.2 332.596 1860.51 354.839 C 1883.85 370.428 1897.92 393.216 1903.3 420.658 C 1926.41 538.552 1780.32 723.973 1704.91 807.609 C 1691.91 822.03 1679.26 836.946 1665.72 850.839 C 1652.37 864.531 1629.51 884.282 1619.79 898.982 C 1619.55 899.339 1619.33 899.702 1619.09 900.062 C 1619.92 903.433 1620.71 906.811 1621.47 910.196 C 1627.65 937.904 1630.71 974.227 1631.35 1002.2 C 1634.07 1123.81 1600.95 1243.54 1536.12 1346.47 C 1448.84 1483.02 1310.66 1579.08 1152.25 1613.31 C 1038.78 1638.01 920.598 1629.47 811.86 1588.72 C 790.219 1580.57 764.324 1570.09 744.96 1557.72 C 723.295 1566.91 694.851 1585.28 671.755 1596.23 C 554.138 1652 437.666 1703.31 306.169 1713.63 C 295.437 1713.95 284.696 1713.66 273.996 1712.77 C 236.16 1709.83 196.162 1697.13 170.907 1667.34 C 149.672 1642.28 143.237 1608.85 145.977 1576.8 C 156.237 1456.76 280.015 1293.65 358.129 1202.61 C 379.366 1177.85 404.5 1147.89 429.048 1127.13 C 425.188 1105.97 422.099 1091.84 420.124 1069.46 C 409.884 953.407 439.397 833.395 496.733 732.672 C 579.318 587.596 708.985 482.018 870.879 438.866 C 995.066 405.766 1113.12 414.096 1233.91 457.963 C 1255.06 465.643 1287 477.96 1306.31 489.062 C 1327.64 479.19 1350.54 463.563 1371.99 453.022 C 1480.68 399.591 1625.65 334.454 1747.2 328.481 z M 441.758 1594.54 C 499.576 1576.73 603.285 1538.29 654.18 1504.48 C 570.028 1430.17 501.429 1357.74 462.353 1249.87 C 460.966 1246.04 453.679 1226.91 451.758 1225.58 C 446.184 1234.09 437.275 1243.4 430.413 1251.15 C 420.631 1262.16 411.058 1273.37 401.699 1284.75 C 350.992 1346.94 247.428 1477.28 256.102 1564.14 C 257.283 1575.97 266.446 1590.53 276.98 1597.58 C 308.794 1618.85 358.964 1611.75 394.666 1605.38 C 407.353 1603.12 429.855 1598.28 441.758 1594.54 z M 1388.04 540.983 C 1437.62 574.176 1486.09 627.601 1521.15 675.843 C 1534.41 694.085 1543.82 711.695 1555.33 730.459 C 1565.6 749.882 1583.57 785.776 1592.34 805.866 C 1612.55 778.668 1635.74 753.367 1657.09 727.041 C 1700.39 673.669 1799.02 549.183 1788.67 478.361 C 1786.79 465.514 1780.45 454.594 1770.08 446.743 C 1751.24 432.469 1721.55 430.067 1698.83 431.451 C 1674.99 432.991 1648.49 438.703 1625.3 444.398 C 1541.92 464.819 1461.98 497.361 1388.04 540.983 z M 1005.22 444.873 C 988.593 444.842 961.711 447.624 944.854 449.7 C 823.318 464.33 710.329 519.72 624.325 606.831 C 510.35 720.383 446.186 874.583 445.963 1035.47 C 445.078 1182.87 503.68 1324.39 608.509 1428.02 C 616.906 1436.41 644.287 1464.29 652.964 1468.67 C 637.69 1444.66 611.387 1418 595.583 1394.18 C 537.43 1306.5 498.065 1212.28 487.205 1107.45 C 470.369 948.288 517.29 788.941 617.693 664.303 C 721.989 536.22 853.238 465.032 1017.28 447.885 C 1023.98 448.099 1026.53 447.623 1033.12 446.601 C 1027.51 444.021 1011.61 444.335 1005.22 444.873 z M 661.543 1571.03 C 675.354 1564.19 701.418 1550.31 714.445 1545.28 C 703.366 1537.56 691.827 1529.88 680.869 1522.13 C 656.348 1532.76 633.274 1546.5 609.002 1557.68 C 529.867 1594.13 365.08 1662.7 280.375 1629.26 C 261.258 1621.72 246.573 1608.68 238.446 1589.6 C 222.223 1551.53 234.857 1506.86 249.771 1470.45 C 280.62 1395.15 330.803 1327.2 382.263 1264.85 C 395.282 1249.08 409.016 1234.05 423.011 1219.15 C 426.48 1215.45 442.005 1201.46 442.97 1197.93 C 444.832 1191.11 437.451 1166.67 435.161 1158.95 L 433.544 1157.65 C 342.845 1254.63 165.808 1461.28 170.721 1596.52 C 171.556 1619.52 179.262 1642.65 196.679 1658.5 C 226.396 1685.53 270.141 1688.9 308.409 1686.88 C 423.119 1680.81 559.013 1621.74 661.543 1571.03 z M 1331.2 502.028 C 1338.41 505.851 1360.64 519.79 1366.44 524.878 C 1464.91 470.301 1597.14 407 1712.01 405.737 C 1831.96 404.419 1829.74 503.184 1785.45 588.705 C 1748.33 659.025 1705.8 711.27 1653.06 770.329 C 1635.4 790.106 1618.46 813.296 1601.08 832.659 C 1603.38 843.061 1608.74 864.725 1609.64 874.451 C 1637.39 842.039 1667.07 811.339 1694.9 778.977 C 1763.12 699.657 1888.15 544.008 1879.99 436.036 C 1878.35 414.39 1869.09 394.614 1852.43 380.556 C 1825.21 357.591 1786.04 352.914 1751.79 353.443 C 1732.19 354.441 1714.21 357.6 1694.94 361.159 C 1604.64 377.836 1516.13 411.196 1433.73 451.278 C 1414.46 460.715 1395.33 470.444 1376.35 480.463 C 1363.15 487.335 1345.08 497.179 1331.2 502.028 z"/>
<path transform="translate(0,0)" fill="rgb(102,168,240)" d="M 1033.12 446.601 C 1058.42 442.612 1087.8 445.382 1113.29 449.665 C 1204.85 465.053 1298.56 505.959 1373.77 560.211 C 1426.83 598.478 1483.05 658.983 1518.71 714.062 C 1538.53 744.68 1559.95 793.286 1574.14 827.036 C 1556.7 846.375 1538.98 861.907 1519.91 879.555 C 1496.39 901.631 1472.65 923.47 1448.69 945.07 C 1268.37 1109.78 1073.49 1257.79 866.431 1387.29 C 820.14 1416.45 772.774 1443.87 724.432 1469.49 C 711.804 1476.3 692.282 1488.15 680.5 1493.64 C 674.283 1488.59 668.529 1483.82 662.688 1478.31 C 660.578 1476.31 654.826 1469.97 652.964 1468.67 C 637.69 1444.66 611.387 1418 595.583 1394.18 C 537.43 1306.5 498.065 1212.28 487.205 1107.45 C 470.369 948.288 517.29 788.941 617.693 664.303 C 721.989 536.22 853.238 465.032 1017.28 447.885 C 1023.98 448.099 1026.53 447.623 1033.12 446.601 z"/>
<path transform="translate(0,0)" fill="rgb(251,176,71)" d="M 1545.54 970.901 C 1558.37 957.085 1585.59 927.839 1600.55 917.857 C 1625.23 1076.76 1586.02 1238.97 1491.47 1369.04 C 1399.51 1492.91 1261.94 1574.99 1109.26 1597.07 C 1060.34 1604.33 1015.08 1605.19 965.928 1600.39 C 949.895 1598.83 928.229 1596.9 912.958 1592.01 C 893.079 1588.6 872.851 1584.55 853.881 1577.65 C 824.345 1566.91 797.037 1554.7 766.942 1545.08 C 777.979 1536.19 792.482 1528.38 804.926 1521.18 L 856.338 1491.48 C 901.988 1464.9 946.938 1437.13 991.143 1408.21 C 1118.66 1323.66 1241.41 1232.13 1358.83 1134.04 C 1418.59 1084.99 1490.81 1025.77 1545.54 970.901 z"/>
<path transform="translate(0,0)" fill="rgb(248,149,21)" d="M 1545.54 970.901 C 1558.37 957.085 1585.59 927.839 1600.55 917.857 C 1625.23 1076.76 1586.02 1238.97 1491.47 1369.04 C 1399.51 1492.91 1261.94 1574.99 1109.26 1597.07 C 1060.34 1604.33 1015.08 1605.19 965.928 1600.39 C 949.895 1598.83 928.229 1596.9 912.958 1592.01 C 913.548 1590.78 914.326 1589.4 915.973 1589.29 C 1048.38 1580.46 1171.52 1548.1 1283.85 1473.24 C 1414.35 1387.88 1504.87 1253.45 1534.89 1100.43 C 1538.51 1082.27 1553.2 982.407 1545.54 970.901 z"/>
<path transform="translate(0,0)" fill="rgb(251,176,71)" d="M 1541.84 895.165 C 1542.75 905.811 1541.2 930.857 1546.37 937.012 C 1524.76 956.218 1504.07 976.151 1482.62 995.465 C 1446.66 1027.5 1410.26 1059.03 1373.43 1090.05 C 1175.71 1258.58 961.539 1406.8 734.15 1532.45 C 724.065 1524.76 712.052 1517.33 701.314 1510.35 C 714.556 1504.56 732.209 1494.69 745.179 1487.67 C 776.459 1470.56 807.411 1452.85 838.02 1434.57 C 1026.53 1320.4 1205.24 1190.79 1372.33 1047.08 C 1406.18 1018.18 1439.57 988.753 1472.5 958.806 C 1497.06 936.179 1515.55 916.557 1541.84 895.165 z"/>
<path transform="translate(0,0)" fill="rgb(248,149,21)" d="M 1541.84 895.165 C 1555.63 879.826 1566.65 866.962 1582.54 853.527 C 1584.75 868.072 1587.2 880.429 1592.08 894.362 C 1577.52 907.832 1560.88 924.368 1546.37 937.012 C 1541.2 930.857 1542.75 905.811 1541.84 895.165 z"/>
<path transform="translate(0,0)" fill="rgb(18,97,217)" fill-opacity="0.160784" d="M 1005.22 444.873 C 1011.61 444.335 1027.51 444.021 1033.12 446.601 C 1026.53 447.623 1023.98 448.099 1017.28 447.885 C 1014.3 445.605 1009.08 445.378 1005.22 444.873 z"/>
</svg>