<svg version="1.1" xmlns="http://www.w3.org/2000/svg" style="display: block;" viewBox="0 0 2048 2048" width="512" height="512" preserveAspectRatio="none">
<path transform="translate(0,0)" fill="rgb(15,52,159)" d="M 1438.07 633.389 C 1653.32 626.487 1833.44 795.32 1840.46 1010.56 C 1847.48 1225.81 1678.75 1406.02 1463.51 1413.16 C 1248.1 1420.31 1067.71 1251.42 1060.68 1036 C 1053.66 820.589 1222.65 640.296 1438.07 633.389 z"/>
<path transform="translate(0,0)" fill="rgb(244,131,3)" d="M 1710.34 791.991 C 1710.83 791.947 1712.75 792.252 1713.33 792.329 C 1729.95 804.341 1760.24 853.687 1769.5 873.419 C 1749.78 926.291 1720.29 972.483 1684.56 1016.04 C 1594.86 1125.17 1472.48 1202.59 1335.45 1236.88 C 1285.49 1249.62 1247.73 1254.74 1197.29 1259.75 C 1191.21 1254.6 1187.8 1250.83 1182.38 1244.88 C 1135.22 1187.3 1123.98 1155.76 1107.35 1085.17 C 1120.29 1080.09 1142.6 1068.18 1155.95 1061.69 L 1247.28 1017.65 L 1518.25 884.759 C 1581.99 853.137 1645.08 820.489 1710.34 791.991 z"/>
<path transform="translate(0,0)" fill="rgb(242,177,82)" d="M 1443.07 676.435 C 1531.09 670.63 1609.72 708.539 1678.86 758.533 C 1642.15 777.808 1601.43 796.302 1564.13 814.972 C 1463.56 865.306 1360.66 913.269 1260.47 964.122 C 1226.37 981.247 1192.08 997.971 1157.59 1014.29 C 1139.03 1023.23 1120.33 1032.9 1101.74 1041.53 C 1102.5 949.049 1126.16 866.191 1188.53 795.099 C 1251.24 723.623 1348.68 681.769 1443.07 676.435 z"/>
<path transform="translate(0,0)" fill="rgb(198,94,6)" d="M 1788.8 935.47 C 1793.83 937.941 1796.47 966.797 1797.47 973.565 C 1807.24 1039.37 1797.83 1105.55 1769.16 1165.65 C 1727.11 1251.69 1652.89 1317.73 1562.55 1349.49 C 1469.22 1382.49 1378.66 1375.34 1289.92 1333.09 C 1268.76 1322.2 1254.14 1312.55 1235.09 1298.69 C 1262.62 1296.67 1296.78 1290.74 1323.63 1284.59 C 1490.02 1244.75 1637.49 1148.55 1741.01 1012.33 C 1763.19 982.759 1770.49 964.721 1788.8 935.47 z"/>
<path transform="translate(0,0)" fill="rgb(15,52,159)" d="M 1025.35 1305.06 C 1031.13 1304.3 1037 1305.1 1042.36 1307.36 C 1053.56 1312.09 1068.86 1331.48 1077.63 1340.35 C 1088.66 1352.82 1103.35 1365.02 1114.07 1377.45 C 1127.9 1393.49 1158.92 1415.78 1166.23 1434.35 C 1162.99 1449.78 1146.65 1466.13 1135.75 1477.1 C 1113.74 1499.17 1092.1 1520.96 1069.91 1542.94 C 1061.09 1551.68 1033.19 1575.45 1020.41 1563.38 C 1011.31 1554.77 1014.89 1539.98 1021.95 1530.69 C 1035.75 1512.55 1053.05 1497.63 1069.29 1481.74 C 1079.13 1472.14 1088.76 1462.07 1098.94 1452.91 C 1086.54 1455.82 1047.86 1454.37 1033.45 1454.3 L 928.979 1454.23 L 463.5 1454.24 L 316.502 1454.41 C 288.487 1454.54 260.228 1455.35 232.266 1453.54 C 221.618 1452.85 200.035 1447.25 201.615 1432.93 C 204.464 1407.13 238.84 1411.93 257.444 1411.94 L 316.695 1411.95 L 508 1411.92 L 1089.35 1411.85 C 1065.78 1391.03 1038.76 1369.46 1021.2 1343.32 C 1011.53 1328.92 1008.71 1314.88 1025.35 1305.06 z"/>
<path transform="translate(0,0)" fill="rgb(15,52,159)" d="M 595.374 460.114 C 610.849 459.031 655.897 489.192 670.69 498.046 L 768.782 556.685 C 853.246 607.207 943.373 659.215 1026.34 711.485 C 1024.74 707.974 1023.24 704.418 1021.84 700.821 C 1014.13 681.132 988.565 631.245 1017.5 620.46 C 1028.18 616.48 1041.91 632.162 1045.22 641.039 C 1060.15 681.034 1074.45 722.848 1086.28 763.866 C 1079.92 782.974 1069.45 783.316 1051.77 787.164 C 1015.72 790.984 975.613 805.018 939.091 809.592 C 921.308 811.819 907.9 813.99 904.39 791.115 C 902.125 776.352 917.163 771.909 928.251 768.345 C 953.582 762.143 984.103 755.037 1009.9 752.257 C 993.454 741.1 974.244 730.83 956.898 720.823 C 939.938 710.828 923.057 700.699 906.257 690.437 L 682.537 555.606 L 628.369 523.115 C 616.01 515.794 586.99 501.107 579.442 489.367 C 571.783 477.455 584.091 465.69 595.374 460.114 z"/>
</svg>