<svg version="1.1" xmlns="http://www.w3.org/2000/svg" style="display: block;" viewBox="0 0 2048 2048" width="512" height="512" preserveAspectRatio="none">
<path transform="translate(0,0)" fill="rgb(4,33,146)" d="M 823.407 1129.95 C 831.668 1128.49 857.226 1129.13 867.154 1129.17 L 947.086 1129.26 L 1123.12 1129.21 C 1157.78 1129.21 1196.36 1127.99 1229.98 1131.97 C 1293.4 1139.48 1360.58 1203.19 1368.82 1267.14 C 1375.84 1321.57 1369.5 1386.31 1371.7 1441.83 C 1372.48 1461.53 1365.99 1492.96 1373.29 1510.5 C 1375.69 1511.87 1379.71 1514.16 1382.38 1514.44 C 1402.3 1516.56 1424.79 1515.77 1444.92 1515.78 L 1536.21 1515.54 C 1559.42 1515.28 1583.2 1514.39 1606.32 1515.05 C 1606.57 1530.81 1606.33 1544.05 1606.12 1559.63 C 1595.38 1560.71 1581.75 1560.38 1570.82 1560.37 C 1508.23 1560.35 1445.53 1559.79 1382.95 1559.6 C 1319.74 1559.41 1325.98 1504.08 1326.08 1458.68 L 1326.29 1359.07 C 1326.39 1306.95 1330.96 1256.16 1293.22 1214.18 C 1276.22 1195.21 1253.76 1181.96 1228.93 1176.28 C 1205.85 1171.06 1148.9 1173.33 1121.81 1173.34 L 919.892 1173.29 L 864.398 1173.37 C 852.997 1173.49 838.902 1174.13 827.872 1173.52 L 826.631 1173.44 C 826.484 1156.73 826.261 1146.67 823.407 1129.95 z"/>
<path transform="translate(0,0)" fill="rgb(64,118,235)" d="M 276.993 850.699 C 272.428 848.839 267.691 846.513 263.719 843.558 C 260.13 840.889 257.589 837.823 256.973 833.29 C 255.343 821.292 262.782 809.438 269.813 800.308 C 284.734 780.935 303.724 766.983 321.265 750.371 C 331.291 740.875 339.976 729.706 350.95 721.263 C 355.785 717.542 362.078 713.462 368.298 712.867 C 376.493 712.082 383.339 717.746 389.131 722.779 C 406.898 738.215 483.866 808.951 484.618 828.098 C 484.88 834.774 480.874 842.366 476.179 847.002 C 473.868 849.284 470.784 850.339 467.565 850.225 C 444.487 849.408 407.664 804.276 392.489 786.905 C 394.878 798.982 394.053 839.414 394.052 854.11 L 394.037 983.674 L 394.049 1159.42 C 394.052 1181.71 395.326 1228.6 393.483 1249.04 C 412.083 1248.11 435.041 1248.71 453.898 1248.71 L 567.578 1248.82 C 579.262 1248.82 634.319 1247.64 641.024 1249.07 C 629.033 1271.02 634.835 1274.27 650.122 1291.36 C 639.135 1293.19 616.901 1292.08 605.228 1292.08 L 525.57 1292.08 L 435.55 1292.19 C 414.318 1292.17 392.342 1292.74 371.33 1290.08 C 357.403 1288.33 349.24 1282.16 348.573 1267.93 C 347.653 1248.29 348.397 1228.97 348.588 1209.36 L 348.699 1121.56 L 348.452 788.762 C 323.39 811.013 308.479 835.764 276.993 850.699 z"/>
<path transform="translate(0,0)" fill="rgb(64,118,235)" d="M 1399.32 752.257 C 1411.86 749.802 1435.82 750.34 1449.34 750.352 L 1516.5 750.343 L 1609.99 750.322 C 1629.67 750.323 1649.75 749.952 1669.43 751.33 C 1682.13 752.219 1699.6 757.474 1701.61 772.332 C 1703.43 785.795 1702.27 800.16 1702.1 813.744 C 1701.44 849.735 1701.67 885.73 1701.69 921.726 L 1701.74 1129.79 C 1701.77 1164.9 1703.64 1213.92 1700.47 1247.45 C 1713.64 1231.32 1755.03 1187.95 1772.75 1180.44 L 1774.14 1180.86 C 1782.07 1183.3 1789.68 1187.34 1793.63 1195.06 C 1795.59 1198.89 1796.54 1204.24 1795.22 1208.42 C 1790.66 1222.9 1703.49 1312.14 1689.75 1318.16 C 1684.31 1320.55 1675.71 1320.87 1670.29 1318.28 C 1666.17 1316.31 1662.48 1313.37 1659.07 1310.36 C 1643.38 1296.49 1629.16 1280.38 1614.39 1265.51 C 1601.35 1252.38 1586.81 1239.85 1575.15 1225.49 C 1571.16 1220.57 1567.38 1214.98 1565.52 1208.88 C 1563.98 1203.79 1563.91 1198.31 1566.46 1193.53 C 1569.21 1188.36 1574.56 1183.94 1580.23 1182.41 C 1586.24 1180.8 1592.08 1182.83 1597.16 1186.06 C 1611.42 1195.15 1648.17 1240.97 1656.11 1243.04 C 1657.16 1240.91 1656.52 1182.22 1656.52 1175.04 L 1656.58 926.415 C 1656.56 885.527 1655.12 833.733 1656.85 793.7 C 1607.03 794.756 1555.15 794.023 1505.18 794.127 C 1479.16 794.181 1435.77 795.487 1411.3 793.662 C 1420.64 772.049 1413.78 767.971 1399.32 752.257 z"/>
<path transform="translate(0,0)" fill="rgb(4,33,146)" d="M 462.646 481.769 C 471.829 480.684 485.215 481.127 494.723 481.156 L 543.924 481.219 L 614.825 481.195 C 639.962 481.207 675.653 478.574 697.463 493.124 C 709.265 500.997 713.606 515.26 714.849 528.55 C 716.913 549.746 716.394 572.643 716.414 594.064 C 716.182 632.66 716.233 671.257 716.566 709.852 C 716.882 730.319 716.545 757.622 722.053 776.959 C 729.62 802.846 745.02 825.753 766.137 842.532 C 783.728 856.647 804.513 866.232 826.67 870.448 C 845.438 873.854 868.647 873.02 888.071 872.981 L 960.694 872.926 L 1224.19 872.767 C 1224.05 888.257 1223.83 900.887 1228.13 916.077 C 1220.79 916.961 1193.09 916.121 1183.68 916.09 L 1088.67 916.063 L 921.575 916.13 C 887.993 916.13 851.716 917.268 818.568 913.482 C 797.899 911.121 775.844 902.062 758.523 890.832 C 677.459 838.277 673.518 779.452 673.336 693.343 L 673.312 594.301 C 673.36 576.156 675.168 544.172 670.983 527.42 C 645.168 523.373 614.607 524.099 588.242 524.168 L 507.756 524.213 C 496.8 524.262 472.636 525.346 462.815 524.395 C 462.509 510.188 462.452 495.978 462.646 481.769 z"/>
<path transform="translate(0,0)" fill="rgb(6,45,196)" d="M 826.348 1253.31 C 846.939 1252.11 874.103 1252.93 895.098 1252.95 L 1019.78 1252.97 L 1113.58 1252.94 C 1149.65 1252.94 1197.67 1248.65 1226.76 1273.86 C 1246.42 1290.9 1245.07 1318.18 1246.49 1341.67 C 1250.64 1409.95 1228.84 1560.26 1286.06 1608.48 C 1278.6 1614.24 1276.05 1633.84 1277.97 1642.99 C 1275.44 1646.9 1274.84 1648.08 1271.53 1651.21 C 1234.88 1628.13 1206.45 1583.27 1202.98 1539.96 C 1201.32 1519.27 1201.64 1497.85 1201.49 1477.03 C 1201.07 1446.38 1201.32 1415.72 1202.22 1385.08 C 1202.76 1367.03 1204.26 1347.75 1202.86 1329.84 C 1199.8 1290.77 1159.47 1297.81 1131.35 1298.25 C 1112.46 1298.52 1093.56 1298.59 1074.66 1298.48 C 993.13 1298.44 907.649 1299.84 826.46 1298.39 C 825.736 1283 826.057 1268.74 826.348 1253.31 z"/>
<path transform="translate(0,0)" fill="rgb(249,109,0)" d="M 641.024 1249.07 C 647.465 1245.5 667.53 1230.07 674.582 1224.78 C 701.248 1205.12 727.579 1185.01 753.564 1164.46 C 766.98 1154.02 780.166 1142.38 794.312 1133.06 C 805.193 1125.88 811.641 1127.07 823.407 1129.95 C 826.261 1146.67 826.484 1156.73 826.631 1173.44 C 827.036 1199.98 825.835 1227.82 826.348 1253.31 C 826.057 1268.74 825.736 1283 826.46 1298.39 C 827.102 1334.03 843.007 1387.89 804.252 1407.88 C 794.887 1403.12 786.688 1397.58 778.504 1391.01 C 744.152 1363.47 708.388 1337.66 674.55 1309.5 C 666.748 1303 658.992 1296.33 650.122 1291.36 C 634.835 1274.27 629.033 1271.02 641.024 1249.07 z M 694.04 1266.04 C 708.057 1275.42 720.281 1285.38 733.512 1295.77 C 742.518 1303.78 751.65 1309.62 761.278 1316.8 C 767.647 1321.54 773.523 1326.65 780.018 1331.36 L 779.82 1245.62 C 779.816 1235.72 780.468 1214.02 779.637 1205.32 L 777.974 1204.83 C 762.944 1214.63 748.257 1224.94 733.939 1235.76 C 721.071 1245.62 707.358 1257.21 694.04 1266.04 z"/>
<path transform="translate(0,0)" fill="rgb(249,109,0)" d="M 1224.22 745.599 C 1224.63 728.695 1220.33 663.682 1230.01 653.738 C 1234.83 648.796 1243 647.046 1249.65 647.241 C 1257.04 647.458 1263.49 652.173 1269.55 656.047 C 1298.89 674.786 1326.06 698.532 1353.85 719.561 C 1363.44 726.884 1373.17 734.005 1383.05 740.921 C 1386.38 743.267 1396.79 750.095 1399.32 752.257 C 1413.78 767.971 1420.64 772.049 1411.3 793.662 C 1376.7 825.613 1336.39 852.883 1298.95 881.462 C 1283.77 893.05 1268.21 905.433 1252.2 915.741 C 1244.29 920.84 1236.66 918.179 1228.13 916.077 C 1223.83 900.887 1224.05 888.257 1224.19 872.767 C 1225.16 853.457 1225.11 810.45 1224.28 791.167 L 1224.22 745.599 z M 1270.51 849.745 C 1279.23 840.692 1306.03 815.862 1316.46 809.567 C 1330.62 799.453 1344.11 789.008 1358.55 778.873 C 1349.68 774.473 1345.11 769.579 1337.57 764.084 C 1320.55 751.686 1289.17 723.35 1271.05 715.561 C 1272.34 723.863 1272.24 763.432 1271.94 774.1 C 1271.44 791.935 1273.33 834.058 1270.51 849.745 z"/>
<path transform="translate(0,0)" fill="rgb(6,45,196)" d="M 823.738 452.889 C 844.47 490.909 841.898 551.323 840.895 593.602 C 840.475 611.288 842.791 629.14 841.956 646.931 C 840.838 670.778 837.698 720.646 844.376 743.055 C 885.2 747.702 941.801 745.988 983.489 745.59 L 1147.54 745.348 C 1167.12 745.352 1206.07 744.056 1224.22 745.599 L 1224.28 791.167 C 1195.49 790.257 1163.19 790.996 1134.14 790.996 L 964.302 791.011 C 928.349 791.033 892.335 792.272 856.456 789.966 C 790.159 785.705 796.137 746.19 796.584 695.22 L 797.27 618.175 C 797.795 580.339 799.808 518.886 788.209 483.923 C 798.476 481.581 803.963 497.565 814.161 491.564 C 818.88 483.77 816.931 472.642 818.098 463.548 C 819.063 456.024 818.442 457.454 823.738 452.889 z"/>
<path transform="translate(0,0)" fill="rgb(249,109,0)" d="M 1606.32 1515.05 C 1607.42 1490.33 1612.43 1452.13 1645.64 1475.64 C 1684.95 1503.46 1723.65 1533.12 1761.39 1563.07 C 1769.09 1568.52 1775.51 1575.59 1782.31 1581.65 C 1798.5 1596.11 1785.04 1613.29 1770.99 1623.32 C 1727.42 1654.45 1686.04 1689.84 1641.96 1720.11 C 1611.35 1741.13 1605.69 1712.75 1606.23 1687.81 C 1607.11 1671.61 1606.92 1658.09 1606.24 1641.99 C 1605.68 1614.54 1605.64 1587.08 1606.12 1559.63 C 1606.33 1544.05 1606.57 1530.81 1606.32 1515.05 z M 1653.42 1653.76 C 1666.54 1643.46 1682.19 1632.62 1694.69 1622.1 C 1703.71 1615.57 1720.1 1602.55 1728.7 1597.57 C 1705.34 1582.42 1680.94 1556.7 1654.78 1539.86 C 1655.2 1561.41 1655.42 1582.96 1655.43 1604.5 C 1655.48 1618.86 1656.31 1640.45 1653.42 1653.76 z"/>
<path transform="translate(0,0)" fill="rgb(249,109,0)" d="M 462.815 524.395 C 463.533 537.921 465.213 578.227 437.459 566.033 C 410.698 550.772 386.228 531.68 361.311 512.492 C 336.4 491.406 298.982 476.575 282.569 447.683 C 272.535 430.02 315.493 401.699 328.002 392.495 C 361.032 368.192 401.019 331.475 438.57 315.924 C 449.395 319.198 451.301 320.345 459.824 327.768 C 464.052 340.17 463.254 347.129 462.454 360.046 C 462.196 375.302 461.892 389.352 462.699 404.565 C 463.391 419.518 463.622 434.489 463.39 449.456 C 463.22 459.733 462.371 471.72 462.646 481.769 C 462.452 495.978 462.509 510.188 462.815 524.395 z M 341.978 442.197 C 351.882 450.271 365.423 458.313 376.492 466.711 C 390.76 476.007 402.432 486.001 416.063 494.997 C 415.924 471.542 415.923 448.086 416.06 424.63 C 416.072 417.159 416.403 394.457 415.254 388.594 L 413.954 387.718 C 402.757 396.776 390.799 404.981 379.439 413.833 C 366.729 423.737 355.165 432.943 341.978 442.197 z"/>
<path transform="translate(0,0)" fill="rgb(4,33,146)" d="M 462.454 360.046 C 504.794 359.679 547.135 359.582 589.476 359.754 C 663.998 359.766 737.714 349.871 792.896 409.445 C 804.621 422.103 817.921 436.216 823.738 452.889 C 818.442 457.454 819.063 456.024 818.098 463.548 C 816.931 472.642 818.88 483.77 814.161 491.564 C 803.963 497.565 798.476 481.581 788.209 483.923 C 751.876 385.528 650.863 406.801 566.499 404.13 C 533.702 403.092 495.428 403.27 462.699 404.565 C 461.892 389.352 462.196 375.302 462.454 360.046 z"/>
<path transform="translate(0,0)" fill="rgb(4,33,146)" d="M 1286.06 1608.48 C 1300.95 1619.83 1318.08 1629.78 1336.49 1633.74 C 1393.1 1645.9 1461.48 1642.66 1519.45 1642.58 C 1539.25 1642.61 1559.04 1642.43 1578.82 1642.02 C 1586.77 1641.93 1598.77 1642.65 1606.24 1641.99 C 1606.92 1658.09 1607.11 1671.61 1606.23 1687.81 C 1593.38 1688.61 1576.17 1688.16 1563.06 1688.15 L 1487.06 1688.12 L 1421.27 1688.19 C 1398.85 1688.21 1378.16 1688.83 1355.94 1685.24 C 1333.52 1681.61 1301.37 1671.76 1282.75 1658.43 C 1278.74 1656.66 1275.13 1653.78 1271.53 1651.21 C 1274.84 1648.08 1275.44 1646.9 1277.97 1642.99 C 1276.05 1633.84 1278.6 1614.24 1286.06 1608.48 z"/>
<path transform="translate(0,0)" fill="rgb(2,41,173)" d="M 1277.97 1642.99 C 1280.4 1645.38 1282.47 1646.78 1283.1 1650.03 C 1282.03 1652.42 1281.48 1652.54 1279.46 1654.32 L 1282.71 1656.56 C 1282.75 1657.18 1282.97 1657.85 1282.75 1658.43 C 1278.74 1656.66 1275.13 1653.78 1271.53 1651.21 C 1274.84 1648.08 1275.44 1646.9 1277.97 1642.99 z"/>
</svg>