<svg version="1.1" xmlns="http://www.w3.org/2000/svg" style="display: block;" viewBox="0 0 2048 2048" width="512" height="512" preserveAspectRatio="none">
<path transform="translate(0,0)" fill="rgb(1,57,196)" d="M 801.373 801.264 C 820.773 803.329 849.013 828.76 865.303 840.648 L 967.271 915.308 C 994.744 934.914 1022.03 954.783 1049.12 974.913 C 1061.91 984.471 1075.22 994.002 1087.26 1004.52 C 1092.23 1008.87 1097.56 1015.34 1098.77 1021.97 C 1099.61 1026.55 1097.74 1032.79 1094.98 1036.48 C 1058.16 1069.04 1016.25 1097.33 976.903 1126.51 L 883.323 1195.85 C 864.049 1210.24 844.408 1224.98 824.887 1238.98 C 775.895 1274.13 785.957 1174.57 786.299 1151.24 C 770.639 1152.37 745.413 1151.62 729.046 1151.63 L 622.5 1151.65 L 398 1151.64 C 342.112 1151.73 290.691 1153.18 234.704 1149.59 C 230.834 1113.78 232.731 1059.1 232.748 1021.73 L 232.601 956.988 C 232.535 943.294 232.253 929.795 232.848 916.084 C 233.537 900.197 237.443 894.93 253.847 894.729 C 275.815 894.459 297.749 896.003 319.733 895.965 L 528.563 895.928 L 700.246 896.02 C 726.199 896.085 761.567 894.996 786.338 896.652 C 784.184 873.376 779.243 815.02 801.373 801.264 z M 827.183 938.038 C 811.872 940.696 784.438 940.718 768.565 940.972 C 727.449 941.632 685.93 940.295 644.831 940.26 L 277.135 940.222 C 278.988 959.628 277.874 991.951 277.399 1012.04 L 289.467 1012.2 L 995.743 1012.79 C 1003.17 1011.96 1017.66 1012.17 1025.61 1012.04 C 1012.2 1001.08 994.384 989.114 980.057 978.892 L 893.597 916.757 C 874.115 902.744 850.798 886.647 832.705 871.269 C 834.068 896.769 834.749 913.479 827.183 938.038 z M 859.945 1157.42 C 846.663 1162.08 839.641 1154.91 833.42 1143.84 C 832.4 1152.14 832.977 1168.28 832.523 1177.56 C 837.615 1174.96 858.932 1162.33 859.945 1157.42 z"/>
<path transform="translate(0,0)" fill="rgb(203,200,201)" d="M 289.467 1012.2 L 995.743 1012.79 C 1019.99 1013.27 1024.49 1009.2 1043.6 1024.5 L 930.781 1109.32 C 917.804 1118.96 873.404 1152.12 859.945 1157.42 C 846.663 1162.08 839.641 1154.91 833.42 1143.84 C 827.836 1142.43 834.003 1118.32 826.492 1111.81 C 822.803 1107.87 816.507 1107.31 811.271 1107.22 C 789.724 1106.82 767.989 1107.35 746.433 1107.4 L 618.034 1107.47 C 505.253 1107.46 388.876 1105.97 276.431 1107.73 C 278.045 1081.08 276.742 1041.01 276.958 1012.78 C 281.232 1012.79 285.213 1012.48 289.467 1012.2 z"/>
<path transform="translate(0,0)" fill="rgb(252,122,11)" d="M 1178.26 626.85 C 1202.31 618.086 1228.38 609.902 1252.95 602.377 C 1271.4 596.726 1307.21 583.156 1325.38 581.052 C 1341.71 587.641 1345.09 594.927 1347.76 611.577 C 1338.71 629.845 1312.23 635.91 1293.87 641.311 C 1273.78 647.221 1252.64 653.52 1232.16 657.67 C 1244.34 666.343 1266.91 682.766 1278.15 692.885 C 1352.86 759.706 1402.41 850.109 1418.56 949.031 C 1437.63 1061.92 1411.46 1177.78 1345.71 1271.5 C 1325.11 1300.26 1300.61 1326.01 1272.92 1348.03 C 1259.69 1358.68 1245.62 1368.48 1232.55 1379.23 C 1252.67 1383.4 1281.03 1390.56 1299.89 1393.67 L 1319.6 1400.24 C 1328.75 1403.94 1342.28 1408.36 1346.77 1417.85 C 1349.43 1423.49 1348.15 1430.51 1345.92 1436.07 C 1344.07 1440.7 1340.65 1445.65 1335.82 1447.53 C 1321.16 1453.25 1205.31 1421.08 1182.21 1414.9 C 1156.22 1396.4 1149.66 1412.9 1154.45 1371.96 C 1160.1 1351.42 1169.31 1214.61 1216.7 1260.96 C 1228.03 1272.04 1209.83 1328.6 1206.23 1345.05 C 1217.33 1336.64 1227.56 1326.56 1238.64 1317.84 C 1267.8 1294.91 1291.97 1266.77 1312.49 1235.89 C 1370.33 1147.88 1390.8 1040.48 1369.36 937.365 C 1351.89 852.024 1304.82 774.773 1237.22 720.657 C 1226.03 711.698 1220.93 706.113 1208.28 697.726 C 1212.76 716.734 1230.19 759.908 1219.19 775.834 C 1175.88 838.564 1159.6 691.168 1154.88 668.452 C 1151.06 638.355 1153.88 641.551 1178.26 626.85 z"/>
<path transform="translate(0,0)" fill="rgb(1,57,196)" d="M 1299.89 1393.67 C 1294.56 1386.17 1290.55 1381.55 1295.8 1372.23 C 1305.81 1354.42 1323.27 1341.09 1336.53 1325.75 C 1348.49 1311.95 1359.8 1297.59 1370.4 1282.72 C 1492.45 1108.93 1481.61 855.995 1326.96 704.785 C 1319.75 697.736 1311.26 691.902 1304.31 684.507 C 1289.55 668.784 1301.11 652.233 1319.98 650.071 C 1330.14 648.918 1339.59 655.939 1346.76 662.555 C 1359.26 674.085 1371.19 686.905 1382.65 699.473 C 1462.88 787.918 1490.89 892.117 1498.4 1008.73 C 1497.02 1017.18 1497.38 1030.31 1498.37 1038.91 C 1494.1 1072.48 1492.22 1106.07 1483.91 1139.06 C 1465.68 1211.36 1400.19 1339.36 1340.95 1385.22 C 1334.09 1390.54 1326.29 1394.82 1319.6 1400.24 L 1299.89 1393.67 z"/>
<path transform="translate(0,0)" fill="rgb(252,122,11)" d="M 1741 1003.59 C 1723.09 988.744 1652.44 931.768 1707.18 918.801 C 1718.29 916.168 1738.12 936.443 1746.08 943.68 C 1771.28 966.585 1805.89 994.02 1813.74 1028.53 C 1815.04 1034.27 1792.76 1056.19 1788.37 1060.67 C 1775.24 1072.67 1721.6 1136.06 1705.12 1131.79 C 1649.96 1117.51 1720.98 1061.92 1740.31 1047.81 C 1703.16 1050.41 1659.92 1047.6 1622.15 1048.39 C 1598.06 1048.9 1512.78 1055.61 1498.37 1038.91 C 1497.38 1030.31 1497.02 1017.18 1498.4 1008.73 C 1507.26 1005.09 1516.79 1001.93 1526.43 1001.61 C 1554.89 1000.69 1583.75 1002.18 1612.41 1002.2 L 1689.69 1002.06 C 1704.95 1002.03 1726.44 1001.15 1741 1003.59 z"/>
<path transform="translate(0,0)" fill="rgb(1,57,196)" d="M 1154.88 668.452 C 1143.98 671.638 1082.65 669.861 1068.55 669.85 L 916.554 669.8 L 853.629 669.919 C 838.718 670.025 821.874 671.012 807.169 668.75 C 789.28 666 780.121 637.126 798.953 628.248 C 805.421 625.199 815.828 625.688 822.917 625.013 C 847.666 624.661 873.113 624.802 897.838 624.795 L 1035.64 624.782 C 1058.63 624.784 1164.3 622.442 1178.26 626.85 C 1153.88 641.551 1151.06 638.355 1154.88 668.452 z"/>
<path transform="translate(0,0)" fill="rgb(1,57,196)" d="M 1182.21 1414.9 C 1167.54 1417.43 1143.31 1416.14 1127.7 1416.14 L 1031.26 1416.12 L 893.253 1416.12 C 866.182 1416.13 840.531 1416.27 812.48 1415.4 C 789.944 1414.7 780.163 1397.44 794.06 1377.99 C 796.965 1373.93 805.94 1371.56 811.168 1371.51 C 852.129 1371.12 893.226 1371.78 934.26 1371.78 L 1073.39 1371.72 C 1099.74 1371.7 1128.23 1371.15 1154.45 1371.96 C 1149.66 1412.9 1156.22 1396.4 1182.21 1414.9 z"/>
<path transform="translate(0,0)" fill="rgb(252,122,11)" d="M 1317.75 1000.43 C 1326.66 999.093 1335.59 1002.66 1341.14 1009.75 C 1346.68 1016.85 1347.97 1026.39 1344.51 1034.7 C 1341.05 1043.02 1333.38 1048.82 1324.44 1049.9 C 1310.9 1051.52 1298.56 1041.98 1296.73 1028.46 C 1294.9 1014.94 1304.26 1002.46 1317.75 1000.43 z"/>
</svg>