<svg version="1.1" xmlns="http://www.w3.org/2000/svg" style="display: block;" viewBox="0 0 2048 2048" width="512" height="512" preserveAspectRatio="none">
<path transform="translate(0,0)" fill="rgb(0,25,144)" d="M 1121.69 244.461 C 1146.91 243.502 1172.16 244.07 1197.31 246.162 C 1336.14 258.724 1464.33 325.79 1553.81 432.671 C 1652.55 550.224 1699.64 702.675 1684.38 855.437 C 1675.95 942.931 1641.28 1036.09 1592.18 1108.7 C 1546.81 1175.8 1478.75 1237.81 1420.77 1295.7 L 1205.66 1510.31 L 1007.45 1705.41 L 945.736 1766.83 C 935.115 1777.46 921.834 1791.85 910.672 1801.07 C 903.422 1795.6 897.358 1787.89 890.734 1781.62 C 830.334 1724.44 773.135 1663.28 713.004 1605.94 C 729.168 1587.61 755.551 1563.02 773.296 1545.12 C 814.013 1503.62 854.948 1462.33 896.097 1421.26 L 1255.66 1059.93 L 1310.99 1004.56 C 1328.75 986.644 1347.89 967.521 1362.4 946.807 C 1388.88 909.024 1404.84 855.914 1408.1 810.016 C 1413.05 739.635 1389.84 670.172 1343.58 616.9 C 1296.6 563.134 1231.66 528.438 1159.89 523.81 C 1103.12 520.524 1046.76 535.189 998.786 565.729 C 971.302 583.369 951.503 606.744 928.717 629.562 L 857.598 699.838 L 527.906 1026.58 L 441.03 1112.37 C 426.352 1126.95 405.935 1148.47 390.996 1161.62 C 374.326 1146.7 347.483 1116.57 330.604 1099.43 C 304.985 1073.63 279.033 1048.16 252.755 1023.03 C 233.326 1004.17 213.475 984.194 193.503 966.116 C 199.85 956.997 211.844 943.55 219.877 935.248 C 257.252 896.62 296.479 859.665 334.636 821.786 L 553.571 603.047 L 697.79 458.98 C 744.292 412.444 788.556 362.235 844.381 327.562 C 927.992 276.162 1023.59 247.514 1121.69 244.461 z M 307.46 903.358 C 332.217 923.706 439.986 1022.1 454.198 1045.43 C 466.068 1034.21 475.909 1023.98 488.384 1012.99 C 450.837 975.203 412.355 938.771 374.256 901.577 C 363.975 891.541 351.099 879.216 342.064 868.258 C 334.783 876.249 327.294 884.048 319.604 891.647 C 315.247 895.917 311.474 898.686 307.46 903.358 z M 862.202 1508.07 C 851.511 1519.52 836.501 1533.47 826.906 1544.35 C 841.255 1551.43 956.364 1667.26 973.444 1685.82 C 983.612 1677.15 994.563 1664.22 1006.58 1653.89 L 862.202 1508.07 z M 368.319 842.01 C 395.719 865.606 426.135 897.943 452.789 923.525 L 494.782 963.258 C 500.965 969.168 510.699 978.013 516.021 984.355 C 538.817 958.816 573.993 925.939 599.055 901.087 L 751.408 749.791 L 871.047 631.774 C 904.624 598.298 940.72 557.99 979.943 531.524 C 1020.05 504.463 1074.72 487.74 1122.69 485.014 C 1208.72 480.125 1287.43 508.532 1350.85 566.826 C 1411.05 622.166 1443.74 698.07 1447.58 779.108 C 1451.85 860.453 1423.66 940.168 1369.19 1000.73 C 1359.41 1011.34 1349.13 1021.48 1338.38 1031.1 L 1040.25 1330.29 C 999.211 1371.92 957.812 1413.19 916.054 1454.1 C 906.669 1463.31 897.945 1473.07 888.451 1482.07 C 900.376 1492.79 911.854 1504.17 923.183 1515.53 C 960.013 1552.46 998.018 1588.53 1033.88 1626.4 C 1046.43 1611.67 1064.4 1594.65 1078.38 1580.71 L 1152.02 1507.28 L 1381.56 1278.1 L 1457.25 1202.7 C 1486.46 1173.71 1510.72 1150.26 1536.53 1118.1 C 1618.09 1015.08 1657.61 884.993 1647.15 754.012 C 1630 543.918 1483.87 358.332 1280.02 300.888 C 1228.07 286.249 1169.18 278.996 1115.2 282.401 C 1040.19 288.473 964.685 305.565 898.403 342.033 C 836.183 376.265 794.939 417.22 745.593 466.441 L 672.125 539.722 L 478.356 733.112 C 442.879 768.521 404.745 808.226 368.319 842.01 z"/>
<path transform="translate(0,0)" fill="rgb(250,105,7)" d="M 1148.34 365.261 C 1196.07 361.369 1321.82 383.251 1349.21 425.461 L 1348.42 432.977 C 1341.53 440.369 1338.82 442.434 1330.4 447.12 C 1323.61 446.452 1294.43 431.445 1286.18 427.794 C 1278.42 424.399 1270.45 421.517 1262.32 419.166 C 1247.28 414.521 1231.95 410.925 1216.41 408.404 C 1200.55 405.881 1142.27 403.297 1133.45 397.706 C 1130.67 395.936 1129.08 392.909 1128.59 389.698 C 1127.85 384.789 1129.04 378.229 1132.04 374.197 C 1136.11 368.74 1141.81 366.253 1148.34 365.261 z"/>
<path transform="translate(0,0)" fill="rgb(250,105,7)" d="M 1544.08 775.034 C 1554.22 774.299 1557.05 776.812 1564.73 782.426 C 1573.77 813.528 1560.93 869.059 1553.95 901.052 C 1548.12 927.767 1537.27 969.068 1514.1 985.525 C 1513.44 985.702 1512.78 985.868 1512.11 986.023 C 1505.2 987.593 1503.85 986.293 1497.68 982.44 C 1486.16 963.221 1495.54 951.444 1503.03 932.7 C 1515.03 902.67 1522.31 870.775 1526.05 838.681 C 1528.1 821.056 1526.81 802.35 1531.78 785.374 C 1533.39 780.126 1539.32 777.065 1544.08 775.034 z"/>
<path transform="translate(0,0)" fill="rgb(250,105,7)" d="M 1497.97 576.919 C 1530.22 572.434 1565.71 710.008 1560.59 737.71 C 1554.54 742.882 1552.01 744.807 1544.48 747.313 C 1538.5 746.626 1536.16 745.645 1530.79 743.082 C 1517.95 723.526 1510.13 674.799 1501.29 651.049 C 1494.28 632.232 1483.19 613.811 1479.68 594.506 L 1480.03 593.635 C 1484.08 583.048 1488.05 581.301 1497.97 576.919 z"/>
<path transform="translate(0,0)" fill="rgb(250,105,7)" d="M 1380.59 443.109 C 1406.04 445.296 1484.4 514.089 1481.65 545.424 C 1481.13 551.363 1472.26 558.674 1467.3 562.032 C 1462.56 560.471 1457.78 559.063 1453.92 555.847 C 1435.54 540.565 1421.01 520.448 1404.56 503.364 C 1393.95 492.352 1379.98 483.142 1370.41 470.524 C 1367.28 466.411 1364.8 464.524 1365.81 459.508 C 1367.38 451.782 1374.76 447.296 1380.59 443.109 z"/>
<path transform="translate(0,0)" fill="rgb(250,105,7)" d="M 1477.07 996.875 C 1527.77 993.639 1476.63 1068.69 1456.63 1080.51 C 1446.07 1080.39 1445.22 1080.06 1436.29 1074.52 C 1425.85 1051.12 1457.72 1009.02 1477.07 996.875 z"/>
<path transform="translate(0,0)" fill="rgb(134,156,236)" d="M 307.46 903.358 C 332.217 923.706 439.986 1022.1 454.198 1045.43 C 433.995 1066.51 411.821 1087.24 390.705 1107.6 C 385.783 1101.98 375.62 1092.81 369.961 1087.34 C 359.636 1077.35 349.456 1067.21 339.422 1056.93 L 290.59 1007.52 C 278.455 995.276 259.354 976.035 245.838 965.618 C 266.271 944.276 285.924 923.654 307.46 903.358 z"/>
<path transform="translate(0,0)" fill="rgb(134,156,236)" d="M 765.505 1605.79 C 786.071 1585.56 806.245 1564.22 826.906 1544.35 C 841.255 1551.43 956.364 1667.26 973.444 1685.82 C 967.089 1693.22 953.068 1705.95 945.655 1713.13 C 933.78 1724.79 922.07 1736.62 910.528 1748.61 C 880.862 1720.86 851.857 1692.41 823.539 1663.29 C 809.741 1649.26 779.641 1617.33 765.505 1605.79 z"/>
<path transform="translate(0,0)" fill="rgb(250,105,7)" d="M 1739.43 1146.21 C 1749.71 1146.33 1753.19 1149.32 1760.59 1155.74 C 1765.72 1171.59 1765.32 1202.18 1761.89 1218.31 C 1775.94 1219.44 1789.82 1222.08 1803.3 1226.19 C 1824.16 1232.56 1870.58 1256.17 1829.36 1273.14 C 1809.3 1281.4 1760.04 1259.47 1740.87 1249.96 C 1732.47 1260.8 1721.08 1270.59 1711.32 1280.45 C 1702.7 1289.17 1694.25 1298.4 1685.26 1306.66 C 1708.22 1317.22 1767.55 1341.89 1716.27 1363.69 C 1700.92 1358.27 1667.27 1344.75 1653.15 1336.44 C 1638.59 1352.41 1622.54 1366.66 1607.73 1382.39 C 1603.7 1386.67 1599.73 1390.67 1595.41 1394.65 C 1609.23 1399.58 1642.46 1413.18 1643.35 1426.72 C 1645.2 1454.89 1622.1 1451.27 1605.59 1443.63 C 1589.46 1436.17 1577.74 1432.86 1564.48 1425.26 C 1545.64 1445.15 1526.36 1462.42 1507.36 1482.14 C 1516.28 1483.2 1521.51 1484.3 1529.58 1487.28 C 1582.15 1506.63 1566.28 1543.06 1514.58 1524.97 C 1502.34 1520.68 1490.04 1517.99 1477.35 1511.74 C 1456.95 1533.84 1432.56 1554.17 1413.65 1577.24 C 1427.25 1578.5 1481.32 1586.97 1470.92 1611.32 C 1462.09 1631.97 1443.33 1624.05 1426.87 1619.81 C 1412.3 1616.04 1397.92 1612.01 1384.09 1605.61 C 1363.16 1626.46 1343.16 1646.6 1321.32 1666.74 C 1336.96 1669.62 1378.55 1678.31 1375.22 1700.5 C 1374.52 1705.18 1370.44 1709.41 1366.53 1711.8 C 1356.8 1717.77 1350.22 1715.32 1340.21 1712.69 C 1322.24 1708.06 1306.14 1704.12 1288.62 1697.81 C 1274.73 1714.29 1260.87 1726.36 1246.99 1741.97 C 1247.28 1757.73 1249.59 1780.83 1238.32 1793.41 C 1232.65 1799.74 1221.79 1804.17 1215.91 1795.88 C 1198.72 1771.63 1205.02 1732.96 1204.29 1705.03 C 1203.41 1671.57 1224.59 1656.17 1245.93 1686.33 C 1250.7 1680.15 1265.86 1665.4 1272.04 1658.89 C 1271.9 1644.81 1271.71 1630.58 1271.93 1616.5 C 1272.12 1603.84 1271.5 1584.83 1283.28 1576.99 C 1286.94 1574.57 1291.41 1573.73 1295.69 1574.64 C 1315.2 1578.75 1312.62 1613.16 1308.61 1627.55 C 1317.86 1617.51 1326.71 1606.81 1336.13 1596.87 C 1344.72 1587.8 1353.32 1580.18 1361.16 1570.44 C 1359.28 1549.99 1358.46 1510.34 1368.59 1492.18 C 1375.48 1479.82 1389.11 1489.74 1396.7 1495.97 C 1401.4 1509.66 1400.73 1521.69 1398.51 1535.76 C 1404.84 1531.06 1413.75 1521.61 1419.62 1515.75 L 1453.93 1481.18 C 1450.75 1461.55 1447.43 1426.04 1462.96 1411.52 C 1470.81 1404.18 1479.86 1404.26 1486.42 1413.08 C 1494.31 1423.7 1493.27 1433.36 1491.96 1445.55 C 1506.14 1427.71 1529.79 1405.7 1546.5 1390.05 C 1545.13 1370.57 1540.14 1314.31 1568.52 1312.4 C 1588.33 1311.07 1587.68 1331.63 1587.7 1344.75 L 1588.54 1345.01 C 1595.18 1339.93 1623.4 1309.48 1629.54 1302.22 C 1628.54 1287.01 1629.01 1272.28 1628.77 1257.17 C 1628.39 1233.38 1633.68 1200.75 1664.59 1222.93 C 1669.9 1239.53 1668.54 1252.28 1667.55 1269.6 C 1685.57 1250.09 1704.37 1231.3 1723.89 1213.3 C 1720.5 1193.64 1718.24 1156.54 1739.43 1146.21 z"/>
</svg>