<svg version="1.1" xmlns="http://www.w3.org/2000/svg" style="display: block;" viewBox="0 0 2048 2048" width="512" height="512" preserveAspectRatio="none">
<path transform="translate(0,0)" fill="rgb(5,9,127)" d="M 1169.02 800.131 C 1177.26 792.482 1193.93 763.19 1201.04 751.946 C 1246.48 680.079 1285.55 603.302 1332.95 532.802 C 1343.91 516.501 1361.08 517.229 1372.41 531.373 C 1389.2 553.133 1403.6 578.988 1417.52 602.896 C 1437.58 637.927 1458.16 672.662 1479.25 707.088 L 1800.46 1235.9 C 1810.78 1252.92 1879.69 1360.72 1879.06 1371.76 C 1878.75 1377.18 1874.98 1384.22 1870.95 1387.77 C 1867.68 1390.64 1854.93 1391.15 1850.47 1391.29 C 1825.08 1392.08 1799.45 1391.38 1774.04 1391.35 L 1630.17 1391.33 L 1187.33 1391.34 L 1087.44 1391.25 C 1077.63 1391.24 1041.56 1390.38 1033.99 1392.63 C 1029.68 1431.72 1004.5 1490.47 984.327 1524.55 C 924.647 1624.97 827.509 1697.56 714.294 1726.35 C 603.327 1755.16 485.452 1738.51 386.807 1680.09 C 285.914 1619.75 213.157 1521.77 184.573 1407.74 C 154.88 1294.37 172.061 1173.82 232.245 1073.27 C 238.017 1068.02 249.961 1048.07 253.822 1040.5 C 267.901 1020.41 281.124 1006.33 298.613 989.24 C 361.908 926.496 442.777 884.468 530.5 868.726 C 642.86 848.924 758.474 874.862 851.606 940.766 C 910.362 982.082 953.862 1032.39 990.035 1093.94 C 993.134 1089.75 999.543 1078.33 1002.57 1073.43 L 1029.55 1029.81 C 1052.85 992.639 1075.75 955.213 1098.24 917.543 C 1105.1 906.092 1126.35 871.177 1130.1 859.909 L 1131.76 859.506 C 1143.04 849.966 1164.42 814.398 1169.02 800.131 z M 835.118 1387.05 C 830.115 1380.45 828.718 1376.4 825.965 1368.83 L 826.618 1367.02 C 831.926 1352.15 855.529 1315.46 865.02 1299.7 L 939.046 1176.93 C 943.614 1169.45 963.077 1139.19 964.653 1133.62 C 951.785 1111.62 945.064 1093.94 929.919 1071.68 C 876.967 995.425 798.519 940.595 708.715 917.069 C 605.145 890.152 495.144 905.059 402.475 958.571 C 310.793 1012.63 250.247 1096.85 224.164 1199.57 C 197.505 1302.98 213.219 1412.75 267.819 1504.52 C 321.989 1595.35 409.704 1661.23 512.03 1687.94 C 613.28 1713.63 720.603 1697.64 809.967 1643.55 C 882.022 1600.24 938.554 1535.27 971.493 1457.92 C 981.912 1432.87 985.228 1415.46 993.522 1391.95 C 962.743 1390.82 854.962 1394.92 835.118 1387.05 z M 1043.21 1329.84 C 1044.02 1336.75 1043.92 1343.6 1043.98 1350.56 C 1055.3 1349.72 1070.1 1350.16 1081.73 1350.17 L 1146.75 1350.25 L 1348.45 1350.27 L 1655.13 1350.25 C 1709.19 1350.24 1767.84 1348.96 1821.54 1350.66 C 1816.21 1342.82 1808.68 1328.87 1803.35 1320.09 L 1757.44 1244.55 L 1622.01 1021.46 L 1448.65 735.831 C 1417.69 684.862 1382.95 630.18 1353.81 578.64 C 1348.66 588.389 1335.35 607.689 1328.86 618.428 L 1272.19 712.955 L 1086.76 1018.13 C 1071.58 1043.4 1056.24 1068.59 1040.76 1093.69 C 1032.72 1106.57 1017.87 1128.61 1011.51 1141.5 C 1016.67 1148.06 1021.25 1158.71 1024.45 1166.46 C 1045.45 1217.36 1041.41 1275.53 1043.21 1329.84 z M 884.3 1351.13 C 917.45 1347.79 967.574 1351.54 1002.69 1350.02 C 1001.11 1331.47 1003.02 1313.88 1002.89 1295.65 C 1002.62 1259.78 997.229 1216.49 986.58 1182.15 C 981.308 1188.38 965.776 1215.93 960.133 1225.15 L 901.318 1321.63 C 895.502 1331.31 890.166 1341.61 884.3 1351.13 z"/>
<path transform="translate(0,0)" fill="rgb(248,88,14)" d="M 681.832 1142.43 C 716.495 1141.01 767.7 1137.52 796.89 1155.48 C 800.373 1172.5 799.826 1201.88 799.9 1219.94 L 800.113 1303.87 L 800.088 1448.79 C 800.063 1472.02 802.534 1529.5 796.341 1550.12 C 795.196 1551.34 794.031 1552.54 792.845 1553.72 C 780.642 1565.8 760.089 1562.26 743.751 1562 C 729.015 1561.78 714.277 1561.69 699.54 1561.74 L 505.18 1561.79 C 478.413 1561.53 393.114 1576.4 388.86 1535.8 C 387.397 1521.83 388.191 1496.2 388.193 1481.37 L 388.237 1379.59 L 388.206 1245.86 C 388.148 1220.1 387.712 1194.35 388.69 1168.59 C 388.32 1156.95 394.885 1146.79 407.602 1145.72 C 433.532 1143.55 461.199 1145.04 487.327 1144.72 C 552.001 1143.92 617.306 1146.74 681.832 1142.43 z M 426.665 1522.48 C 466.422 1521.11 512.917 1522.32 553.341 1522.32 L 759.768 1522.05 C 762.197 1515.91 759.485 1216.41 760.161 1184.08 L 537.909 1184.14 C 503.451 1184.14 461.036 1185.29 427.162 1184.06 C 428.899 1201.68 427.877 1234.06 427.872 1252.73 L 427.851 1379.83 L 427.873 1473.57 C 427.875 1485.19 428.512 1512.8 426.665 1522.48 z"/>
<path transform="translate(0,0)" fill="rgb(248,88,14)" d="M 253.822 1040.5 C 267.901 1020.41 281.124 1006.33 298.613 989.24 C 361.908 926.496 442.777 884.468 530.5 868.726 C 642.86 848.924 758.474 874.862 851.606 940.766 C 910.362 982.082 953.862 1032.39 990.035 1093.94 C 986.387 1100.61 969.327 1131.46 964.653 1133.62 C 951.785 1111.62 945.064 1093.94 929.919 1071.68 C 876.967 995.425 798.519 940.595 708.715 917.069 C 605.145 890.152 495.144 905.059 402.475 958.571 C 310.793 1012.63 250.247 1096.85 224.164 1199.57 C 197.505 1302.98 213.219 1412.75 267.819 1504.52 C 321.989 1595.35 409.704 1661.23 512.03 1687.94 C 613.28 1713.63 720.603 1697.64 809.967 1643.55 C 882.022 1600.24 938.554 1535.27 971.493 1457.92 C 981.912 1432.87 985.228 1415.46 993.522 1391.95 C 996.365 1381.26 1002.72 1360.14 1002.69 1350.02 C 1001.11 1331.47 1003.02 1313.88 1002.89 1295.65 C 1002.62 1259.78 997.229 1216.49 986.58 1182.15 C 988.464 1173.96 1005.17 1148.15 1011.51 1141.5 C 1016.67 1148.06 1021.25 1158.71 1024.45 1166.46 C 1045.45 1217.36 1041.41 1275.53 1043.21 1329.84 C 1043.3 1334.07 1043.56 1344.96 1042.92 1348.81 C 1040.47 1363.61 1035.45 1377.45 1033.99 1392.63 C 1029.68 1431.72 1004.5 1490.47 984.327 1524.55 C 924.647 1624.97 827.509 1697.56 714.294 1726.35 C 603.327 1755.16 485.452 1738.51 386.807 1680.09 C 285.914 1619.75 213.157 1521.77 184.573 1407.74 C 154.88 1294.37 172.061 1173.82 232.245 1073.27 C 238.017 1068.02 249.961 1048.07 253.822 1040.5 z"/>
<path transform="translate(0,0)" fill="rgb(62,76,166)" d="M 232.245 1073.27 C 171.195 1054.79 172.327 999.491 171.398 945.449 C 171.084 927.2 171.419 908.821 171.447 890.566 L 171.48 727.251 L 171.503 512.429 C 171.479 481.114 170.784 449.721 171.001 418.449 C 171.256 381.819 176.819 350.217 205.376 325.171 C 237.26 297.207 271.495 300.375 311.136 300.397 L 381.415 300.47 L 613.625 300.48 L 920.308 300.465 L 1017.12 300.391 C 1037.21 300.373 1056.81 300.073 1076.9 301.169 C 1132.78 304.217 1159.96 341.549 1166.5 394.131 C 1170.44 425.805 1169.9 454.133 1169.83 485.852 L 1169.54 607.998 L 1169.46 730.794 C 1169.5 750.871 1170.5 781.184 1169.02 800.131 C 1164.42 814.398 1143.04 849.966 1131.76 859.506 L 1130.1 859.909 C 1128.5 816.32 1129.37 773.099 1129.42 729.502 L 1129.41 526.599 L 1129.42 448.359 C 1129.41 419.747 1132.94 375.966 1110.3 355.114 C 1089.97 336.385 1047.24 340.578 1020.99 340.612 L 939.413 340.643 L 678.703 340.66 L 407.324 340.665 L 320.014 340.579 C 266.857 340.534 217.164 332.794 211.746 404.469 C 209.153 438.77 211.596 472.678 211.62 507.044 L 211.591 720.277 L 211.561 904.683 C 211.597 920.865 211.53 937.048 211.36 953.229 C 211.188 967.074 210.645 979.523 212.144 993.399 C 214.991 1019.76 233.971 1027.57 253.822 1040.5 C 249.961 1048.07 238.017 1068.02 232.245 1073.27 z"/>
</svg>