<svg version="1.1" xmlns="http://www.w3.org/2000/svg" style="display: block;" viewBox="0 0 2048 2048" width="512" height="512" preserveAspectRatio="none">
<path transform="translate(0,0)" fill="rgb(6,58,187)" d="M 737.369 409.825 C 757.677 391.808 774.981 372.786 796.884 356.229 C 864.74 304.933 950.678 291.42 1033.71 296.769 C 1051.62 297.923 1115.07 298.232 1078.21 331.731 C 1064.17 344.49 1039.83 356.783 1022.89 366.299 L 950.285 407.073 C 926.974 420.229 903.862 433.736 880.959 447.59 C 870.024 454.186 855.159 464.186 844.565 469.817 C 852.134 477.126 881.1 507.675 888.491 515.621 C 904.017 532.313 976.808 599.851 983.04 613.725 C 982.319 630.22 963.074 646.692 951.456 657.37 C 948.099 660.456 944.646 663.437 941.103 666.308 C 955.732 676.516 973.477 697.548 989.254 710.205 C 996.189 701.699 1021.1 670.278 1031.58 670.962 C 1046.9 671.963 1133.08 758.834 1143.49 775.4 C 1144.64 777.245 1145.74 779.124 1146.78 781.034 C 1140.3 795.646 1118.16 815.479 1105.31 824.2 C 1123.94 846.209 1152.26 872.983 1173.09 893.803 L 1283.34 1004.37 L 1634.14 1356.69 C 1660.33 1382.93 1686.81 1408.88 1713.59 1434.53 C 1745.62 1465.45 1780.46 1499.34 1806.86 1535.47 C 1816.97 1549.31 1820.24 1570.18 1818.92 1587.07 C 1817.93 1600.02 1814.13 1612.6 1807.78 1623.93 C 1793.13 1649.79 1731.2 1708.96 1707.31 1730.34 C 1690.94 1745 1670.15 1753.43 1647.96 1751.02 C 1623.82 1748.4 1601.59 1734.75 1583.27 1719.42 C 1556.11 1696.69 1532.18 1669.62 1506.8 1644.76 L 1330.15 1469.91 C 1282.43 1422.41 1234.43 1375.2 1186.16 1328.26 C 1159.95 1302.46 1131.85 1276.25 1107.83 1248.47 C 1087.23 1224.63 1075.98 1191.97 1054.95 1168.2 C 1041.19 1152.57 1026.1 1139.21 1011.2 1124.77 C 989.807 1103.74 968.52 1082.59 947.343 1061.34 L 829.162 943.107 C 800.663 914.66 772.911 886.515 743.262 859.24 C 732.361 870.613 701.524 907.686 686.931 909.841 C 674.416 911.689 597.744 833.952 584.453 821.06 C 583.639 820.271 582.904 819.422 582.157 818.571 C 570.282 832.419 564.886 837.493 547.027 842.839 C 525.567 835.218 519.737 821.292 506.49 804.08 C 503.182 806.1 491.667 819.931 487.268 824.018 C 469.755 840.285 448.084 863.79 429.575 877.948 C 435.464 881.84 441.554 888.571 446.799 893.585 C 460.873 907.304 476.372 921.688 488.932 936.536 C 515.936 968.459 495.468 981.183 470.725 1002.57 C 454.022 1017 437.9 1040.93 416.268 1047.34 C 408.657 1045.23 400.748 1040.73 395.102 1035.12 C 343.285 983.682 291.498 932.164 239.922 880.483 C 237.469 878.025 227.473 866.101 227.516 862.936 C 228.249 843.051 247.296 828.955 259.361 814.848 C 285.412 784.388 309.276 753.734 346.033 792.8 C 352.425 783.097 365.378 770.306 373.835 761.877 C 389.921 745.844 406.365 729.801 422.746 714.069 C 429.81 707.285 438.028 701.071 445.056 694.128 L 616.391 523.194 C 642.18 497.415 668.178 471.235 694.035 445.566 C 703.303 436.365 727.083 415.747 737.369 409.825 z M 552.636 792.83 C 553.218 792.11 553.811 791.401 554.418 790.702 C 559.657 784.664 576.364 768.209 583.724 769.242 C 597.934 771.234 618.528 795.637 628.202 805.01 C 647.74 823.94 666.211 842.498 683.681 862.695 L 843.42 704.09 L 891.933 655.909 C 905.634 642.316 917.737 629.536 933.237 617.896 C 913.246 598.292 894.505 577.193 873.518 557.224 C 855.953 540.512 828.908 516.259 814.437 498.679 C 808.191 482.25 805.592 478.285 793.793 465.038 C 794.394 464.281 795.004 463.53 795.568 462.746 C 825.825 420.716 945.075 362.848 993.877 336.62 C 920.166 337.108 864.012 354.362 808.174 402.943 C 798.904 411.007 777.156 432.929 768.399 438.076 C 757.521 429.409 747.444 419.435 737.369 409.825 C 727.083 415.747 703.303 436.365 694.035 445.566 C 668.178 471.235 642.18 497.415 616.391 523.194 L 445.056 694.128 C 438.028 701.071 429.81 707.285 422.746 714.069 C 406.365 729.801 389.921 745.844 373.835 761.877 C 365.378 770.306 352.425 783.097 346.033 792.8 C 309.276 753.734 285.412 784.388 259.361 814.848 C 247.296 828.955 228.249 843.051 227.516 862.936 C 227.473 866.101 237.469 878.025 239.922 880.483 C 291.498 932.164 343.285 983.682 395.102 1035.12 C 400.748 1040.73 408.657 1045.23 416.268 1047.34 C 437.9 1040.93 454.022 1017 470.725 1002.57 C 495.468 981.183 515.936 968.459 488.932 936.536 C 476.372 921.688 460.873 907.304 446.799 893.585 C 441.554 888.571 435.464 881.84 429.575 877.948 C 448.084 863.79 469.755 840.285 487.268 824.018 C 491.667 819.931 503.182 806.1 506.49 804.08 C 515.561 793.718 525.267 783.929 535.552 774.77 C 542.47 781.25 546.686 785.574 552.636 792.83 z M 859.102 746.337 C 870.927 752.812 910.844 794.102 922.331 805.611 L 1005.83 888.943 C 1054.3 937.232 1103.12 985.189 1151.59 1033.48 C 1160.43 1042.28 1169.04 1051.39 1177.25 1060.79 C 1165.75 1069.92 1157.77 1076.98 1147.04 1087.32 C 1121.66 1064.84 1094.38 1036.04 1069.77 1011.86 L 909.64 853.527 C 895.603 839.651 881.715 825.623 867.98 811.447 C 858.658 801.88 839.9 782.446 829.003 774.956 C 817.03 787.555 785.5 821.57 772.552 830.153 C 788.57 843.968 814.56 871.336 830.388 887.017 L 944.742 1000.44 L 1037.81 1092.81 C 1054.66 1109.42 1076.38 1130.47 1092.21 1147.53 C 1106.65 1163.11 1116.99 1201.59 1133.91 1219.04 C 1143.15 1228.57 1152.24 1237.56 1161.68 1246.85 L 1211.6 1296.07 L 1371.32 1453.62 L 1532.35 1611.92 L 1583.75 1663.13 C 1593.6 1672.95 1603.37 1683.15 1613.76 1692.39 C 1660.14 1733.64 1686.51 1691.94 1718.9 1662.01 C 1677.56 1624.35 1632.31 1576.56 1592.32 1536.46 L 1370.7 1314.36 L 1229.91 1173.38 L 1189.17 1132.86 C 1181.16 1124.9 1169.59 1113.91 1162.81 1105.37 C 1168.37 1098.25 1182.68 1084.85 1189.59 1078.1 C 1196.5 1083.46 1205.96 1093.16 1212.58 1099.64 C 1227.51 1114.36 1242.34 1129.19 1257.07 1144.12 L 1384.39 1272.06 L 1617.18 1505.84 C 1659.31 1548.12 1705.21 1592.64 1746.01 1635.79 C 1788.16 1594.26 1795.25 1579.23 1751.3 1532.47 C 1735.84 1516.02 1716.14 1497.95 1701.85 1480.98 C 1700.65 1482.49 1699.43 1483.99 1698.2 1485.48 C 1690.37 1494.95 1679.76 1506.08 1666.91 1507.14 C 1655.47 1507.92 1648.16 1499.74 1648.28 1488.65 C 1648.46 1472.02 1663.48 1462.46 1674.23 1451.2 C 1664.9 1442.8 1650.53 1428.72 1642.35 1419.41 C 1631.97 1432.24 1623.55 1441.96 1608.01 1447.83 C 1571.23 1431.37 1594.26 1410.75 1614.64 1393.83 C 1606.33 1385.34 1588.71 1368.52 1582.13 1359.87 C 1573.16 1370.99 1548.5 1397.83 1532 1379.69 C 1517.64 1363.9 1542.93 1342.63 1555.36 1333.29 C 1544.28 1322.21 1533.93 1310.83 1522.39 1299.56 C 1513.18 1310.2 1493.09 1333.79 1477.96 1321.46 C 1455.23 1302.93 1480.59 1284.91 1493.87 1271.44 C 1484.05 1261.65 1471.23 1251.48 1462.44 1241.41 C 1452.35 1253.47 1445.93 1260.74 1431.34 1266.65 C 1394.93 1252.17 1416.09 1231.28 1435.64 1212.41 C 1426.38 1202.73 1413.91 1191.33 1405.83 1181.25 C 1393.01 1197.63 1366.06 1225.11 1353.43 1191.94 C 1358.59 1174.4 1364.81 1166.87 1377.63 1154.07 C 1368.08 1145.61 1355.11 1131.9 1345.91 1122.47 C 1337.83 1131.62 1324.67 1147.58 1311.56 1146.87 C 1302.35 1146.37 1291.27 1134.66 1292.98 1125.09 C 1295.18 1112.81 1309.5 1101.61 1318.79 1094.16 C 1308.93 1084.62 1294.3 1071.19 1285.71 1061.13 C 1282.39 1065.06 1279.04 1068.95 1275.64 1072.8 C 1270.15 1078.97 1261.76 1087.23 1253.14 1087.56 C 1241.76 1088.01 1231.88 1074.41 1233 1063.78 C 1234.3 1051.4 1248.41 1040.36 1257.2 1032.9 C 1230.01 1004.72 1201.14 977.064 1173.28 949.472 L 955.009 733.797 C 941.242 720.116 926.544 706.79 913.127 693.26 C 895.209 711.044 877.2 728.736 859.102 746.337 z M 1094.17 782.079 C 1086.34 774.159 1036.45 722.671 1030.9 721.448 C 1025.4 728.749 1022.57 732.692 1015.64 738.783 C 1023.51 746.789 1071.16 796.941 1076.79 796.548 C 1077.18 796.521 1077.56 796.383 1077.94 796.3 C 1082.95 791.514 1088.48 785.855 1094.17 782.079 z"/>
<path transform="translate(0,0)" fill="rgb(253,103,1)" d="M 346.033 792.8 C 352.425 783.097 365.378 770.306 373.835 761.877 C 389.921 745.844 406.365 729.801 422.746 714.069 C 429.81 707.285 438.028 701.071 445.056 694.128 L 616.391 523.194 C 642.18 497.415 668.178 471.235 694.035 445.566 C 703.303 436.365 727.083 415.747 737.369 409.825 C 747.444 419.435 757.521 429.409 768.399 438.076 C 774.382 446.705 786.178 456.43 793.793 465.038 C 805.592 478.285 808.191 482.25 814.437 498.679 C 797.964 514.608 780.4 534.314 763.53 551.164 L 638.258 674.29 L 567.203 743.991 C 559.582 751.446 541.504 767.77 535.552 774.77 C 525.267 783.929 515.561 793.718 506.49 804.08 C 503.182 806.1 491.667 819.931 487.268 824.018 C 469.755 840.285 448.084 863.79 429.575 877.948 C 435.464 881.84 441.554 888.571 446.799 893.585 C 460.873 907.304 476.372 921.688 488.932 936.536 C 515.936 968.459 495.468 981.183 470.725 1002.57 C 454.022 1017 437.9 1040.93 416.268 1047.34 C 408.657 1045.23 400.748 1040.73 395.102 1035.12 C 343.285 983.682 291.498 932.164 239.922 880.483 C 237.469 878.025 227.473 866.101 227.516 862.936 C 228.249 843.051 247.296 828.955 259.361 814.848 C 285.412 784.388 309.276 753.734 346.033 792.8 z M 375.214 823.164 C 381.024 828.787 396.241 842.892 400.673 848.403 C 410.206 835.489 430.003 817.174 441.589 805.618 L 520.65 727.04 C 582.502 665.599 643.551 603.164 707.347 543.816 C 725.967 526.493 743.281 506.856 762.403 489.752 C 753.207 481.798 746.093 473.095 737.781 465.758 C 720.292 483.979 699.919 502.637 681.726 520.796 L 497.934 702.7 L 421.215 779.799 C 411.351 789.716 385.369 816.592 375.214 823.164 z M 279.76 858.517 C 312.77 891.292 377.376 957.089 413.12 993.771 C 413.671 993.777 414.222 993.783 414.773 993.789 L 415.371 993.341 C 425.996 982.064 438.925 968.001 450.158 957.517 C 430.909 942.559 322.412 827.229 313.783 824.702 C 305.123 834.557 290.13 851.237 279.76 858.517 z"/>
<path transform="translate(0,0)" fill="rgb(253,103,1)" d="M 859.102 746.337 C 870.927 752.812 910.844 794.102 922.331 805.611 L 1005.83 888.943 C 1054.3 937.232 1103.12 985.189 1151.59 1033.48 C 1160.43 1042.28 1169.04 1051.39 1177.25 1060.79 C 1165.75 1069.92 1157.77 1076.98 1147.04 1087.32 C 1121.66 1064.84 1094.38 1036.04 1069.77 1011.86 L 909.64 853.527 C 895.603 839.651 881.715 825.623 867.98 811.447 C 858.658 801.88 839.9 782.446 829.003 774.956 C 836.218 766.371 850.471 753.462 859.102 746.337 z"/>
</svg>