<svg version="1.1" xmlns="http://www.w3.org/2000/svg" style="display: block;" viewBox="0 0 2048 2048" width="512" height="512" preserveAspectRatio="none">
<path transform="translate(0,0)" fill="rgb(8,37,164)" d="M 490.595 546.235 C 450.591 505.429 408.463 465.735 367.531 425.766 C 354.021 412.544 340.696 399.134 327.561 385.54 C 315.777 373.439 287.973 352.472 306.372 335.844 C 324.347 319.6 341.251 343.67 353.288 355.784 C 365.038 367.586 376.85 379.327 388.724 391.006 L 520.72 519.778 C 531.126 507.56 560.655 475.657 575.702 474.062 C 587.972 472.761 619.168 507.683 628.456 517.034 C 647.489 535.895 666.625 554.653 685.861 573.307 C 693.965 581.226 707.814 595.837 715.829 602.683 C 760.99 575.982 801.529 569.569 842.973 607.392 C 864.385 626.934 884.209 647.768 904.692 668.253 L 1016.78 779.999 L 1140.62 903.125 C 1166.21 928.712 1201.77 960.453 1220.31 990.469 C 1237.64 1018.52 1223.53 1062.19 1204.8 1086.99 C 1218.19 1101.34 1233.99 1116 1248.09 1130 L 1329.2 1210.95 L 1582.09 1463.58 C 1605.57 1486.92 1695.17 1569.08 1706.15 1590.89 C 1710.02 1598.57 1709.15 1649.04 1708.7 1662.01 C 1708.2 1676.49 1706.43 1692.46 1695.33 1703.07 C 1684.37 1713.53 1660.68 1715.71 1646.25 1716.53 C 1614.43 1718.36 1582.51 1717.75 1550.66 1717.76 L 1411.46 1717.76 L 979.764 1717.74 L 487.028 1717.71 L 329.252 1717.75 C 301.179 1717.79 272.821 1718 244.725 1717.68 C 229.955 1717.51 212.361 1713.49 202.203 1701.48 C 183.678 1679.56 189.767 1639.74 190.267 1613.02 C 190.481 1601.6 195.675 1583.63 204.24 1576.6 C 222.173 1561.87 248.716 1565.87 268.648 1564.75 C 268.477 1562.43 268.352 1560.1 268.273 1557.77 C 267.527 1532.38 268.207 1503.35 268.213 1477.62 L 268.236 1322.68 L 268.115 1228.21 C 268.009 1209.53 267.479 1190.61 268.218 1172.1 C 268.694 1160.18 277.835 1157.92 287.638 1157.12 C 305.481 1155.68 324.311 1156.42 342.163 1156.36 L 441.375 1155.96 C 401.607 1094.85 425.978 1013.15 501.19 996.899 C 499.551 966.444 500.633 929.757 500.632 898.664 L 500.632 724.002 L 500.749 663.881 C 500.765 653.537 501.088 636.971 500.045 626.829 C 484.891 610.425 471.297 602.997 461.748 582.634 C 467.287 566.266 475.99 555.791 490.595 546.235 z M 538.999 996.491 C 547.351 997.98 554.209 999.444 561.931 1002.79 C 613.375 1025.11 635.159 1097.22 605.477 1144.65 C 602.574 1149.28 600.167 1152.54 596.759 1156.81 C 605.615 1155.73 618.722 1156.13 627.938 1156.13 L 679.231 1156.14 C 697.069 1156.15 747.778 1154.86 762.533 1157.41 C 768.781 1161.67 771.488 1164.92 772.777 1172.66 C 775.92 1191.54 775.228 1212.55 775.223 1231.73 L 775.173 1311.03 C 775.136 1394.24 776.727 1482.07 774.928 1564.87 C 815.065 1562.65 868.533 1564.37 909.976 1564.37 L 1166.76 1564.38 L 1350.25 1564.33 C 1374.61 1564.32 1424.24 1562.93 1446.33 1565.19 C 1424.35 1545.39 1398.59 1519.16 1377.33 1497.95 L 1279.52 1400.4 L 995.215 1118.06 L 687.448 811.107 L 607.536 731.676 C 585.171 709.775 560.592 686.623 539.394 663.73 L 539.499 882.526 L 539.502 954.042 C 539.499 967.528 539.896 983.175 538.999 996.491 z M 509.406 582.156 C 519.914 589.615 535.939 606.236 545.18 615.561 L 586.681 657.184 L 736.516 805.764 L 1268.56 1334.56 L 1432.07 1496.83 C 1446.57 1511.38 1460.98 1526.02 1475.31 1540.74 C 1482.4 1547.98 1491.91 1558.28 1499.24 1564.63 C 1520.41 1565.02 1541.58 1564.96 1562.75 1564.45 C 1584.1 1564.19 1605.44 1564.28 1626.79 1564.73 C 1607.58 1541.91 1581.58 1520.26 1560.2 1499.24 C 1528.34 1467.92 1496.8 1436.25 1465.18 1404.68 L 1081.77 1023.34 L 737.534 680.709 L 634.483 577.916 C 617.589 561.047 591.902 533.914 574.56 519.671 C 554.686 538.19 528.616 566.16 509.406 582.156 z M 770.903 620.296 C 759.712 622.869 751.754 626.393 741.011 629.841 L 1029.91 915.14 C 1074.9 959.548 1123.57 1010.38 1169.53 1052.9 C 1172.2 1055.28 1175.03 1057.91 1177.75 1060.19 C 1184.09 1045.35 1194.3 1024.85 1187.08 1008.8 C 1180.27 993.661 1072.39 890.509 1053.87 872.28 L 956.136 775.58 L 865.033 684.81 C 847.867 667.695 830.92 650.366 813.2 633.828 C 801.158 622.589 787.105 618.953 770.903 620.296 z M 231.829 1606.1 C 228.551 1621.97 223.735 1658.32 232.492 1673.09 C 236.327 1679.56 283.501 1677.51 292.454 1677.5 L 377.726 1677.43 L 640.24 1677.42 L 1301.69 1677.41 L 1520.91 1677.42 C 1561.63 1677.42 1603.65 1676.85 1644.25 1677.69 C 1650.84 1677.63 1661.74 1677.2 1667.98 1677.86 C 1667.83 1653.76 1667.39 1627.65 1668.04 1603.64 C 1622.37 1604.86 1575.28 1603.99 1529.46 1603.94 L 1298.72 1603.9 L 571.56 1603.9 L 374.294 1603.89 C 333.841 1603.88 294.199 1603.22 253.728 1604.42 C 246.419 1604.85 239.118 1605.41 231.829 1606.1 z"/>
<path transform="translate(0,0)" fill="rgb(231,231,230)" d="M 501.19 996.899 C 512.064 996.34 531.439 997.143 538.999 996.491 C 547.351 997.98 554.209 999.444 561.931 1002.79 C 613.375 1025.11 635.159 1097.22 605.477 1144.65 C 602.574 1149.28 600.167 1152.54 596.759 1156.81 C 605.615 1155.73 618.722 1156.13 627.938 1156.13 L 679.231 1156.14 C 697.069 1156.15 747.778 1154.86 762.533 1157.41 C 768.781 1161.67 771.488 1164.92 772.777 1172.66 C 775.92 1191.54 775.228 1212.55 775.223 1231.73 L 775.173 1311.03 C 775.136 1394.24 776.727 1482.07 774.928 1564.87 C 763.671 1565.35 748.273 1565.72 736.936 1565.12 L 489.755 1564.82 C 429.002 1564.82 367.546 1564.36 306.84 1565.06 C 298.266 1565.59 276.645 1565.66 268.648 1564.75 C 268.477 1562.43 268.352 1560.1 268.273 1557.77 C 267.527 1532.38 268.207 1503.35 268.213 1477.62 L 268.236 1322.68 L 268.115 1228.21 C 268.009 1209.53 267.479 1190.61 268.218 1172.1 C 268.694 1160.18 277.835 1157.92 287.638 1157.12 C 305.481 1155.68 324.311 1156.42 342.163 1156.36 L 441.375 1155.96 C 401.607 1094.85 425.978 1013.15 501.19 996.899 z"/>
<path transform="translate(0,0)" fill="rgb(254,95,3)" d="M 501.19 996.899 C 512.064 996.34 531.439 997.143 538.999 996.491 C 547.351 997.98 554.209 999.444 561.931 1002.79 C 613.375 1025.11 635.159 1097.22 605.477 1144.65 C 602.574 1149.28 600.167 1152.54 596.759 1156.81 C 605.615 1155.73 618.722 1156.13 627.938 1156.13 L 679.231 1156.14 C 697.069 1156.15 747.778 1154.86 762.533 1157.41 C 768.781 1161.67 771.488 1164.92 772.777 1172.66 C 775.92 1191.54 775.228 1212.55 775.223 1231.73 L 775.173 1311.03 C 775.136 1394.24 776.727 1482.07 774.928 1564.87 C 763.671 1565.35 748.273 1565.72 736.936 1565.12 L 736.963 1194.88 L 457.106 1194.86 L 373.424 1194.24 C 357.504 1194.16 336.868 1193.53 321.419 1195.31 C 316.762 1199.76 311.966 1204.06 307.04 1208.21 C 305.28 1325.51 306.892 1447.5 306.84 1565.06 C 298.266 1565.59 276.645 1565.66 268.648 1564.75 C 268.477 1562.43 268.352 1560.1 268.273 1557.77 C 267.527 1532.38 268.207 1503.35 268.213 1477.62 L 268.236 1322.68 L 268.115 1228.21 C 268.009 1209.53 267.479 1190.61 268.218 1172.1 C 268.694 1160.18 277.835 1157.92 287.638 1157.12 C 305.481 1155.68 324.311 1156.42 342.163 1156.36 L 441.375 1155.96 C 401.607 1094.85 425.978 1013.15 501.19 996.899 z"/>
<path transform="translate(0,0)" fill="rgb(254,172,99)" d="M 509.514 1034.68 C 543.05 1028.32 575.336 1050.53 581.377 1084.13 C 587.417 1117.72 564.892 1149.8 531.24 1155.51 C 498.043 1161.15 466.5 1139 460.542 1105.86 C 454.583 1072.72 476.433 1040.96 509.514 1034.68 z"/>
<path transform="translate(0,0)" fill="rgb(8,37,164)" d="M 1808.3 330.528 C 1818.77 330.265 1844.18 328.484 1852.14 334.347 C 1859.43 339.716 1859.69 359.606 1859.69 368.395 C 1859.69 442.676 1859.64 517.027 1859.65 591.307 L 1859.69 662.921 C 1859.77 694.105 1867.01 707.151 1838.77 726.027 C 1799.12 752.518 1759.97 780.139 1720.53 806.98 C 1701.12 820.187 1686.49 816.081 1664.33 816.176 C 1650.4 816.099 1636.67 815.898 1622.82 815.885 L 1410.6 816.147 C 1403.38 816.228 1395.71 816.267 1388.52 816.296 C 1364.53 816.392 1360.2 816.514 1360.26 791.194 C 1360.46 712.134 1360.51 633.098 1360.52 554.054 L 1360.37 483.526 C 1360.28 456.916 1355.26 440.428 1376.35 420.472 C 1405.25 393.117 1435.89 356.781 1468.5 333.506 C 1477.68 326.957 1562 332.515 1579.14 330.688 C 1655.58 330.146 1731.98 331.512 1808.3 330.528 z M 1644.87 511.544 C 1692.93 464.582 1745.69 416.584 1791.37 367.685 C 1742.57 370.504 1687.32 368.156 1638.08 368.343 C 1591.95 368.517 1545.69 368.187 1499.53 368.377 C 1498.15 374.582 1499.03 414.383 1499.03 423.116 L 1498.94 578.731 C 1498.95 593.186 1499.84 643.104 1497.53 654.828 C 1517.47 639.062 1542.02 614.211 1560.19 596.072 L 1644.87 511.544 z M 1820.93 681.057 C 1819.8 661.048 1820.46 637.816 1820.5 617.557 L 1820.54 514.541 L 1820.56 435.578 C 1820.56 425.869 1819.96 404.457 1820.76 395.527 L 1818.98 394.637 C 1804.06 407.639 1788.61 423.939 1774.5 438.161 L 1704.62 508.282 C 1649.44 563.029 1593.32 616.882 1538.35 671.814 C 1535.91 674.252 1532.73 677.111 1532.49 680.372 C 1534.16 680.812 1534.06 680.933 1535.75 680.929 C 1597.46 680.514 1659.17 680.433 1720.88 680.686 L 1788.11 680.973 C 1798.14 681.005 1811.31 680.46 1820.93 681.057 z M 1398.96 453.707 L 1398.72 694.749 C 1398.72 700.915 1398.23 748.84 1398.81 750.385 L 1400.63 749.989 C 1413.24 739.619 1426.95 725.233 1438.34 713.589 C 1444.45 707.342 1454.94 697.101 1460.3 690.553 C 1461.05 612.635 1460.33 479.584 1460.45 396.087 C 1460.13 395.657 1459.8 395.227 1459.47 394.796 C 1441.77 411.718 1416.1 439.262 1398.96 453.707 z M 1722.21 718.086 C 1722.95 729.039 1723.36 751.059 1721.29 761.442 C 1732.59 752.897 1743.96 744.438 1755.4 736.067 C 1764.05 729.687 1772.75 723.367 1781.48 717.105 C 1769.4 719.485 1734.63 719.447 1722.21 718.086 z M 1669.49 718.535 L 1485.95 718.669 C 1471.44 733.05 1438.59 764.124 1427.08 778.662 C 1432.14 778.19 1437.17 777.631 1442.25 777.517 L 1601.17 777.393 C 1622.41 777.391 1664.27 776.194 1683.92 777.839 C 1683.72 757.876 1683.76 737.911 1684.04 717.948 C 1679.25 718.146 1674.27 718.431 1669.49 718.535 z"/>
</svg>