<svg version="1.1" xmlns="http://www.w3.org/2000/svg" style="display: block;" viewBox="0 0 2048 2048" width="512" height="512" preserveAspectRatio="none">
<path transform="translate(0,0)" fill="rgb(246,120,24)" fill-opacity="0.00784314" d="M 0 0 L 2048 0 L 2048 2048 L 0 2048 L 0 0 z M 612.211 1228.23 C 600.961 1231.08 590.503 1229.8 578.94 1229.15 L 575.539 1230.67 C 578.801 1230.97 581.521 1230.98 584.801 1231.02 L 585.215 1231.82 L 584.103 1232.74 C 593.17 1232.37 602.146 1232.07 611.19 1231.27 C 621.697 1229.32 635.415 1234.27 646.431 1232.26 C 651.178 1232.06 657.705 1232.39 662.674 1232.47 C 647.907 1224.06 646.907 1224.3 629.593 1224.12 C 623.055 1224 622.514 1224.53 616.437 1226.73 L 612.211 1228.23 z"/>
<path transform="translate(0,0)" fill="rgb(122,163,249)" d="M 987.056 892.2 C 1020.54 896.44 1053.78 909.061 1086.4 917.001 C 1108.33 932.439 1111.99 933.998 1103.26 961.083 C 1093.39 981.335 1019.58 1105.1 996.686 1037.3 C 1003.25 1013.94 1013.37 1006.5 1028.11 988.678 C 1014.22 996.022 999.627 1001.95 985.539 1008.82 C 937.871 1032.06 894.17 1062.44 856.93 1100.3 C 852.419 1104.89 847.934 1109.65 843.129 1113.96 C 854.949 1112.28 874.282 1112.81 886.756 1112.82 L 954.703 1112.86 L 1188.25 1112.9 L 1607.8 1112.88 C 1670.08 1112.88 1732.24 1112.08 1794.49 1112.17 C 1820 1112.2 1876.94 1121.84 1840.27 1157.34 C 1833.66 1159.35 1830.14 1160.36 1822.9 1160.11 C 1823.37 1172.23 1824.75 1222.18 1822.63 1232.06 C 1831.24 1234.01 1843.97 1237.25 1848.03 1245.44 C 1860.12 1269.88 1835.43 1281.15 1816.62 1281.29 L 579.315 1280.23 L 325.137 1280.23 C 312.095 1280.18 299.053 1280.4 286.02 1280.91 C 260.971 1281.92 220.402 1289.13 202.646 1267.84 C 200.045 1264.72 198.265 1260.1 196.737 1256.3 C 212.801 1217.54 278.659 1232.8 313.467 1232.28 C 403.473 1230.92 494.13 1234.19 584.103 1232.74 C 593.17 1232.37 602.146 1232.07 611.19 1231.27 C 621.697 1229.32 635.415 1234.27 646.431 1232.26 C 651.178 1232.06 657.705 1232.39 662.674 1232.47 C 647.907 1224.06 646.907 1224.3 629.593 1224.12 L 629.061 1220.22 C 637.463 1221.35 649.431 1219.75 657.907 1220.44 C 681.376 1222.36 710.048 1222.63 732.903 1226.49 C 728.857 1214.56 723.703 1193.58 724.424 1180.49 C 724.599 1177.3 729.528 1170.95 729.307 1168.05 C 723.269 1164.27 708.471 1163.66 700.744 1162.71 C 681.811 1160.51 668.207 1162.14 650.507 1161.31 C 617.019 1159.76 585.412 1160.14 551.986 1160.25 L 326.694 1160.24 L 259.17 1160.28 C 245.914 1160.29 231.615 1160.63 218.439 1159.32 C 212.216 1158.69 208.534 1155.99 203.647 1152.48 C 195.555 1132.62 198.489 1114.79 222.812 1113.55 C 246.304 1112.35 269.235 1112.84 292.722 1112.87 L 416.885 1112.88 C 536.997 1112.88 658.925 1111.69 778.788 1113.06 C 783.639 1108.84 788.302 1104.04 792.87 1099.49 C 843.384 1049.2 892.583 994.186 959.569 965.694 C 973.949 959.578 989.095 954.084 1003.03 947.25 C 984.983 942.511 970.923 938.938 965.504 919.634 C 969.688 905.061 972.774 898.861 987.056 892.2 z"/>
<path transform="translate(0,0)" fill="rgb(26,76,231)" d="M 987.056 892.2 C 1020.54 896.44 1053.78 909.061 1086.4 917.001 C 1108.33 932.439 1111.99 933.998 1103.26 961.083 C 1093.39 981.335 1019.58 1105.1 996.686 1037.3 C 1003.25 1013.94 1013.37 1006.5 1028.11 988.678 C 1014.22 996.022 999.627 1001.95 985.539 1008.82 C 937.871 1032.06 894.17 1062.44 856.93 1100.3 C 852.419 1104.89 847.934 1109.65 843.129 1113.96 C 854.949 1112.28 874.282 1112.81 886.756 1112.82 L 954.703 1112.86 L 1188.25 1112.9 L 1607.8 1112.88 C 1670.08 1112.88 1732.24 1112.08 1794.49 1112.17 C 1820 1112.2 1876.94 1121.84 1840.27 1157.34 C 1833.66 1159.35 1830.14 1160.36 1822.9 1160.11 C 1805.7 1159.26 1778.47 1160.26 1760.34 1160.15 L 1596.61 1159.96 L 1135.68 1159.97 L 864.371 1159.15 L 792.492 1159.03 C 781 1159.01 760.794 1158.51 749.833 1159.91 C 734.985 1160.06 714.981 1159.67 700.744 1162.71 C 681.811 1160.51 668.207 1162.14 650.507 1161.31 C 617.019 1159.76 585.412 1160.14 551.986 1160.25 L 326.694 1160.24 L 259.17 1160.28 C 245.914 1160.29 231.615 1160.63 218.439 1159.32 C 212.216 1158.69 208.534 1155.99 203.647 1152.48 C 195.555 1132.62 198.489 1114.79 222.812 1113.55 C 246.304 1112.35 269.235 1112.84 292.722 1112.87 L 416.885 1112.88 C 536.997 1112.88 658.925 1111.69 778.788 1113.06 C 783.639 1108.84 788.302 1104.04 792.87 1099.49 C 843.384 1049.2 892.583 994.186 959.569 965.694 C 973.949 959.578 989.095 954.084 1003.03 947.25 C 984.983 942.511 970.923 938.938 965.504 919.634 C 969.688 905.061 972.774 898.861 987.056 892.2 z"/>
<path transform="translate(0,0)" fill="rgb(26,76,231)" d="M 196.737 1256.3 C 212.801 1217.54 278.659 1232.8 313.467 1232.28 C 403.473 1230.92 494.13 1234.19 584.103 1232.74 C 593.17 1232.37 602.146 1232.07 611.19 1231.27 C 621.697 1229.32 635.415 1234.27 646.431 1232.26 C 655.932 1234.79 685.144 1234.08 696.838 1234.07 L 772.433 1234.03 L 932.784 1234.13 C 959.057 1234.13 988.598 1234.79 1014.66 1233.96 C 1025.08 1235.99 1047 1233.89 1058.86 1233.9 L 1185.86 1233.55 L 1688.16 1233.6 C 1703.09 1233.6 1819.22 1233.82 1822.63 1232.06 C 1831.24 1234.01 1843.97 1237.25 1848.03 1245.44 C 1860.12 1269.88 1835.43 1281.15 1816.62 1281.29 L 579.315 1280.23 L 325.137 1280.23 C 312.095 1280.18 299.053 1280.4 286.02 1280.91 C 260.971 1281.92 220.402 1289.13 202.646 1267.84 C 200.045 1264.72 198.265 1260.1 196.737 1256.3 z"/>
<path transform="translate(0,0)" fill="rgb(197,206,251)" d="M 749.833 1159.91 C 774.923 1161.48 963.636 1158.2 970.085 1161.35 C 982.973 1185.04 982.428 1220.43 1009.67 1229.67 C 1007.64 1230.35 1005.85 1230.11 1003.99 1229.03 C 1000.33 1226.91 994.337 1223.02 991.632 1219.79 C 983.666 1210.27 976.511 1169.83 968.847 1162.68 C 966.588 1160.57 764.97 1161.52 743.091 1161 C 734.347 1166.58 732.521 1168.98 726.583 1177.52 C 725.892 1190.46 730.017 1211.4 733.93 1223.91 C 737.455 1226.85 741.727 1224.33 745.942 1227.49 C 744.911 1230.17 744.201 1230.02 741.576 1232.11 C 745.179 1235 1008.25 1229.38 1014.66 1233.96 C 988.598 1234.79 959.057 1234.13 932.784 1234.13 L 772.433 1234.03 L 696.838 1234.07 C 685.144 1234.08 655.932 1234.79 646.431 1232.26 C 651.178 1232.06 657.705 1232.39 662.674 1232.47 C 647.907 1224.06 646.907 1224.3 629.593 1224.12 L 629.061 1220.22 C 637.463 1221.35 649.431 1219.75 657.907 1220.44 C 681.376 1222.36 710.048 1222.63 732.903 1226.49 C 728.857 1214.56 723.703 1193.58 724.424 1180.49 C 724.599 1177.3 729.528 1170.95 729.307 1168.05 C 723.269 1164.27 708.471 1163.66 700.744 1162.71 C 714.981 1159.67 734.985 1160.06 749.833 1159.91 z"/>
<path transform="translate(0,0)" fill="rgb(122,163,249)" d="M 236.206 1580.45 C 337.653 1579.89 439.102 1580 540.548 1580.79 L 1171.56 1580.81 L 1602.27 1580.81 C 1639.37 1580.82 1676.54 1580.93 1713.63 1580.73 C 1740.54 1580.58 1768.07 1579.19 1795 1580.16 C 1809.01 1581.14 1825.62 1579.91 1837.27 1589 C 1848.04 1597.4 1847.8 1612.68 1838.37 1621.99 C 1830.87 1629.38 1824.25 1630.61 1814.16 1630.83 L 713.301 1630.7 L 381.877 1630.69 L 279.308 1630.72 C 261.855 1630.78 244.25 1631.23 226.805 1630.93 C 220.539 1630.83 214.749 1628.2 209.419 1625.09 C 204.324 1618.25 202.833 1614.43 200.63 1606.53 C 205.554 1583.29 214.742 1581.04 236.206 1580.45 z"/>
<path transform="translate(0,0)" fill="rgb(242,117,23)" d="M 1086.4 917.001 C 1092.24 914.89 1096.64 910.7 1101.86 907.284 C 1113.75 899.666 1125.59 891.964 1137.37 884.179 L 1263.48 801.216 C 1290.69 783.135 1350.09 739.02 1378.08 730.642 C 1391.49 726.628 1407.03 728.023 1420 733.113 C 1440.5 741.155 1454.09 755.53 1462.67 775.61 C 1469.96 792.696 1470.64 811.868 1463.54 829.156 C 1459.68 838.556 1452.97 848.707 1445.09 855.283 C 1429.74 868.093 1411.39 878.229 1394.7 889.206 L 1301.76 950.883 L 1200.42 1018.02 C 1183.55 1029.21 1158.68 1047.73 1141.22 1055.03 C 1140.58 1055.29 1139.94 1055.55 1139.29 1055.79 C 1088.13 1034.77 1120.07 1016.21 1148.77 991.845 C 1151.6 989.449 1159.97 982.861 1163.06 981.847 C 1188.79 965.933 1150.35 949.57 1180.24 926.979 C 1201.84 923.337 1199.3 911.7 1212.77 898.127 C 1218.7 892.151 1231.48 885.535 1239.2 881.204 C 1242.58 879.562 1243.39 879.461 1245.34 876.201 L 1243.97 875.642 C 1227.35 880.745 1213.1 893.401 1198.48 901.754 C 1171.12 917.385 1133.36 952.661 1103.26 961.083 C 1111.99 933.998 1108.33 932.439 1086.4 917.001 z"/>
<path transform="translate(0,0)" fill="rgb(252,176,59)" d="M 1263.5 859.277 C 1278.63 846.76 1386.95 774.427 1401.45 776.241 C 1406.84 776.914 1411.44 782.14 1414.02 786.502 C 1417.99 793.195 1421.52 800.737 1419.38 808.653 C 1418.55 811.704 1416.65 813.682 1414.34 815.719 C 1402 826.575 1386.89 835.421 1373.41 844.882 C 1350.66 860.851 1328.31 877.392 1304.99 892.543 C 1293.77 899.841 1282.02 906.21 1270.6 913.185 C 1263.76 917.359 1257.27 922.048 1250.38 926.134 C 1243.69 914.011 1242.63 896.029 1239.63 883.008 L 1239.2 881.204 C 1242.58 879.562 1243.39 879.461 1245.34 876.201 L 1243.97 875.642 C 1242.97 872.479 1260.11 861.646 1263.5 859.277 z"/>
<path transform="translate(0,0)" fill="rgb(244,195,144)" d="M 1263.5 859.277 C 1263.62 867.106 1252.09 874.544 1245.34 876.201 L 1243.97 875.642 C 1242.97 872.479 1260.11 861.646 1263.5 859.277 z"/>
<path transform="translate(0,0)" fill="rgb(244,195,144)" d="M 1180.24 926.979 C 1201.84 923.337 1199.3 911.7 1212.77 898.127 C 1218.7 892.151 1231.48 885.535 1239.2 881.204 L 1239.63 883.008 C 1242.63 896.029 1243.69 914.011 1250.38 926.134 C 1234.41 936.442 1217.81 949.08 1202.48 958.718 C 1193.52 965.16 1173.19 981.136 1163.06 981.847 C 1188.79 965.933 1150.35 949.57 1180.24 926.979 z"/>
<path transform="translate(0,0)" fill="rgb(243,210,185)" d="M 1163.06 981.847 C 1188.79 965.933 1150.35 949.57 1180.24 926.979 C 1213.38 928.718 1193.86 940.273 1202.48 958.718 C 1193.52 965.16 1173.19 981.136 1163.06 981.847 z"/>
<path transform="translate(0,0)" fill="rgb(26,76,231)" d="M 712.641 1284.99 C 746.812 1283.56 758.411 1375.5 761.61 1401.05 C 764.88 1427.16 740.814 1435.4 723.529 1425.76 C 713.883 1420.38 705.196 1367.85 702.683 1355.29 C 696.984 1361.64 693.913 1364.54 687.391 1370.1 C 672.876 1385.63 647.541 1419.29 623.538 1416.02 C 606.832 1413.75 604.427 1386.97 613.564 1377.29 C 632.175 1357.59 653.289 1339.71 671.699 1319.4 C 682.716 1307.24 698.451 1292.98 712.641 1284.99 z"/>
<path transform="translate(0,0)" fill="rgb(252,176,59)" d="M 1652.2 508.082 C 1655.1 507.948 1658.13 507.848 1660.98 508.515 C 1667.62 510.072 1674.57 514.414 1678.07 520.385 C 1680.72 524.894 1681.11 529.936 1679.6 534.9 C 1673.89 553.631 1586.56 641.878 1566.57 652.369 C 1562.42 652.57 1557.38 652.471 1553.3 651.8 C 1548.11 650.948 1543.44 648.723 1540.52 644.251 C 1538.08 640.518 1537.74 634.855 1538.92 630.79 C 1549.49 594.407 1622.07 526.622 1652.2 508.082 z"/>
<path transform="translate(0,0)" fill="rgb(252,176,59)" d="M 994.194 768.457 C 1000.55 768.257 1007.36 768.193 1013.84 768.294 C 1051.61 768.885 1090.2 766.303 1127.74 769.784 C 1131.72 770.153 1137.83 776.389 1140.8 779.147 C 1148.36 802.718 1138.55 817.012 1113.85 818.623 C 1073.29 819.979 1030.13 818.501 989.59 816.05 C 983.93 815.708 977.066 813.135 971.833 811.008 C 963.685 800.998 962.923 797.894 963.114 785.601 C 972.067 770.089 976.467 769.155 994.194 768.457 z"/>
<path transform="translate(0,0)" fill="rgb(252,176,59)" d="M 1100.48 507.99 C 1133.07 509.709 1190.36 582.484 1214.37 605.662 C 1233.89 624.508 1226.84 636.888 1207.55 652.441 C 1204.84 652.154 1202.59 651.958 1200.05 650.886 C 1190.05 646.66 1181.04 639.017 1172.87 632.041 C 1154.59 616.442 1089.16 552.264 1082.13 532.517 C 1080.79 528.767 1081.15 524.858 1082.94 521.313 C 1086.37 514.511 1093.55 510.368 1100.48 507.99 z"/>
<path transform="translate(0,0)" fill="rgb(252,176,59)" d="M 1383.91 395.131 C 1386.1 395.023 1388.21 394.965 1390.37 395.347 C 1396.46 396.421 1402.79 400.487 1406.16 405.698 C 1414.75 419 1412.69 536.497 1409.11 555.618 C 1401.79 562.878 1398.04 565.296 1389.06 570.003 C 1375.63 571.9 1363.7 559.681 1362.61 546.662 C 1359.84 513.456 1361.32 479.649 1361.16 446.317 C 1361.1 434.128 1361.82 420.327 1363.49 408.349 C 1370.67 400.314 1373.43 397.209 1383.91 395.131 z"/>
<path transform="translate(0,0)" fill="rgb(252,176,59)" d="M 1639.27 772.311 C 1655.43 771.395 1674.55 771.891 1690.99 771.894 C 1717.45 771.813 1743.92 771.893 1770.38 772.132 C 1782.56 780.117 1784.26 785.593 1787.34 799.081 C 1782.58 814.263 1776.19 817.067 1761.37 819.867 C 1736.77 819.751 1712.17 819.778 1687.56 819.949 C 1667.66 820.053 1641.83 821.257 1622.83 816.907 C 1601.38 795.576 1610.53 776.05 1639.27 772.311 z"/>
<path transform="translate(0,0)" fill="rgb(252,176,59)" d="M 1565.09 960.039 C 1592.31 963.949 1654.84 1035.86 1674.66 1057.19 C 1677.68 1060.44 1679.16 1066.24 1680.14 1070.63 C 1673.94 1083.1 1671.35 1085.09 1659.18 1092.16 C 1656.99 1092.17 1655.1 1091.67 1653.11 1090.82 C 1633.67 1082.47 1553.26 1005.18 1545.52 985.913 C 1543.8 981.637 1543.89 976.815 1545.97 972.674 C 1549.7 965.253 1557.66 962.296 1565.09 960.039 z"/>
<path transform="translate(0,0)" fill="rgb(197,206,251)" d="M 556.223 1220.34 C 548.092 1220.06 539.755 1220.25 531.741 1220.02 C 523.619 1219.34 503.578 1220.73 496.733 1216.5 C 478.645 1205.33 489.718 1186.62 504.506 1180.5 C 533.994 1168.31 564.615 1161.75 596.281 1163.05 C 601.805 1163.28 604.088 1166.39 608.972 1167.63 C 613.332 1168.57 619.721 1166.18 623.956 1168.4 L 623.243 1170.71 C 617.633 1176.26 589.127 1180.32 580.738 1181.92 C 573.923 1183.2 564.58 1182.75 558.133 1184.85 C 547.28 1188.39 541.292 1196.48 529.669 1199.27 C 526.935 1205.39 534.815 1213.76 540.129 1215.92 C 544.577 1217.23 549.811 1216.32 554.403 1216.34 C 575.435 1216.42 608.814 1214.91 629.061 1220.22 L 629.593 1224.12 C 623.055 1224 622.514 1224.53 616.437 1226.73 L 612.211 1228.23 C 600.961 1231.08 590.503 1229.8 578.94 1229.15 C 568.157 1227.22 565.314 1225.98 556.223 1220.34 z"/>
<path transform="translate(0,0)" fill="rgb(252,176,59)" d="M 1372.63 1033.48 C 1381.96 1031.03 1391.89 1033.79 1398.6 1040.71 C 1405.32 1047.64 1407.79 1057.64 1405.05 1066.9 C 1402.31 1076.15 1394.8 1083.2 1385.4 1085.36 C 1371.18 1088.62 1356.98 1079.87 1353.49 1065.7 C 1350.01 1051.54 1358.52 1037.2 1372.63 1033.48 z"/>
<path transform="translate(0,0)" fill="rgb(197,206,251)" fill-opacity="0.0980392" d="M 612.211 1228.23 L 611.19 1231.27 C 602.146 1232.07 593.17 1232.37 584.103 1232.74 L 585.215 1231.82 L 584.801 1231.02 C 581.521 1230.98 578.801 1230.97 575.539 1230.67 L 578.94 1229.15 C 590.503 1229.8 600.961 1231.08 612.211 1228.23 z"/>
</svg>