<svg version="1.1" xmlns="http://www.w3.org/2000/svg" style="display: block;" viewBox="0 0 2048 2048" width="512" height="512" preserveAspectRatio="none">
<path transform="translate(0,0)" fill="rgb(27,69,181)" d="M 1787.92 557.198 C 1759.93 524.834 1733.27 490.558 1706.03 457.514 C 1676.79 421.415 1647.5 385.148 1621.17 346.839 C 1616.24 339.669 1605.46 322.918 1605.94 313.852 C 1606.68 299.888 1619.3 294.058 1631.53 292.145 C 1656.82 305.391 1711.62 379.753 1731.91 405.395 L 1839.95 539.402 C 1845.6 546.337 1850.56 552.337 1856.74 558.868 C 1862.88 565.367 1870.7 572.12 1875.89 579.174 C 1877.23 592.425 1865.58 636.963 1862.19 653.184 L 1839.98 760.902 L 1770.2 1100.81 L 1742.74 1234.53 C 1737.18 1262.92 1737.75 1290.36 1721.94 1315.39 C 1705.16 1321.08 1617.56 1319.25 1593.28 1319.15 L 1469.49 1318.85 L 954.929 1318.88 L 787.251 1318.84 C 755.49 1318.81 725.978 1318.2 694.096 1318.89 C 690.975 1312.22 685.505 1275.89 684.114 1266.92 C 710.781 1265.02 755.769 1266.45 783.511 1266.45 L 974.019 1266.45 L 1306.6 1266.42 C 1369.55 1266.4 1433.49 1265.8 1496.38 1266.61 C 1496.72 1256.18 1502.47 1228.7 1504.73 1217.01 C 1511.36 1182.88 1518.3 1148.8 1525.54 1114.79 L 1574.9 884.101 C 1582.48 847.94 1591.15 809.272 1597.7 773.016 C 1555.28 771.457 1508.52 772.526 1465.79 772.533 L 1233.88 772.564 L 1148.12 772.656 C 1130.23 772.67 1112.1 773.008 1094.23 771.832 C 1082.63 771.067 1073.02 766.903 1070.64 754.604 C 1067.76 739.743 1069.27 724.464 1068.97 709.401 C 1069.67 669.613 1068.21 629.748 1069.29 589.986 C 1069.65 576.93 1076.91 565.893 1090.68 564.687 C 1109.29 563.058 1128.65 563.76 1147.39 563.79 L 1263.86 563.857 L 1503.5 563.857 C 1545.78 563.862 1588.3 563.714 1630.58 564.171 C 1635.75 564.227 1637.7 565.187 1641.9 568.081 C 1651.8 557.396 1661.19 556.126 1675.97 555.964 C 1693.94 555.767 1713.27 556.502 1731.33 556.676 C 1746.18 556.819 1774.33 555.527 1787.92 557.198 z M 1118.76 723.204 C 1153.89 722.166 1192.01 722.838 1227.37 722.841 L 1416.97 722.873 C 1449.91 723.016 1482.86 722.906 1515.8 722.546 C 1538.9 722.169 1562.72 721.376 1585.8 722.043 C 1592.22 722.229 1601.29 724.687 1606.66 728.363 C 1608.61 723.7 1611.39 711.598 1612.68 706.264 C 1617.02 687.787 1620.8 669.186 1624.03 650.486 C 1626.34 637.626 1627.95 625.433 1631.59 612.862 L 1117.9 612.686 C 1119.97 632.262 1118.21 659.921 1118.31 680.405 C 1118.36 692.199 1119.25 712.108 1118.76 723.204 z M 1676.5 1266.39 C 1680.94 1266.37 1682.32 1267.11 1685.63 1265.24 C 1687.76 1260.68 1688.66 1248.93 1689.66 1243.43 C 1696.78 1204.36 1704.87 1165.41 1712.69 1126.47 L 1774.31 819.722 C 1788.13 749.159 1802.55 678.713 1817.55 608.392 C 1790.04 608.153 1762.52 608.082 1735.01 608.179 C 1719.02 608.214 1700.3 608.804 1684.62 607.759 C 1676.46 658.496 1662.12 719.837 1651.4 770.699 L 1597.4 1028.97 L 1563.52 1191.01 C 1559.19 1211.39 1552.66 1248.69 1546.47 1266.87 C 1585.24 1265.25 1637.09 1265.96 1676.5 1266.39 z"/>
<path transform="translate(0,0)" fill="rgb(237,98,2)" d="M 1597.7 773.016 C 1555.28 771.457 1508.52 772.526 1465.79 772.533 L 1233.88 772.564 L 1148.12 772.656 C 1130.23 772.67 1112.1 773.008 1094.23 771.832 C 1082.63 771.067 1073.02 766.903 1070.64 754.604 C 1067.76 739.743 1069.27 724.464 1068.97 709.401 C 1069.67 669.613 1068.21 629.748 1069.29 589.986 C 1069.65 576.93 1076.91 565.893 1090.68 564.687 C 1109.29 563.058 1128.65 563.76 1147.39 563.79 L 1263.86 563.857 L 1503.5 563.857 C 1545.78 563.862 1588.3 563.714 1630.58 564.171 C 1635.75 564.227 1637.7 565.187 1641.9 568.081 L 1631.59 612.862 L 1117.9 612.686 C 1119.97 632.262 1118.21 659.921 1118.31 680.405 C 1118.36 692.199 1119.25 712.108 1118.76 723.204 C 1153.89 722.166 1192.01 722.838 1227.37 722.841 L 1416.97 722.873 C 1449.91 723.016 1482.86 722.906 1515.8 722.546 C 1538.9 722.169 1562.72 721.376 1585.8 722.043 C 1592.22 722.229 1601.29 724.687 1606.66 728.363 C 1604 742.645 1601.3 759.149 1597.7 773.016 z"/>
<path transform="translate(0,0)" fill="rgb(0,14,131)" d="M 177.436 413.495 C 181.672 396.185 191.556 384.251 210.418 388.3 C 258.085 398.533 305.972 409.515 353.468 420.33 L 431.823 437.989 C 533.779 460.263 528.59 450.282 547.905 553.862 L 567.633 658.024 L 647.5 1076.57 L 670.088 1195.2 C 673.799 1215.47 678.232 1247.15 683.823 1265.97 L 684.114 1266.92 C 685.505 1275.89 690.975 1312.22 694.096 1318.89 C 694.16 1326.03 698.986 1344.8 700.526 1353.19 C 705.611 1380.9 714.406 1414.71 716.459 1442.42 C 754.678 1422.94 803.191 1418.45 844.034 1431.92 C 880.995 1443.85 911.539 1470.26 928.69 1505.11 C 936.492 1520.61 941.433 1538.08 944.365 1555.14 C 973.131 1553.97 1004.85 1554.61 1033.91 1554.6 L 1169.99 1554.71 C 1198.24 1554.88 1233.66 1556.2 1261.59 1554.59 C 1261.72 1544.53 1264.26 1534.41 1267.21 1524.86 C 1299.97 1418.84 1450.71 1392.34 1525.49 1469.39 C 1549.83 1494.47 1562.59 1524.51 1567.76 1558.68 C 1566.98 1566.66 1566.38 1600.85 1567.28 1608.89 C 1563.62 1622.97 1552.12 1647.51 1544.21 1659.87 C 1522.31 1694.53 1487.51 1719.05 1447.51 1728.03 C 1406.34 1736.87 1363.34 1728.91 1328.07 1705.91 C 1293.23 1683.11 1269.89 1646.49 1261.4 1605.97 C 1242.56 1606.62 1222.2 1606.12 1203.21 1606.2 L 1074.48 1606.43 L 994.607 1606.46 C 978.606 1606.47 960.228 1607.04 944.562 1605.86 C 929.031 1673.69 883.881 1721.35 813.514 1731.14 C 773.131 1737.16 732.031 1726.55 699.608 1701.74 C 666.046 1675.62 644.259 1637.22 639.057 1595.02 C 633.509 1550.06 647.385 1514.68 674.76 1479.92 C 668.432 1456.24 662.225 1419.5 657.284 1394.63 C 646.313 1340.1 635.648 1285.52 625.288 1230.88 L 528.618 721.029 L 502.358 586.333 C 497.53 560.478 493.262 527.562 485.791 502.978 C 463.692 494.888 426.366 488.903 402.588 483.425 C 358.568 473.284 314.167 463.651 270.082 453.621 C 249.882 449.026 227.511 446.989 207.763 440.559 C 191.536 435.276 184.745 428.538 177.436 413.495 z M 797.498 1681.86 C 854.772 1678.94 898.84 1630.15 895.944 1572.88 C 893.049 1515.6 844.285 1471.51 787.008 1474.37 C 729.689 1477.24 685.556 1526.05 688.454 1583.37 C 691.352 1640.68 740.181 1684.79 797.498 1681.86 z M 1422.49 1680.93 C 1479.32 1675.85 1521.36 1625.83 1516.59 1568.98 C 1511.81 1512.14 1462 1469.83 1405.13 1474.31 C 1347.84 1478.82 1305.15 1529.08 1309.97 1586.34 C 1314.78 1643.61 1365.25 1686.04 1422.49 1680.93 z"/>
<path transform="translate(0,0)" fill="rgb(0,14,131)" d="M 787.289 1550.55 C 801.957 1547.94 815.957 1557.74 818.516 1572.42 C 821.076 1587.09 811.22 1601.06 796.533 1603.56 C 781.923 1606.05 768.05 1596.26 765.504 1581.66 C 762.958 1567.06 772.698 1553.15 787.289 1550.55 z"/>
<path transform="translate(0,0)" fill="rgb(0,14,131)" d="M 1408.11 1552.24 C 1422.46 1549.49 1436.3 1558.97 1438.92 1573.35 C 1441.55 1587.72 1431.94 1601.48 1417.54 1603.97 C 1403.32 1606.43 1389.78 1596.97 1387.19 1582.78 C 1384.6 1568.58 1393.94 1554.96 1408.11 1552.24 z"/>
<path transform="translate(0,0)" fill="rgb(237,98,2)" d="M 852.394 810.922 C 853.321 810.882 854.25 810.828 855.177 810.858 C 863.518 811.131 870.292 814.648 875.829 820.794 C 880.002 825.427 883.08 830.762 882.457 837.187 C 880.556 856.806 812.746 917.281 795.864 931.225 C 811.811 929.612 842.058 930.321 858.949 930.315 L 971.032 930.305 L 1091.56 930.302 C 1111.66 930.288 1132.34 929.756 1152.39 930.446 C 1159.37 931.011 1166.8 931.683 1172.1 936.804 C 1193.64 957.562 1173.59 976.274 1149.87 978.255 C 1124.05 980.411 1096.73 979.463 1070.77 979.421 L 934.001 979.642 C 890.731 978.931 847.17 980.114 803.918 978.676 L 803.183 979.527 C 805.379 985.318 816.687 991.58 821.087 997.672 C 834.889 1016.78 893.043 1056.16 880.737 1082.6 C 873.653 1097.82 858.039 1098.68 843.539 1088.86 C 808.296 1064.98 780.322 1030.24 751.396 999.242 C 739.385 986.308 719.635 967.581 715.455 951.073 C 720.833 930.597 752.824 902.566 768.828 886.743 C 794.755 861.109 821.637 830.073 852.394 810.922 z"/>
<path transform="translate(0,0)" fill="rgb(27,69,181)" d="M 1567.76 1558.68 C 1595.38 1559.19 1623 1559.08 1650.61 1558.34 C 1671.33 1557.98 1693.62 1557.16 1714.2 1559.39 C 1725.33 1560.59 1735.75 1575.39 1734.41 1586.23 C 1732.89 1598.57 1726.4 1605.64 1714.12 1607.31 C 1697.74 1609.54 1681.94 1608.94 1665.59 1608.89 L 1594.45 1608.56 C 1588.89 1608.53 1571.77 1607.99 1567.28 1608.89 C 1566.38 1600.85 1566.98 1566.66 1567.76 1558.68 z"/>
</svg>