<svg version="1.1" xmlns="http://www.w3.org/2000/svg" style="display: block;" viewBox="0 0 2048 2048" width="512" height="512" preserveAspectRatio="none">
<path transform="translate(0,0)" fill="rgb(20,83,191)" d="M 1023.74 182.354 C 1136.12 171.587 1204.68 415.836 1225.28 497.127 C 1229.59 514.12 1240.23 550.888 1241.22 567.38 C 1266.91 552.562 1312.76 534.6 1341.76 524.784 C 1437.76 492.991 1558.39 464.766 1654.43 508.961 C 1743.43 549.918 1723.45 660.352 1684.53 729.764 C 1672.34 751.484 1658.14 772.805 1647.2 795.301 C 1650.76 842.621 1669.02 891.94 1670.6 940.056 C 1670.99 951.842 1672.63 962.968 1670.98 974.891 C 1685.73 981.32 1700.75 988.083 1711.61 1000.32 C 1764.77 1060.24 1684.47 1153.64 1615.67 1107.63 C 1598.3 1096.26 1586.28 1078.32 1582.36 1057.93 C 1574.46 1014.61 1605.07 982.54 1646.2 975.281 C 1643.69 967.661 1640.78 944.24 1639.48 934.884 C 1634.49 898.973 1628.3 861.33 1627.72 825.133 C 1613.29 838.712 1594.11 864.156 1580.59 880.48 C 1553.29 913.71 1525.02 946.125 1495.8 977.682 C 1481.71 993.088 1474.12 1003.28 1458.06 1017.69 C 1532.85 1075.85 1675.8 1269.48 1704.85 1356.27 C 1717.51 1394.07 1721.09 1438.26 1702.48 1474.78 C 1687.03 1505.09 1659.87 1524.54 1627.89 1534.69 C 1542.22 1561.91 1395.13 1521.23 1312.68 1492.9 C 1289.2 1484.84 1263.76 1476.7 1241.69 1465.34 C 1239.84 1476.22 1236.22 1488.52 1233.5 1499.42 C 1216.24 1568.64 1202.28 1638.9 1172.26 1704.08 C 1160.7 1729.19 1148.14 1750.97 1134.14 1774.56 C 1129.02 1782.39 1123.63 1790.04 1117.98 1797.49 C 1098.98 1822.22 1070.29 1843.15 1038.78 1847.29 C 1010.06 1851.06 982.292 1841.25 960.056 1823.44 C 874.736 1755.12 818.548 1569.22 805.847 1466.18 C 734.734 1492.53 665.218 1517.37 590.774 1532.72 C 500.688 1551.29 357.394 1564.66 335.641 1444.61 C 322.733 1373.37 368.157 1291.42 407.327 1234.15 C 362.799 1191.64 328.166 1146.24 323.052 1082.11 C 316.419 998.931 379.216 898.536 432.913 838.049 C 424.34 826.461 415.951 814.739 407.75 802.885 C 367.283 743.319 323.046 654.7 335.247 580.823 C 350.384 489.17 477.675 482.778 549.76 497.298 C 563.05 489.857 592.867 465.334 608.266 454.748 C 582.189 415.688 600.499 368.609 642.53 351.008 C 681.477 335.05 721.224 346.928 738.29 386.974 C 754.457 424.913 741.582 465.71 701.829 481.133 C 676.732 490.87 650.465 487.002 626.105 476.008 C 612.575 485.542 599.202 495.299 585.994 505.275 C 602.592 506.763 628.672 513.417 645.178 517.931 C 699.024 532.657 756.52 549.921 805.462 577.101 C 811.297 548.356 814.697 519.137 822.071 490.507 C 848.359 388.438 898.661 198.082 1023.74 182.354 z M 1026.5 1323.14 C 1044.09 1311.04 1063.54 1299.91 1081.64 1288.33 C 1112.44 1268.28 1143.06 1247.94 1173.48 1227.31 C 1198.71 1210.21 1221.42 1190.11 1246.17 1173.77 C 1242.83 1145.61 1247.85 1117.24 1248.69 1089.12 C 1250.25 1036.73 1249.09 984.162 1248.72 931.752 C 1248.5 909.089 1245.43 886.247 1245.84 863.603 C 1214.2 841.583 1048.55 720.728 1022.36 714.914 C 950.834 758.741 885.666 805.003 818.75 855.474 C 813.216 859.648 807.466 863.615 801.94 867.801 C 801.913 889.945 800.247 912.515 799.833 934.839 C 799.102 980.999 798.933 1027.17 799.326 1073.33 C 799.493 1101.23 804.99 1148.42 801.783 1174.18 C 832.094 1193.41 859.49 1215.1 889.077 1235.24 C 933.429 1265.43 980.866 1291.16 1024.04 1323.13 C 1024.2 1323.24 1026.44 1323.14 1026.5 1323.14 z M 1246.49 1436.72 C 1301.41 1460.74 1348.93 1477.53 1407.37 1491.98 C 1438.88 1499.77 1470.82 1505.27 1501.72 1513.06 C 1553.32 1517.67 1613.84 1521.99 1656.51 1486.6 C 1674.38 1471.78 1684.59 1451.79 1686.6 1428.71 C 1694.59 1336.83 1581.11 1198.14 1523.79 1130.71 C 1498.89 1101.42 1467.28 1061.64 1437.83 1037.69 L 1436.99 1038.73 C 1428.22 1049.42 1415.2 1061.39 1405.18 1071.48 C 1380.6 1096.24 1354.73 1118.95 1328.66 1142.32 C 1310.82 1158.26 1290.27 1171.83 1274.49 1189.92 C 1272.83 1191.82 1271.76 1198.26 1271.67 1200.8 C 1269.24 1268.88 1257.91 1335.75 1250.36 1403.32 C 1249.14 1414.29 1248.43 1425.9 1246.49 1436.72 z M 1249.48 626.555 C 1255.76 644.534 1259.92 698.185 1262.11 718.799 C 1266.76 762.804 1268.68 806.75 1275.33 850.773 C 1285.7 860.135 1298.98 867.901 1309.51 876.965 C 1352.6 914.04 1400.38 953.452 1437.72 996.273 C 1458.32 979.393 1473.1 959.939 1491.18 941.27 C 1536.5 894.088 1577.93 843.324 1615.07 789.472 C 1591.7 726.658 1572.73 677.036 1506.3 647.406 C 1449.48 622.067 1381.11 616.679 1319.49 619.432 C 1300.24 620.384 1268.66 623.133 1249.48 626.555 z M 775.016 850.454 C 777.744 836.359 779.011 805.203 780.734 789.026 C 786.934 730.82 788.94 660.212 800.953 603.544 C 731.085 578.595 660.946 550.779 589.101 533.071 C 582.959 531.557 566.474 527.003 560.854 527.194 C 551.513 537.673 541.509 546.844 532.154 557.498 C 505.503 587.847 500.348 623.058 502.297 662.53 C 506.645 750.594 557.126 833.423 604.554 904.943 C 617.583 924.591 634.753 943.579 645.959 963.477 C 647.674 963.169 657.145 951.83 659.362 949.401 C 693.376 912.13 738.152 884.028 775.016 850.454 z M 1021.78 682.786 C 1028.5 678.921 1035.23 674.891 1041.78 670.754 C 1097.01 635.905 1156.64 605.505 1215.38 577.143 C 1213.4 569.881 1211.86 562.534 1210.27 555.187 C 1199.23 504.321 1187.63 453.382 1169.83 404.374 C 1164.76 390.413 1158.56 371.821 1150.74 359.302 C 1133.88 340.987 1116.17 320.024 1089.46 319.075 C 1067.77 318.305 1046.19 333.795 1031.66 348.648 C 982.694 398.706 940.861 478.001 913.211 541.616 C 907.307 555.32 901.565 569.093 895.984 582.932 C 893.13 590.047 888.147 603.833 884.456 610.048 C 904.002 616.207 1005.98 669.985 1021.78 682.786 z M 894.949 1429.58 C 898.358 1450.44 903.613 1470.95 910.652 1490.88 C 936.154 1562.23 986.39 1644.32 1046.57 1691.6 C 1106.19 1738.44 1131.5 1673.87 1164.65 1636.2 C 1187.05 1594.56 1194.49 1551.63 1203.87 1505.83 C 1207.28 1489.19 1210.43 1471.82 1215.61 1455.67 C 1208.51 1453.1 1196.61 1446.56 1189.45 1442.89 L 1147.65 1421.61 C 1121.18 1408.22 1094.82 1394.61 1068.58 1380.78 C 1057.11 1374.72 1035.49 1363.86 1025.59 1356.68 C 1005.87 1366.35 977.66 1384 957.168 1395.29 C 944.118 1402.45 931.018 1409.52 917.87 1416.49 C 911.991 1419.64 899.717 1425.71 894.949 1429.58 z M 829.16 1427.56 C 843.029 1420.62 856.973 1414.69 871.004 1407.63 C 894.41 1395.85 918.59 1382.56 942.513 1372.08 C 956.764 1364.21 981.841 1349.28 995.667 1340.51 C 958.324 1313.91 914.704 1289.47 875.993 1262.97 C 856.383 1249.55 823.967 1222.55 806.704 1212.4 C 806.694 1276.44 815.411 1341.19 825.368 1404.47 C 826.539 1411.91 828.626 1420.14 829.16 1427.56 z M 1051.21 1339.83 C 1069.58 1347.88 1091.49 1362.46 1111.09 1371.84 C 1146.32 1391.37 1187.74 1407.65 1219.74 1426.99 C 1223.11 1369.89 1234.93 1311.75 1239.29 1254.44 C 1239.89 1246.51 1242.84 1218.21 1241.72 1211.76 C 1196.6 1248.29 1149.21 1281.94 1099.85 1312.52 C 1087.58 1320.15 1064.36 1334.63 1051.21 1339.83 z M 1275.21 1151.12 C 1304.77 1127.35 1323.72 1108.72 1350.75 1082.24 C 1373.23 1062.31 1398.43 1035.53 1420.57 1017.78 C 1385.89 984.877 1352.17 951.011 1315.97 919.783 C 1306.91 911.973 1285.59 893.014 1275.83 888.167 L 1275.94 1062.68 C 1275.9 1087.83 1277.11 1127.61 1275.21 1151.12 z M 698.791 1086.85 C 707.374 1094.51 715.777 1100.48 724.453 1107.77 C 740.885 1121.59 756.637 1136.21 771.655 1151.56 C 771.752 1130.85 770.735 1110.83 770.525 1090.31 L 770.37 980.836 C 770.313 964.893 770.538 948.951 771.045 933.016 C 771.467 919.394 772.496 906.589 771.171 893.04 C 769.705 891.628 770.475 891.926 769.118 891.658 C 759.411 901.178 748.424 910.376 737.952 919.093 C 704.093 947.276 670.002 975.393 638.58 1006.32 C 634.645 1010.19 630.687 1014.11 626.539 1017.76 C 643.136 1031.12 656.484 1044.48 671.428 1059.67 C 679.18 1067.55 690.622 1080.5 698.791 1086.85 z M 1613.86 1066.14 C 1626.44 1046.1 1637.92 1017.55 1653.83 1001.25 C 1638.61 1002 1624.75 1010.2 1616.76 1023.17 C 1608.77 1036.14 1607.69 1052.22 1613.86 1066.14 z M 635.242 444.082 C 635.95 440.758 636.63 437.428 637.28 434.092 C 643.437 403.923 646.602 388.775 673.648 370.906 C 669.776 369.165 660.337 372.297 656.264 373.526 C 629.625 381.561 614.532 422.863 635.242 444.082 z M 1246.48 828.805 C 1238.33 799.128 1227.05 617.087 1216.51 610.174 L 1215.23 610.144 C 1175.02 624.971 1137.47 647.328 1100.76 669.129 C 1089.01 676.107 1062.1 693.601 1050.93 698.403 C 1061.02 703.136 1088.21 720.74 1098.51 727.498 C 1114.54 738.001 1137.43 750.734 1152.5 761.507 C 1172.09 775.178 1191.23 789.964 1210.57 803.934 C 1219.24 810.193 1237.44 824.408 1246.48 828.805 z M 996.224 698.528 L 889.86 646.981 C 871.888 638.056 845.452 625.253 828.934 614.362 C 819.512 662.271 813.068 710.718 809.637 759.424 C 808.49 773.928 807.518 820.39 805.373 829.617 C 839.293 803.909 865.382 781.998 902.326 759.514 C 935.752 735.244 959.396 718.47 996.224 698.528 z M 608.839 1037.35 C 596.864 1049.64 583.671 1061.06 571.929 1073.34 C 533.105 1113.95 497.573 1157.42 463.659 1202.18 C 457.34 1210.52 450.732 1218.99 443.78 1226.83 C 448.988 1231.54 494.627 1268.17 498.896 1268.71 C 521.825 1209.97 553.033 1154.81 591.572 1104.9 C 603.057 1089.74 620.015 1073.73 629.8 1059.42 C 627.968 1056.17 613.197 1042.48 608.839 1037.35 z M 1125.6 303.293 C 1123.35 286.584 1081.72 237.363 1067.64 228.048 C 939.192 143.077 861.489 440.314 845.781 511.646 C 842.655 525.922 839.926 540.282 837.599 554.709 C 836.135 563.776 834.541 577.091 832.235 585.428 C 840.009 587.892 855.978 597.096 859.265 597.77 C 862.593 580.185 888.299 525.639 897.876 504.745 C 930.978 434.238 967.427 360.557 1031 312.423 C 1069.69 283.134 1083.19 283.543 1125.6 303.293 z M 1634.95 759.379 C 1670.23 695.419 1733.06 584.095 1642.28 534.637 C 1611.58 517.911 1564.6 513.389 1529.57 515.394 C 1461.29 518.681 1312.26 555.332 1246.46 596.712 C 1246.23 596.992 1246.01 597.272 1245.78 597.552 C 1256.92 598.031 1296.67 593.647 1310.73 592.488 C 1381.96 586.614 1464.76 593.315 1529.89 625.959 C 1575.54 648.551 1622.67 710.219 1634.95 759.379 z M 650.992 1079.28 C 637.882 1098.68 623.01 1117.15 609.068 1136.01 C 594.823 1155.34 581.408 1175.26 568.86 1195.73 C 557.582 1214.45 547.242 1233.71 537.878 1253.45 C 533.062 1263.59 527.775 1276.44 522.602 1286.06 C 530.716 1291.92 559.405 1307.37 569.297 1313.04 C 644.639 1356.28 715.951 1388.49 798.544 1415.41 C 795.763 1406.08 792.733 1378.7 791.305 1367.75 C 786.512 1329.8 782.606 1291.73 779.589 1253.59 C 778.017 1233.77 777.318 1209.84 774.842 1190.63 C 757.085 1170.25 734.054 1152.14 713.961 1133.9 C 693.461 1115.29 671.144 1098.3 650.992 1079.28 z M 427.726 1251.78 C 391.857 1315.38 311.369 1445.63 404.96 1499.17 C 434.434 1516.03 472.131 1518.36 505.234 1516.48 C 510.726 1516.18 521.894 1515.64 526.889 1514.63 C 464.97 1474.34 461.13 1414.5 474.597 1347.03 C 478.198 1328.99 481.401 1313.91 491.012 1297.87 C 472.608 1285.06 444.88 1265.88 427.726 1251.78 z M 512.732 1314.91 C 497.577 1380.87 476.454 1463.9 556.84 1495.74 C 563.285 1498.29 571.103 1501.77 576.964 1505.43 C 588.701 1504.97 613.316 1498.91 625.279 1495.89 C 664.907 1485.88 704.008 1473.89 742.437 1459.96 C 757.672 1454.38 772.67 1447.87 787.85 1441.98 C 770.87 1437.2 752.405 1428.3 735.341 1422.18 C 659.411 1394.96 588.255 1358.13 518.999 1317.05 C 517.125 1315.94 516.093 1315.11 513.983 1314.12 L 512.732 1314.91 z M 832.863 1456.09 C 839.407 1481.18 843.241 1507.11 849.52 1532.36 C 869.027 1610.81 915.731 1767.72 987.815 1809.94 C 1004.38 1819.64 1022.18 1823.53 1040.99 1818.38 C 1077.41 1808.41 1105.23 1771.18 1122.89 1739.82 C 1125.56 1735.07 1130.51 1727.63 1130.93 1722.23 C 1097.33 1742.44 1062.53 1742.3 1030.34 1718.69 C 962.659 1669.02 920.357 1586.32 887.901 1510.92 C 879.548 1491.51 868.772 1462.77 864.719 1442.38 C 855.004 1446.65 842.028 1451.65 832.863 1456.09 z M 608.936 996.789 C 612.202 993.296 623.36 982.463 624.791 979.33 C 609.114 962.368 584.393 929.956 571.339 910.191 C 516.613 827.334 456.474 711.305 474.326 608.739 C 479.047 581.619 499.984 537.964 523.12 522.289 C 519.283 520.415 513.454 520.329 508.994 519.817 C 463.382 514.583 392.873 520.244 370.097 567.593 C 354.61 599.79 363.362 649.85 375.412 681.812 C 409.856 772.789 476.582 851.564 540.137 923.862 C 553.641 939.224 566.786 954.07 580.69 968.933 C 589.77 978.64 599.777 987.411 608.936 996.789 z M 449.8 864.582 C 429.675 887.788 417.809 905.786 401.583 931.963 C 373.339 977.527 347.866 1027.66 351.742 1083 C 354.512 1122.56 374.085 1154.54 398.713 1184.33 C 406.197 1193.38 415.128 1201.93 422.414 1211.21 C 428.508 1198.98 441.69 1182.96 450.812 1172.21 C 488.61 1119.37 540.518 1060.43 589.277 1017.72 C 556.249 983.843 525.169 950.177 494.424 914.186 C 490.339 909.404 451.847 865.405 449.8 864.582 z"/>
<path transform="translate(0,0)" fill="rgb(20,83,191)" d="M 1028.55 854.396 C 1053.76 853.325 1064.79 868.98 1084.11 879.538 C 1086.18 880.667 1096.61 881.62 1099.57 881.963 C 1110.21 883.195 1124.05 889.094 1132.51 895.713 C 1155.64 913.816 1159.16 939.116 1162.95 965.886 C 1178.49 984.944 1187.59 999.458 1187.87 1025.28 C 1188.02 1038.79 1182.55 1054.45 1175.25 1065.67 C 1172.76 1069.49 1166.24 1078.37 1164.94 1082.29 C 1158.18 1102.59 1155.77 1122.01 1139.22 1137.53 C 1121.77 1153.89 1101.47 1155.46 1080.77 1163.7 C 1071.02 1167.58 1060.08 1177.1 1047.99 1179.97 C 1037.34 1182.49 1032.78 1182.35 1021.76 1181.85 C 990.906 1177.81 997.075 1171.58 975.792 1163.39 C 956.344 1155.9 937.043 1158.08 916.62 1140.96 C 894.226 1122.18 895.051 1105.03 883.812 1081.72 C 872.704 1062.23 862.398 1049.25 859.716 1026.56 C 856.045 995.503 872.677 986.26 882.681 962.998 C 890.631 944.511 883.383 927.972 901.229 908.045 C 921.579 885.322 941.727 884.084 969.398 874.543 C 998.188 862.805 995.106 857.844 1028.55 854.396 z M 975.227 1130.82 L 968.947 1127.78 C 939.783 1118.93 934.558 1092.56 917.767 1072.47 L 914.391 1070.98 C 912.914 1085.34 917.214 1099.7 926.343 1110.9 C 935.809 1122.66 949.572 1130.16 964.587 1131.74 C 968.499 1132.14 972.007 1132.93 975.227 1130.82 z"/>
<path transform="translate(0,0)" fill="rgb(246,166,26)" d="M 990.292 896.049 C 994.562 891.332 999.812 887.607 1005.67 885.134 C 1021.31 878.66 1034.22 882.885 1048.54 889.124 C 1054.98 892.087 1072.54 904.851 1074.38 905.264 C 1099.02 910.778 1120.51 911.598 1132.02 939.483 C 1135.72 948.45 1136.84 963.874 1133.37 974.652 C 1146 981.333 1155.45 992.781 1159.6 1006.46 C 1163.4 1018.86 1162.82 1038.55 1156.04 1049.84 C 1147.9 1060.84 1142.83 1063.01 1134.98 1071.47 C 1141.67 1114.34 1112.24 1130.68 1075.52 1134.22 C 1073.64 1135.03 1070.79 1136.36 1068.96 1136.99 C 1064.05 1140.44 1059.06 1143.75 1053.99 1146.93 C 1008.26 1175.12 1009.15 1137.02 975.227 1130.82 L 968.947 1127.78 C 939.783 1118.93 934.558 1092.56 917.767 1072.47 L 914.391 1070.98 C 907.638 1059.15 902.412 1058.95 894.127 1049.25 C 876.102 1029.56 884.821 1004.78 902.436 988.543 C 905.857 984.051 908.647 979.496 911.651 974.736 C 912.653 970.837 911.766 962.637 911.287 958.49 C 908.5 950.167 912.351 938.865 917.335 932.039 C 929.067 915.972 944.424 909.148 963.459 905.839 C 968.838 905.99 975.911 905.98 981.138 906.399 C 984.181 902.176 986.698 899.75 990.292 896.049 z"/>
<path transform="translate(0,0)" fill="rgb(237,143,4)" d="M 1133.37 974.652 C 1146 981.333 1155.45 992.781 1159.6 1006.46 C 1163.4 1018.86 1162.82 1038.55 1156.04 1049.84 C 1147.9 1060.84 1142.83 1063.01 1134.98 1071.47 C 1141.67 1114.34 1112.24 1130.68 1075.52 1134.22 C 1070.4 1127.52 1067.17 1125.24 1062.11 1117.19 C 1052.15 1122.52 1040.99 1125.13 1032.7 1132.7 C 1032.43 1132.49 1032.16 1132.28 1031.89 1132.07 L 1030.55 1130.98 C 1020.63 1123.08 1014.21 1114.28 1006.53 1104.35 C 1024.7 1082.58 1039.07 1076.59 1063.89 1065.53 C 1085.81 1055.76 1102.26 1006.23 1108.47 984.489 C 1109.6 984.205 1115.02 987.964 1117.07 988.819 C 1123.14 985.928 1125.91 984.201 1130.35 979.19 C 1130.99 977.422 1132.18 976.206 1133.37 974.652 z"/>
<path transform="translate(0,0)" fill="rgb(237,143,4)" d="M 1133.37 974.652 C 1146 981.333 1155.45 992.781 1159.6 1006.46 C 1163.4 1018.86 1162.82 1038.55 1156.04 1049.84 C 1147.9 1060.84 1142.83 1063.01 1134.98 1071.47 C 1128.6 1066.36 1121.33 1061.34 1113.12 1060.66 L 1110.63 1058.91 C 1110.56 1058.77 1117.82 1013.61 1116.29 1008.32 C 1115.83 1006.72 1116.19 990.355 1117.07 988.819 C 1123.14 985.928 1125.91 984.201 1130.35 979.19 C 1130.99 977.422 1132.18 976.206 1133.37 974.652 z"/>
<path transform="translate(0,0)" fill="rgb(195,102,0)" d="M 1130.35 979.19 C 1127.96 1001.08 1129.7 1022.14 1137.02 1043.05 C 1140.71 1044.38 1153.59 1048.56 1156.04 1049.84 C 1147.9 1060.84 1142.83 1063.01 1134.98 1071.47 C 1128.6 1066.36 1121.33 1061.34 1113.12 1060.66 L 1110.63 1058.91 C 1110.56 1058.77 1117.82 1013.61 1116.29 1008.32 C 1115.83 1006.72 1116.19 990.355 1117.07 988.819 C 1123.14 985.928 1125.91 984.201 1130.35 979.19 z"/>
<path transform="translate(0,0)" fill="rgb(237,143,4)" d="M 1113.12 1060.66 C 1121.33 1061.34 1128.6 1066.36 1134.98 1071.47 C 1141.67 1114.34 1112.24 1130.68 1075.52 1134.22 C 1070.4 1127.52 1067.17 1125.24 1062.11 1117.19 C 1088.79 1108.61 1104.85 1086.33 1113.12 1060.66 z"/>
<path transform="translate(0,0)" fill="rgb(246,166,26)" d="M 1110.63 1058.91 L 1113.12 1060.66 C 1104.85 1086.33 1088.79 1108.61 1062.11 1117.19 C 1058.66 1109.2 1058.96 1097.2 1063.27 1089.48 C 1073.7 1070.79 1091.68 1065.1 1110.63 1058.91 z"/>
<path transform="translate(0,0)" fill="rgb(252,207,101)" d="M 963.459 905.839 C 968.838 905.99 975.911 905.98 981.138 906.399 C 997.166 921.847 1003.91 925.624 981.626 942.424 C 962.365 956.945 967.739 980.079 944.27 991.564 C 934.18 992.745 928.552 990.28 921.619 982.942 C 917.682 979.775 916.196 977.25 911.651 974.736 C 912.653 970.837 911.766 962.637 911.287 958.49 C 908.5 950.167 912.351 938.865 917.335 932.039 C 929.067 915.972 944.424 909.148 963.459 905.839 z"/>
<path transform="translate(0,0)" fill="rgb(254,242,205)" d="M 911.287 958.49 C 908.5 950.167 912.351 938.865 917.335 932.039 C 929.067 915.972 944.424 909.148 963.459 905.839 C 960.885 910.828 952.881 916.542 948.168 919.926 C 932.397 931.252 925.953 946.943 922.491 965.665 C 917.266 965.356 915.606 962.536 911.287 958.49 z"/>
<path transform="translate(0,0)" fill="rgb(254,242,182)" d="M 911.287 958.49 C 915.606 962.536 917.266 965.356 922.491 965.665 C 922.575 970.727 923.234 978.48 921.619 982.942 C 917.682 979.775 916.196 977.25 911.651 974.736 C 912.653 970.837 911.766 962.637 911.287 958.49 z"/>
<path transform="translate(0,0)" fill="rgb(237,143,4)" d="M 911.651 974.736 C 916.196 977.25 917.682 979.775 921.619 982.942 C 928.552 990.28 934.18 992.745 944.27 991.564 C 954.334 1001.47 932.783 1047.01 931.312 1059.6 C 926.761 1063.46 921.237 1067.72 917.767 1072.47 L 914.391 1070.98 C 907.638 1059.15 902.412 1058.95 894.127 1049.25 C 876.102 1029.56 884.821 1004.78 902.436 988.543 C 905.857 984.051 908.647 979.496 911.651 974.736 z"/>
<path transform="translate(0,0)" fill="rgb(252,207,101)" d="M 902.436 988.543 C 905.519 989.181 908.613 989.77 911.716 990.308 C 924.411 1001.58 930.515 1026.55 919.493 1041.09 C 913.477 1049.03 902.44 1047.66 894.127 1049.25 C 876.102 1029.56 884.821 1004.78 902.436 988.543 z"/>
<path transform="translate(0,0)" fill="rgb(252,207,101)" d="M 931.312 1059.6 C 963.288 1058.09 979.598 1082.15 991.173 1107.93 C 983.339 1116.64 978.661 1121.23 968.947 1127.78 C 939.783 1118.93 934.558 1092.56 917.767 1072.47 C 921.237 1067.72 926.761 1063.46 931.312 1059.6 z"/>
<path transform="translate(0,0)" fill="rgb(252,207,101)" d="M 990.292 896.049 C 994.562 891.332 999.812 887.607 1005.67 885.134 C 1021.31 878.66 1034.22 882.885 1048.54 889.124 C 1050.6 900.948 1051.01 901.685 1047.47 913.21 C 1019.2 921.884 1007.4 922.137 990.292 896.049 z"/>
<path transform="translate(0,0)" fill="rgb(195,102,0)" d="M 1062.11 1117.19 C 1067.17 1125.24 1070.4 1127.52 1075.52 1134.22 C 1073.64 1135.03 1070.79 1136.36 1068.96 1136.99 C 1059.33 1129.68 1050.91 1145.77 1032.7 1132.7 C 1040.99 1125.13 1052.15 1122.52 1062.11 1117.19 z"/>
<path transform="translate(0,0)" fill="rgb(252,207,101)" d="M 1032.52 964.38 C 1047.54 962.316 1059.42 975.754 1064.93 988.107 C 1078.82 1019.23 1069.11 1062.76 1030.96 1069.49 C 1023.67 1070.78 1021.49 1070.43 1014.64 1067.7 C 990.304 1057.92 967.155 1037.4 972.934 1008.8 C 979.333 977.138 1005.12 967.841 1032.52 964.38 z"/>
<path transform="translate(0,0)" fill="rgb(252,207,101)" d="M 1076.59 912.982 C 1109.66 912.883 1112.22 959.036 1107.8 982.982 L 1100.7 979.487 C 1078.27 968.976 1040.23 930.363 1076.59 912.982 z"/>
<path transform="translate(0,0)" fill="rgb(128,185,254)" d="M 523.12 522.289 C 532.696 522.486 552.234 523.639 560.854 527.194 C 551.513 537.673 541.509 546.844 532.154 557.498 C 505.503 587.847 500.348 623.058 502.297 662.53 C 506.645 750.594 557.126 833.423 604.554 904.943 C 617.583 924.591 634.753 943.579 645.959 963.477 C 642.309 967.742 630.447 976.471 625.555 979.398 L 624.791 979.33 C 609.114 962.368 584.393 929.956 571.339 910.191 C 516.613 827.334 456.474 711.305 474.326 608.739 C 479.047 581.619 499.984 537.964 523.12 522.289 z"/>
<path transform="translate(0,0)" fill="rgb(128,185,254)" d="M 864.719 1442.38 C 871.31 1439.34 888.84 1430.74 894.949 1429.58 C 898.358 1450.44 903.613 1470.95 910.652 1490.88 C 936.154 1562.23 986.39 1644.32 1046.57 1691.6 C 1106.19 1738.44 1131.5 1673.87 1164.65 1636.2 C 1170.31 1651.2 1140.7 1708.85 1130.93 1722.23 C 1097.33 1742.44 1062.53 1742.3 1030.34 1718.69 C 962.659 1669.02 920.357 1586.32 887.901 1510.92 C 879.548 1491.51 868.772 1462.77 864.719 1442.38 z"/>
<path transform="translate(0,0)" fill="rgb(128,185,254)" d="M 859.265 597.77 C 862.593 580.185 888.299 525.639 897.876 504.745 C 930.978 434.238 967.427 360.557 1031 312.423 C 1069.69 283.134 1083.19 283.543 1125.6 303.293 C 1133.11 313.092 1152.15 347.169 1150.74 359.302 C 1133.88 340.987 1116.17 320.024 1089.46 319.075 C 1067.77 318.305 1046.19 333.795 1031.66 348.648 C 982.694 398.706 940.861 478.001 913.211 541.616 C 907.307 555.32 901.565 569.093 895.984 582.932 C 893.13 590.047 888.147 603.833 884.456 610.048 C 876.937 605.181 867.497 602.773 859.265 597.77 z"/>
<path transform="translate(0,0)" fill="rgb(128,185,254)" d="M 629.8 1059.42 C 636.496 1063.25 645.733 1073.53 650.992 1079.28 C 637.882 1098.68 623.01 1117.15 609.068 1136.01 C 594.823 1155.34 581.408 1175.26 568.86 1195.73 C 557.582 1214.45 547.242 1233.71 537.878 1253.45 C 533.062 1263.59 527.775 1276.44 522.602 1286.06 C 516.3 1281.9 503.856 1274.05 498.896 1268.71 C 521.825 1209.97 553.033 1154.81 591.572 1104.9 C 603.057 1089.74 620.015 1073.73 629.8 1059.42 z"/>
<path transform="translate(0,0)" fill="rgb(128,185,254)" d="M 491.012 1297.87 C 495.846 1301.22 510.506 1310.68 512.732 1314.91 C 497.577 1380.87 476.454 1463.9 556.84 1495.74 C 563.285 1498.29 571.103 1501.77 576.964 1505.43 C 560.413 1512.01 542.222 1511.27 526.889 1514.63 C 464.97 1474.34 461.13 1414.5 474.597 1347.03 C 478.198 1328.99 481.401 1313.91 491.012 1297.87 z"/>
<path transform="translate(0,0)" fill="rgb(252,207,101)" d="M 1653.83 1001.25 C 1658.52 1001.02 1663.21 1001.5 1667.75 1002.69 C 1685.47 1007.3 1698.79 1021.94 1701.72 1040.01 C 1704.65 1058.08 1696.63 1076.18 1681.28 1086.16 C 1665.93 1096.13 1646.13 1096.1 1630.81 1086.08 C 1623.36 1081.2 1617.48 1074.28 1613.86 1066.14 C 1626.44 1046.1 1637.92 1017.55 1653.83 1001.25 z"/>
<path transform="translate(0,0)" fill="rgb(246,166,26)" d="M 1667.75 1002.69 C 1685.47 1007.3 1698.79 1021.94 1701.72 1040.01 C 1704.65 1058.08 1696.63 1076.18 1681.28 1086.16 C 1665.93 1096.13 1646.13 1096.1 1630.81 1086.08 C 1637.64 1080.66 1656.78 1079.89 1664.03 1076.4 C 1673.67 1071.76 1678.92 1050.63 1681.57 1040.97 C 1678.19 1030.51 1665.67 1009.31 1667.75 1002.69 z"/>
<path transform="translate(0,0)" fill="rgb(252,207,101)" d="M 673.648 370.906 C 682.005 372.203 686.52 372.825 694.067 377.171 C 716.306 390.136 723.326 417.979 709.991 439.862 C 703.262 450.89 692.393 458.762 679.816 461.717 C 668.194 464.327 655.519 461.762 646.052 454.473 C 641.03 451.474 638.281 449.029 635.242 444.082 C 635.95 440.758 636.63 437.428 637.28 434.092 C 643.437 403.923 646.602 388.775 673.648 370.906 z"/>
<path transform="translate(0,0)" fill="rgb(246,166,26)" d="M 694.067 377.171 C 716.306 390.136 723.326 417.979 709.991 439.862 C 703.262 450.89 692.393 458.762 679.816 461.717 C 668.194 464.327 655.519 461.762 646.052 454.473 C 648.375 453.078 651.207 452.509 653.713 451.148 C 660.49 447.469 666.971 443.128 672.906 438.27 C 693.15 421.698 692.14 400.463 694.067 377.171 z"/>
</svg>