<svg version="1.1" xmlns="http://www.w3.org/2000/svg" style="display: block;" viewBox="0 0 2048 2048" width="512" height="512" preserveAspectRatio="none">
<defs>
	<linearGradient id="Gradient1" gradientUnits="userSpaceOnUse" x1="208.181" y1="1021.37" x2="732.333" y2="1004.71">
		<stop class="stop0" offset="0" stop-opacity="1" stop-color="rgb(5,54,217)"/>
		<stop class="stop1" offset="1" stop-opacity="1" stop-color="rgb(50,110,220)"/>
	</linearGradient>
</defs>
<path transform="translate(0,0)" fill="url(#Gradient1)" d="M 354.438 318.449 C 352.404 304.288 362.949 280.606 378.881 278.832 C 385.106 278.139 393.173 278.904 399.472 279.53 C 476.932 287.224 554.556 296.04 630.697 312.604 C 641.8 315.019 659.121 318.401 668.965 322.924 C 685.451 326.43 699.767 335.332 708.926 349.59 C 714.147 357.716 715.517 365.314 713.497 374.871 C 711.529 384.179 706.481 393.496 698.233 398.564 C 666.397 418.127 551.464 436.319 510.243 443.867 L 394.255 465.472 C 391.146 466.554 387.051 467.575 384.883 469.802 C 387.751 471.502 389.429 470.876 393.306 470.967 L 395.249 471.311 C 405.606 473.066 420.108 473.563 429.879 475.179 C 484.009 484.134 676.946 489.382 707.536 530.997 C 713.28 538.845 715.55 548.708 713.815 558.277 C 711.64 570.663 703.147 581.234 692.804 587.998 C 663.631 607.074 497.154 632.262 451.919 640.734 C 427.859 645.239 404.151 651.601 380.049 655.813 C 401.507 657.988 423.02 660.731 444.429 663.422 C 515.625 672.371 587.607 678.049 657.512 694.925 C 683.922 701.301 718.779 714.425 714.173 748.279 C 712.853 757.89 707.821 766.602 700.156 772.549 C 653.343 808.273 451.417 819.508 381.467 842.728 C 409.614 843.664 431.827 844.897 460.304 847.598 C 504.595 852.193 548.723 858.245 592.615 865.744 C 624.563 871.198 657.635 877.25 688.101 888.482 C 705.917 895.05 716.69 910.638 715.477 929.792 C 714.792 940.688 709.781 950.859 701.559 958.043 C 675.595 980.731 527.105 1003.3 488.781 1010.06 C 464.513 1014.34 423.244 1018.43 398.885 1026.43 C 416.164 1027.6 433.511 1027.38 450.814 1028.49 C 503.631 1031.89 675.482 1045.26 706.335 1080.39 C 713.016 1088 716.257 1099.12 715.249 1109.18 C 714.25 1119.15 709.036 1131.16 701.016 1137.49 C 665.82 1165.24 441.571 1200.17 389.141 1205.75 C 454.82 1222.23 675.736 1216.84 709.55 1270.9 C 715.021 1279.65 715.931 1290.16 713.266 1300.01 C 710.145 1311.55 703.45 1319.34 693.146 1325.05 C 640.227 1354.33 532.235 1364.12 470.512 1373.93 C 443.481 1378.23 417.228 1384.52 390.469 1389.93 C 416.496 1395.21 442.624 1398.11 469.068 1400.36 C 520.796 1404.76 680.866 1408.36 708.746 1452.24 C 713.772 1460.15 716.446 1474.43 714.134 1483.46 C 711.311 1494.48 700.263 1502.61 690.756 1507.88 C 636.632 1537.89 527.253 1551.7 464.937 1560.83 C 440.636 1564.39 413.986 1565.98 390.766 1574.2 C 423.841 1577.51 456.892 1581.05 489.919 1584.81 C 535.793 1589.82 679.084 1601.23 706.475 1635.1 C 706.75 1635.44 706.991 1635.8 707.25 1636.16 C 712.971 1644.17 716.813 1653.96 715.24 1663.96 C 713.57 1674.57 706.209 1681.82 697.759 1687.7 C 688.075 1694.44 676.554 1698.87 665.302 1702.2 C 628.209 1713.17 414.674 1755.84 384.652 1749.94 C 376.543 1748.35 368.341 1744.69 363.745 1737.51 C 360.054 1731.75 358.692 1723.36 358.975 1716.56 C 362.078 1698.74 368.645 1690.68 385.98 1683.51 C 409.951 1673.6 437.152 1669.84 462.672 1665.92 C 473.129 1664.31 483.545 1664.2 493.977 1661.88 C 422.589 1647.97 304.67 1654.28 245.909 1612.64 C 235.237 1605.07 226.469 1594.94 224.452 1581.59 C 222.733 1570.22 224.955 1557.83 232.295 1548.75 C 266.349 1506.64 444.455 1484.71 501.786 1478.25 C 422.765 1458.33 312.882 1475.33 245.062 1427.21 C 234.987 1420.06 226.234 1410.56 224.389 1397.87 C 222.764 1386.69 225.099 1374.54 232.143 1365.55 C 264.276 1324.56 440.349 1300 495.205 1294.34 C 423.541 1276.51 310.374 1286.91 249.461 1246.32 C 237.557 1238.39 227.751 1227.97 225.189 1213.36 C 223.22 1202.14 225.366 1189.73 232.335 1180.54 C 257.481 1147.36 405.759 1122.33 448.725 1116.04 C 466.033 1113.5 483.471 1112.24 500.823 1110.07 C 481.386 1106.98 461.418 1105.69 441.829 1103.71 C 383.026 1097.76 304.286 1090.21 252.154 1060.97 C 240.475 1054.42 228.508 1045.06 225.104 1031.44 C 222.758 1022.05 224.937 1011.78 229.868 1003.58 C 262.857 948.764 453.128 941.26 516.502 925.701 C 501.993 924.564 487.447 924.299 472.937 923.212 C 409.528 918.463 312.456 909.086 256.723 878.443 C 242.939 870.864 230.176 860.45 226.007 844.563 C 223.804 836.166 225.711 827.844 230.33 820.612 C 258.883 775.913 392.456 756.842 443.542 748.559 C 457.399 746.312 471.826 744.958 485.495 741.846 L 486.538 741.599 C 408.3 728.026 322.311 728.825 249.9 692.211 C 240.558 687.487 225.277 673.637 223.932 663.346 C 218.765 623.799 266.49 604.258 296.805 594.917 C 337.589 582.314 377.692 576.236 418.515 569.358 C 444.924 565.151 471.224 560.291 497.393 554.783 L 497.395 553.674 C 480.961 550.061 461.939 551.304 445.03 549.657 C 389.566 544.254 303.737 533.371 255.104 505.995 C 242.097 498.674 227.568 487.782 223.727 472.575 C 221.349 463.156 224.21 453.486 229.324 445.477 C 256.91 402.267 394.558 380.693 442.271 373.197 C 453.756 371.393 465.465 369.116 476.976 367.689 C 481.162 367.17 485.304 367.485 489.445 366.579 C 482.066 358.683 391.579 353.518 376.234 346.047 C 362.486 339.353 360.129 331.792 354.438 318.449 z"/>
<path transform="translate(0,0)" fill="rgb(60,119,224)" d="M 707.25 1636.16 C 712.971 1644.17 716.813 1653.96 715.24 1663.96 C 713.57 1674.57 706.209 1681.82 697.759 1687.7 C 688.075 1694.44 676.554 1698.87 665.302 1702.2 C 628.209 1713.17 414.674 1755.84 384.652 1749.94 C 376.543 1748.35 368.341 1744.69 363.745 1737.51 C 360.054 1731.75 358.692 1723.36 358.975 1716.56 C 367.772 1713.51 376.782 1708.65 385.978 1706.85 C 469.961 1690.43 555.332 1680.89 638.571 1660.32 C 659.806 1655.08 679.531 1648.64 699.237 1639.15 C 700.314 1638.63 703.866 1640.1 705.116 1640.5 L 706.901 1639.58 L 707.25 1636.16 z"/>
<path transform="translate(0,0)" fill="rgb(60,119,224)" d="M 354.438 318.449 C 352.404 304.288 362.949 280.606 378.881 278.832 C 385.106 278.139 393.173 278.904 399.472 279.53 C 476.932 287.224 554.556 296.04 630.697 312.604 C 641.8 315.019 659.121 318.401 668.965 322.924 L 667.189 323.651 C 654.902 320.682 662.858 327.05 660.3 331.431 C 638.277 337.889 600.532 344.771 577.59 344.802 C 558.006 344.828 525.056 339.012 504.379 336.451 L 354.438 318.449 z"/>
<path transform="translate(0,0)" fill="rgb(60,119,224)" d="M 406.451 1337.82 C 469.202 1323.76 534.883 1316.76 597.891 1302.69 C 632.336 1295 666.388 1285.23 700.95 1278.13 C 643.577 1312.49 513.794 1322.21 445.183 1336.28 C 424.737 1340.48 376.981 1351.73 359.037 1353.22 C 360.162 1351.89 364.11 1349.24 365.749 1348.06 L 372.447 1347.27 C 372.078 1347.26 371.708 1347.25 371.339 1347.25 L 369.601 1347.18 C 364.69 1347.02 364.817 1347.21 360.44 1344.92 C 369.855 1339.05 394.931 1336.97 406.451 1337.82 z"/>
<path transform="translate(0,0)" fill="rgb(29,81,225)" d="M 360.44 1344.92 C 369.855 1339.05 394.931 1336.97 406.451 1337.82 C 394.314 1342.8 385.11 1344.28 372.447 1347.27 C 372.078 1347.26 371.708 1347.25 371.339 1347.25 L 369.601 1347.18 C 364.69 1347.02 364.817 1347.21 360.44 1344.92 z"/>
<path transform="translate(0,0)" fill="rgb(60,119,224)" d="M 697.658 355.237 C 700.695 355.436 702.238 355.566 703.826 358.061 C 701.07 362.093 646.767 377.954 639.505 379.09 C 560.03 391.525 480.466 400.849 401.367 416.104 C 383.003 419.646 364.243 419.729 345.164 423.736 C 321.369 428.541 298.234 436.179 276.255 446.484 C 273.123 448.018 274.248 448.253 272.001 447.555 C 285.829 428.271 413.437 409.178 441.501 404.532 C 528.353 390.154 611.879 375.812 697.658 355.237 z"/>
<path transform="translate(0,0)" fill="rgb(60,119,224)" d="M 689.03 548.414 C 691.738 547.883 691.725 548.053 694.561 548.112 L 694.594 549.147 C 683.38 554.275 658.049 561.626 645.659 566.147 C 636.387 569.531 614.444 571.191 603.113 573.316 C 556.198 582.436 509.026 590.184 461.658 596.551 C 445.809 598.705 431.549 598.78 415.779 600.243 C 400.644 601.648 385.435 605.106 370.58 607.668 C 332.171 614.293 308.296 620.059 273.361 637.69 C 271.167 638.959 272.347 638.65 269.823 638.625 C 283.548 615.073 413.553 599.314 441.308 594.465 L 596.469 566.859 C 627.987 561.08 657.672 550.305 689.03 548.414 z"/>
<path transform="translate(0,0)" fill="rgb(60,119,224)" d="M 325.169 1370.01 C 351.194 1367.85 378.855 1368.4 404.998 1367.68 C 418.027 1367.33 432.559 1363.38 445.017 1362.13 C 419.901 1374.44 394.516 1373.08 367.175 1374.39 C 357.917 1374.83 346.52 1375.69 337.556 1375.91 C 333.652 1372.87 329.879 1372.01 325.169 1370.01 z"/>
<path transform="translate(0,0)" fill="rgb(52,106,214)" d="M 343.909 1347.92 C 349.672 1345.72 354.426 1345.45 360.44 1344.92 C 364.817 1347.21 364.69 1347.02 369.601 1347.18 L 371.339 1347.25 C 371.708 1347.25 372.078 1347.26 372.447 1347.27 L 365.749 1348.06 C 364.11 1349.24 360.162 1351.89 359.037 1353.22 C 347.54 1358.01 310.573 1359.59 298.042 1364.44 C 295.704 1365.34 295.587 1365.3 293.496 1364.89 C 297.515 1358.95 335.624 1349.33 343.909 1347.92 z"/>
<path transform="translate(0,0)" fill="rgb(40,78,167)" d="M 343.909 1347.92 C 349.672 1345.72 354.426 1345.45 360.44 1344.92 C 364.817 1347.21 364.69 1347.02 369.601 1347.18 L 371.339 1347.25 C 371.708 1347.25 372.078 1347.26 372.447 1347.27 L 365.749 1348.06 C 356.17 1348.13 354.775 1355.18 343.909 1347.92 z"/>
<path transform="translate(0,0)" fill="rgb(52,106,214)" d="M 299.405 1376.44 C 307.853 1374.46 316.559 1370.57 325.169 1370.01 C 329.879 1372.01 333.652 1372.87 337.556 1375.91 C 328.772 1378.36 317.674 1378 308.32 1378.27 C 305.541 1378.08 302.764 1377.86 299.989 1377.6 L 299.405 1376.44 z"/>
<path transform="translate(0,0)" fill="rgb(40,78,167)" d="M 308.32 1378.27 C 302.74 1379.22 274.648 1379.75 269.802 1378.12 C 275.82 1376.47 292.307 1376.65 299.405 1376.44 L 299.989 1377.6 C 302.764 1377.86 305.541 1378.08 308.32 1378.27 z"/>
<path transform="translate(0,0)" fill="rgb(40,78,167)" d="M 1662.57 1018.46 C 1661.04 949.501 1662.14 876.536 1662.12 807.288 L 1662.08 739.352 C 1662.07 718.663 1661.67 698.187 1665.02 677.664 C 1671.42 638.501 1695.28 601.671 1738.63 601.074 C 1762.02 600.751 1783.64 610.449 1800.46 626.582 C 1822.12 647.778 1823.91 670.266 1824.11 698.992 L 1823.78 1152.88 L 1823.77 1295.52 C 1823.76 1313.27 1824.81 1352.09 1822.68 1368.14 C 1820.54 1385.07 1812.82 1400.8 1800.73 1412.84 C 1754.68 1458.72 1673.93 1434.83 1664.5 1369.27 C 1659.91 1337.28 1661.88 1308.05 1662.21 1275.89 C 1662.76 1237.18 1661.05 1195.68 1662.3 1157.38 C 1662.37 1155.28 1662.47 1153.18 1662.58 1151.09 C 1664.41 1140.68 1664.64 1029.54 1662.57 1018.46 z"/>
<path transform="translate(0,0)" fill="rgb(248,119,15)" d="M 1704.45 894.015 C 1715.04 887.421 1773.63 865.302 1783.33 869.804 C 1782.49 902.288 1783 936.563 1783 969.224 L 1783.01 1142.78 L 1783.01 1273.8 C 1783.01 1296.85 1782.31 1324.65 1783.36 1347.48 C 1784.71 1369.98 1772.61 1394.29 1747.96 1396.42 C 1737.5 1397.38 1727.13 1393.86 1719.42 1386.72 C 1707.29 1375.69 1704.34 1362.87 1703.61 1347.47 C 1701.75 1296.36 1703.36 1235.54 1703.37 1183.76 L 1703.15 932.193 C 1704.09 925.309 1704.14 902.469 1704.45 894.015 z"/>
<path transform="translate(0,0)" fill="rgb(238,72,0)" d="M 1703.61 1347.47 C 1725.3 1348.16 1764.62 1345.54 1783.36 1347.48 C 1784.71 1369.98 1772.61 1394.29 1747.96 1396.42 C 1737.5 1397.38 1727.13 1393.86 1719.42 1386.72 C 1707.29 1375.69 1704.34 1362.87 1703.61 1347.47 z"/>
<path transform="translate(0,0)" fill="rgb(234,156,111)" d="M 1703.15 932.193 C 1702.46 920.617 1702.93 903.017 1702.92 891.128 L 1702.89 809.477 C 1702.88 771.617 1702.79 733.728 1702.28 695.882 C 1701.92 668.84 1714.72 638.924 1746.64 641.761 C 1757.52 642.827 1767.53 648.154 1774.5 656.579 C 1786.59 671.198 1783.99 699.372 1784 717.797 L 1783.99 777.272 L 1783.96 835.751 C 1783.95 845.746 1784.4 860.293 1783.33 869.804 C 1773.63 865.302 1715.04 887.421 1704.45 894.015 C 1704.14 902.469 1704.09 925.309 1703.15 932.193 z"/>
<path transform="translate(0,0)" fill="rgb(248,119,15)" d="M 1030.68 1105.73 C 1036.99 1093.31 1049.35 1051.06 1053.93 1036.42 C 1067.34 992.421 1081.56 948.672 1096.6 905.2 C 1109.97 867.377 1123.82 828.188 1143.36 792.967 C 1148.17 784.308 1155.49 775.836 1164.65 771.726 C 1174.4 767.444 1185.46 767.235 1195.37 771.145 C 1227.67 783.812 1238.87 845.088 1248.88 875.597 L 1300.54 1029.16 C 1310.03 1057.43 1317.64 1086.98 1329.74 1114.11 C 1333.41 1099.54 1341.41 1078.07 1346.4 1063.3 C 1355.31 1036.89 1363.92 1010.37 1372.23 983.766 C 1385.55 940.325 1399.2 896.987 1413.18 853.756 C 1419.86 833.523 1426.28 812.594 1434.91 793.06 C 1448.04 765.197 1492.27 759.119 1509.6 786.35 C 1520.9 804.109 1525.09 819.996 1531.8 839.407 L 1553.22 901.326 L 1624.24 1110.78 C 1634.43 1084.82 1648.96 1039.58 1662.57 1018.46 C 1664.64 1029.54 1664.41 1140.68 1662.58 1151.09 C 1615.07 1211.5 1581.11 1145.31 1567.96 1101.15 C 1562.15 1081.67 1554.49 1060.53 1548.02 1041.16 L 1503.49 907.969 C 1493.77 878.313 1485.75 851.578 1475.43 821.753 C 1472.13 834.127 1466.6 849.352 1462.54 861.82 C 1455.69 882.834 1449 903.899 1442.46 925.013 C 1422.97 988.544 1402.92 1051.9 1382.32 1115.08 C 1376.19 1133.33 1365.53 1162.96 1346.45 1170.15 C 1294.14 1189.25 1277.98 1121.79 1266.54 1086.54 C 1238.28 999.453 1215.51 910.187 1179.08 826.189 C 1170.68 855.718 1155.38 895.522 1145.18 925.962 C 1123.66 991.472 1101.4 1056.74 1078.39 1121.74 C 1071.79 1139.89 1063.3 1162.46 1044.02 1170.52 C 1012.44 1183.73 989.195 1145.48 976.306 1122.87 C 961.911 1097.61 947.923 1070.8 936.987 1043.88 C 919.929 1046.11 862.294 1047.69 847.169 1042.78 C 841.851 1041.06 836.796 1038.41 834.361 1033.14 C 831.835 1027.67 830.753 1018.47 832.909 1012.78 C 834.804 1007.78 839.203 1002.38 844.308 1000.44 C 856.795 995.687 935.712 995.528 951.261 997.011 C 957.096 997.568 962.618 998.588 967.908 1001.25 C 974.428 1004.52 980.788 1009.54 985.378 1015.16 C 998.278 1030.98 1023.93 1085.26 1030.68 1105.73 z"/>
<path transform="translate(0,0)" fill="rgb(29,81,225)" fill-opacity="0.0117647" d="M 393.306 470.967 C 389.429 470.876 387.751 471.502 384.883 469.802 C 387.051 467.575 391.146 466.554 394.255 465.472 L 396.686 468.84 L 395.136 469.801 L 393.306 470.967 z"/>
</svg>