<svg version="1.1" xmlns="http://www.w3.org/2000/svg" style="display: block;" viewBox="0 0 2048 2048" width="512" height="512" preserveAspectRatio="none">
<path transform="translate(0,0)" fill="rgb(2,51,190)" d="M 685.674 306.426 C 732.488 302.228 799.685 313.381 844.547 325.815 C 1074.99 389.688 1230.78 616.094 1214.38 853.725 C 1212.9 875.249 1211.33 898.281 1205.48 919.187 C 1220.75 911.328 1236.72 903.226 1252.69 896.947 C 1322.44 870.1 1397.91 861.604 1471.88 872.274 C 1709.9 908.98 1872.27 1125.57 1835.35 1364.78 C 1819.07 1473.52 1760.04 1571.27 1671.39 1636.31 C 1589.68 1696.14 1500.59 1725.6 1399.02 1722.51 C 1382.68 1722.02 1361.97 1720.86 1345.95 1718.38 C 1337.68 1716.54 1327.94 1715.36 1319.29 1713.62 C 1206.89 1690.53 1108.31 1623.65 1045.32 1527.74 C 990.331 1445 963.913 1325.88 983.519 1228.2 C 917.26 1271.63 834.56 1295.68 756.115 1303.01 C 620.387 1315.34 485.377 1272.78 381.264 1184.83 C 281.537 1100.95 218.796 981.217 206.586 851.478 C 179.688 556.716 398.444 331.987 685.674 306.426 z M 260.207 700.174 C 304.646 689.461 354.568 684.25 395.097 710.649 C 432.703 735.146 451.244 771.037 500.647 773.714 C 551.829 776.487 567.123 758.931 602.806 726.22 C 637.639 694.29 689.523 686.931 735.284 695.566 C 749.677 700.159 771.679 706.922 783.411 715.623 C 820.805 743.562 840.622 777.767 893.035 773.051 C 935.975 769.188 963.155 744.191 995.533 718.372 C 1035.49 686.508 1076.53 680.215 1125.31 695.765 C 1137.43 699.642 1149.27 704.382 1160.71 709.949 C 1150.93 680.113 1147.57 662.258 1134.67 631.793 C 1092.3 532.061 1015.87 450.633 919.016 402.046 C 847.188 365.761 774.051 350.853 694.232 349.477 C 668.874 350.078 647.623 353.218 622.738 358.078 C 527.557 375.979 440.456 423.469 373.85 493.779 C 330.971 538.7 297.56 591.782 275.602 649.87 C 269.386 666.796 265.538 685.865 260.207 700.174 z M 1086.5 732.215 C 1068.65 735.621 1049.85 735.676 1033.3 743.82 C 1020.3 750.219 1009.8 759.824 999.039 769.318 C 960.935 802.95 936.376 817.751 883.982 816.044 C 856.816 815.159 832.331 808.359 809.773 792.916 C 759.689 758.631 744.62 724.38 675.701 737.311 C 614.235 748.844 604.631 821.079 506.222 817.582 C 478.381 816.593 453.071 808.64 429.961 792.956 C 382.377 760.663 362.217 724.37 297.155 736.68 C 279.807 739.963 263.61 746.708 247.531 753.783 C 251.915 791.404 248.797 828.725 250.835 866.439 C 251.103 871.407 251.19 876.449 251.352 881.425 C 287.953 866.149 308.116 864.88 347.247 867.073 C 353.751 867.031 362.617 870.03 368.778 872.329 C 421.634 892.042 446.151 947.296 506.411 947.892 C 558.265 948.405 571.609 922.159 607.194 894.985 C 627.784 879.027 652.372 869.048 678.259 866.145 C 700.303 863.539 722.649 865.783 743.734 872.721 C 769.978 881.421 790.704 895 810.52 913.91 C 814.311 917.528 818.837 921.75 822.918 924.996 C 845.995 943.322 875.551 951.437 904.75 947.461 C 952.205 940.838 963.288 911.356 997.65 887.413 C 1047.86 852.431 1117.08 856.964 1167.6 889.228 C 1168.89 876.553 1170.23 863.98 1170.89 851.25 C 1172.24 825.292 1168.76 799.449 1171.48 773.619 C 1148.62 755.77 1117.12 730.057 1086.5 732.215 z M 1078.87 906.398 C 1018.36 912.543 1020.95 929.513 976.535 964.336 C 930.718 1000.26 843.92 1001.84 799.226 962.183 C 760.502 927.386 742.136 904.51 684.518 910.017 C 646.023 913.696 631.688 930.84 605.016 956.454 C 575.983 981.806 545.832 991.289 508.136 991.554 C 467.327 991.84 435.037 976.075 404.883 949.194 C 352.887 902.843 324.988 895.549 260.558 923.335 C 267.95 940.633 273.987 959.556 280.936 977.204 C 293.004 1008.3 308.899 1037.77 328.254 1064.94 C 330.433 1068.04 342.526 1085.65 344.407 1087.64 C 352.544 1095.79 359.316 1104.2 367.179 1112.44 C 380.134 1125.78 393.748 1138.46 407.97 1150.44 C 494.06 1221.56 602.072 1260.77 713.74 1261.44 C 797.488 1261.57 874.23 1241.39 946.957 1200.08 C 956.895 1194.44 983.731 1179.83 990.659 1171.91 C 1005.13 1155.36 1014.1 1122.91 1025.1 1101.91 C 1044.37 1064.45 1069.01 1030 1098.22 999.657 C 1114.83 982.49 1133.48 971.347 1149.58 954.562 C 1153.19 950.792 1156.36 939.997 1157.62 934.717 C 1136.09 917.068 1107.64 902.114 1078.87 906.398 z"/>
<path transform="translate(0,0)" fill="rgb(254,155,75)" d="M 1416.19 907.344 C 1557.39 909.723 1686.17 988.539 1752.53 1113.19 C 1818.89 1237.84 1812.37 1388.68 1735.52 1507.15 C 1658.66 1625.61 1523.56 1693.03 1382.69 1683.23 C 1172.65 1668.62 1012.49 1489.33 1021.57 1278.97 C 1030.65 1068.62 1205.67 903.798 1416.19 907.344 z"/>
<path transform="translate(0,0)" fill="rgb(252,127,31)" d="M 1416.19 907.344 C 1557.39 909.723 1686.17 988.539 1752.53 1113.19 C 1818.89 1237.84 1812.37 1388.68 1735.52 1507.15 C 1658.66 1625.61 1523.56 1693.03 1382.69 1683.23 L 1382.37 1681.14 C 1385.95 1677.2 1394.07 1677.9 1399.33 1676.97 C 1417.87 1673.78 1436.2 1669.47 1454.21 1664.05 C 1487.64 1654.01 1519.45 1639.21 1548.67 1620.12 C 1629.39 1566.47 1680.43 1482.29 1699.14 1388.11 C 1733.58 1218.62 1660.99 1034.33 1506.85 949.485 C 1479.09 934.204 1450.89 923.488 1421.25 912.699 C 1418.45 911.678 1417.54 909.787 1416.19 907.344 z"/>
<path transform="translate(0,0)" fill="rgb(254,254,254)" d="M 1474.01 1020.08 C 1482.06 1020.09 1489.62 1022.18 1496.77 1025.83 C 1556.53 1056.52 1600.81 1103.25 1624.34 1166.76 C 1659.8 1262.46 1633.01 1369.61 1555.63 1436.27 C 1529.02 1459.2 1494.52 1470.11 1472.88 1499.36 C 1456.59 1521.36 1446.59 1545.74 1438.71 1571.81 C 1435.71 1581.42 1433.3 1591.84 1429.23 1600.92 C 1426.16 1607.75 1421.64 1608.82 1414.94 1611.03 C 1412.66 1611.06 1411.72 1610.98 1409.47 1610.79 C 1403.21 1610.27 1396.83 1607.67 1393.06 1602.44 C 1387.03 1594.08 1388.92 1578.61 1390.92 1569.02 C 1408.86 1482.86 1444.33 1453.79 1515.35 1409.09 C 1554.57 1384.41 1581.84 1343.06 1590.37 1296.01 C 1604.42 1218.48 1574.14 1136.64 1511.27 1088.07 C 1494.79 1075.33 1469.32 1068.72 1456.92 1052.74 C 1454.5 1049.62 1453.37 1043.5 1454.63 1039.61 C 1457.75 1029.99 1465.57 1024.45 1474.01 1020.08 z"/>
<path transform="translate(0,0)" fill="rgb(254,254,254)" d="M 1487.7 1137 C 1518.28 1132.74 1533.85 1180.22 1538.92 1202.99 C 1544.73 1229.15 1553.27 1303.6 1519.31 1314.47 C 1502.18 1315.28 1497.61 1309.52 1490.95 1294.96 C 1495.03 1261.01 1505.56 1229.82 1489.47 1197.09 C 1478.71 1175.2 1451.43 1150.57 1487.7 1137 z"/>
</svg>