<svg version="1.1" xmlns="http://www.w3.org/2000/svg" style="display: block;" viewBox="0 0 2048 2048" width="512" height="512" preserveAspectRatio="none">
<path transform="translate(0,0)" fill="rgb(38,76,181)" d="M 1282.03 759.831 C 1253.01 739.237 1198.5 718.035 1213.12 674.118 C 1222.9 644.699 1234.52 615.72 1245.1 586.511 L 1283.91 479.14 C 1292.64 454.899 1304.5 414.292 1318.76 394.724 C 1326.6 383.956 1374.54 355.163 1387.73 346.734 L 1480.89 287.217 L 1549.12 243.35 C 1562.51 234.61 1575.59 225.439 1589.24 217.08 C 1605.23 207.283 1614.08 208.186 1630.05 217.003 C 1646.89 226.297 1662.38 236.949 1678.36 247.507 L 1750.46 295.256 L 1825.37 344.698 C 1843.35 356.618 1862.02 367.86 1877.91 382.515 C 1890.59 394.211 1887.76 406.701 1882.95 421.477 C 1869.49 462.855 1854.38 503.711 1840.33 544.894 L 1808.04 637.763 C 1797.51 668.225 1795.77 693.349 1767.94 712.476 C 1744.67 728.47 1721.3 743.278 1697.62 758.611 L 1593.6 826.168 L 1538.61 861.886 C 1523.11 872.012 1489.2 898.899 1470.4 889.043 C 1458.64 882.879 1443.8 872.291 1432.56 864.677 C 1410.98 850.278 1389.6 835.563 1368.45 820.536 C 1361.06 815.182 1341.35 799.993 1334.39 796.287 C 1322.52 805.232 1304.54 815.743 1291.62 823.589 C 1281.65 819.944 1248.55 796.131 1238.87 788.789 C 1247.91 780.263 1270.62 766.454 1282.03 759.831 z M 1271.72 680.625 C 1291.18 692.815 1312.44 708.691 1331.56 721.977 L 1445.53 800.651 C 1453.72 806.258 1474.93 820.974 1484.1 826.754 C 1484.91 826.698 1485.72 826.641 1486.53 826.585 L 1488.03 825.35 C 1503.26 812.906 1530.05 796.015 1547.12 784.877 L 1677.95 700.828 C 1688.81 693.697 1731.36 668.094 1735.72 659.072 C 1745.14 639.594 1754.42 610.353 1761.65 589.513 C 1775.78 548.623 1790.22 507.836 1804.94 467.155 C 1810.1 452.914 1818.54 426.934 1824.29 413.873 C 1808.97 406.844 1793.94 394.86 1779.84 385.555 C 1762 373.776 1614.23 274.44 1609.94 273.889 L 1462.86 366.822 C 1432.38 386.08 1400.71 406.065 1371.81 427.58 C 1356.43 439.035 1344.14 480.793 1337.05 499.97 C 1323.19 537.171 1309.67 574.496 1296.49 611.942 C 1289.22 632.491 1280.06 661.146 1271.72 680.625 z"/>
<path transform="translate(0,0)" fill="rgb(21,38,125)" d="M 1282.03 759.831 C 1294.67 766.511 1325.72 786.272 1334.39 796.287 C 1322.52 805.232 1304.54 815.743 1291.62 823.589 C 1281.65 819.944 1248.55 796.131 1238.87 788.789 C 1247.91 780.263 1270.62 766.454 1282.03 759.831 z"/>
<path transform="translate(0,0)" fill="rgb(38,76,181)" d="M 765.971 1269.74 C 784.96 1285.66 809.062 1294.87 827.754 1313.71 C 850.449 1336.59 838.587 1348.6 829.711 1374.68 C 824.867 1388.91 819.281 1402.32 814.26 1416.06 L 764.887 1551.94 C 758.046 1571.13 752.295 1590.62 745.654 1609.9 C 738.537 1630.56 727.783 1640.37 710.127 1652.64 C 671.128 1679.72 630.762 1704.88 591.133 1731.01 L 506.912 1786.45 C 494.961 1794.29 481.398 1802.87 469.625 1810.87 C 446.108 1826.86 435.099 1828.36 411.178 1812.79 C 393.552 1801.31 376.499 1789.31 359.279 1777.6 L 266.4 1714.73 C 249.678 1703.3 232.896 1691.97 216.055 1680.72 C 203.952 1672.65 191.059 1664.94 180.16 1655.39 C 162.652 1640.04 160.208 1627.84 167.134 1606.43 C 172.877 1588.67 179.285 1572.03 185.87 1554.71 L 213.163 1482.56 L 242.539 1404.29 C 252.387 1377.86 265.91 1332.92 289.396 1315.83 C 304.507 1304.82 325.201 1293.6 341.453 1283.57 C 366.285 1268 390.982 1252.21 415.539 1236.2 C 439.973 1220.53 464.287 1204.68 488.478 1188.63 C 520.955 1166.66 556.209 1130.45 595.878 1156.78 C 635.172 1182.86 675.025 1207.71 713.483 1235.13 C 724.762 1245.1 752.472 1264.01 765.971 1269.74 z M 226.4 1615.91 C 247.939 1631.64 278.577 1650.78 301.391 1666.05 L 438.699 1758.27 C 454.012 1750.48 469.445 1739.45 483.851 1729.83 C 548.404 1686.66 613.97 1645 678.649 1602.01 C 680.044 1601.08 682.987 1598.85 683.762 1597.38 C 722.261 1524.4 739.215 1441.28 770.822 1365.27 C 772.823 1360.46 775.566 1354.38 776.889 1349.42 C 756.922 1338.17 730.735 1319.82 711.653 1306.86 L 617.189 1242.43 C 607.291 1235.64 574.468 1211.31 566.125 1208.03 C 546.989 1221.74 524.818 1235.63 504.943 1248.48 L 411.075 1308.79 C 395.998 1318.33 380.992 1327.97 366.058 1337.73 C 354.046 1345.51 322.393 1364.21 317.284 1377.21 C 296.073 1431.19 276.33 1487.77 255.106 1541.84 C 245.786 1565.59 237.854 1594.04 226.4 1615.91 z"/>
<path transform="translate(0,0)" fill="rgb(244,138,22)" d="M 754.636 1207.3 C 751.394 1204 739.313 1198.53 734.793 1195.94 C 714.181 1184.16 685.007 1165.55 693.447 1137.27 C 699.282 1117.72 706.822 1098.17 713.921 1078.88 L 751.388 977.49 L 777.505 904.548 C 783.049 889.004 789.366 869.225 797.296 855.133 C 800.724 849.043 816.838 837.367 822.688 833.392 C 864.283 805.125 908.499 780.896 951.338 754.68 C 969.093 743.992 986.691 733.044 1004.13 721.84 C 1017.48 713.28 1030.62 704.385 1044.37 696.444 C 1069.05 682.198 1077.86 682.167 1101.61 697.48 C 1141.65 723.301 1181.85 748.532 1220.75 776.075 C 1226.71 780.297 1232.76 784.853 1238.87 788.789 C 1248.55 796.131 1281.65 819.944 1291.62 823.589 C 1309.45 837.365 1354.57 862.195 1356.11 884.794 C 1357.54 905.885 1338.19 945.908 1330.79 967.209 C 1321.44 994.173 1311.57 1021.19 1302.13 1047.89 C 1295.36 1066.88 1288.97 1086 1282.97 1105.24 C 1270.97 1144.2 1270.82 1162.97 1234.91 1187.7 C 1188.02 1220.01 1139.5 1249.61 1091.37 1280.03 L 1031.92 1317.67 C 1014.2 1328.9 993.088 1342.65 973.761 1350.99 C 950.432 1339.45 940.786 1330.84 920.365 1317.29 C 887.144 1295.27 842.085 1260.68 806.707 1243.75 C 798.078 1250.48 775.691 1265.84 765.971 1269.74 C 752.472 1264.01 724.762 1245.1 713.483 1235.13 C 725.236 1225.56 741.634 1216.14 754.636 1207.3 z M 977.326 1279.76 C 986.265 1275.89 1008.56 1260.68 1017.77 1254.73 L 1082.05 1213.8 L 1159.77 1164.97 C 1174.85 1155.54 1190.47 1146.64 1204.44 1135.62 C 1209.19 1131.87 1211.65 1125.57 1213.77 1119.99 C 1241.71 1046.63 1263.53 967.725 1294.13 895.594 C 1275.45 884.255 1255.36 869.488 1236.66 857.357 C 1182.96 822.525 1128.47 783.818 1073.82 750.708 L 931.697 838.749 C 908.892 852.604 862.759 874.567 845.231 896.754 C 841.998 900.846 832.695 928.689 830.153 935.756 L 803.181 1010.13 C 791.45 1042.45 779.599 1074.71 768.68 1107.32 C 765.453 1116.95 762.352 1126.72 757.578 1135.73 C 757.901 1138.08 757.481 1138.61 760.278 1140.29 C 774.796 1149 789.507 1156.77 803.654 1166.17 L 899.214 1231.05 C 916.929 1243.1 958.793 1275.39 977.326 1279.76 z"/>
<path transform="translate(0,0)" fill="rgb(21,38,125)" d="M 754.636 1207.3 C 769.677 1217.02 792.702 1232.72 806.707 1243.75 C 798.078 1250.48 775.691 1265.84 765.971 1269.74 C 752.472 1264.01 724.762 1245.1 713.483 1235.13 C 725.236 1225.56 741.634 1216.14 754.636 1207.3 z"/>
</svg>