<svg version="1.1" xmlns="http://www.w3.org/2000/svg" style="display: block;" viewBox="0 0 2048 2048" width="512" height="512" preserveAspectRatio="none">

<path transform="translate(0,0)" fill="rgb(44,66,160)" d="M 388.187 1394.43 C 381.873 1403.58 375.692 1413.32 367.912 1421.3 C 357.288 1432.2 342.973 1439.39 327.534 1439.24 C 313.949 1439.12 302.252 1432.86 292.8 1423.45 C 235.296 1366.16 214.201 1183.51 209.478 1102.39 C 207.475 1067.98 207.536 1033.3 207.593 998.838 C 207.738 910.113 225.455 686.965 289.368 624.199 C 299.904 613.852 312.312 607.304 327.402 607.646 C 346.331 608.075 361.701 617.572 373.011 632.306 C 377.609 638.295 381.411 644.822 386.6 650.345 C 386.843 650.603 387.093 650.854 387.339 651.109 C 441.798 668.229 506.448 684.849 561.994 700.288 L 860.971 783.767 L 995.279 821.364 C 1006.65 824.582 1050.24 837.746 1060.4 838.519 C 1063.4 844.204 1072.77 845.353 1073.31 855.684 C 1073.49 859.105 1074.22 869.234 1075.33 872.016 C 1076.06 905.301 1076.29 938.596 1076.01 971.888 C 1075.96 979.921 1075.79 994.306 1075.28 1003.04 C 1075.79 1003.57 1076.3 1004.1 1076.81 1004.63 L 1074.76 1006.01 C 1073.83 1013.77 1072.4 1035.46 1075.33 1042.22 C 1077.17 1042.78 1077.67 1042.99 1079.57 1043.28 L 1075.66 1044.01 C 1074.35 1050.42 1075.99 1064.79 1075.75 1071.1 C 1075.13 1087.38 1078.15 1162.76 1074.45 1173.49 C 1068.64 1172 1045.29 1172.68 1038.9 1174.09 C 1038.17 1151.87 1038.96 1129.7 1038.02 1107.32 C 1037.66 1029.95 1036.81 948.803 1037.98 871.627 C 1003 864.406 959.68 850.105 924.201 840.054 L 716.604 781.684 L 535.456 730.826 C 494.228 719.576 446.243 708.427 406.738 693.935 C 417.522 728.799 431.699 779.616 437.998 814.82 C 461.57 946.561 466.783 1141.32 429.565 1269.6 C 423.231 1295.2 415.675 1325.68 406.12 1350.25 C 401.953 1359.64 389.572 1386.12 388.187 1394.43 z"/>
<path transform="translate(0,0)" fill="rgb(254,169,44)" d="M 293.039 686.2 C 346.082 552.455 395.083 775.099 402.746 813.015 C 430.362 955.431 429.358 1101.92 399.794 1243.94 C 391.323 1286.24 381.579 1326.08 364.321 1365.72 C 339.785 1422.08 307.804 1403.23 292.418 1355.1 C 230.644 1201.32 232.963 947.087 265.07 784.288 C 271.917 749.574 281.21 719.339 293.039 686.2 z"/>
<path transform="translate(0,0)" fill="rgb(254,125,0)" d="M 293.039 686.2 C 346.082 552.455 395.083 775.099 402.746 813.015 C 430.362 955.431 429.358 1101.92 399.794 1243.94 C 391.323 1286.24 381.579 1326.08 364.321 1365.72 C 339.785 1422.08 307.804 1403.23 292.418 1355.1 C 313.009 1343.62 338.918 1254.37 343.837 1229.49 C 371.603 1089.03 368.559 938.555 340.302 798.454 C 334.646 770.412 319.823 698.65 293.039 686.2 z"/>
<path transform="translate(0,0)" fill="rgb(22,80,244)" d="M 1038.02 1107.32 C 1038.96 1129.7 1038.17 1151.87 1038.9 1174.09 C 1045.29 1172.68 1068.64 1172 1074.45 1173.49 C 1082.21 1178.94 1108.57 1190.4 1118.68 1195.05 L 1198.88 1232.1 L 1631.5 1432.54 C 1691.57 1460.73 1753.89 1486.39 1812.69 1517.33 C 1820.44 1521.41 1838.78 1530.8 1839.24 1539.51 C 1839.7 1548.01 1839.38 1552.07 1834.51 1559.04 L 1824.49 1562.86 C 1796.99 1555.67 1768.64 1539.86 1742.47 1527.54 L 1633.99 1477.12 L 1273.06 1309.81 L 1146.86 1251.22 C 1116.29 1236.96 1085.26 1221.63 1054.02 1209.13 C 1034.27 1213.27 1013.44 1219.77 993.924 1225.46 C 970.612 1232.27 947.248 1238.9 923.834 1245.34 L 639.507 1324.91 L 461.264 1374.7 C 445.339 1379.1 429.392 1383.42 413.423 1387.65 C 408.201 1389.02 392.554 1392.59 388.187 1394.43 C 389.572 1386.12 401.953 1359.64 406.12 1350.25 C 415.675 1325.68 423.231 1295.2 429.565 1269.6 L 859.981 1153.64 C 902.717 1141.82 945.564 1130.4 988.515 1119.38 C 997.799 1116.95 1031.08 1107.46 1038.02 1107.32 z"/>
<path transform="translate(0,0)" fill="rgb(205,203,204)" d="M 1038.02 1107.32 C 1038.96 1129.7 1038.17 1151.87 1038.9 1174.09 C 981.523 1189.2 924.323 1204.98 867.312 1221.42 L 578.557 1302.14 L 460.717 1334.97 C 445.597 1339.17 420.636 1347 406.12 1350.25 C 415.675 1325.68 423.231 1295.2 429.565 1269.6 L 859.981 1153.64 C 902.717 1141.82 945.564 1130.4 988.515 1119.38 C 997.799 1116.95 1031.08 1107.46 1038.02 1107.32 z"/>
<path transform="translate(0,0)" fill="rgb(22,80,244)" d="M 1060.4 838.519 C 1079.7 828.199 1102.12 818.479 1122.18 809.18 L 1213.56 766.157 C 1333.13 708.776 1453.05 652.153 1573.33 596.29 L 1720.38 527.329 C 1750.36 513.132 1794.05 487.269 1824.99 481.555 C 1849.62 493.483 1840.05 512.1 1819.9 523.107 C 1809.51 528.78 1796.87 533.686 1785.98 538.858 C 1755.81 553.252 1725.56 567.469 1695.22 581.509 L 1426.47 707.968 L 1209.56 810.16 L 1133.02 846.102 C 1113.94 855.037 1094.99 864.352 1075.33 872.016 C 1074.22 869.234 1073.49 859.105 1073.31 855.684 C 1072.77 845.353 1063.4 844.204 1060.4 838.519 z"/>
<path transform="translate(0,0)" fill="rgb(22,80,244)" d="M 1076.81 1004.63 C 1093.15 1003.67 1113.21 1004.21 1129.77 1004.22 L 1220.15 1004.27 L 1501.08 1004.27 L 1720.13 1004.11 C 1741.86 1004.08 1814.48 1002.17 1832.16 1006.78 C 1848.22 1024.25 1842.25 1042.98 1817.57 1043.32 C 1795.27 1043.62 1773.07 1043.34 1750.78 1043.33 L 1615.03 1043.32 L 1255.63 1043.33 C 1198.07 1043.33 1136.65 1042.11 1079.57 1043.28 C 1077.67 1042.99 1077.17 1042.78 1075.33 1042.22 C 1072.4 1035.46 1073.83 1013.77 1074.76 1006.01 L 1076.81 1004.63 z"/>
<path transform="translate(0,0)" fill="rgb(22,80,244)" d="M 1751.89 677.207 C 1770.25 673.33 1791.74 702.252 1755.25 715.497 C 1724.84 726.535 1692.49 737.961 1661.85 748.661 L 1477.98 812.572 L 1260.98 888.076 C 1227.06 899.8 1184.18 916.081 1150.42 925.871 C 1133.84 930.364 1114.71 901.859 1145.81 888.087 C 1185.89 870.338 1226.52 858.861 1267.78 844.54 L 1490.35 767.068 L 1653.96 710.022 C 1681.79 700.296 1724.05 684.358 1751.89 677.207 z"/>
<path transform="translate(0,0)" fill="rgb(22,80,244)" d="M 1141.33 1122.09 C 1144.53 1121.62 1147.79 1121.7 1150.96 1122.35 C 1174.87 1127.05 1230.84 1147.3 1254.6 1155.85 C 1293.72 1169.76 1332.93 1183.4 1372.23 1196.78 L 1614.75 1279.59 L 1688.62 1304.97 C 1707.57 1311.39 1726.21 1317.73 1744.98 1324.7 C 1765.51 1332.34 1796.99 1349.82 1762.13 1367.17 C 1747.89 1369.69 1690.67 1347.44 1673.42 1341.39 L 1555.5 1300.61 L 1295.49 1211.06 C 1250.19 1195.45 1204.24 1180.08 1159.25 1163.66 C 1149.76 1159.57 1135.31 1154.28 1129.1 1145.56 C 1121.09 1134.3 1133.39 1126.91 1141.33 1122.09 z"/>
</svg>