<svg version="1.1" xmlns="http://www.w3.org/2000/svg" style="display: block;" viewBox="0 0 2048 2048" width="512" height="512" preserveAspectRatio="none">
<path transform="translate(0,0)" fill="rgb(250,120,12)" d="M 700.908 1180.25 C 709.486 1179.79 717.574 1180.38 725.687 1183.44 C 726.13 1183.61 726.567 1183.79 727.01 1183.96 C 739.526 1188.67 749.617 1197.32 759.313 1206.39 C 767.128 1213.71 773.482 1222.46 780.555 1230.46 C 796.499 1248.5 812.629 1266.43 828.297 1284.71 C 835.257 1292.83 846.306 1309.03 856.388 1312.28 C 859.291 1313.22 862.122 1312.11 864.546 1310.48 C 873.976 1304.11 882.46 1292.96 889.915 1284.33 C 909.038 1262.22 926.775 1238.22 946.954 1217.15 C 956.71 1206.96 968.955 1196.52 981.459 1189.96 C 998.408 1181.08 1015.75 1177.17 1034.53 1183.28 C 1046.4 1187.14 1056.62 1194.32 1065.87 1202.54 C 1076.92 1212.36 1174.72 1320.12 1179.18 1329.52 C 1182.09 1335.65 1182.66 1342.34 1180.1 1348.7 C 1176.04 1358.8 1167.68 1363.77 1158.26 1367.93 C 1113.34 1352.86 1057.45 1265.57 1014.8 1231.71 C 984.784 1252.16 945.301 1302.95 920.527 1331.55 C 832.798 1432.85 775.978 1293.2 716.378 1241.54 L 715.56 1240.84 C 711.467 1237.95 709.516 1236.08 705.891 1232.68 C 693.283 1244.43 682.376 1256.96 671.652 1270.4 C 646.492 1301.95 609.305 1358.3 567.104 1366.69 C 517.932 1376.46 472.459 1300.49 444.374 1269.93 C 428.225 1252.36 422.083 1245.89 402.341 1232.63 C 358.309 1262.44 308.06 1359.69 256.732 1368.03 C 244.701 1363.42 238.612 1355.85 236.879 1342.55 C 235.379 1331.03 241.139 1323.91 248.091 1315.51 C 273.161 1285.15 299.602 1255.94 327.332 1227.98 C 344.413 1210.9 372.109 1182.34 397.544 1180.9 C 450.684 1177.91 484.184 1232.83 514.054 1268.52 C 528.87 1286.23 540.905 1297.56 558.112 1312.73 C 574.955 1297.44 587.229 1285.29 602.232 1268.2 C 631.28 1235.12 654.789 1188.68 700.908 1180.25 z"/>
<path transform="translate(0,0)" fill="rgb(7,53,179)" d="M 1174.85 1047.96 C 1141.06 1048.9 1103.27 1048.76 1069.42 1048.82 L 526.609 1048.29 L 346.423 1048.3 C 314.755 1048.3 282.474 1048.93 251.112 1047.62 C 235.17 1045.39 218.392 1039.79 219.494 1021 C 221.626 984.649 263.859 992.524 290.473 992.594 L 370.028 992.681 L 625.098 992.684 L 981.617 992.678 C 1043.15 992.676 1111 991.182 1171.9 993.09 L 1171.72 994.655 C 1202.45 1023.09 1169.08 1042.44 1174.85 1047.96 z"/>
<path transform="translate(0,0)" fill="rgb(7,53,179)" d="M 1747.01 994.37 C 1739.11 979.424 1702.95 937.519 1690.72 922.178 C 1658.44 881.806 1628.07 841.36 1596.14 800.545 C 1571.8 769.425 1543.34 738.052 1524.14 703.21 C 1517.23 690.673 1519.77 671.015 1534.57 664.774 C 1551.9 657.469 1564.34 668.671 1574.56 681.373 C 1584.81 693.629 1593.07 705.657 1602.57 717.663 L 1697.32 839.892 C 1715.66 863.696 1734.52 887.34 1752.87 910.979 C 1779.53 945.32 1809.01 978.854 1830.4 1016.65 C 1831.91 1019.31 1832.17 1026.68 1829.23 1029.05 C 1815.19 1050.18 1797.89 1070.19 1782.15 1090.44 L 1683.2 1217.72 L 1605.99 1316.99 C 1594.78 1331.41 1583.45 1346.92 1571.62 1360.73 C 1561.3 1372.76 1541.08 1374.42 1527.73 1366.6 C 1516.65 1349.74 1523.32 1335.42 1534 1319.86 C 1550.26 1296.17 1569.04 1273.34 1586.74 1250.61 L 1694.62 1112.08 L 1732.14 1065.15 C 1735.86 1060.52 1743.63 1051.85 1746.55 1047.79 C 1751.5 1041.19 1764.25 1027.32 1770.01 1021.43 C 1762.12 1012.17 1755.73 1003.42 1747.01 994.37 z"/>
<path transform="translate(0,0)" fill="rgb(79,118,243)" d="M 1171.9 993.09 C 1217.27 991.781 1266.48 992.684 1312.09 992.704 L 1564.66 992.758 C 1619.92 992.725 1675.12 991.959 1730.38 992.832 C 1735.96 992.92 1741.62 992.707 1747.01 994.37 C 1755.73 1003.42 1762.12 1012.17 1770.01 1021.43 C 1764.25 1027.32 1751.5 1041.19 1746.55 1047.79 C 1732.21 1049.05 1701.18 1048.11 1685.38 1048.12 L 1564.49 1048.16 L 1174.85 1047.96 C 1169.08 1042.44 1202.45 1023.09 1171.72 994.655 L 1171.9 993.09 z"/>
</svg>