<svg version="1.1" xmlns="http://www.w3.org/2000/svg" style="display: block;" viewBox="0 0 2048 2048" width="512" height="512" preserveAspectRatio="none">
<path transform="translate(0,0)" fill="rgb(0,32,163)" d="M 1711.54 717.776 C 1716.89 708.337 1722.22 698.713 1727.69 689.465 C 1735.39 676.445 1746.02 653.501 1764.88 664.555 C 1783.96 675.736 1755.31 715.216 1747.06 726.616 L 1746.15 727.857 C 1820.89 768.189 1867.86 837.755 1891.88 917.722 C 1919.55 1012.88 1909.07 1115.06 1862.68 1202.62 C 1835.09 1253.47 1798.17 1291.69 1746.28 1317.57 C 1751.97 1326.24 1776.69 1360.11 1773.65 1368.74 C 1756.97 1416.22 1719.57 1346.41 1712.03 1328.38 C 1703.2 1331.31 1695.15 1332.51 1686.14 1334.14 C 1602.02 1349.31 1534.41 1299.94 1473.44 1249.32 C 1461.92 1239.75 1448.75 1230.61 1437.43 1220.52 C 1411.48 1231.54 1385.04 1244.04 1359.25 1255.66 L 1256.37 1301.57 L 1210.33 1322.46 C 1190.53 1331.63 1157.12 1353.11 1144.48 1324.49 C 1145.65 1311.18 1149.41 1299.17 1154.3 1286.77 C 1172.61 1240.33 1195.02 1194.93 1215.44 1149.25 L 1243.14 1087.5 C 1246.59 1079.82 1253.66 1062.83 1257.64 1056.29 C 1261.04 1052.32 1263.1 1048.44 1265.75 1043.96 C 1279.99 1043.52 1299.44 1037.57 1296.66 1019.78 C 1294.72 1007.35 1273.13 998.472 1263.14 992.79 C 1253.68 977.271 1244.59 955.236 1236.96 938.123 L 1202.05 860.65 C 1184.16 821.031 1165.8 780.973 1147.22 741.616 C 1138.01 722.104 1138.61 710.296 1160.08 701.104 C 1186.26 706.858 1232.9 731.699 1259.11 742.773 L 1378.74 792.588 C 1396.67 800.177 1429.09 813.571 1445.74 823.116 C 1452.29 814.131 1466.79 800.828 1475.56 793.214 C 1520.43 754.302 1574.15 720.65 1633.62 711.134 C 1657.23 707.356 1689.36 708.384 1711.54 717.776 z M 1697.49 1300.75 C 1686.69 1277.82 1674.37 1254.9 1668.14 1230.23 C 1663.97 1213.77 1664.39 1201.42 1681.15 1193.99 C 1674.58 1185.42 1670.24 1178.73 1667.56 1168.26 C 1660.7 1166.36 1658.49 1165.27 1652.7 1161.24 C 1645.86 1146.46 1641.61 1119.66 1639.98 1103.22 C 1638.79 1091.2 1646.97 1079.56 1660.22 1080.03 C 1661.16 1076.49 1656.61 1057.54 1655.37 1052.87 C 1627.74 1045.66 1632.45 1004.03 1636.05 982.343 C 1638.35 968.543 1641.59 964.055 1655.48 962.778 C 1657.8 957.567 1660.69 943.673 1662.15 937.582 C 1636.95 923.1 1644.18 905.528 1650.48 881.356 C 1656.18 859.524 1657.53 853.086 1681.03 857.261 C 1680.9 848.729 1680.51 842.214 1679.72 833.704 C 1666.94 795.346 1683.27 783.059 1697.96 749.668 C 1668.03 744.058 1639.47 742.486 1610.4 752.894 C 1484.38 798.009 1396.2 928.181 1316.44 1026.87 C 1393.31 1119.79 1511.9 1281.2 1640.99 1299.34 C 1654.82 1301.28 1681.4 1299.27 1697.49 1300.75 z M 1295.04 1056.74 C 1291.19 1067.75 1286.06 1078.33 1281.4 1089.01 C 1251.43 1157.58 1217.33 1225.41 1189.26 1294.7 C 1215.08 1281.83 1245.56 1268.18 1272.24 1256.94 C 1318.61 1234.31 1365.85 1213.51 1413.85 1194.58 C 1389.69 1170.8 1366.51 1142.04 1344.64 1116.17 C 1337.45 1107.67 1301.29 1061.34 1295.04 1056.74 z M 1722.19 1262 C 1721.23 1266.68 1728.58 1282.83 1730.77 1288.06 C 1774.01 1259.47 1808.83 1226.73 1834.92 1179.94 C 1906.72 1051.17 1875.29 873.356 1761.93 778.651 C 1753.07 771.256 1741.47 765.156 1731.3 759.547 C 1728.77 766.965 1723.99 774.751 1722.26 781.855 C 1755.05 811.766 1794.81 911.53 1805.58 954.927 C 1809.12 969.202 1811.2 983.8 1811.78 998.496 C 1812.3 1009.42 1812.13 1020.29 1812.14 1031.24 C 1812.26 1114.09 1778.57 1196.46 1725.17 1259.18 C 1724.32 1260.18 1723.17 1261.14 1722.19 1262 z M 1190.21 751.006 C 1193 760.719 1212.13 799.281 1217.23 810.556 L 1269.31 925.488 C 1279.22 947.175 1291.43 972.146 1300.31 993.935 C 1316.61 969.113 1334.02 947.693 1353.33 925.115 C 1371.53 905.428 1400.63 865.492 1420.24 849.613 C 1342.29 816.08 1270.9 780.049 1190.21 751.006 z"/>
<path transform="translate(0,0)" fill="rgb(197,209,248)" d="M 1679.72 833.704 C 1680.59 831.449 1679.92 832.471 1682.42 831.046 C 1718.43 831.564 1708.25 799.446 1722.26 781.855 C 1755.05 811.766 1794.81 911.53 1805.58 954.927 C 1809.12 969.202 1811.2 983.8 1811.78 998.496 C 1812.3 1009.42 1812.13 1020.29 1812.14 1031.24 C 1812.26 1114.09 1778.57 1196.46 1725.17 1259.18 C 1724.32 1260.18 1723.17 1261.14 1722.19 1262 C 1713.09 1254.57 1706.37 1224.69 1701.82 1213.84 C 1697.02 1202.39 1692.37 1198.6 1681.15 1193.99 C 1674.58 1185.42 1670.24 1178.73 1667.56 1168.26 C 1660.7 1166.36 1658.49 1165.27 1652.7 1161.24 C 1645.86 1146.46 1641.61 1119.66 1639.98 1103.22 C 1638.79 1091.2 1646.97 1079.56 1660.22 1080.03 C 1661.16 1076.49 1656.61 1057.54 1655.37 1052.87 C 1627.74 1045.66 1632.45 1004.03 1636.05 982.343 C 1638.35 968.543 1641.59 964.055 1655.48 962.778 C 1657.8 957.567 1660.69 943.673 1662.15 937.582 C 1636.95 923.1 1644.18 905.528 1650.48 881.356 C 1656.18 859.524 1657.53 853.086 1681.03 857.261 C 1680.9 848.729 1680.51 842.214 1679.72 833.704 z"/>
<path transform="translate(0,0)" fill="rgb(0,32,163)" d="M 1655.37 1052.87 C 1627.74 1045.66 1632.45 1004.03 1636.05 982.343 C 1638.35 968.543 1641.59 964.055 1655.48 962.778 C 1661.83 965.767 1666.77 968.216 1668.84 975.639 C 1674.23 994.998 1672.66 1019.06 1666.44 1038.12 C 1664.4 1044.34 1657.27 1048.78 1655.37 1052.87 z"/>
<path transform="translate(0,0)" fill="rgb(0,32,163)" d="M 1652.7 1161.24 C 1645.86 1146.46 1641.61 1119.66 1639.98 1103.22 C 1638.79 1091.2 1646.97 1079.56 1660.22 1080.03 C 1662.29 1084.9 1668.53 1088.29 1671.04 1093.48 C 1682.06 1116.3 1687.35 1149.02 1667.56 1168.26 C 1660.7 1166.36 1658.49 1165.27 1652.7 1161.24 z"/>
<path transform="translate(0,0)" fill="rgb(0,32,163)" d="M 1662.15 937.582 C 1636.95 923.1 1644.18 905.528 1650.48 881.356 C 1656.18 859.524 1657.53 853.086 1681.03 857.261 C 1683.61 861.174 1686.17 864.96 1688.54 869.009 C 1685.52 890.155 1683.61 925.577 1663.16 937.034 L 1662.15 937.582 z"/>
<path transform="translate(0,0)" fill="rgb(252,116,5)" d="M 1202.81 1006.85 C 1194.15 1001.82 1176.43 994.536 1166.81 990.363 L 1118.25 968.997 C 1079.36 951.983 1040.61 934.669 1001.99 917.055 L 471.87 672.726 L 260.104 574.802 L 194.292 544.348 C 185.188 540.137 135.673 522.103 140.336 505.916 C 144.514 491.414 166.206 491.9 178.81 497.587 C 256.69 532.724 334.159 569.377 411.939 604.892 L 944.584 849.726 L 1065.98 906.214 C 1131.5 937.327 1195 967.448 1263.14 992.79 C 1273.13 998.472 1294.72 1007.35 1296.66 1019.78 C 1299.44 1037.57 1279.99 1043.52 1265.75 1043.96 C 1263.1 1048.44 1261.04 1052.32 1257.64 1056.29 C 1221.05 1071.39 1182.96 1089.26 1146.89 1105.64 L 970.886 1185.72 L 543.936 1379.67 L 367.07 1460.14 C 335.498 1474.45 310.497 1487.02 277.716 1499.8 C 218.188 1475.52 327.919 1437.19 344.792 1429.51 C 404.208 1402.47 463.613 1375.33 523.006 1348.23 L 1022.92 1118.76 C 1080.73 1092.54 1142.39 1068.89 1199.39 1041.99 C 1179.43 1044.82 1129.71 1043.78 1107.82 1043.79 L 938.447 1043.76 L 383.452 1044.04 C 373.135 1044.01 355.576 1044.11 348.063 1036.17 C 341.103 1028.81 343.936 1015.6 351.084 1009.45 C 354.771 1006.28 360.94 1005.38 365.618 1005.18 C 384.35 1005.63 403.073 1005.56 421.816 1005.56 L 553.734 1005.8 L 842.828 1005.86 L 1074.42 1005.84 C 1113.29 1005.82 1165.61 1004.02 1202.81 1006.85 z"/>
<path transform="translate(0,0)" fill="rgb(252,116,5)" d="M 164.743 1005.45 C 183.176 1004.84 284.562 1002.24 295.9 1009.43 C 299.548 1011.75 302.203 1015.29 303.064 1019.55 C 304.106 1024.71 302.374 1030.14 299.494 1034.42 C 295.393 1040.52 290.115 1042.49 283.191 1043.94 C 259.841 1044.01 157.776 1048.06 145.939 1037.04 C 143.061 1034.36 141.524 1030.16 141.383 1026.28 C 141.191 1020.97 143.534 1015.5 147.166 1011.66 C 152.154 1006.39 157.936 1005.8 164.743 1005.45 z"/>
<path transform="translate(0,0)" fill="rgb(252,116,5)" d="M 212.718 1492.12 C 224.423 1493.72 235.97 1503.82 229.976 1514.33 C 220.356 1531.2 179.452 1545 162.711 1551.46 C 159.926 1551.13 157.339 1550.7 154.807 1549.38 C 150.136 1547 146.637 1542.81 145.118 1537.8 C 138.366 1515.09 196.267 1496.52 212.718 1492.12 z"/>
</svg>