<svg version="1.1" xmlns="http://www.w3.org/2000/svg" style="display: block;" viewBox="0 0 2048 2048" width="512" height="512" preserveAspectRatio="none">
<path transform="translate(0,0)" fill="rgb(238,145,7)" d="M 1605.18 945.152 C 1594.91 928.335 1580.53 893.258 1574.89 874.318 C 1556.79 813.587 1633.01 869.251 1648.26 878.196 L 1734.85 928.478 C 1774.59 951.56 1814.16 974.493 1854.51 996.724 C 1862.42 1001.08 1879.69 1016.16 1873.98 1028.47 C 1863.34 1042.71 1821.5 1063.99 1807 1072.22 C 1785.85 1084.23 1764.82 1096.45 1743.92 1108.87 L 1662.93 1156.42 C 1635.36 1172.65 1613.98 1186.12 1584.5 1199.07 C 1575.7 1194.01 1574.14 1192.57 1569.06 1183.49 C 1573.92 1167.48 1578.79 1153.48 1585.34 1138.15 C 1587.3 1133.57 1603.24 1099.37 1603.27 1098.08 C 1594.81 1096.87 1570.38 1097.31 1561 1097.29 L 1478.55 1097.25 L 1197.78 1097.28 C 1161.36 1097.3 1122.82 1099.91 1086.73 1095.35 C 1080.35 1094.54 1071.68 1089.25 1071.86 1082.15 C 1072.16 1076.86 1077.61 1071.45 1081.08 1067.7 C 1066.82 1061.63 1063.56 1053.15 1066.49 1037.94 C 1045.79 1038.75 1024.62 1038.64 1003.87 1038.48 C 924.713 1037.89 845.553 1038.36 766.395 1038.03 C 744.649 1037.94 737.683 1020.69 755.387 1007.23 C 796.657 1001.78 862.903 1005.22 907.178 1005.23 L 1008.78 1005.15 C 1026.37 1005.14 1050.28 1004.48 1067.27 1005.74 C 1066.18 997.884 1066.6 994.775 1067.29 986.796 C 1071.25 979.386 1072.02 979.257 1079.8 975.553 C 1063.3 949.813 1077.43 945.187 1102.23 944.925 C 1136.36 944.565 1170.53 944.755 1204.66 944.754 L 1401.14 944.777 L 1536.78 944.83 C 1555.94 944.849 1586.9 943.901 1605.18 945.152 z M 1615.9 1146.83 L 1639.43 1134.07 L 1635.08 1127.22 C 1632.77 1123.39 1631.75 1120.57 1627.28 1119.65 C 1624.04 1128.02 1620.1 1139.15 1615.9 1146.83 z"/>
<path transform="translate(0,0)" fill="rgb(1,68,198)" d="M 1605.18 945.152 C 1594.91 928.335 1580.53 893.258 1574.89 874.318 C 1556.79 813.587 1633.01 869.251 1648.26 878.196 L 1734.85 928.478 C 1774.59 951.56 1814.16 974.493 1854.51 996.724 C 1862.42 1001.08 1879.69 1016.16 1873.98 1028.47 C 1863.34 1042.71 1821.5 1063.99 1807 1072.22 C 1785.85 1084.23 1764.82 1096.45 1743.92 1108.87 L 1662.93 1156.42 C 1635.36 1172.65 1613.98 1186.12 1584.5 1199.07 C 1575.7 1194.01 1574.14 1192.57 1569.06 1183.49 C 1573.92 1167.48 1578.79 1153.48 1585.34 1138.15 C 1587.3 1133.57 1603.24 1099.37 1603.27 1098.08 C 1594.81 1096.87 1570.38 1097.31 1561 1097.29 L 1478.55 1097.25 L 1197.78 1097.28 C 1161.36 1097.3 1122.82 1099.91 1086.73 1095.35 C 1080.35 1094.54 1071.68 1089.25 1071.86 1082.15 C 1072.16 1076.86 1077.61 1071.45 1081.08 1067.7 C 1117.31 1065.75 1159.6 1067.17 1196.48 1067.2 L 1407.61 1067.24 C 1447.18 1067.23 1486.8 1067.4 1526.36 1067.05 C 1551.37 1066.82 1576.41 1063.51 1601.51 1065.44 C 1618.93 1066.78 1631.73 1069.36 1641.99 1084.86 C 1639.11 1095.88 1629.48 1108.9 1627.28 1119.65 C 1624.04 1128.02 1620.1 1139.15 1615.9 1146.83 L 1639.43 1134.07 C 1648.38 1129.83 1667.74 1115.77 1678.47 1109.66 C 1719.81 1086.11 1762.39 1063.98 1802.1 1037.87 C 1796.38 1033.53 1769.02 1018.48 1761.71 1014.37 C 1735.59 999.889 1709.67 985.039 1683.97 969.823 C 1672.2 962.77 1658.08 954.195 1648.09 944.845 C 1646.02 942.907 1640.66 930.971 1638.64 927.302 C 1635.08 919.021 1631.9 912.524 1627.74 904.514 C 1623.66 900.514 1620.05 898.507 1615.26 895.51 L 1630.16 923.964 C 1638.75 943.462 1654.66 975.414 1619.77 976.809 C 1614.67 975.53 1588.54 975.984 1581.67 976.016 L 1516.08 976.149 L 1216.1 976.109 L 1127.04 976.207 C 1114.79 976.224 1091.03 976.913 1079.8 975.553 C 1063.3 949.813 1077.43 945.187 1102.23 944.925 C 1136.36 944.565 1170.53 944.755 1204.66 944.754 L 1401.14 944.777 L 1536.78 944.83 C 1555.94 944.849 1586.9 943.901 1605.18 945.152 z"/>
<path transform="translate(0,0)" fill="rgb(246,192,96)" d="M 1627.74 904.514 C 1662 920.324 1706.76 948.412 1740.03 968.025 L 1796.23 1001.09 C 1808.31 1008.09 1820.56 1014.58 1832.23 1022.22 C 1823.02 1027.07 1811.32 1033.6 1802.1 1037.87 C 1796.38 1033.53 1769.02 1018.48 1761.71 1014.37 C 1735.59 999.889 1709.67 985.039 1683.97 969.823 C 1672.2 962.77 1658.08 954.195 1648.09 944.845 C 1646.02 942.907 1640.66 930.971 1638.64 927.302 C 1635.08 919.021 1631.9 912.524 1627.74 904.514 z"/>
<path transform="translate(0,0)" fill="rgb(246,192,96)" d="M 1079.8 975.553 C 1091.03 976.913 1114.79 976.224 1127.04 976.207 L 1216.1 976.109 L 1516.08 976.149 L 1581.67 976.016 C 1588.54 975.984 1614.67 975.53 1619.77 976.809 C 1622.59 984.92 1625.74 992.922 1628.65 1001.01 L 1235.04 1001.33 L 1136.89 1001.43 C 1123.61 1001.5 1093.8 1002.65 1082.49 1000.68 C 1077.61 996.536 1071.61 991.52 1067.29 986.796 C 1071.25 979.386 1072.02 979.257 1079.8 975.553 z"/>
<path transform="translate(0,0)" fill="rgb(192,122,42)" d="M 1641.99 1084.86 C 1643.47 1093.19 1649.11 1094.22 1645.72 1104.21 C 1643.5 1110.73 1640.34 1122.97 1635.08 1127.22 C 1632.77 1123.39 1631.75 1120.57 1627.28 1119.65 C 1629.48 1108.9 1639.11 1095.88 1641.99 1084.86 z"/>
<path transform="translate(0,0)" fill="rgb(1,68,198)" d="M 926.337 725.141 C 924.957 705.541 920.79 666.533 931.202 649.094 C 936.072 640.937 952.102 644.758 958.416 648.551 C 982.281 661.089 1005.29 675.275 1028.84 688.4 L 1120.45 739.714 C 1136.42 748.79 1153.42 757.906 1168.01 768.99 C 1172.68 772.544 1174.44 788.47 1168.92 793.376 C 1154.69 806.017 1137.55 815.93 1121.38 825.936 C 1090.45 845.221 1059.17 863.936 1027.56 882.071 C 1011.26 891.562 954.165 927.32 938.71 927.947 C 921.135 916.678 924.029 869.952 926.258 851.011 C 830.463 852.81 729.674 851.31 633.456 851.291 L 515.409 851.175 C 497.042 851.133 478.389 851.469 460.035 851.03 C 435.907 850.453 446.973 829.507 444.306 824.125 C 438.567 823.96 421.901 823.184 416.864 824.881 C 416.841 829.226 417.302 841.946 413.971 844.999 C 404.264 853.58 385.989 852.526 373.713 852.345 C 357.003 852.099 339.808 853.127 323.474 849.736 C 315.281 848.036 298.938 835.767 310.151 827.471 C 322.354 818.443 339.376 819.213 353.89 818.483 C 338.773 807.856 333.554 786.299 355.412 780.132 C 357.801 773.867 362.748 763.955 357.266 758.673 L 356.259 758.683 C 346.323 757.921 337.246 758.883 327.835 755.399 C 312.941 744.791 317.517 726.809 334.838 725.613 C 360.866 723.816 387.789 724.82 413.949 724.864 L 559.957 724.86 L 802.637 724.838 C 839.735 724.836 889.97 723.362 926.337 725.141 z"/>
<path transform="translate(0,0)" fill="rgb(172,197,249)" d="M 1017.75 749.565 C 1035.71 757.827 1055.41 770.182 1072.74 780.026 C 1079.73 784.001 1097.99 794.226 1103.98 798.821 C 1088.12 809.45 1066.44 822.163 1049.81 832.168 C 1022.71 848.474 986.253 872.323 957.656 884.497 C 960.213 869.629 959.481 844.717 957.699 829.814 C 947.98 821.348 940.085 819.612 927.486 818.69 C 903.436 816.93 879.343 819.592 855.276 819.886 C 819.956 820.178 784.529 820.035 749.211 820.036 L 569.589 819.999 C 537.402 819.957 504.143 819.318 472.021 820.477 C 455.918 821.058 440.405 823.908 423.76 822.91 C 411.157 822.154 398.793 820.954 386.212 820.101 C 378.408 819.572 360.395 820.08 353.89 818.483 C 338.773 807.856 333.554 786.299 355.412 780.132 C 357.385 782.759 357.269 783.629 361.351 783.819 C 370.968 784.267 380.751 783.787 390.435 783.847 L 463.04 783.958 L 682.439 783.933 L 865.021 783.949 C 893.329 783.954 929.403 784.937 957.146 782.077 C 976.041 780.128 998.341 757.804 1017.75 749.565 z"/>
<path transform="translate(0,0)" fill="rgb(215,229,248)" d="M 957.838 684.497 C 989.175 702.383 1020.14 721.102 1052.24 737.564 C 1079.07 751.319 1103.17 767.887 1128.55 783.746 C 1120.38 788.895 1112.36 793.995 1103.98 798.821 C 1097.99 794.226 1079.73 784.001 1072.74 780.026 C 1055.41 770.182 1035.71 757.827 1017.75 749.565 C 998.341 757.804 976.041 780.128 957.146 782.077 C 929.403 784.937 893.329 783.954 865.021 783.949 L 682.439 783.933 L 463.04 783.958 L 390.435 783.847 C 380.751 783.787 370.968 784.267 361.351 783.819 C 357.269 783.629 357.385 782.759 355.412 780.132 C 357.801 773.867 362.748 763.955 357.266 758.673 C 362.471 756.037 412.338 757.267 420.742 757.294 L 518.375 757.317 L 836.979 757.317 C 853.101 757.22 869.222 757.3 885.342 757.557 C 900.932 757.926 924.414 759.566 939.222 757.485 C 962.825 754.168 958.103 701.461 957.838 684.497 z"/>
<path transform="translate(0,0)" fill="rgb(172,197,249)" d="M 966.219 700.45 C 974.373 700.228 984.842 713.956 991.611 717.908 C 994.735 719.733 998.245 720.813 1001.73 722.518 C 999.662 723.637 1000.83 723.301 997.781 722.47 C 984.377 717.488 982.485 713.727 972.203 704.783 C 970.115 702.967 965.772 704.401 963.061 705.253 L 961.119 705.875 L 960.577 704.611 C 962.401 701.845 963.191 701.856 966.219 700.45 z"/>
<path transform="translate(0,0)" fill="rgb(1,68,198)" d="M 943.708 1111.89 C 962.904 1119.09 981.81 1131.5 999.649 1142.02 L 1065.55 1180.55 L 1123.27 1214.12 C 1136.46 1221.69 1149.86 1228.94 1162.57 1237.55 C 1180.64 1249.8 1183.58 1260.82 1164.07 1274.09 C 1151.83 1282.42 1138.42 1289.66 1125.47 1297.19 L 1062.87 1333.9 L 996.062 1373.43 C 984.857 1380.1 947.08 1405.35 934.927 1401.76 C 923.227 1393.06 925.676 1334.76 926.151 1319.04 C 809.586 1320.91 688.557 1319.28 571.685 1319.27 L 431.21 1319.33 C 403.766 1319.39 376.269 1320.26 348.841 1319.12 C 343.478 1318.89 328.535 1318.23 324.712 1314.21 C 319.297 1308.53 319.661 1297.73 326.202 1292.76 C 332.776 1287.76 338.046 1288.45 344.984 1285.9 C 341.504 1280.92 339.747 1276.45 337.262 1270.94 C 340.005 1243.69 339.424 1246.97 365.071 1246.61 C 378.144 1246.43 391.942 1246.4 405.094 1246.4 L 637.009 1246.4 C 669.017 1246.26 715.993 1243.5 746.958 1245.25 C 754.53 1246.97 820.612 1247.11 827.325 1243.1 C 814.681 1242.8 802.029 1242.91 789.393 1243.45 C 776.054 1244.04 760.464 1245.43 747.401 1243.63 C 740.46 1235.44 739.379 1230.42 736.063 1220.33 C 711.798 1219.18 684.234 1219.85 659.69 1219.9 L 538.213 1219.93 L 492.685 1219.93 C 485.131 1219.94 477.116 1220.38 469.643 1219.7 C 461.687 1218.98 454.247 1212.66 455.105 1204.15 C 456.164 1193.64 464.434 1188.41 474.327 1187.78 C 497.473 1186.32 520.583 1187.5 543.726 1187.72 L 641.632 1187.77 L 822.178 1187.77 C 856.337 1187.77 892.302 1187.2 926.351 1188.12 C 925.384 1176.67 924.678 1165.63 924.505 1154.15 C 924.211 1134.73 924.239 1121.21 943.708 1111.89 z"/>
<path transform="translate(0,0)" fill="rgb(172,197,249)" d="M 984.754 1205.86 C 1022.29 1224.87 1070.57 1247.62 1104.8 1271.09 C 1075.13 1289.48 1045.19 1307.85 1015.5 1326.18 C 1000.31 1335.56 974.346 1350.78 958.071 1357.42 C 958.066 1342.11 962.573 1304.38 955.811 1294.63 C 940.787 1285.36 871.827 1287.78 851.159 1287.78 L 747.732 1287.5 L 432.589 1287.53 C 421.002 1287.54 350.467 1289.12 344.984 1285.9 C 341.504 1280.92 339.747 1276.45 337.262 1270.94 C 340.005 1243.69 339.424 1246.97 365.071 1246.61 C 378.144 1246.43 391.942 1246.4 405.094 1246.4 L 637.009 1246.4 C 669.017 1246.26 715.993 1243.5 746.958 1245.25 C 754.53 1246.97 820.612 1247.11 827.325 1243.1 C 837.067 1242.6 912.237 1245.15 917.799 1247.82 C 928.51 1248.32 960.909 1249.28 969.212 1246.44 C 971.107 1243.6 973.974 1240.35 975.37 1238.1 C 981.322 1228.51 981.725 1216.31 984.754 1205.86 z"/>
<path transform="translate(0,0)" fill="rgb(141,173,232)" d="M 969.212 1246.44 C 967.039 1254.52 925.331 1250.85 917.799 1247.82 C 928.51 1248.32 960.909 1249.28 969.212 1246.44 z"/>
<path transform="translate(0,0)" fill="rgb(215,229,248)" d="M 957.941 1155.38 C 1014.8 1187.01 1079.66 1221.68 1132.84 1258.67 C 1123.89 1262.51 1113.37 1266.72 1104.8 1271.09 C 1070.57 1247.62 1022.29 1224.87 984.754 1205.86 C 981.725 1216.31 981.322 1228.51 975.37 1238.1 C 973.974 1240.35 971.107 1243.6 969.212 1246.44 C 960.909 1249.28 928.51 1248.32 917.799 1247.82 C 912.237 1245.15 837.067 1242.6 827.325 1243.1 C 814.681 1242.8 802.029 1242.91 789.393 1243.45 C 776.054 1244.04 760.464 1245.43 747.401 1243.63 C 740.46 1235.44 739.379 1230.42 736.063 1220.33 L 738.091 1220.11 C 772.591 1216.6 936.71 1227.1 953.992 1213.31 C 960.159 1202.77 958.154 1169.2 957.941 1155.38 z"/>
<path transform="translate(0,0)" fill="rgb(1,68,198)" d="M 185.165 1005.27 C 207.286 1004.09 237.001 1004.98 259.704 1004.97 L 400.734 1004.96 L 572.648 1004.95 C 602.682 1004.95 632.898 1004.82 662.941 1005.1 C 668.182 1005.77 680.936 1005.84 685.451 1008.12 C 704.025 1017.5 693.746 1033.56 678.308 1037.96 C 663.139 1039.33 634.288 1038.39 617.824 1038.39 L 501.873 1038.37 L 296.009 1038.36 C 263.636 1038.37 231.209 1038.45 198.832 1038.49 C 193.199 1038.5 184.054 1037.65 178.64 1036.05 C 175.535 1035.13 171.518 1030.73 170.588 1027.4 C 169.286 1022.74 170.361 1017.94 172.772 1013.77 C 176.083 1008.04 179.195 1006.96 185.165 1005.27 z"/>
<path transform="translate(0,0)" fill="rgb(1,68,198)" d="M 212.503 724.506 C 234.525 724.285 269.726 722.053 289.389 728.936 C 292.827 740.829 291.909 742.829 286.452 753.413 C 276.408 760.22 262.265 758.315 249.75 758.205 C 227.321 758.357 201.084 759.677 179.531 755.181 C 172.685 749.038 167.548 740.204 175.724 732.405 C 185.414 723.162 200.066 724.544 212.503 724.506 z"/>
<path transform="translate(0,0)" fill="rgb(1,68,198)" d="M 194.944 1286.38 C 222.247 1285.5 256.168 1284.4 282.592 1289.69 C 294.304 1292.04 290.61 1305.55 286.874 1313.03 C 278.444 1319.25 276.838 1318.98 266.627 1319.59 C 247.829 1320.15 189.597 1323.26 176.307 1313.48 C 173.478 1311.4 171.187 1308.47 171.043 1304.81 C 170.873 1300.47 173.34 1295.94 176.183 1292.81 C 181.167 1287.33 188.047 1286.92 194.944 1286.38 z"/>
<path transform="translate(0,0)" fill="rgb(1,68,198)" d="M 357.792 1186.43 C 373.17 1185.74 444.184 1181.15 422.164 1215.62 C 417.768 1222.5 387.353 1220.06 378.5 1219.94 C 365.347 1219.98 321.966 1221.78 315.732 1215.05 C 288.783 1186 349.988 1186.79 357.792 1186.43 z"/>
<path transform="translate(0,0)" fill="rgb(78,118,195)" fill-opacity="0.941176" d="M 747.401 1243.63 C 760.464 1245.43 776.054 1244.04 789.393 1243.45 C 802.029 1242.91 814.681 1242.8 827.325 1243.1 C 820.612 1247.11 754.53 1246.97 746.958 1245.25 L 747.401 1243.63 z"/>
</svg>