<svg version="1.1" xmlns="http://www.w3.org/2000/svg" style="display: block;" viewBox="0 0 2048 2048" width="512" height="512" preserveAspectRatio="none">
<defs>
	<linearGradient id="Gradient1" gradientUnits="userSpaceOnUse" x1="1274.39" y1="488.095" x2="1114.41" y2="485.332">
		<stop class="stop0" offset="0" stop-opacity="1" stop-color="rgb(229,133,75)"/>
		<stop class="stop1" offset="1" stop-opacity="1" stop-color="rgb(241,169,127)"/>
	</linearGradient>
	<linearGradient id="Gradient2" gradientUnits="userSpaceOnUse" x1="501.806" y1="507.221" x2="764.41" y2="468.231">
		<stop class="stop0" offset="0" stop-opacity="1" stop-color="rgb(203,72,0)"/>
		<stop class="stop1" offset="1" stop-opacity="1" stop-color="rgb(228,120,49)"/>
	</linearGradient>
	<linearGradient id="Gradient3" gradientUnits="userSpaceOnUse" x1="1548.68" y1="513.025" x2="1278.96" y2="462.53">
		<stop class="stop0" offset="0" stop-opacity="1" stop-color="rgb(201,73,6)"/>
		<stop class="stop1" offset="1" stop-opacity="1" stop-color="rgb(234,129,66)"/>
	</linearGradient>
</defs>
<path transform="translate(0,0)" fill="rgb(7,54,174)" d="M 952.252 413.46 C 956.779 398.991 963.855 384.238 970.779 370.508 C 984.741 342.826 1013.51 306.196 1048.51 326.485 C 1068.8 338.241 1078.48 365.744 1087.05 386.204 C 1090.57 394.613 1094.74 404.41 1097.18 413.19 C 1129.65 411.46 1177.64 412.946 1211.8 413.001 L 1435.11 413.18 L 1508.39 413.042 C 1517.89 413.018 1539.14 413.475 1547.83 412.127 C 1547.96 405.79 1547.9 391.725 1552.93 388.429 C 1569.16 377.776 1581.43 386.007 1582.24 404.036 C 1582.94 419.442 1583.03 431.547 1583.04 445.587 L 1582.91 511.964 C 1582.87 532.042 1583.83 552.47 1582.58 572.368 C 1582.03 581.095 1571.68 594.828 1562.04 592.184 C 1546.75 587.992 1546.44 574.2 1547.36 561.899 C 1514.67 562.504 1480.68 561.887 1447.85 561.879 L 1251.44 561.858 L 1176.73 561.805 C 1166.45 561.862 1137.41 562.597 1128.9 560.899 C 1143.97 586.374 1163.16 611.875 1179.7 636.462 L 1274.63 778.551 L 1582.71 1239.35 L 1666.71 1364.88 C 1675.57 1377.94 1710.75 1427.57 1715.36 1439.33 C 1668.96 1447.93 1620.04 1452.45 1573.98 1462.69 C 1565.96 1464.47 1550.09 1472.95 1544.25 1478.77 C 1536.23 1480.37 1511.52 1480.19 1502.79 1480.16 L 1433.7 1479.61 L 1241.17 1479.53 L 753.604 1479.55 L 601.477 1479.59 C 569.38 1479.64 535.933 1480.16 503.951 1479.3 C 497.655 1473.74 487.046 1468.11 478.942 1465.83 C 432.012 1452.61 381.973 1451.47 334.922 1438.94 C 348.276 1417.28 363.534 1395.95 377.736 1374.65 L 462.791 1247.01 L 722.061 858.088 L 856.968 655.813 L 896.176 596.694 C 902.72 586.828 913.696 569.485 921.038 561.151 C 910.143 562.53 882.134 561.894 869.908 561.903 L 771.487 561.905 L 595.817 561.898 C 566.263 561.914 533.796 562.723 504.517 561.884 C 508.475 603.738 469.047 610.557 466.115 569.336 C 463.863 537.679 464.728 503.008 464.928 471.061 C 465.05 451.598 463.163 418.99 465.911 400.709 C 466.716 395.689 468.852 390.976 472.096 387.06 C 479.175 378.605 490.114 378.867 497.639 386.881 C 504.942 394.657 504.354 402.591 504.064 412.509 C 606.36 414.393 713.571 412.908 816.092 412.897 L 895.245 412.796 C 913.556 412.697 934.213 412.039 952.252 413.46 z M 382.602 1439.91 L 1088.5 1439.72 L 1670.29 1439.77 C 1630.11 1378.32 1587.31 1316.07 1546.35 1254.85 L 1258.86 825.521 L 1148.18 660.318 C 1132.48 637.141 1117.03 613.788 1101.84 590.264 C 1096.46 581.962 1088.13 570.034 1083.42 561.878 C 1059.08 562.107 1034.74 562.195 1010.4 562.14 C 996.488 562.137 979.748 562.539 966.148 561.635 C 961.719 571.585 944.205 596.586 937.319 606.945 L 878.314 695.633 L 666.056 1014.53 L 470.125 1309.45 L 413.341 1394.81 C 405.725 1406.27 390.925 1429.93 382.602 1439.91 z"/>
<path transform="translate(0,0)" fill="url(#Gradient3)" d="M 1548.29 435.307 C 1549.98 439.787 1550.74 519.518 1548.43 526.914 C 1455.02 526.953 1359.17 525.681 1266.05 526.752 C 1266.73 521.559 1267.4 521.042 1268.82 517.4 C 1273.03 506.625 1281.17 459.699 1277.73 450.969 L 1278.68 449.128 C 1306.65 449.356 1334.42 448.493 1362.33 448.266 C 1424.27 447.914 1486.21 447.902 1548.14 448.23 C 1548.17 443.922 1548.22 439.614 1548.29 435.307 z"/>
<path transform="translate(0,0)" fill="url(#Gradient2)" d="M 502.656 526.721 C 501.515 521.521 502.226 440.367 503.535 435.204 L 503.585 448.253 L 684.281 448.203 L 732.871 448.123 C 741.171 448.096 756.677 447.738 764.322 448.842 C 763.315 464.964 768.522 510.998 772.859 526.543 C 762.354 527.5 747.224 527.073 736.362 527.037 L 675.966 526.897 C 619.042 526.894 559.356 527.874 502.656 526.721 z"/>
<path transform="translate(0,0)" fill="rgb(236,168,124)" d="M 764.322 448.842 C 784.772 449.5 804.514 448.398 824.857 448.234 L 936.215 448.193 C 925.076 476.904 913.514 499.988 902.352 527.046 C 880.003 527.08 857.611 527.342 835.281 527.303 C 814.67 527.267 793.471 525.854 772.859 526.543 C 768.522 510.998 763.315 464.964 764.322 448.842 z"/>
<path transform="translate(0,0)" fill="url(#Gradient1)" d="M 1111.5 448.173 L 1219.39 448.124 C 1236.11 448.124 1262.89 447.359 1278.68 449.128 L 1277.73 450.969 C 1281.17 459.699 1273.03 506.625 1268.82 517.4 C 1267.4 521.042 1266.73 521.559 1266.05 526.752 C 1227.03 527.619 1185.4 526.919 1146.19 527.061 L 1111.5 448.173 z"/>
<path transform="translate(0,0)" fill="rgb(240,103,23)" d="M 504.517 561.884 C 508.475 603.738 469.047 610.557 466.115 569.336 C 463.863 537.679 464.728 503.008 464.928 471.061 C 465.05 451.598 463.163 418.99 465.911 400.709 C 466.716 395.689 468.852 390.976 472.096 387.06 C 479.175 378.605 490.114 378.867 497.639 386.881 C 504.942 394.657 504.354 402.591 504.064 412.509 C 503.837 420.073 503.66 427.638 503.535 435.204 C 502.226 440.367 501.515 521.521 502.656 526.721 C 503.121 533.788 503.493 556.905 504.517 561.884 z"/>
<path transform="translate(0,0)" fill="rgb(240,103,23)" d="M 1547.83 412.127 C 1547.96 405.79 1547.9 391.725 1552.93 388.429 C 1569.16 377.776 1581.43 386.007 1582.24 404.036 C 1582.94 419.442 1583.03 431.547 1583.04 445.587 L 1582.91 511.964 C 1582.87 532.042 1583.83 552.47 1582.58 572.368 C 1582.03 581.095 1571.68 594.828 1562.04 592.184 C 1546.75 587.992 1546.44 574.2 1547.36 561.899 C 1548.18 550.81 1547.77 538.475 1548.43 526.914 C 1550.74 519.518 1549.98 439.787 1548.29 435.307 C 1548.02 427.583 1547.87 419.856 1547.83 412.127 z"/>
<path transform="translate(0,0)" fill="rgb(240,103,23)" d="M 1715.36 1439.33 C 1722.32 1439.28 1730.11 1437.4 1737.06 1436.24 L 1775.96 1429.73 C 1815.93 1422.87 1859 1413.76 1875.77 1461.4 C 1883.38 1483.02 1885.55 1506.9 1889.71 1529.38 C 1905.69 1597.57 1846.49 1602.55 1793.2 1611.23 L 1724.04 1622.38 L 1652.41 1633.89 C 1583.78 1644.46 1548.61 1652.98 1539.71 1571.59 C 1536.08 1538.36 1516.24 1509.27 1544.25 1478.77 C 1550.09 1472.95 1565.96 1464.47 1573.98 1462.69 C 1620.04 1452.45 1668.96 1447.93 1715.36 1439.33 z"/>
<path transform="translate(0,0)" fill="rgb(236,168,124)" d="M 1815.5 1461.39 C 1816.79 1461.25 1818.07 1461.16 1819.36 1461.1 C 1845.25 1460.2 1844.31 1486.42 1847.43 1505.65 C 1850.22 1522.79 1853.7 1541.23 1853.11 1558.52 C 1826.27 1578.13 1701.97 1586.2 1662.51 1593.45 C 1642.39 1597.15 1624.98 1600.88 1603.93 1605.97 C 1581.8 1603.18 1576.07 1591.04 1573.32 1570.53 C 1571.24 1555.01 1569.23 1539.43 1566.56 1524 C 1565.84 1518.66 1563.58 1509.21 1567.53 1504.86 C 1577.06 1494.36 1602.35 1493.05 1616.07 1491.03 L 1673.16 1482.61 C 1718.91 1475.87 1770.29 1466.66 1815.5 1461.39 z"/>
<path transform="translate(0,0)" fill="rgb(240,103,23)" d="M 503.951 1479.3 C 504.379 1480.43 505.704 1482.54 506.35 1483.77 C 513.701 1497.76 517.19 1514.52 515.501 1530.28 C 514.149 1541.35 511.98 1552.59 509.925 1563.55 C 506.086 1584.03 505.584 1614.84 487.563 1628.47 C 456.89 1651.68 405.393 1636.29 370.037 1630.3 C 340.509 1625.53 311.008 1620.59 281.536 1615.49 C 259.635 1611.66 237.677 1607.99 215.802 1604.15 C 197.766 1600.99 179.778 1593.66 168.379 1578.67 C 156.663 1563.27 156.16 1541.62 159.765 1521.98 C 164.935 1493.82 170.698 1451.2 194.335 1431.61 C 227.363 1409.03 298.027 1432.93 334.922 1438.94 C 381.973 1451.47 432.012 1452.61 478.942 1465.83 C 487.046 1468.11 497.655 1473.74 503.951 1479.3 z"/>
<path transform="translate(0,0)" fill="rgb(236,168,124)" d="M 218.28 1458.01 C 229.621 1457.48 248.023 1460.33 259.548 1462.02 C 315.825 1470.25 371.671 1481.91 427.361 1493.37 C 444.191 1496.83 461.492 1500.39 477.764 1505.94 C 479.473 1534.89 474.606 1580.93 456.629 1605.01 C 456.238 1605.12 455.851 1605.25 455.455 1605.34 C 444.626 1607.8 303.187 1580.63 281.427 1577.06 C 262.436 1573.94 243.016 1572.44 224.147 1568.8 C 219.038 1567.81 209.205 1566.15 205.118 1563 C 199.96 1559.02 198.387 1549.36 198.125 1543.35 C 197.478 1528.49 204.799 1483.76 210.31 1470.02 C 212.208 1465.29 214.851 1461.73 218.28 1458.01 z"/>
</svg>