<svg version="1.1" xmlns="http://www.w3.org/2000/svg" style="display: block;" viewBox="0 0 2048 2048" width="512" height="512" preserveAspectRatio="none">
<path transform="translate(0,0)" fill="rgb(7,51,188)" d="M 1003.95 520.125 C 1279.33 509.116 1511.53 723.325 1522.72 998.689 C 1533.92 1274.05 1319.86 1506.4 1044.5 1517.78 C 768.889 1529.16 536.276 1314.86 525.073 1039.24 C 513.87 763.616 728.324 531.145 1003.95 520.125 z M 1041.52 1444.77 C 1277.06 1434.98 1460.01 1236 1450.04 1000.47 C 1440.08 764.933 1240.97 582.128 1005.44 592.27 C 770.156 602.402 587.583 801.259 597.541 1036.55 C 607.499 1271.84 806.221 1454.56 1041.52 1444.77 z"/>
<path transform="translate(0,0)" fill="rgb(153,174,239)" d="M 1019.64 561.455 C 1272.11 559.092 1478.72 761.801 1481.17 1014.27 C 1483.61 1266.75 1280.97 1473.42 1028.5 1475.95 C 775.911 1478.48 569.118 1275.73 566.67 1023.14 C 564.222 770.546 767.047 563.819 1019.64 561.455 z M 1041.52 1444.77 C 1277.06 1434.98 1460.01 1236 1450.04 1000.47 C 1440.08 764.933 1240.97 582.128 1005.44 592.27 C 770.156 602.402 587.583 801.259 597.541 1036.55 C 607.499 1271.84 806.221 1454.56 1041.52 1444.77 z"/>
<path transform="translate(0,0)" fill="rgb(7,51,188)" d="M 1005.44 592.27 C 1240.97 582.128 1440.08 764.933 1450.04 1000.47 C 1460.01 1236 1277.06 1434.98 1041.52 1444.77 C 806.221 1454.56 607.499 1271.84 597.541 1036.55 C 587.583 801.259 770.156 602.402 1005.44 592.27 z M 1053.83 895.926 C 1067.87 900.478 1082.72 907.181 1094.94 915.485 C 1122.83 884.633 1151.09 860.018 1180.95 831.22 L 1234.83 777.612 C 1246.01 766.518 1269.99 742.781 1282.71 734.128 C 1235.06 688.669 1189.84 665.917 1126.67 648.846 C 1109.65 644.249 1089.79 640.056 1073.23 635.262 C 1072.33 656.315 1070.24 676.691 1068.65 697.653 L 1060.66 804.039 L 1056.66 860.337 C 1056.03 870.479 1055.66 886.58 1053.83 895.926 z M 1126.43 945.288 C 1137.5 959.538 1147.2 978.016 1151.78 995.469 C 1167.39 992.477 1198.76 988.849 1215 987.7 C 1256.51 982.75 1298.06 978.094 1339.65 973.731 C 1359.72 971.674 1382.68 968.794 1402.49 967.842 C 1398.73 953.279 1396.94 938.273 1393.3 923.445 C 1381.65 874.316 1360.15 828.061 1330.11 787.477 C 1326.95 783.26 1314.23 765.088 1309.74 763.716 C 1267.53 807.99 1224.63 848.443 1181.1 891.338 C 1163.95 908.231 1142.48 927.875 1126.43 945.288 z M 663.407 1153.79 C 706.04 1131.81 749.819 1114.96 794.535 1097.83 C 803.433 1094.43 812.48 1091.02 821.187 1087.18 C 846.06 1077.68 871.103 1067.23 896.251 1057.55 C 891.901 1037.8 891.116 1028.61 891.573 1008.29 C 877.718 1003.86 861.165 996.276 847.151 990.79 C 821.598 980.949 795.88 971.541 770.009 962.569 C 745.884 954.199 721.655 946.131 697.327 938.369 C 685.676 934.711 660.863 927.764 650.709 923.236 C 649.052 939.149 645.559 955.447 643.389 971.384 C 636.402 1022.69 638.943 1075.7 654.582 1125.25 C 657.545 1134.64 661.207 1144.2 663.407 1153.79 z M 1073.15 1143.68 C 1075.78 1152.2 1077.7 1160.77 1079.83 1169.41 C 1091.31 1216.12 1101.74 1263.09 1113.24 1309.78 C 1116.97 1324.93 1121.96 1340.19 1126.95 1354.98 C 1130.08 1364.27 1136.63 1378.32 1138.63 1387.32 C 1153.78 1379.45 1172.27 1372.91 1188.15 1365.69 C 1206.13 1357.5 1218.02 1350.03 1234.5 1339.86 C 1273.33 1311.64 1291.29 1296.49 1323.21 1259.18 C 1302.68 1243.73 1278.03 1228.57 1256.54 1213.96 L 1114.23 1116.77 C 1102.46 1127.85 1088.16 1137.6 1073.15 1143.68 z M 1010.62 635.422 C 944.715 639.213 877.276 655.85 822.729 694.255 C 832.581 713.668 854.603 743.096 867.98 761.441 C 885.373 785.294 901.912 810.713 918.964 834.38 C 932.685 852.221 960.783 885.342 969.316 905.563 C 985.187 898.232 995.056 895.445 1012.88 895.831 C 1010.76 876.613 1013.21 846.04 1014.77 826.671 L 1021.89 740.544 C 1023.83 714.451 1025.91 657.543 1030.57 635.116 C 1024.77 635.146 1016.17 634.951 1010.62 635.422 z M 1030.65 1153.85 C 1014.64 1154.65 996.553 1153 981.249 1148.14 C 975.385 1165.03 965.001 1186.43 957.289 1202.84 C 942.733 1233.67 927.855 1264.35 912.657 1294.87 C 900.895 1318.79 886.405 1352.84 874.196 1374.35 C 886.149 1375.71 903.445 1382.34 915.919 1385.37 C 939.896 1391.19 964.662 1397.64 988.869 1402.3 C 1019.07 1402.11 1049.11 1401.66 1079.04 1397.47 C 1084.34 1396.73 1089.66 1396.02 1095 1395.58 C 1089.56 1381.6 1083.24 1354.27 1079.41 1338.99 L 1052.55 1230.01 C 1048.71 1214.66 1044.45 1199.42 1039.77 1184.3 C 1037.5 1176.94 1032 1160.95 1030.65 1153.85 z M 680.346 1193.13 C 689.775 1206.53 697.388 1220.48 706.628 1234.08 C 723.398 1258.75 741.561 1279.42 763.654 1299.45 C 791.377 1326.01 805.697 1334.07 837.737 1352.32 C 858.221 1302.31 886.225 1251.99 908.693 1202.55 C 920.126 1177.39 933.662 1153.54 944.387 1127.71 C 938.878 1123.1 917.716 1097.45 914.076 1096.98 C 913.952 1096.97 913.831 1097.04 913.708 1097.07 C 870.118 1113.68 827.071 1131.13 784.219 1149.57 C 752.357 1163.28 710.173 1177.41 680.346 1193.13 z M 663.538 883.397 C 704.355 894.331 747.625 910.625 787.774 924.25 C 798.898 928.026 826.185 940.47 834.836 942.339 C 857.982 951.026 881.874 957.424 904.576 968.193 C 913.882 949.142 918.461 942.694 933.096 927.145 C 899.169 880.632 865.7 833.787 832.693 786.618 L 801.826 741.739 C 797.866 735.97 789.673 723.426 785.467 718.707 L 784.793 719.357 C 775.254 728.433 765.119 735.685 755.083 745.759 C 725.587 775.772 700.555 809.866 680.755 846.998 C 674.378 859.126 669.519 871.344 663.538 883.397 z M 1406.6 1010.18 C 1403.92 1009.97 1397.34 1009.28 1394.98 1009.4 C 1344.18 1013.89 1293.47 1019.21 1242.84 1025.35 C 1220.09 1028.09 1173.7 1035.14 1152.21 1035.64 C 1149.16 1057.95 1145.92 1063.6 1138.77 1083.51 C 1161.11 1090.57 1210.05 1130.35 1231.58 1143.53 C 1266.32 1170.47 1313.27 1196.84 1348.44 1224.38 C 1353.15 1214.68 1357.98 1204.8 1362.89 1195.28 C 1386.18 1150.1 1401.69 1100.63 1405.24 1049.78 C 1406.12 1037.2 1408.52 1022.7 1406.6 1010.18 z M 1026.49 1110.71 C 1074.64 1108.43 1111.88 1067.67 1109.82 1019.51 C 1107.77 971.359 1067.18 933.924 1019.01 935.76 C 970.536 937.608 932.802 978.521 934.874 1026.99 C 936.946 1075.46 978.034 1113 1026.49 1110.71 z"/>
<path transform="translate(0,0)" fill="rgb(245,114,8)" d="M 1757.27 1000.99 C 1765.74 1002 1771.85 1003.92 1777.38 1010.76 C 1790.02 1026.42 1786.53 1055.25 1784.15 1073.8 C 1756.08 1292.8 1663.3 1476.47 1487.12 1612.92 C 1328.22 1736.5 1126.71 1791.84 926.98 1766.75 C 742.766 1741.54 573.432 1651.9 449.007 1513.74 C 430.595 1493.62 414.038 1472.65 397.362 1451.14 C 399.207 1467.28 399.028 1490.8 399.238 1507.48 C 399.508 1528.99 400.976 1554.32 397.378 1575.39 C 396.257 1581.96 393.941 1585.24 390.413 1590.61 L 379.537 1595.8 C 364.966 1591.99 351.165 1589.04 350.563 1571.71 C 349.665 1545.83 349.952 1519.96 350.009 1494.07 C 349.937 1464.37 350.36 1434.68 351.276 1404.99 C 351.689 1390.09 351.732 1372.93 353.144 1358.3 C 360.16 1350.25 361.953 1349.08 372.5 1351.01 C 385.162 1352.18 413.577 1361.15 426.977 1365.16 L 487.532 1382.89 L 555.145 1402.48 C 570.961 1407 585.984 1410.64 601.503 1416.73 C 618.261 1423.3 631.662 1430.7 619.82 1450.58 C 615.372 1458.04 611.878 1460.17 604.008 1463.39 C 567.066 1453.72 529.6 1443.35 492.892 1432.83 C 473.627 1427.3 446.039 1421.77 428.246 1415.76 C 440.8 1436.14 470.034 1469.23 486.284 1486.73 C 581.445 1589.26 715.513 1672.98 851.866 1706.72 C 1001.41 1744.96 1159.46 1731.87 1300.67 1669.55 C 1377.66 1635.98 1451.55 1587.55 1513.02 1530.3 C 1615.19 1434.47 1687.07 1310.84 1719.81 1174.64 C 1726.85 1144.04 1732.13 1113.77 1735.48 1082.48 C 1737.54 1063.3 1735.5 1040.72 1739.83 1021.81 C 1741.93 1012.64 1748.09 1006.18 1756.13 1001.62 L 1757.27 1000.99 z"/>
<path transform="translate(0,0)" fill="rgb(245,114,8)" d="M 998.326 265.5 C 1229.67 250.173 1470.6 368.006 1614 544.676 C 1622.29 554.888 1643.9 586.234 1652.3 592.346 L 1653.46 591.724 C 1651.23 575.482 1652.36 552.73 1652.08 535.937 C 1651.63 509.228 1651.75 481.582 1653.84 455.01 C 1654.69 444.223 1669.7 435.7 1679.81 438.144 C 1704.26 444.224 1699.4 485.783 1699.09 504.342 C 1698.87 520.067 1698.81 535.793 1698.9 551.518 L 1699.06 629.934 C 1699.17 645.702 1700.16 663.044 1698.09 678.683 C 1697.7 682.188 1692.47 685.324 1689.75 687.026 C 1672.88 697.619 1646.92 683.91 1629.01 677.802 L 1566.03 656.786 C 1532.95 646.013 1498.14 638.175 1466.88 623.595 C 1450.88 616.136 1422.54 597.816 1440.59 578.874 C 1445.78 573.432 1451.21 572.028 1458.47 573.427 C 1484.33 578.414 1508.56 589.666 1533.52 597.805 C 1562.76 608.441 1594.53 618.212 1623.07 630.221 C 1602.68 600.888 1578.3 564.43 1553.71 538.895 C 1415.76 393.67 1224.91 310.452 1024.62 308.19 C 994.573 309.265 967.853 309.43 937.612 312.704 C 843.821 323.671 753.297 353.846 671.684 401.345 C 498.934 503.493 375.175 671.525 328.865 866.799 C 319.025 908.484 313.441 946.779 313.206 989.419 C 313.098 1009.09 307.06 1026.55 288.906 1036.87 C 262.784 1026.48 264.517 1013.31 265.388 988.471 C 266.025 970.285 267.975 953.383 270.113 935.383 C 289.356 777.44 357.201 629.38 464.265 511.679 C 608.28 355.351 785.701 274.348 998.326 265.5 z"/>
</svg>