<svg version="1.1" xmlns="http://www.w3.org/2000/svg" style="display: block;" viewBox="0 0 2048 2048" width="512" height="512" preserveAspectRatio="none">
<path transform="translate(0,0)" fill="rgb(22,65,175)" d="M 274.607 943.84 C 292.703 939.92 331.774 937.658 351.962 935.841 L 498.26 922.61 L 770.287 898.092 C 792.184 896.138 871.978 886.662 888.914 889.854 C 901.374 895.52 930.339 908.827 939.373 918.332 C 928.608 922.173 857.937 925.773 842.143 927.422 C 710.11 940.448 577.986 952.535 445.782 963.683 L 352.422 971.539 C 338.699 972.723 309.55 974.776 297.386 978.199 C 286.678 995.031 270.327 1044.01 260.716 1065.29 L 844.963 1016.69 L 1006.54 1003.07 C 1024.69 1001.5 1070.2 996.035 1085.89 997.222 C 1099.08 1001.58 1132.73 1019.32 1142.91 1028.92 C 1118.6 1033.07 1076.87 1032.42 1055.7 1038.14 L 860.383 1415.25 C 853.695 1428.03 793.209 1538.77 792.619 1543.92 C 776.553 1565.76 766.627 1565.85 749.978 1545.22 C 748.664 1539.93 730.135 1507.71 726.171 1500.41 C 715.571 1480.9 704.609 1461.03 694.107 1441.4 C 628.919 1321.72 564.658 1201.54 501.328 1080.86 C 439.595 1086.67 377.819 1091.99 316.004 1096.84 C 293.603 1098.69 271.212 1102.81 248.796 1104.03 C 241.452 1104.43 227.592 1104.06 221.924 1099.26 C 214.888 1093.14 216.451 1079.17 219.546 1071.37 C 233.967 1035 246.605 997.707 262.752 962.064 C 265.841 955.247 269.834 949.462 274.607 943.84 z M 541.016 1080.56 C 555.333 1104.06 569.114 1132.23 582.238 1156.71 L 655.424 1293.72 C 667.01 1315.72 682.206 1346.52 694.818 1367.21 C 710.871 1400.43 732.994 1435.25 749.526 1468.75 C 755.725 1481.3 765.639 1498.46 770.398 1511.31 C 787.298 1475.59 806.966 1439.85 825.148 1404.74 L 931.648 1200.06 C 950.351 1163.77 969.259 1127.59 988.371 1091.52 C 995.227 1078.29 1008.61 1049.67 1016.24 1038.45 L 1003.96 1039.6 C 987.674 1040.87 972.145 1043.11 955.971 1044.51 L 767.511 1059.95 C 721.625 1063.39 675.759 1067.1 629.917 1071.09 C 597.062 1073.97 574.058 1075.13 541.016 1080.56 z"/>
<path transform="translate(0,0)" fill="rgb(246,124,23)" d="M 888.914 889.854 C 881.833 883.867 871.766 878.446 863.755 873.525 C 832.682 854.438 798.815 839.668 767.163 822.31 L 329.567 584.682 C 276.92 556.113 223.831 527.285 170.52 499.97 C 151.917 490.438 137.447 474.126 160.908 459.149 C 164.569 456.812 169.635 459.131 173.325 460.384 C 204.09 472.666 233.194 491.609 262.134 507.562 L 409.49 587.261 L 837.159 817.637 C 863.802 832.024 890.146 847.459 916.549 862.204 C 928.103 868.657 944.939 878.656 956.837 883.177 L 958.551 883.817 C 966.238 881.283 983.566 879.618 992.284 878.705 C 1023.01 875.487 1054.16 873.412 1084.97 870.743 L 1184.61 862.201 C 1202.05 860.599 1219.8 858.662 1237.3 857.096 C 1256.67 855.362 1261.09 857 1269.96 875.192 C 1285.84 907.748 1299.47 942.1 1312.91 975.779 C 1314.41 979.558 1322.28 999.321 1322.09 1001.42 C 1320.3 1020.81 1258.58 1022.06 1249.99 1022.2 C 1238.39 1022.47 1226.78 1022.42 1215.18 1022.06 C 1215.59 1022.56 1215.98 1023.07 1216.4 1023.56 C 1224.23 1032.69 1318.33 1079.27 1336.82 1089.12 L 1737.58 1303.51 C 1768.28 1320.27 1799.19 1336.66 1830.29 1352.67 C 1849.77 1362.73 1869.94 1371.76 1888.48 1383.49 C 1900.25 1390.94 1905.12 1405.55 1893.21 1415.32 C 1884.01 1422.87 1877.09 1419.5 1867.89 1414.45 C 1846.6 1402.75 1825.28 1391.01 1803.88 1379.53 L 1679.48 1313.21 L 1275.17 1098.2 L 1193.4 1054.47 C 1183.63 1049.19 1152.46 1031.7 1142.91 1028.92 C 1132.73 1019.32 1099.08 1001.58 1085.89 997.222 C 1081.3 992.813 1063.62 983.054 1057.29 979.568 C 1020.72 959.409 978.246 933.294 939.373 918.332 C 930.339 908.827 901.374 895.52 888.914 889.854 z M 1152.3 988.125 C 1166.14 985.049 1270.59 981.125 1274.03 976.931 C 1265.71 952.295 1250.62 918.753 1240.64 893.823 C 1228.53 895.475 1204.79 895.802 1191.57 896.618 C 1150.44 898.812 1109.37 902.204 1068.43 906.791 C 1052.12 908.747 1029.46 911.488 1013.65 915.506 C 1019.22 919.695 1028.49 923.807 1035.02 927.261 C 1048.78 934.683 1062.59 942.018 1076.45 949.267 C 1087.65 955.123 1144.17 987.253 1152.3 988.125 z"/>
<path transform="translate(0,0)" fill="rgb(22,65,175)" d="M 958.551 883.817 C 966.238 881.283 983.566 879.618 992.284 878.705 C 1023.01 875.487 1054.16 873.412 1084.97 870.743 L 1184.61 862.201 C 1202.05 860.599 1219.8 858.662 1237.3 857.096 C 1256.67 855.362 1261.09 857 1269.96 875.192 C 1285.84 907.748 1299.47 942.1 1312.91 975.779 C 1314.41 979.558 1322.28 999.321 1322.09 1001.42 C 1320.3 1020.81 1258.58 1022.06 1249.99 1022.2 C 1238.39 1022.47 1226.78 1022.42 1215.18 1022.06 C 1198.28 1019.49 1162.45 1000.45 1152.3 988.125 C 1166.14 985.049 1270.59 981.125 1274.03 976.931 C 1265.71 952.295 1250.62 918.753 1240.64 893.823 C 1228.53 895.475 1204.79 895.802 1191.57 896.618 C 1150.44 898.812 1109.37 902.204 1068.43 906.791 C 1052.12 908.747 1029.46 911.488 1013.65 915.506 C 1002.21 911.254 966.555 892.212 958.551 883.817 z"/>
<path transform="translate(0,0)" fill="rgb(113,144,226)" d="M 792.619 1543.92 C 929.23 1542.97 1065.84 1542.7 1202.46 1543.13 L 1322.57 1543.1 C 1348.07 1543.09 1373.62 1542.82 1399.08 1544.13 C 1411.5 1544.77 1420.19 1548.35 1419.95 1562.27 C 1419.72 1575.92 1405.66 1578.08 1394.89 1578.14 C 1375.01 1578.25 1355.23 1577.76 1335.37 1577.81 L 1169.17 1577.9 L 688.391 1577.85 L 409.36 1577.88 C 367.191 1577.89 324.347 1579.12 281.834 1578.08 C 264.393 1577.65 238.144 1568.31 261.245 1547.23 C 268.793 1540.35 296.482 1542.95 308.181 1543.02 L 369.496 1543.14 L 572.267 1543.15 L 691.98 1543.29 C 702.445 1543.35 741.039 1542.69 749.978 1545.22 C 766.627 1565.85 776.553 1565.76 792.619 1543.92 z"/>
<path transform="translate(0,0)" fill="rgb(246,124,23)" d="M 1534.79 816.02 C 1540.16 817.157 1542.85 819.4 1547.46 822.382 C 1548.66 824.708 1549.85 827.047 1550.75 829.507 C 1552.21 833.472 1553.57 838.419 1551.15 842.32 C 1541.11 858.503 1380.73 935.57 1355.78 943.333 C 1355.14 943.079 1354.49 942.832 1353.84 942.568 C 1347.44 939.941 1340.78 934.799 1338.21 928.126 C 1337.06 925.131 1337 921.702 1338.46 918.789 C 1347.45 900.834 1481.35 838.299 1507.14 826.755 C 1516.13 822.734 1525.65 819.727 1534.79 816.02 z"/>
<path transform="translate(0,0)" fill="rgb(246,124,23)" d="M 1733.99 708.13 C 1743.15 707.274 1745.7 709.739 1752.75 714.98 C 1760.93 734.662 1751.91 738.575 1735.12 748.758 C 1711.96 762.801 1686.63 774.835 1662.58 787.351 C 1638.54 799.857 1614.76 813.253 1589.87 823.952 C 1586.75 824.1 1583.95 824.158 1580.96 823.057 C 1575.64 821.098 1571.21 816.408 1569.11 811.164 C 1567.7 807.626 1567.59 803.909 1569.18 800.413 C 1574.91 787.736 1688.58 728.005 1708.33 718.506 C 1716.7 714.481 1725.25 711.235 1733.99 708.13 z"/>
<path transform="translate(0,0)" fill="rgb(246,124,23)" d="M 1569.04 559.023 C 1571.23 558.811 1573.08 558.682 1575.22 559.29 C 1579.75 560.573 1585.87 565.233 1588.1 569.349 C 1590.17 573.166 1590.53 577.944 1589.22 582.071 C 1584.48 596.96 1475.65 698.923 1458.72 708.074 C 1455.6 708.248 1452.74 708.282 1449.73 707.316 C 1445.32 705.896 1441.2 702.999 1439.19 698.719 C 1436.97 693.982 1437.73 688.409 1439.69 683.724 C 1445.47 669.906 1540.62 577.749 1557.25 565.267 C 1560.93 562.5 1564.81 560.755 1569.04 559.023 z"/>
<path transform="translate(0,0)" fill="rgb(246,124,23)" d="M 1411.12 712.927 C 1412.09 712.81 1414 712.54 1414.98 712.741 C 1420.42 713.851 1425.57 716.248 1428.93 720.531 C 1431.2 723.429 1432.95 731.122 1431.76 733.545 C 1419.39 758.686 1342.02 829.203 1321.6 841.756 C 1320.26 841.857 1318.86 842.017 1317.51 841.792 C 1312.39 840.935 1305.79 835.238 1303.14 830.976 C 1301.16 827.788 1300.77 823.665 1301.69 820.072 C 1305.73 804.402 1375.94 739.12 1392.83 725.4 C 1398.53 720.767 1404.92 716.858 1411.12 712.927 z"/>
<path transform="translate(0,0)" fill="rgb(246,124,23)" d="M 1668.39 459.879 C 1674.76 460.491 1682.75 463.556 1686.56 468.894 C 1688.55 471.681 1689.12 478.785 1687.53 481.618 C 1676.24 501.664 1635.16 544.388 1615.3 553.746 C 1604.81 556.048 1591.74 540.21 1595.73 532.977 C 1609.92 507.244 1643.7 472.923 1668.39 459.879 z"/>
</svg>