<svg version="1.1" xmlns="http://www.w3.org/2000/svg" style="display: block;" viewBox="0 0 2048 2048" width="512" height="512" preserveAspectRatio="none">
<defs>
	<linearGradient id="Gradient1" gradientUnits="userSpaceOnUse" x1="1059.34" y1="1195.19" x2="1819.95" y2="1015.95">
		<stop class="stop0" offset="0" stop-opacity="1" stop-color="rgb(255,120,23)"/>
		<stop class="stop1" offset="1" stop-opacity="1" stop-color="rgb(255,157,52)"/>
	</linearGradient>
</defs>
<path transform="translate(0,0)" fill="rgb(0,45,181)" d="M 682.218 421.403 C 914.804 409.453 1113.04 588.311 1125 820.897 C 1136.95 1053.48 958.102 1251.73 725.516 1263.69 C 492.921 1275.65 294.669 1096.79 282.713 864.195 C 270.756 631.6 449.622 433.353 682.218 421.403 z M 722.41 517.485 C 706.388 540.634 685.832 531.16 684.921 506.012 C 684.703 499.974 684.62 462.019 684.069 461.101 C 680.775 460.996 679.844 461.062 676.698 461.4 C 607.407 468.44 553.002 483.488 493.026 521.389 C 475.288 532.598 459.674 548.072 444.225 558.27 C 456.344 569.258 481.722 590.193 485.803 606.423 C 487.12 611.663 477.845 628.585 467.785 625.762 C 449.912 620.747 429.542 598.758 418.191 585.458 C 361.904 652.384 321.394 734.274 319.836 823.003 C 335.885 822.415 380.659 819.755 388.006 829.543 C 417.799 869.231 330.24 862.624 320.62 861.153 C 327.466 938.216 343.781 998.138 388.757 1063.03 C 397.541 1075.7 408.707 1088.03 418.442 1100.04 C 425.047 1092.06 478.997 1025.26 486.832 1075.97 C 488.709 1088.12 455.834 1116.47 444.411 1126.3 C 450.653 1129.76 457.439 1135.18 463.038 1139.68 C 519.636 1185.13 587.913 1214.4 660.142 1222.6 C 664.17 1223.06 682.005 1226.97 683.97 1220.96 C 687.329 1202.37 674.042 1147.13 709.633 1156.28 C 733.284 1161.85 717.603 1219.26 724.517 1224.96 C 727.461 1224.77 729.809 1224.6 732.762 1224.19 C 825.21 1214.67 889.26 1186.83 961.104 1129.6 C 951.345 1120 913.902 1085.97 916.343 1073.4 C 925.619 1025.66 976.398 1090.25 986.748 1104.65 C 1036.02 1050.08 1068.9 982.711 1081.6 910.29 C 1084.62 892.888 1085.05 877.981 1086.94 861.07 C 1076.38 861.631 1031.2 863.931 1025.02 856.454 C 992.435 816.98 1067.34 821.542 1086.41 822.31 C 1079.62 742.044 1064.21 689.831 1017.98 621.755 C 1008.53 607.838 996.31 594.862 986.431 581.128 C 977.1 592.85 964.067 604.171 952.866 614.11 C 944.42 621.603 932.483 628.186 922.603 619.2 C 918.991 615.924 916.826 611.348 916.584 606.477 C 915.906 590.981 946.641 566.178 956.984 555.118 C 883.302 494.006 818.563 467.77 722.689 460.662 C 723.069 475.797 724.058 502.867 722.41 517.485 z"/>
<path transform="translate(0,0)" fill="rgb(0,45,181)" d="M 531.704 656.994 C 547.816 659.386 556.944 668.401 567.363 679.983 C 578.243 692.076 589.483 703.642 600.983 715.148 C 614.908 729.185 629.006 743.05 643.275 756.738 C 653.869 766.708 664.303 775.538 674.479 785.99 C 707.184 772.726 739.32 777.762 760.984 807.259 C 767.865 801.067 776.439 794.795 784.573 790.009 C 836.37 759.535 889.838 730.329 944.581 705.579 C 955.62 698.789 974.929 714.564 969.386 725.447 C 959.172 745.502 921.482 760.991 902.5 770.57 C 874.992 785.16 847.604 799.977 820.341 815.02 C 807.244 822.168 788.497 831.505 776.324 839.312 C 774.976 857.402 772.489 873.641 762.971 889.403 C 731.647 941.278 648.046 915.762 635.717 861.916 C 631.337 842.788 637.341 826.536 647.259 810.576 C 617.004 782.856 587.289 754.553 558.13 725.684 C 544.424 712.276 522.372 695.329 514.32 677.745 C 510.141 668.619 523.628 659.428 531.704 656.994 z"/>
<path transform="translate(0,0)" fill="rgb(73,138,252)" d="M 702.326 816.397 C 719.898 814.995 735.345 827.947 737.028 845.494 C 738.711 863.041 726.007 878.693 708.489 880.656 C 696.906 881.953 685.523 876.906 678.707 867.451 C 671.892 857.995 670.703 845.6 675.597 835.022 C 680.491 824.443 690.708 817.324 702.326 816.397 z"/>
<path transform="translate(0,0)" fill="url(#Gradient1)" d="M 1606.93 459.828 C 1613.8 459.938 1620.36 467.316 1624.2 472.47 C 1751.93 643.926 1813.2 868.059 1774.97 1080.06 C 1768.81 1114.19 1760.09 1154.27 1746.27 1186.34 C 1813.87 1211.35 1885.17 1290.65 1879.85 1366.19 C 1877.06 1405.83 1871.07 1445.92 1865.99 1485.37 L 1858.39 1544.5 C 1856.36 1560.99 1853.18 1615.95 1834.08 1619.95 C 1828.15 1618.08 1816.58 1607.6 1812.14 1603.11 C 1769.69 1560.15 1731.24 1513.39 1687.74 1471.44 C 1682.7 1466.58 1677.72 1461.7 1673.37 1456.22 C 1645.46 1484.69 1618.21 1461.2 1587.06 1460.58 C 1583.51 1471.13 1582.03 1499.06 1579.51 1511.56 C 1577.72 1522.06 1575 1535.55 1571.46 1545.33 C 1561.08 1574.01 1510.16 1656.84 1478.36 1658.88 C 1450.45 1644.02 1436.06 1605.14 1432.23 1575.57 C 1427.17 1536.45 1424.49 1476.82 1432.95 1438.13 C 1417.37 1438.09 1360.78 1438.93 1357.59 1413.92 C 1357.38 1412.27 1357.6 1413.1 1356.07 1411.59 C 1320.81 1424.05 1243.26 1481.24 1210.46 1505.49 C 1139.29 1563.44 1121.32 1554.2 1145.35 1462.25 C 1165.75 1384.19 1168.85 1283.06 1215.57 1215.26 C 1241.54 1177.58 1303 1156.08 1346.62 1150.87 C 1344.45 1132.55 1341.62 1115.39 1339.96 1096.6 C 1333.85 1030.5 1336.15 963.887 1346.79 898.36 C 1371.72 753.528 1440.54 619.851 1543.95 515.425 C 1562.77 496.542 1585.23 475.234 1606.93 459.828 z M 1679.46 1410.16 C 1710.61 1439.51 1740.6 1466.69 1770.43 1497.77 C 1778.41 1506.08 1798.9 1530.83 1804.03 1535.18 C 1810.75 1542.24 1813.05 1545.36 1818.75 1553.05 L 1818.64 1551.49 C 1817.89 1538.91 1822.12 1514.81 1823.94 1501.5 C 1828.1 1472.21 1832.08 1442.9 1835.87 1413.56 C 1839.68 1382.58 1845.04 1348.98 1832.85 1319.33 C 1817.53 1282.04 1789.18 1254.83 1755.62 1233.8 C 1748.4 1229.27 1740.55 1225.85 1733.24 1221.32 C 1721.95 1247.73 1704.84 1276.15 1692.61 1302.1 C 1688.33 1311.17 1690.28 1341.4 1687.33 1352.67 C 1685.55 1372.61 1681.76 1391.08 1679.46 1410.16 z M 1605.39 509.916 C 1593.44 520.791 1581.6 529.546 1570.28 541.639 C 1454.58 665.195 1382.61 818.229 1374.67 987.366 C 1371.76 1056.82 1378.99 1126.33 1396.14 1193.7 C 1401.55 1215.39 1409.06 1236.74 1414.19 1257.12 C 1434.25 1258.48 1455.07 1260.67 1475.04 1263.17 C 1493.26 1265.46 1516.19 1267.58 1533.77 1271.83 C 1546.46 1271.86 1578.79 1276.98 1593.16 1279.02 C 1612.09 1281.72 1638.55 1284.19 1657.05 1287.35 C 1673.74 1258.46 1687.48 1231.69 1700.05 1200.53 C 1755.65 1062.68 1758.6 898.392 1720.5 755.497 C 1700.74 679.8 1669.02 607.748 1626.52 542.065 C 1623.43 537.206 1609.04 513.54 1606.16 510.103 L 1605.39 509.916 z M 1182.8 1479.53 C 1190.15 1473.72 1198.55 1468.31 1205.26 1462.9 C 1238.63 1437.93 1273.57 1415.62 1308.17 1392.42 C 1319.84 1384.6 1330.61 1378.16 1343.75 1373.03 C 1349.04 1375.13 1353.53 1376.89 1358.66 1379.45 C 1359.87 1368.95 1361.74 1357.4 1363.15 1346.87 C 1366.03 1325.31 1370.01 1282.61 1378.33 1263.02 C 1375 1253.75 1354.76 1189.51 1351.71 1186.12 C 1300.35 1202.79 1258.93 1207.12 1232.63 1262.58 C 1200.95 1329.39 1204.24 1410.91 1182.8 1479.53 z M 1468.25 1443.61 C 1463.98 1515.18 1458.2 1542.5 1484.21 1613.68 C 1494.33 1600.96 1501.78 1591.11 1510.89 1577.57 C 1542.47 1529.74 1535.23 1504.7 1548.33 1455.72 C 1525.95 1449.58 1491.88 1446.55 1468.25 1443.61 z M 1410.45 1293.15 C 1408.62 1298.96 1408.6 1308.54 1407.58 1314.91 C 1404.44 1334.49 1400.87 1379.99 1394.08 1396.35 C 1441.55 1396.97 1502.2 1407.33 1549.39 1414.32 C 1572.69 1417.76 1611.53 1423.5 1633.74 1428.81 L 1636.54 1429.39 C 1641.89 1424.22 1648.67 1338.37 1650.61 1323.05 C 1631.59 1323.22 1588.26 1317.39 1568.03 1315.17 C 1527.65 1311.1 1487.37 1306.08 1447.23 1300.11 C 1438.59 1298.76 1417.85 1295.92 1410.45 1293.15 z"/>
<path transform="translate(0,0)" fill="rgb(254,145,41)" d="M 1579.36 657.436 C 1627.64 655.463 1668.45 692.862 1670.69 741.134 C 1672.93 789.406 1635.75 830.421 1587.49 832.924 C 1538.86 835.447 1497.45 797.919 1495.2 749.27 C 1492.94 700.622 1530.7 659.424 1579.36 657.436 z M 1588.46 794.703 C 1615.72 790.965 1634.86 765.929 1631.31 738.64 C 1627.77 711.352 1602.87 692.037 1575.56 695.389 C 1547.97 698.775 1528.42 723.981 1532 751.544 C 1535.58 779.107 1560.92 798.479 1588.46 794.703 z"/>
<path transform="translate(0,0)" fill="rgb(254,145,41)" d="M 1463.38 916.226 C 1489.83 914.277 1529.78 917.506 1556.31 921.738 C 1575.57 924.811 1584 944.61 1561.39 956.613 C 1544.19 962.062 1491.04 953.799 1471.34 951.778 C 1452.49 949.845 1436.46 928.881 1463.38 916.226 z"/>
<path transform="translate(0,0)" fill="rgb(0,45,181)" d="M 706.174 308.483 C 789.688 309.365 862.172 325.284 937.579 362.508 C 1066.5 426.418 1164.88 538.769 1211.21 675.003 C 1256.13 807.738 1246.64 952.857 1184.84 1078.62 C 1121.68 1205.65 1010.55 1302.31 875.992 1347.24 C 738.179 1392.78 587.926 1381.74 458.246 1316.56 C 331.049 1252.76 234.684 1140.7 190.657 1005.38 C 147.616 876.339 157.601 735.484 218.414 613.804 C 230.334 590.119 275.252 509.233 298.66 502.362 C 302.948 501.103 307.442 501.263 311.306 503.661 C 317.266 507.361 318.765 513.333 320.439 519.651 C 315.836 536.04 298.441 554.884 287.894 569.16 C 282.169 576.989 276.865 585.117 272.006 593.511 C 253.223 625.339 240.18 656.264 227.548 690.747 C 192.326 793.089 195.086 914.567 233.915 1014.88 C 282.861 1141.33 369.999 1233.89 492.276 1290.12 C 614.885 1346.2 754.631 1351.8 881.333 1305.71 C 1005.06 1258.95 1105.07 1164.82 1159.23 1044.14 C 1212.93 929.032 1218.04 797.152 1173.39 678.238 C 1125.09 550.125 1028.34 446.145 904.04 388.747 C 782.917 333.265 644.2 330.539 520.99 381.22 C 493.822 392.311 468.655 406.522 442.925 420.542 C 433.866 425.478 425.339 429.83 415.653 433.456 C 408.395 433.312 400.849 418.318 400.449 413.059 C 399.48 400.319 434.909 381.889 443.482 376.698 C 521.099 329.699 616.606 309.941 706.174 308.483 z"/>
<path transform="translate(0,0)" fill="rgb(254,145,41)" d="M 1615.29 1547.1 C 1626.6 1547.11 1627.28 1548.45 1636.63 1554.81 C 1640.36 1584.53 1637.69 1628.09 1638.42 1658.85 C 1638.94 1680.46 1638.99 1710.98 1636.7 1732.59 C 1635.82 1740.87 1627.15 1746.93 1620.64 1751.16 C 1609.85 1750.5 1600.13 1746.88 1599.21 1734.51 C 1597.92 1717.29 1597.49 1698.74 1597.8 1681.45 C 1598.53 1640.44 1595.35 1595.9 1602.77 1555.6 C 1607.15 1550.73 1609.05 1548.98 1615.29 1547.1 z"/>
<path transform="translate(0,0)" fill="rgb(254,145,41)" d="M 1364.82 1517.04 C 1373.92 1517.04 1377.73 1520.47 1383.52 1526.71 C 1388.35 1545.52 1388.69 1689.1 1383.67 1704.4 C 1381.12 1712.17 1375.43 1716.03 1368.44 1719.51 C 1364.93 1718.85 1361.06 1718.32 1357.8 1716.82 C 1353.56 1714.88 1350.5 1711.26 1348.93 1706.9 C 1343.45 1691.65 1343.17 1541.45 1350.57 1526.17 C 1353.31 1520.5 1359.26 1518.8 1364.82 1517.04 z"/>
<path transform="translate(0,0)" fill="rgb(254,145,41)" d="M 1463.05 1705.12 C 1477.03 1707.34 1481.05 1711.7 1481.97 1725.92 C 1483.72 1752.96 1482.35 1780.08 1482.5 1807.15 C 1482.58 1821.78 1483.39 1849.91 1462.16 1850.18 C 1447.19 1842.46 1441.74 1837.13 1442.47 1819 C 1443.56 1791.87 1431.11 1716.68 1463.05 1705.12 z"/>
<path transform="translate(0,0)" fill="rgb(0,45,181)" d="M 353.947 441.499 C 359.387 440.662 364.924 442.216 369.135 445.76 C 373.345 449.305 375.82 454.495 375.924 459.998 C 376.022 465.195 373.995 470.208 370.312 473.877 C 367.633 476.544 364.223 478.356 360.513 479.082 C 353.732 480.41 346.764 477.968 342.295 472.698 C 337.826 467.428 336.555 460.154 338.973 453.682 C 341.39 447.209 347.118 442.549 353.947 441.499 z"/>
</svg>