<svg version="1.1" xmlns="http://www.w3.org/2000/svg" style="display: block;" viewBox="0 0 2048 2048" width="512" height="512" preserveAspectRatio="none">
<path transform="translate(0,0)" fill="rgb(0,24,187)" d="M 227.659 396.945 C 246.031 396.215 251.681 412.136 251.432 427.943 C 251.114 448.099 250.754 468.201 250.734 488.362 L 250.711 670.023 L 250.67 1248.48 L 250.665 1490.38 L 250.718 1558.24 C 250.744 1569.31 251.372 1588.9 249.764 1599 C 258.307 1597.39 288.184 1598.07 298.762 1598.07 L 385.915 1598.15 C 412.06 1598.16 439.191 1598.74 465.079 1594.66 C 481.033 1592.14 496.082 1587.98 510.558 1580.74 C 635.75 1518.09 713.143 1234 742.514 1105.52 C 749.209 1075.51 755.586 1045.42 761.644 1015.26 C 764.318 1001.78 769.015 972.982 773.185 961.082 L 773.739 959.54 C 765.068 967.18 756.084 975.147 747.871 983.273 C 622.379 1107.44 575.069 1290.19 449.735 1414.72 C 438.868 1425.52 404.257 1455.78 388.901 1452.27 C 346.611 1442.63 400.999 1404.62 414.109 1393.62 C 436.076 1375.25 451.633 1356.65 467.543 1335.58 C 560.12 1212.95 614.381 1062.64 726.082 954.5 C 743.441 937.712 761.901 923.829 781.426 909.874 C 793.535 876.371 800.116 834.443 807.466 799.399 C 828.999 696.718 855.665 560.215 913.664 472.803 C 935.597 439.747 966.353 410.473 1006.45 402.637 C 1033.54 397.345 1060.22 403.383 1082.94 418.891 C 1179.92 485.076 1225.05 706.382 1247.8 819.034 L 1267.45 917.372 C 1332.8 944.999 1388.45 1033.95 1424.72 1091.63 C 1446.19 1126.32 1467.47 1161.13 1488.56 1196.05 C 1500.69 1216.07 1512.96 1237.31 1526.06 1256.6 C 1531.56 1266.21 1539.71 1276.33 1545.97 1285.4 C 1574.95 1327.36 1606.46 1366.39 1645.12 1399.85 C 1656.57 1409.75 1671.61 1423.94 1677.28 1438.15 C 1682.28 1450.66 1664.29 1453.6 1656.27 1454.84 C 1632.86 1443.27 1623.93 1430.44 1605.33 1412.75 C 1499.83 1312.39 1443.85 1176.74 1361.36 1059.37 C 1335.34 1022.34 1309.74 995.91 1277.08 965.158 C 1281.72 982.497 1285.49 1005.33 1289.25 1023.45 C 1296.66 1058.94 1304.4 1094.35 1312.49 1129.7 C 1343.37 1263.03 1402.99 1476.13 1514.84 1564.3 C 1526.04 1573.12 1549.29 1584.31 1563.27 1588.42 C 1611.83 1602.68 1668.86 1598.3 1719.21 1598.17 L 1859.3 1597.96 C 1873.93 1597.94 1940.95 1594.38 1950.1 1602.28 C 1953.86 1605.52 1955.6 1610.94 1955.57 1615.78 C 1955.54 1621.12 1953.62 1626.73 1949.73 1630.49 C 1944.25 1635.78 1934.93 1635.16 1927.8 1635.2 L 812.958 1634.53 L 415.857 1634.54 L 293.155 1634.52 C 275.085 1634.57 256.917 1635.64 238.878 1635.04 C 219.907 1634.41 214.957 1629.8 213.895 1611.1 C 213.104 1597.18 213.167 1583.55 213.035 1569.69 L 212.469 1500.65 C 212.254 1473.95 212.298 1447.24 212.6 1420.54 C 212.719 1406.63 212.38 1386.82 213.799 1373.32 C 212.477 1373.44 211.153 1373.53 209.827 1373.61 C 198.816 1374.25 186.375 1373.93 175.139 1373.96 C 154.28 1373.67 132.906 1375.17 112.144 1373.35 C 101.735 1372.44 92.0038 1369.09 92.0998 1357.06 C 91.86 1347.08 94.586 1338.23 106.293 1337.74 C 140.9 1336.29 178.913 1336.09 213.364 1337.3 C 212.527 1314.87 213.02 1290.36 213.051 1267.79 L 213.119 1153.88 L 213.085 1081.24 C 213.079 1068.16 212.479 1049.82 213.855 1037.35 C 182.305 1039.87 144.333 1037.34 112.415 1037.36 C 106.935 1037.36 101.414 1035.47 97.0473 1032.09 C 85.9746 1023.54 89.9207 1006.67 102.938 1003.36 C 118.767 1000.28 137.829 1001.46 154.469 1001.65 L 213.301 1002.11 C 212.331 980.899 213.004 955.444 213.05 933.94 L 213.107 821.028 L 213.095 746.53 C 213.083 734.669 212.481 713.767 213.783 702.75 C 184.399 703.43 121.631 710.598 95.6363 693.532 C 93.2807 691.751 90.8002 687.896 90.9308 684.884 C 91.9597 661.157 125.992 666.433 140.843 666.094 C 164.44 665.553 189.362 668.438 212.275 666.52 L 213.278 666.426 C 211.5 603.248 213.777 538.571 212.828 475.258 C 212.498 453.261 212.107 429.708 214.613 408.036 C 215.211 402.866 223.689 398.81 227.659 396.945 z"/>
<path transform="translate(0,0)" fill="rgb(239,120,3)" d="M 1016.18 437.25 C 1030.33 435.619 1042.79 437.733 1055.42 444.433 C 1153 496.213 1200.69 771.241 1222.2 876.481 C 1235.84 944.247 1249.86 1011.93 1264.28 1079.54 C 1295.87 1224.07 1339.57 1391.37 1423.5 1514.3 C 1434.05 1529.8 1445.52 1544.66 1457.84 1558.81 C 1462.81 1564.49 1481.69 1583.37 1482.97 1587.52 C 1480.89 1590.6 1480.24 1591.93 1481 1595.38 L 1484.67 1597.37 C 1484.12 1597.79 1483.57 1598.22 1483.02 1598.64 C 1461.04 1599.19 1407.07 1598.97 1387.8 1598.97 L 1038.5 1598.95 L 701.454 1598.88 L 622.743 1599.07 C 610.781 1599.1 584.911 1599.93 574.331 1597.63 C 572.105 1592.24 571.567 1591.13 567.151 1587.34 C 702.535 1455.29 754.906 1217.64 793.094 1037.39 L 845.688 785.761 C 863.727 702.7 918.448 454.142 1016.18 437.25 z"/>
</svg>