<svg version="1.1" xmlns="http://www.w3.org/2000/svg" style="display: block;" viewBox="0 0 2048 2048" width="512" height="512" preserveAspectRatio="none">
<path transform="translate(0,0)" fill="rgb(22,60,196)" d="M 1461.56 464.209 C 1477.45 462.709 1504.89 469.18 1521.54 472.36 L 1585.3 484.608 C 1623.31 491.85 1661.24 498.692 1699.33 506.493 C 1723.02 511.344 1775.21 522.484 1762.33 558.148 C 1757.23 572.287 1749.14 587.946 1742.66 601.756 C 1724.1 641.286 1703.34 679.953 1683.56 718.875 C 1676.78 732.103 1670.17 745.411 1663.71 758.796 C 1655.28 776.614 1648.44 793.62 1637.15 809.989 C 1629.12 821.613 1621.15 824.91 1608.04 827.587 C 1606.54 827.142 1603.34 826.119 1602.04 825.603 C 1579.03 816.423 1559.5 766.589 1550.58 744.366 C 1545.35 749.435 1532.54 757.732 1526.12 762.058 C 1507.58 774.478 1488.84 786.6 1469.9 798.422 L 1316.17 895.962 L 805.384 1227.76 L 632.606 1339.78 L 571.188 1379.72 C 561.964 1385.71 549.58 1392.84 541.079 1399.13 C 507.49 1421.41 473.663 1443.33 439.603 1464.89 C 419.77 1477.17 387.784 1497.85 363.464 1491.98 C 337.523 1485.73 323.165 1455.82 310.298 1435.01 C 299.103 1416.9 281.57 1386.3 287.652 1364.33 C 291.929 1348.88 304.687 1337.6 317.432 1328.6 C 342.515 1310.9 368.878 1294.58 394.957 1278.42 C 422.011 1261.78 448.812 1244.73 475.349 1227.27 L 854.348 980.757 L 1266.18 712.872 L 1387.02 634.247 C 1413.06 617.249 1441.77 597.764 1468.41 582.206 C 1455.74 568.686 1441.32 539.567 1435.08 521.947 C 1425 493.452 1430.1 472.964 1461.56 464.209 z"/>
<path transform="translate(0,0)" fill="rgb(249,133,49)" d="M 1504.06 592.654 C 1497.69 562.06 1468.68 534.231 1463.31 503.742 C 1462.92 501.564 1463.32 498.609 1464.89 496.765 C 1479.25 493.934 1520.67 504.362 1536.87 507.65 C 1557.03 511.567 1577.22 515.33 1597.44 518.939 L 1667.96 531.934 C 1680.21 534.188 1697.79 536.905 1709.25 540.145 C 1718.86 542.398 1723.75 543.901 1732.95 547.27 C 1719.64 580.528 1705.79 605.161 1689.58 636.916 L 1639.71 736.143 C 1631.96 751.446 1615.68 781.406 1609.83 796.067 C 1599.36 773.352 1576.23 717.343 1558.53 704.283 C 1536.85 711.042 1498.24 739.713 1476.7 753.698 L 1347.1 837.682 L 699.052 1258.07 L 492.848 1391.79 L 429.055 1433.3 C 377.802 1466.79 372.87 1479.8 338.307 1418.21 C 325.006 1405.14 309.877 1372.38 329.302 1358.69 C 341.733 1349.93 354.224 1342.33 367.126 1334.36 C 383.576 1324.04 399.907 1313.53 416.117 1302.84 L 622.417 1168.75 L 1291 734.232 L 1424.53 647.451 C 1444.43 634.573 1489.1 607.336 1504.06 592.654 z"/>
<path transform="translate(0,0)" fill="rgb(252,173,105)" d="M 1504.06 592.654 C 1497.69 562.06 1468.68 534.231 1463.31 503.742 C 1462.92 501.564 1463.32 498.609 1464.89 496.765 C 1479.25 493.934 1520.67 504.362 1536.87 507.65 C 1557.03 511.567 1577.22 515.33 1597.44 518.939 L 1667.96 531.934 C 1680.21 534.188 1697.79 536.905 1709.25 540.145 C 1687.14 557.065 1669.83 565.61 1646.27 579.805 C 1603.4 605.632 1557.41 629.434 1515.56 656.465 L 626.792 1234.42 L 438.425 1356.85 C 422.949 1366.92 352.689 1413.69 338.307 1418.21 C 325.006 1405.14 309.877 1372.38 329.302 1358.69 C 341.733 1349.93 354.224 1342.33 367.126 1334.36 C 383.576 1324.04 399.907 1313.53 416.117 1302.84 L 622.417 1168.75 L 1291 734.232 L 1424.53 647.451 C 1444.43 634.573 1489.1 607.336 1504.06 592.654 z"/>
<path transform="translate(0,0)" fill="rgb(22,60,196)" d="M 474.968 332.61 C 492.26 336.705 504.031 348.092 512.44 363.611 C 537.25 409.398 564.735 453.361 590.921 498.342 C 602.632 518.424 618.246 536.434 629.488 557.211 C 673.604 638.746 592.842 626.209 541.737 624.942 C 542.729 651.941 542.109 682.799 542.104 710.073 L 542.077 859.548 L 542.189 944.581 C 542.294 964.564 546.51 995.116 533.965 1011.15 C 528.107 1013.56 524.787 1015.7 518.691 1013.3 C 513.255 1026.03 501.773 1027.34 491.901 1018.18 C 482.321 989.706 483.336 908.057 482.605 874.929 C 481.965 832.259 480.4 789.609 477.91 747.008 C 475.969 712.277 473.633 677.569 470.901 642.892 C 468.184 612.098 463.846 580.498 464.836 549.615 C 465.659 523.931 493.165 502.19 517.381 516.355 C 530.141 523.819 533.487 534.926 536.539 548.334 C 538.046 562.324 540.346 580.876 537.584 594.49 C 551.312 593.586 567.319 594.067 581.239 594.173 C 590.467 594.243 603.171 593.811 611.929 594.333 C 606.574 584.295 600.085 574.562 593.981 564.934 C 556.063 505.129 522.849 442.514 484.84 382.765 C 481.719 377.859 478.031 372.192 475.58 366.967 C 470.521 379.903 453.402 407.595 445.476 420.902 C 425.789 453.356 406.461 486.027 387.496 518.909 C 378.834 534.412 370.662 550.184 362.995 566.203 C 359.365 573.798 353.524 587.804 349.282 594.408 C 374.027 593.076 402.083 593.599 426.968 593.351 C 438.614 593.235 447.754 598.223 447.012 610.553 C 447.466 648.934 447.245 687.327 447.214 725.69 L 447.067 945.894 L 447.136 1065.24 C 447.153 1077.25 455.199 1178.33 418.139 1134.74 C 411.8 1127.28 414.015 1102.95 414.055 1091.57 L 414.116 1029.79 L 414.128 829.153 L 414.115 695.351 C 414.104 677.324 413.123 641.435 414.746 624.912 C 392.582 627.354 313.159 633.801 317.11 595.618 C 319.475 572.763 347.929 526.692 359.973 505.789 L 408.722 421.228 C 417.696 405.549 426.447 389.799 435.228 374.012 C 445.293 355.917 453.255 338.184 474.968 332.61 z M 496.482 984.99 C 498.337 981.927 498.198 981.602 501.508 980.061 C 505.465 979.896 506.417 980.763 509.898 982.591 C 510.286 978.208 509.55 965.563 509.44 960.384 C 509.21 947.036 509.114 933.687 509.152 920.338 L 507.966 759.675 L 507.016 755.114 C 505.196 757.507 500.499 799.945 500.747 806.013 C 502.249 842.668 498.28 880.285 496.16 916.839 C 495.24 932.698 495.562 949.596 495.119 964.736 C 495.434 969.234 495.323 982.204 496.482 984.99 z"/>
<path transform="translate(0,0)" fill="rgb(210,223,246)" d="M 491.901 1018.18 C 482.321 989.706 483.336 908.057 482.605 874.929 C 481.965 832.259 480.4 789.609 477.91 747.008 C 475.969 712.277 473.633 677.569 470.901 642.892 C 468.184 612.098 463.846 580.498 464.836 549.615 C 465.659 523.931 493.165 502.19 517.381 516.355 C 530.141 523.819 533.487 534.926 536.539 548.334 C 538.046 562.324 540.346 580.876 537.584 594.49 L 532.59 594.003 C 525.93 594.535 519.199 594.215 514.236 598.575 C 504.364 618.212 513.685 763.413 510.022 765.84 L 507.966 759.675 L 507.016 755.114 C 505.196 757.507 500.499 799.945 500.747 806.013 C 502.249 842.668 498.28 880.285 496.16 916.839 C 495.24 932.698 495.562 949.596 495.119 964.736 C 495.434 969.234 495.323 982.204 496.482 984.99 C 498.337 981.927 498.198 981.602 501.508 980.061 C 505.465 979.896 506.417 980.763 509.898 982.591 C 510.989 996.359 510.151 1002.14 518.691 1013.3 C 513.255 1026.03 501.773 1027.34 491.901 1018.18 z"/>
<path transform="translate(0,0)" fill="rgb(87,159,249)" d="M 495.119 964.736 C 495.434 969.234 495.323 982.204 496.482 984.99 C 496.712 986.424 498.727 1010.23 498.654 1010.77 C 492.892 1002.65 494.385 974.447 495.119 964.736 z"/>
<path transform="translate(0,0)" fill="rgb(22,60,196)" d="M 1525.54 1510.21 L 1525.4 1508.92 C 1524.06 1495.94 1524.28 1478.9 1524.47 1466.59 C 1525.5 1402.45 1516.21 1331.39 1598.18 1401.96 C 1626 1428.49 1658.04 1451.48 1687.39 1476.11 C 1705.04 1490.91 1761.58 1520.54 1731.9 1547.74 C 1712.73 1565.31 1690.9 1581.96 1670.65 1598.51 L 1606.52 1650.7 C 1591.94 1662.52 1577.65 1675.21 1561.57 1684.99 C 1555.54 1688.66 1548.22 1691.75 1541.06 1691.71 C 1537.82 1691.7 1534.97 1690.87 1532.61 1688.53 C 1520.18 1676.25 1524.16 1568.32 1525 1547.36 C 1468.72 1548.89 1405.71 1547.58 1348.87 1547.58 L 1011.81 1547.56 L 744.742 1547.56 C 695.634 1547.56 643.877 1548.91 594.74 1546.17 C 572.059 1544.91 573.184 1517.95 595.279 1515.2 C 602.068 1514.1 611.462 1514.83 618.481 1514.81 C 631.793 1514.65 645.107 1514.6 658.419 1514.64 L 794.423 1514.72 L 1297.54 1514.72 L 1450.93 1514.76 C 1467.89 1514.78 1510.4 1515.96 1525.07 1514.44 C 1524.82 1523.97 1524.98 1530.69 1525.6 1540.22 C 1527.97 1536.27 1526.85 1514.81 1525.54 1510.21 z"/>
<path transform="translate(0,0)" fill="rgb(87,159,249)" d="M 1557.2 1412.26 C 1563.87 1415.1 1581.3 1429.41 1587.58 1434.24 C 1627.32 1464.83 1664.46 1497.84 1702.44 1530.43 C 1681.67 1548.56 1658.04 1566.98 1636.48 1584.21 C 1614.08 1602.97 1580.65 1632.86 1557.6 1649.09 C 1559.9 1593.85 1556.33 1535.72 1557.79 1480.23 C 1558.34 1459.46 1558.65 1432.69 1557.2 1412.26 z"/>
<path transform="translate(0,0)" fill="rgb(22,60,196)" fill-opacity="0.811765" d="M 1525.54 1510.21 C 1526.85 1514.81 1527.97 1536.27 1525.6 1540.22 C 1524.98 1530.69 1524.82 1523.97 1525.07 1514.44 L 1525.54 1510.21 z"/>
</svg>