<svg version="1.1" xmlns="http://www.w3.org/2000/svg" style="display: block;" viewBox="0 0 2048 2048" width="512" height="512" preserveAspectRatio="none">
<path transform="translate(0,0)" fill="rgb(26,49,176)" d="M 914.952 1081.29 C 919.784 1077.72 935.998 1058.95 940.913 1053.56 C 988.815 1000.65 1054.17 965.513 1126 961.984 C 1212.38 957.74 1292.19 997.839 1352.58 1057.26 C 1359.61 1064.18 1366.49 1072.58 1373.75 1079.14 L 1374.98 1080.23 L 1375.68 1081.32 C 1389.8 1103.61 1381.36 1128.09 1360 1141.81 C 1335.35 1157.65 1306.55 1139.68 1282.62 1131.17 C 1250.03 1119.59 1218.81 1124.07 1189.2 1141.46 C 1099.38 1193.81 1107.66 1337.2 1212.63 1365.59 C 1239.79 1372.93 1263.18 1364.58 1286.53 1350.42 C 1332.64 1321.13 1369.03 1278.79 1428.77 1284.36 C 1443.22 1285.71 1454.63 1285.76 1469.34 1288.03 C 1547.38 1300.1 1590.29 1413.72 1673.87 1355.74 C 1689.72 1344.75 1704.22 1334.12 1719.15 1321.83 C 1738.58 1308.91 1766.61 1298.26 1790 1303.47 C 1819.09 1309.94 1825.55 1333.81 1821.18 1360.42 C 1819.54 1378.08 1805.17 1400.24 1798.69 1417.05 C 1773.93 1481.25 1782.62 1557.41 1820.33 1614.28 C 1807.18 1612.94 1779.71 1613.71 1765.38 1613.7 L 1657.54 1613.68 L 1312.2 1613.68 L 227.396 1613.75 C 228.611 1611.92 229.781 1610.05 230.903 1608.16 C 260.842 1557.58 267.71 1499.27 258.758 1441.65 C 253.984 1410.91 234.276 1388.36 227.601 1360.18 C 226.943 1357.66 226.424 1355.1 226.048 1352.52 C 221.917 1324.2 238.932 1305.18 266.534 1302.32 C 295.582 1299.3 325.512 1325.12 345.918 1343.16 C 434.262 1421.99 504.767 1310.8 588.542 1286.87 C 655.876 1267.63 683.845 1307.02 749.088 1270.3 C 829.328 1225.14 861.175 1148.89 914.952 1081.29 z"/>
<path transform="translate(0,0)" fill="rgb(242,125,19)" d="M 914.952 1081.29 C 919.784 1077.72 935.998 1058.95 940.913 1053.56 C 988.815 1000.65 1054.17 965.513 1126 961.984 C 1212.38 957.74 1292.19 997.839 1352.58 1057.26 C 1359.61 1064.18 1366.49 1072.58 1373.75 1079.14 L 1374.98 1080.23 L 1375.68 1081.32 C 1389.8 1103.61 1381.36 1128.09 1360 1141.81 C 1335.35 1157.65 1306.55 1139.68 1282.62 1131.17 C 1250.03 1119.59 1218.81 1124.07 1189.2 1141.46 C 1099.38 1193.81 1107.66 1337.2 1212.63 1365.59 C 1239.79 1372.93 1263.18 1364.58 1286.53 1350.42 C 1332.64 1321.13 1369.03 1278.79 1428.77 1284.36 C 1443.22 1285.71 1454.63 1285.76 1469.34 1288.03 C 1547.38 1300.1 1590.29 1413.72 1673.87 1355.74 C 1689.72 1344.75 1704.22 1334.12 1719.15 1321.83 C 1738.58 1308.91 1766.61 1298.26 1790 1303.47 C 1819.09 1309.94 1825.55 1333.81 1821.18 1360.42 C 1815.96 1354.85 1811.08 1348.6 1805.12 1343.8 C 1743.89 1294.47 1691.4 1438.54 1597.73 1401.05 C 1549.29 1381.67 1515.51 1337.31 1463.91 1322.9 C 1348.7 1290.73 1316.99 1423.42 1206.91 1401.89 C 1133.05 1387.44 1091.43 1305.9 1007.99 1318.17 C 934.497 1328.97 896.281 1406.54 822.477 1401.25 C 742.013 1395.49 700.53 1310.23 614.958 1318.31 C 537.745 1325.6 492.935 1408.89 412.557 1406.77 C 349.754 1405.11 297.946 1329.22 260.643 1334.11 C 245.588 1336.08 236.306 1349.14 227.601 1360.18 C 226.943 1357.66 226.424 1355.1 226.048 1352.52 C 221.917 1324.2 238.932 1305.18 266.534 1302.32 C 295.582 1299.3 325.512 1325.12 345.918 1343.16 C 434.262 1421.99 504.767 1310.8 588.542 1286.87 C 655.876 1267.63 683.845 1307.02 749.088 1270.3 C 829.328 1225.14 861.175 1148.89 914.952 1081.29 z"/>
<path transform="translate(0,0)" fill="rgb(26,49,176)" d="M 224.546 821.102 C 209.275 761.456 281.74 758.422 316.158 782.763 C 352.504 808.468 388.639 842.203 436.307 830.563 C 487.162 819.018 524.21 765.115 572.439 748.974 C 646.715 724.114 700.892 771.607 772.869 716.968 C 847.934 659.985 873.9 575.233 934.239 507.304 C 951.737 487.605 978.67 467.109 1001.8 453.751 C 1033.71 435.035 1069.06 422.967 1105.75 418.273 C 1167.13 410.746 1235.73 426.971 1287.38 460.726 C 1319.13 481.476 1406.75 543.729 1378.42 587.97 C 1372.04 597.719 1361.96 604.453 1350.52 606.626 C 1328.31 610.874 1304.77 592.894 1284.28 587.059 C 1145.56 547.567 1067.39 738.399 1184.16 816.203 C 1202.35 828.326 1219.08 835.375 1241.81 831.251 C 1291.75 820.089 1327.19 775.249 1372.69 753.841 C 1420.61 731.292 1469.92 739.851 1512.2 769.927 C 1549.69 794.768 1589.37 844.872 1636.31 835.507 C 1688.87 825.019 1718.36 763.769 1774.22 764.502 C 1785.63 764.546 1796.78 767.889 1806.32 774.13 C 1823.26 785.386 1829.7 802.195 1826.3 821.995 C 1821.06 842.81 1806.64 865.756 1798.11 886.137 C 1769.53 954.394 1792.45 1017.87 1819.44 1082.09 C 1809.6 1080.27 1789.85 1080.9 1779.07 1080.9 L 1713.89 1080.95 L 1491 1080.98 L 1421.31 1080.97 C 1406.17 1080.97 1389.74 1080.05 1374.98 1080.23 L 1373.75 1079.14 C 1366.49 1072.58 1359.61 1064.18 1352.58 1057.26 C 1292.19 997.839 1212.38 957.74 1126 961.984 C 1054.17 965.513 988.815 1000.65 940.913 1053.56 C 935.998 1058.95 919.784 1077.72 914.952 1081.29 C 901.46 1081.61 885.987 1080.95 872.154 1080.95 L 765.395 1080.98 L 414.445 1080.96 C 353.328 1080.97 288.522 1079.92 227.767 1081.2 C 233.579 1065.43 240.275 1050.64 245.769 1034.39 C 263.136 983.888 268.707 928.272 246.743 878.195 C 238.797 860.079 225.4 841.175 224.546 821.102 z"/>
<path transform="translate(0,0)" fill="rgb(242,125,19)" d="M 224.546 821.102 C 209.275 761.456 281.74 758.422 316.158 782.763 C 352.504 808.468 388.639 842.203 436.307 830.563 C 487.162 819.018 524.21 765.115 572.439 748.974 C 646.715 724.114 700.892 771.607 772.869 716.968 C 847.934 659.985 873.9 575.233 934.239 507.304 C 951.737 487.605 978.67 467.109 1001.8 453.751 C 1033.71 435.035 1069.06 422.967 1105.75 418.273 C 1167.13 410.746 1235.73 426.971 1287.38 460.726 C 1319.13 481.476 1406.75 543.729 1378.42 587.97 C 1372.04 597.719 1361.96 604.453 1350.52 606.626 C 1328.31 610.874 1304.77 592.894 1284.28 587.059 C 1145.56 547.567 1067.39 738.399 1184.16 816.203 C 1202.35 828.326 1219.08 835.375 1241.81 831.251 C 1291.75 820.089 1327.19 775.249 1372.69 753.841 C 1420.61 731.292 1469.92 739.851 1512.2 769.927 C 1549.69 794.768 1589.37 844.872 1636.31 835.507 C 1688.87 825.019 1718.36 763.769 1774.22 764.502 C 1785.63 764.546 1796.78 767.889 1806.32 774.13 C 1823.26 785.386 1829.7 802.195 1826.3 821.995 C 1822.92 817.953 1819.49 813.892 1816 809.939 C 1789.18 779.553 1749.22 805.883 1722.75 823.546 C 1711.19 831.342 1699.58 839.076 1687.94 846.748 C 1657.23 866.581 1635.24 876.233 1599.02 867.023 C 1542.4 852.62 1496.01 781.948 1439.36 774.538 C 1350.06 762.854 1300.4 893.263 1202.38 861.162 C 1131.56 840.875 1087.76 760.708 1008.95 772.645 C 929.706 784.648 899.068 872.176 812.316 864.753 C 730.954 857.792 700.184 769.383 610.157 776.967 C 536.169 783.01 497.637 869.068 422.011 869.639 C 386.71 869.905 355.767 845.988 327.364 828.093 C 307.608 815.646 288.072 801.406 264.204 800.228 C 246.638 799.361 235.773 810.163 224.546 821.102 z"/>
</svg>