<svg version="1.1" xmlns="http://www.w3.org/2000/svg" style="display: block;" viewBox="0 0 2048 2048" width="512" height="512" preserveAspectRatio="none">
<path transform="translate(0,0)" fill="rgb(252,105,0)" d="M 1265.85 400.121 C 1288.52 399.817 1293.87 420.378 1294.79 439.072 C 1295.83 460.107 1292.02 481.377 1292 502.376 C 1291.95 540.164 1292.01 577.961 1292.01 615.752 L 1292.02 1384.06 L 1292.08 1523.69 C 1292.2 1538.52 1293.09 1553.7 1293.81 1568.53 C 1295.08 1595.03 1296.39 1617.76 1270.83 1633.04 C 1251.85 1631.31 1204.31 1602.21 1185.64 1592.14 L 1052.47 1519.81 L 752.788 1357.36 C 693.645 1325.17 632.901 1290.79 573.365 1259.7 C 566.169 1256.78 555.549 1249.77 548.24 1245.77 L 475.253 1205.31 L 195.628 1051.46 C 154.837 1028.96 161.004 1014.41 197.705 992.392 C 231.669 972.392 265.926 952.895 300.465 933.907 L 460.993 843.94 L 914.87 590.977 L 1122.93 475.048 L 1194.17 435.296 C 1217.21 422.302 1239.82 406.831 1265.85 400.121 z M 278.682 1002.69 C 297.908 1001.31 319.629 1001.69 339.034 1001.71 L 424.757 1001.81 L 689.784 1001.87 L 991.954 1001.85 C 1019.75 1001.93 1047.54 1001.85 1075.34 1001.63 C 1097.1 1001.45 1118.2 1001.67 1140.46 1001.96 C 1158.7 1002.21 1176.56 1021.42 1162.91 1038.16 C 1156.2 1046.39 1144.11 1048.92 1133.62 1048.9 L 653.5 1048.54 L 405.009 1048.56 C 369.614 1048.56 323.983 1046.89 289.844 1048.26 C 312.236 1061.09 334.903 1071.66 357.284 1083.7 L 532.868 1179.35 L 979.726 1424.49 L 1148.15 1516.67 C 1177.55 1532.73 1216.52 1552.3 1244.24 1569.78 C 1241.35 1536.88 1242.14 1495.2 1242.17 1462 L 1243.76 1266 L 1243.74 628.754 L 1243.79 503.273 C 1243.81 498.264 1244.61 465.53 1243.1 463.037 C 1170.26 502.571 1097.87 542.923 1025.94 584.084 L 697.921 768.085 L 433.854 916.259 L 329.729 974.386 C 313.459 983.451 294.515 993.248 278.682 1002.69 z"/>
<path transform="translate(0,0)" fill="rgb(0,55,185)" d="M 1544.02 418.39 C 1545.39 418.234 1545.96 418.135 1547.26 418.095 C 1571.8 417.343 1596.89 432.545 1613.82 449.143 C 1701.43 535.032 1744.01 791.343 1744.93 911.424 C 1745.91 911.915 1746.9 912.406 1747.88 912.897 C 1784.09 935.36 1815.72 964.152 1850.05 989.237 C 1860.08 996.566 1875.56 1008.65 1879.02 1021.06 C 1878.26 1026.49 1873.41 1032.38 1869.32 1035.91 C 1833.68 1066.7 1791.78 1089.93 1757.38 1122.38 C 1756.34 1123.37 1746.03 1133.47 1745.87 1134.33 C 1737.33 1180.49 1737.41 1227.91 1727.85 1274.13 C 1712.7 1359.44 1694.22 1445.14 1655 1523.1 C 1649.12 1534.78 1641.74 1549 1634.13 1559.47 C 1632.73 1561.83 1631.24 1564.13 1629.64 1566.36 C 1612.06 1590.56 1588.42 1612.2 1557.94 1617.49 C 1539.44 1620.7 1517.28 1612.25 1503.6 1600.91 C 1416.19 1528.45 1380.78 1335.08 1366.83 1228.86 C 1339.92 1013.31 1348.22 783.105 1419.33 576.487 C 1439.95 516.558 1472.87 427.638 1544.02 418.39 z M 1578.17 1562.2 C 1587.11 1547.94 1600.89 1525.89 1608.41 1511.29 C 1647.37 1435.61 1670.13 1346.65 1683.66 1262.92 C 1686.38 1245.45 1688.73 1227.93 1690.71 1210.36 C 1692.06 1197.83 1692.77 1182.97 1695.72 1170.85 C 1670.26 1189.49 1595.85 1259.3 1569.51 1260.23 C 1566.17 1260.35 1563.63 1259.61 1561.21 1257.18 C 1556.26 1252.22 1554.11 1242.07 1554.42 1235.34 C 1554.65 1230.02 1556.4 1226.97 1559.82 1223.03 C 1579.51 1200.32 1610.74 1179.39 1634.6 1160.91 L 1755.03 1066.07 C 1771.76 1052.96 1798.64 1034.08 1813.48 1020.93 L 1814.32 1020.18 C 1791.84 1000.82 1763.3 980.243 1739.28 962.068 L 1632.95 881.424 C 1612.08 865.752 1588.68 851.415 1569.58 833.66 C 1546.87 812.558 1544.33 794.04 1578.98 785.919 C 1603.94 797.725 1645.29 833.294 1668.82 850.907 C 1678.05 857.814 1688.28 867.964 1698.16 873.922 C 1693.9 847.78 1693.14 819.683 1688.79 793.205 C 1672.15 691.639 1649.41 546.406 1570.84 473.459 C 1563.2 488.332 1547.61 514.191 1543.02 527.963 C 1531.5 562.541 1522.34 602.5 1515.58 638.297 C 1486.77 790.94 1479.36 950.45 1486.86 1105.56 C 1493.16 1235.61 1506.56 1368.84 1545.86 1493.54 C 1552.14 1513.47 1563.04 1541.83 1575.1 1558.04 L 1578.17 1562.2 z"/>
<path transform="translate(0,0)" fill="rgb(210,220,229)" d="M 1578.17 1562.2 C 1567.73 1568.23 1545.89 1574.61 1536.65 1568.12 C 1456.63 1511.94 1421.58 1306.82 1410.61 1225.7 C 1404.8 1179.83 1400.86 1133.75 1398.79 1087.56 C 1390.76 920.627 1407.18 743.938 1462.43 585.642 C 1473.41 554.183 1522.58 426.677 1570.84 473.459 C 1563.2 488.332 1547.61 514.191 1543.02 527.963 C 1531.5 562.541 1522.34 602.5 1515.58 638.297 C 1486.77 790.94 1479.36 950.45 1486.86 1105.56 C 1493.16 1235.61 1506.56 1368.84 1545.86 1493.54 C 1552.14 1513.47 1563.04 1541.83 1575.1 1558.04 L 1578.17 1562.2 z"/>
</svg>