<svg version="1.1" xmlns="http://www.w3.org/2000/svg" style="display: block;" viewBox="0 0 2048 2048" width="512" height="512" preserveAspectRatio="none">
<path transform="translate(0,0)" fill="rgb(14,61,195)" d="M 1207.53 373.251 C 1220.4 371.802 1244.83 372.752 1258.62 372.783 L 1356.21 372.862 L 1524.49 372.83 C 1557.34 372.83 1590.37 372.589 1623.23 373.331 C 1635.13 373.351 1653.72 375.021 1661.55 385.659 C 1678.93 409.281 1672.24 457.113 1672.09 484.644 L 1672.04 617.623 L 1672.15 759.343 C 1672.21 784.406 1672.62 808.765 1671.54 834.349 C 1671.84 872.101 1617.41 881.558 1601 853.277 C 1590.32 834.867 1593.95 784.102 1593.98 762.13 L 1594.37 629.398 C 1594.52 604.194 1594.53 578.989 1594.38 553.785 C 1594.27 540.834 1593.37 515.052 1595.11 503.411 L 1595.32 502.004 C 1584.08 512.145 1572.44 525.479 1561.93 536.651 C 1549.47 549.744 1536.8 562.648 1523.95 575.36 L 1341.55 758.153 L 771.291 1329.22 L 589.796 1510.86 L 536.951 1563.71 C 525.807 1574.85 511.51 1589.97 499.255 1599.27 L 501.201 1599.04 C 515.06 1597.5 546.727 1598.31 561.579 1598.3 L 673.498 1598.1 L 781.996 1598.06 C 801.486 1597.99 820.289 1597.45 840.071 1598.32 C 858.667 1597.8 879.012 1610.78 878.095 1631.73 C 876.588 1666.14 858.646 1671.91 830.986 1672.26 L 546.077 1672.25 C 523.335 1672.17 500.592 1672.22 477.85 1672.41 C 456.21 1672.79 434.686 1673.16 413.037 1672.44 C 387.557 1671.6 378.432 1657.4 373.939 1634.23 C 368.935 1608.43 372.03 1582.25 372.416 1556.28 C 372.726 1535.45 372.539 1514.41 372.543 1493.57 L 372.473 1314.43 C 372.448 1280.81 372.167 1247.13 372.837 1213.51 C 372.97 1206.83 373.748 1192.07 377.71 1186.6 C 398.143 1158.37 446.308 1166.72 448.519 1204.65 C 449.684 1224.65 449.263 1244.67 449.126 1264.96 L 448.977 1355.06 L 449.417 1479.87 C 449.417 1500.16 449.978 1528.33 448.396 1548.24 C 464.714 1530.25 484.846 1510.69 502.03 1493.42 L 598.818 1396.26 C 707.185 1285.98 816.121 1176.26 925.621 1067.1 L 1371.84 620.013 L 1469.54 522.516 C 1493.75 498.106 1518.5 472.329 1543.22 448.576 C 1530.83 449.035 1515.92 448.45 1503 448.63 C 1449.54 449.196 1396.09 449.356 1342.63 449.109 C 1324.14 449.016 1305.66 449.094 1287.17 449.343 C 1263.27 449.844 1207.31 453.795 1188.41 440.462 C 1180.18 434.635 1174.61 425.773 1172.93 415.832 C 1169.14 392.66 1185.9 376.814 1207.53 373.251 z"/>
<path transform="translate(0,0)" fill="rgb(252,125,15)" d="M 275.543 245.114 C 277.918 244.761 280.318 244.607 282.718 244.656 C 300.448 244.895 320.737 259.154 331.665 272.365 C 344.003 287.281 356.785 300.158 370.438 313.814 L 515.503 458.9 L 983.101 926.423 C 974.703 938.709 955.552 956.475 944.286 967.588 C 941.378 970.704 938.101 975.016 934.659 977.415 C 932.582 978.863 930.39 979.298 927.935 978.531 C 922.758 976.913 844.298 893.992 833.819 883.507 L 449.896 499.241 L 324.428 373.801 C 306.519 355.907 288.592 338.023 270.726 320.092 C 261.984 311.319 254.109 304.699 250.064 292.433 C 242.796 270.396 253.569 251.509 275.543 245.114 z"/>
<path transform="translate(0,0)" fill="rgb(252,125,15)" d="M 1112.88 1063.59 L 1115.91 1064.06 C 1133.83 1077.36 1154.66 1099.02 1171 1115.14 L 1248.7 1192.32 L 1498.92 1442.77 L 1692.96 1636.91 C 1707.59 1651.67 1722.32 1666.34 1737.14 1680.91 C 1754.64 1698.07 1770.32 1712.19 1784.77 1732.24 C 1803.85 1758.71 1776.49 1793.01 1747.71 1786.64 C 1715.19 1775.53 1650.89 1700.97 1623.27 1673.35 L 1427.3 1478.45 L 1191.86 1243.99 C 1150.38 1202.71 1103.19 1157.8 1063.57 1115.69 C 1078.78 1099.24 1097.19 1080.13 1112.88 1063.59 z"/>
</svg>