<svg version="1.1" xmlns="http://www.w3.org/2000/svg" style="display: block;" viewBox="0 0 2048 2048" width="512" height="512" preserveAspectRatio="none">
<path transform="translate(0,0)" fill="rgb(9,43,162)" d="M 752.347 542.568 C 775 451.293 817.729 351.009 873.441 274.671 C 905.198 231.157 952.956 184.923 1008.2 177.991 C 1050.13 172.729 1087.84 190.337 1120.04 216.506 C 1199.08 280.744 1243.34 380.857 1275.12 475.175 C 1279.41 487.912 1292.96 530.873 1294.55 542.659 C 1320.29 529.63 1410.53 504.367 1436.98 504.919 C 1439.66 516.002 1444.54 526.435 1451.32 535.597 C 1443.31 540.139 1421.85 544.224 1412.12 546.777 C 1379.58 555.319 1333.06 564.089 1303.08 579.332 C 1322.41 641.516 1329.97 721.089 1336.99 786.338 C 1339.19 806.83 1338.48 834.795 1340.82 852.995 C 1388.26 875.486 1442.67 930.363 1482.02 964.951 C 1488.33 970.494 1513.59 993.463 1518.07 999.016 C 1525.22 993.62 1540.94 979.804 1547.16 973.163 C 1553.16 980.555 1563.23 992.96 1571.39 998.291 C 1567.2 1007 1554.66 1017.77 1547.29 1024.74 C 1565.8 1041.66 1597.93 1076.6 1615.34 1096.78 C 1683.24 1175.46 1768.56 1279.69 1775.63 1387.75 C 1778.03 1424.58 1765.47 1461.65 1740.45 1489.23 C 1704.53 1528.82 1648.97 1542.29 1597.82 1549.03 C 1590.7 1549.97 1558.85 1551.37 1554.69 1552.83 C 1552.45 1584.62 1532.72 1612.53 1503.51 1625.25 C 1474.29 1637.97 1440.43 1633.4 1415.62 1613.39 C 1390.82 1593.38 1379.2 1561.25 1385.46 1530 C 1362.97 1524.07 1315.56 1510.44 1294.72 1501.84 C 1292.73 1512.17 1286.87 1530.09 1283.67 1540.67 C 1267.74 1594.1 1247.11 1646.01 1222.04 1695.8 C 1189.28 1760.63 1138.54 1833.51 1066.23 1856.81 C 1030 1868.52 990.571 1865.04 956.946 1847.17 C 920.668 1828.17 895.767 1801.17 871.076 1769.47 C 808.405 1689 781.984 1597.56 752.324 1501.87 C 657.463 1531.02 550.508 1549.67 451.965 1545.52 C 358.071 1541.57 261.23 1487.72 273.851 1381.63 C 288.735 1256.51 410.428 1103.27 502.903 1025.12 C 483.338 1000.65 460.666 978.312 439.489 953.434 C 362.691 866.181 236.88 721.058 282.51 594.649 C 332.578 455.948 564.91 497.836 673.858 522.238 C 696.284 527.261 731.857 535.006 752.347 542.568 z M 1302.47 1466.3 C 1316.46 1468.48 1392.32 1488.21 1401.59 1494.57 C 1420.11 1470.54 1449.98 1458.12 1480.09 1461.92 C 1510.19 1465.73 1536.02 1485.2 1547.98 1513.09 C 1599.88 1513.62 1666.01 1507.62 1706.6 1472.29 C 1725.73 1455.63 1735.73 1432.54 1737.19 1407.42 C 1742.81 1310.55 1637.68 1180 1576.3 1110.86 C 1557.55 1089.74 1537.02 1070.25 1518.31 1049.21 C 1506.8 1060.75 1482.45 1079.5 1469.22 1090.28 L 1386.6 1158.36 C 1374.85 1168.12 1362.08 1177.37 1351.13 1187.9 C 1346.56 1191.97 1344.54 1199.01 1343.82 1205.06 C 1335.6 1274.07 1331.23 1342.54 1314.98 1410.48 C 1310.54 1429.03 1307.95 1447.75 1302.47 1466.3 z M 739.77 872.399 C 741.051 899.123 738.995 925.279 738.155 952.003 C 737.506 979.286 737.31 1006.58 737.567 1033.87 C 737.65 1059.47 737.533 1085.96 738.113 1111.5 C 738.572 1131.7 741.697 1149.53 739.581 1170.45 C 815.621 1217.85 886.273 1272.09 965.133 1314.73 C 986.833 1326.47 1005.87 1337.67 1028.63 1347.67 C 1034.59 1344.71 1050.96 1332.86 1058.97 1328.27 C 1117.37 1294.86 1174.61 1259.48 1230.62 1222.21 C 1246.28 1212.04 1261.72 1201.53 1276.92 1190.69 C 1284.75 1185.2 1297.82 1176.32 1304.62 1170.01 C 1308.9 1150.76 1310.29 1114.06 1310.66 1093.77 C 1311.95 1022.85 1311.48 942.786 1305.11 872.391 C 1246.52 819.878 1156.17 771.867 1087.35 732.954 C 1069.7 722.977 1038.96 705.15 1021.47 696.31 C 963.375 729.789 906.684 761.51 850.292 797.988 C 815.671 820.383 774.772 854.303 739.77 872.399 z M 525.233 1508.95 C 554.439 1505.19 584.053 1502 612.77 1495.6 C 657.617 1485.61 700.248 1473.12 745.702 1465.92 C 741.172 1449.49 736.828 1421.47 733.713 1404.05 C 725.518 1359.5 718.648 1314.72 713.112 1269.76 C 710.873 1250.32 709.034 1207.09 704.475 1191.22 C 670.528 1159.76 625.581 1133.11 590.313 1101.53 C 580.794 1093.01 537.923 1052.44 530.771 1049.51 C 519.394 1061.29 506.359 1071.92 495.4 1083.28 C 482.6 1096.55 465.464 1113.26 453.617 1127.45 C 390.908 1202.53 314.564 1306.21 310.933 1407.71 C 310.24 1427.07 320.683 1452.92 334.639 1465.56 C 371.792 1499.2 430.854 1504.3 478.862 1507.17 C 493.364 1508.04 510.241 1509.34 524.162 1508.98 L 525.233 1508.95 z M 531.358 998.789 C 542.511 985.435 548.739 979.434 562.042 968.315 C 592 941.793 622.803 916.242 654.404 891.701 C 669.562 879.874 690.552 865.013 704.457 852.806 C 707.922 827.221 708.928 798.88 711.488 772.893 C 716.071 726.365 721.093 679.315 730.611 633.501 C 733.875 617.786 739.171 593.96 745.264 579.307 C 723.694 573.274 701.298 568.494 679.591 563.035 C 620.895 548.273 561.623 535.801 500.89 534.143 C 492.156 533.904 474.815 533.554 466.255 534.409 C 421.766 538.138 364.082 547.011 333.549 582.379 C 315.915 601.797 308.488 636.162 312.352 662.085 C 326.883 759.572 395.355 846.761 456.822 920.554 C 478.868 947.021 512.429 971.393 531.358 998.789 z M 1025.91 1826.34 C 1142.14 1819.16 1204.72 1650.68 1237.9 1557.78 C 1245.55 1536.34 1250.43 1510.55 1258.93 1490.07 C 1248.54 1487.21 1237.99 1483.47 1227.88 1479.7 C 1188.59 1465.04 1148.38 1449.49 1110.42 1431.74 C 1092.41 1423.32 1074.49 1414.72 1056.66 1405.95 C 1050.17 1402.7 1028.67 1390.5 1022.93 1390.96 C 967.174 1416.3 911.487 1442.73 854.864 1465.97 C 833.65 1474.67 810.459 1482.21 788.817 1490.2 C 799.691 1514.72 804.631 1547.2 814.23 1573.21 C 845.986 1659.22 916.036 1826.86 1025.91 1826.34 z M 1266.63 592.291 C 1203.09 609.22 1125.56 647.816 1065.24 677.225 C 1077.24 683.18 1089.79 690.375 1101.24 697.41 C 1126.9 713.181 1156.5 726.624 1181.39 743.321 C 1198.87 753.184 1224.18 771.124 1240.81 782.644 C 1261.15 796.887 1281.85 810.616 1302.89 823.82 C 1300.29 815.338 1299.05 802.001 1297.89 792.828 C 1295.68 775.074 1293.58 757.306 1291.59 739.527 C 1289.52 721.777 1273.37 595.814 1266.99 592.291 L 1266.63 592.291 z M 745.436 823.977 C 780.195 799.807 814.284 774.666 850.424 752.609 C 855.184 749.703 859.795 747.13 864.499 744.057 C 895.808 723.549 946.582 692.987 980.534 677.171 C 937.206 653.296 881.828 634.221 835.99 614.635 C 819.339 607.521 796.479 599.39 780.804 591.199 C 771.991 638.917 761.674 678.697 754.719 728.343 C 752.134 746.528 750.077 764.784 748.552 783.088 C 747.714 794.338 747.162 813.379 745.436 823.977 z M 699.053 904.95 C 650.498 941.686 606.019 983.564 558.354 1021.36 C 576.932 1039.42 596.24 1056.35 616.414 1072.63 C 620.398 1075.84 624.015 1078.55 627.587 1082.28 C 651.374 1101.87 678.785 1120.63 700.814 1142.07 C 699.582 1126.89 700.713 1094.79 698.988 1080.92 C 696.408 1060.16 705.642 911.145 699.053 904.95 z M 1426.9 1079.73 C 1447.11 1061.21 1468.01 1041.84 1489.49 1024.83 C 1462.53 999.323 1377.17 918.287 1346.15 903.544 C 1349.18 984.309 1350.73 1062.07 1348.5 1142.95 C 1364.53 1124.26 1405.85 1093.62 1426.9 1079.73 z M 1127.71 1397.49 C 1166.48 1413.55 1204.57 1430.59 1244.23 1444.58 C 1252.1 1447.36 1260.15 1450.52 1267.79 1453.83 C 1281.98 1385.43 1297.44 1317.05 1303.09 1247.17 C 1303.58 1241.16 1305.04 1227.24 1303.17 1222.18 L 1300.76 1221.87 C 1278.21 1234.37 1242.47 1261.26 1219.12 1276.53 C 1168.81 1309.41 1117.12 1340.11 1064.18 1368.56 C 1080.66 1373.83 1111.01 1389.46 1127.71 1397.49 z M 1023.78 215.394 C 902.809 224.688 839.223 403.659 807.067 500.539 C 802.626 513.918 792.455 540.676 790.603 553.518 C 793.459 556.915 809.584 561.732 814.271 563.38 C 861.098 579.845 906.348 601.285 951.284 622.337 C 976.386 634.097 1001.38 644.321 1026.63 655.45 L 1028.46 654.542 C 1034.08 651.684 1039.5 647.642 1045.01 644.435 C 1085.75 620.712 1130.34 601.587 1173.95 583.835 C 1199.88 573.28 1231.51 560.561 1258.98 555.05 C 1255.22 542.868 1252.5 530.56 1248.98 518.306 C 1243.83 500.952 1238.2 483.743 1232.1 466.698 C 1203.36 386.205 1124.98 214.001 1023.78 215.394 z M 745.428 1221.52 C 748.637 1234.8 750.424 1258.61 751.922 1272.92 C 754.722 1299.16 757.825 1325.38 761.23 1351.56 C 763.953 1370.97 767.274 1390.29 771.189 1409.49 C 774.111 1423.26 778.775 1440.87 780.774 1454.21 C 800.558 1442.49 820.354 1435.7 841.767 1427.65 C 869.107 1417.38 896.877 1407.83 923.582 1396 C 942.844 1387.48 961.878 1378.45 980.665 1368.93 C 962.32 1356.45 940.696 1343.6 921.678 1331.67 L 812.165 1263 C 802.453 1256.9 752.633 1223.65 745.428 1221.52 z"/>
<path transform="translate(0,0)" fill="rgb(250,113,2)" d="M 1401.59 1494.57 C 1420.11 1470.54 1449.98 1458.12 1480.09 1461.92 C 1510.19 1465.73 1536.02 1485.2 1547.98 1513.09 C 1553.35 1525.61 1555.65 1539.24 1554.69 1552.83 C 1552.45 1584.62 1532.72 1612.53 1503.51 1625.25 C 1474.29 1637.97 1440.43 1633.4 1415.62 1613.39 C 1390.82 1593.38 1379.2 1561.25 1385.46 1530 C 1388.04 1517.11 1393.56 1504.98 1401.59 1494.57 z"/>
<path transform="translate(0,0)" fill="rgb(246,178,115)" d="M 1463.61 1497.56 C 1490.73 1494.63 1515.11 1514.19 1518.11 1541.3 C 1521.11 1568.41 1501.6 1592.83 1474.5 1595.9 C 1447.31 1598.97 1422.78 1579.39 1419.77 1552.19 C 1416.76 1524.99 1436.41 1500.51 1463.61 1497.56 z"/>
<path transform="translate(0,0)" fill="rgb(250,113,2)" d="M 1013.86 887.801 C 1087.69 881.719 1152.5 936.55 1158.74 1010.36 C 1164.98 1084.18 1110.29 1149.11 1036.49 1155.51 C 962.465 1161.93 897.293 1107.03 891.034 1032.99 C 884.776 958.957 939.809 893.901 1013.86 887.801 z"/>
<path transform="translate(0,0)" fill="rgb(246,178,115)" d="M 1019.27 926.376 C 1071.9 923.275 1117.14 963.278 1120.5 1015.89 C 1123.86 1068.49 1084.08 1113.93 1031.49 1117.56 C 978.532 1121.21 932.703 1081.09 929.316 1028.11 C 925.93 975.128 966.277 929.499 1019.27 926.376 z"/>
<path transform="translate(0,0)" fill="rgb(250,113,2)" d="M 1547.16 973.163 C 1545.87 969.336 1542.53 962.542 1540.83 958.337 C 1534.24 942.117 1532.93 926.062 1536.92 908.946 C 1541.93 886.461 1555.8 866.949 1575.39 854.827 C 1600.64 839.29 1622.96 840.284 1650.31 846.806 C 1660.93 853.561 1670.87 858.733 1681.13 866.212 L 1681.82 867.231 C 1685.77 872.992 1689.6 876.739 1693.83 882.759 C 1705.77 899.736 1709.47 922.805 1705.76 943.16 C 1701.8 965.901 1688.7 986.028 1669.51 998.86 C 1638.8 1019.61 1602.1 1018.29 1571.39 998.291 C 1563.23 992.96 1553.16 980.555 1547.16 973.163 z"/>
<path transform="translate(0,0)" fill="rgb(246,178,115)" d="M 1612.23 880.476 C 1638.56 875.652 1663.82 893.122 1668.59 919.47 C 1673.37 945.818 1655.85 971.038 1629.49 975.763 C 1603.2 980.476 1578.07 963.015 1573.3 936.737 C 1568.54 910.458 1585.96 885.286 1612.23 880.476 z"/>
<path transform="translate(0,0)" fill="rgb(250,113,2)" d="M 1436.98 504.919 C 1428.86 471.327 1441.85 436.159 1469.85 415.912 C 1497.86 395.664 1535.33 394.353 1564.68 412.594 C 1594.03 430.834 1609.45 465.008 1603.7 499.085 C 1601.69 511.003 1597.16 522.356 1590.42 532.389 C 1574.99 555.358 1549.37 569.398 1521.7 570.036 C 1494.04 570.674 1467.79 557.831 1451.32 535.597 C 1444.54 526.435 1439.66 516.002 1436.98 504.919 z"/>
<path transform="translate(0,0)" fill="rgb(246,178,115)" d="M 1511.9 438.571 C 1528.38 435.767 1545.1 442.033 1555.68 454.98 C 1566.25 467.926 1569.06 485.557 1563.02 501.147 C 1556.99 516.737 1543.04 527.883 1526.51 530.333 C 1501.32 534.066 1477.82 516.825 1473.81 491.676 C 1469.81 466.527 1486.8 442.843 1511.9 438.571 z"/>
<path transform="translate(0,0)" fill="rgb(9,43,162)" d="M 1603.7 499.085 C 1648.67 502.01 1716.57 524.359 1745.65 559.233 C 1816.06 643.693 1742.83 791.618 1683.57 864.242 C 1683.31 864.555 1681.54 865.874 1681.13 866.212 C 1670.87 858.733 1660.93 853.561 1650.31 846.806 C 1657.84 832.134 1669.33 820.595 1678.29 806.551 C 1714.6 749.66 1761.22 660.012 1724.03 594.563 C 1702.47 559.189 1663.98 544.828 1625.06 537.648 C 1613.81 535.572 1600.74 535.022 1590.42 532.389 C 1597.16 522.356 1601.69 511.003 1603.7 499.085 z"/>
</svg>