<svg version="1.1" xmlns="http://www.w3.org/2000/svg" style="display: block;" viewBox="0 0 2048 2048" width="512" height="512" preserveAspectRatio="none">
<path transform="translate(0,0)" fill="rgb(12,57,165)" d="M 472.894 148.083 C 473.822 148.075 474.752 148.058 475.68 148.102 C 480.715 148.342 485.96 149.399 490.293 152.073 C 504.341 160.743 517.177 176.213 529.009 187.842 C 552.091 210.526 575.74 232.964 597.493 256.95 C 605.116 265.355 624.151 283.426 623.211 294.835 C 622.687 301.189 619.457 306.008 614.616 309.947 C 607.793 315.5 597.367 320.963 588.252 319.796 C 574.858 318.08 514.422 253.509 504.231 240.394 C 502.838 279.065 504.064 325.953 504.066 365.13 L 504.07 606.772 L 504.08 1341.21 L 504.11 1564.64 C 504.155 1604.96 505.989 1642.37 503.9 1682.91 C 527.311 1681.48 558.418 1682.35 582.277 1682.36 L 717.728 1682.38 L 1140.08 1682.39 L 1484.86 1682.38 L 1592.5 1682.34 C 1611.52 1682.34 1638.03 1681.53 1656.44 1683.14 C 1642.76 1671.53 1577.93 1607.8 1572.03 1596.47 C 1569.5 1591.63 1567.87 1584.73 1569.85 1579.42 C 1572.45 1572.47 1578.03 1564.97 1585.05 1562.07 C 1591.2 1559.53 1599.43 1560.17 1605.42 1562.9 C 1618.88 1569.04 1732.92 1684.88 1737.46 1699.07 C 1739.71 1706.09 1739.16 1712 1735.53 1718.38 C 1726.69 1733.91 1683.34 1772.72 1668.44 1787.82 C 1652.31 1804.16 1630.17 1829.68 1613.16 1843.28 C 1605.93 1849.06 1599.27 1852.37 1590.36 1854.86 C 1580.46 1851.48 1576.12 1848.86 1570.03 1840.32 C 1558.75 1807.47 1627.11 1756.41 1649.39 1734.07 C 1628.66 1735.11 1600.91 1734.3 1579.59 1734.29 L 1447.29 1734.27 L 1042.02 1734.26 L 683.022 1734.26 L 570.708 1734.29 C 549.904 1734.33 524.172 1735.16 503.975 1733.88 C 504.846 1757.79 503.679 1783.69 504.168 1807.83 C 503.936 1823.96 504.844 1840.12 503.957 1856.22 C 502.849 1876.31 491.945 1879.6 475.136 1883.44 C 460.719 1879.49 455.72 1874.22 453.542 1858.84 C 451.182 1842.17 452.167 1824.87 452.188 1808.03 C 452.078 1783.32 452.184 1758.61 452.507 1733.9 C 415.452 1735.29 376.861 1734.13 339.73 1734 C 332.822 1733.97 325.284 1732.35 320.137 1727.43 C 306.172 1714.1 312.067 1686.59 332.712 1683.85 C 349.927 1681.42 366.812 1682.16 383.962 1682.29 C 406.918 1682.46 429.964 1681.9 452.81 1682.62 C 451.467 1670.72 452.233 1640.74 452.242 1627.78 L 452.317 1519.29 L 452.31 1167.03 L 452.313 542.292 L 452.322 338.024 C 452.314 307.083 451.159 271.692 452.15 241.36 C 428.965 261.291 408.852 285.524 385.685 306.71 C 366.656 325.208 348.797 324.879 334.818 300.587 C 327.876 288.523 340.072 275.489 348.233 267.477 C 385.627 230.769 422.448 193.35 459.857 156.676 C 463.668 152.94 467.994 150.007 472.894 148.083 z"/>
<path transform="translate(0,0)" fill="rgb(254,137,37)" d="M 1074.4 1056.26 C 1081.03 1039.17 1092.99 1016.59 1101.35 999.823 L 1149.86 902.306 C 1176.97 846.43 1204.5 790.76 1232.45 735.302 C 1265.98 667.832 1302.29 579.318 1375.47 545.041 C 1401.82 532.699 1446.33 523.592 1471.6 543.07 C 1473.2 547.542 1474.27 550.394 1475.33 555.081 C 1469.37 580.881 1455.68 582.214 1432.34 585.147 C 1411.71 587.741 1390.19 594.716 1374.33 608.46 C 1360.93 619.395 1344.08 639.661 1335.07 654.614 C 1312.25 692.491 1292.23 735.6 1272.49 775.392 L 1173.24 975.542 C 1152.87 1016.95 1126.87 1072.7 1103.8 1112.05 C 1091.23 1129.16 1082.52 1144.89 1073.78 1164.22 C 1070.82 1169.36 1067.92 1174.53 1065.07 1179.72 C 1052.16 1203.09 1040.18 1224.01 1023.87 1245.78 C 958.595 1332.4 873.652 1407.56 776.794 1457.16 C 758.515 1466.52 704.943 1494.32 684.317 1483.19 C 671.28 1476.16 667.46 1451.59 681.145 1439.89 C 698.287 1425.23 719.99 1424.04 739.054 1415.06 C 762.864 1403.83 785.872 1390.98 807.918 1376.59 C 887.125 1324.59 954.548 1256.56 1005.83 1176.89 C 1019.09 1156.54 1032.51 1131.23 1045.46 1109.82 C 1051.92 1102.32 1071.94 1065.55 1074.4 1056.26 z"/>
<path transform="translate(0,0)" fill="rgb(249,96,0)" d="M 678.548 543.942 C 683.665 538.738 686.7 535.702 693.94 533.934 C 716.548 528.412 747.598 536.453 768.271 545.088 C 845.803 577.472 881.562 666.595 917.214 736.647 C 953.773 807.863 989.19 879.658 1023.45 952.006 C 1034.36 974.989 1045.95 997.577 1056.87 1020.54 C 1062.22 1031.81 1069.97 1045.02 1074.4 1056.26 C 1071.94 1065.55 1051.92 1102.32 1045.46 1109.82 C 1033.14 1095.19 1014.65 1054.27 1005.25 1036.2 C 983.722 994.806 963.698 951.567 943.435 909.483 C 919.721 859.628 895.284 810.12 870.132 760.976 C 854.616 730.248 839.733 698.578 822.536 668.618 C 802.104 633.026 770.896 595.241 728.127 587.839 C 709.771 584.662 700.237 585.973 683.054 576.608 C 675.666 564.339 675.26 557.211 678.548 543.942 z"/>
<path transform="translate(0,0)" fill="rgb(249,96,0)" d="M 1103.8 1112.05 C 1110.76 1118.72 1120.82 1138.13 1126.48 1147.51 C 1133.02 1158.17 1139.75 1168.72 1146.65 1179.15 C 1215.71 1281.88 1310.24 1378.81 1428.6 1423.35 C 1447.05 1430.3 1474.36 1437.67 1477.29 1460.95 C 1477.85 1475.96 1461.42 1485.93 1448.11 1485.74 C 1436.25 1485.66 1423.57 1480.07 1412.58 1475.65 C 1285.85 1424.69 1184.7 1327.15 1107.5 1216.49 C 1095.46 1199.22 1085.17 1181.75 1073.78 1164.22 C 1082.52 1144.89 1091.23 1129.16 1103.8 1112.05 z"/>
</svg>