<svg version="1.1" xmlns="http://www.w3.org/2000/svg" style="display: block;" viewBox="0 0 2048 2048" width="512" height="512" preserveAspectRatio="none">
<path transform="translate(0,0)" fill="rgb(5,29,141)" d="M 999.459 250.32 C 1424.55 236.537 1780.34 569.949 1794.15 995.038 C 1807.97 1420.13 1474.59 1775.94 1049.5 1789.8 C 624.364 1803.65 268.499 1470.22 254.679 1045.08 C 240.859 619.942 574.318 264.104 999.459 250.32 z M 1574.41 1009.1 C 1569.8 894.995 1529.94 785.12 1460.32 694.598 C 1391.81 604.031 1296.39 537.485 1187.72 504.505 C 1147.15 492.421 1112.6 486.584 1070.98 481.135 L 1071.23 513.79 C 1071.79 525.929 1072.63 543.338 1071.3 555.314 C 1091.37 577.649 1097.93 580.974 1071 600.524 C 1070.28 612.378 1069.6 624.195 1070.44 636.073 C 1073.95 637.76 1094.92 639.548 1100.74 640.818 C 1111.92 643.264 1123.04 645.555 1134.18 648.538 C 1211.57 669.065 1281.27 711.779 1334.7 771.419 C 1382.82 824.861 1414.52 891.044 1425.99 962.04 C 1427.92 973.717 1431 996.966 1430.27 1008.8 C 1474.24 1008.44 1531.19 1007.41 1574.41 1009.1 z M 1078.74 800.663 C 1213.8 827.397 1287.96 938.377 1271.25 1073.65 C 1278.61 1086.2 1287.13 1097.93 1294.47 1110.22 C 1311.06 1137.94 1327.22 1164.36 1346.65 1190.23 C 1392.1 1104.19 1402.06 1019.38 1373.16 925.775 C 1346.64 836.822 1285.38 762.312 1203.24 719.078 C 1154.5 693.405 1094.04 677.394 1038.74 678.458 C 840.262 685.574 686.251 847.608 697.707 1046.71 C 700.082 1087.97 708.718 1123.74 726.211 1161.26 C 731.886 1150.73 741.102 1137.3 747.818 1127 C 760.456 1107.55 773.221 1088.18 786.112 1068.9 C 789.06 1064.48 806.866 1038.16 807.987 1034.5 C 812.975 1018.24 814.227 995.965 819.024 977.693 C 839.369 900.187 895.698 834.183 972.625 808.879 C 1010.89 796.293 1039.82 796.162 1078.74 800.663 z M 654.865 1646.72 C 646.557 1640.18 636.221 1633.9 627.383 1627.25 C 605.55 1610.83 584.847 1592.96 565.414 1573.76 C 451.234 1462.49 374.998 1318.1 347.526 1161.06 C 342.333 1130.96 337.113 1084.95 337.007 1053.89 C 327.211 1052.08 308.813 1054.46 296.982 1053.33 C 298.469 1068.3 299.334 1083.32 300.963 1098.24 C 320.845 1280.36 409.049 1454.12 550.493 1571.7 C 565.367 1584.07 642.968 1645.78 654.865 1646.72 z M 1046.76 965.124 C 1040.51 975.534 1030.64 988.054 1023.19 997.984 L 979.202 1055.9 C 976.061 1060.05 961.43 1078.89 960.187 1082.45 L 989.082 1108.57 C 1011.17 1074.75 1045.21 1027.56 1070.58 996.284 C 1064.89 985.402 1052.92 975.21 1046.76 965.124 z M 337.636 1010.91 C 333.109 966.987 346.186 907.705 355.577 865.156 C 361.634 837.718 370.365 805.909 380.001 779.625 C 467.021 542.268 695.293 356.014 946.012 321.045 C 982.233 315.989 1016.86 316.299 1053.22 316.162 C 1057.26 315.027 1061.28 313.857 1065.3 312.654 C 1104.81 323.134 1080.72 341.144 1071.05 361.714 C 1071.74 386.173 1072.13 416.203 1070.81 440.792 C 1102.23 443.926 1130.97 447.027 1161.69 454.03 C 1286.65 483.233 1398.43 552.954 1479.61 652.325 C 1547.58 735.354 1592.18 835.002 1608.82 941.003 C 1611.74 959.228 1615.68 990.057 1615.45 1008.75 C 1656.99 1008.77 1713.48 1007.07 1754.03 1009.15 C 1753.42 997.303 1753.58 985.594 1752.84 973.865 C 1750.86 946.201 1747.4 918.663 1742.48 891.369 C 1711.95 732.296 1630.3 587.549 1509.94 479.152 C 1365.7 349.238 1182.21 280.462 987.798 291.125 C 793.282 302.548 611.206 390.538 481.393 535.85 C 389.286 637.861 328.415 764.18 306.019 899.785 C 299.62 939.808 297.755 971.002 296.819 1011.12 C 310.628 1010.57 323.817 1010.76 337.636 1010.91 z M 746.802 1202.61 C 749.888 1206.59 769.429 1233.71 771.724 1234.21 L 772.312 1233.36 C 775.019 1223.12 778.883 1215.9 784.69 1207.12 C 806.117 1174.69 827.132 1141.7 849.595 1110 C 861.817 1092.75 876.195 1072.29 891.83 1058.07 C 882.495 1047.73 873.853 1038.88 866.424 1027.03 C 841.576 1060.16 817.936 1094.18 795.552 1129.02 C 782.367 1149.29 761.102 1184.09 746.802 1202.61 z"/>
<path transform="translate(0,0)" fill="rgb(248,128,28)" d="M 1693.24 1049.47 C 1710.46 1047.73 1737.19 1048.57 1755.21 1048.7 C 1751.85 1089.64 1748.93 1122.59 1740.62 1163.15 C 1707.6 1323.88 1621.59 1468.89 1496.37 1574.93 C 1420.19 1639.57 1331.86 1688.33 1236.58 1718.36 C 1220.04 1723.6 1189.32 1732.7 1172.03 1734.02 C 1132.81 1741.15 1091.01 1749.15 1051.07 1749.09 C 1051.91 1705.02 1051.18 1658.35 1051.05 1614.14 C 1187.3 1610.39 1317.68 1557.89 1418.51 1466.17 C 1540.33 1356.22 1606.71 1212.81 1615.12 1049.61 C 1638.97 1050.37 1669.3 1050.1 1693.24 1049.47 z"/>
<path transform="translate(0,0)" fill="rgb(239,63,0)" d="M 1693.24 1049.47 C 1710.46 1047.73 1737.19 1048.57 1755.21 1048.7 C 1751.85 1089.64 1748.93 1122.59 1740.62 1163.15 C 1707.6 1323.88 1621.59 1468.89 1496.37 1574.93 C 1420.19 1639.57 1331.86 1688.33 1236.58 1718.36 C 1220.04 1723.6 1189.32 1732.7 1172.03 1734.02 C 1173.28 1730.83 1173.02 1730.24 1176.58 1728.46 C 1186.71 1723.49 1198.06 1721.1 1208.64 1717.23 C 1409.04 1643.77 1577.84 1479.86 1654.76 1280.47 C 1678.66 1218.53 1692.93 1152.66 1696.56 1086.29 C 1697.14 1075.65 1699.89 1061.3 1696.89 1050.92 C 1696.42 1049.62 1695.14 1049.85 1693.24 1049.47 z"/>
<path transform="translate(0,0)" fill="rgb(139,164,237)" d="M 337.007 1053.89 C 346.491 1051.13 429.571 1053.05 445.105 1053.07 C 445.999 1083.76 446.844 1107.02 452.074 1137.77 C 472.815 1259.71 536.063 1366.51 625.411 1450.7 C 719.761 1539.95 840.391 1596.38 969.374 1611.6 C 999.489 1614.85 1021.28 1614.42 1051.05 1614.14 C 1051.18 1658.35 1051.91 1705.02 1051.07 1749.09 C 933.659 1748.39 826.778 1731.62 719.964 1681.42 C 694.968 1669.68 677.787 1663.16 654.865 1646.72 C 646.557 1640.18 636.221 1633.9 627.383 1627.25 C 605.55 1610.83 584.847 1592.96 565.414 1573.76 C 451.234 1462.49 374.998 1318.1 347.526 1161.06 C 342.333 1130.96 337.113 1084.95 337.007 1053.89 z"/>
<path transform="translate(0,0)" fill="rgb(139,164,237)" d="M 486.039 1053.05 L 655.608 1053.08 C 670.461 1145.35 703.132 1225.73 768.382 1294.3 C 822.953 1351.5 894.238 1389.93 972.009 1404.1 C 1000.12 1409.17 1021.78 1410.25 1050.2 1410.99 C 1050.66 1464.87 1050.69 1518.76 1050.3 1572.64 C 1034.24 1573.77 1010.18 1571.81 993.968 1570.52 C 861.829 1559.21 737.577 1502.88 641.988 1410.95 C 543.45 1317.86 487.132 1188.61 486.039 1053.05 z"/>
<path transform="translate(0,0)" fill="rgb(229,228,228)" d="M 1070.58 996.284 C 1079.14 999.65 1147.86 1097.95 1161.31 1112.26 C 1178.47 1130.52 1193.77 1178.04 1221.86 1138.93 C 1227.6 1129.61 1238.57 1112.88 1243.16 1103.65 C 1270.31 1145.34 1296.55 1187.62 1321.85 1230.47 C 1314.75 1239.39 1308.53 1247.26 1300.78 1255.66 C 1288.38 1268.74 1277.97 1279.69 1264.04 1291.34 C 1213.29 1332.99 1151.59 1359.1 1086.37 1366.55 C 986.421 1378.56 900.396 1347.55 820.808 1287.41 C 809.836 1279.12 773.927 1246.93 772.312 1233.36 C 775.019 1223.12 778.883 1215.9 784.69 1207.12 C 806.117 1174.69 827.132 1141.7 849.595 1110 C 861.817 1092.75 876.195 1072.29 891.83 1058.07 C 910.574 1091.45 921.216 1122.66 960.187 1082.45 L 989.082 1108.57 C 1011.17 1074.75 1045.21 1027.56 1070.58 996.284 z"/>
<path transform="translate(0,0)" fill="rgb(252,189,136)" d="M 1243.16 1103.65 C 1270.31 1145.34 1296.55 1187.62 1321.85 1230.47 C 1314.75 1239.39 1308.53 1247.26 1300.78 1255.66 C 1285.68 1243.11 1252.87 1183.07 1240.01 1163.93 C 1235.23 1156.82 1228.7 1144.18 1221.86 1138.93 C 1227.6 1129.61 1238.57 1112.88 1243.16 1103.65 z"/>
<path transform="translate(0,0)" fill="rgb(248,128,28)" d="M 485.233 1011.81 C 485.334 980.478 487.726 948.851 494.052 918.137 C 538.509 702.28 734.842 524.357 949.265 487.122 C 953.749 492.633 968.114 506.487 973.978 512.667 C 996.371 534.67 1044.66 592.214 1071 600.524 C 1070.28 612.378 1069.6 624.195 1070.44 636.073 C 1065.2 638.08 1037.3 637.226 1029.49 637.894 C 1013.65 639.249 998.643 640.647 982.842 643.199 C 871.981 659.983 774.205 724.901 715.711 820.558 C 679.047 879.543 658.023 941.793 655.649 1011.38 C 614.378 1010.64 562.613 1010.05 521.687 1011.45 C 509.626 1012.03 497.323 1011.84 485.233 1011.81 z"/>
<path transform="translate(0,0)" fill="rgb(252,189,136)" d="M 485.233 1011.81 C 485.334 980.478 487.726 948.851 494.052 918.137 C 538.509 702.28 734.842 524.357 949.265 487.122 C 953.749 492.633 968.114 506.487 973.978 512.667 C 963.389 517.434 943.489 519.55 931.381 522.795 C 908.694 528.875 887.127 535.368 865.181 543.775 C 729.843 595.038 621.12 699.055 563.921 831.993 C 536.597 896.408 529.178 943.254 521.687 1011.45 C 509.626 1012.03 497.323 1011.84 485.233 1011.81 z"/>
<path transform="translate(0,0)" fill="rgb(248,128,28)" d="M 337.636 1010.91 C 333.109 966.987 346.186 907.705 355.577 865.156 C 361.634 837.718 370.365 805.909 380.001 779.625 C 467.021 542.268 695.293 356.014 946.012 321.045 C 982.233 315.989 1016.86 316.299 1053.22 316.162 C 1049.05 323.102 1038.91 334.772 1033.43 341.374 L 999.708 381.945 C 984.557 400.299 963.783 428.556 948.783 445.113 L 947.642 445.505 C 941.169 447.657 934 449.259 927.287 450.684 C 896.829 457.149 867.149 466.071 837.98 476.98 C 695.349 528.738 577.373 632.2 507.441 766.856 C 472.554 835.511 443.993 934.075 445.043 1011.33 C 409.607 1010.89 372.796 1011.89 337.636 1010.91 z"/>
<path transform="translate(0,0)" fill="rgb(248,128,28)" d="M 1527.17 1049.24 C 1543.4 1048.49 1559.66 1048.34 1575.9 1048.8 C 1575.04 1079.82 1573.48 1104.46 1567.58 1135.32 C 1546.72 1244.47 1487.35 1344.56 1407.5 1420.96 C 1359.11 1467.27 1302.37 1505.53 1240.72 1531.52 C 1229.86 1536.1 1210.57 1543.92 1199.51 1545.98 C 1151.21 1560.92 1101.1 1572.84 1050.3 1572.64 C 1050.69 1518.76 1050.66 1464.87 1050.2 1410.99 C 1073.4 1410.05 1094.35 1408.91 1117.25 1404.55 C 1297.44 1370.17 1407.86 1225.08 1430.21 1049.61 C 1452.87 1050.37 1476.06 1049.4 1498.77 1049.83 C 1507.94 1050 1518.05 1049.97 1527.17 1049.24 z"/>
<path transform="translate(0,0)" fill="rgb(239,63,0)" d="M 1527.17 1049.24 C 1543.4 1048.49 1559.66 1048.34 1575.9 1048.8 C 1575.04 1079.82 1573.48 1104.46 1567.58 1135.32 C 1546.72 1244.47 1487.35 1344.56 1407.5 1420.96 C 1359.11 1467.27 1302.37 1505.53 1240.72 1531.52 C 1229.86 1536.1 1210.57 1543.92 1199.51 1545.98 C 1202.95 1536.88 1236.56 1520.9 1246.06 1515.6 C 1258.22 1508.96 1270.03 1501.7 1281.45 1493.86 C 1306.16 1476.94 1329.28 1457.81 1350.51 1436.7 C 1447.76 1341.01 1526.22 1187.5 1527.17 1049.24 z"/>
<path transform="translate(0,0)" fill="rgb(248,128,28)" d="M 858.989 979.647 C 883.714 910.374 924.218 863.154 997.886 845.01 C 1053.74 831.253 1088.55 834.272 1137.98 863.81 C 1214.36 909.13 1234.4 966.125 1235.05 1052.66 C 1222.68 1066.57 1209.93 1081.58 1200.77 1097.91 L 1111.04 982.124 C 1099.84 967.67 1062.61 916.512 1049.77 910.091 C 1028.28 910.82 994.697 966.827 982.358 984.423 C 968.651 1003.97 945.328 1030.17 934.201 1050.4 C 922.874 1032.36 905.922 1011.51 892.312 994.936 C 879.734 978.663 879.349 978.473 858.989 979.647 z"/>
<path transform="translate(0,0)" fill="rgb(252,189,136)" d="M 858.989 979.647 C 883.714 910.374 924.218 863.154 997.886 845.01 C 1053.74 831.253 1088.55 834.272 1137.98 863.81 C 1121.76 864.406 1108.08 857.188 1092.46 856.981 C 1014.97 855.957 939.238 891.529 906.243 964.586 C 902.917 971.948 896.986 989.213 892.312 994.936 C 879.734 978.663 879.349 978.473 858.989 979.647 z"/>
<path transform="translate(0,0)" fill="rgb(248,128,28)" d="M 1003.89 441.19 C 1016.82 425.776 1059.16 370.57 1071.05 361.714 C 1071.74 386.173 1072.13 416.203 1070.81 440.792 C 1048.51 439.863 1026.18 439.996 1003.89 441.19 z"/>
<path transform="translate(0,0)" fill="rgb(252,189,136)" d="M 998.804 480.692 C 1022.14 481.533 1046.56 480.285 1070.98 481.135 L 1071.23 513.79 C 1071.79 525.929 1072.63 543.338 1071.3 555.314 C 1064.29 550.154 1040.38 521.747 1033.95 514.213 C 1022.22 503.753 1011.34 490.814 998.804 480.692 z"/>
<path transform="translate(0,0)" fill="rgb(248,128,28)" d="M 1033.95 514.213 C 1037.2 512.787 1065.28 513.778 1071.23 513.79 C 1071.79 525.929 1072.63 543.338 1071.3 555.314 C 1064.29 550.154 1040.38 521.747 1033.95 514.213 z"/>
</svg>